<svg xmlns="http://www.w3.org/2000/svg" xmlns:xlink="http://www.w3.org/1999/xlink" viewBox="0 0 579 477"><defs><style>.cls-1{isolation:isolate;opacity:0.1;fill:url(#linear-gradient);}.cls-2{fill:#1c1c1c;}.cls-3{fill:#3f3e3b;}.cls-4{fill:#ff9739;}.cls-5{fill:#e3e4ff;}.cls-6{fill:#b85137;}.cls-7{fill:#934131;}.cls-8{fill:#f7f2df;}.cls-9{fill:#31302c;}.cls-10{fill:#fffee9;}.cls-11{fill:url(#linear-gradient-2);}.cls-12{fill:url(#linear-gradient-3);}.cls-13{fill:#fcc400;}.cls-14{fill:#ffda88;}.cls-15{fill:#51305a;}.cls-16{fill:#ed1c24;}.cls-17{fill:red;}.cls-18{fill:#1b2b80;}.cls-19{fill:#8c90dd;}.cls-20{fill:#fc7575;}.cls-21{fill:#653870;}.cls-22{fill:#fd5e5a;}.cls-23{fill:#f9b406;}.cls-24{fill:#253a42;}.cls-25{fill:#556266;}.cls-26{fill:#ffd371;}.cls-27{fill:#ba9bc9;}.cls-28{fill:#073e59;}.cls-29{fill:#164659;}.cls-30{fill:#18287d;}.cls-31{fill:#2846a6;}.cls-32{fill:#172866;}.cls-33{fill:#fff;}.cls-34{fill:#fbc804;}.cls-35{fill:#fde602;}.cls-36{fill:#fcda03;}.cls-37{fill:#381a3f;}.cls-38{fill:#662d91;}.cls-39{fill:#4c2a54;}.cls-40{fill:#6077bd;}.cls-41{fill:#e25454;}.cls-42{fill:#111f59;}.cls-43{fill:#542360;}.cls-44{fill:#cd7798;}.cls-45{fill:#38458e;}.cls-46{fill:#9f78b9;}.cls-47{fill:#5861b5;}.cls-48{fill:url(#linear-gradient-4);}.cls-49{fill:#ff0;}.cls-50{fill:#c0c4f2;}.cls-51{fill:#d2d5ff;}.cls-52{fill:#ced1f4;}.cls-53{fill:url(#linear-gradient-5);}.cls-54{fill:#f9cc5d;}.cls-55{fill:url(#linear-gradient-6);}.cls-56{fill:url(#linear-gradient-7);}.cls-57{fill:#ddd9c3;}.cls-58{fill:#6f6d62;}.cls-59{fill:#ce563e;}.cls-60{fill:#d87865;}</style><linearGradient id="linear-gradient" x1="294.26" y1="105.96" x2="283.17" y2="-13.5" gradientTransform="matrix(1, 0, 0, -1, 0, 478)" gradientUnits="userSpaceOnUse"><stop offset="0" stop-color="#0e0801"/><stop offset="1" stop-color="#0e0801" stop-opacity="0"/></linearGradient><linearGradient id="linear-gradient-2" x1="64.29" y1="333.67" x2="115.76" y2="335.56" gradientTransform="matrix(1, 0, 0, -1, 0, 478)" gradientUnits="userSpaceOnUse"><stop offset="0" stop-color="#f5ab39"/><stop offset="1" stop-color="#fffb4d"/></linearGradient><linearGradient id="linear-gradient-3" x1="26.81" y1="354.29" x2="148.77" y2="358.76" xlink:href="#linear-gradient-2"/><linearGradient id="linear-gradient-4" x1="446.66" y1="286.48" x2="562.21" y2="286.48" gradientTransform="matrix(1, 0, 0, -1, 0, 478)" gradientUnits="userSpaceOnUse"><stop offset="0" stop-color="#f57939"/><stop offset="1" stop-color="#fffb4d"/></linearGradient><linearGradient id="linear-gradient-5" x1="324.61" y1="341.51" x2="443.65" y2="-86.33" xlink:href="#linear-gradient-4"/><linearGradient id="linear-gradient-6" x1="394.9" y1="361.07" x2="513.94" y2="-66.77" gradientTransform="matrix(1, 0, 0, -1, 0, 478)" gradientUnits="userSpaceOnUse"><stop offset="0" stop-color="#f9b320"/><stop offset="1" stop-color="#fffd2c"/></linearGradient><linearGradient id="linear-gradient-7" x1="342.78" y1="346.57" x2="461.82" y2="-81.28" xlink:href="#linear-gradient-6"/></defs><g id="Layer_2" data-name="Layer 2"><g id="Layer_1-2" data-name="Layer 1"><path class="cls-1" d="M30.6,425c-58.69-15.07-18.13-35,0-36.17,46.77-3,142.11-6.83,195.18,0,66.33,8.54,97.34,20.1,150.31,30.14s140.3,7,188.49,13.06-31,53.26-140.29,43.71C316,466.27,254.41,447.6,198.58,448.6S89.3,440.06,30.6,425Z"/><path class="cls-2" d="M107.31,305.09c-1.93.07,1.31,35.82,1.31,35.82L165.22,416l-9.66,7.5-5.45,2,7.44-.27,16.57-7.67-3.58-6.6,1.61-.63-38.31-67.11,3.68-57.2-30.21,19"/><path class="cls-3" d="M158,269.8l-42.53-14.71L51.94,325.22,88.3,414.33,72.94,426.65l26.6-3.42-3.6-11.06,2.45-.26-19-78.14,76.93-54.54L158,269.8"/><path class="cls-4" d="M102.92,121.37l.56-3.39.72.11-.55,3.4Z"/><path class="cls-4" d="M105.5,118.44l-3.25-.64.09-.41,3.24.65Z"/><path class="cls-2" d="M140.91,193.16S110.41,180.63,94.45,166l-.65-.61a32.41,32.41,0,0,1-1.66-44.71l8.82-10,3.2,5.18S91.33,130,98.67,146.42s59.09,19.39,59.09,19.39l-16.85,27.35"/><path class="cls-4" d="M98.33,150.52l3.94-31.69,2.92.37-4,31.68-2.91-.36"/><path class="cls-5" d="M146.91,151.18l.65,9,9.28,2,4.76-8.84-14.69-2.22"/><path class="cls-6" d="M174.38,130.41a157.57,157.57,0,0,0-5,22.25c-1.93,12.68.39,13.05-3,13.93-4.73,1.22-17.08-1.67-18.79-6.36,0,0,8.62-13.52,6.77-20.46l20-9.36"/><path class="cls-7" d="M154.33,139.77c.89,3.34-.65,8.22-2.48,12.37,5.65-.3,12.91-3.68,18.69-11.14.55-.71,1.07-1.45,1.57-2.22,1.24-5.16,2.27-8.37,2.27-8.37Z"/><path class="cls-8" d="M159.2,155.68c-4.36-.71-9.67.39-16,1.81a65.07,65.07,0,0,0-11.69,20.72c-.43,1.31-1.09,4-1.89,7.5,6.9-7.3,13.33-14.36,20.36-21.72a91.5,91.5,0,0,1,9.22-8.31"/><path class="cls-9" d="M170.81,168.06c-2.67-8.23-6.5-11.55-11.61-12.38A91.5,91.5,0,0,0,150,164c-7,7.36-13.46,14.43-20.36,21.72-4.53,20-14.17,69.38-14.17,69.38L166,277.25l-2.19-22.8s12-71.13,7-86.39"/><path class="cls-5" d="M156.17,151.37l-6.37,5.9,19.3,6.5.59-8.31Z"/><path class="cls-10" d="M161,157.57l-4.8-6.2,13.52,4.09,1.31,5.17Z"/><path class="cls-11" d="M66.44,139.41a4.48,4.48,0,0,0,3.67,5.15L108.44,151a4.47,4.47,0,1,0,1.49-8.82L71.6,135.74A4.49,4.49,0,0,0,66.44,139.41Zm41.63,13.83-38.33-6.47A6.71,6.71,0,1,1,72,133.53L110.31,140a6.71,6.71,0,0,1-2.24,13.24Z"/><path class="cls-12" d="M148.56,133.3c-3.63-1-81.59-13.12-83.44-13.08A7.59,7.59,0,0,0,58,125.51l-.14.44c0,.31-1.46,9.76-1.37,9.11a7.39,7.39,0,0,0,.94,4.81,7.19,7.19,0,0,0,4.16,3.23c.07,0,53,8.56,53,8.56a7.23,7.23,0,0,0,7.71-4.9c.24-.87,2.27-9.09,2.4-10a7.29,7.29,0,0,0-5.56-8.18c-.91-.25-10.88-1.89-13.83-2.39-28.25-4.91-59.72-8.56-60.69-8.58-4.2,0-8,3.32-10.8,6.5l-1.15,1.4-1.2,1.58a56,56,0,0,0-4.31,7.07l9.23-46.61c.83,7.25,2.4,10.18,2.37,10.08,1.42,4,3.81,8.46,7.73,10,1.09.41,32.05,8.37,59.7,13.88l9.23,1.9c3.9.83,6.87.88,9.81,3.59A11.64,11.64,0,0,1,129,137.45c-.11.67-2.15,9.42-2.14,9.34a11.74,11.74,0,0,1-7,8.56,12,12,0,0,1-7,.64l-3.49-.54c-7.71-1.19-32.77-5-47.09-7.52-6.3-1.12-10.12-6-10.15-11.4a12.34,12.34,0,0,1,.16-2.16c0-.08.55-3.09.51-2.9.9-4.91,1-7.12,2.78-9.76a11.31,11.31,0,0,1,10.26-4.93c5.36,1,78.82,13.66,83.41,15.13l-.68,1.39"/><path class="cls-13" d="M33.81,111.17c-2.59,13.07-5.81,23.44-7.19,23.16s-.39-11.08,2.21-24.16S34.64,86.73,36,87,36.41,98.09,33.81,111.17Z"/><path class="cls-14" d="M36,87c.24,0,.37.37.44.6,2.21,7.12-6.6,47.38-9.84,46.73C29.54,134.68,38.8,87.78,36,87"/><path class="cls-4" d="M88.58,150.49l5-32.94,2.9.45-5,32.94Z"/><path class="cls-4" d="M93.68,150.38l4.11-32.28,2.91.37-4.1,32.28Z"/><path d="M94.35,120.16l.55-3.4.73.12-.56,3.4Z"/><path class="cls-4" d="M96.92,117.23l-3.25-.64.09-.41,3.24.64Z"/><path class="cls-4" d="M98.51,120.28l.56-3.4.73.12-.56,3.4Z"/><path d="M101.09,117.35l-3.24-.65.08-.4,3.24.65Z"/><path class="cls-6" d="M104.48,156.81S102,141.55,100,142l-4.84,1.07c-1.43.31-1.76.8-2.72,1a13.53,13.53,0,0,0-5.09,3.72c-.41.57,3.9,7.89.37,12.71-2.78,3.79-.83,9.9-.83,9.9l6.92-1.86s6.85-7.36,8.47-7.71,10.55-2.49,10.55-2.49.49-2.76-2.19-2.17-5.73,2.62-6.17.64"/><path class="cls-3" d="M97.35,163.81s-9.22-4.49-11-4.34-11,42.55,7.92,57.2,71.37-31.36,72.72-40.6-5-17.2-12.65-16.59-39,39.19-47.87,35.48-9.09-31.15-9.09-31.15"/><path class="cls-14" d="M94.24,216.66c18.91,13.81,70.8-31.28,72.72-40.59C165.28,186.37,113,231.67,94.24,216.66Z"/><path class="cls-14" d="M160.29,160.83a11,11,0,0,0-6-1c-.11.05-1,0-3.59,1.86-6.16,4.55-15.06,13.83-23.65,20.67,4.68-4.87,19.42-20.09,25.51-22.69C154.94,158.61,158.14,159.41,160.29,160.83Z"/><path class="cls-6" d="M104.13,117.38c.23-.25,2.32-4.87.61-6.46s-2.07-1-2.77,1.57-1,6.47.24,6.43S104.13,117.38,104.13,117.38Z"/><path class="cls-6" d="M103,110.24s-2.16-1.73-3.25-.56-.82,10.53,0,10.18,2-.57,1.89-2.34S103,110.24,103,110.24Z"/><path class="cls-6" d="M94.29,121.53c.74.69,1.62.73,2,.29s1.2-5.8,1.2-5.8-.47,4.28.92,4.06,3.11-8.55,2.09-9.5a2.42,2.42,0,0,0-2.46-.34.35.35,0,0,0-.11-.1,1.17,1.17,0,0,0-1.76.66s-2.55,10.13-1.91,10.73"/><path class="cls-14" d="M39.69,102.54c6.63,9.33,6.36,8.89,25.55,12.33l17.84,3.07c-15.86-2.13-11.19-1.54-17.93-2.5-18.64-2.82-19.88-2.45-26.38-12.26A.56.56,0,0,1,39.69,102.54Z"/><path class="cls-13" d="M143,129.31l-.76,4.06,3.35.35.23-.48,3.27.35.67-1.74-3.82-.76,0-.74-2.91-1"/><path class="cls-6" d="M170.8,105.42c-4.87-.78-13.21-.36-15.15,6.77-2.49,9.1-7.16,12.58-7.16,12.58l3.4,1.26s-.08.17-.2.5a13.28,13.28,0,0,0-2,3c-.78,1.77-.09,1.07-1.31.95s-.65,1.66-.28,1.9-.46,1-.35,1.58.9-.13,1.13,1c.12.6.34,2.08.72,3.49a5.82,5.82,0,0,0,.81,2.17l0,0a2.48,2.48,0,0,0,.75.86c3.71,3.34,13.62,1.91,20.74-7.28,7.69-9.93,8.83-27.27-1.1-28.85"/><path class="cls-15" d="M157.09,119.63a1.21,1.21,0,0,0,1,1.33,1.12,1.12,0,0,0,1.08-1.18,1.18,1.18,0,0,0-1-1.32A1.11,1.11,0,0,0,157.09,119.63Z"/><path class="cls-15" d="M162.49,118.94a8.68,8.68,0,0,0-3.08-3.14,7.86,7.86,0,0,0-2.47-.86l.37-1.11S162,115.19,162.49,118.94Z"/><path class="cls-9" d="M153.43,110.32a19,19,0,0,0,7.87,6c4.75,1.72,3.8,6.62,4.9,7.64s4.55-4.55,5.62-3.55c.44.41-2.87,5.47-2.85,8.86,0,5,3.15,9.08,2.89,10.5,0,0,10.27-19.44,10-26s-.31-7.53-6.39-10.18-22.06,6.67-22.06,6.67"/><path class="cls-3" d="M137.6,121.47S162,122.77,178.52,108c10.67-9.57,9.2-10.31,9.2-10.31s-6.83,4.06-9.62,2.89-7.72-6.44-9.78-8.46-3.56,1.46-6.94,2.84-4-.22-6.7.86-1.31,11.46-3.24,14S137.6,121.47,137.6,121.47Z"/><path class="cls-14" d="M137.6,121.47c14.23-.15,28.45-4.72,36.49-10.27a51.32,51.32,0,0,0,4.43-3.25C167.51,118.47,150.45,122.36,137.6,121.47Z"/><path class="cls-14" d="M156.21,101.49a21.93,21.93,0,0,1,6.28-7.07,21.45,21.45,0,0,0-6,7.2,12.11,12.11,0,0,0-1.08,2.93.19.19,0,0,1-.37-.07A12.42,12.42,0,0,1,156.21,101.49Z"/><path class="cls-6" d="M166.52,123.34s6.19-7.14,7.38-2.68-4.16,11-5.78,10S163.69,128.23,166.52,123.34Z"/><path class="cls-7" d="M166.21,123.65s4.08-3.6,4.68-1.34-1.25,6.69-3.19,5.51-2.39-2.62-1.49-4.17"/><path class="cls-16" d="M150.67,159l-4.78-1.23,1-4,4.78,1.23Z"/><path class="cls-17" d="M145.89,157.8l-5.14.19,1.75-6.81,4.41,2.64Z"/><path class="cls-17" d="M150.67,159l4.41,2.65,1.76-6.81-5.15.18Z"/><path class="cls-18" d="M86.24,235.55l-.12,0c-14.21-4.68-22.85-18-27.59-28.29a97.35,97.35,0,0,1-7-21.47.36.36,0,0,1,.3-.42.37.37,0,0,1,.43.3,97.24,97.24,0,0,0,6.91,21.29c4.68,10.19,13.19,23.29,27.13,27.88a.37.37,0,0,1,.24.47A.36.36,0,0,1,86.24,235.55Z"/><path class="cls-18" d="M106.79,240.46h-.1C92.41,236.38,83.2,225.53,78,217.14a74.5,74.5,0,0,1-8-17.37.38.38,0,0,1,.26-.46.37.37,0,0,1,.46.26,74.43,74.43,0,0,0,7.9,17.2c5.15,8.26,14.22,19,28.26,23a.37.37,0,0,1,.26.46.38.38,0,0,1-.36.27"/><path class="cls-18" d="M181.37,153.71a.38.38,0,0,1-.32-.18.37.37,0,0,1,.13-.51c14.68-8.91,19.47-20.31,20.9-28.3a36.55,36.55,0,0,0-.4-15.33.38.38,0,0,1,.72-.22,37.64,37.64,0,0,1,.42,15.68c-1.46,8.14-6.34,19.75-21.25,28.81a.46.46,0,0,1-.2.05"/><path class="cls-19" d="M258.45,183.4c.57.3,1.15.59,1.72.87,21,10.22,40.89,6.72,48.31,1,2.46-1.91,3.59-4.08,3.19-6.1-.67-3.27-5.13-6.16-12.55-8.13-14.77-3.91-29.91,4.17-40.67,12.39Zm10.95,88.28c19.65,7.51,42.22,13.07,67.48,16.59l1.24.18c10.71,1.51,43.31,6.11,54.83-3.9a11.78,11.78,0,0,0,4.15-9.28c0-13.19-15.39-20.68-44.49-21.66-28.33-1-56.48,4.72-79.26,16q-2,1-4,2.09ZM246,337.91c15.95,36.09,61,56.83,100.16,45.49,5.74-1.67,12.17-5.6,11.38-11.18-.28-2-1.45-3.86-3.67-6-4.34-4.14-9.68-6.92-16.35-9.8a222.66,222.66,0,0,0-66.2-17.22l-1-.1c-7.07-.72-15.8-1.6-24.31-1.21Zm-73.71,65.72-.57-1.11c12.21-6.39,16.7-13.89,22.9-24.27,5.12-8.57,11.5-19.23,24.48-32.21,6.21-6.21,15.44-8.62,25.06-9.28l-.51-1.24c-5.45-14-5.35-27.67.29-39.63,4.45-9.42,12.21-17.62,22.63-24a195.38,195.38,0,0,1-26.26-12.59c-5.92-3.43-12.36-7.86-15.13-14.64-9.15-22.43,18.55-49.91,24.19-55.19,1.94-1.82,4.24-3.85,6.83-5.9-17.49-9.82-30.78-27.37-39-40.77a186.21,186.21,0,0,1-14.59-29l1.16-.43a186.48,186.48,0,0,0,14.51,28.78c8.24,13.38,21.54,30.93,39,40.57,11-8.5,26.73-17,42.19-12.94,10.14,2.68,12.91,6.42,13.45,9.08s-.79,5.12-3.65,7.33c-7.68,5.95-28.15,9.62-49.61-.83-.76-.37-1.51-.76-2.26-1.15-2.72,2.13-5.13,4.25-7.16,6.15-5.54,5.18-32.73,32.14-23.88,53.81,2.63,6.44,8.85,10.71,14.6,14a197.69,197.69,0,0,0,27,12.87c1.57-.92,3.2-1.79,4.89-2.63,23-11.35,51.32-17.07,79.85-16.11,11.44.39,20.53,1.7,27.77,4,11.89,3.82,17.93,10.17,17.93,18.88a12.93,12.93,0,0,1-4.58,10.21c-12,10.39-43.83,5.89-55.82,4.2l-1.24-.17c-25.76-3.59-48.74-9.3-68.7-17-24.37,14.37-33,37.39-23.2,62.58.21.55.43,1.08.65,1.62,8.75-.45,17.72.46,25,1.2l1,.1A224.21,224.21,0,0,1,338,355.29c5.88,2.55,12,5.53,16.71,10,2.44,2.33,3.72,4.46,4,6.7.91,6.38-6,10.75-12.26,12.55-39.86,11.56-85.82-9.7-101.84-46.61-9.52.59-18.64,2.89-24.69,8.94-12.88,12.87-19.2,23.46-24.29,32-6.07,10.15-10.87,18.18-23.4,24.74"/><path class="cls-20" d="M217.66,425.64l.77,4.23s-5.1,2.55-5.1,5-1.8,5.69-9.56,5.69c0,0,5.1-3.73,6.34-7.46a36,36,0,0,0,1.22-8.68Z"/><path d="M219.52,428.08c-.09-2.35-1-2.51-1-2.51s-1.31-.43-2.88,1.78-3.69,9-3.69,9l-4.4,1.19s-6.57,4.24-2.09,4a13.56,13.56,0,0,0,7.19-2.3s1.2-5.82,2.91-7c2.42-1.66,1.59,3.33,1.5,6.2a1.17,1.17,0,0,0,.74-.11c.69-3.37,1.79-8.68,1.73-10.32"/><path class="cls-21" d="M208.59,117.65l-3.83,2.22-7-12.08,3.83-2.21Z"/><path class="cls-22" d="M287.48,256.15s3.95,5.71,3.95,8.72-.83,5.2-1.46,5.2-.52-4.16-.52-5.2-2.49-5.5-2.49-5.5Z"/><path class="cls-20" d="M232.08,136.88s-22.92,58.41-37.06,51.3c-6.75-3.39,9.12-28.82,9.12-28.82s13.12-29.7,22.45-35.75S232.08,136.88,232.08,136.88Z"/><path class="cls-22" d="M226.59,123.61a28.38,28.38,0,0,0-6.58,6.93c-1.64,10.59-3.77,27-3.26,38.37a272.65,272.65,0,0,0,15.32-32S235.91,117.56,226.59,123.61Z"/><path class="cls-23" d="M270.66,129.08s-18.32-7.62-29-8.71c-23.65-2.42-21.78,21.28-21.78,21.28l2,46.53S204.13,221.7,201.68,236s6.17,98.75,6.17,98.75l-11,95.59,44.94-2.45s-3.27-88.24-3.27-102.13,20.19-88.76,22.65-101-5.85-31.24-7.6-36.57c-5.46-16.62,9.46-27.32,9.46-27.32l7.66-31.78"/><path class="cls-20" d="M260.76,227.45S252,295.33,243.4,327.61c0,0,7.56,11.64,10,23.07s7.35,58.63,7.35,58.63S268.31,421,268.31,423s-.2,8.58-1.42,8.58-7.76-1.84-7.76-6.13-3.27-14.3-3.27-14.3-16.94-47.87-19.61-54.74c-4-10.3-5.93-27.77-5.93-27.77s3.27-104.45,30.44-101.18"/><path d="M267.65,421l-1,5.71L262,427.92l-2.92-2.59s0,.08,0,.11c0,4.29,6.53,6.13,7.76,6.13s1.43-6.53,1.43-8.58a6.22,6.22,0,0,0-.67-2"/><path class="cls-24" d="M264.09,428.47a.64.64,0,1,1-.64-.64A.64.64,0,0,1,264.09,428.47Z"/><path class="cls-24" d="M265.06,429.41a.31.31,0,1,1-.61,0,.31.31,0,0,1,.61,0Z"/><path class="cls-24" d="M265.53,428.22a.54.54,0,1,1-.54-.54A.54.54,0,0,1,265.53,428.22Z"/><path class="cls-25" d="M266,429.55a.26.26,0,1,1-.26-.26A.25.25,0,0,1,266,429.55Z"/><path class="cls-25" d="M266.38,428a.3.3,0,1,1-.3-.3A.3.3,0,0,1,266.38,428Z"/><path class="cls-25" d="M267.06,429a.27.27,0,1,1-.53,0,.27.27,0,0,1,.53,0Z"/><path class="cls-22" d="M258.58,243.34c1.37-9.63,2.18-15.89,2.18-15.89-27.17-3.27-30.44,101.17-30.44,101.17s.24,2.2.73,5.5C233.28,315.54,241.59,256.63,258.58,243.34Z"/><path class="cls-26" d="M260.76,227.45a10.07,10.07,0,0,0-4.28.5,13.31,13.31,0,0,0-2.7,1.35l-1,.78a20.36,20.36,0,0,0-3.49,3.82c-13.28,18.28-17.66,72.16-18.94,94.73.08-4.65.31-9.3.57-13.94,4.23-68.69,18.3-80.8,18.59-81.72a18.25,18.25,0,0,1,4.18-3.86l1.14-.66a11.17,11.17,0,0,1,2.05-.77,10.48,10.48,0,0,1,3.91-.23"/><path d="M198.63,104.25,195,106.17,361.08,419c1.2-.64,2.41-1.26,3.62-1.88L198.63,104.25"/><path class="cls-5" d="M275.42,253.38,201,113.12a.41.41,0,1,1,.73-.39Z"/><path class="cls-27" d="M199.39,108.53l-.88.56a5.44,5.44,0,0,1-7.51-1.65L180,90.31a5.42,5.42,0,0,1,1.64-7.5l.88-.57a5.44,5.44,0,0,1,7.51,1.65L201,101a5.44,5.44,0,0,1-1.65,7.51"/><path d="M183.42,89.88a.63.63,0,0,0,.52.28.59.59,0,0,0,.34-.1l6.91-4.4-.67-1L183.61,89A.63.63,0,0,0,183.42,89.88Z"/><path d="M185,92.45a.61.61,0,0,0,.53.28.57.57,0,0,0,.33-.09l7-4.44-.67-1-7,4.44a.63.63,0,0,0-.19.86"/><path d="M186.8,95.34a.62.62,0,0,0,.86.19l7-4.46L194,90l-7,4.46A.62.62,0,0,0,186.8,95.34Z"/><path d="M188.72,98.93a.63.63,0,0,0,.52.28.67.67,0,0,0,.34-.09l7.27-4.64-.67-1-7.27,4.64a.62.62,0,0,0-.19.86"/><path d="M190.3,101.5a.64.64,0,0,0,.52.29.7.7,0,0,0,.34-.1L198.47,97l-.66-1-7.32,4.67a.62.62,0,0,0-.19.86"/><path d="M192.1,104.39a.64.64,0,0,0,.52.29.67.67,0,0,0,.34-.1l7.35-4.69-.67-1-7.35,4.69a.62.62,0,0,0-.19.86"/><path class="cls-20" d="M193.44,120.4s1.18-8.35,2.35-9.69,13.79-1.75,13.51-.59-6.53.56-7.82,1.46-.21,1.58,1.67,2,3.52,1,3.29,1.92-4.85.5-4.85.5,2.77.36,3.14,1-.5,2.57-1.75,2.26l-1.25-.3s2.88.44,2.56,1.74-4.41.75-4.7,2,5.91,33.16,4.29,43.88-4.76,21-7.69,21.51c-9.72,1.79-7.87-55.93-2.75-67.74"/><path class="cls-20" d="M262.73,148.2a40.32,40.32,0,0,0,1.21,20.73c4.38,13.29,11.87,37.3,13.16,49.6,1.84,17.57,1.84,32.48,1.84,32.48s-4.39,11.95-3.27,13.07.9-4.09,3.27-4.09.61,15,2,16.44,2.65-18.38,3.88-17.15,1.12,7.35,1.12,7.35-3.37,6.74-2.75,7.35,3.67-3.47,5.31-8.17-2.45-18.07-2.45-18.07.1-40.34-3-56.38-6.92-61.59-12.46-62.28c-3.27-.4-6.13,10.3-7.93,19.12"/><path d="M362.84,406.71l-9,7.35,9,11.58,7.36-6.4-7.36-12.53"/><path class="cls-28" d="M409.86,392.53c3.22,4.63-13.1,21.61-36.48,37.92s-44.94,25.79-48.16,21.16,13.1-21.59,36.47-37.91S406.63,387.91,409.86,392.53Z"/><path class="cls-29" d="M399.2,400c2.41,3.46-9.8,16.16-27.29,28.37s-33.62,19.3-36,15.84,9.8-16.17,27.29-28.37S396.78,396.51,399.2,400Z"/><path class="cls-30" d="M271.45,96.35c-4.48-4.22-4.57-6.46-5-10.69s-.59-6.39-3.76-9.81-9.29-2.31-12.89-6-7.21-.93-9.28,0c0,0-2.66-.3-8.36,2.35A19.34,19.34,0,0,0,222.27,83c-1.25,3.41-3.41,2.17-6.52,3.62s-1.34,2.2-2.95,4.14a4,4,0,0,1-3.5,1.62l3.32,5.79s6,.35,8.67-4c0,0-1.41,7.12-6.82,7.67l-.72.07c.6,1,3.19,4.82,6.94,6.19,4.3,1.57,4-1.82,5.72,1.81s7.84,5.33,9.65,4.49,7,.94,7,.94,12.66-2.14,13.31-3.94,4.18-4.39,5.8-3.8,6.24-3.85,6.24-3.85L274.1,102s1.83-1.48-2.65-5.69"/><path class="cls-20" d="M252.83,102c.58-1.59,1.67,13.93-1,21.32-.45,1.22-9.28,9.43-13.4,5.28a26.88,26.88,0,0,0,3.32-11c.52-6.48-3.35-9.74-3.35-9.74S252.28,103.51,252.83,102Z"/><path class="cls-22" d="M252.83,102c-.55,1.52-14.46,5.88-14.46,5.88a10.57,10.57,0,0,1,2.88,4.85c3.58-.12,9.28-1.16,12.29-3.58,0-4.53-.43-7.94-.71-7.15"/><path class="cls-20" d="M237.15,75.76s-6.35,5-6,8.06-2.5,7.16-1.42,13.55,4.9,10.36,6.7,11,13.49-.85,16.5-5.2S264.75,93,257.28,81.91,237.15,75.76,237.15,75.76Z"/><path class="cls-31" d="M249.05,75.48s-7.36,1.58-13.31,3.35a9.44,9.44,0,0,0-6,12.48c1.87,4-5,6.58-5.86,1.64,0,0,4.44,3.1,4.17-.85s-4.28-6.49-.87-11.7,5.67-11.2,11.27-10.32S249.05,75.48,249.05,75.48Z"/><path class="cls-31" d="M249.05,75.48s4.95,7.34,3.63,11-4.57,6.16-1.31,7.36,4.71,2.91,1.26,4.51-7.78,3.47-4,4.85,6,4.45,4.2,5.3-6.17.34-6.17.34,3.51,5.26,6,4.39,5.58-1.37,6.12-2.84c.08-.25.38-.32.8-.26,3.88.46,7.23-2.34,8.62-6a.65.65,0,0,1,.25-.38c.91-.42-4.72-8.79-6.7-14.74A58.49,58.49,0,0,0,259,82.4a12.24,12.24,0,0,0-10-6.92"/><path class="cls-32" d="M237,91.34a6.43,6.43,0,0,1-2.74,1.2,21.56,21.56,0,0,0,1.7,2.73,17.19,17.19,0,0,0-.67-2.21,4.46,4.46,0,0,0,3.45-3.71A7.12,7.12,0,0,1,237,91.34Z"/><path class="cls-33" d="M235,99.22s4.41.56,6.35-.19-.72,1.38-2.8,1.86S234.55,99.6,235,99.22Z"/><path d="M241.17,88.82c.74-1.22,2.24-2.19,3.64-1.69s1.8,1.94,3.19,2.37c-1.38.29-2.4-1.27-3.46-1.63S242.29,88.13,241.17,88.82Z"/><path d="M236.45,89.5c-.74-1.23-2.24-2.2-3.63-1.69s-1.8,2-3.19,2.38c1.38.29,2.4-1.28,3.46-1.64S235.34,88.81,236.45,89.5Z"/><path class="cls-31" d="M245.2,82.14a4.8,4.8,0,0,1,3.74,1.72c-2.53-1.47-3.85-1.13-5.31-.21s-1.68,1.58-2.09,1.12,1.85-2.4,3.66-2.63"/><path class="cls-31" d="M233.64,84.42a6.47,6.47,0,0,0-2.54.84c1.64-2.17,3.54-2.35,5.14.19a.4.4,0,0,1-.64.46s-1.51-1.44-2-1.49"/><path class="cls-34" d="M253.94,135.13a1.73,1.73,0,1,1,1.73-1.73A1.74,1.74,0,0,1,253.94,135.13Z"/><path class="cls-34" d="M260.21,131.48a1.73,1.73,0,1,1,1.73-1.72A1.72,1.72,0,0,1,260.21,131.48Z"/><path class="cls-34" d="M256.74,137.48a1.73,1.73,0,1,1,1.74-1.73A1.73,1.73,0,0,1,256.74,137.48Z"/><path class="cls-35" d="M260.55,137.52a.66.66,0,0,1-.65-.66.65.65,0,0,1,.65-.65.66.66,0,0,1,.66.65A.67.67,0,0,1,260.55,137.52Z"/><path class="cls-35" d="M257.88,140.22a1.14,1.14,0,1,1,1.15-1.14A1.14,1.14,0,0,1,257.88,140.22Z"/><path class="cls-35" d="M255.52,147a1.14,1.14,0,1,1,1.14-1.14A1.14,1.14,0,0,1,255.52,147Z"/><path class="cls-35" d="M258.05,132.06a.65.65,0,1,1,0-1.3.65.65,0,1,1,0,1.3Z"/><path class="cls-35" d="M254.87,128.43a.66.66,0,0,1-.65-.66.65.65,0,0,1,1.3,0A.66.66,0,0,1,254.87,128.43Z"/><path class="cls-34" d="M255.67,144a1.73,1.73,0,1,1,1.73-1.74A1.73,1.73,0,0,1,255.67,144Z"/><path class="cls-34" d="M211,235.72a1.65,1.65,0,0,1-1.05-.36,1.72,1.72,0,0,1-.32-2.42,1.73,1.73,0,0,1,2.43-.32,1.73,1.73,0,0,1-1.06,3.1Z"/><path class="cls-34" d="M206.41,255.37a1.65,1.65,0,0,1-1-.36,1.72,1.72,0,0,1-.32-2.42,1.77,1.77,0,0,1,1.38-.68,1.66,1.66,0,0,1,1.05.37,1.71,1.71,0,0,1,.31,2.42A1.69,1.69,0,0,1,206.41,255.37Z"/><path class="cls-34" d="M219.43,271.66a1.65,1.65,0,0,1-1.05-.36,1.73,1.73,0,1,1,2.43-.31A1.76,1.76,0,0,1,219.43,271.66Z"/><path class="cls-34" d="M214.5,246.39a1.69,1.69,0,0,1-1.06-.37,1.71,1.71,0,0,1-.31-2.42,1.74,1.74,0,0,1,2.43-.31,1.74,1.74,0,0,1-1.06,3.1Z"/><path class="cls-34" d="M213.35,271.19a1.76,1.76,0,0,1-1.06-.36,1.74,1.74,0,0,1-.31-2.43,1.72,1.72,0,0,1,1.37-.67,1.76,1.76,0,0,1,1.06.36,1.73,1.73,0,0,1-1.06,3.1"/><path class="cls-34" d="M221,279.34a1.73,1.73,0,1,1,0-3.46,1.7,1.7,0,0,1,1.06.36,1.73,1.73,0,0,1-1.06,3.1Z"/><path class="cls-34" d="M258.48,149.3a1.73,1.73,0,1,1,1.72-1.73A1.73,1.73,0,0,1,258.48,149.3Z"/><path class="cls-34" d="M205.61,235.72a1.73,1.73,0,1,1,1.73-1.73A1.72,1.72,0,0,1,205.61,235.72Z"/><path class="cls-34" d="M223.48,144a1.73,1.73,0,1,1,1.73-1.74A1.73,1.73,0,0,1,223.48,144Z"/><path class="cls-34" d="M211,229.11a1.73,1.73,0,1,1,1.73-1.74A1.73,1.73,0,0,1,211,229.11Z"/><path class="cls-34" d="M207.34,247.29a1.73,1.73,0,0,1-.1-3.46h.11a1.73,1.73,0,0,1,.09,3.46Z"/><path class="cls-36" d="M211,255.11a1.73,1.73,0,0,1-.1-3.46H211a1.73,1.73,0,0,1,.09,3.45H211"/><path class="cls-36" d="M224.45,296a1.74,1.74,0,0,1-1.73-1.63,1.72,1.72,0,0,1,1.63-1.83h.1a1.74,1.74,0,0,1,.1,3.47Z"/><path class="cls-36" d="M231,291.66a1.73,1.73,0,0,1-.1-3.46H231a1.73,1.73,0,0,1,.09,3.46Z"/><path class="cls-36" d="M222.72,328.39a1.73,1.73,0,0,1-.1-3.46h.1a1.74,1.74,0,0,1,.1,3.47Z"/><path class="cls-36" d="M228.27,362.14a1.73,1.73,0,0,1-.1-3.46h.1a1.73,1.73,0,0,1,.1,3.46Z"/><path class="cls-36" d="M225.32,311a1.73,1.73,0,0,1-.1-3.46h.1a1.73,1.73,0,0,1,.1,3.46Z"/><path class="cls-36" d="M205.61,240.92a1.15,1.15,0,0,1-.06-2.29h.06a1.15,1.15,0,0,1,.07,2.29Z"/><path class="cls-36" d="M215.64,282.15a1.15,1.15,0,0,1-.06-2.29h.06a1.15,1.15,0,0,1,.07,2.3h-.07"/><path class="cls-36" d="M211,264.58a1.15,1.15,0,0,1-.06-2.29H211a1.15,1.15,0,0,1,.07,2.29H211"/><path class="cls-36" d="M220.94,285.85a1.15,1.15,0,0,1-.06-2.29h.06a1.14,1.14,0,0,1,.07,2.28Z"/><path class="cls-36" d="M232.1,387.87a1.15,1.15,0,0,1-.07-2.29h.07a1.15,1.15,0,0,1,.07,2.29h-.07"/><path class="cls-36" d="M207.34,228.52a1.15,1.15,0,0,1-.07-2.29h.07a1.15,1.15,0,0,1,.07,2.29Z"/><path class="cls-36" d="M211,222.49a1.15,1.15,0,0,1-1.14-1.08A1.14,1.14,0,0,1,211,220.2H211a1.14,1.14,0,0,1,1.15,1.08,1.16,1.16,0,0,1-1.08,1.21Z"/><path class="cls-36" d="M233.9,405.07a1.15,1.15,0,0,1-.06-2.29h.06a1.15,1.15,0,0,1,.07,2.29h-.07"/><path class="cls-36" d="M217.44,261.69a1.15,1.15,0,0,1-.06-2.29h.06a1.15,1.15,0,0,1,.07,2.29h-.07"/><path class="cls-34" d="M210.39,260.74a1.34,1.34,0,0,1-.08-2.68h.08a1.34,1.34,0,0,1,.08,2.68Z"/><path class="cls-34" d="M225.73,301.45a1.34,1.34,0,0,1-.08-2.68h.08a1.34,1.34,0,0,1,.08,2.68h-.08"/><path class="cls-34" d="M228.83,317.57a1.35,1.35,0,0,1-.08-2.69h.08a1.34,1.34,0,0,1,.08,2.68Z"/><path class="cls-34" d="M227.64,350.82a1.34,1.34,0,0,1-.08-2.68h.08a1.34,1.34,0,0,1,.08,2.68Z"/><path class="cls-34" d="M227.08,287.19a1.34,1.34,0,0,1-.08-2.68h.08a1.34,1.34,0,0,1,.07,2.68h-.07"/><path class="cls-34" d="M224.73,148.81a1.76,1.76,0,0,1-1.55-.94,1.74,1.74,0,0,1,.76-2.33,1.69,1.69,0,0,1,.78-.19,1.73,1.73,0,0,1,.79,3.27A1.69,1.69,0,0,1,224.73,148.81Z"/><path class="cls-34" d="M253.94,140.32a1.73,1.73,0,1,1,1.73-1.73A1.73,1.73,0,0,1,253.94,140.32Z"/><path class="cls-37" d="M168.52,415.06H142.41a6.7,6.7,0,0,1-6.7-6.7V368.41a6.69,6.69,0,0,1,6.7-6.69h26.11a6.69,6.69,0,0,1,6.7,6.69v39.95A6.7,6.7,0,0,1,168.52,415.06Z"/><path class="cls-38" d="M168.07,364.64a7.06,7.06,0,0,1,4.19,5.71c.08.72.07-1.23-.27,32.73,0-1.49-.32-33.24-.31-31.79a6.33,6.33,0,0,0-5.77-6.38c-.5,0,.17,0-16.31.13a.57.57,0,1,1,0-1.14C167.54,364.08,166.22,363.91,168.07,364.64Z"/><path class="cls-37" d="M146.61,420.6h-3.85l-1.85-9.27h5.7Z"/><path class="cls-37" d="M163.41,420.6h3.84l1.85-9.27h-5.69Z"/><path class="cls-21" d="M170.38,389a14.1,14.1,0,1,1-14.1-14.09A14.1,14.1,0,0,1,170.38,389Z"/><path class="cls-39" d="M163,389a6.69,6.69,0,1,1-6.69-6.69A6.69,6.69,0,0,1,163,389Z"/><path class="cls-40" d="M451.59,130.26c-2.66,23.7-10,106,4.66,124.8l-5.07,3.84c-15.31-21.75-4.11-102.74,0-128.69Z"/><path class="cls-40" d="M473.66,128.9c18.92-2.85,51.31-6.46,70.45-4.64l-.68,6.8c-1.52-.14-13.63-3.45-52-2.51-5.9.16-11.8.37-17.7.72Z"/><path class="cls-2" d="M435.92,139.23s-4.79-1.7-7.69,26a129.69,129.69,0,0,0,5,50.47S450.82,234,456.72,236l8.79-18.42-18.46-16.8v-23.2l-11.13-38.32"/><path class="cls-41" d="M546.14,144.56l-3.51,10.62,6.46.85,1.58-4.29s3.38-12.55,2.57-13.37-7.1,6.19-7.1,6.19"/><path class="cls-2" d="M483.13,144s32.73,30.25,46.81,30.25,20.73-22.5,20.73-22.5l-13.41-9.06s0,18.69-11.94,12.5-42.19-24.11-42.19-24.11V144"/><path d="M481,130.23l-9.37-.76,53.16,25.71,5.11-7.05Z"/><path class="cls-9" d="M477.37,248.79V426.51l-7.12,14.88,3.32,6.86,8.28-2.74,5-21.33-1.65-6.73h3.73l21.37-173.69H499.79l-22.42,5"/><path class="cls-2" d="M520.13,243.76l26,94.24-21.29,88.51,6,13.05,10.31,2.74H524.85l-5.3-11.74-3.4-4.05,11.3-90.34L503,283.56l-2.74-39.8Z"/><path class="cls-9" d="M430.92,148.27S454.8,199,461.77,204.7c8.28,6.72,7,57.1,7,57.1l56.07-15.2c-3.4-13.35-10.34-48.88-14.56-59-4.14-9.94-9.19-27.16-14.17-39.32s-9.85-18.8-20.9-18.8S435.61,125.63,430.92,148.27Z"/><path class="cls-33" d="M457.8,136.06l17.2,1.32,12.5,40.43Z"/><path class="cls-21" d="M488.31,275.23a18.81,18.81,0,0,1-16.11,8.12c-1.74-.07-3.09-.39-3.44-1.12-1.25-2.55,92.59-130.49,92.59-130.49s6.49,3.16.86,14.77C557.48,176.27,504.81,251.69,488.31,275.23Z"/><path class="cls-21" d="M559.35,100.81s3.41,2.44,5.16,10.18-30.33,42.24-26.58,50-13.1,2.48-13.1,2.48l21.26-37,13.26-25.64"/><path class="cls-18" d="M452,85.06a8.73,8.73,0,0,0-7.68-1.16l.4,1A8.21,8.21,0,0,1,452,85.06Z"/><path class="cls-18" d="M443.44,90.49a7.54,7.54,0,0,1,3.05-4.1,6.43,6.43,0,0,1,3.8-.93c.45,0,.89.11,1.34.16a9.51,9.51,0,0,0-2.68-.24c-2.78.12-5.09,2.34-6.05,5l.54.16"/><path class="cls-20" d="M471.67,114.18s-1.43,15.09,3,22.49a3.65,3.65,0,0,1-2.93,5.56,21.83,21.83,0,0,1-6.58-1c-2.72-.76-7-3.28-8-6.64-3.14-10.39,2.82-28.9,2.82-28.9Z"/><path class="cls-22" d="M458.38,111.53c.83-3.47,1.58-5.81,1.58-5.81l11.71,8.46a69.58,69.58,0,0,0-.11,9.48C467.74,122.82,462.73,120,458.38,111.53Z"/><path class="cls-20" d="M475.19,78.22s2.54-1,4.66,2.26,4.09,14.1,2.25,24.11-3.24,13.83-7.61,13.83-12.41-1.84-18.33-15.38S452.21,74,475.19,78.22Z"/><path class="cls-42" d="M475.9,86.47c1,0,5.4.64,6.93-8.39S474.7,58,468.07,60.94s1.76,8.12,1.76,8.12-4.79-2.68-6.2.42.7,4.51,0,5.22-5.25-5.63-10.32-.56-1.67,8.17-2.94,11-7.09,6.87-1.27,16.35a16.2,16.2,0,0,0,10,7.16,28.16,28.16,0,0,1-1-7.44c0-4.23,3.38-.85,3.38-.85S460,100,460,95.85c0-4.5-1.83-8.13-1.83-9.28s-.42-4.11,4.37-2.14,13.4,2,13.4,2"/><path class="cls-43" d="M491,73.57a.22.22,0,0,0,.22-.21c0-16.18-18.08-22.29-18.26-22.35a.22.22,0,0,0-.27.14.21.21,0,0,0,.14.26c.18.06,18,6.08,18,22a.22.22,0,0,0,.21.21"/><path class="cls-32" d="M474,104.71a.28.28,0,0,1-.06-.56l3.67-.36-.91-9.52c.41,2.7,1.19,7.74,1.54,10l-4.24.41"/><path class="cls-32" d="M465.09,94.12c2.82-4.34,7.27-1.58,7.31-1.55a.28.28,0,1,1-.3.47c-.16-.1-4-2.49-6.54,1.38a.29.29,0,0,1-.39.09.28.28,0,0,1-.08-.39"/><path class="cls-32" d="M481.73,90.08a.29.29,0,0,1,0,.57,3.05,3.05,0,0,0-2.92,2.51.28.28,0,0,1-.55-.1,3.66,3.66,0,0,1,3.47-3"/><path class="cls-33" d="M471.22,108.43h0c1.36,1.42,4.64,1.32,6.57,1h0a.35.35,0,0,1,.13.68c-5.39,1.23-8.47-.8-7.53-1.7A.57.57,0,0,1,471.22,108.43Z"/><path class="cls-32" d="M477.88,95.81A4.47,4.47,0,1,0,482.34,91,4.63,4.63,0,0,0,477.88,95.81Z"/><path class="cls-32" d="M467,96.16a4.47,4.47,0,1,0,4.46-4.78A4.64,4.64,0,0,0,467,96.16Z"/><path class="cls-44" d="M479.48,92.13h0Zm0,0s0,0,0,0S479.51,92.11,479.5,92.11Zm0,0,.24-.19Z"/><path class="cls-45" d="M485.73,98.92,479,92.7a4.11,4.11,0,0,1,.53-.57h0l.24-.19,6.57,6A4.22,4.22,0,0,1,485.73,98.92Z"/><path class="cls-45" d="M484.49,100l-6.35-5.82a5.48,5.48,0,0,1,.23-.56l6.6,6.06C484.81,99.79,484.65,99.91,484.49,100Z"/><path class="cls-46" d="M475.2,98.74Z"/><path class="cls-47" d="M474.51,99.64l-6.75-6.19a5,5,0,0,1,.72-.87l6.72,6.16h0l0,0h0A4.79,4.79,0,0,1,474.51,99.64Z"/><path class="cls-47" d="M473.12,100.59l-6-5.53a3.78,3.78,0,0,1,.17-.6l6.39,5.86A5.44,5.44,0,0,1,473.12,100.59Z"/><path class="cls-32" d="M475.53,96.09h2.35v-.56h-2.35Z"/><path class="cls-32" d="M467.07,95.89c-.19-.06-4.83-1.61-8.32-.75a.28.28,0,0,0,.14.55c3.33-.83,7.95.72,8,.74A.28.28,0,0,0,467.07,95.89Z"/><path class="cls-20" d="M462.69,102.68s.29-6.35-4.65-7.62-4.29,4.31-1.55,7,6.2.57,6.2.57"/><path class="cls-22" d="M458,97c2.07-.57,3,2.32,3,2.61.29.94.15,1.81-1.59,2.14S456,97.51,458,97Z"/><path class="cls-48" d="M556.87,103.81,446.66,259.86S460.89,268,461.85,269s6.91,13.25,6.91,13.25,88.49-117.43,90.87-121.8c3.68-6.78,3.84-13.11-6.29-10.89-12.83,2.8-11,16.27-17.46,9.78s24.92-43.64,26.1-47.5-2.63-11-2.63-11l-2.48,3"/><path class="cls-5" d="M451.09,253.59l19.16,11.34L540.8,164.82l-19.13-11.17-70.58,99.94"/><path class="cls-37" d="M489,210.38,502.65,219l3.11-4.41L492,205.93Z"/><path class="cls-37" d="M495.49,200.88l13.8,8.66,3.11-4.41-13.86-8.7-3.05,4.45"/><path class="cls-37" d="M485.71,215.13l13.62,8.55,3.11-4.41-13.68-8.59-3.05,4.45"/><path class="cls-37" d="M479.2,224.63l13.49,8.47,3.1-4.41-13.54-8.5Z"/><path class="cls-37" d="M469.42,238.88l13.3,8.36,3.11-4.41-13.36-8.39Z"/><path class="cls-37" d="M475.94,229.38l13.43,8.44,3.1-4.42L479,224.94l-3.05,4.44"/><path class="cls-37" d="M466.17,243.64,479.4,252l3.11-4.41-13.29-8.35Z"/><path class="cls-37" d="M459.65,253.14l13.11,8.23,3.11-4.41L462.7,248.7l-3.05,4.44"/><path class="cls-37" d="M532.32,176.86l-14.24-8.94L515,172.37l14.18,8.9,3.11-4.41"/><path class="cls-37" d="M525.68,186.28l-14.11-8.86-3.05,4.45,14.05,8.82,3.11-4.41"/><path class="cls-37" d="M535.62,172.16l-14.29-9-3.05,4.45,14.24,8.94,3.1-4.42"/><path class="cls-37" d="M505.26,186.62l14,8.79,3.11-4.41-14.05-8.83Z"/><path class="cls-37" d="M498.75,196.12l13.86,8.71,3.11-4.41-13.92-8.74-3.05,4.44"/><path class="cls-33" d="M472.75,261.39l-18.82-11.81-.22.29,18.82,11.82Z"/><path class="cls-33" d="M476.07,256.68l-18.82-11.81-.21.3L475.85,257Z"/><path class="cls-33" d="M479.39,252l-18.81-11.81-.22.3,18.81,11.81Z"/><path class="cls-33" d="M482.71,247.26,463.9,235.45l-.21.3,18.8,11.81Z"/><path class="cls-33" d="M486,242.54l-18.8-11.8-.22.3,18.8,11.81.22-.31"/><path class="cls-33" d="M489.35,237.83,470.55,226l-.21.3,18.79,11.8.22-.3"/><path class="cls-33" d="M492.67,233.12l-18.79-11.8-.22.3,18.79,11.8.22-.3"/><path class="cls-33" d="M496,228.41l-18.79-11.8-.21.3,18.79,11.8Z"/><path class="cls-33" d="M499.31,223.7l-18.78-11.8-.21.31L499.1,224Z"/><path class="cls-33" d="M502.63,219l-18.78-11.8-.21.31,18.78,11.79Z"/><path class="cls-33" d="M506,214.27l-18.77-11.79-.21.31,18.77,11.78Z"/><path class="cls-33" d="M509.27,209.56l-18.76-11.78-.22.3,18.77,11.78Z"/><path class="cls-33" d="M512.59,204.85l-18.76-11.78-.21.3,18.76,11.78Z"/><path class="cls-33" d="M515.91,200.13l-18.75-11.77-.22.3,18.76,11.78.21-.31"/><path class="cls-33" d="M519.23,195.42l-18.75-11.77-.21.3L519,195.72l.21-.3"/><path class="cls-33" d="M522.56,190.71l-18.75-11.77-.21.3L522.34,191Z"/><path class="cls-33" d="M525.88,186l-18.74-11.77-.22.3,18.74,11.77Z"/><path class="cls-33" d="M529.2,181.29l-18.74-11.77-.21.3L529,181.59Z"/><path class="cls-33" d="M532.52,176.57l-18.74-11.76-.21.3,18.74,11.77.21-.31"/><path class="cls-33" d="M535.84,171.86,517.11,160.1l-.21.31,18.72,11.75Z"/><path class="cls-33" d="M539.16,167.15,520.44,155.4l-.22.3L539,167.45l.21-.3"/><path class="cls-49" d="M470.25,271.42l81.9-112.8a1.48,1.48,0,1,1,2.39,1.73l0,0Z"/><path class="cls-22" d="M456.74,229.55s5.39,1.46,5.8,4.35S465,244.05,465,246.33s11.15,5.26,11.85,4.56-6.63-5.19-6.63-5.19v-5.43a27.56,27.56,0,0,0,5.69,5.43s4.31,2.46,5.45,1.32-1.1-2.9-3.1-4.28-6-6.5-4.77-7.74,5.53,4.08,7.18,4.63,5.22,1.07,6.49-.21-1.65-2.76-4.42-3.45-6.83-4.83-6.21-6.91,5.18-2.48,6.56-1.1,2.35,3.38,3.45,1.1-1.86-5.93-2.76-6.21-10.36-3.45-13.95-3.18a47.64,47.64,0,0,1-11.46-.83c-2.42-.55-6.21,7.32-1.66,10.71"/><path class="cls-41" d="M551.31,132.08s-.67,5,1.93,6.29c1,.48-4.21.86-4.21.86l-1.14-2.18s-.1-5,3.42-5"/><path class="cls-22" d="M537.1,148.24s5.92,2.22,8.51,2.22,4-3.41,5.62-5,1.32-3.19,2-6.09-5.39-2.28-5.39-2.28-9-5.24-10.15-4,4.24,5.5,6.21,6.53.75,1.61.75,1.61-9.34-5.13-9.34-2.86,7.48,3.94,8,5.65-8.56-2.23-8.56-.36,6.83,3,7.35,3.52S536.36,145.62,537.1,148.24Z"/><path class="cls-14" d="M459.08,163.93c.8-1.67,2.34-4.9,3.08-6.47l-5.61,0c-1.65-3.6-4.31-10.58-10-25.41,2.44,8,5.89,18.12,9.35,26.43l4.56,0c-.38.8-2.1,4.35-2.78,5.75.65.45,20,14.36,32.58,22.69-2.58-2-31.14-23-31.18-23"/><path class="cls-14" d="M490.62,155c-7.34-6.46-2.71-2.38-5.13-4.5l3.76-2.35c-3.1-4.72-9.6-14.35-12.63-18.69,3,4.92,8.55,13.61,11.71,18.49l-4,2.45s4.39,3.92,5.57,4.94c0,.68,1,19.51,1.83,30,0-2.44-1-27.74-1.12-30.3"/><path class="cls-5" d="M455.09,132.08l1.14-6.08s.53,9.15,6.47,10.44c4.7,1,6.6.51,6.6.51l2.44,5.28s-1.63,1.67-6.71,2.39S455.09,132.08,455.09,132.08Z"/><path class="cls-5" d="M470.88,136.06l.86,6.17s4.51.73,4.88-3.92c.27-3.43-4.41-8.9-4.41-8.9s.81,6.34-1.33,6.65"/><path class="cls-9" d="M454.38,131.07l33.12,46.74L451.09,134.9Z"/><path class="cls-10" d="M462.7,143l6.6-6L456.23,126l-4.82,4.24Z"/><path class="cls-9" d="M487.14,176.64,472.56,130l3.14,1.47Z"/><path class="cls-10" d="M470.88,136.06l4.32,2-1.51-8.94h-1.53Z"/><path class="cls-16" d="M473.85,141.61l-4.6,1.62-1.34-3.83,4.59-1.61Z"/><path class="cls-17" d="M469.25,143.23l-4.11,3-2.31-6.55,5.07-.26Z"/><path class="cls-17" d="M473.85,141.62l5.07-.27-2.3-6.54-4.12,3,1.35,3.83"/><path class="cls-43" d="M562.21,206.3a.47.47,0,0,1-.22-.07.38.38,0,0,1-.07-.52C579,183,579.45,164.63,576.78,153.26a43.22,43.22,0,0,0-10-19.44.37.37,0,0,1,0-.52.37.37,0,0,1,.52,0,44.13,44.13,0,0,1,10.19,19.76,50.46,50.46,0,0,1-.1,23c-2.24,9.86-7.25,20-14.88,30.14a.36.36,0,0,1-.3.15"/><path class="cls-37" d="M420.52,18.64H396.13a2.86,2.86,0,0,1,0-5.72h24.39a2.86,2.86,0,1,1,0,5.72Z"/><path class="cls-22" d="M369.76,123.06s30.51,42.64,45.36,42.46,16.71,19.85,16.71,19.85-31.49,6.72-61.25-22.67S369.76,123.06,369.76,123.06Z"/><path class="cls-50" d="M386.24,143.64l-13.18,20.55c-3.14-3.84-14-18.11-10.63-34.81,0-.2.22-1,.54-2.25a23.93,23.93,0,0,1,6.79-4.07S377.05,133.24,386.24,143.64Z"/><path class="cls-21" d="M386.5,451.64h-7.82V436.82h7.82Z"/><path class="cls-21" d="M382.44,457.12a1.72,1.72,0,0,1-1.72-1.72v-6.68h3.45v6.68A1.72,1.72,0,0,1,382.44,457.12Z"/><path class="cls-37" d="M418.48,21.4l1.71,12.92s-6.69,8.25-5.91,14.47-1.87,24.12-1.87,24.12l-7.7-5.6V38.37Z"/><path class="cls-9" d="M359.29,235.17l-46.83-1.8L299.61,333l-7.33,108.47c-.19.18,8.08,5.23,11.11,5.2l18-106.65,37.88-104.81"/><path class="cls-2" d="M332,248.94l5,47.85,7.12,40.3L332,450.49l29.32,1.15s-24.45-6.07-19.42-14.82c2.51-4.39,22.24-99.73,22.24-99.73l-4.82-101.92L332,248.94"/><path class="cls-51" d="M333,114.45c-17.23,4.36-22.87,11.16-22.87,11.16s8.43,37.32,3.53,51.71l-4.89,63.43,50.71-1.25s27.35-89,11.29-115.06c-2.51-4.08-9.64-8.78-17.47-10.51s-16.37-.48-20.3.52"/><path class="cls-52" d="M313.68,177.32c-.37,16.65-2.62,46.32-4.89,63.43C309.17,223.49,311.5,193.82,313.68,177.32Z"/><path class="cls-50" d="M375.72,144.83c-3.92,6.23-11.89,14.17-28,22.21-26.16,13.09-31.13,53.79-32,73.54l43.71-1.08S377.53,180.85,375.72,144.83Z"/><path class="cls-18" d="M450.39,439.33a.34.34,0,0,1,.1-.67c11,1.65,20-.71,26.76-7,17-15.92,14.3-52.1,14.27-52.46a.34.34,0,1,1,.67-.06c0,.37,2.8,36.87-14.48,53-7.47,7-17,8.72-27.32,7.18"/><path class="cls-18" d="M292.61,220.47c-15.82-9.42-20.54-23.79-20.59-23.95a.34.34,0,1,1,.64-.21c.06.19,6.24,19,28.26,27.44a.34.34,0,1,1-.24.63,52.63,52.63,0,0,1-8.07-3.91"/><path class="cls-37" d="M349.74,97c.48-.34,6.29-16.16,6.29-16.16S359.9,69,357.28,67.08s-8.89-8.54-14.29-8.46a20.15,20.15,0,0,0-9.49,2.22c-.48.34-3.9,6.62-3.9,6.62s1.6-2.13,2.54,5.53S349.74,97,349.74,97Z"/><path class="cls-20" d="M336.1,96.78c.66,2-3.08,17.67-3.08,17.67,1.39,1.1,20.34,10.53,20.47-2.34s-1.29-28-1.29-28Z"/><path class="cls-22" d="M352.2,84.16h0L336.1,96.78h0c.41,1.22-.85,7.63-1.88,12.39,7.27,1.29,16.45-7.73,18.68-15.8v0c-.27-4.3-.56-7.59-.66-8.74,0-.25,0-.4,0-.45"/><path class="cls-20" d="M352.65,72.35c2.05,5.07,2.29,14.47-2.35,21.76s-11.12,11.19-15.85,7.77-6.37-25.88-3.06-31.8S349.52,64.62,352.65,72.35Z"/><path class="cls-21" d="M352.94,94s.95-7.4,3.64-9.3,3.89-3,4.35-5.64,9.48-4.69,7.95-8.91-8.65-6-12.35-13.27-7.65-11.28-16-8.26S331.06,57,331.06,57s-3.72-.53-5.92,4.17-.54,7.27.94,9.38c0,0-.39-6.09,1.62-5.74s.08,7.13.08,7.13a56.82,56.82,0,0,0,6.15-6.77c3.16-4.09,2.43.59,1.55,5.66s6.18.07,9.29-3.69,7.7-.51,9.43,4.59S348.9,85.17,352.94,94"/><path class="cls-20" d="M351.2,80.48s2.89-5.37,4.46-3.14.39,9.12-2.87,9.3S351.2,80.48,351.2,80.48Z"/><path class="cls-22" d="M352.88,80.8s-.16-3,1.45-2.09.06,5.91-1.4,5.87S352.88,80.8,352.88,80.8Z"/><path class="cls-50" d="M296,145.7c3.16-9.06,7.79-16.54,14.15-20.09,0,0,9.22,14.73,9.22,24.81,0,3.07-1.09,7.93-2.54,13.44L296,146.5Z"/><path class="cls-32" d="M336.06,80a20.67,20.67,0,0,0-1.13,4.39,11.75,11.75,0,0,0,.12,4.81c.36-.08,1.31-.26,2.58-.65-.82,0-1.63,0-2.44.13l.28.2a60.85,60.85,0,0,1,.59-8.88"/><path class="cls-31" d="M340.08,80.63c-.16.93.23,1.76.88,1.87s1.3-.54,1.46-1.46-.23-1.76-.88-1.87S340.24,79.71,340.08,80.63Z"/><path class="cls-31" d="M331.19,79.64c-.16.92.24,1.76.88,1.87s1.3-.54,1.46-1.46-.23-1.76-.88-1.87-1.3.54-1.46,1.46"/><path class="cls-32" d="M345.31,77s-2.23-1.71-4.48-1.2-.84,2-.31,1.93S345.21,76.51,345.31,77Z"/><path class="cls-32" d="M329.65,75.67s2.54-1.22,4.64-.25.39,2.18-.1,2S329.85,75.23,329.65,75.67Z"/><path class="cls-33" d="M337,92.32l.57,3.68s5.6-1,7.43-4Z"/><path class="cls-53" d="M395.46,446.63c-13.8,0-28.16-1.31-36.74-3.51-16.34-4.2-47.61-19.14-57-46.69s12.6-69.36,12.6-69.36h8.81c14.89,0,19.2-37.08,15-47.35-3.85-9.41-13.2-9.81-14.73-9.81h-.21s-2.8-60.69,30.35-76.56,29.88-31.28,29.88-31.28l10.73,2.44c0,19.72,28,27.9,45.75,53.58s2.34,61.62,2.34,61.62-.39-.48-1.86-.48c-1.77,0-5.1.69-11.21,3.75-11.21,5.6-7,41.55,0,52.75,3.11,5,6.68,6.37,9.69,6.37a12.26,12.26,0,0,0,6.65-2.16s11.2,33.61,11.2,55.08-15.4,43-29.88,48.09C420,445.56,408,446.63,395.46,446.63Zm38.35-91.29c13.39,31.3,4.32,49.27,4.3,49.67-5.95,17-30.89,29-48.06,34.3a1.07,1.07,0,0,0,.31,2.09h0a70.75,70.75,0,0,0,15.34-2.3A91.38,91.38,0,0,0,420.48,434c2.23-1,4.95-2.47,7.07-3.7,9.87-6.06,15-11.93,19-19.42l.74-1.5h0c7.89-17.22,4-39-5.73-55.49-1.25-2-2.41-3.61-2.42-3.61h0a3.52,3.52,0,0,0-4.3-1.15c-1.75.8-1,6.19-1.05,6.19Zm-26.26-154c11.41,5.65,24,16.62,27.53,29.19a64.48,64.48,0,0,1,2.21,15.11c0,9.29-.6,16.13-3.11,25.25a2.1,2.1,0,0,0,1.54,2.62,2,2,0,0,0,.48.06,2.12,2.12,0,0,0,2.05-1.62c2.8-11.83,3.19-27.59-.77-40.8-4-13.38-17.22-24.29-29.93-29.81"/><path class="cls-54" d="M314.38,327.07c-8,12.83-16.24,34.78-16.24,53,.06,8.09,1.33,14.65,5.07,21.85a49.14,49.14,0,0,0,6.26,9.25c-4.89-8.09-7-14.18-8-20.25-3.07-19.66,5.35-45.26,12.94-63.81"/><path class="cls-54" d="M358.51,189.82c-4.1,2.05-4.4,2.08-6.41,3.07-24.24,11.69-31.41,50.89-28.86,77,.89-26.1,7-62.49,29.86-75.1a110.38,110.38,0,0,0,12.35-7.24,55,55,0,0,0,10.7-9.48,77.37,77.37,0,0,1-17.64,11.72"/><path class="cls-55" d="M436.2,273.54a2,2,0,0,1-.48-.06,2.1,2.1,0,0,1-1.54-2.62c2.51-9.12,3.07-16,3.11-25.25a64.13,64.13,0,0,0-2.21-15.11C431.54,217.93,419,207,407.55,201.31c12.72,5.52,25.89,16.43,29.94,29.81,3.95,13.21,3.56,29,.76,40.8a2.11,2.11,0,0,1-2.05,1.62"/><path class="cls-56" d="M390.36,441.4a1.07,1.07,0,0,1-.31-2.09C407.22,434,432.16,422,438.11,405c0-.41,9.09-18.38-4.3-49.68h0s-.7-5.39,1.05-6.19a3.52,3.52,0,0,1,4.3,1.15h0s1.17,1.59,2.42,3.61c9.71,16.44,13.62,38.28,5.73,55.49l-.74,1.51c-4,7.48-9.14,13.35-19,19.41a77.94,77.94,0,0,1-7.07,3.7,91.38,91.38,0,0,1-14.75,5.08,70.75,70.75,0,0,1-15.34,2.3Zm56.94-32h0Z"/><path class="cls-37" d="M394.2,164.52c0,19.72,28,27.9,45.75,53.58,15.26,22.08,5.23,53.74,2.34,61.62a20.31,20.31,0,0,1,10.61,4.22s14.91-44.95-2.83-70.63-47.94-27.54-47.94-47.26l-10.74-2.45s0,.1,0,.29l2.77.63"/><path class="cls-37" d="M464.85,326.87,445.56,340s11.2,33.61,11.2,55.08c0,20.32-13.78,40.63-27.53,47.11a41.29,41.29,0,0,0,6.83-2.44c20.7-10,38.54-32.47,38.54-53.94s-9.75-58.89-9.75-58.89"/><path class="cls-37" d="M440.11,327.65c-7-11.2-14.17-42.28-3-47.88h0a44.55,44.55,0,0,0-7.93,3.22c-11.2,5.6-7,41.55,0,52.75S445.56,340,445.56,340l19.29-13.08C456.76,333.29,444.83,335.21,440.11,327.65Z"/><path class="cls-6" d="M405.72,21.4s-8.09,10.12-10.43,18.05-4.35,26.15-4.35,26.15l16.64.62s.24-30.89,5.61-36.26,5.29-8.56,5.29-8.56H405.72"/><path class="cls-37" d="M412.41,72.91l-4.83-6.69-16.64-.62,9,7.31Z"/><path class="cls-37" d="M420.19,34.32,419.36,14l-1.81.55.93,6.89,1.71,12.92"/><path class="cls-37" d="M394.6,65.73c0-.86,2.52-20.83,2.52-20.83L404,29.73l4.91-.7-4.21,16-1.17,21Z"/><path class="cls-21" d="M398.05,49.69h5.49v1.4h-5.49Z"/><path class="cls-37" d="M410.31,50.39h5.6s2-3.86,5-3.86,3.5,3.51,3.5,6.19-5.43,3.79-6.88,2.33a6.48,6.48,0,0,1-1.75-3.15l-5.49-.11Z"/><path class="cls-6" d="M390.94,65.6,361.29,286l22.41,1.87L403.54,66.05l-12.6-.45"/><path class="cls-37" d="M404.71,66.11v3.14L387,287.89H383.7L403.54,66.05l1.17.06"/><path class="cls-57" d="M352.66,326.87,388.93,328v5.6l-22,6.07-13.31-6.42Z"/><path class="cls-58" d="M388.93,333.64c-8.38,2.91-22,6.53-22.08,6.55-3-1.52-8.84-4.39-13.26-6.9,3.84,1.55,9.63,4.2,13.49,6l-.31,0C372.87,337.58,381.82,335.11,388.93,333.64Z"/><path class="cls-6" d="M359.19,372.62s5.43,24.75,7.73,32,1.23,37.07.8,40.11c-.8,5.76,10.39,6.93,10.39,1,0-1.42-3.75-34.1-1.65-42.27S380.72,374,380.72,374s-15,1.4-21.53-1.41"/><path class="cls-37" d="M376.55,409.75l.27-4.43c.38-2.21,2.72-11.43,3.9-31.3-1.44,9.54-3.28,22.58-4.81,28.84-2.48,9.47,1.74,38.82,2.2,42.85-.47-11-1.77-25.88-1.56-36"/><path class="cls-49" d="M362.93,381.73a.25.25,0,0,1-.24-.21l-6.54-49.47v0L394.44,65.56l5.95-21.19a.24.24,0,0,1,.29-.16.22.22,0,0,1,.16.28L394.9,65.66l-38.28,266.4,6.53,49.4a.22.22,0,0,1-.2.26h0"/><path class="cls-49" d="M366.92,381.94a.23.23,0,0,1-.23-.21l-5.64-54.86v0L397.82,65.56l3.63-21.17a.24.24,0,0,1,.47.08l-3.64,21.17L361.52,326.88l5.63,54.8a.23.23,0,0,1-.21.25h0"/><path class="cls-49" d="M372.57,381.73a.24.24,0,0,1-.23-.23L370,331.56l32.7-287.15a.24.24,0,0,1,.26-.21.22.22,0,0,1,.2.26L370.48,331.58l2.33,49.9a.24.24,0,0,1-.22.25Z"/><path class="cls-49" d="M376.7,380.8a.24.24,0,0,1-.24-.24V330.84L403.62,44.41a.23.23,0,0,1,.25-.21.23.23,0,0,1,.21.26L376.93,330.87v49.69A.24.24,0,0,1,376.7,380.8Z"/><path class="cls-22" d="M350.4,221.32s10.83-3.49,12.42-3.49,8.51,2.59,7.28,3.81-6.61,0-6.61,0l-3.95,2.83-9.14-3.19"/><path class="cls-20" d="M310.15,125.61s9.22,14.73,9.22,24.81-11.79,39.59-9.22,47.75,35.64,20.65,35.64,20.65a93.64,93.64,0,0,0,10,1.15c3,0,18.9,8.62,18.86,10.3s-9.58-3-9.58-3-2.41-.24-1.32.83,13,6.76,12.93,8.06S361,228.86,362,230.87s10.73,8.42,10.73,11-11.16-8.24-12.3-7.11,5.78,6.3,5.78,8.31-16.46-7.89-19.53-10.91-5.92-7.35-13.4-8.06-31.48-5.92-38.84-19.31-5.17-67.53,15.75-79.2"/><path class="cls-20" d="M393.92,126.34s-12.54,1-11.63,2.37,9.1.3,9.87,1.07-7.94,2.8-8.51,3.37-4.3,3.86-2.89,5.28,4.44-4,4.44-4,5.35-.82,5.35,0-10.79,5-9.25,6.11,9.77-3.22,9.77-2.6-7.29,3.13-6.79,4.74,6.72-2.5,8.31-.92,7.6,9,11.89,8.19,8.09,24.71,12.89,29.51,14,7.52,16.48,5-.67-22.33-13.23-37A86.25,86.25,0,0,0,393.92,126.34Z"/><path class="cls-21" d="M303.39,446.63l-1.54,7.4-2.4-.1-10.91-2.29-14.28-14.82c12.6,8.07,18,4.61,18,4.61Z"/><path class="cls-57" d="M274.26,436.82s5.69,12.15,7.9,14.36S289,454,289,454l10.44-.1S282.79,438.34,274.26,436.82Z"/><path class="cls-37" d="M414.58,24.54l-.16.17c-1.7,1.78-5.63,2.83-7.89,1.61a6.57,6.57,0,0,0-2.21-.93,7.66,7.66,0,0,0-2.32.38c-1.4.23-2.53-1.19-3.17-2.46a5.24,5.24,0,0,0,1,2.07,3,3,0,0,0,3.36.84c2.43-.51,2.73,2.44,7.63,1.3a7.69,7.69,0,0,0,3.93-2.27c1.36.28,3.2.31,4.11-.75a9.06,9.06,0,0,1-4.31,0"/><path class="cls-59" d="M420.44,13.68C420.1,10.1,417.55,0,412.15,0c-1.53,0-1.64,1.48-2.07,2.23A2,2,0,0,0,408.16,0a2.44,2.44,0,0,0-2.25,2.39A2.27,2.27,0,0,0,403.85.83c-4.28,0-7.45,16.18-5,22.48.51,1.35,1.52,2.77,3,2.79.66,0,1.3-.3,2-.34,1.24-.07,2,.77,3,1.19a6.48,6.48,0,0,0,3.12.29,7.61,7.61,0,0,0,4.75-2.34s2.91.91,4.22-.4c2.31-2.31,1.83-7.84,1.55-10.82"/><path class="cls-60" d="M403.85,7.25c-2.53,4.13-3.72,11.71-.09,18.52a40.66,40.66,0,0,1-1-4.62A31,31,0,0,1,403.85,7.25Z"/><path class="cls-60" d="M412.59,11.46c-.85-2.35-1.27-3-1.73-4.21.25,2.46,3.53,12,3.81,17.65C415.12,22.73,414.84,17.47,412.59,11.46Z"/><path class="cls-37" d="M421.94,18.64H417.2a1.43,1.43,0,0,1-1.44-1.44V14.36a1.44,1.44,0,0,1,1.44-1.44h4.74a1.44,1.44,0,0,1,1.44,1.44V17.2A1.43,1.43,0,0,1,421.94,18.64Z"/><path class="cls-37" d="M364.11,381.48a1.23,1.23,0,1,1-1.23-1.23A1.23,1.23,0,0,1,364.11,381.48Z"/><path class="cls-37" d="M368.08,381.48a1.23,1.23,0,1,1-1.23-1.23A1.23,1.23,0,0,1,368.08,381.48Z"/><path class="cls-37" d="M373.8,381.48a1.23,1.23,0,1,1-1.23-1.23A1.23,1.23,0,0,1,373.8,381.48Z"/><path class="cls-37" d="M378.11,381.48a1.23,1.23,0,1,1-1.22-1.23A1.22,1.22,0,0,1,378.11,381.48Z"/><path class="cls-50" d="M319.37,150.42a45.22,45.22,0,0,1-1.49,9.27l-23.81-7.57c3.06-11.87,8.27-22.15,16.08-26.51C310.15,125.61,319.37,140.34,319.37,150.42Z"/><path class="cls-50" d="M319.37,150.42a45.22,45.22,0,0,1-1.49,9.27l-23.81-7.57c3.06-11.87,8.27-22.15,16.08-26.51C310.15,125.61,319.37,140.34,319.37,150.42Z"/></g></g></svg>