<?xml version="1.0" encoding="utf-8"?>
<!-- Generator: Adobe Illustrator 25.2.3, SVG Export Plug-In . SVG Version: 6.00 Build 0)  -->
<svg version="1.1" id="Layer_1" xmlns="http://www.w3.org/2000/svg" xmlns:xlink="http://www.w3.org/1999/xlink" x="0px" y="0px"
	 viewBox="0 0 1221 978" style="enable-background:new 0 0 1221 978;" xml:space="preserve">
<style type="text/css">
	.st0{fill:#E8E9FF;}
	.st1{fill:#21A500;}
	.st2{fill:#FFFFFF;}
	.st3{fill:#29CD00;}
	.st4{opacity:0.45;fill:#FFFFFF;enable-background:new    ;}
	.st5{fill:#013400;}
	.st6{opacity:0.43;fill:#FFFFFF;enable-background:new    ;}
	.st7{fill:url(#SVGID_1_);}
	.st8{fill:url(#SVGID_2_);}
	.st9{fill:#91B3FA;}
	.st10{opacity:0.78;fill:#FFFFFF;enable-background:new    ;}
	.st11{fill:url(#SVGID_3_);}
	.st12{fill:url(#SVGID_4_);}
	.st13{opacity:0.6;}
	.st14{opacity:0.6;fill:#FFFFFF;enable-background:new    ;}
	.st15{opacity:0.25;fill:#FFFFFF;enable-background:new    ;}
	.st16{fill:url(#SVGID_5_);}
	.st17{fill:url(#SVGID_6_);}
	.st18{fill:url(#SVGID_7_);}
	.st19{fill:url(#SVGID_8_);}
	.st20{fill:url(#SVGID_9_);}
	.st21{fill:url(#SVGID_10_);}
	.st22{fill:url(#SVGID_11_);}
	.st23{fill:#FF7575;}
	.st24{fill:url(#SVGID_12_);}
	.st25{fill:url(#SVGID_13_);}
	.st26{fill:url(#SVGID_14_);}
	.st27{fill:#1656BD;}
	.st28{fill:url(#SVGID_15_);}
	.st29{fill:url(#SVGID_16_);}
	.st30{fill:url(#SVGID_17_);}
	.st31{fill:url(#SVGID_18_);}
	.st32{fill:url(#SVGID_19_);}
	.st33{fill:url(#SVGID_20_);}
	.st34{fill:url(#SVGID_21_);}
	.st35{fill:url(#SVGID_22_);}
	.st36{fill:url(#SVGID_23_);}
	.st37{fill:url(#SVGID_24_);}
	.st38{fill:url(#SVGID_25_);}
	.st39{fill:url(#SVGID_26_);}
	.st40{fill:url(#SVGID_27_);}
	.st41{fill:#FF7026;}
	.st42{fill:url(#SVGID_28_);}
	.st43{fill:#FF6D6D;}
	.st44{fill:#FC5600;}
	.st45{fill:#D64900;}
	.st46{fill:#91B3FA;stroke:#91B3FA;}
</style>
<g>
	<g>
		<path class="st0" d="M882.3,671.3c-10.5,11-20.5,18-28.4,23.6c-92.7,65.6-202.5,46.5-225.8,41.8c-34.4-6.9-101-20.2-149.2-76
			c-72.8-84.4-61.5-217.4-5-305.2c10.3-16.1,64.9-105.2,175.8-119.5c67.1-8.6,145.4,8.8,202.1,55.6
			C970.8,389.9,962.3,588.3,882.3,671.3z"/>
	</g>
	<path class="st1" d="M952.5,407.5c0.4-1.9-2.2-3.1-3.8-1.8c-16.5,13.4-56.3,53.5-46.4,123.7c12.4,88-8.8,120.1-35.2,139.7
		c0,0,36.3-9.2,59.1-41.8C982.3,547.2,944.6,441.1,952.5,407.5z"/>
	<g>
		<path class="st2" d="M939.9,434.9c-2.1,9.8-3.9,19.6-5.3,29.5c-1.5,9.9-2.6,19.8-3.4,29.7c-0.7,9.9-1.3,19.8-1.3,29.8
			c-0.1,9.9,0.3,19.9,0.8,29.8c0.4,10,0.8,20,0.1,30.1s-2.8,20.2-7.1,29.8c-1.1,2.4-2.2,4.7-3.4,7c-1.2,2.3-2.5,4.6-3.9,6.8
			c-2.8,4.5-5.9,8.8-9.4,12.9c-7,8.2-15.4,15.5-24.7,21.6c-1,0.6-2.4,0.5-3.1-0.4c-0.8-0.8-0.6-2,0.4-2.7c2.2-1.6,4.4-3.1,6.5-4.8
			c1.1-0.8,2.1-1.7,3.1-2.5c1-0.9,2-1.7,3-2.6c3.9-3.5,7.6-7.2,10.9-11.2c6.7-7.9,12-16.7,16-25.8c2-4.5,3.5-9.2,4.7-14
			c1.1-4.8,1.9-9.6,2.3-14.5c0.8-9.8,0.4-19.7,0.1-29.7c-0.3-10-0.5-20-0.2-30c0.1-5,0.3-10,0.7-15c0.1-2.5,0.3-5,0.5-7.5
			c0.2-2.5,0.5-5,0.7-7.5c1.1-10,2.5-19.9,4.3-29.8c1.8-9.9,4-19.7,6.6-29.4c0.1-0.1,0.2-0.3,0.3-0.3c0.1-0.1,0.3-0.1,0.4-0.1
			c0.1,0,0.1,0,0.2,0.1c0.1,0,0.1,0.1,0.2,0.1c0,0.1,0.1,0.1,0.1,0.2C939.9,434.8,939.9,434.9,939.9,434.9L939.9,434.9z"/>
	</g>
	<path class="st3" d="M614.3,678.7c0,0,10.7-41.9-21.1-86.4c-29.5-41.3-103.7-137-112.6-188.5c-0.4-2.3-4-1.8-4.7,0.7
		c-7.5,26.1-21,91.9,7.6,159.3C520.4,650.7,614.3,678.7,614.3,678.7z"/>
	<path class="st4" d="M483.5,451.4c0,0-0.1,1-0.2,2.9c-0.1,1.9-0.2,4.6,0,8.1c0.1,3.5,0.4,7.7,1.1,12.6c1.6,11.8,4.5,23.4,8.7,34.5
		c2.5,6.7,5.4,13.3,8.7,19.7c3.5,6.8,7.4,13.5,11.6,19.9l3.3,4.9l3.5,4.8c2.4,3.2,4.8,6.4,7.2,9.6c4.9,6.3,9.9,12.6,14.8,18.7
		c5,6.1,9.9,12.1,14.8,17.8c9.6,11.5,18.9,22.1,26.5,31.4c3.8,4.7,7.2,9.1,10,13.1c2.5,3.4,4.7,7,6.8,10.7c1.3,2.4,2.5,4.9,3.5,7.4
		c0.4,0.9,0.6,1.6,0.8,2c0.2,0.5,0.3,0.7,0.3,0.7c0,0.1,0,0.2,0,0.2c0,0.1-0.1,0.1-0.2,0.2c-0.1,0-0.2,0-0.2,0
		c-0.1,0-0.1-0.1-0.2-0.2v0l-0.3-0.7c-0.2-0.4-0.4-1.1-0.8-2c-1.1-2.5-2.3-4.9-3.7-7.2c-2.1-3.6-4.5-7.1-7-10.5
		c-2.9-3.9-6.4-8.2-10.2-12.8c-7.7-9.2-17.1-19.6-26.9-31c-4.9-5.7-9.9-11.7-14.9-17.8c-5-6.1-10-12.4-14.9-18.8
		c-2.5-3.2-4.9-6.4-7.3-9.6l-3.5-4.9c-1.1-1.7-2.2-3.3-3.3-5c-4.3-6.5-8.1-13.2-11.6-20.2c-3.2-6.5-6.1-13.2-8.5-20
		c-2.2-6.1-3.9-12.4-5.3-18.8c-1.2-5.4-2.1-10.8-2.6-16.3c-0.4-4.2-0.6-8.4-0.7-12.7c0-3.5,0.2-6.3,0.4-8.1
		C483.2,452.4,483.4,451.4,483.5,451.4C483.4,451.4,483.4,451.3,483.5,451.4C483.4,451.3,483.4,451.3,483.5,451.4
		C483.4,451.3,483.4,451.3,483.5,451.4C483.5,451.3,483.5,451.3,483.5,451.4C483.5,451.4,483.5,451.4,483.5,451.4
		C483.5,451.4,483.5,451.4,483.5,451.4L483.5,451.4z"/>
	<path class="st5" d="M557.7,304.2c1-2.7,4.9-2.2,5.3,0.6c3.5,27.5,15,99.2,42.8,140.5C651.2,512.5,673,614,631,658.7
		C631,658.7,448.2,596.5,557.7,304.2z"/>
	<path class="st6" d="M558.2,342.7c0,0,0,0.3,0,0.8c0,0.6,0,1.3,0,2.4c0.1,2.1,0.2,5.3,0.4,9.3c0.2,4,0.5,8.9,0.9,14.4
		c0.4,5.6,0.9,11.9,1.5,18.7c0.6,6.8,1.4,14.3,2.3,22.1c0.9,7.8,2,16.1,3.1,24.6c1.2,8.5,2.5,17.3,4.1,26.2c0.4,2.2,0.8,4.5,1.2,6.7
		l1.3,6.7c0.8,4.5,1.8,9,2.7,13.5c0.9,4.5,1.9,9,2.9,13.4c1,4.4,2.1,8.9,3.1,13.3c0.6,2.2,1.1,4.4,1.7,6.5c0.6,2.2,1.1,4.3,1.7,6.5
		c0.6,2.1,1.2,4.2,1.7,6.4l0.9,3.1c0.3,1,0.6,2.1,0.9,3.1l1.8,6.1c0.3,1,0.6,2,0.9,3c0.3,1,0.6,2,1,3l1.9,5.8c0.3,1,0.6,1.9,0.9,2.9
		c0.3,0.9,0.7,1.9,1,2.8l1.9,5.5c0.3,0.9,0.6,1.8,0.9,2.7c0.3,0.9,0.7,1.8,1,2.6c1.3,3.5,2.6,6.8,3.8,10c1.3,3.2,2.6,6.2,3.8,9.1
		c1.2,2.9,2.5,5.6,3.6,8.1c0.6,1.3,1.1,2.5,1.7,3.7l1.7,3.4l3,6c0.4,0.9,0.9,1.7,1.3,2.5c0.4,0.8,0.8,1.5,1.2,2.2l1.9,3.5l1.6,2.9v0
		c0,0.1,0,0.2,0,0.2c0,0.1-0.1,0.1-0.1,0.2c-0.1,0-0.2,0-0.2,0c-0.1,0-0.1-0.1-0.2-0.1l-1.6-2.9c-0.5-0.9-1.2-2.1-2-3.4L618,618
		c-0.4-0.8-0.9-1.6-1.4-2.5l-3.1-5.9l-1.7-3.4l-1.7-3.7c-1.2-2.5-2.5-5.2-3.8-8.1c-1.2-2.9-2.5-5.9-3.9-9.1c-1.3-3.2-2.6-6.5-4-10
		l-1-2.6l-1-2.7l-2-5.5c-2.7-7.4-5.2-15.4-7.7-23.6l-0.9-3.1c-0.3-1-0.6-2.1-0.9-3.2c-0.6-2.1-1.2-4.2-1.8-6.4
		c-0.6-2.1-1.1-4.3-1.7-6.5c-0.6-2.2-1.1-4.4-1.7-6.5c-1.1-4.4-2.1-8.8-3.2-13.3c-0.5-2.2-1-4.5-1.5-6.7c-0.5-2.2-1-4.5-1.4-6.7
		c-0.9-4.5-1.8-9-2.6-13.5c-0.4-2.3-0.8-4.5-1.2-6.7c-0.4-2.2-0.8-4.5-1.1-6.7c-1.5-8.9-2.8-17.7-4-26.2c-1.1-8.5-2.1-16.8-2.9-24.7
		c-0.9-7.8-1.5-15.3-2.1-22.1c-1.1-13.7-1.7-25.2-2-33.2c-0.1-4-0.2-7.2-0.2-9.3c0-1.1,0-1.9,0-2.5c0-0.6,0-0.8,0-0.8
		c0,0,0-0.1,0-0.1c0,0,0-0.1,0.1-0.1c0,0,0.1-0.1,0.1-0.1c0,0,0.1,0,0.1,0c0,0,0.1,0,0.1,0c0,0,0.1,0,0.1,0.1c0,0,0,0.1,0.1,0.1
		C558.2,342.6,558.2,342.6,558.2,342.7L558.2,342.7z"/>
	
		<linearGradient id="SVGID_1_" gradientUnits="userSpaceOnUse" x1="747.7396" y1="291.856" x2="748.6265" y2="748.135" gradientTransform="matrix(1 0 0 -1 0 978)">
		<stop  offset="0" style="stop-color:#01000C"/>
		<stop  offset="1" style="stop-color:#000000"/>
	</linearGradient>
	<path class="st7" d="M864.9,311.1l-237,5.4c-6.3,0.1-12.3,2.7-16.8,7.1c-4.5,4.4-7.1,10.4-7.2,16.7l-9.7,343.9
		c-0.1,2.4,0.4,4.8,1.2,7.1c0.9,2.3,2.2,4.3,3.9,6.1s3.7,3.1,6,4.1c2.2,0.9,4.6,1.4,7.1,1.4l271.7-1.2c2.3,0,4.5-0.5,6.6-1.4
		c2.1-0.9,4-2.2,5.6-3.8c1.6-1.6,2.8-3.6,3.7-5.7s1.2-4.4,1.2-6.7l-7.8-345.8c-0.1-3.7-0.9-7.3-2.4-10.6c-1.5-3.4-3.6-6.4-6.2-8.9
		s-5.8-4.5-9.2-5.8C872.2,311.6,868.6,311,864.9,311.1z"/>
	
		<linearGradient id="SVGID_2_" gradientUnits="userSpaceOnUse" x1="933.8362" y1="205.8386" x2="649.2483" y2="608.2115" gradientTransform="matrix(1 0 0 -1 0 978)">
		<stop  offset="0" style="stop-color:#4F52FF"/>
		<stop  offset="1" style="stop-color:#4042E2"/>
	</linearGradient>
	<path class="st8" d="M864.2,312.2c-32.3,5.1-143.3,21.2-235.4,16.2c-1-0.1-2,0.1-2.9,0.4c-0.9,0.3-1.8,0.9-2.5,1.5
		c-0.7,0.7-1.3,1.5-1.7,2.4c-0.4,0.9-0.6,1.9-0.7,2.9l-10.5,345.5c-0.1,2.3,0.8,4.5,2.3,6.2c1.6,1.7,3.7,2.6,6,2.7
		c38.8,1.4,198.3,6.7,255-0.6c1.7-0.2,3.2-1,4.3-2.3c1.1-1.3,1.7-2.9,1.7-4.6l-6.1-362.5c0-1.2-0.3-2.3-0.8-3.3
		c-0.5-1-1.2-2-2.1-2.7c-0.9-0.7-1.9-1.3-3-1.6C866.5,312.1,865.4,312,864.2,312.2L864.2,312.2z"/>
	<path class="st9" d="M861,321.2c-31,4.9-137.9,20.4-226.6,15.6c-1-0.1-1.9,0.1-2.8,0.4c-0.9,0.3-1.7,0.8-2.4,1.5
		c-0.7,0.6-1.3,1.4-1.7,2.3c-0.4,0.9-0.6,1.8-0.7,2.8l-10.1,332.5c-0.1,2.2,0.7,4.3,2.2,5.9c1.5,1.6,3.6,2.5,5.8,2.6
		c37.3,1.4,190.9,6.4,245.5-0.6c1.6-0.2,3.1-1,4.1-2.2c1.1-1.2,1.6-2.8,1.6-4.4L870,328.8c0-1.1-0.3-2.2-0.8-3.2
		c-0.5-1-1.2-1.9-2-2.6c-0.9-0.7-1.9-1.2-2.9-1.5C863.2,321.1,862.1,321.1,861,321.2z"/>
	<path class="st10" d="M841.7,355.1l-1.7,71.3c0,1.1-0.5,2.2-1.3,3.1c-0.8,0.8-1.9,1.3-3,1.4c-13.2,0.7-54.3,2.6-77.5,1.9
		c-1.3,0-2.5-0.5-3.4-1.4c-0.9-0.9-1.5-2.1-1.5-3.3c-0.7-13.3-2.6-52.2,0.1-68.5c0.2-1.3,0.9-2.4,1.8-3.3c1-0.9,2.2-1.4,3.5-1.4
		l77.9-4.5c0.7,0,1.3,0.1,2,0.3c0.6,0.2,1.2,0.6,1.7,1.1c0.5,0.5,0.9,1,1.1,1.6S841.7,354.4,841.7,355.1L841.7,355.1z"/>
	
		<linearGradient id="SVGID_3_" gradientUnits="userSpaceOnUse" x1="15624.8633" y1="-20300.0918" x2="35853.6641" y2="-48808.8945" gradientTransform="matrix(1 0 0 -1 0 978)">
		<stop  offset="0" style="stop-color:#4F52FF"/>
		<stop  offset="1" style="stop-color:#4042E2"/>
	</linearGradient>
	<path class="st11" d="M812.7,382c0.3-8.4-6.3-15.5-14.8-15.8c-8.5-0.3-15.5,6.3-15.8,14.8c-0.3,8.4,6.3,15.5,14.8,15.8
		S812.4,390.5,812.7,382z"/>
	
		<linearGradient id="SVGID_4_" gradientUnits="userSpaceOnUse" x1="-4656.5166" y1="-20336.8477" x2="-12022.2158" y2="-48552.8477" gradientTransform="matrix(1 0 0 -1 0 978)">
		<stop  offset="0" style="stop-color:#4F52FF"/>
		<stop  offset="1" style="stop-color:#4042E2"/>
	</linearGradient>
	<path class="st12" d="M821.7,425.9l-48.8,1.1c-0.7,0-1.3-0.2-1.9-0.5c-0.6-0.3-1.1-0.8-1.4-1.4c-0.3-0.6-0.5-1.3-0.5-1.9
		c0-0.7,0.2-1.3,0.6-1.9c4-6.6,12.4-16.3,27.5-16.2c14.5,0.1,23.2,8.5,27.7,14.6c0.4,0.6,0.7,1.3,0.8,2c0.1,0.7-0.1,1.4-0.4,2.1
		c-0.3,0.6-0.8,1.2-1.4,1.6C823.1,425.7,822.4,425.9,821.7,425.9L821.7,425.9z"/>
	<g class="st13">
		<path class="st14" d="M646.6,365.7c-1.4,0-2.5-1-2.5-2.3c0-1.3,1.1-2.4,2.5-2.5l86-3.5c1.4-0.1,2.1,1,1.7,2.3l-0.6,1.7
			c-0.4,1.3-1.9,2.4-3.3,2.4L646.6,365.7z"/>
	</g>
	<g class="st13">
		<path class="st14" d="M732.9,370.6c1.4-0.1,2.1,1,1.7,2.3l-0.6,1.7c-0.4,1.3-1.9,2.4-3.3,2.4l-83.9,1.9c-0.3,0-0.6,0-0.9-0.1
			c-0.3-0.1-0.6-0.3-0.8-0.5c-0.2-0.2-0.4-0.5-0.5-0.8c-0.1-0.3-0.2-0.6-0.2-0.9c0-1.3,1.1-2.4,2.5-2.5L732.9,370.6z"/>
	</g>
	<g class="st13">
		<path class="st14" d="M733.2,384.1c1.4-0.1,2.1,1,1.7,2.3l-0.6,1.7c-0.4,1.3-1.9,2.4-3.3,2.4l-83.9,1.9c-1.4,0-2.5-1-2.5-2.3
			c0-1.3,1.1-2.4,2.5-2.5L733.2,384.1z"/>
	</g>
	<path class="st14" d="M677.2,397.2c-6.6-0.4-19-0.3-25.8-0.3c-1.4,0-2.8,0.5-3.8,1.4c-1.1,0.9-1.8,2.1-2.1,3.5
		c-1.2,5.5-2.8,14.9-2.3,24.9c0.1,1.4,0.7,2.8,1.7,3.8c1.1,1,2.5,1.5,3.9,1.5l25.1-0.8c1.5-0.1,2.9-0.6,4-1.7c1.1-1,1.7-2.4,1.8-3.9
		l1.7-23.6c0-0.6,0-1.2-0.2-1.7c-0.2-0.6-0.5-1.1-0.9-1.5c-0.4-0.4-0.9-0.8-1.4-1C678.4,397.4,677.8,397.2,677.2,397.2L677.2,397.2z
		"/>
	<g class="st13">
		<path class="st14" d="M692.9,408.8c-1.4,0-2.5-1-2.5-2.3c0-1.3,1.1-2.5,2.5-2.5l40-2.3c1.4-0.1,2.3,1,2.1,2.3l-0.2,1.5
			c-0.1,0.7-0.5,1.3-1,1.8c-0.5,0.5-1.2,0.7-1.9,0.8L692.9,408.8z"/>
	</g>
	<g class="st13">
		<path class="st14" d="M733.2,417.2c1.4,0,2.3,1,2,2.4l-0.3,1.5c-0.1,0.7-0.5,1.3-1.1,1.7c-0.5,0.4-1.2,0.7-1.9,0.7l-39-0.5
			c-1.4,0-2.5-1.1-2.4-2.4c0-1.3,1.2-2.4,2.6-2.4L733.2,417.2z"/>
	</g>
	<g class="st13">
		<path class="st14" d="M640.3,457.5c-1.4,0-2.5-1-2.4-2.3c0.1-1.3,1.2-2.4,2.6-2.5l200.8-6.1c1.4,0,1.8,0.8,1,1.9l-1.9,2.5
			c-0.8,1.1-2.6,2-4,2L640.3,457.5z"/>
	</g>
	<g class="st13">
		<path class="st14" d="M841.6,459.9c1.4,0,1.8,0.8,1,1.9l-1.9,2.5c-0.8,1.1-2.6,2-4,2l-196,4.4c-1.4,0-2.4-1-2.4-2.3
			c0.1-1.3,1.2-2.4,2.6-2.5L841.6,459.9z"/>
	</g>
	<path class="st15" d="M842.8,482c-4.8-0.3-13.8-0.2-18.8-0.2c-1,0-2,0.4-2.8,1s-1.3,1.5-1.6,2.5c-0.9,4-2,10.9-1.7,18.2
		c0,1.1,0.5,2,1.3,2.8c0.8,0.7,1.8,1.1,2.8,1.1l18.3-0.6c1.1,0,2.1-0.5,2.9-1.2c0.8-0.8,1.3-1.8,1.3-2.9l1.2-17.3
		c0-0.4,0-0.8-0.2-1.3c-0.1-0.4-0.4-0.8-0.6-1.1s-0.6-0.6-1-0.8S843.2,482.1,842.8,482L842.8,482z"/>
	<g class="st13">
		<path class="st14" d="M809.3,489.9c1.4-0.1,2.4,1,2.2,2.3l-0.4,3.5c-0.1,0.7-0.4,1.3-1,1.8c-0.5,0.5-1.2,0.7-1.9,0.8l-45,1
			c-0.3,0-0.7-0.1-1-0.2c-0.3-0.1-0.6-0.3-0.8-0.5c-0.2-0.2-0.4-0.5-0.6-0.8c-0.1-0.3-0.2-0.6-0.2-0.9l0-1.3c0-0.7,0.3-1.3,0.7-1.8
			c0.5-0.5,1.1-0.8,1.8-0.8L809.3,489.9z"/>
	</g>
	<path class="st15" d="M743,484.3c-4.8-0.3-13.8-0.2-18.8-0.2c-1,0-2,0.4-2.8,1c-0.8,0.6-1.3,1.5-1.6,2.5c-0.9,4-2,10.9-1.7,18.2
		c0,1.1,0.5,2,1.3,2.8c0.8,0.7,1.8,1.1,2.8,1.1l18.3-0.6c1.1,0,2.1-0.5,2.9-1.2c0.8-0.8,1.3-1.8,1.3-2.9l1.2-17.3
		c0-0.4,0-0.8-0.2-1.3c-0.1-0.4-0.4-0.8-0.6-1.1c-0.3-0.3-0.6-0.6-1-0.8C743.8,484.4,743.4,484.3,743,484.3L743,484.3z"/>
	<g class="st13">
		<path class="st14" d="M709.5,492.1c1.4-0.1,2.4,1,2.2,2.3l-0.4,3.5c-0.1,0.7-0.4,1.3-1,1.8c-0.5,0.5-1.2,0.7-1.9,0.8l-45,1
			c-0.3,0-0.7,0-1-0.2c-0.3-0.1-0.6-0.3-0.8-0.5c-0.2-0.2-0.4-0.5-0.6-0.8c-0.1-0.3-0.2-0.6-0.2-0.9l0-1.3c0-0.7,0.3-1.3,0.7-1.8
			c0.5-0.5,1.1-0.8,1.8-0.8L709.5,492.1z"/>
	</g>
	<g class="st13">
		<path class="st14" d="M653.1,546c-1.4,0-2.5-1-2.4-2.3c0.1-1.3,1.2-2.4,2.6-2.5l195-6c1.4,0,1.8,0.8,1,1.9l-1.8,2.5
			c-0.8,1.1-2.6,2-4,2.1L653.1,546z"/>
	</g>
	<g class="st13">
		<path class="st14" d="M848.6,548.5c1.4,0,1.8,0.8,1,1.9l-1.8,2.5c-0.8,1.1-2.6,2-4,2.1l-190.4,4.3c-1.4,0-2.5-1-2.4-2.3
			c0.1-1.3,1.2-2.4,2.6-2.5L848.6,548.5z"/>
	</g>
	<g class="st13">
		<path class="st14" d="M848.9,561.9c1.4,0,1.8,0.8,1,1.9l-1.8,2.5c-0.8,1.1-2.6,2-4,2.1l-190.4,4.3c-1.4,0-2.5-1-2.4-2.3
			c0.1-1.3,1.2-2.4,2.6-2.5L848.9,561.9z"/>
	</g>
	
		<linearGradient id="SVGID_5_" gradientUnits="userSpaceOnUse" x1="27628.3633" y1="34749.6602" x2="2482.3645" y2="2897.6394" gradientTransform="matrix(1 0 0 -1 0 978)">
		<stop  offset="0" style="stop-color:#09005D"/>
		<stop  offset="1" style="stop-color:#1A0F91"/>
	</linearGradient>
	<path class="st16" d="M731,301l26.8-3l1.7-24.7c0.2-2.4-0.5-4.8-1.9-6.8c-1.4-2-3.4-3.4-5.8-4c-5.3-1.4-12.7-1.4-21.1,4.8
		C714.1,279.3,731,301,731,301z M736.1,280.3c0-1.3,0.3-2.6,1-3.8c0.7-1.1,1.7-2,3-2.5c1.2-0.5,2.6-0.7,3.9-0.5
		c1.3,0.2,2.5,0.8,3.5,1.8c1,0.9,1.6,2.1,1.9,3.4c0.3,1.3,0.2,2.6-0.3,3.9c-0.5,1.2-1.3,2.3-2.4,3.1c-1.1,0.8-2.4,1.2-3.7,1.2
		c-1.8,0-3.5-0.6-4.8-1.9C736.9,283.8,736.1,282.1,736.1,280.3L736.1,280.3z"/>
	<path class="st9" d="M754.8,287.7c-0.2,0-0.3-0.1-0.4-0.2s-0.2-0.3-0.2-0.5l0.3-3.9c0-0.1,0-0.2,0.1-0.2c0-0.1,0.1-0.1,0.2-0.2
		c0.1-0.1,0.1-0.1,0.2-0.1c0.1,0,0.2,0,0.3,0c0.1,0,0.2,0,0.2,0.1c0.1,0,0.1,0.1,0.2,0.2c0.1,0.1,0.1,0.1,0.1,0.2c0,0.1,0,0.2,0,0.3
		l-0.3,3.9c0,0.2-0.1,0.3-0.2,0.4C755.2,287.6,755,287.7,754.8,287.7C754.8,287.7,754.8,287.7,754.8,287.7L754.8,287.7z M755.3,280
		c-0.2,0-0.3-0.1-0.4-0.2s-0.2-0.3-0.2-0.5l0.2-3c0.1-2-0.4-4-1.6-5.6c-1.2-1.6-2.9-2.8-4.8-3.3c-3-0.8-6.2-0.9-9.2-0.2
		c-0.1,0-0.2,0-0.3,0c-0.1,0-0.2,0-0.2-0.1c-0.1,0-0.1-0.1-0.2-0.2c0-0.1-0.1-0.1-0.1-0.2c0-0.1,0-0.2,0-0.3c0-0.1,0-0.2,0.1-0.2
		c0-0.1,0.1-0.1,0.2-0.2c0.1,0,0.1-0.1,0.2-0.1c3.2-0.8,6.6-0.7,9.8,0.2c2.2,0.6,4.2,2,5.5,3.9c1.3,1.9,2,4.2,1.8,6.5l-0.2,3
		c0,0.2-0.1,0.3-0.2,0.4S755.6,280,755.3,280L755.3,280z"/>
	
		<linearGradient id="SVGID_6_" gradientUnits="userSpaceOnUse" x1="1062.3809" y1="-919.7037" x2="6808.582" y2="-29613.6816" gradientTransform="matrix(1 0 0 -1 0 978)">
		<stop  offset="0" style="stop-color:#09005D"/>
		<stop  offset="1" style="stop-color:#1A0F91"/>
	</linearGradient>
	<path class="st17" d="M794.9,313.1l-0.3-12.4c0-1-0.3-2-0.7-2.9c-0.4-0.9-1-1.8-1.8-2.4c-0.7-0.7-1.6-1.2-2.6-1.6
		c-1-0.3-2-0.5-3-0.4l-85.4,4.9c-1.8,0.1-3.6,0.9-4.8,2.2c-1.3,1.3-2,3-2.1,4.9l-0.4,11.9L794.9,313.1z"/>
	<path class="st9" d="M762.6,298.6l3.7-0.1c0.2,0,0.3-0.1,0.5-0.2s0.2-0.3,0.2-0.5c0-0.2-0.1-0.3-0.2-0.5c-0.1-0.1-0.3-0.2-0.5-0.2
		l-3.7,0.1c-0.1,0-0.2,0-0.2,0.1c-0.1,0-0.1,0.1-0.2,0.1c-0.1,0.1-0.1,0.1-0.1,0.2c0,0.1,0,0.2,0,0.2c0,0.1,0,0.2,0.1,0.2
		s0.1,0.1,0.1,0.2c0.1,0.1,0.1,0.1,0.2,0.1C762.5,298.5,762.5,298.6,762.6,298.6L762.6,298.6z"/>
	<path class="st9" d="M790.1,309.3c0.1,0,0.2,0,0.2-0.1c0.1,0,0.1-0.1,0.2-0.1c0.1-0.1,0.1-0.1,0.1-0.2c0-0.1,0-0.2,0-0.2l-0.1-5
		c0-1.9-0.8-3.6-2.2-4.9c-1.3-1.3-3.2-2-5-1.9l-13.5,0.3c-0.2,0-0.3,0.1-0.5,0.2c-0.1,0.1-0.2,0.3-0.2,0.5c0,0.2,0.1,0.3,0.2,0.5
		c0.1,0.1,0.3,0.2,0.5,0.2l13.5-0.3c1.5,0,3,0.5,4.1,1.6c1.1,1.1,1.7,2.5,1.8,4l0.1,5c0,0.2,0.1,0.3,0.2,0.5
		C789.8,309.3,790,309.3,790.1,309.3L790.1,309.3z"/>
	
		<linearGradient id="SVGID_7_" gradientUnits="userSpaceOnUse" x1="795.7985" y1="-14829.2188" x2="726.7993" y2="6493.041" gradientTransform="matrix(1 0 0 -1 0 978)">
		<stop  offset="0" style="stop-color:#09005D"/>
		<stop  offset="1" style="stop-color:#1A0F91"/>
	</linearGradient>
	<path class="st18" d="M821.5,308L672,311.4c-2.6,0.1-5.1,1-7.1,2.8c-2,1.7-3.2,4.1-3.6,6.7l-0.1,0.7c-0.2,1.4-0.1,2.8,0.3,4.1
		c0.4,1.3,1.1,2.6,2,3.6c0.9,1,2,1.9,3.3,2.4c1.3,0.6,2.6,0.8,4,0.8l153.4-3.5c0.8,0,1.7-0.2,2.4-0.6c0.8-0.3,1.4-0.8,2-1.5
		c0.6-0.6,1-1.3,1.3-2.1c0.3-0.8,0.4-1.6,0.3-2.5l-0.5-6.9c-0.1-2.1-1.1-4-2.6-5.4C825.6,308.7,823.6,307.9,821.5,308L821.5,308z"/>
	
		<linearGradient id="SVGID_8_" gradientUnits="userSpaceOnUse" x1="49084" y1="393.0596" x2="56686.6016" y2="393.0596" gradientTransform="matrix(1 0 0 -1 0 978)">
		<stop  offset="0" style="stop-color:#4F52FF"/>
		<stop  offset="1" style="stop-color:#4042E2"/>
	</linearGradient>
	<path class="st19" d="M701.7,607.2l-19.9-48.4c-0.2-0.5-0.5-0.8-0.9-1.1c-0.4-0.3-0.9-0.4-1.4-0.4h-12.3c-0.4,0-0.8,0.1-1.2,0.3
		c-0.4,0.2-0.7,0.5-0.9,0.8c-0.2,0.4-0.4,0.8-0.4,1.2c0,0.4,0,0.8,0.2,1.2l23.1,50.4c0.2,0.5,0.6,0.9,1.2,1.2
		c0.5,0.3,1.1,0.3,1.7,0.2l9.1-2c0.4-0.1,0.7-0.2,1-0.5c0.3-0.2,0.5-0.5,0.7-0.8c0.2-0.3,0.3-0.7,0.3-1S701.8,607.5,701.7,607.2
		L701.7,607.2z"/>
	
		<linearGradient id="SVGID_9_" gradientUnits="userSpaceOnUse" x1="12282.6816" y1="1390.9532" x2="1333.2621" y2="340.0549" gradientTransform="matrix(1 0 0 -1 0 978)">
		<stop  offset="0" style="stop-color:#09005D"/>
		<stop  offset="1" style="stop-color:#1A0F91"/>
	</linearGradient>
	<path class="st20" d="M732.4,664.2h-5.9v63.4h5.9V664.2z"/>
	
		<linearGradient id="SVGID_10_" gradientUnits="userSpaceOnUse" x1="1263.0424" y1="7712.4365" x2="762.0426" y2="706.9465" gradientTransform="matrix(1 0 0 -1 0 978)">
		<stop  offset="0" style="stop-color:#09005D"/>
		<stop  offset="1" style="stop-color:#1A0F91"/>
	</linearGradient>
	<path class="st21" d="M704.3,725h50.2c0.2,0,0.3,0.1,0.4,0.2s0.2,0.3,0.2,0.4v3.2h-51.4v-3.2c0-0.2,0.1-0.3,0.2-0.4
		S704.2,725,704.3,725z"/>
	
		<linearGradient id="SVGID_11_" gradientUnits="userSpaceOnUse" x1="9650.082" y1="32965.6523" x2="1197.0829" y2="2026.853" gradientTransform="matrix(1 0 0 -1 0 978)">
		<stop  offset="0" style="stop-color:#09005D"/>
		<stop  offset="1" style="stop-color:#1A0F91"/>
	</linearGradient>
	<path class="st22" d="M756.4,650h-52c-3.5,0-6.3,2.8-6.3,6.3v5.7c0,3.5,2.8,6.3,6.3,6.3h52c3.5,0,6.3-2.8,6.3-6.3v-5.7
		C762.7,652.8,759.9,650,756.4,650z"/>
	<path class="st23" d="M686.1,621.9c0,0-8.7,1.4-18.5,7.9c-0.8,0.5-1.4,1.2-1.7,2c-0.4,0.8-0.5,1.7-0.4,2.6
		c1.2,9.3,6,39.4,21.9,68.8c0.8,1.6,1.1,3.4,0.7,5.1l-2.8,12.9l-5.1,4.8h13.2l8.8-23.8l-3.8-1.2c-1.4-0.4-2.7-1.3-3.6-2.5
		c-0.9-1.2-1.4-2.6-1.4-4.1l-0.4-25.5c0.4-11.4-7-19.2-7-19.2l21.1-1L686.1,621.9z"/>
	
		<linearGradient id="SVGID_12_" gradientUnits="userSpaceOnUse" x1="-361.63" y1="-411.6966" x2="-222.087" y2="-322.7066" gradientTransform="matrix(1 0 0 -1 0 978)">
		<stop  offset="0" style="stop-color:#53D8FF"/>
		<stop  offset="1" style="stop-color:#3840F7"/>
	</linearGradient>
	<path class="st24" d="M675,728.3c-1.2,1.6,12.9,3.7,20.1,0.2c0,0,9.9-17.2,9.9-26.1c0,0-0.8-1.8-6.6-1.4c0,0-3.3,20.4-6.8,22.7
		c-3.5,2.3-9.8,0.2-9.8,0.2S676.8,726,675,728.3z"/>
	<path class="st23" d="M704.4,650c-0.1-0.2-22.7-2.7-22.7-2.7s0.7,6.9-1.6,16.3c-2.3,9.5-35.5,50.4-35.5,50.4l3.5,11
		c-10.8,3.7-21.3,4.3-31.7,1.9L638,714c0,0,20.2-68.7,32.5-81l22.6-7.8L704.4,650z"/>
	
		<linearGradient id="SVGID_13_" gradientUnits="userSpaceOnUse" x1="875.2145" y1="530.59" x2="760.3395" y2="391.968" gradientTransform="matrix(1 0 0 -1 0 978)">
		<stop  offset="0" style="stop-color:#440041"/>
		<stop  offset="1" style="stop-color:#000000"/>
	</linearGradient>
	<path class="st25" d="M755.1,610c0,0,13,19.4,14.1,28.2c1.1,8.8-3.6,12.4-17.2,13c-13.7,0.6-50.1,0.6-50.1,0.6l-31.1-26.6
		c0,0,22.7-8.1,28.6-10.4C705.2,612.5,755.1,610,755.1,610z"/>
	
		<linearGradient id="SVGID_14_" gradientUnits="userSpaceOnUse" x1="-40069.9609" y1="-89550.2422" x2="-32968.0547" y2="-73880.7422" gradientTransform="matrix(1 0 0 -1 0 978)">
		<stop  offset="0" style="stop-color:#53D8FF"/>
		<stop  offset="1" style="stop-color:#3840F7"/>
	</linearGradient>
	<path class="st26" d="M646.8,721.3c0,0,3.7,3.6,1.2,7.7c0,0-29.7,5.3-37.7,2.9c0,0,1.7-3.8,10.7-8.2l-0.7,0.5
		c-0.2,0.1-0.3,0.3-0.4,0.6c-0.1,0.2-0.1,0.5,0,0.7c0.1,0.2,0.2,0.4,0.4,0.5c0.2,0.1,0.4,0.2,0.6,0.2
		C627.1,725.8,639.5,724.7,646.8,721.3z"/>
	<path class="st27" d="M719.9,607.4c0,0-15.2-14.4-22.6-24c-2-2.5-3.3-5.5-3.9-8.7c-0.6-3.2-0.4-6.4,0.5-9.5
		c3.4-11.5,9.5-23.4,10-25.2c0.8-2.8,17.8-2.7,17.8-2.7s33.5,21.7,46.6,58.5l-14.8,4.6c0,0-8.7-14.7-17.4-24
		c0,0,14.9,19.7,15.5,27.8L719.9,607.4z"/>
	<path class="st27" d="M701.8,524.1c0.2,0.6,4.6,15.3,5,15.6c0.3,0.3,9.7,0.8,14.1-2.2l-7.5-15.7L701.8,524.1z"/>
	<path class="st23" d="M696.3,502.5c0,0-5.3,5.8-5.4,17.2c-0.1,11.5,5.2,14.3,9.6,13c4.4-1.3,10.6-4.3,14.4-13.4
		C718.8,510.2,703.3,495.3,696.3,502.5z"/>
	
		<linearGradient id="SVGID_15_" gradientUnits="userSpaceOnUse" x1="11631.4346" y1="36418.9062" x2="7058.4351" y2="21372.4062" gradientTransform="matrix(1 0 0 -1 0 978)">
		<stop  offset="0" style="stop-color:#09005D"/>
		<stop  offset="1" style="stop-color:#1A0F91"/>
	</linearGradient>
	<path class="st28" d="M708.3,516.3c0,0-1.4-16.1-13.7-10.6l-2,3.3c0,0-8-5.6-2.3-12.6s18.2-8.8,25.9-0.3c7.7,8.5,8.8,15.7,5.8,22.9
		c-3,7.1-7.7,2.7-7.7,2.7s0.8-5.7-1.5-7.6c-2.3-1.8-3.6,2.2-3.6,2.2L708.3,516.3z"/>
	<path class="st23" d="M710.3,517.2c0,0-0.8-8.2,3.8-6.9c4.6,1.3,0.3,7.8-1.5,10.1L710.3,517.2z"/>
	<path class="st23" d="M689,608.5l11.1-10.7l15.4,6.5c0,0,15.3,2.4,24.1,0l8.8-2.4l19.8-6.2l3.1,8.8c0.4,1.1,0.4,2.3,0.1,3.4
		s-1,2.1-2,2.7c-1.7,1.2-3.7,2.6-5,3.1c-2.6,1.1-64.4-0.8-64.4-0.8L689,608.5z"/>
	
		<linearGradient id="SVGID_16_" gradientUnits="userSpaceOnUse" x1="8704.4102" y1="52283.8516" x2="5381.4102" y2="30655.4746" gradientTransform="matrix(1 0 0 -1 0 978)">
		<stop  offset="0" style="stop-color:#09005D"/>
		<stop  offset="1" style="stop-color:#1A0F91"/>
	</linearGradient>
	<path class="st29" d="M715.9,498.1c-2.3-0.9-2.5-4.1-0.5-5.4c6.7-4.4,18.1-8.3,29.8,5c13.1,14.9,20.4,22,24.6,21.9
		c2.7,0,4.3,3,2.5,5.1c-1.3,1.5-3.6,2.9-7.4,3.7C735.8,534.7,729.5,503.3,715.9,498.1z"/>
	
		<linearGradient id="SVGID_17_" gradientUnits="userSpaceOnUse" x1="145541" y1="302.8784" x2="161795" y2="302.8784" gradientTransform="matrix(1 0 0 -1 0 978)">
		<stop  offset="0" style="stop-color:#4F52FF"/>
		<stop  offset="1" style="stop-color:#4042E2"/>
	</linearGradient>
	<path class="st30" d="M515,732.3c-0.3,0-0.6-0.1-0.9-0.2c-0.3-0.1-0.5-0.3-0.8-0.5c-0.2-0.2-0.4-0.5-0.5-0.7
		c-0.1-0.3-0.2-0.6-0.2-0.9c0-0.3,0.1-0.6,0.2-0.9l49.6-109.8c0.3-0.6,0.7-1,1.3-1.2c0.6-0.2,1.2-0.2,1.8,0c0.3,0.1,0.5,0.3,0.8,0.5
		s0.4,0.5,0.5,0.7c0.1,0.3,0.2,0.6,0.2,0.9c0,0.3-0.1,0.6-0.2,0.9l-49.6,109.8c-0.2,0.4-0.5,0.8-0.9,1
		C515.9,732.2,515.5,732.3,515,732.3L515,732.3z"/>
	
		<linearGradient id="SVGID_18_" gradientUnits="userSpaceOnUse" x1="147396" y1="302.8806" x2="163646" y2="302.8806" gradientTransform="matrix(1 0 0 -1 0 978)">
		<stop  offset="0" style="stop-color:#4F52FF"/>
		<stop  offset="1" style="stop-color:#4042E2"/>
	</linearGradient>
	<path class="st31" d="M570.9,732.3c-0.5,0-0.9-0.1-1.3-0.4c-0.4-0.2-0.7-0.6-0.9-1l-49.6-109.8c-0.1-0.3-0.2-0.6-0.2-0.9
		s0.1-0.6,0.2-0.9c0.1-0.3,0.3-0.5,0.5-0.7c0.2-0.2,0.5-0.4,0.8-0.5c0.6-0.2,1.2-0.3,1.8,0c0.6,0.2,1.1,0.7,1.3,1.2l49.6,109.8
		c0.1,0.3,0.2,0.6,0.2,0.9c0,0.3-0.1,0.6-0.2,0.9c-0.1,0.3-0.3,0.5-0.5,0.7c-0.2,0.2-0.5,0.4-0.8,0.5
		C571.6,732.2,571.2,732.3,570.9,732.3z"/>
	
		<linearGradient id="SVGID_19_" gradientUnits="userSpaceOnUse" x1="206783" y1="302.8784" x2="223035" y2="302.8784" gradientTransform="matrix(1 0 0 -1 0 978)">
		<stop  offset="0" style="stop-color:#4F52FF"/>
		<stop  offset="1" style="stop-color:#4042E2"/>
	</linearGradient>
	<path class="st32" d="M719.2,732.3c-0.3,0-0.6-0.1-0.9-0.2c-0.3-0.1-0.5-0.3-0.8-0.5c-0.2-0.2-0.4-0.5-0.5-0.7
		c-0.1-0.3-0.2-0.6-0.2-0.9c0-0.3,0.1-0.6,0.2-0.9l49.6-109.8c0.3-0.6,0.7-1,1.3-1.2c0.6-0.2,1.2-0.2,1.8,0c0.3,0.1,0.5,0.3,0.8,0.5
		c0.2,0.2,0.4,0.5,0.5,0.7c0.1,0.3,0.2,0.6,0.2,0.9c0,0.3-0.1,0.6-0.2,0.9l-49.6,109.8c-0.2,0.4-0.5,0.8-0.9,1
		C720.1,732.2,719.6,732.3,719.2,732.3L719.2,732.3z"/>
	
		<linearGradient id="SVGID_20_" gradientUnits="userSpaceOnUse" x1="208665" y1="302.8806" x2="224918" y2="302.8806" gradientTransform="matrix(1 0 0 -1 0 978)">
		<stop  offset="0" style="stop-color:#4F52FF"/>
		<stop  offset="1" style="stop-color:#4042E2"/>
	</linearGradient>
	<path class="st33" d="M775.1,732.3c-0.5,0-0.9-0.1-1.3-0.4c-0.4-0.2-0.7-0.6-0.9-1l-49.6-109.8c-0.1-0.3-0.2-0.6-0.2-0.9
		s0.1-0.6,0.2-0.9c0.1-0.3,0.3-0.5,0.5-0.7c0.2-0.2,0.5-0.4,0.8-0.5c0.6-0.2,1.2-0.3,1.8,0c0.6,0.2,1.1,0.7,1.3,1.2l49.6,109.8
		c0.1,0.3,0.2,0.6,0.2,0.9c0,0.3-0.1,0.6-0.2,0.9c-0.1,0.3-0.3,0.5-0.5,0.7c-0.2,0.2-0.5,0.4-0.8,0.5
		C775.7,732.2,775.4,732.3,775.1,732.3L775.1,732.3z"/>
	
		<linearGradient id="SVGID_21_" gradientUnits="userSpaceOnUse" x1="761550" y1="358.9673" x2="1237570" y2="358.9673" gradientTransform="matrix(1 0 0 -1 0 978)">
		<stop  offset="0" style="stop-color:#4F52FF"/>
		<stop  offset="1" style="stop-color:#4042E2"/>
	</linearGradient>
	<path class="st34" d="M791,615.9c0.1-0.4,0.1-0.7,0-1.1c-0.1-0.4-0.3-0.7-0.6-1c-0.3-0.3-0.6-0.5-1-0.7c-0.4-0.2-0.8-0.2-1.2-0.2
		H500.1c-0.5,0-1.1,0.1-1.5,0.3c-0.5,0.2-0.9,0.6-1.2,1c-0.3,0.4-0.5,0.9-0.5,1.3c0,0.5,0.1,1,0.3,1.4l3.1,5.9
		c0.7,1.4,2.3,2.2,4,2.2h282c1.6,0,2.9-1,3.2-2.4L791,615.9z"/>
	<path class="st9" d="M464.1,654.2c-1.7,2.6-8.7,60.9-9.7,82.4c0,0.3,0,0.7,0.2,1c0.1,0.3,0.3,0.6,0.5,0.9s0.5,0.4,0.8,0.6
		c0.3,0.1,0.7,0.2,1,0.2l0,0c0.6,0,1.2-0.2,1.7-0.6c0.5-0.4,0.8-0.9,0.9-1.5l12.7-81.1L464.1,654.2z"/>
	<path class="st9" d="M519.7,654.2c1.7,2.6,8.7,60.9,9.7,82.4c0,0.3,0,0.7-0.2,1c-0.1,0.3-0.3,0.6-0.5,0.9c-0.2,0.2-0.5,0.4-0.8,0.6
		c-0.3,0.1-0.7,0.2-1,0.2l0,0c-0.6,0-1.2-0.2-1.7-0.6c-0.5-0.4-0.8-0.9-0.9-1.5L511.7,656L519.7,654.2z"/>
	<path class="st9" d="M453.6,649.6v0.6c0,4.6,3.9,8.3,8.8,8.4l58.5,1c4.9,0.1,8.9-3.4,9.2-7.9l0-0.6c0.2-4.7-3.7-8.7-8.8-8.7
		l-58.5-1C457.8,641.3,453.7,645,453.6,649.6z"/>
	
		<linearGradient id="SVGID_22_" gradientUnits="userSpaceOnUse" x1="537.416" y1="250.92" x2="575.3052" y2="250.92" gradientTransform="matrix(1 0 0 -1 0 978)">
		<stop  offset="0" style="stop-color:#4F52FF"/>
		<stop  offset="1" style="stop-color:#4042E2"/>
	</linearGradient>
	<path class="st35" d="M552.7,727.2c-9.3,0-13.4-0.8-15.2-1.5c0.2,0.8,0.6,1.5,1.2,2c0.6,0.5,1.4,0.8,2.2,0.8h32.9
		c0.2,0,0.5-0.1,0.7-0.2c0.2-0.1,0.4-0.3,0.6-0.5c0.1-0.2,0.3-0.4,0.3-0.7c0-0.2,0-0.5,0-0.7C571.5,726.7,563.5,727.2,552.7,727.2z"
		/>
	
		<linearGradient id="SVGID_23_" gradientUnits="userSpaceOnUse" x1="-28.2057" y1="-15869.1367" x2="-166.2056" y2="-19675.4375" gradientTransform="matrix(1 0 0 -1 0 978)">
		<stop  offset="0" style="stop-color:#09005D"/>
		<stop  offset="1" style="stop-color:#1A0F91"/>
	</linearGradient>
	<path class="st36" d="M575.2,726.4c0-0.2-0.1-0.4-0.3-0.6c-2.5-3.2-7.5-8.2-14.4-8.1c-10,0.1-13.5,1.2-21.3,0.1l-1.8,6.1
		c-0.2,0.6-0.2,1.2-0.1,1.8c1.8,0.7,5.9,1.5,15.2,1.5C563.5,727.2,571.5,726.7,575.2,726.4z"/>
	<path class="st23" d="M541.6,711.3l-2.3,7.7c0,0,5,2.3,9.4,0.4l0.9-6.6L541.6,711.3z"/>
	
		<linearGradient id="SVGID_24_" gradientUnits="userSpaceOnUse" x1="596.841" y1="258.4234" x2="627.4295" y2="258.4234" gradientTransform="matrix(1 0 0 -1 0 978)">
		<stop  offset="0" style="stop-color:#4F52FF"/>
		<stop  offset="1" style="stop-color:#4042E2"/>
	</linearGradient>
	<path class="st37" d="M609.7,722.4c-7.2,5.8-10.9,7.8-12.8,8.4c0.6,0.5,1.4,0.8,2.2,0.7c0.8,0,1.6-0.3,2.2-0.8l25.6-20.6
		c0.2-0.2,0.3-0.3,0.4-0.6c0.1-0.2,0.2-0.5,0.1-0.7c0-0.2-0.1-0.5-0.2-0.7c-0.1-0.2-0.3-0.4-0.5-0.5
		C624,710.2,618.2,715.6,609.7,722.4z"/>
	
		<linearGradient id="SVGID_25_" gradientUnits="userSpaceOnUse" x1="-3631.551" y1="-40305.0859" x2="-4632.5503" y2="-49878.7812" gradientTransform="matrix(1 0 0 -1 0 978)">
		<stop  offset="0" style="stop-color:#09005D"/>
		<stop  offset="1" style="stop-color:#1A0F91"/>
	</linearGradient>
	<path class="st38" d="M626.8,707.6c-0.2-0.1-0.4-0.2-0.6-0.3c-3.9-0.9-11-1.7-16.3,2.7c-7.7,6.4-9.8,9.4-16.6,13.4l2.4,5.9
		c0.2,0.6,0.6,1.1,1.1,1.4c1.9-0.6,5.6-2.5,12.8-8.4C618.2,715.6,624,710.2,626.8,707.6z"/>
	
		<linearGradient id="SVGID_26_" gradientUnits="userSpaceOnUse" x1="-71807.6016" y1="-131050.5" x2="-111883.25" y2="-203834.5" gradientTransform="matrix(1 0 0 -1 0 978)">
		<stop  offset="0" style="stop-color:#09005D"/>
		<stop  offset="1" style="stop-color:#1A0F91"/>
	</linearGradient>
	<path class="st39" d="M493.3,623.9c0,0,55.6,4.5,67,9.9c11.4,5.4-9.3,80.6-9.3,80.6s-3.1,1.5-10-0.7c0,0,7.1-55.5,1.8-67.6
		l-60.2-9.8L493.3,623.9z"/>
	<path class="st23" d="M587.9,712.9c0.5,0.5,5.5,10.6,5.5,10.6s5.6-1.2,6.7-4.7l-5-9.1L587.9,712.9z"/>
	
		<linearGradient id="SVGID_27_" gradientUnits="userSpaceOnUse" x1="101682.1953" y1="172819.8438" x2="61945.1953" y2="105051.8359" gradientTransform="matrix(1 0 0 -1 0 978)">
		<stop  offset="0" style="stop-color:#09005D"/>
		<stop  offset="1" style="stop-color:#1A0F91"/>
	</linearGradient>
	<path class="st40" d="M459.8,623.4c0,0-1.8,4.4-1.7,10.2c0.1,8,6.5,14.5,14.5,14.9l65.7,3c0.7,0,1.3,0.3,1.8,0.7
		c0.5,0.4,0.9,1,1.1,1.7c1.5,6,9.1,24.3,46,60.9c0.5,0.5,1.1,0.8,1.8,0.8c0.7,0.1,1.3-0.1,1.9-0.4l5.3-3.3c0.3-0.2,0.5-0.4,0.5-0.7
		c0.1-0.3,0-0.6-0.1-0.9l-38.3-65.3c-2-3.3-5.2-5.7-9-6.7l-56-14.3L459.8,623.4z"/>
	<path class="st41" d="M459.7,623.2c0,0-0.6-32.6,5.9-63.2c2.4-11.3,8.7-21.4,17.8-28.6l3-2.4l15.2,6.2l7.8,13.5
		c4.3,8.6,3.3,27.3,0,36.4c-5.4,15.2-9.8,30.9-11.6,38.6C497.8,623.7,472.5,627.1,459.7,623.2z"/>
	<path class="st23" d="M496.8,504.7l-11.9,27.6c0,0,3.8,8.6,17.1,5.2l4.8-19L496.8,504.7z"/>
	<path class="st23" d="M520.4,492.1c0.1,0.4,0.5,27.6,0.5,27.6l-15.5-0.1l-4.1-25.7C501.2,493.8,518,485.7,520.4,492.1z"/>
	
		<linearGradient id="SVGID_28_" gradientUnits="userSpaceOnUse" x1="89957.9375" y1="33761.3477" x2="96591.9375" y2="36230.3477" gradientTransform="matrix(1 0 0 -1 0 978)">
		<stop  offset="0" style="stop-color:#09005D"/>
		<stop  offset="1" style="stop-color:#1A0F91"/>
	</linearGradient>
	<path class="st42" d="M505.7,498.8l1.1,13.7c0,0.2,0.1,0.3,0.1,0.5c0.4,1,1.9,4.4,5.3,2.6c3.1-1.6,5.9-3.1,8.1-2.9
		c0.5,0,0.9,0.3,1.2,0.6c0.3,0.4,0.5,0.8,0.5,1.3c0,2.5,0,8-0.8,12.9c-0.1,0.5-0.3,0.9-0.7,1.2c-0.4,0.3-0.9,0.4-1.3,0.4
		c-3-0.2-9.3-0.8-14.2-2.5c-0.3-0.1-0.6-0.3-0.8-0.6c-0.2-0.3-0.4-0.6-0.4-0.9c-0.6-3.4-2.4-13.7-3.4-16.5c-0.9-2.6-4.5-3.5-6.1-3.8
		c-0.3,0-0.5-0.1-0.7-0.3c-0.2-0.1-0.4-0.3-0.5-0.5c-1-1.5-2.8-5.2,1.7-7.8c0.2-0.1,0.4-0.3,0.6-0.5s0.3-0.4,0.3-0.7
		c0.1-0.3,0.1-0.5,0-0.8c0-0.3-0.1-0.5-0.3-0.7c-1.2-1.8-2.1-4.8,1.3-7.3c3.5-2.5,6.7-1.1,8.6,0.2c0.4,0.3,0.8,0.4,1.3,0.3
		s0.9-0.2,1.2-0.6c0.4-0.4,0.9-0.6,1.7-0.3c0.2,0.1,0.5,0.1,0.8,0.1c0.3,0,0.5-0.1,0.7-0.2c0.2-0.1,0.4-0.3,0.6-0.5
		c0.2-0.2,0.3-0.5,0.3-0.7c0.5-2.1,1.9-4.5,5.8-4.7c6.9-0.3,9.2,6.9,8.4,11.6c-0.8,4.7-8.3,4.6-12.3,3.2c-3.1-1.1-6.2,1.4-7.6,2.7
		c-0.2,0.2-0.4,0.4-0.5,0.7C505.8,498.2,505.7,498.5,505.7,498.8L505.7,498.8z"/>
	<path class="st43" d="M500.9,513.6c0,0,1.1-8.2-2.1-9.5c-3.2-1.3-7.2,0.6-5,5.9C496.3,516.7,500.9,513.6,500.9,513.6z"/>
	<path class="st44" d="M533.5,597.1c-39.2,12.3-37.1-42.9-37.4-43.3c-15.6-23.8-24.3,7.9-22.8,12.4c13.8,49.9,48.6,47.5,62.1,37.7
		C533.7,601.2,533.3,598.9,533.5,597.1z"/>
	<path class="st45" d="M503.4,588.6c-0.2-0.1-0.4-0.2-0.5-0.4c-5.9-9.3-7.6-22.1-8-31.3c0-0.1,0-0.3,0.1-0.4c0-0.1,0.1-0.2,0.2-0.3
		c0.1-0.1,0.2-0.2,0.3-0.2c0.1-0.1,0.2-0.1,0.4-0.1s0.3,0,0.4,0.1c0.1,0,0.2,0.1,0.3,0.2c0.1,0.1,0.2,0.2,0.2,0.3s0.1,0.2,0.1,0.4
		c0.3,7.3,1.7,20.9,7.7,30.3c0.1,0.2,0.2,0.4,0.2,0.6c0,0.2-0.1,0.4-0.2,0.6c-0.1,0.2-0.3,0.3-0.5,0.3
		C503.8,588.6,503.6,588.6,503.4,588.6L503.4,588.6z"/>
	<path class="st45" d="M492.4,601.1c-0.1,0-0.2-0.1-0.3-0.2c-9-7.5-15.7-19.3-20.1-35.1c-0.1-0.3,0-0.5,0.1-0.7
		c0.1-0.2,0.3-0.4,0.6-0.5c0.2-0.1,0.5,0,0.7,0.1c0.2,0.1,0.4,0.3,0.5,0.6c4.2,15.4,10.8,26.8,19.4,34.1c0.2,0.1,0.3,0.4,0.3,0.6
		c0,0.2,0,0.5-0.1,0.7c-0.1,0.2-0.3,0.4-0.5,0.4C492.9,601.2,492.7,601.2,492.4,601.1L492.4,601.1z"/>
	<path class="st43" d="M556.6,585.6c0,0-0.6,1-5.2,4.6c-4.6,3.6-9.2,5.6-5.7,0.7c3.5-4.9,1.8-7.4-2.2-2.1c-4,5.3-6.9,7.3-6.9,7.3
		c-1.1,0.4-2.1,0.8-3.1,1.1c-0.1,1.8,0.3,4.1,1.9,6.7c1.6-0.5,2.5-0.9,2.5-0.9s12.2-2.2,14.8-7.4C554.3,592.3,555.6,589,556.6,585.6
		z"/>
	<path class="st2" d="M645.3,559.7c0,0-100.6-49.7-67.7-86.3c32.9-36.6,94.3-22,97.4,16.5C678.1,528.5,603.4,519.5,645.3,559.7z"/>
	<path class="st46" d="M590.1,484.4h39.2c0.4,0,0.8-0.2,1-0.5c0.3-0.3,0.4-0.7,0.4-1s-0.1-0.8-0.4-1c-0.3-0.3-0.6-0.5-1-0.5h-39.2
		c-0.4,0-0.8,0.2-1,0.5c-0.3,0.3-0.4,0.7-0.4,1s0.1,0.8,0.4,1C589.4,484.2,589.7,484.4,590.1,484.4z"/>
	<path class="st46" d="M641,484.4h11.6c0.4,0,0.8-0.2,1-0.5c0.3-0.3,0.4-0.7,0.4-1s-0.1-0.8-0.4-1c-0.3-0.3-0.6-0.5-1-0.5H641
		c-0.4,0-0.8,0.2-1,0.5c-0.3,0.3-0.4,0.7-0.4,1s0.1,0.8,0.4,1C640.2,484.2,640.6,484.4,641,484.4z"/>
	<path class="st46" d="M588.8,493.4h14.7c0.4,0,0.8-0.2,1-0.5c0.3-0.3,0.4-0.7,0.4-1c0-0.4-0.1-0.8-0.4-1c-0.3-0.3-0.6-0.5-1-0.5
		h-14.7c-0.4,0-0.8,0.2-1,0.5c-0.3,0.3-0.4,0.7-0.4,1c0,0.4,0.1,0.8,0.4,1C588,493.2,588.4,493.4,588.8,493.4z"/>
	<path class="st46" d="M625.1,493.4h26.2c0.4,0,0.8-0.2,1-0.5c0.3-0.3,0.4-0.7,0.4-1c0-0.4-0.1-0.8-0.4-1c-0.3-0.3-0.6-0.5-1-0.5
		h-26.2c-0.4,0-0.8,0.2-1,0.5c-0.3,0.3-0.4,0.7-0.4,1c0,0.4,0.1,0.8,0.4,1C624.4,493.2,624.7,493.4,625.1,493.4z"/>
	<path class="st46" d="M587.5,502.4h39.1c0.4,0,0.8-0.2,1-0.5c0.3-0.3,0.4-0.7,0.4-1c0-0.4-0.1-0.8-0.4-1c-0.3-0.3-0.6-0.5-1-0.5
		h-39.1c-0.4,0-0.8,0.2-1,0.5c-0.3,0.3-0.4,0.7-0.4,1c0,0.4,0.1,0.8,0.4,1C586.7,502.2,587.1,502.4,587.5,502.4z"/>
	<path class="st46" d="M636.4,502.4H650c0.4,0,0.8-0.2,1-0.5c0.3-0.3,0.4-0.7,0.4-1c0-0.4-0.1-0.8-0.4-1c-0.3-0.3-0.6-0.5-1-0.5
		h-13.5c-0.4,0-0.8,0.2-1,0.5c-0.3,0.3-0.4,0.7-0.4,1c0,0.4,0.1,0.8,0.4,1C635.7,502.2,636,502.4,636.4,502.4L636.4,502.4
		L636.4,502.4z"/>
</g>
</svg>
