<svg width="579" height="477" viewBox="0 0 579 477" fill="none" xmlns="http://www.w3.org/2000/svg">
<path opacity="0.1" d="M30.6015 424.992C-28.0935 409.921 12.4672 389.991 30.6015 388.822C77.3668 385.808 172.711 381.99 225.775 388.822C292.105 397.362 323.123 408.917 376.092 418.964C429.06 429.011 516.387 425.997 564.584 432.025C612.78 438.054 533.566 485.276 424.288 475.731C315.99 466.271 254.407 447.598 198.575 448.603C142.743 449.608 89.2965 440.063 30.6015 424.992Z" fill="url(#paint0_linear)"/>
<path d="M107.31 305.091C105.379 305.162 108.622 340.912 108.622 340.912L165.223 416.015L155.558 423.524L150.107 425.534L157.553 425.262L174.115 417.591L170.54 410.986L172.146 410.355L133.836 343.251L137.524 286.048L107.31 305.091" fill="#1C1C1C"/>
<path d="M157.983 269.796L115.451 255.087L51.9414 325.217L88.301 414.33L72.942 426.655L99.5353 423.233L95.9412 412.17L98.3884 411.913L79.3418 333.773L156.268 279.233L157.983 269.796" fill="#3F3E3B"/>
<path d="M102.923 121.37L103.48 117.977L104.204 118.093L103.648 121.489L102.923 121.37Z" fill="#FF9739"/>
<path d="M105.5 118.443L102.253 117.797L102.335 117.394L105.578 118.04L105.5 118.443Z" fill="#FF9739"/>
<path d="M140.912 193.158C140.912 193.158 110.411 180.635 94.4538 166.023C94.2334 165.821 94.0167 165.616 93.8 165.41C81.3327 153.451 80.7424 133.68 92.1412 120.697L100.955 110.658L104.16 115.84C104.16 115.84 91.3268 130.011 98.6719 146.42C106.017 162.829 157.758 165.814 157.758 165.814L140.912 193.158" fill="#1C1C1C"/>
<path d="M98.3271 150.523L102.273 118.829L105.19 119.196L101.241 150.885L98.3271 150.523" fill="#FF9739"/>
<path d="M146.913 151.177L147.563 160.233L156.836 162.243L161.596 153.404L146.913 151.177" fill="#E3E4FF"/>
<path d="M174.377 130.415C174.377 130.415 171.303 139.979 169.378 152.659C167.454 165.343 169.774 165.705 166.345 166.587C161.615 167.809 149.267 164.917 147.563 160.232C147.563 160.232 156.179 146.708 154.326 139.77L174.377 130.415" fill="#B85137"/>
<path d="M154.325 139.77C155.218 143.114 153.679 147.99 151.845 152.144C157.497 151.838 164.757 148.464 170.54 140.996C171.089 140.286 171.612 139.55 172.106 138.784C173.346 133.625 174.377 130.415 174.377 130.415L154.325 139.77Z" fill="#934131"/>
<path d="M159.202 155.681C154.835 154.968 149.53 156.074 143.197 157.49C143.197 157.49 135.534 166.056 131.511 178.214C131.077 179.525 130.42 182.17 129.62 185.712C136.521 178.415 142.95 171.35 149.978 163.99C152.817 160.889 156.019 158.327 159.202 155.681" fill="#F7F2DF"/>
<path d="M170.814 168.06C168.136 159.833 164.31 156.515 159.203 155.682C156.019 158.327 152.818 160.89 149.978 163.991C142.951 171.351 136.521 178.416 129.62 185.713C125.089 205.745 115.453 255.088 115.453 255.088L166.006 277.25L163.824 254.445C163.824 254.445 175.787 183.318 170.814 168.06" fill="#31302C"/>
<path d="M156.165 151.37L149.795 157.266L169.103 163.767L169.693 155.458L156.165 151.37Z" fill="#E3E4FF"/>
<path d="M160.97 157.569L156.165 151.371L169.693 155.458L171.001 160.629L160.97 157.569Z" fill="#FFFEE9"/>
<path d="M66.4448 139.407C66.0339 141.84 67.6777 144.152 70.1099 144.563L108.442 151.034C110.874 151.441 113.187 149.801 113.598 147.369C114.009 144.937 112.365 142.624 109.933 142.213L71.6006 135.742C69.1722 135.331 66.8558 136.968 66.4448 139.407ZM108.072 153.242L69.7363 146.775C66.0861 146.159 63.6166 142.684 64.233 139.034C64.8495 135.384 68.3203 132.914 71.9704 133.531L110.306 140.001C113.957 140.618 116.426 144.089 115.81 147.739C115.197 151.374 111.737 153.862 108.072 153.242Z" fill="url(#paint1_linear)"/>
<path d="M148.561 133.296C144.933 132.35 66.965 120.175 65.1194 120.216C61.8504 120.231 58.8727 122.532 57.9985 125.506L57.8639 125.95C57.8153 126.261 56.3957 135.705 56.4928 135.063C56.5152 135.302 55.9847 137.334 57.4305 139.867C58.4692 141.59 60.1392 142.74 61.5851 143.103C61.6561 143.129 114.544 151.658 114.626 151.662C117.877 152.092 121.239 150.097 122.337 146.757C122.58 145.89 124.609 137.674 124.736 136.785C125.311 133.217 123.029 129.511 119.177 128.614C118.265 128.36 108.301 126.716 105.349 126.219C77.101 121.31 45.6321 117.656 44.6607 117.641C40.4576 117.63 36.6094 120.963 33.8634 124.142C33.8148 124.202 32.6305 125.629 32.7052 125.54C32.6604 125.599 31.435 127.224 31.5134 127.124C30.9754 127.949 29.5819 129.653 27.1982 134.192L36.4264 87.5772C37.2595 94.8327 38.8324 97.758 38.8025 97.6646C40.2185 101.621 42.6058 106.116 46.5287 107.621C47.6234 108.029 78.5768 115.986 106.231 121.501L115.459 123.399C119.356 124.228 122.326 124.284 125.267 126.989C128.169 129.548 129.63 133.628 128.991 137.446C128.879 138.123 126.836 146.873 126.854 146.794C126.062 150.638 123.488 153.84 119.838 155.35C117.305 156.392 115.265 156.362 112.852 155.992C112.751 155.977 109.13 155.417 109.362 155.454C101.651 154.259 76.5892 150.426 62.265 147.934C55.9735 146.813 52.1515 141.915 52.1179 136.527C52.1627 134.618 52.1702 135.601 52.2823 134.372C52.2972 134.293 52.8277 131.282 52.7941 131.472C53.6907 126.556 53.8178 124.351 55.57 121.71C59.4219 115.979 65.7172 116.801 65.8293 116.778C71.1905 117.768 144.649 130.441 149.237 131.91L148.561 133.296" fill="url(#paint2_linear)"/>
<path d="M33.8148 111.167C31.222 124.235 27.9977 134.607 26.6229 134.334C25.2442 134.061 26.2306 123.245 28.8271 110.173C31.4237 97.104 34.6442 86.7327 36.0228 87.0054C37.3977 87.2781 36.4114 98.0941 33.8148 111.167Z" fill="#FCC400"/>
<path d="M36.023 87.005C36.2621 87.0498 36.3854 87.3711 36.4639 87.6028C38.6682 94.72 29.8622 134.984 26.623 134.334C29.5372 134.685 38.7989 87.7784 36.023 87.005" fill="#FFDA88"/>
<path d="M88.582 150.495L93.6257 117.554L96.5324 117.999L91.4849 150.94L88.582 150.495Z" fill="#FF9739"/>
<path d="M93.6846 150.377L97.7868 118.101L100.701 118.474L96.5987 150.746L93.6846 150.377Z" fill="#FF9739"/>
<path d="M94.3467 120.159L94.9034 116.763L95.6282 116.882L95.0715 120.279L94.3467 120.159Z" fill="black"/>
<path d="M96.9168 117.233L93.6738 116.586L93.7561 116.179L96.9989 116.825L96.9168 117.233Z" fill="#FF9739"/>
<path d="M98.5146 120.276L99.0713 116.884L99.7961 117.003L99.2394 120.396L98.5146 120.276Z" fill="#FF9739"/>
<path d="M101.094 117.353L97.8477 116.703L97.9298 116.3L101.173 116.946L101.094 117.353Z" fill="black"/>
<path d="M104.478 156.806C104.478 156.806 101.99 141.555 100.014 141.992C98.0412 142.426 96.6066 142.743 95.1719 143.061C93.7372 143.375 93.4122 143.857 92.452 144.066C91.4881 144.279 88.5179 146.221 87.3635 147.794C86.9525 148.358 91.2564 155.685 87.7296 160.497C84.9537 164.289 86.9039 170.401 86.9039 170.401L93.8231 168.541C93.8231 168.541 100.671 161.184 102.285 160.83C103.903 160.475 112.836 158.338 112.836 158.338C112.836 158.338 113.329 155.584 110.65 156.174C107.975 156.765 104.919 158.793 104.478 156.806" fill="#B85137"/>
<path d="M97.3464 163.809C97.3464 163.809 88.1332 159.325 86.3212 159.471C84.5055 159.617 75.3447 202.017 94.238 216.667C113.131 231.316 165.608 185.306 166.961 176.07C168.317 166.835 161.947 158.873 154.307 159.482C146.666 160.091 115.324 198.674 106.436 194.964C97.5519 191.254 97.3464 163.809 97.3464 163.809" fill="#3F3E3B"/>
<path d="M94.2402 216.665C113.145 230.474 165.043 185.383 166.963 176.069C165.278 186.366 113.007 231.666 94.2402 216.665Z" fill="#FFDA88"/>
<path d="M160.29 160.826C157.133 159.332 154.447 159.795 154.323 159.791C154.208 159.843 153.348 159.769 150.729 161.652C144.565 166.202 135.673 175.483 127.076 182.32C131.757 177.448 146.5 162.234 152.586 159.63C154.944 158.614 158.142 159.406 160.29 160.826Z" fill="#FFDA88"/>
<path d="M104.125 117.376C104.357 117.126 106.452 112.512 104.738 110.92C103.026 109.328 102.672 109.952 101.973 112.489C101.274 115.03 101.001 118.96 102.208 118.915C103.415 118.87 104.125 117.376 104.125 117.376Z" fill="#B85137"/>
<path d="M103.043 110.241C103.043 110.241 100.876 108.515 99.7924 109.68C98.7089 110.846 98.9704 120.209 99.8185 119.861C100.67 119.518 101.769 119.293 101.705 117.519C101.642 115.744 103.043 110.241 103.043 110.241Z" fill="#B85137"/>
<path d="M94.2861 121.53C95.0296 122.221 95.9113 122.259 96.3223 121.818C96.7295 121.377 97.5178 116.019 97.5178 116.019C97.5178 116.019 97.0545 120.301 98.4369 120.081C99.8192 119.86 101.549 111.532 100.525 110.576C99.498 109.623 98.0745 110.24 98.0745 110.24C98.0745 110.24 98.0372 110.195 97.955 110.135C97.3124 109.69 96.4195 110.057 96.2028 110.804C96.2028 110.804 93.6473 120.932 94.2861 121.53" fill="#B85137"/>
<path d="M39.6929 102.543C46.3207 111.872 46.0479 111.427 65.2401 114.872C66.544 115.096 59.6697 113.912 83.0837 117.939C67.2203 115.81 71.8941 116.404 65.1467 115.436C46.5074 112.619 45.2708 112.993 38.7663 103.178C38.3628 102.573 39.267 101.949 39.6929 102.543Z" fill="#FFDA88"/>
<path d="M143.036 129.312L142.281 133.369L145.629 133.724L145.86 133.239L149.13 133.594L149.795 131.849L145.984 131.094L145.954 130.347L143.036 129.312" fill="#FCC400"/>
<path d="M170.801 105.42C165.925 104.639 157.594 105.058 155.647 112.186C153.163 121.287 148.489 124.769 148.489 124.769L151.893 126.025C151.893 126.025 151.814 126.204 151.687 126.525C151.123 127.186 150.189 128.374 149.67 129.551C148.889 131.315 149.576 130.616 148.362 130.497C147.148 130.377 147.712 132.163 148.078 132.402C148.441 132.645 147.615 133.437 147.727 133.982C147.839 134.532 148.631 133.852 148.863 134.995C148.982 135.585 149.195 137.065 149.576 138.484C149.726 139.291 149.984 140.031 150.387 140.651L150.413 140.689C150.63 141.07 150.88 141.369 151.16 141.548C154.867 144.888 164.782 143.465 171.899 134.274C179.588 124.343 180.728 107.004 170.801 105.42" fill="#B85137"/>
<path d="M157.088 119.632C157.058 120.319 157.488 120.913 158.052 120.955C158.62 120.996 159.102 120.469 159.132 119.781C159.166 119.094 158.732 118.504 158.168 118.463C157.604 118.421 157.118 118.944 157.088 119.632Z" fill="#51305A"/>
<path d="M162.492 118.945C162.492 118.945 161.177 116.633 159.406 115.799C157.639 114.97 156.94 114.94 156.94 114.94L157.314 113.827C157.314 113.827 161.977 115.19 162.492 118.945Z" fill="#51305A"/>
<path d="M153.429 110.318C153.429 110.318 156.548 114.637 161.301 116.359C166.053 118.082 165.097 122.976 166.195 124C167.297 125.023 170.745 119.453 171.821 120.454C172.255 120.858 168.945 125.92 168.967 129.312C169.001 134.352 172.124 138.391 171.863 139.811C171.863 139.811 182.126 120.372 181.879 113.826C181.636 107.299 181.573 106.298 175.494 103.653C169.415 101.012 153.429 110.318 153.429 110.318" fill="#31302C"/>
<path d="M137.603 121.468C137.603 121.468 161.988 122.772 178.516 107.955C189.194 98.387 187.722 97.651 187.722 97.651C187.722 97.651 180.885 101.708 178.098 100.535C175.311 99.3621 170.383 94.098 168.321 92.0842C166.258 90.0705 164.756 93.5376 161.375 94.9162C157.998 96.2948 157.344 94.6995 154.684 95.7829C152.024 96.8664 153.373 107.241 151.437 109.767C149.502 112.296 137.603 121.468 137.603 121.468Z" fill="#3F3E3B"/>
<path d="M137.603 121.466C151.83 121.32 166.053 116.755 174.085 111.203C175.64 110.232 177.07 109.088 178.516 107.953C167.506 118.47 150.447 122.359 137.603 121.466Z" fill="#FFDA88"/>
<path d="M156.205 101.491C157.883 98.356 160.031 96.3722 162.493 94.422C160.307 96.2601 158.163 98.1879 156.452 101.621C155.559 103.433 155.361 104.592 155.368 104.554C155.316 104.797 154.95 104.715 155.002 104.476C155.051 104.337 155.234 103.333 156.205 101.491Z" fill="#FFDA88"/>
<path d="M166.52 123.339C166.52 123.339 172.707 116.199 173.899 120.66C175.09 125.121 169.736 131.622 168.115 130.643C166.497 129.664 163.692 128.226 166.52 123.339Z" fill="#B85137"/>
<path d="M166.206 123.653C166.206 123.653 170.286 120.051 170.887 122.308C171.492 124.565 169.643 128.996 167.696 127.819C165.75 126.642 165.313 125.196 166.206 123.653" fill="#934131"/>
<path d="M150.671 159.033L145.893 157.803L146.916 153.821L151.695 155.05L150.671 159.033Z" fill="#ED1C24"/>
<path d="M145.89 157.804L140.745 157.987L142.497 151.176L146.913 153.821L145.89 157.804Z" fill="#FF0000"/>
<path d="M150.668 159.033L155.084 161.678L156.836 154.867L151.692 155.05L150.668 159.033Z" fill="#FF0000"/>
<path d="M86.2387 235.547C86.1976 235.547 86.1603 235.544 86.1192 235.529C71.9109 230.855 63.2731 217.566 58.5283 207.239C53.4024 196.076 51.5941 185.876 51.5754 185.775C51.5381 185.574 51.6763 185.379 51.878 185.346C52.0835 185.308 52.2778 185.447 52.3114 185.648C52.3301 185.749 54.1234 195.867 59.2157 206.94C63.897 217.129 72.4078 230.231 86.3546 234.819C86.5489 234.886 86.6572 235.095 86.5936 235.293C86.5413 235.45 86.3956 235.547 86.2387 235.547Z" fill="#1B2B80"/>
<path d="M106.794 240.46C106.76 240.46 106.726 240.456 106.689 240.445C92.4134 236.38 83.2002 225.531 77.9846 217.143C72.3431 208.076 70.0343 199.845 70.0119 199.767C69.9558 199.565 70.0754 199.36 70.2734 199.307C70.4714 199.251 70.6769 199.367 70.7329 199.565C70.7553 199.647 73.0418 207.788 78.631 216.77C83.7756 225.034 92.8542 235.727 106.894 239.728C107.092 239.784 107.208 239.989 107.152 240.187C107.107 240.352 106.954 240.46 106.794 240.46" fill="#1B2B80"/>
<path d="M181.372 153.713C181.249 153.713 181.125 153.65 181.054 153.534C180.946 153.354 181.002 153.127 181.178 153.018C195.86 144.108 200.65 132.709 202.081 124.717C203.631 116.065 201.7 109.448 201.677 109.385C201.621 109.187 201.733 108.977 201.928 108.918C202.129 108.858 202.335 108.97 202.395 109.168C202.413 109.235 204.397 116.024 202.817 124.852C201.356 132.993 196.484 144.601 181.566 153.657C181.506 153.694 181.439 153.713 181.372 153.713" fill="#1B2B80"/>
<path d="M258.453 183.396C259.022 183.695 259.595 183.986 260.173 184.268C281.159 194.487 301.056 190.985 308.479 185.236C310.942 183.33 312.072 181.165 311.665 179.142C311.001 175.865 306.543 172.978 299.12 171.013C284.345 167.1 269.212 175.18 258.453 183.396V183.396ZM269.403 271.676C289.047 279.194 311.624 284.752 336.88 288.271L338.122 288.445C348.831 289.957 381.427 294.56 392.954 284.545C395.704 282.156 397.1 279.037 397.1 275.273C397.1 262.076 381.713 254.586 352.611 253.606C324.277 252.651 296.129 258.329 273.349 269.591C271.995 270.264 270.678 270.957 269.403 271.676V271.676ZM245.991 337.906C261.938 374.004 307.017 394.741 346.147 383.396C351.892 381.731 358.318 377.805 357.525 372.218C357.247 370.266 356.079 368.363 353.857 366.241C349.516 362.099 344.182 359.324 337.511 356.437C316.455 347.319 294.177 341.529 271.305 339.219L270.304 339.119C263.234 338.401 254.503 337.516 245.991 337.906V337.906ZM172.283 403.63L171.706 402.525C183.923 396.128 188.405 388.626 194.611 378.246C199.733 369.68 206.105 359.025 219.086 346.044C225.3 339.826 234.53 337.42 244.147 336.764C243.977 336.349 243.81 335.933 243.644 335.518C238.19 321.548 238.29 307.848 243.931 295.889C248.38 286.468 256.135 278.272 266.557 271.904C257.107 268.166 248.342 263.966 240.304 259.31C234.377 255.878 227.942 251.454 225.172 244.667C216.02 222.24 243.715 194.757 249.36 189.477C251.304 187.658 253.601 185.635 256.189 183.583C238.701 173.759 225.408 156.213 217.163 142.812C207.663 127.38 202.616 113.967 202.566 113.834L203.733 113.398C203.783 113.531 208.797 126.848 218.235 142.181C226.476 155.56 239.781 173.111 257.253 182.752C268.256 174.253 283.979 165.717 299.436 169.808C309.576 172.492 312.346 176.23 312.886 178.893C313.393 181.406 312.101 184.007 309.243 186.221C301.563 192.169 281.092 195.841 259.629 185.386C258.868 185.016 258.117 184.634 257.373 184.235C254.648 186.374 252.235 188.493 250.212 190.387C244.67 195.571 217.483 222.526 226.326 244.197C228.956 250.636 235.183 254.906 240.928 258.23C249.169 263.002 258.175 267.293 267.912 271.098C269.482 270.185 271.114 269.308 272.797 268.473C295.756 257.12 324.115 251.4 352.652 252.36C364.092 252.746 373.177 254.063 380.421 256.389C392.314 260.207 398.346 266.558 398.346 275.273C398.346 279.415 396.809 282.85 393.772 285.484C381.813 295.873 349.944 291.374 337.947 289.679L336.709 289.505C310.955 285.916 287.967 280.212 268.011 272.478C243.644 286.846 234.962 309.871 244.807 335.061C245.019 335.609 245.235 336.145 245.464 336.685C254.208 336.232 263.18 337.142 270.433 337.877L271.43 337.981C294.43 340.303 316.833 346.127 338.005 355.291C343.887 357.837 349.981 360.816 354.717 365.339C357.155 367.665 358.439 369.796 358.759 372.044C359.668 378.42 352.719 382.79 346.496 384.593C306.635 396.153 260.68 374.889 244.662 337.977C235.137 338.571 226.015 340.872 219.967 346.925C207.094 359.794 200.767 370.378 195.683 378.885C189.61 389.042 184.812 397.067 172.283 403.63" fill="#8C90DD"/>
<path d="M217.66 425.645L218.425 429.866C218.425 429.866 213.332 432.42 213.332 434.871C213.332 437.322 211.533 440.558 203.77 440.558C203.77 440.558 208.866 436.828 210.113 433.102C211.238 429.737 211.326 424.42 211.326 424.42L217.66 425.645Z" fill="#FC7575"/>
<path d="M219.52 428.083C219.429 425.728 218.506 425.566 218.506 425.566C218.506 425.566 217.202 425.142 215.628 427.348C214.053 429.558 211.939 436.4 211.939 436.4L207.54 437.588C207.54 437.588 200.968 441.825 205.451 441.609C209.937 441.397 212.637 439.307 212.637 439.307C212.637 439.307 213.837 433.488 215.553 432.308C217.971 430.646 217.144 435.639 217.053 438.514C217.418 438.601 217.788 438.402 217.788 438.402C218.477 435.033 219.582 429.716 219.52 428.083" fill="black"/>
<path d="M208.593 117.647L204.759 119.866L197.789 107.79L201.623 105.576L208.593 117.647Z" fill="#653870"/>
<path d="M287.48 256.149C287.48 256.149 291.426 261.861 291.426 264.872C291.426 267.884 290.596 270.065 289.973 270.065C289.349 270.065 289.453 265.911 289.453 264.872C289.453 263.834 286.961 259.368 286.961 259.368L287.48 256.149Z" fill="#FD5E5A"/>
<path d="M232.075 136.876C232.075 136.876 209.157 195.288 195.022 188.181C188.267 184.787 204.135 159.357 204.135 159.357C204.135 159.357 217.262 129.66 226.587 123.608C235.913 117.56 232.075 136.876 232.075 136.876Z" fill="#FC7575"/>
<path d="M226.587 123.609C224.518 124.95 222.262 127.455 220.007 130.542C218.37 141.126 216.243 157.58 216.754 168.912C225.253 154.265 232.074 136.876 232.074 136.876C232.074 136.876 235.912 117.561 226.587 123.609Z" fill="#FD5E5A"/>
<path d="M270.66 129.082C270.66 129.082 252.341 121.464 241.703 120.375C218.05 117.954 219.919 141.652 219.919 141.652L221.951 188.18C221.951 188.18 204.126 221.703 201.675 236.001C199.224 250.299 207.852 334.753 207.852 334.753L196.823 430.343L241.761 427.892C241.761 427.892 238.492 339.654 238.492 325.763C238.492 311.877 258.684 237.002 261.135 224.748C263.586 212.493 255.294 193.51 253.541 188.18C248.079 171.56 263.004 160.86 263.004 160.86L270.66 129.082" fill="#F9B406"/>
<path d="M260.758 227.449C260.758 227.449 251.973 295.333 243.395 327.605C243.395 327.605 250.955 339.249 253.406 350.684C255.857 362.124 260.758 409.309 260.758 409.309C260.758 409.309 268.314 420.949 268.314 422.992C268.314 425.036 268.111 431.57 266.885 431.57C265.66 431.57 259.126 429.734 259.126 425.443C259.126 421.156 255.857 411.145 255.857 411.145C255.857 411.145 238.921 363.271 236.246 356.404C232.237 346.103 230.322 328.627 230.322 328.627C230.322 328.627 233.591 224.184 260.758 227.449" fill="#FC7575"/>
<path d="M267.646 421.032L266.678 426.739L262.038 427.915L259.122 425.327C259.122 425.368 259.126 425.406 259.126 425.443C259.126 429.734 265.66 431.57 266.886 431.57C268.111 431.57 268.315 425.036 268.315 422.992C268.315 422.618 268.061 421.921 267.646 421.032" fill="black"/>
<path d="M264.09 428.471C264.09 428.824 263.803 429.106 263.45 429.106C263.101 429.106 262.814 428.824 262.814 428.471C262.814 428.122 263.101 427.835 263.45 427.835C263.803 427.835 264.09 428.122 264.09 428.471Z" fill="#253A42"/>
<path d="M265.061 429.414C265.061 429.58 264.924 429.717 264.758 429.717C264.587 429.717 264.45 429.58 264.45 429.414C264.45 429.243 264.587 429.106 264.758 429.106C264.924 429.106 265.061 429.243 265.061 429.414Z" fill="#253A42"/>
<path d="M265.526 428.217C265.526 428.517 265.285 428.757 264.99 428.757C264.691 428.757 264.45 428.517 264.45 428.217C264.45 427.923 264.691 427.682 264.99 427.682C265.285 427.682 265.526 427.923 265.526 428.217Z" fill="#253A42"/>
<path d="M266.041 429.547C266.041 429.688 265.925 429.804 265.784 429.804C265.643 429.804 265.526 429.688 265.526 429.547C265.526 429.405 265.643 429.289 265.784 429.289C265.925 429.289 266.041 429.405 266.041 429.547Z" fill="#556266"/>
<path d="M266.377 427.976C266.377 428.138 266.244 428.271 266.078 428.271C265.916 428.271 265.783 428.138 265.783 427.976C265.783 427.814 265.916 427.681 266.078 427.681C266.244 427.681 266.377 427.814 266.377 427.976Z" fill="#556266"/>
<path d="M267.06 429.023C267.06 429.168 266.944 429.289 266.794 429.289C266.649 429.289 266.528 429.168 266.528 429.023C266.528 428.878 266.649 428.757 266.794 428.757C266.944 428.757 267.06 428.878 267.06 429.023Z" fill="#556266"/>
<path d="M258.577 243.34C259.948 233.711 260.758 227.447 260.758 227.447C233.591 224.182 230.322 328.625 230.322 328.625C230.322 328.625 230.563 330.822 231.053 334.121C233.284 315.536 241.592 256.633 258.577 243.34Z" fill="#FD5E5A"/>
<path d="M260.758 227.449C258.474 227.299 257.564 227.636 256.48 227.951C255.076 228.421 253.742 229.326 253.784 229.301C253.742 229.33 252.683 230.128 252.749 230.078C250.805 231.819 250.573 232.201 249.264 233.904C235.976 252.185 231.598 306.062 230.322 328.626C230.397 323.978 230.63 319.334 230.887 314.69C235.124 245.996 249.185 233.887 249.48 232.969C251.516 230.419 253.701 229.077 253.655 229.106C253.701 229.085 254.876 228.412 254.801 228.454C256.002 227.96 255.429 228.105 256.854 227.681C257.95 227.312 259.608 227.332 260.758 227.449" fill="#FFD371"/>
<path d="M198.628 104.251L195.022 106.166L361.077 418.971C362.281 418.335 363.494 417.712 364.703 417.093L198.628 104.251" fill="black"/>
<path d="M275.415 253.378L200.952 113.119C200.694 112.633 201.425 112.243 201.683 112.729C201.683 112.729 275.378 253.307 275.415 253.378Z" fill="#E3E4FF"/>
<path d="M199.391 108.529L198.514 109.09C195.989 110.71 192.624 109.975 191.004 107.445L180.029 90.3139C178.409 87.7883 179.144 84.4278 181.674 82.8077L182.55 82.2428C185.08 80.6269 188.441 81.3622 190.061 83.8878L201.036 101.019C202.656 103.548 201.92 106.909 199.391 108.529" fill="#BA9BC9"/>
<path d="M183.415 89.878C183.536 90.0608 183.735 90.1646 183.943 90.1646C184.059 90.1646 184.175 90.1314 184.279 90.0649L191.191 85.6576L190.523 84.6067L183.606 89.014C183.315 89.2009 183.232 89.5872 183.415 89.878Z" fill="black"/>
<path d="M184.992 92.4482C185.113 92.6351 185.312 92.7348 185.52 92.7348C185.632 92.7348 185.748 92.7057 185.852 92.6392L192.818 88.1987L192.149 87.1477L185.183 91.5883C184.892 91.7752 184.805 92.1574 184.992 92.4482" fill="black"/>
<path d="M186.797 95.3405C186.917 95.5274 187.117 95.6313 187.324 95.6313C187.437 95.6313 187.553 95.5981 187.657 95.5316L194.66 91.0661L193.987 90.0193L186.988 94.4806C186.697 94.6676 186.614 95.0539 186.797 95.3405Z" fill="black"/>
<path d="M188.72 98.9256C188.836 99.1125 189.04 99.2122 189.243 99.2122C189.36 99.2122 189.476 99.179 189.58 99.1167L196.845 94.4809L196.176 93.4299L188.907 98.0657C188.62 98.2485 188.533 98.6348 188.72 98.9256" fill="black"/>
<path d="M190.295 101.497C190.415 101.684 190.615 101.787 190.823 101.787C190.935 101.787 191.051 101.754 191.155 101.688L198.474 97.0229L197.805 95.9719L190.486 100.637C190.195 100.824 190.112 101.206 190.295 101.497" fill="black"/>
<path d="M192.096 104.391C192.216 104.574 192.416 104.678 192.623 104.678C192.74 104.678 192.856 104.645 192.96 104.578L200.312 99.8927L199.639 98.8417L192.287 103.532C191.996 103.714 191.913 104.101 192.096 104.391" fill="black"/>
<path d="M193.443 120.397C193.443 120.397 194.623 112.052 195.786 110.71C196.949 109.365 209.577 108.962 209.299 110.121C209.016 111.275 202.769 110.677 201.477 111.583C200.185 112.488 201.269 113.161 203.147 113.618C205.029 114.071 206.669 114.594 206.441 115.541C206.212 116.489 201.593 116.044 201.593 116.044C201.593 116.044 204.364 116.401 204.725 117.083C205.087 117.768 204.231 119.646 202.981 119.342C201.726 119.039 201.726 119.039 201.726 119.039C201.726 119.039 204.605 119.484 204.289 120.784C203.973 122.088 199.882 121.531 199.587 122.749C199.292 123.966 205.502 155.914 203.882 166.631C202.258 177.348 199.122 187.6 196.185 188.14C186.469 189.93 188.317 132.211 193.443 120.397" fill="#FC7575"/>
<path d="M262.731 148.203C261.323 155.103 261.734 162.239 263.94 168.927C268.318 182.224 275.812 206.234 277.1 218.529C278.936 236.096 278.936 251.009 278.936 251.009C278.936 251.009 274.545 262.956 275.666 264.081C276.792 265.203 276.568 259.994 278.936 259.994C281.307 259.994 279.55 275.006 280.979 276.435C282.408 277.868 283.634 258.054 284.859 259.28C286.085 260.505 285.985 266.632 285.985 266.632C285.985 266.632 282.612 273.374 283.227 273.985C283.837 274.599 286.903 270.512 288.535 265.814C290.172 261.12 286.085 247.74 286.085 247.74C286.085 247.74 286.188 207.397 283.123 191.362C280.061 175.328 276.198 129.768 270.661 129.082C267.388 128.679 264.525 139.384 262.731 148.203" fill="#FC7575"/>
<path d="M362.841 406.708L353.856 414.061L362.841 425.638L370.198 419.237L362.841 406.708" fill="black"/>
<path d="M409.856 392.534C413.084 397.162 396.755 414.135 373.381 430.447C350.01 446.764 328.443 456.239 325.215 451.612C321.988 446.989 338.317 430.015 361.691 413.699C385.061 397.386 406.625 387.911 409.856 392.534Z" fill="#073E59"/>
<path d="M399.2 399.97C401.613 403.434 389.396 416.133 371.908 428.342C354.42 440.546 338.286 447.637 335.869 444.176C333.455 440.716 345.672 428.013 363.16 415.809C380.648 403.601 396.782 396.51 399.2 399.97Z" fill="#164659"/>
<path d="M271.449 96.3456C266.967 92.1293 266.88 89.8862 266.489 85.6575C266.099 81.4288 265.895 79.2728 262.726 75.8458C259.56 72.4188 253.442 73.5445 249.84 69.8641C246.239 66.1796 242.633 68.9295 240.564 69.8932C240.564 69.8932 237.902 69.5858 232.202 72.236C226.507 74.8863 223.512 79.6135 222.27 83.0197C221.024 86.426 218.86 85.1922 215.753 86.6378C212.646 88.0834 214.411 88.8352 212.795 90.7793C211.179 92.7192 209.302 92.4035 209.302 92.4035L212.621 98.1858C212.621 98.1858 218.615 98.543 221.294 94.1523C221.294 94.1523 219.882 101.272 214.469 101.82C214.203 101.85 213.967 101.874 213.746 101.895C214.353 102.863 216.937 106.71 220.688 108.081C224.991 109.651 224.725 106.265 226.412 109.887C228.094 113.514 234.246 115.221 236.057 114.378C237.868 113.535 243.082 115.321 243.082 115.321C243.082 115.321 255.735 113.177 256.391 111.379C257.051 109.576 260.574 106.992 262.186 107.582C263.797 108.168 268.429 103.731 268.429 103.731L274.095 102.041C274.095 102.041 275.927 100.558 271.449 96.3456" fill="#18287D"/>
<path d="M252.827 101.987C253.405 100.405 254.497 115.92 251.797 123.31C251.352 124.531 242.521 132.743 238.396 128.593C238.396 128.593 241.192 124.091 241.719 117.606C242.243 111.126 238.367 107.869 238.367 107.869C238.367 107.869 252.275 103.508 252.827 101.987Z" fill="#FC7575"/>
<path d="M252.827 101.985C252.275 103.506 238.367 107.867 238.367 107.867C238.367 107.867 240.295 109.487 241.246 112.719C244.827 112.603 250.53 111.564 253.542 109.143C253.525 104.606 253.114 101.2 252.827 101.985" fill="#FD5E5A"/>
<path d="M237.15 75.7629C237.15 75.7629 230.799 80.7269 231.135 83.8174C231.468 86.908 228.639 90.983 229.719 97.3676C230.799 103.752 234.616 107.728 236.419 108.384C238.222 109.04 249.911 107.528 252.915 103.183C255.918 98.8423 264.749 93.006 257.28 81.9108C249.812 70.8156 237.15 75.7629 237.15 75.7629Z" fill="#FC7575"/>
<path d="M249.049 75.4842C249.049 75.4842 241.693 77.0586 235.744 78.8281C229.796 80.5977 227.872 87.2898 229.746 91.3149C231.619 95.3443 224.765 97.8865 223.889 92.9474C223.889 92.9474 228.325 96.0546 228.059 92.1C227.793 88.1455 223.781 85.6074 227.187 80.4025C230.589 75.1935 232.857 69.1951 238.457 70.0841C244.06 70.973 249.049 75.4842 249.049 75.4842Z" fill="#2846A6"/>
<path d="M249.049 75.4838C249.049 75.4838 254 82.8238 252.675 86.4544C251.354 90.0808 248.11 92.6147 251.371 93.8069C254.636 94.9991 256.082 96.7188 252.63 98.3222C249.182 99.9298 244.849 101.787 248.642 103.17C252.434 104.557 254.648 107.623 252.837 108.466C251.022 109.309 246.673 108.811 246.673 108.811C246.673 108.811 250.175 114.074 252.642 113.202C255.11 112.325 258.217 111.827 258.757 110.356C258.844 110.111 259.135 110.041 259.563 110.095C263.438 110.556 266.786 107.76 268.178 104.113C268.253 103.909 268.34 103.772 268.431 103.731C269.337 103.311 263.708 94.9368 261.731 88.9883C261 86.795 259.995 84.4688 259.014 82.4001C257.157 78.4912 253.357 75.8784 249.049 75.4838" fill="#2846A6"/>
<path d="M237.027 91.336C235.76 92.3288 234.527 92.4617 234.294 92.5364C234.693 93.2426 235.179 94.2146 235.989 95.2656C235.823 94.5013 235.582 93.7743 235.316 93.0557C237.222 92.632 238.548 91.0576 238.772 89.3545C237.866 90.6921 237.58 90.8666 237.027 91.336Z" fill="#172866"/>
<path d="M235.032 99.2197C235.032 99.2197 239.443 99.7805 241.379 99.0328C243.315 98.285 240.656 100.408 238.583 100.885C236.515 101.367 234.55 99.6019 235.032 99.2197Z" fill="white"/>
<path d="M241.17 88.8222C241.913 87.6009 243.409 86.6289 244.809 87.1273C246.25 87.684 246.607 89.0714 248.003 89.5034C246.62 89.7942 245.598 88.2281 244.539 87.875C243.517 87.4846 242.291 88.1326 241.17 88.8222Z" fill="black"/>
<path d="M236.454 89.4952C235.711 88.2698 234.211 87.302 232.815 87.8087C231.374 88.3654 231.021 89.757 229.625 90.1931C231.008 90.4756 232.03 88.9096 233.085 88.5523C234.107 88.1577 235.337 88.8057 236.454 89.4952Z" fill="black"/>
<path d="M245.197 82.1427C246.609 82.0139 247.993 82.8364 248.944 83.8624C246.414 82.3878 245.085 82.7284 243.631 83.6464C242.156 84.5644 241.945 85.2291 241.537 84.7721C241.002 84.1781 243.394 82.3711 245.197 82.1427" fill="#2846A6"/>
<path d="M233.641 84.4202C232.881 84.3454 232.013 84.8854 231.095 85.2592C232.744 83.0867 234.638 82.9081 236.237 85.4462C236.499 85.8616 235.913 86.2853 235.602 85.9114C235.602 85.9114 234.09 84.4659 233.641 84.4202" fill="#2846A6"/>
<path d="M253.936 135.13C252.981 135.13 252.204 134.353 252.204 133.398C252.204 132.442 252.981 131.666 253.936 131.666C254.892 131.666 255.668 132.442 255.668 133.398C255.668 134.353 254.892 135.13 253.936 135.13Z" fill="#FBC804"/>
<path d="M260.206 131.484C259.25 131.484 258.478 130.711 258.478 129.756C258.478 128.797 259.25 128.024 260.206 128.024C261.161 128.024 261.938 128.797 261.938 129.756C261.938 130.711 261.161 131.484 260.206 131.484Z" fill="#FBC804"/>
<path d="M256.744 137.481C255.789 137.481 255.012 136.709 255.012 135.753C255.012 134.794 255.789 134.021 256.744 134.021C257.699 134.021 258.476 134.794 258.476 135.753C258.476 136.709 257.699 137.481 256.744 137.481Z" fill="#FBC804"/>
<path d="M260.554 137.516C260.192 137.516 259.897 137.221 259.897 136.859C259.897 136.498 260.192 136.207 260.554 136.207C260.911 136.207 261.206 136.498 261.206 136.859C261.206 137.221 260.911 137.516 260.554 137.516Z" fill="#FDE602"/>
<path d="M257.883 140.219C257.256 140.219 256.745 139.708 256.745 139.077C256.745 138.449 257.256 137.938 257.883 137.938C258.515 137.938 259.026 138.449 259.026 139.077C259.026 139.708 258.515 140.219 257.883 140.219Z" fill="#FDE602"/>
<path d="M255.52 146.978C254.893 146.978 254.382 146.467 254.382 145.835C254.382 145.204 254.893 144.697 255.52 144.697C256.151 144.697 256.662 145.204 256.662 145.835C256.662 146.467 256.151 146.978 255.52 146.978Z" fill="#FDE602"/>
<path d="M258.054 132.06C257.692 132.06 257.397 131.769 257.397 131.408C257.397 131.046 257.692 130.756 258.054 130.756C258.411 130.756 258.706 131.046 258.706 131.408C258.706 131.769 258.411 132.06 258.054 132.06Z" fill="#FDE602"/>
<path d="M254.868 128.426C254.507 128.426 254.216 128.135 254.216 127.774C254.216 127.413 254.507 127.122 254.868 127.122C255.229 127.122 255.52 127.413 255.52 127.774C255.52 128.135 255.229 128.426 254.868 128.426Z" fill="#FDE602"/>
<path d="M255.668 143.966C254.708 143.966 253.936 143.189 253.936 142.233C253.936 141.278 254.708 140.505 255.668 140.505C256.623 140.505 257.396 141.278 257.396 142.233C257.396 143.189 256.623 143.966 255.668 143.966Z" fill="#FBC804"/>
<path d="M211.03 235.723C210.66 235.723 210.291 235.607 209.975 235.362C209.219 234.776 209.078 233.692 209.663 232.936C210.004 232.496 210.515 232.263 211.034 232.263C211.404 232.263 211.774 232.379 212.089 232.624C212.845 233.21 212.987 234.294 212.401 235.05C212.06 235.495 211.549 235.723 211.03 235.723Z" fill="#FBC804"/>
<path d="M206.411 255.375C206.041 255.375 205.671 255.259 205.356 255.014C204.6 254.428 204.459 253.344 205.044 252.588C205.385 252.148 205.896 251.915 206.415 251.915C206.785 251.915 207.159 252.031 207.47 252.276C208.23 252.862 208.367 253.946 207.782 254.702C207.441 255.147 206.93 255.375 206.411 255.375Z" fill="#FBC804"/>
<path d="M219.434 271.662C219.064 271.662 218.69 271.546 218.375 271.301C217.619 270.715 217.482 269.631 218.067 268.875C218.408 268.431 218.919 268.202 219.438 268.202C219.808 268.202 220.177 268.318 220.493 268.564C221.249 269.149 221.39 270.233 220.805 270.989C220.464 271.43 219.953 271.662 219.434 271.662Z" fill="#FBC804"/>
<path d="M214.496 246.387C214.126 246.387 213.753 246.27 213.437 246.025C212.681 245.439 212.54 244.351 213.125 243.595C213.466 243.155 213.977 242.926 214.496 242.926C214.866 242.926 215.24 243.043 215.555 243.288C216.311 243.869 216.448 244.958 215.863 245.714C215.522 246.154 215.011 246.387 214.496 246.387Z" fill="#FBC804"/>
<path d="M213.348 271.19C212.979 271.19 212.609 271.074 212.293 270.828C211.537 270.247 211.396 269.159 211.982 268.403C212.322 267.962 212.833 267.73 213.353 267.73C213.722 267.73 214.092 267.85 214.408 268.091C215.164 268.677 215.305 269.765 214.719 270.521C214.379 270.961 213.868 271.19 213.348 271.19" fill="#FBC804"/>
<path d="M220.947 279.339C220.573 279.339 220.204 279.222 219.888 278.977C219.132 278.396 218.991 277.307 219.576 276.551C219.917 276.111 220.428 275.878 220.947 275.878C221.317 275.878 221.691 275.995 222.007 276.24C222.763 276.825 222.9 277.91 222.314 278.666C221.973 279.11 221.462 279.339 220.947 279.339Z" fill="#FBC804"/>
<path d="M258.477 149.296C257.518 149.296 256.745 148.523 256.745 147.568C256.745 146.612 257.518 145.835 258.477 145.835C259.433 145.835 260.205 146.612 260.205 147.568C260.205 148.523 259.433 149.296 258.477 149.296Z" fill="#FBC804"/>
<path d="M205.613 235.723C204.653 235.723 203.881 234.951 203.881 233.995C203.881 233.036 204.653 232.263 205.613 232.263C206.568 232.263 207.341 233.036 207.341 233.995C207.341 234.951 206.568 235.723 205.613 235.723Z" fill="#FBC804"/>
<path d="M223.481 143.966C222.522 143.966 221.749 143.189 221.749 142.233C221.749 141.278 222.522 140.505 223.481 140.505C224.437 140.505 225.209 141.278 225.209 142.233C225.209 143.189 224.437 143.966 223.481 143.966Z" fill="#FBC804"/>
<path d="M211.03 229.106C210.074 229.106 209.302 228.33 209.302 227.374C209.302 226.419 210.074 225.646 211.03 225.646C211.989 225.646 212.762 226.419 212.762 227.374C212.762 228.33 211.989 229.106 211.03 229.106Z" fill="#FBC804"/>
<path d="M207.341 247.287C206.432 247.287 205.667 246.577 205.613 245.655C205.559 244.699 206.286 243.881 207.242 243.827C207.275 243.827 207.312 243.823 207.345 243.823C208.255 243.823 209.015 244.533 209.069 245.455C209.123 246.411 208.396 247.229 207.441 247.283C207.408 247.283 207.374 247.287 207.341 247.287Z" fill="#FBC804"/>
<path d="M211.031 255.109C210.121 255.109 209.357 254.399 209.303 253.477C209.249 252.526 209.98 251.707 210.931 251.649C210.968 251.649 211.002 251.649 211.035 251.649C211.944 251.649 212.709 252.36 212.759 253.278C212.817 254.233 212.086 255.051 211.134 255.105C211.097 255.109 211.064 255.109 211.031 255.109" fill="#FCDA03"/>
<path d="M224.445 295.956C223.535 295.956 222.771 295.245 222.721 294.327C222.663 293.372 223.394 292.554 224.349 292.5C224.383 292.495 224.416 292.495 224.449 292.495C225.359 292.495 226.123 293.206 226.177 294.124C226.231 295.079 225.5 295.897 224.549 295.956C224.511 295.956 224.478 295.956 224.445 295.956Z" fill="#FCDA03"/>
<path d="M230.953 291.664C230.043 291.664 229.279 290.953 229.225 290.031C229.171 289.08 229.897 288.262 230.853 288.204C230.886 288.204 230.923 288.204 230.957 288.204C231.866 288.204 232.627 288.914 232.681 289.832C232.735 290.787 232.008 291.606 231.052 291.66C231.019 291.664 230.986 291.664 230.953 291.664Z" fill="#FCDA03"/>
<path d="M222.717 328.389C221.803 328.389 221.043 327.679 220.989 326.756C220.935 325.801 221.662 324.983 222.618 324.929C222.651 324.929 222.684 324.925 222.717 324.925C223.627 324.925 224.391 325.635 224.445 326.557C224.499 327.512 223.772 328.331 222.817 328.385C222.784 328.385 222.75 328.389 222.717 328.389Z" fill="#FCDA03"/>
<path d="M228.273 362.145C227.359 362.145 226.599 361.431 226.545 360.513C226.491 359.557 227.218 358.739 228.173 358.685C228.206 358.681 228.24 358.681 228.273 358.681C229.183 358.681 229.947 359.391 230.001 360.313C230.055 361.269 229.328 362.087 228.373 362.141C228.339 362.141 228.306 362.145 228.273 362.145Z" fill="#FCDA03"/>
<path d="M225.317 311.018C224.407 311.018 223.643 310.307 223.589 309.389C223.535 308.434 224.262 307.615 225.217 307.561C225.25 307.557 225.284 307.557 225.321 307.557C226.231 307.557 226.991 308.268 227.045 309.19C227.099 310.141 226.372 310.959 225.417 311.018C225.383 311.018 225.35 311.018 225.317 311.018Z" fill="#FCDA03"/>
<path d="M205.61 240.919C205.008 240.919 204.505 240.45 204.468 239.839C204.43 239.208 204.912 238.668 205.548 238.63C205.569 238.63 205.594 238.626 205.614 238.626C206.217 238.626 206.723 239.1 206.757 239.706C206.794 240.337 206.312 240.882 205.677 240.919C205.656 240.919 205.635 240.919 205.61 240.919Z" fill="#FCDA03"/>
<path d="M215.639 282.147C215.037 282.147 214.534 281.678 214.497 281.067C214.464 280.436 214.945 279.896 215.577 279.858C215.598 279.858 215.622 279.854 215.643 279.854C216.246 279.854 216.752 280.328 216.786 280.934C216.823 281.566 216.341 282.11 215.71 282.147C215.685 282.147 215.664 282.147 215.639 282.147" fill="#FCDA03"/>
<path d="M211.03 264.584C210.428 264.584 209.921 264.111 209.888 263.504C209.85 262.873 210.332 262.329 210.968 262.291C210.989 262.291 211.009 262.291 211.034 262.291C211.637 262.291 212.139 262.761 212.177 263.371C212.214 264.003 211.732 264.543 211.097 264.58C211.076 264.584 211.051 264.584 211.03 264.584" fill="#FCDA03"/>
<path d="M220.94 285.848C220.338 285.848 219.835 285.379 219.798 284.768C219.761 284.137 220.247 283.593 220.878 283.56C220.899 283.556 220.924 283.556 220.944 283.556C221.547 283.556 222.054 284.025 222.087 284.636C222.124 285.267 221.642 285.811 221.011 285.844C220.986 285.848 220.965 285.848 220.94 285.848Z" fill="#FCDA03"/>
<path d="M232.1 387.87C231.498 387.87 230.991 387.401 230.958 386.79C230.921 386.159 231.403 385.615 232.034 385.577C232.059 385.577 232.08 385.577 232.1 385.577C232.703 385.577 233.21 386.047 233.247 386.657C233.28 387.289 232.798 387.833 232.167 387.866C232.146 387.87 232.121 387.87 232.1 387.87" fill="#FCDA03"/>
<path d="M207.341 228.52C206.738 228.52 206.232 228.051 206.198 227.44C206.161 226.809 206.643 226.269 207.274 226.231C207.299 226.227 207.32 226.227 207.341 226.227C207.943 226.227 208.45 226.701 208.487 227.307C208.52 227.939 208.039 228.483 207.407 228.52C207.386 228.52 207.361 228.52 207.341 228.52Z" fill="#FCDA03"/>
<path d="M211.03 222.489C210.428 222.489 209.921 222.015 209.888 221.409C209.85 220.777 210.332 220.233 210.968 220.196C210.989 220.196 211.009 220.196 211.034 220.196C211.637 220.196 212.139 220.665 212.177 221.276C212.214 221.907 211.732 222.447 211.097 222.485C211.076 222.485 211.051 222.489 211.03 222.489Z" fill="#FCDA03"/>
<path d="M233.902 405.067C233.3 405.067 232.793 404.598 232.756 403.987C232.722 403.356 233.204 402.816 233.836 402.779C233.856 402.779 233.881 402.779 233.902 402.779C234.504 402.779 235.011 403.248 235.044 403.855C235.082 404.49 234.6 405.03 233.968 405.067C233.944 405.067 233.923 405.067 233.902 405.067" fill="#FCDA03"/>
<path d="M217.444 261.693C216.838 261.693 216.335 261.223 216.298 260.613C216.261 259.981 216.747 259.441 217.378 259.404C217.399 259.4 217.424 259.4 217.444 259.4C218.047 259.4 218.554 259.873 218.587 260.48C218.624 261.111 218.142 261.655 217.511 261.693C217.486 261.693 217.465 261.693 217.444 261.693" fill="#FCDA03"/>
<path d="M210.387 260.743C209.68 260.743 209.091 260.194 209.049 259.48C209.007 258.741 209.572 258.105 210.312 258.063C210.337 258.059 210.366 258.059 210.391 258.059C211.097 258.059 211.687 258.612 211.728 259.326C211.77 260.066 211.205 260.697 210.466 260.743C210.441 260.743 210.412 260.743 210.387 260.743Z" fill="#FBC804"/>
<path d="M225.731 301.45C225.025 301.45 224.435 300.902 224.393 300.188C224.348 299.448 224.912 298.813 225.652 298.771C225.681 298.767 225.706 298.767 225.731 298.767C226.437 298.767 227.031 299.319 227.073 300.034C227.114 300.773 226.549 301.405 225.81 301.45C225.781 301.45 225.756 301.45 225.731 301.45" fill="#FBC804"/>
<path d="M228.83 317.568C228.124 317.568 227.53 317.015 227.493 316.301C227.447 315.561 228.012 314.926 228.751 314.884C228.781 314.884 228.805 314.884 228.83 314.884C229.537 314.884 230.131 315.432 230.168 316.147C230.214 316.886 229.649 317.522 228.909 317.563C228.88 317.563 228.855 317.568 228.83 317.568Z" fill="#FBC804"/>
<path d="M227.638 350.821C226.936 350.821 226.342 350.273 226.3 349.558C226.258 348.819 226.823 348.183 227.563 348.142C227.588 348.138 227.617 348.138 227.642 348.138C228.348 348.138 228.938 348.69 228.979 349.405C229.025 350.144 228.456 350.776 227.717 350.821C227.692 350.821 227.667 350.821 227.638 350.821Z" fill="#FBC804"/>
<path d="M227.075 287.191C226.368 287.191 225.779 286.638 225.737 285.928C225.691 285.189 226.256 284.553 227 284.507C227.025 284.507 227.05 284.507 227.079 284.507C227.781 284.507 228.375 285.06 228.416 285.77C228.458 286.51 227.893 287.145 227.153 287.187C227.124 287.191 227.099 287.191 227.075 287.191" fill="#FBC804"/>
<path d="M224.727 148.809C224.095 148.809 223.489 148.465 223.181 147.867C222.749 147.015 223.086 145.972 223.937 145.536C224.191 145.407 224.461 145.349 224.722 145.349C225.354 145.349 225.96 145.694 226.268 146.292C226.7 147.144 226.363 148.186 225.512 148.623C225.258 148.751 224.992 148.809 224.727 148.809Z" fill="#FBC804"/>
<path d="M253.936 140.323C252.981 140.323 252.204 139.546 252.204 138.591C252.204 137.636 252.981 136.859 253.936 136.859C254.892 136.859 255.668 137.636 255.668 138.591C255.668 139.546 254.892 140.323 253.936 140.323Z" fill="#FBC804"/>
<path d="M168.523 415.057H142.407C138.71 415.057 135.711 412.057 135.711 408.36V368.412C135.711 364.711 138.71 361.716 142.407 361.716H168.523C172.224 361.716 175.219 364.711 175.219 368.412V408.36C175.219 412.057 172.224 415.057 168.523 415.057Z" fill="#381A3F"/>
<path d="M168.072 364.642C170.593 365.859 171.993 367.907 172.263 370.345C172.338 371.068 172.329 369.116 171.993 403.078C171.98 401.591 171.669 369.843 171.681 371.288C171.727 368.281 169.592 365.36 165.907 364.908C165.409 364.879 166.082 364.866 149.595 365.036C149.283 365.041 149.026 364.787 149.022 364.476C149.017 364.16 149.271 363.902 149.586 363.898C167.54 364.077 166.215 363.907 168.072 364.642Z" fill="#662D91"/>
<path d="M146.606 420.595H142.764L140.911 411.332H146.606V420.595Z" fill="#381A3F"/>
<path d="M163.406 420.595H167.249L169.101 411.332H163.406V420.595Z" fill="#381A3F"/>
<path d="M170.378 388.984C170.378 396.768 164.068 403.078 156.284 403.078C148.499 403.078 142.189 396.768 142.189 388.984C142.189 381.199 148.499 374.89 156.284 374.89C164.068 374.89 170.378 381.199 170.378 388.984Z" fill="#653870"/>
<path d="M162.978 388.983C162.978 392.676 159.983 395.675 156.286 395.675C152.593 395.675 149.598 392.676 149.598 388.983C149.598 385.286 152.593 382.291 156.286 382.291C159.983 382.291 162.978 385.286 162.978 388.983Z" fill="#4C2A54"/>
<path d="M451.589 130.262C448.926 153.961 441.616 236.248 456.249 255.061L451.175 258.903C435.871 237.148 447.073 156.163 451.224 130.211L451.589 130.262Z" fill="#6077BD"/>
<path d="M473.66 128.901C492.579 126.05 524.975 122.44 544.108 124.265L543.425 131.059C541.915 130.922 529.799 127.614 491.416 128.555C485.521 128.706 479.616 128.923 473.717 129.266L473.66 128.901Z" fill="#6077BD"/>
<path d="M435.923 139.228C435.923 139.228 431.13 137.527 428.23 165.202C425.33 192.881 433.197 215.669 433.197 215.669C433.197 215.669 450.819 233.98 456.718 235.968L465.514 217.553L447.05 200.754V177.553L435.923 139.228" fill="#1C1C1C"/>
<path d="M546.144 144.557L542.633 155.178L549.091 156.034L550.667 151.737C550.667 151.737 554.053 139.187 553.24 138.372C552.426 137.561 546.144 144.557 546.144 144.557" fill="#E25454"/>
<path d="M483.131 143.992C483.131 143.992 515.856 174.238 529.942 174.238C544.029 174.238 550.668 151.737 550.668 151.737L537.257 142.683C537.257 142.683 537.26 161.367 525.316 155.178C513.371 148.99 483.131 131.073 483.131 131.073V143.992" fill="#1C1C1C"/>
<path d="M481.036 130.233L471.668 129.473L524.828 155.178L529.942 148.134L481.036 130.233Z" fill="black"/>
<path d="M477.368 248.787V426.508L470.251 441.39L473.566 448.253L481.852 445.505L486.823 424.185L485.166 417.447H488.895L510.271 243.757H499.786L477.368 248.787" fill="#31302C"/>
<path d="M520.133 243.757L546.143 337.996L524.848 426.508L530.864 439.56L541.171 442.304H524.848L519.553 430.561L516.149 426.508L527.453 336.167L503.01 283.558L500.273 243.757H520.133Z" fill="#1C1C1C"/>
<path d="M430.918 148.275C430.918 148.275 454.8 199.036 461.773 204.701C470.046 211.424 468.758 261.795 468.758 261.795L524.828 246.604C521.427 233.254 514.491 197.716 510.272 187.589C506.13 177.646 501.075 160.427 496.103 148.275C491.131 136.123 486.247 129.473 475.199 129.473C464.151 129.473 435.614 125.627 430.918 148.275Z" fill="#31302C"/>
<path d="M457.8 136.063L475.001 137.38L487.502 177.811L457.8 136.063Z" fill="white"/>
<path d="M488.306 275.234C484.638 280.468 478.591 283.625 472.204 283.352C470.461 283.278 469.113 282.964 468.756 282.234C467.509 279.678 561.354 151.738 561.354 151.738C561.354 151.738 567.836 154.902 562.213 166.505C557.477 176.274 504.805 251.686 488.306 275.234Z" fill="#653870"/>
<path d="M559.353 100.809C559.353 100.809 562.759 103.251 564.508 110.985C566.258 118.718 534.184 153.234 537.93 160.975C541.675 168.713 524.827 163.465 524.827 163.465L546.095 126.452L559.353 100.809" fill="#653870"/>
<path d="M451.978 85.0551C450.156 83.6979 447.477 83.0267 444.303 83.9007L444.705 84.9518C447.497 83.7385 450.084 84.0335 451.978 85.0551Z" fill="#1B2B80"/>
<path d="M443.435 90.4945C443.916 88.9381 444.987 87.3191 446.489 86.3897C447.984 85.4604 449.09 85.4862 450.293 85.4604C450.739 85.4788 451.18 85.5673 451.626 85.619C451.498 85.5968 449.901 85.2317 448.946 85.3755C446.165 85.5046 443.856 87.7174 442.895 90.3322L443.435 90.4945" fill="#1B2B80"/>
<path d="M471.668 114.185C471.668 114.185 470.236 129.269 474.671 136.671C476.094 139.046 474.505 142.126 471.738 142.233C470.122 142.299 467.986 142.045 465.164 141.259C462.442 140.499 458.16 137.984 457.143 134.617C454.004 124.228 459.963 105.721 459.963 105.721L471.668 114.185Z" fill="#FC7575"/>
<path d="M458.384 111.53C459.212 108.056 459.963 105.721 459.963 105.721L471.668 114.185C471.668 114.185 471.257 118.508 471.557 123.663C467.737 122.815 462.729 119.968 458.384 111.53Z" fill="#FD5E5A"/>
<path d="M475.194 78.2244C475.194 78.2244 477.732 77.2396 479.847 80.4814C481.962 83.7268 483.936 94.5843 482.104 104.594C480.27 114.606 478.86 118.416 474.489 118.416C470.117 118.416 462.079 116.583 456.157 103.045C450.234 89.506 452.208 73.9942 475.194 78.2244Z" fill="#FC7575"/>
<path d="M475.897 86.4677C476.884 86.4677 481.295 87.1093 482.826 78.0848C484.358 69.0603 474.696 57.9815 468.068 60.943C461.441 63.9044 469.833 69.0603 469.833 69.0603C469.833 69.0603 465.039 66.3828 463.628 69.4844C462.218 72.586 464.334 73.9948 463.628 74.6992C462.923 75.4073 458.375 69.0713 453.31 74.1386C448.246 79.2023 451.642 82.3149 450.373 85.1363C449.104 87.9576 443.281 92.0144 449.104 101.493C452.803 107.515 459.114 108.651 459.114 108.651C459.114 108.651 458.129 105.442 458.129 101.212C458.129 96.9822 461.513 100.364 461.513 100.364C461.513 100.364 459.962 100.04 459.962 95.8536C459.962 91.3543 458.129 87.7179 458.129 86.5672C458.129 85.4166 457.706 82.4551 462.5 84.4319C467.295 86.405 475.897 86.4677 475.897 86.4677" fill="#111F59"/>
<path d="M490.955 73.5701C491.071 73.5701 491.166 73.4742 491.166 73.3562C491.166 57.1806 473.094 51.0696 472.911 51.0106C472.801 50.9737 472.681 51.0364 472.644 51.147C472.608 51.2577 472.669 51.3757 472.78 51.4126C472.959 51.4716 490.743 57.4904 490.743 73.3562C490.743 73.4742 490.838 73.5701 490.955 73.5701" fill="#542360"/>
<path d="M473.956 104.711C473.585 104.745 473.529 104.184 473.901 104.147L477.57 103.793L476.655 94.2707C477.072 96.974 477.849 102.012 478.201 104.298C478.082 104.309 473.698 104.734 473.956 104.711" fill="#172866"/>
<path d="M465.087 94.1168C467.907 89.7834 472.356 92.542 472.401 92.5678C472.716 92.7707 472.412 93.2464 472.098 93.0436C471.936 92.9403 468.079 90.5542 465.559 94.4229C465.475 94.552 465.301 94.5926 465.169 94.5077C465.039 94.4192 465.002 94.2459 465.087 94.1168" fill="#172866"/>
<path d="M481.731 90.0848C481.887 90.0848 482.013 90.2102 482.013 90.3688C482.013 90.5237 481.887 90.649 481.731 90.649C479.323 90.649 478.832 93.061 478.812 93.1643C478.742 93.5294 478.189 93.4224 478.258 93.0573C478.263 93.0278 478.851 90.0848 481.731 90.0848" fill="#172866"/>
<path d="M471.218 108.433L471.225 108.44C472.587 109.856 475.865 109.764 477.804 109.439H477.817C478.257 109.366 478.386 110.022 477.951 110.122C472.561 111.354 469.477 109.325 470.419 108.418C470.644 108.2 471.001 108.208 471.218 108.433Z" fill="white"/>
<path d="M477.879 95.8091C477.879 98.4497 479.877 100.592 482.342 100.592C484.806 100.592 486.804 98.4497 486.804 95.8091C486.804 93.1648 484.806 91.0257 482.342 91.0257C479.877 91.0257 477.879 93.1648 477.879 95.8091Z" fill="#172866"/>
<path d="M466.979 96.1627C466.979 98.8033 468.976 100.946 471.441 100.946C473.906 100.946 475.904 98.8033 475.904 96.1627C475.904 93.5184 473.906 91.3757 471.441 91.3757C468.976 91.3757 466.979 93.5184 466.979 96.1627Z" fill="#172866"/>
<path d="M479.482 92.1319C479.487 92.1282 479.491 92.1245 479.495 92.1208C479.491 92.1245 479.487 92.1282 479.482 92.1319ZM479.504 92.1135C479.509 92.1098 479.515 92.1061 479.521 92.0987C479.516 92.1061 479.509 92.1098 479.504 92.1135ZM479.524 92.0987C479.599 92.0323 479.677 91.9696 479.756 91.9069C479.677 91.9696 479.599 92.0323 479.524 92.0987Z" fill="#CD7798"/>
<path d="M485.728 98.921L478.948 92.6993C479.111 92.4928 479.289 92.3047 479.481 92.1314C479.486 92.1277 479.49 92.124 479.494 92.1203C479.497 92.1203 479.5 92.1166 479.503 92.1129C479.508 92.1092 479.514 92.1055 479.52 92.0982C479.521 92.0982 479.522 92.0982 479.522 92.0982C479.598 92.0318 479.676 91.9691 479.755 91.9064L486.333 97.9436C486.169 98.2977 485.965 98.6259 485.728 98.921Z" fill="#38458E"/>
<path d="M484.487 100.002L478.143 94.1782C478.207 93.9864 478.283 93.8021 478.369 93.6213L484.965 99.677C484.813 99.795 484.653 99.9057 484.487 100.002Z" fill="#38458E"/>
<path d="M475.18 98.7738C475.18 98.7738 475.18 98.7738 475.18 98.7738C475.18 98.7738 475.18 98.7738 475.18 98.7738ZM475.197 98.7445C475.198 98.7445 475.198 98.7445 475.198 98.7445C475.198 98.7445 475.198 98.7445 475.197 98.7445Z" fill="#9F78B9"/>
<path d="M474.505 99.6403L467.763 93.4518C467.968 93.131 468.21 92.8359 468.482 92.5778L475.198 98.7441C475.197 98.7441 475.197 98.7441 475.197 98.7441C475.191 98.7552 475.185 98.7625 475.18 98.7736C475.179 98.7736 475.179 98.7736 475.179 98.7736C474.986 99.0908 474.76 99.3821 474.505 99.6403Z" fill="#5861B5"/>
<path d="M473.123 100.592L467.097 95.0604C467.142 94.8539 467.2 94.651 467.27 94.4556L473.655 100.316C473.485 100.419 473.307 100.515 473.123 100.592Z" fill="#5861B5"/>
<path d="M475.526 96.0898H477.877V95.5292H475.526V96.0898Z" fill="#172866"/>
<path d="M467.07 95.8939C466.875 95.8275 462.244 94.2785 458.751 95.1415C458.388 95.23 458.524 95.7796 458.886 95.6874C462.224 94.8649 466.842 96.4139 466.888 96.4286C467.243 96.5466 467.422 96.0156 467.07 95.8939Z" fill="#172866"/>
<path d="M462.694 102.68C462.694 102.68 462.976 96.3325 458.04 95.0638C453.105 93.7951 453.746 99.3714 456.489 102.115C459.233 104.859 462.694 102.68 462.694 102.68" fill="#FC7575"/>
<path d="M458.042 96.9491C460.11 96.3848 460.996 99.2725 461.085 99.5565C461.379 100.497 461.238 101.367 459.499 101.696C457.759 102.024 455.973 97.5133 458.042 96.9491Z" fill="#FD5E5A"/>
<path d="M556.867 103.808L446.661 259.862C446.661 259.862 460.886 268.009 461.852 268.975C462.819 269.942 468.757 282.234 468.757 282.234C468.757 282.234 557.25 164.8 559.629 160.426C563.314 153.651 563.47 147.323 553.336 149.536C540.508 152.335 542.366 165.814 535.875 159.324C529.385 152.833 560.797 115.683 561.985 111.815C563.173 107.95 559.353 100.81 559.353 100.81L556.867 103.808" fill="url(#paint3_linear)"/>
<path d="M451.092 253.589L470.251 264.929L540.799 164.822L521.668 153.651L451.092 253.589" fill="#E3E4FF"/>
<path d="M488.971 210.38L502.647 218.965L505.755 214.554L492.02 205.932L488.971 210.38Z" fill="#381A3F"/>
<path d="M495.487 200.876L509.289 209.543L512.397 205.132L498.536 196.428L495.487 200.876" fill="#381A3F"/>
<path d="M485.714 215.13L499.328 223.679L502.435 219.268L488.763 210.682L485.714 215.13" fill="#381A3F"/>
<path d="M479.197 224.63L492.686 233.101L495.794 228.69L482.247 220.186L479.197 224.63Z" fill="#381A3F"/>
<path d="M469.423 238.884L482.724 247.237L485.832 242.826L472.472 234.44L469.423 238.884Z" fill="#381A3F"/>
<path d="M475.939 229.384L489.366 237.815L492.474 233.404L478.988 224.936L475.939 229.384" fill="#381A3F"/>
<path d="M466.166 243.638L479.404 251.947L482.512 247.54L469.215 239.191L466.166 243.638Z" fill="#381A3F"/>
<path d="M459.648 253.139L472.761 261.374L475.869 256.964L462.697 248.695L459.648 253.139" fill="#381A3F"/>
<path d="M532.321 176.86L518.084 167.92L515.035 172.368L529.213 181.271L532.321 176.86" fill="#381A3F"/>
<path d="M525.681 186.282L511.57 177.424L508.521 181.868L522.573 190.693L525.681 186.282" fill="#381A3F"/>
<path d="M535.624 172.165L521.329 163.188L518.279 167.636L532.516 176.576L535.624 172.165" fill="#381A3F"/>
<path d="M505.262 186.622L519.252 195.407L522.359 190.996L508.311 182.174L505.262 186.622Z" fill="#381A3F"/>
<path d="M498.747 196.122L512.611 204.829L515.719 200.418L501.796 191.678L498.747 196.122" fill="#381A3F"/>
<path d="M472.745 261.393L453.925 249.577L453.712 249.875L472.531 261.692L472.745 261.393Z" fill="white"/>
<path d="M476.065 256.68L457.25 244.868L457.037 245.17L475.852 256.983L476.065 256.68Z" fill="white"/>
<path d="M479.385 251.967L460.575 240.158L460.362 240.46L479.172 252.269L479.385 251.967Z" fill="white"/>
<path d="M482.707 247.257L463.902 235.448L463.688 235.75L482.494 247.559L482.707 247.257Z" fill="white"/>
<path d="M486.027 242.543L467.227 230.738L467.014 231.04L485.814 242.846L486.027 242.543" fill="white"/>
<path d="M489.347 237.831L470.552 226.029L470.339 226.332L489.134 238.133L489.347 237.831" fill="white"/>
<path d="M492.668 233.121L473.877 221.323L473.664 221.625L492.455 233.423L492.668 233.121" fill="white"/>
<path d="M495.988 228.407L477.202 216.613L476.989 216.915L495.775 228.71L495.988 228.407Z" fill="white"/>
<path d="M499.311 223.695L480.531 211.904L480.317 212.207L499.098 223.997L499.311 223.695Z" fill="white"/>
<path d="M502.63 218.985L483.854 207.194L483.641 207.496L502.417 219.287L502.63 218.985Z" fill="white"/>
<path d="M505.952 214.271L487.181 202.484L486.968 202.787L505.739 214.574L505.952 214.271Z" fill="white"/>
<path d="M509.272 209.559L490.506 197.776L490.293 198.078L509.059 209.861L509.272 209.559Z" fill="white"/>
<path d="M512.593 204.847L493.831 193.068L493.618 193.367L512.38 205.15L512.593 204.847Z" fill="white"/>
<path d="M515.913 200.135L497.157 188.359L496.943 188.662L515.7 200.438L515.913 200.135" fill="white"/>
<path d="M519.234 195.422L500.483 183.649L500.27 183.952L519.022 195.724L519.234 195.422" fill="white"/>
<path d="M522.555 190.711L503.808 178.939L503.595 179.242L522.342 191.014L522.555 190.711Z" fill="white"/>
<path d="M525.877 185.999L507.135 174.231L506.922 174.533L525.664 186.301L525.877 185.999Z" fill="white"/>
<path d="M529.196 181.286L510.458 169.521L510.245 169.823L528.982 181.588L529.196 181.286Z" fill="white"/>
<path d="M532.518 176.575L513.785 164.814L513.572 165.113L532.305 176.878L532.518 176.575" fill="white"/>
<path d="M535.836 171.862L517.109 160.105L516.896 160.407L535.623 172.164L535.836 171.862Z" fill="white"/>
<path d="M539.16 167.15L520.437 155.396L520.224 155.698L538.947 167.452L539.16 167.15" fill="white"/>
<path d="M470.251 271.424L552.151 158.615C552.63 157.955 553.552 157.808 554.212 158.287C554.871 158.767 555.018 159.689 554.538 160.349L554.52 160.371L470.251 271.424Z" fill="#FFFF00"/>
<path d="M456.742 229.547C456.742 229.547 462.128 231.011 462.542 233.899C462.957 236.786 465.025 244.048 465.025 246.327C465.025 248.606 476.177 251.586 476.88 250.886C477.583 250.181 470.251 245.704 470.251 245.704V240.268C470.251 240.268 472.744 243.547 475.938 245.704C475.938 245.704 480.254 248.157 481.393 247.017C482.533 245.877 480.288 244.118 478.286 242.735C476.283 241.356 472.278 236.244 473.521 235.001C474.764 233.759 479.046 239.077 480.703 239.63C482.36 240.179 485.916 240.699 487.193 239.423C488.471 238.144 485.536 236.661 482.774 235.968C480.012 235.278 475.938 231.136 476.559 229.064C477.181 226.991 481.739 226.578 483.119 227.961C484.5 229.34 485.467 231.343 486.572 229.064C487.677 226.785 484.708 223.126 483.81 222.849C482.912 222.573 473.452 219.397 469.862 219.674C466.271 219.951 460.816 219.397 458.399 218.844C455.982 218.291 452.185 226.165 456.742 229.547" fill="#FD5E5A"/>
<path d="M551.308 132.08C551.308 132.08 550.644 137.077 553.24 138.371C554.2 138.855 549.029 139.227 549.029 139.227L547.89 137.051C547.89 137.051 547.786 132.08 551.308 132.08" fill="#E25454"/>
<path d="M537.099 148.245C537.099 148.245 543.02 150.457 545.61 150.457C548.199 150.457 549.594 147.053 551.227 145.42C552.86 143.786 552.55 142.233 553.275 139.331C554 136.432 547.889 137.051 547.889 137.051C547.889 137.051 538.932 131.811 537.738 133.006C536.544 134.201 541.985 138.505 543.953 139.537C545.921 140.573 544.701 141.145 544.701 141.145C544.701 141.145 535.356 136.019 535.356 138.294C535.356 140.573 542.839 142.226 543.396 143.937C543.953 145.648 534.838 141.713 534.838 143.579C534.838 145.442 541.668 146.578 542.192 147.101C542.715 147.625 536.36 145.619 537.099 148.245Z" fill="#FD5E5A"/>
<path d="M459.082 163.925C459.878 162.258 461.419 159.028 462.164 157.464C460.776 157.471 457.95 157.486 456.554 157.494C454.897 153.89 452.24 146.913 446.552 132.08C448.988 140.038 452.443 150.195 455.899 158.511C457.036 158.515 459.837 158.534 460.462 158.534C460.075 159.334 458.359 162.885 457.683 164.283C458.329 164.733 477.661 178.641 490.263 186.968C487.679 184.962 459.12 163.951 459.082 163.925" fill="#FFDA88"/>
<path d="M490.617 155.013C483.284 148.555 487.91 152.627 485.494 150.506C486.612 149.805 487.538 149.226 489.247 148.161C486.146 143.444 479.649 133.807 476.618 129.473C479.628 134.39 485.172 143.078 488.331 147.958C487.428 148.511 485.363 149.776 484.336 150.407C484.375 150.443 488.731 154.327 489.91 155.352C489.949 156.031 490.899 174.858 491.739 185.31C491.695 182.865 490.716 157.565 490.617 155.013" fill="#FFDA88"/>
<path d="M455.089 132.081L456.229 125.995C456.229 125.995 456.764 135.145 462.697 136.436C467.398 137.465 469.297 136.945 469.297 136.945L471.737 142.234C471.737 142.234 470.109 143.901 465.025 144.62C459.941 145.335 455.089 132.081 455.089 132.081Z" fill="#E3E4FF"/>
<path d="M470.877 136.063L471.738 142.233C471.738 142.233 476.25 142.96 476.618 138.309C476.891 134.876 472.214 129.414 472.214 129.414C472.214 129.414 473.021 135.746 470.877 136.063" fill="#E3E4FF"/>
<path d="M454.375 131.073L487.502 177.811L451.092 134.905L454.375 131.073Z" fill="#31302C"/>
<path d="M462.696 142.99L469.297 136.945L456.229 125.995L451.406 130.236L462.696 142.99Z" fill="#FFFEE9"/>
<path d="M487.141 176.638L472.562 129.989L475.696 131.464L487.141 176.638Z" fill="#31302C"/>
<path d="M470.877 136.063L475.203 138.032L473.688 129.085H472.155L470.877 136.063Z" fill="#FFFEE9"/>
<path d="M473.85 141.614L469.254 143.233L467.905 139.405L472.501 137.786L473.85 141.614Z" fill="#ED1C24"/>
<path d="M469.252 143.233L465.135 146.209L462.829 139.663L467.903 139.405L469.252 143.233Z" fill="#FF0000"/>
<path d="M473.849 141.615L478.923 141.353L476.617 134.807L472.5 137.786L473.849 141.615" fill="#FF0000"/>
<path d="M562.213 206.301C562.136 206.301 562.058 206.275 561.992 206.227C561.829 206.102 561.796 205.873 561.919 205.711C579.041 182.956 579.452 164.626 576.781 153.256C573.887 140.935 566.854 133.891 566.783 133.82C566.638 133.677 566.636 133.444 566.779 133.297C566.922 133.153 567.156 133.153 567.301 133.293C567.373 133.367 574.539 140.533 577.49 153.046C579.221 160.393 579.189 168.119 577.393 176.015C575.152 185.866 570.144 196.008 562.508 206.153C562.436 206.249 562.325 206.301 562.213 206.301" fill="#542360"/>
<path d="M420.521 18.6413H396.129C394.551 18.6413 393.271 17.3622 393.271 15.7796C393.271 14.2017 394.551 12.9225 396.129 12.9225H420.521C422.104 12.9225 423.383 14.2017 423.383 15.7796C423.383 17.3622 422.104 18.6413 420.521 18.6413Z" fill="#381A3F"/>
<path d="M369.764 123.064C369.764 123.064 400.267 165.701 415.122 165.519C429.982 165.332 431.826 185.365 431.826 185.365C431.826 185.365 400.342 192.092 370.576 162.695C340.81 133.302 369.764 123.064 369.764 123.064Z" fill="#FD5E5A"/>
<path d="M386.502 451.638H378.683V436.816H386.502V451.638Z" fill="#653870"/>
<path d="M382.443 457.124C381.491 457.124 380.721 456.353 380.721 455.401V448.72H384.166V455.401C384.166 456.353 383.396 457.124 382.443 457.124Z" fill="#653870"/>
<path d="M418.481 21.3999L420.189 34.3175C420.189 34.3175 413.5 42.5666 414.279 48.7896C415.054 55.0126 412.412 72.9114 412.412 72.9114L404.709 67.3093V38.365L418.481 21.3999Z" fill="#381A3F"/>
<path d="M359.288 235.168L312.459 233.366L299.607 332.957L292.278 441.429C292.091 441.615 300.363 446.662 303.393 446.629L321.413 339.979L359.288 235.168" fill="#31302C"/>
<path d="M331.974 248.939L337.02 296.791L344.14 337.089L331.974 450.49L361.291 451.638C361.291 451.638 336.838 445.574 341.866 436.816C344.378 432.432 364.111 337.089 364.111 337.089L359.289 235.167L331.974 248.939" fill="#1C1C1C"/>
<path d="M333.02 114.451C315.789 118.812 310.149 125.613 310.149 125.613C310.149 125.613 318.581 162.933 313.683 177.321L308.786 240.751L359.495 239.5C359.495 239.5 386.852 150.52 370.792 124.442C368.281 120.361 361.152 115.656 353.318 113.928C345.489 112.201 336.955 113.452 333.02 114.451" fill="#D2D5FF"/>
<path d="M313.683 177.321C313.31 193.969 311.06 223.641 308.786 240.751C309.169 223.492 311.499 193.824 313.683 177.321Z" fill="#CED1F4"/>
<path d="M375.719 144.829C371.802 151.061 363.833 158.998 347.755 167.042C321.598 180.132 316.63 220.827 315.79 240.579L359.496 239.5C359.496 239.5 377.525 180.855 375.719 144.829Z" fill="#C0C4F2"/>
<path d="M450.393 439.328C449.945 439.263 450.048 438.586 450.491 438.656C461.504 440.309 470.505 437.951 477.246 431.653C494.281 415.729 491.545 379.554 491.517 379.189C491.48 378.737 492.157 378.685 492.194 379.134C492.227 379.502 494.991 416 477.713 432.148C470.243 439.128 460.659 440.874 450.393 439.328" fill="#1B2B80"/>
<path d="M292.606 220.471C276.785 211.055 272.07 196.681 272.019 196.517C271.883 196.088 272.527 195.882 272.663 196.312C272.724 196.499 278.9 215.28 300.921 223.748C301.346 223.916 301.094 224.537 300.678 224.379C297.714 223.239 295.029 221.914 292.606 220.471" fill="#1B2B80"/>
<path d="M349.741 96.986C350.222 96.6498 356.034 80.8332 356.034 80.8332C356.034 80.8332 359.895 68.9754 357.276 67.0847C354.652 65.1939 348.392 58.5414 342.986 58.6161C337.58 58.6861 333.976 60.5021 333.495 60.8383C333.019 61.1791 329.597 67.4628 329.597 67.4628C329.597 67.4628 331.198 65.3293 332.141 72.9949C333.084 80.6604 349.741 96.986 349.741 96.986Z" fill="#381A3F"/>
<path d="M336.096 96.7768C336.764 98.7469 333.02 114.451 333.02 114.451C334.411 115.553 353.355 124.983 353.486 112.108C353.621 99.237 352.197 84.1534 352.197 84.1534L336.096 96.7768Z" fill="#FC7575"/>
<path d="M352.202 84.1621L352.198 84.1528L336.096 96.7763V96.7809C336.507 97.9994 335.247 104.414 334.215 109.166C341.493 110.464 350.666 101.44 352.898 93.373V93.3543C352.627 89.0453 352.342 85.7587 352.24 84.6056C352.216 84.3582 352.202 84.2088 352.202 84.1621" fill="#FD5E5A"/>
<path d="M352.651 72.3506C354.705 77.4206 354.939 86.8228 350.298 94.1055C345.662 101.393 339.178 105.296 334.449 101.878C329.72 98.4612 328.081 75.9967 331.386 70.0818C334.692 64.1669 349.523 64.6197 352.651 72.3506Z" fill="#FC7575"/>
<path d="M352.935 93.9568C352.935 93.9568 353.887 86.5574 356.576 84.662C359.265 82.7713 360.474 81.6322 360.932 79.0179C361.384 76.3989 370.413 74.3307 368.882 70.1104C367.346 65.8855 360.231 64.1442 356.529 56.8428C352.827 49.5367 348.882 45.5639 340.521 48.575C332.155 51.5908 331.058 56.9642 331.058 56.9642C331.058 56.9642 327.342 56.4319 325.139 61.1284C322.935 65.8295 324.597 68.3971 326.082 70.5073C326.082 70.5073 325.69 64.4244 327.702 64.7745C329.718 65.1246 327.781 71.9031 327.781 71.9031C327.781 71.9031 330.764 69.2235 333.925 65.1339C337.085 61.0444 336.357 65.7221 335.475 70.792C334.592 75.8666 341.656 70.862 344.774 67.104C347.897 63.3459 352.472 66.5858 354.2 71.6931C355.922 76.7957 348.896 85.1662 352.935 93.9568" fill="#653870"/>
<path d="M351.199 80.4797C351.199 80.4797 354.089 75.1063 355.662 77.3425C357.23 79.574 356.054 86.4553 352.786 86.642C349.523 86.8287 351.199 80.4797 351.199 80.4797Z" fill="#FC7575"/>
<path d="M352.875 80.8005C352.875 80.8005 352.721 77.7567 354.327 78.709C355.933 79.6614 354.393 84.6192 352.927 84.5772C351.461 84.5305 352.875 80.8005 352.875 80.8005Z" fill="#FD5E5A"/>
<path d="M336.064 79.9978C335.518 81.4123 335.154 82.8876 334.934 84.3861C334.51 87.6354 335.028 88.9985 335.046 89.2039C335.406 89.1199 336.363 88.9378 337.628 88.5457C336.811 88.5504 335.999 88.6017 335.191 88.6764L335.467 88.8771C335.289 85.9547 335.803 82.9996 336.064 79.9978" fill="#172866"/>
<path d="M340.077 80.6328C339.918 81.5571 340.311 82.3928 340.96 82.5048C341.604 82.6168 342.257 81.9633 342.421 81.0436C342.58 80.1193 342.187 79.2836 341.538 79.1715C340.894 79.0595 340.241 79.7131 340.077 80.6328Z" fill="#2846A6"/>
<path d="M331.193 79.643C331.03 80.5627 331.426 81.403 332.071 81.515C332.72 81.6271 333.373 80.9734 333.532 80.0538C333.691 79.1294 333.299 78.2938 332.65 78.1817C332.005 78.0697 331.352 78.7233 331.193 79.643" fill="#2846A6"/>
<path d="M345.311 76.9677C345.311 76.9677 343.084 75.2591 340.829 75.7679C338.574 76.2815 339.989 77.822 340.516 77.7006C341.044 77.5792 345.208 76.5055 345.311 76.9677Z" fill="#172866"/>
<path d="M329.649 75.6666C329.649 75.6666 332.189 74.4529 334.285 75.4192C336.381 76.3903 334.682 77.5993 334.192 77.3706C333.702 77.1465 329.85 75.2324 329.649 75.6666Z" fill="#172866"/>
<path d="M337 92.32L337.571 96C337.571 96 343.171 95.04 345 92L337 92.32Z" fill="white"/>
<path d="M395.464 446.628C381.659 446.628 367.299 445.321 358.723 443.117C342.384 438.916 311.105 423.977 301.768 396.433C292.432 368.889 314.373 327.065 314.373 327.065C314.373 327.065 314.373 327.065 323.183 327.065C338.066 327.065 342.384 289.993 338.182 279.722C334.331 270.306 324.985 269.914 323.453 269.914C323.318 269.914 323.243 269.918 323.243 269.918C323.243 269.918 320.442 209.229 353.588 193.356C386.734 177.483 383.466 162.078 383.466 162.078L394.203 164.519C394.203 184.239 422.214 192.422 439.954 218.099C457.694 243.775 442.288 279.722 442.288 279.722C442.288 279.722 441.901 279.241 440.43 279.241C438.661 279.241 435.328 279.932 429.217 282.99C418.012 288.592 422.214 324.539 429.217 335.743C432.326 340.725 435.902 342.106 438.913 342.106C442.671 342.106 445.556 339.945 445.556 339.945C445.556 339.945 456.76 373.558 456.76 395.032C456.76 416.507 441.355 437.982 426.883 443.117C420.006 445.559 407.961 446.628 395.464 446.628ZM433.806 355.337C447.195 386.643 438.133 404.612 438.11 405.014C432.158 422.021 407.224 433.981 390.049 439.312C388.877 439.677 389.148 441.404 390.361 441.404C390.371 441.404 390.38 441.404 390.389 441.404C390.45 441.399 396.272 441.413 405.73 439.102C408.853 438.402 415.137 436.409 420.477 434.018C422.709 433.033 425.426 431.549 427.545 430.321C437.419 424.261 442.582 418.389 446.56 410.905C446.583 410.858 447.26 409.486 447.302 409.402C447.307 409.397 447.307 409.397 447.307 409.397C447.307 409.397 447.307 409.397 447.302 409.402C455.187 392.185 451.275 370.346 441.565 353.913C440.323 351.887 439.156 350.3 439.151 350.3H439.156C438.488 349.37 437.419 348.838 436.303 348.838C435.818 348.838 435.328 348.936 434.856 349.151C433.11 349.945 433.838 355.337 433.81 355.337H433.806V355.337ZM407.546 201.311C418.96 206.96 431.537 217.926 435.08 230.498C435.893 232.874 437.232 240.185 437.288 245.61C437.246 254.9 436.691 261.744 434.179 270.857C433.848 272.005 434.548 273.2 435.715 273.48C435.879 273.518 436.042 273.536 436.201 273.536C437.153 273.536 438.017 272.883 438.245 271.916C441.051 260.091 441.439 244.326 437.484 231.124C433.437 217.735 420.263 206.829 407.546 201.311" fill="url(#paint4_linear)"/>
<path d="M314.376 327.066C306.421 339.904 298.139 361.851 298.144 380.034C298.2 388.124 299.469 394.679 303.213 401.882C304.955 405.202 307.046 408.32 309.465 411.131C304.581 403.035 302.518 396.952 301.439 390.879C298.372 371.22 306.785 345.618 314.376 327.066" fill="#F9CC5D"/>
<path d="M358.513 189.818C354.41 191.872 354.111 191.905 352.103 192.89C327.856 204.584 320.694 243.781 323.243 269.919C324.13 243.818 330.246 207.432 353.102 194.823C354.769 193.903 359.774 191.518 365.45 187.582C369.363 184.832 373.093 181.756 376.15 178.1C370.997 182.839 364.727 186.704 358.513 189.818" fill="#F9CC5D"/>
<path d="M436.203 273.538C436.044 273.538 435.881 273.519 435.717 273.482C434.55 273.202 433.85 272.006 434.181 270.858C436.693 261.745 437.248 254.901 437.29 245.611C437.234 240.186 435.895 232.876 435.082 230.499C431.539 217.927 418.962 206.961 407.548 201.312C420.265 206.83 433.439 217.736 437.487 231.125C441.441 244.327 441.053 260.093 438.247 271.918C438.019 272.884 437.155 273.538 436.203 273.538" fill="url(#paint5_linear)"/>
<path d="M390.362 441.405C389.148 441.405 388.878 439.678 390.049 439.314C407.224 433.982 432.159 422.022 438.111 405.015C438.134 404.613 447.196 386.644 433.807 355.338H433.811C433.839 355.338 433.111 349.946 434.857 349.152C435.328 348.938 435.819 348.839 436.304 348.839C437.42 348.839 438.489 349.372 439.157 350.301H439.152C439.157 350.301 440.324 351.888 441.565 353.914C451.276 370.347 455.188 392.186 447.303 409.403C447.261 409.487 446.584 410.86 446.561 410.906C442.583 418.39 437.42 424.263 427.546 430.322C425.427 431.55 422.71 433.035 420.478 434.02C415.137 436.41 408.854 438.403 405.731 439.104C396.272 441.414 390.451 441.401 390.39 441.405C390.381 441.405 390.371 441.405 390.362 441.405V441.405ZM447.303 409.403C447.308 409.398 447.308 409.398 447.308 409.398C447.308 409.398 447.308 409.398 447.303 409.403Z" fill="url(#paint6_linear)"/>
<path d="M394.204 164.52C394.204 184.24 422.214 192.423 439.954 218.1C455.206 240.177 445.178 271.838 442.289 279.723C448.274 280.069 452.9 283.939 452.9 283.939C452.9 283.939 467.811 238.986 450.071 213.31C432.331 187.634 402.126 185.766 402.126 166.051L391.389 163.605C391.389 163.605 391.412 163.703 391.431 163.89L394.204 164.52" fill="#381A3F"/>
<path d="M464.852 326.875L445.557 339.947C445.557 339.947 456.761 373.559 456.761 395.034C456.761 415.347 442.975 435.664 429.231 442.143C431.888 441.406 434.208 440.589 436.061 439.697C456.761 429.735 474.599 407.233 474.599 385.758C474.599 364.283 464.852 326.875 464.852 326.875" fill="#381A3F"/>
<path d="M440.11 327.649C433.108 316.445 425.937 285.372 437.141 279.769H437.146C435.246 280.288 432.678 281.259 429.219 282.991C418.015 288.593 422.216 324.54 429.219 335.744C436.222 346.948 445.558 339.946 445.558 339.946L464.853 326.874C456.763 333.293 444.83 335.207 440.11 327.649Z" fill="#381A3F"/>
<path d="M405.716 21.3994C405.716 21.3994 397.625 31.516 395.291 39.4523C392.957 47.3887 390.936 65.5956 390.936 65.5956L407.583 66.2164C407.583 66.2164 407.817 35.3301 413.185 29.9614C418.554 24.5927 418.479 21.3994 418.479 21.3994H405.716" fill="#B85137"/>
<path d="M412.41 72.9114L407.583 66.2168L390.936 65.596L399.96 72.9114H412.41Z" fill="#381A3F"/>
<path d="M420.188 34.318L419.362 13.959L417.546 14.5052L418.48 21.4004L420.188 34.318" fill="#381A3F"/>
<path d="M394.598 65.727C394.598 64.8727 397.123 44.9011 397.123 44.9011L404.009 29.7287L408.916 29.0284L404.71 45.0178L403.542 66.0538L394.598 65.727Z" fill="#381A3F"/>
<path d="M398.048 49.6855H403.543V51.086H398.048V49.6855Z" fill="#653870"/>
<path d="M410.312 50.386H415.914C415.914 50.386 417.898 46.5345 420.932 46.5345C423.967 46.5345 424.434 50.0359 424.434 52.7202C424.434 55.4046 419.004 56.511 417.548 55.0544C416.086 53.5932 415.797 51.9032 415.797 51.9032L410.312 51.7865V50.386Z" fill="#381A3F"/>
<path d="M390.937 65.5956L361.292 286.025L383.7 287.892L403.541 66.0531L390.937 65.5956" fill="#B85137"/>
<path d="M404.709 66.1091V69.2509L386.969 287.892H383.701L403.542 66.0531L404.709 66.1091" fill="#381A3F"/>
<path d="M352.656 326.873L388.93 328.041V333.643L366.895 339.712L353.59 333.293L352.656 326.873Z" fill="#DDD9C3"/>
<path d="M388.928 333.643C380.553 336.552 366.893 340.174 366.846 340.188C363.816 338.667 358.009 335.8 353.588 333.293C357.425 334.838 363.219 337.49 367.084 339.306L366.772 339.278C372.868 337.583 381.818 335.109 388.928 333.643Z" fill="#6F6D62"/>
<path d="M359.19 372.625C359.19 372.625 364.615 397.368 366.921 404.604C369.228 411.84 368.149 441.671 367.724 444.715C366.921 450.471 378.107 451.638 378.107 445.714C378.107 444.285 374.363 411.606 376.464 403.437C378.564 395.267 380.721 374.026 380.721 374.026C380.721 374.026 365.726 375.426 359.19 372.625" fill="#B85137"/>
<path d="M376.554 409.748L376.815 405.317C377.203 403.105 379.542 393.889 380.723 374.025C379.275 383.562 377.436 396.601 375.905 402.857C373.426 412.334 377.646 441.68 378.108 445.713C377.637 434.714 376.344 419.827 376.554 409.748" fill="#381A3F"/>
<path d="M362.925 381.727C362.809 381.727 362.711 381.643 362.692 381.522L356.151 332.055L356.156 332.023L394.437 65.5624L400.394 44.3677C400.427 44.2464 400.558 44.1717 400.684 44.2091C400.805 44.2418 400.88 44.3725 400.842 44.4939L394.895 65.6605L356.623 332.06L363.154 381.461C363.173 381.592 363.084 381.709 362.953 381.723L362.925 381.727" fill="#FFFF00"/>
<path d="M366.921 381.939C366.8 381.939 366.702 381.85 366.688 381.729L361.053 326.87L361.057 326.842L397.817 65.5637L401.453 44.3923C401.477 44.2663 401.598 44.1822 401.724 44.2056C401.85 44.2243 401.934 44.3457 401.916 44.4717L398.279 65.6384L361.524 326.879L367.15 381.682C367.164 381.808 367.07 381.925 366.944 381.934L366.921 381.939" fill="#FFFF00"/>
<path d="M372.572 381.727C372.451 381.727 372.348 381.629 372.339 381.503L370.014 331.556L402.711 44.4051C402.725 44.2791 402.842 44.1857 402.968 44.1997C403.099 44.2137 403.188 44.3304 403.174 44.4565L370.476 331.575L372.805 381.485C372.815 381.611 372.712 381.723 372.586 381.727H372.572Z" fill="#FFFF00"/>
<path d="M376.697 380.795C376.567 380.795 376.464 380.692 376.464 380.561V330.842L403.62 44.4107C403.629 44.2846 403.742 44.1913 403.872 44.2006C404.003 44.2146 404.096 44.3267 404.082 44.4574L376.931 330.866V380.561C376.931 380.692 376.823 380.795 376.697 380.795Z" fill="#FFFF00"/>
<path d="M350.401 221.317C350.401 221.317 361.227 217.829 362.824 217.829C364.421 217.829 371.325 220.416 370.102 221.643C368.874 222.867 363.487 221.681 363.487 221.681L359.542 224.51L350.401 221.317" fill="#FD5E5A"/>
<path d="M310.149 125.613C310.149 125.613 319.369 140.342 319.369 150.421C319.369 160.501 307.581 190.014 310.149 198.17C312.717 206.331 345.788 218.819 345.788 218.819C345.788 218.819 352.79 219.972 355.806 219.972C358.822 219.972 374.709 228.594 374.671 230.27C374.634 231.946 365.092 227.32 365.092 227.32C365.092 227.32 362.683 227.082 363.766 228.146C364.854 229.215 376.721 234.906 376.697 236.209C376.674 237.511 360.993 228.86 361.959 230.873C362.921 232.885 372.692 239.285 372.692 241.89C372.692 244.495 361.534 233.655 360.391 234.78C359.242 235.905 366.17 241.082 366.17 243.085C366.17 245.088 349.714 235.196 346.637 232.175C343.561 229.155 340.723 224.832 333.244 224.117C325.765 223.408 301.755 218.198 294.398 204.809C287.04 191.424 289.225 137.28 310.149 125.613" fill="#FC7575"/>
<path d="M393.915 126.337C393.915 126.337 381.376 127.322 382.291 128.709C383.206 130.095 391.394 129.012 392.16 129.778C392.926 130.543 384.224 132.579 383.654 133.148C383.085 133.718 379.345 137.009 380.76 138.428C382.174 139.843 385.199 134.465 385.199 134.465C385.199 134.465 390.554 133.643 390.554 134.465C390.554 135.291 379.761 139.493 381.297 140.566C382.828 141.645 391.068 137.355 391.068 137.966C391.068 138.578 383.78 141.099 384.28 142.709C384.775 144.324 390.998 140.207 392.585 141.794C394.172 143.377 400.194 150.744 404.48 149.983C408.766 149.217 412.57 174.688 417.37 179.487C422.169 184.286 431.328 187.008 433.854 184.482C436.379 181.957 433.177 162.149 420.623 147.457C408.075 132.766 393.915 126.337 393.915 126.337Z" fill="#FC7575"/>
<path d="M303.393 446.629L301.848 454.033L299.453 453.935L288.543 451.638L274.258 436.816C286.858 444.892 292.278 441.429 292.278 441.429L303.393 446.629Z" fill="#653870"/>
<path d="M274.258 436.816C274.258 436.816 279.949 448.968 282.161 451.181C284.379 453.394 289.01 454.033 289.01 454.033L299.453 453.935C299.453 453.935 282.787 438.338 274.258 436.816Z" fill="#DDD9C3"/>
<path d="M414.582 24.5372L414.419 24.7053C412.724 26.4886 408.789 27.539 406.529 26.3159C405.824 25.9658 405.166 25.4849 404.321 25.3915C403.387 25.2655 402.724 25.6764 401.996 25.7697C400.595 26.0031 399.47 24.5792 398.826 23.3141C399.027 24.047 399.344 24.7707 399.863 25.3776C401.053 26.8434 402.519 26.3439 403.219 26.2179C405.647 25.709 405.95 28.6641 410.852 27.5156C412.332 27.1375 413.737 26.4326 414.783 25.2515C416.137 25.5316 417.985 25.5596 418.891 24.4999C418.597 24.7333 415.941 24.9667 414.582 24.5372" fill="#381A3F"/>
<path d="M420.436 13.6832C420.104 10.1025 417.546 1.86676e-07 412.154 1.86676e-07C410.623 1.86676e-07 410.511 1.47519 410.081 2.22681C410.081 0.672218 408.975 1.86676e-07 408.162 1.86676e-07C406.986 1.86676e-07 406.019 1.05034 405.912 2.39485C405.562 1.4705 404.768 0.826277 403.849 0.826277C399.572 0.826277 396.398 17.007 398.825 23.3141C399.344 24.6633 400.352 26.0825 401.795 26.1012C402.462 26.1059 403.097 25.8024 403.76 25.765C404.997 25.6903 405.749 26.5307 406.804 26.9462C407.751 27.3243 408.923 27.3803 409.918 27.2356C413.186 26.7687 414.665 24.9014 414.665 24.9014C414.665 24.9014 417.583 25.807 418.89 24.4999C421.197 22.189 420.716 16.657 420.436 13.6832" fill="#CE563E"/>
<path d="M403.848 7.24621C401.322 11.3824 400.127 18.9639 403.759 25.7659C403.372 24.2113 402.951 22.7034 402.746 21.1488C402.05 16.8866 402.401 11.8353 403.848 7.24621Z" fill="#D87865"/>
<path d="M412.593 11.4561C411.739 9.10786 411.319 8.42631 410.856 7.2452C411.109 9.70546 414.386 19.215 414.666 24.9012C415.123 22.7257 414.839 17.4737 412.593 11.4561Z" fill="#D87865"/>
<path d="M421.943 18.6413H417.196C416.402 18.6413 415.758 17.9971 415.758 17.2035V14.3604C415.758 13.5668 416.402 12.9225 417.196 12.9225H421.943C422.737 12.9225 423.381 13.5668 423.381 14.3604V17.2035C423.381 17.9971 422.737 18.6413 421.943 18.6413Z" fill="#381A3F"/>
<path d="M364.11 381.476C364.11 382.152 363.559 382.703 362.882 382.703C362.205 382.703 361.659 382.152 361.659 381.476C361.659 380.799 362.205 380.252 362.882 380.252C363.559 380.252 364.11 380.799 364.11 381.476Z" fill="#381A3F"/>
<path d="M368.08 381.476C368.08 382.152 367.529 382.703 366.852 382.703C366.175 382.703 365.629 382.152 365.629 381.476C365.629 380.799 366.175 380.252 366.852 380.252C367.529 380.252 368.08 380.799 368.08 381.476Z" fill="#381A3F"/>
<path d="M373.8 381.476C373.8 382.152 373.249 382.703 372.572 382.703C371.895 382.703 371.349 382.152 371.349 381.476C371.349 380.799 371.895 380.252 372.572 380.252C373.249 380.252 373.8 380.799 373.8 381.476Z" fill="#381A3F"/>
<path d="M378.109 381.476C378.109 382.152 377.558 382.703 376.886 382.703C376.209 382.703 375.658 382.152 375.658 381.476C375.658 380.799 376.209 380.252 376.886 380.252C377.558 380.252 378.109 380.799 378.109 381.476Z" fill="#381A3F"/>
<path d="M296 145.698C299.156 136.636 303.786 129.161 310.148 125.613C310.148 125.613 319.368 140.342 319.368 150.421C319.368 153.486 318.278 158.349 316.833 163.861L296 146.5V145.698Z" fill="#C0C4F2"/>
<defs>
<linearGradient id="paint0_linear" x1="336.423" y1="375.958" x2="325.326" y2="495.419" gradientUnits="userSpaceOnUse">
<stop stop-color="#0E0801"/>
<stop offset="1" stop-color="#0E0801" stop-opacity="0"/>
</linearGradient>
<linearGradient id="paint1_linear" x1="64.2853" y1="144.332" x2="115.753" y2="142.447" gradientUnits="userSpaceOnUse">
<stop stop-color="#F5AB39"/>
<stop offset="1" stop-color="#FFFB4D"/>
</linearGradient>
<linearGradient id="paint2_linear" x1="26.8134" y1="123.705" x2="148.772" y2="119.238" gradientUnits="userSpaceOnUse">
<stop stop-color="#F5AB39"/>
<stop offset="1" stop-color="#FFFB4D"/>
</linearGradient>
<linearGradient id="paint3_linear" x1="446.661" y1="191.524" x2="562.214" y2="191.524" gradientUnits="userSpaceOnUse">
<stop stop-color="#F57939"/>
<stop offset="1" stop-color="#FFFB4D"/>
</linearGradient>
<linearGradient id="paint4_linear" x1="324.606" y1="136.49" x2="443.646" y2="564.331" gradientUnits="userSpaceOnUse">
<stop stop-color="#F57939"/>
<stop offset="1" stop-color="#FFFB4D"/>
</linearGradient>
<linearGradient id="paint5_linear" x1="324.608" y1="136.491" x2="443.648" y2="564.332" gradientUnits="userSpaceOnUse">
<stop stop-color="#F9B320"/>
<stop offset="1" stop-color="#FFFD2C"/>
</linearGradient>
<linearGradient id="paint6_linear" x1="324.607" y1="136.491" x2="443.647" y2="564.332" gradientUnits="userSpaceOnUse">
<stop stop-color="#F9B320"/>
<stop offset="1" stop-color="#FFFD2C"/>
</linearGradient>
</defs>
</svg>
