<svg xmlns="http://www.w3.org/2000/svg" xmlns:xlink="http://www.w3.org/1999/xlink" viewBox="0 0 520.14 477.86"><defs><style>.cls-1,.cls-2,.cls-4,.cls-8{fill:none;}.cls-2,.cls-4{stroke:#8ee4fd;}.cls-2,.cls-8{stroke-linecap:round;stroke-linejoin:round;}.cls-2{stroke-width:2.48px;stroke-dasharray:8.69;}.cls-3{fill:#8ee4fd;}.cls-4{stroke-miterlimit:10;stroke-width:1.24px;}.cls-5{fill:#fff;}.cls-6{clip-path:url(#clip-path);}.cls-7{fill:#436a91;}.cls-8{stroke:#0b334c;stroke-width:0.93px;}.cls-9{fill:#cc6f49;}.cls-10{fill:#0b334c;}.cls-11{fill:#fcb13a;}.cls-12{fill:#fdc56d;}.cls-13{fill:#00a2dd;}.cls-14{fill:#ed8d5d;}.cls-15{fill:#1f5b99;}.cls-16{fill:#e6794e;}.cls-17{fill:#ffa58a;}.cls-18{fill:#f64652;}.cls-19{fill:#3adfe0;}.cls-20{fill:#2cd0d1;}</style><clipPath id="clip-path" transform="translate(-1.52)"><rect class="cls-1" y="27.55" width="503.8" height="337.52"/></clipPath></defs><g id="Layer_2" data-name="Layer 2"><g id="OBJECTS"><path class="cls-2" d="M33.23,372.29c-13.35-15.71-5.56-40.32,7-56.65s29.67-30.21,35.84-49.88c7.27-23.21-2.63-48.13-14.19-69.53s-25.37-43-26.42-67.27C34.18,99.09,52.53,72,73,50.18,99.55,22,135.37-2.7,173.79,1.76c27.54,3.2,51.15,20.89,71.25,40s38.56,40.56,62.51,54.53c17.28,10.09,36.93,15.89,56.86,17.74,25.58,2.37,51.6-1.64,77,2.46s51.74,19.49,57.14,44.61c8,37.26-32.72,69.08-33.51,107.19-.37,17.41,7.71,33.69,13.33,50.17s8.52,35.88-1.14,50.36" transform="translate(-1.52)"/><circle class="cls-3" cx="457.34" cy="89.11" r="9.93" transform="translate(263.59 513.55) rotate(-76.66)"/><path class="cls-3" d="M35.44,69.67a7.86,7.86,0,1,1-7.86-7.86A7.86,7.86,0,0,1,35.44,69.67Z" transform="translate(-1.52)"/><path class="cls-3" d="M14.76,214a6.62,6.62,0,1,1-6.62-6.62A6.62,6.62,0,0,1,14.76,214Z" transform="translate(-1.52)"/><circle class="cls-4" cx="462.02" cy="76.29" r="11.17"/><circle class="cls-4" cx="28.95" cy="60.16" r="7.45"/><circle class="cls-4" cx="510.29" cy="220.65" r="10.75" transform="translate(177.26 666.95) rotate(-76.78)"/><path class="cls-3" d="M67.7,145.88a21.2,21.2,0,1,1,21.2-21.19A21.22,21.22,0,0,1,67.7,145.88Zm0-40.7a19.51,19.51,0,1,0,19.5,19.51A19.53,19.53,0,0,0,67.7,105.18Z" transform="translate(-1.52)"/><path class="cls-3" d="M60.89,144.61c-10-17.27-.45-39,0-39.91l1.55.69c-.1.22-9.6,21.86,0,38.37Z" transform="translate(-1.52)"/><path class="cls-3" d="M74.64,144.61l-1.47-.85c9.56-16.51.06-38.15,0-38.37l1.55-.69C75.09,105.61,84.63,127.34,74.64,144.61Z" transform="translate(-1.52)"/><rect class="cls-3" x="46.82" y="117.62" width="38.72" height="1.7"/><rect class="cls-3" x="46.82" y="131.05" width="38.72" height="1.7"/><rect class="cls-3" x="65.33" y="104.34" width="1.7" height="40.7"/><rect class="cls-3" x="461.36" y="136.3" width="45.91" height="45.91" rx="4.55"/><path class="cls-5" d="M489.67,166c1-.95,1.83-1.84,2.74-2.67a1.76,1.76,0,0,1,2.81,0c1.19,1.14,2.34,2.31,3.48,3.5a1.75,1.75,0,0,1,.05,2.63,30.78,30.78,0,0,1-2.35,2.36,4.36,4.36,0,0,1-4.35.58c-9.29-3-15.87-9-19.25-18.2a6.53,6.53,0,0,1,3.32-8.27,1.75,1.75,0,0,1,2.16.33c1.24,1.2,2.46,2.42,3.64,3.69a1.82,1.82,0,0,1-.08,2.65c-.73.79-1.49,1.54-2.27,2.27a.93.93,0,0,0-.18,1.38A29.43,29.43,0,0,0,489.67,166Z" transform="translate(-1.52)"/><rect class="cls-3" x="274.25" y="13.44" width="56.25" height="36.4" rx="1.98"/><path class="cls-5" d="M303.87,38.23a.45.45,0,0,1-.29-.1L276.46,16a.47.47,0,0,1,.59-.72l26.82,21.93,27-22.4a.47.47,0,0,1,.6.72L304.17,38.13A.47.47,0,0,1,303.87,38.23Z" transform="translate(-1.52)"/><path class="cls-5" d="M276.6,48.63a.48.48,0,0,1-.31-.13.45.45,0,0,1,0-.65l17.06-18.62a.47.47,0,0,1,.69.63L276.94,48.47A.46.46,0,0,1,276.6,48.63Z" transform="translate(-1.52)"/><path class="cls-5" d="M331,48.63a.47.47,0,0,1-.34-.16L313.64,29.86a.47.47,0,1,1,.69-.63l17.06,18.62a.46.46,0,0,1,0,.65A.48.48,0,0,1,331,48.63Z" transform="translate(-1.52)"/><g class="cls-6"><path class="cls-7" d="M329.5,293.77s-16.93,35.66-16.1,74.54H467.27s-1.66-44.67-20.68-76.1Z" transform="translate(-1.52)"/><line class="cls-8" x1="369.37" y1="305.24" x2="448.58" y2="305.24"/><line class="cls-8" x1="435.14" y1="294.07" x2="435.14" y2="305.24"/><line class="cls-8" x1="416.53" y1="294.07" x2="416.53" y2="305.24"/><line class="cls-8" x1="397.91" y1="294.07" x2="397.91" y2="305.24"/><line class="cls-8" x1="379.3" y1="294.07" x2="379.3" y2="305.24"/><path class="cls-8" d="M442.66,305.65s13.85,41.36,12,63.08" transform="translate(-1.52)"/><path class="cls-9" d="M399.74,145.34V124.75H370v20.59a8.24,8.24,0,0,1-8.24,8.24c26.2,38.85,46.5,0,46.5,0H408A8.24,8.24,0,0,1,399.74,145.34Z" transform="translate(-1.52)"/><path class="cls-10" d="M399.75,127.87v5.85a49.25,49.25,0,0,1-7.69,4.57,16.08,16.08,0,0,1-14,0,46.76,46.76,0,0,1-8.09-4.87V127.6a48.26,48.26,0,0,0,8.09,4.89,16.18,16.18,0,0,0,14,0A48.06,48.06,0,0,0,399.75,127.87Z" transform="translate(-1.52)"/><path class="cls-11" d="M436.45,165.84c-3.31-13.23-24.4-12.82-28.74-13.23a2.91,2.91,0,0,1-2.15-1.5c0-3.86-.1-11.62-1.79-11.62-2.25,0-16.5,4.5-16.5,4.5l-1.5,5.75-1-5.25s-15.25-6.25-17.25-5.75c-1.55.39-1.45,9.18-1.32,13.12a10.49,10.49,0,0,1-4.43,1.72c-12-.05-19.83.68-26.86,8.75s-17.14,150.41-17.14,150.41c2.65,3.13,25.72,4.27,57,3.75,2.16,0,8.83-19,11-19,2.5-.05,11.76,17.81,14.25,17.75,32.34-.77,57.75-2,57.75-2S439.76,179.08,436.45,165.84Z" transform="translate(-1.52)"/><line class="cls-8" x1="384" y1="156.49" x2="384" y2="295.99"/><path class="cls-9" d="M381.34,243.42c-4,.3-7.92.57-11.82.83-1.16-1.36-2.48-2.85-3.77-4.13-3.46-3.45-5.12-6-5.77-8.07s-5.17,1.85-2.71,6.47a29.8,29.8,0,0,1,2.88,6.56s-10.35-2.9-11.6,2.63a2.41,2.41,0,0,0,1.5,2.23s-3.09,1.28-2.91,3,2.29,3.15,2.29,3.15-2.62,1.12-2.52,2.9,2.52,2.92,2.52,2.92-1.07,1.18-.44,2.25a4.88,4.88,0,0,0,4.68,2c2.24-.26,5.89.08,6.57-2,0,0,8.48.66,11.79-.57,3.1.28,6.21.53,9.31.76Z" transform="translate(-1.52)"/><path class="cls-11" d="M404.49,156.79a14.57,14.57,0,0,1,9-3.59c5.43-.28,14.7,0,19.95,4.16,6.1,4.88,43.36,44.31,62.23,69.58a23.11,23.11,0,0,1-11.79,36,51,51,0,0,1-9.18,1.79c-26.36,2.79-97.72,2.17-97.72,2.17s-2.17-24.2-.62-24.51,63.29-7.75,63.29-7.75l-36-43.88a26.69,26.69,0,0,1-5.6-22.81A21,21,0,0,1,404.49,156.79Z" transform="translate(-1.52)"/><polyline class="cls-8" points="407.84 196.66 438.03 234.5 452.51 235.13"/><polyline class="cls-8" points="374.75 242.16 438.03 234.5 448.58 229.75"/><path class="cls-8" d="M376.68,264.08V267s66.6-.42,70.53-.83" transform="translate(-1.52)"/><path class="cls-9" d="M317.4,444.82v-.3c-.2-6.44-.35-13-.44-19.59-7.39.19-14.77.27-22.11-.05q1.62,10.58,3.64,21.16c-1.75,5.77-5.32,18.3-3.83,18.93,2,.82,6.55-7.68,6.55-7.68s-5.29,15.51-2.42,16.13S305.35,461,305.35,461s-.32,17,2.23,16.12,3.18-14.23,3.18-14.23,2.46,15.87,4.71,14.95.53-20.69.53-20.69,7.37,4.92,9,2.77c1.27-1.66-4.79-10.73-7.62-14.78C317.39,445,317.4,444.92,317.4,444.82Z" transform="translate(-1.52)"/><path class="cls-11" d="M360.14,154.47s-19-4.14-28.13,8.27-47.34,98.61-49,147,10.11,126.82,10.52,128.06,24,3.31,27.3,0-6.2-128.22,22.75-184.89S380.41,163.15,360.14,154.47Z" transform="translate(-1.52)"/><path class="cls-8" d="M347.94,193.56c0,.62-11.79,75.48-11.79,75.48" transform="translate(-1.52)"/><path class="cls-9" d="M420.26,87.24a8.1,8.1,0,0,0-6.21,0c0-.7.07-1.4.09-2.09a29.14,29.14,0,1,0-58.23,0c0,.68.06,1.36.09,2a8.15,8.15,0,0,0-10.67,10.6c1.69,4.11,8.13,8.94,12.3,7.41a44.5,44.5,0,0,0,2.77,11c3.7,8.22,11.8,13.39,17.71,16.22a16.15,16.15,0,0,0,14,0c5.9-2.84,13.95-8,17.64-16.25a45.23,45.23,0,0,0,2.74-10.93c4.17,1.49,10.59-3.32,12.26-7.42A8.14,8.14,0,0,0,420.26,87.24Z" transform="translate(-1.52)"/><path class="cls-10" d="M385.24,93.75a8.39,8.39,0,0,1,.69,4,24.86,24.86,0,0,1-.57,3.87,16.52,16.52,0,0,0-.57,3.31c0,.9.76,1.93,1.55,3.08a5.81,5.81,0,0,1-2-.75,3.81,3.81,0,0,1-1.52-1.83,5.62,5.62,0,0,1-.28-2.32,15.56,15.56,0,0,1,.3-2,30,30,0,0,1,1.1-3.7C384.41,96.23,384.8,95.07,385.24,93.75Z" transform="translate(-1.52)"/><path class="cls-10" d="M377.46,87.44c-.7,0-1.49-.09-2.21-.1a11.51,11.51,0,0,0-2.13.12,6.09,6.09,0,0,0-2,.69,7.42,7.42,0,0,0-1.76,1.37l-.06,0a.53.53,0,0,1-.86-.59A6.19,6.19,0,0,1,370,86.64a6.48,6.48,0,0,1,2.52-1.44,7.83,7.83,0,0,1,2.83-.34,6.8,6.8,0,0,1,2.71.72,1,1,0,0,1-.48,1.87Z" transform="translate(-1.52)"/><path class="cls-10" d="M392,85.58a6.84,6.84,0,0,1,2.72-.72,7.83,7.83,0,0,1,2.83.34A6.55,6.55,0,0,1,400,86.64,6.3,6.3,0,0,1,401.58,89a.53.53,0,0,1-.29.69.52.52,0,0,1-.57-.1l-.06,0a7.63,7.63,0,0,0-1.76-1.37,6.09,6.09,0,0,0-2-.69,11.62,11.62,0,0,0-2.14-.12c-.71,0-1.5.08-2.2.1h-.14a1,1,0,0,1-.49-1.87Z" transform="translate(-1.52)"/><path class="cls-10" d="M398.13,97.54c0,2.32-1.17,4.2-2.61,4.2s-2.61-1.88-2.61-4.2,1.17-4.2,2.61-4.2S398.13,95.22,398.13,97.54Z" transform="translate(-1.52)"/><path class="cls-10" d="M377.14,97.54c0,2.32-1.17,4.2-2.61,4.2s-2.61-1.88-2.61-4.2,1.16-4.2,2.61-4.2S377.14,95.22,377.14,97.54Z" transform="translate(-1.52)"/><path class="cls-10" d="M390.66,113.39a14,14,0,0,1,1.88-.91c.63-.26,1.23-.5,1.89-.82a3.13,3.13,0,0,1-1.65,1.39A4.26,4.26,0,0,1,390.66,113.39Z" transform="translate(-1.52)"/><path class="cls-10" d="M384.4,111.09a21.79,21.79,0,0,0,3.3.15,9.53,9.53,0,0,0,3-.57,6,6,0,0,0,2.48-1.71,8.71,8.71,0,0,0,1-1.26c.31-.46.52-1,.84-1.45a9.16,9.16,0,0,1-.29,1.7,6.66,6.66,0,0,1-.75,1.6,6.17,6.17,0,0,1-1.2,1.36c-.25.18-.51.34-.77.51a6.34,6.34,0,0,1-.83.4,7.49,7.49,0,0,1-3.53.38A8,8,0,0,1,384.4,111.09Z" transform="translate(-1.52)"/><path class="cls-10" d="M388.46,118.56a3.93,3.93,0,0,0-4.28-1,5.35,5.35,0,0,0-2.82,2.64c-1.35,2.55,1.13,7.18,2.65,9.61a1.42,1.42,0,0,0,2.35.08,19,19,0,0,0,3.23-7,4.65,4.65,0,0,0-1.09-4.27Z" transform="translate(-1.52)"/><path class="cls-10" d="M414.4,64.37a8.36,8.36,0,0,0-7.69-8h0c-4.07-.34-8.14.37-12.21.63s-13.22-10-16.35-11.29a12.26,12.26,0,0,0-10.38.91c-4.66,2.49-9.31,7.91-8.17,13.45l-.24,0a8,8,0,0,0-8.75,8.13c0,1.78.13,3.55.28,5.32a119.44,119.44,0,0,0,1.35,12c.32,1.61,6.15,6.52,7.2,7.85a1.6,1.6,0,0,0,2.75-.22c.93-1.82.76-4.48,1.19-6.89.52-2.88,2.85-10.68,6.36-12.54,2.61-1.37,5.67,1.13,8.16,2.77s3.33,2.68,6,3.75a13.56,13.56,0,0,0,12.67-1.86,6.32,6.32,0,0,1,9.84,3.51l.15.51c.56,1.9,0,5.81-.18,8.95a1.87,1.87,0,0,0,2.65,2l0,0A11.45,11.45,0,0,0,415,85.47C416.62,77.55,414.68,72.66,414.4,64.37Z" transform="translate(-1.52)"/><path class="cls-11" d="M398.41,50.21c-1.64-2.42-6-7-15.87-8.09a20.74,20.74,0,0,0-13.41,3.18c-9.24,5.9-26.22,19.9-27.41,43.63a16.45,16.45,0,0,0,4.12,11.62,112.23,112.23,0,0,0,13.65,13.25s-11.75-33.72,20.12-53.56C426.33,69.91,410,115.07,410,115.07s16-7.83,16.33-21.5C426.84,72.86,409.54,50.09,398.41,50.21Z" transform="translate(-1.52)"/><path class="cls-12" d="M379.63,60.24S398.58,56,399,50.62c.33-4-4.17-3.46-6-1.63S379.63,60.24,379.63,60.24Z" transform="translate(-1.52)"/><path class="cls-8" d="M355.4,100.87a34.94,34.94,0,0,1,9.87-31.13" transform="translate(-1.52)"/><path class="cls-8" d="M398.19,55.74s14.75,6.25,19.12,21" transform="translate(-1.52)"/><path class="cls-13" d="M116.92,257.46S83,300.48,78,360.87H239.36s-5.79-69.9-41-102.58Z" transform="translate(-1.52)"/><path class="cls-8" d="M128.3,260.36c0,.62-3.93,54-38.06,51.7" transform="translate(-1.52)"/><line class="cls-8" x1="80.45" y1="359.21" x2="91.83" y2="312.06"/><path class="cls-14" d="M249.53,251.21c-.31-3.72-.68-7.44-1.15-11.15-1.48-11.31-3.31-22.44-5.84-33.32-1.14-5.47-2.54-10.85-3.87-16.25s-2.89-10.72-4.49-16A536.76,536.76,0,0,0,212,113.25h0l-1.1-2.64a18.1,18.1,0,0,0-2-3.62l-5-6.95s-7.61-18.1-8.95-18-2.59,9.63-.14,16.15a17.7,17.7,0,0,0-5,5.81,37.45,37.45,0,0,0-2.05,7,3.29,3.29,0,0,0,1.94,3.71c2.17.9,5,2.32,5.36,3.66.54,2.19,1.48,5.95,1.48,5.95h0c2,7.9,5.67,25.18,5.73,25.35a5.21,5.21,0,0,1,.1,3c.05.43.09.86.12,1.28.3,3.47-3.08,6.07-6.2,6.21a5.34,5.34,0,0,1-1.9-.25,5.46,5.46,0,0,1-3.93.25q.63,5.12.79,10.29c3.1,22.49,4.51,45.2,6,67.88,4,8.55,8.31,17,13,25.33l2,3.36a15.91,15.91,0,0,0,14.28,7.88,12.51,12.51,0,0,0,2.22.12,21.91,21.91,0,0,0,19.21-13.33l.49-.39c-.07-.12-.13-.24-.19-.36A22,22,0,0,0,249.53,251.21Z" transform="translate(-1.52)"/><polyline class="cls-8" points="214.05 236.99 211.99 213.82 211.37 231.92"/><path class="cls-15" d="M213.48,213.84l-17.09,25.42L193.17,232l-9.77-21.95-2.94-66c11.41.59,16.68,2.37,21.59,4,1.88,8.7,4.47,20.81,6,29.52.19,1,.36,1.95.53,2.92,1.92,10.92,3.59,21.85,4.86,32.74C213.47,213.66,213.48,213.84,213.48,213.84Z" transform="translate(-1.52)"/><polygon class="cls-10" points="191.72 231.61 178.69 193.56 191.1 236.78 191.72 231.61"/><path class="cls-14" d="M180.77,145c-9.08,13.47-19.06,18.41-27,18.41a16.29,16.29,0,0,1-9.81-3.08c-6.4-4.78-8.19-15.33-8.19-15.33h1.91a7.69,7.69,0,0,0,7.69-7.69V115.65l3.75-.25,24-1.61v23.52A7.68,7.68,0,0,0,180.77,145Z" transform="translate(-1.52)"/><path class="cls-10" d="M145.35,121v5.46a47,47,0,0,0,7.18,4.27,15,15,0,0,0,13,0,43.44,43.44,0,0,0,7.54-4.54v-5.45a44.93,44.93,0,0,1-7.54,4.56,15.07,15.07,0,0,1-13,0A44.39,44.39,0,0,1,145.35,121Z" transform="translate(-1.52)"/><path class="cls-15" d="M192.82,238.23c1.86,5.16,9.52,21.3,9.52,21.3H114s11.59-21.1,11.38-25.85-19.64-64.12-17.16-72,6.28-13.48,12.45-15.12,15.83-1.6,15.83-1.6,7.91,17.55,22.6,16.1,21.29-17,21.29-17,13.86-.64,21.73,4.07c.07.38.16.75.24,1.12,2.06,9.43,4,18.87,5.68,28.33C205.9,183.83,191,233.12,192.82,238.23Z" transform="translate(-1.52)"/><line class="cls-8" x1="154.49" y1="162.33" x2="154.49" y2="188.39"/><path class="cls-8" d="M161.8,169.15a1.86,1.86,0,1,1-1.86-1.86A1.86,1.86,0,0,1,161.8,169.15Z" transform="translate(-1.52)"/><path class="cls-8" d="M161.49,179a1.86,1.86,0,1,1-1.86-1.86A1.86,1.86,0,0,1,161.49,179Z" transform="translate(-1.52)"/><path class="cls-8" d="M161.18,188.85a1.86,1.86,0,1,1-1.86-1.86A1.86,1.86,0,0,1,161.18,188.85Z" transform="translate(-1.52)"/><path class="cls-10" d="M151.26,218.17s13.23-7.66,18-15.51Z" transform="translate(-1.52)"/><path class="cls-11" d="M158.42,221.49a2.5,2.5,0,0,1-2.21-2.76h0s0-.06,0-.09h0l0,.07h0a2.49,2.49,0,0,1-3.39,1h0a2.5,2.5,0,0,1-1-3.4h0l.06-.1h0l0,0h0a2.51,2.51,0,0,1-3.54-.11h0a2.49,2.49,0,0,1,.11-3.53h0l.06-.06h0l0,0h0a2.51,2.51,0,0,1-3.44-.81h0a2.5,2.5,0,0,1,.8-3.44h0l.11-.07h0l-.09,0h0a2.51,2.51,0,0,1-3.32-1.24h0a2.5,2.5,0,0,1,1.24-3.31h0A2.51,2.51,0,0,1,147,205h0A2.52,2.52,0,0,1,146,208.2h0a2.49,2.49,0,0,1,3.24.91h0a2.5,2.5,0,0,1-.47,3.2h0a2.5,2.5,0,0,1,3.18.38h0a2.51,2.51,0,0,1,.31,3h0a2.51,2.51,0,0,1,3-.41h0a2.49,2.49,0,0,1,1.26,2.55h0a2.5,2.5,0,0,1,2.5-1.34h0a2.53,2.53,0,0,1,2.14,1.82h0a2.5,2.5,0,0,1,1.68-2.2h0a2.52,2.52,0,0,1,2.72.75h0a2.5,2.5,0,0,1,.63-2.8h0a2.49,2.49,0,0,1,3.08-.23h0a2.49,2.49,0,0,1-.33-3.12h0a2.49,2.49,0,0,1,3.19-.9h0a2.49,2.49,0,0,1-1-3.17h0a2.5,2.5,0,0,1,3.3-1.28h0a2.5,2.5,0,0,1,1.27,3.3h0a2.5,2.5,0,0,1-3.3,1.27h0l-.09,0h0l.11.07h0a2.5,2.5,0,0,1,.75,3.46h0a2.49,2.49,0,0,1-3.45.74h0l0,0h0l.08.09h0a2.5,2.5,0,0,1-.16,3.53h0a2.5,2.5,0,0,1-3.53-.16h0l-.07-.07h0l.06.14h0a2.5,2.5,0,0,1-1.56,3.17h0a2.49,2.49,0,0,1-3.17-1.55h0a.75.75,0,0,1-.05-.16h0s0,.08,0,.13h0a2.5,2.5,0,0,1-2.48,2.22h0Zm15.91-16.1a2.5,2.5,0,0,1-1.6-3.15h0a2.5,2.5,0,0,1,3.16-1.6h0a2.5,2.5,0,0,1,1.6,3.15h0a2.51,2.51,0,0,1-2.38,1.73h0A2.36,2.36,0,0,1,174.33,205.39Zm-33.78-3.2a2.48,2.48,0,0,1,1.53-3.18h0a2.48,2.48,0,0,1,3.18,1.53h0a2.48,2.48,0,0,1-1.53,3.18h0a2.39,2.39,0,0,1-.83.15h0A2.5,2.5,0,0,1,140.55,202.19Zm35.33-1.56a2.51,2.51,0,0,1-1.82-3h0a2.5,2.5,0,0,1,3-1.81h0a2.49,2.49,0,0,1,1.81,3h0a2.49,2.49,0,0,1-2.42,1.89h0A2.54,2.54,0,0,1,175.88,200.63ZM139,197.26h0a2.5,2.5,0,0,1,1.73-3.08h0a2.49,2.49,0,0,1,3.08,1.74h0a2.5,2.5,0,0,1-1.73,3.08h0a2.63,2.63,0,0,1-.67.09h0A2.5,2.5,0,0,1,139,197.26Zm38.09-1.49a2.5,2.5,0,0,1-2-2.93h0a2.5,2.5,0,0,1,2.94-2h0a2.5,2.5,0,0,1,2,2.93h0a2.5,2.5,0,0,1-2.45,2h0A2.81,2.81,0,0,1,177.09,195.77Zm-39.34-3.49a2.49,2.49,0,0,1,1.88-3h0a2.5,2.5,0,0,1,3,1.89h0a2.5,2.5,0,0,1-1.88,3h0a2.74,2.74,0,0,1-.56.06h0A2.5,2.5,0,0,1,137.75,192.28Zm40.31-1.42A2.5,2.5,0,0,1,176,188h0a2.5,2.5,0,0,1,2.86-2.08h0a2.5,2.5,0,0,1,2.09,2.85h0a2.51,2.51,0,0,1-2.47,2.12h0A2.34,2.34,0,0,1,178.06,190.86Zm-41.34-3.58a2.5,2.5,0,0,1,2-2.91h0a2.49,2.49,0,0,1,2.91,2h0a2.5,2.5,0,0,1-2,2.91h0a2.28,2.28,0,0,1-.45,0h0A2.5,2.5,0,0,1,136.72,187.28Zm42.1-1.37a2.5,2.5,0,0,1-2.19-2.78h0a2.52,2.52,0,0,1,2.79-2.19h0a2.51,2.51,0,0,1,2.18,2.79h0a2.5,2.5,0,0,1-2.48,2.2h0Zm-42.94-3.65h0a2.51,2.51,0,0,1,2.1-2.84h0a2.51,2.51,0,0,1,2.85,2.1h0a2.5,2.5,0,0,1-2.1,2.84h0l-.38,0h0A2.5,2.5,0,0,1,135.88,182.26Zm43.53-1.32a2.51,2.51,0,0,1-2.26-2.72h0a2.5,2.5,0,0,1,2.72-2.26h0a2.49,2.49,0,0,1,2.26,2.72h0a2.5,2.5,0,0,1-2.48,2.27h-.24Zm-44.21-3.72h0a2.49,2.49,0,0,1,2.18-2.78h0a2.49,2.49,0,0,1,2.78,2.18h0A2.5,2.5,0,0,1,138,179.4h0l-.3,0h0A2.5,2.5,0,0,1,135.2,177.22ZM179.87,176a2.49,2.49,0,0,1-2.32-2.67h0a2.51,2.51,0,0,1,2.67-2.32h0a2.51,2.51,0,0,1,2.32,2.67h0A2.5,2.5,0,0,1,180,176h-.17Zm-45.22-3.77h0a2.49,2.49,0,0,1,2.24-2.73h0a2.49,2.49,0,0,1,2.73,2.24h0a2.48,2.48,0,0,1-2.24,2.72h0l-.25,0h0A2.5,2.5,0,0,1,134.65,172.18ZM180.21,171a2.49,2.49,0,0,1-2.37-2.61h0a2.49,2.49,0,0,1,2.61-2.38h0a2.5,2.5,0,0,1,2.38,2.62h0a2.5,2.5,0,0,1-2.5,2.38h-.12Zm-46-3.82h0a2.5,2.5,0,0,1,2.31-2.68h0a2.5,2.5,0,0,1,2.68,2.31h0a2.51,2.51,0,0,1-2.31,2.68h-.18A2.51,2.51,0,0,1,134.21,167.13ZM180.45,166a2.5,2.5,0,0,1-2.43-2.57h0A2.5,2.5,0,0,1,180.6,161h0a2.5,2.5,0,0,1,2.42,2.57h0a2.5,2.5,0,0,1-2.5,2.43h-.07Zm-46.56-3.87a2.5,2.5,0,0,1,2.36-2.64h0a2.51,2.51,0,0,1,2.63,2.37h0a2.5,2.5,0,0,1-2.36,2.63h-.14A2.49,2.49,0,0,1,133.89,162.08Zm46.7-1.14a2.49,2.49,0,0,1-2.47-2.52h0a2.5,2.5,0,0,1,2.53-2.47h0a2.49,2.49,0,0,1,2.47,2.52h0a2.51,2.51,0,0,1-2.5,2.48h0ZM133.66,157a2.5,2.5,0,0,1,2.41-2.59h0a2.52,2.52,0,0,1,2.59,2.42h0a2.5,2.5,0,0,1-2.41,2.58h-.09A2.5,2.5,0,0,1,133.66,157Zm44.47-3.56a2.52,2.52,0,0,1,2.49-2.52h0a2.49,2.49,0,0,1,2.51,2.49h0a2.49,2.49,0,0,1-2.48,2.51h0A2.5,2.5,0,0,1,178.13,153.46Zm-44.6-1.5a2.5,2.5,0,0,1,2.46-2.54h0a2.5,2.5,0,0,1,2.54,2.46h0a2.5,2.5,0,0,1-2.46,2.54h0A2.5,2.5,0,0,1,133.53,152Zm44.53-3.46a2.5,2.5,0,0,1,2.44-2.56h0a2.5,2.5,0,0,1,2.56,2.44h0a2.5,2.5,0,0,1-2.44,2.56h-.06A2.5,2.5,0,0,1,178.06,148.5Zm-42.09.91a2.5,2.5,0,0,1-2.45-2.55h0a2.5,2.5,0,0,1,2.55-2.45h0a2.5,2.5,0,0,1,2.45,2.55h0a2.5,2.5,0,0,1-2.5,2.45H136Z" transform="translate(-1.52)"/><path class="cls-14" d="M122.91,290l-.15-.24c-5.65-8.8-11.4-17.94-16.77-27.1s-10.73-18.38-15.77-27.7c-2.57-4.77-5.1-9.56-7.54-14.36.64-.54,1.29-1.07,1.94-1.6,1.57-1.28,3.17-2.55,4.76-3.82-1.58-1.77-3.16-3.55-4.76-5.31-6.75-7.48-13.55-15.2-19.29-23.6-1.67,1.47-3.35,2.95-5,4.45q-3.84,3.53-7.63,7.12a18.38,18.38,0,0,0-3,22.87l.08.13c2.81,4.82,5.85,9.48,8.8,14.19l2.75,4.15c2.16,3.24,4.32,6.45,6.55,9.62A538.63,538.63,0,0,0,108.35,300l.55.63a8.84,8.84,0,0,0,14.16-10.44A1.58,1.58,0,0,0,122.91,290Z" transform="translate(-1.52)"/><path class="cls-14" d="M121,289.29s15.52,6.56,15.24,9.07-8.54,2.11-8.54,2.11,10.87,15,9.51,16.81-11-9.7-11-9.7,5.9,10.94,4.29,12.91S121,308.66,121,308.66s3.31,12.22.72,13.11-5.8-14.07-5.8-14.07.39,9-1.56,9.29-6.7-19.72-6.7-19.72Z" transform="translate(-1.52)"/><polyline class="cls-8" points="75.28 215.06 80.86 220.65 79.21 215.48"/><polygon class="cls-10" points="113.95 197.49 128.02 187.76 115.2 202.45 113.95 197.49"/><path class="cls-15" d="M59.64,188.7l27.3,30.09,47.15-35.37L122.92,146.2s-11.48,3.1-18,8.68S59.64,188.7,59.64,188.7Z" transform="translate(-1.52)"/><path class="cls-14" d="M196.12,93c-1.56,3.84-7.58,8.34-11.47,6.91a41.86,41.86,0,0,1-2.59,10.26,27.7,27.7,0,0,1-9,10.6,45.41,45.41,0,0,1-7.56,4.53,15.07,15.07,0,0,1-13,0c-.58-.28-1.18-.58-1.79-.92a41.22,41.22,0,0,1-5.36-3.34,28,28,0,0,1-9.31-10.91,42.07,42.07,0,0,1-2.55-10.2c-2.72,1-6.47-.93-9-3.47A11.18,11.18,0,0,1,122.06,93a7.58,7.58,0,0,1,2.43-8.91l.2-.15.48-.31c.17-.1.34-.2.51-.28l.54-.25a6.68,6.68,0,0,1,.71-.25,7.32,7.32,0,0,1,3.88-.1,6.4,6.4,0,0,1,1.2.37c0-.65-.06-1.31-.08-2a26.39,26.39,0,0,1,.22-4.64,27.19,27.19,0,0,1,54.13,3.55c0,.38,0,.77,0,1.16,0,.63,0,1.27-.08,1.9a7.73,7.73,0,0,1,3.44-.56l.41,0a7.38,7.38,0,0,1,1.1.22,6.89,6.89,0,0,1,.84.28A7.6,7.6,0,0,1,196.12,93Z" transform="translate(-1.52)"/><path class="cls-16" d="M167.69,103.79a6.45,6.45,0,1,0,6.45-6.44A6.45,6.45,0,0,0,167.69,103.79Z" transform="translate(-1.52)"/><path class="cls-16" d="M137.59,103.79A6.45,6.45,0,1,0,144,97.34,6.45,6.45,0,0,0,137.59,103.79Z" transform="translate(-1.52)"/><path class="cls-10" d="M158.89,89.17c.41,1.23.79,2.31,1.18,3.42a30.1,30.1,0,0,1,1,3.45,14.09,14.09,0,0,1,.28,1.89,5.23,5.23,0,0,1-.26,2.17,3.48,3.48,0,0,1-1.41,1.7,5.38,5.38,0,0,1-1.84.7c.75-1.07,1.47-2,1.45-2.87a15.38,15.38,0,0,0-.53-3.09,22.73,22.73,0,0,1-.53-3.61A7.76,7.76,0,0,1,158.89,89.17Z" transform="translate(-1.52)"/><path class="cls-10" d="M165.57,81.55a6.63,6.63,0,0,1,2.54-.68,7.4,7.4,0,0,1,2.63.32,6.08,6.08,0,0,1,2.35,1.35,5.68,5.68,0,0,1,1.45,2.18.5.5,0,0,1-.8.56l-.05,0A7.14,7.14,0,0,0,172,84a5.31,5.31,0,0,0-1.84-.64,10.86,10.86,0,0,0-2-.12c-.67,0-1.4.08-2.05.1H166a.92.92,0,0,1-.45-1.74Z" transform="translate(-1.52)"/><path class="cls-10" d="M152,83.28c-.65,0-1.38-.09-2.05-.09a10.87,10.87,0,0,0-2,.11,5.76,5.76,0,0,0-1.84.64,7.14,7.14,0,0,0-1.65,1.28l-.05,0a.48.48,0,0,1-.7,0,.49.49,0,0,1-.1-.53,5.64,5.64,0,0,1,1.45-2.17,6,6,0,0,1,2.35-1.35,7,7,0,0,1,2.64-.32,6.29,6.29,0,0,1,2.53.68.91.91,0,0,1,.39,1.24.93.93,0,0,1-.84.5Z" transform="translate(-1.52)"/><path class="cls-10" d="M146.86,92.71c0,2.16,1.09,3.91,2.44,3.91s2.44-1.75,2.44-3.91-1.09-3.92-2.44-3.92S146.86,90.54,146.86,92.71Z" transform="translate(-1.52)"/><path class="cls-10" d="M166.45,92.71c0,2.16,1.09,3.92,2.44,3.92s2.43-1.76,2.43-3.92-1.09-3.92-2.43-3.92S166.45,90.55,166.45,92.71Z" transform="translate(-1.52)"/><path class="cls-10" d="M153.83,107.5a3.41,3.41,0,0,1-1,0,4.28,4.28,0,0,1-1-.28,3.2,3.2,0,0,1-.87-.51,2.08,2.08,0,0,1-.66-.78c.61.3,1.16.52,1.76.77.28.13.58.24.87.38A7.53,7.53,0,0,1,153.83,107.5Z" transform="translate(-1.52)"/><path class="cls-10" d="M159.68,105.34a7.39,7.39,0,0,1-3,1,6.93,6.93,0,0,1-3.3-.36,6.76,6.76,0,0,1-.77-.36l-.72-.48a5.57,5.57,0,0,1-1.11-1.27,6.21,6.21,0,0,1-1-3.08c.3.45.5.93.79,1.35a7.5,7.5,0,0,0,.9,1.18,5.64,5.64,0,0,0,2.3,1.6,9.18,9.18,0,0,0,2.85.53A20.29,20.29,0,0,0,159.68,105.34Z" transform="translate(-1.52)"/><path class="cls-10" d="M152.29,51.06a31.37,31.37,0,0,0-18.46,9.7,34.71,34.71,0,0,0-9.31,23.29,7.22,7.22,0,0,1,1.7-1,7.48,7.48,0,0,1,4.58-.37c1.8,4.59,4.32,9.49,4.32,9.49l2.49-6C163.25,80,162.22,68,162.22,68s8.48,17.78,16.54,18.61c0,0,2.07,6,2.9,5.59.56-.28,4.52-9.32,4.51-9.1a7.65,7.65,0,0,1,5-.3C190.39,64.62,176.21,47.41,152.29,51.06Z" transform="translate(-1.52)"/><path class="cls-10" d="M147,133.38c1.27-3.28,1-7.73-1.63-12.35a28,28,0,0,1-9.31-10.91,42.07,42.07,0,0,1-2.55-10.2c-2.72,1-6.47-.93-9-3.47A50.72,50.72,0,0,0,129,114c-1.23,3.17-3.93,11.55-.94,17.77-1.41,4.51-2.78,11.37.11,15.61-1.49,3.88-4.45,13.24-.74,18.45-1.74,4.91-4.3,14.77,1.26,19a11,11,0,0,0-2.41,13.78l17.21,2s2.31-10.19-1.73-15.23c5.39-3.43,6.69-11.95,2.76-19.56,3.3-4.21,3.59-11.24.2-17.6C147.93,144.88,148.85,139.11,147,133.38Z" transform="translate(-1.52)"/><path class="cls-13" d="M185.74,115h0a3.42,3.42,0,0,0,4-2.72l5.61-29.67a3.41,3.41,0,0,0-2.72-4h0a3.41,3.41,0,0,0-4,2.71L183,111A3.41,3.41,0,0,0,185.74,115Z" transform="translate(-1.52)"/><path class="cls-17" d="M271,227.42V191.65H242.86v35.77a7.79,7.79,0,0,1-7.79,7.79h0c24.77,36.75,44,0,44,0h-.28A7.79,7.79,0,0,1,271,227.42Z" transform="translate(-1.52)"/><path class="cls-10" d="M271,210.89v5.53a46.24,46.24,0,0,1-7.28,4.33,15.2,15.2,0,0,1-13.2,0,44.65,44.65,0,0,1-7.65-4.6v-5.54a45.61,45.61,0,0,0,7.65,4.63,15.27,15.27,0,0,0,13.2,0A45,45,0,0,0,271,210.89Z" transform="translate(-1.52)"/><path class="cls-18" d="M234.4,234.3s18.61,12,43.43,0c0,0,22.23,0,26.26,8.06s13,125.33,13,125.33H202s1.24-111.37,6.51-121S234.4,234.3,234.4,234.3Z" transform="translate(-1.52)"/><path class="cls-17" d="M381.39,319.58c-1.64-2.22-3.29-4.41-5-6.6-.62-.8-1.26-1.57-1.89-2.37H324.3c.95.91,1.91,1.81,2.85,2.72,4.82,4.67,9.56,9.41,14.17,14.23-6,.93-12.08,1.78-18.14,2.55-10.65,1.35-21.37,2.44-32.13,3.37s-21.64,1.64-32.24,2.19h-.28l-.29,0h0c-4-2.35-13.05-7.35-14.51-6-1.91,1.71,3.3,8.28,3.3,8.28s-18.77-.1-19.46,2.1S242,343.33,242,343.33s-12.51,1.61-13.18,4.1,15.38.86,15.38.86-12,4.5-11.22,7.15,15-3.53,15-3.53-7.66,5-6.74,6.77c.71,1.36,12.25-3,17.56-5.07a541.78,541.78,0,0,0,66.14,3.1c5.61,0,11.22-.26,16.84-.47s11.25-.6,16.9-1.13c2-.15,4-.32,6-.52l1.8-.17a21.6,21.6,0,0,0,15.27-34.2C381.7,320,381.54,319.8,381.39,319.58Z" transform="translate(-1.52)"/><polyline class="cls-8" points="342.28 333.36 339.38 327.37 344.14 329.85"/><path class="cls-10" d="M336.3,322.4h47s2.17,4.06,2.29,6.26Z" transform="translate(-1.52)"/><path class="cls-18" d="M280,234.3s13.76-4,41.06,19.85,63.9,68.25,63.9,68.25H332.5s-35.05-36-55.84-49.63C276.66,272.77,255.36,252.29,280,234.3Z" transform="translate(-1.52)"/><line class="cls-8" x1="330.7" y1="318.89" x2="378.06" y2="318.89"/><path class="cls-17" d="M268.48,338s5.2-6.57,3.3-8.28c-1.47-1.32-10.47,3.68-14.51,6h0l-.28,0h-.29c-10.59-.55-21.51-1.21-32.23-2.19s-21.48-2-32.13-3.37q-9.11-1.16-18.14-2.55c4.6-4.82,9.34-9.56,14.17-14.23l2.84-2.72H141c-.63.8-1.27,1.57-1.9,2.37-1.67,2.19-3.32,4.38-5,6.6l-.47.64a21.59,21.59,0,0,0,15.28,34.2l1.79.17c2,.2,4,.37,6.06.52,5.64.53,11.28.8,16.9,1.13s11.23.42,16.84.47a541.62,541.62,0,0,0,66.13-3.1c5.31,2.09,16.86,6.43,17.56,5.07.93-1.77-6.73-6.77-6.73-6.77s14.22,6.19,15,3.53-11.22-7.15-11.22-7.15,16,1.62,15.37-.86-13.17-4.1-13.17-4.1,15.15-1.09,14.46-3.28S268.48,338,268.48,338Z" transform="translate(-1.52)"/><polyline class="cls-8" points="158.01 330.67 172.9 327.57 164.83 333.05"/><path class="cls-10" d="M179.07,322.4H132a47,47,0,0,0-1.65,4.76C130.26,328,179.07,322.4,179.07,322.4Z" transform="translate(-1.52)"/><path class="cls-18" d="M234.4,234.3s-13.76-4-41.06,19.85-63.9,68.25-63.9,68.25h52.42s35.06-36,55.84-49.63C237.7,272.77,259,252.29,234.4,234.3Z" transform="translate(-1.52)"/><path class="cls-8" d="M231.5,237.61s20.27,17.78,48.81,0" transform="translate(-1.52)"/><line class="cls-8" x1="135.67" y1="316.61" x2="180.96" y2="316.61"/><path class="cls-17" d="M290.39,172.46a7.7,7.7,0,0,0-5.87,0c0-.66.06-1.32.08-2A27.53,27.53,0,0,0,257,141.91h0a27.54,27.54,0,0,0-27.51,28.64l.09,1.93a7.7,7.7,0,0,0-10.09,10c1.59,3.89,7.69,8.46,11.63,7a42.68,42.68,0,0,0,2.62,10.4c3.5,7.77,11.16,12.66,16.75,15.34a15.24,15.24,0,0,0,13.2,0c5.58-2.68,13.2-7.58,16.69-15.37A42.5,42.5,0,0,0,283,189.52c3.94,1.41,10-3.14,11.6-7A7.7,7.7,0,0,0,290.39,172.46Z" transform="translate(-1.52)"/><path class="cls-10" d="M257.27,178.62a8,8,0,0,1,.65,3.81,23.36,23.36,0,0,1-.54,3.66,15.22,15.22,0,0,0-.54,3.13c0,.85.71,1.83,1.46,2.91a5.25,5.25,0,0,1-1.85-.71,3.45,3.45,0,0,1-1.43-1.73,5.19,5.19,0,0,1-.27-2.2,16.07,16.07,0,0,1,.28-1.9,30.38,30.38,0,0,1,1-3.5C256.47,181,256.85,179.87,257.27,178.62Z" transform="translate(-1.52)"/><path class="cls-10" d="M249.9,172.65c-.66,0-1.4-.09-2.08-.1a12.19,12.19,0,0,0-2,.12,5.65,5.65,0,0,0-1.86.65,7.13,7.13,0,0,0-1.67,1.3l-.05,0a.51.51,0,0,1-.72,0,.51.51,0,0,1-.1-.54,5.8,5.8,0,0,1,1.47-2.2,6,6,0,0,1,2.38-1.37,7.23,7.23,0,0,1,2.68-.32,6.47,6.47,0,0,1,2.57.68.94.94,0,0,1,.39,1.26.92.92,0,0,1-.85.5Z" transform="translate(-1.52)"/><path class="cls-10" d="M263.62,170.89a6.47,6.47,0,0,1,2.57-.68,7.23,7.23,0,0,1,2.68.32,6,6,0,0,1,2.38,1.37,5.8,5.8,0,0,1,1.47,2.2.51.51,0,0,1-.82.57l0,0a7.13,7.13,0,0,0-1.67-1.3,5.65,5.65,0,0,0-1.86-.65,12.19,12.19,0,0,0-2-.12c-.68,0-1.42.08-2.08.1h-.14a.93.93,0,0,1-1-.9A1,1,0,0,1,263.62,170.89Z" transform="translate(-1.52)"/><path class="cls-10" d="M269.46,182.2c0,2.2-1.11,4-2.47,4s-2.47-1.78-2.47-4,1.1-4,2.47-4S269.46,180,269.46,182.2Z" transform="translate(-1.52)"/><path class="cls-10" d="M249.6,182.2c0,2.2-1.1,4-2.47,4s-2.47-1.78-2.47-4,1.11-4,2.47-4S249.6,180,249.6,182.2Z" transform="translate(-1.52)"/><path class="cls-10" d="M262.39,197.2a8.54,8.54,0,0,1,.89-.47c.3-.15.6-.26.89-.39l.89-.37.9-.41a2.32,2.32,0,0,1-.67.79,3.64,3.64,0,0,1-.89.52,4.36,4.36,0,0,1-1,.28A3.55,3.55,0,0,1,262.39,197.2Z" transform="translate(-1.52)"/><path class="cls-10" d="M256.47,195a20.75,20.75,0,0,0,3.12.15,8.82,8.82,0,0,0,2.88-.54,5.54,5.54,0,0,0,2.34-1.61,8.41,8.41,0,0,0,.91-1.2c.29-.43.49-.91.8-1.37a6.37,6.37,0,0,1-1,3.12,5.76,5.76,0,0,1-1.13,1.29l-.73.48a7,7,0,0,1-.78.38,7.11,7.11,0,0,1-3.34.36A7.54,7.54,0,0,1,256.47,195Z" transform="translate(-1.52)"/><path class="cls-10" d="M291.19,142.92c-2.11-7.23-23.21-8.15-41.17-2.47,0,0,1.16-14.69-15.88,9.8,0,0-9.27,5.43-9.24,12.05,0,4.75,5.72,13.74,8.94,18.43a1.57,1.57,0,0,0,2.84-.6c.93-5,2.45-14.11,2.28-19.15,0,0,25.94,8.38,38.29,5.56,0,4.18.29,13.41,1.65,13.88,1.75.61,10.62-9.78,11.13-12.68.29-1.66-.95-5.73-2.32-8.51A18.1,18.1,0,0,0,291.19,142.92Z" transform="translate(-1.52)"/><path class="cls-3" d="M190.62,269H324.5a3,3,0,0,1,3,3v84.85a0,0,0,0,1,0,0h-140a0,0,0,0,1,0,0V272.09A3,3,0,0,1,190.62,269Z"/><circle class="cls-15" cx="259.08" cy="312.99" r="9.8" transform="translate(-66.74 68.22) rotate(-13.34)"/></g><rect class="cls-10" x="14.52" y="356.91" width="478.34" height="22.33"/><path class="cls-19" d="M72.46,253.8c-2.67-.67,1.78-5.93,4.57-8.91a59.85,59.85,0,0,0-12.12-17.75,4.13,4.13,0,0,0-6.28.48c-7.3,10.22-9.57,22.52-9.23,34.62,3.13,1.2,9.51,3.92,9.27,6.29-.21,2.15-5.6.46-9-.81,2.21,24.75,14,47.19,14,47.19,19.68-26.74,20.43-48.37,15.67-63.82C77.19,252.71,74.44,254.29,72.46,253.8Z" transform="translate(-1.52)"/><path class="cls-20" d="M60.87,323.68c-.27-.9,21-62.05,40.42-62.36s32,24.13,27.58,28.2-30.08-1.88-26.64,1.88,10.34,11.91,6,13.48-17.87-1.25-21.31,2.19S63.37,332.14,60.87,323.68Z" transform="translate(-1.52)"/><path class="cls-20" d="M67.76,316.16s-21-56.72-47.32-61.11S2,289.84,12.92,288s24.44-7.53,22.87-1.57S18.87,303,28.9,306.45s21.62-.94,25.07,4.07S62.43,320.86,67.76,316.16Z" transform="translate(-1.52)"/><path class="cls-8" d="M80.11,281c-3.93,5.17-14.68,29.37-14.68,29.37S58,292.79,52.81,284.72" transform="translate(-1.52)"/><line class="cls-8" x1="63.91" y1="304.58" x2="61.01" y2="231.78"/><polygon class="cls-11" points="80.97 356.9 47.12 356.9 40.85 311.15 87.24 311.15 80.97 356.9"/><line class="cls-8" x1="44.26" y1="316.99" x2="83.97" y2="316.99"/></g></g></svg>