<svg width="820" height="626" viewBox="0 0 820 626" fill="none" xmlns="http://www.w3.org/2000/svg">
<mask id="mask0_1682:250" style="mask-type:alpha" maskUnits="userSpaceOnUse" x="0" y="0" width="820" height="626">
<rect x="0.0898438" y="0.696411" width="819.344" height="624.367" fill="#C4C4C4"/>
</mask>
<g mask="url(#mask0_1682:250)">
<path d="M90.4849 615.333C71.82 593.339 82.7113 558.886 100.272 536.024C117.832 513.162 141.754 493.731 150.38 466.193C160.545 433.699 146.703 398.812 130.541 368.852C114.379 338.892 95.0707 308.653 93.6027 274.675C91.8131 232.858 117.469 194.932 146.088 164.384C183.208 124.933 233.289 90.3532 287.004 96.5972C325.509 101.077 358.518 125.843 386.62 152.597C414.723 179.35 440.532 209.38 474.017 228.938C498.176 243.063 525.649 251.183 553.514 253.773C589.278 257.091 625.657 251.477 661.169 257.217C696.681 262.957 733.508 284.503 741.058 319.671C752.243 371.834 695.311 416.381 694.207 469.735C693.689 494.109 704.986 516.9 712.844 539.972C720.701 563.044 724.756 590.203 711.25 610.475" stroke="#8EE4FD" stroke-width="2.48" stroke-linecap="round" stroke-linejoin="round" stroke-dasharray="8.69 8.69"/>
<path d="M696.947 222.094C698.716 214.623 694.102 207.131 686.642 205.359C679.181 203.588 671.699 208.208 669.93 215.678C668.161 223.149 672.775 230.641 680.235 232.413C687.696 234.184 695.178 229.564 696.947 222.094Z" fill="#8EE4FD"/>
<path d="M93.5761 191.67C93.5761 193.846 92.9316 195.974 91.7241 197.783C90.5166 199.593 88.8003 201.003 86.7923 201.836C84.7843 202.669 82.5747 202.887 80.443 202.462C78.3113 202.038 76.3532 200.99 74.8163 199.451C73.2795 197.912 72.2328 195.951 71.8088 193.817C71.3848 191.682 71.6024 189.47 72.4342 187.459C73.2659 185.448 74.6744 183.73 76.4816 182.521C78.2888 181.311 80.4134 180.666 82.5869 180.666C85.5014 180.666 88.2965 181.825 90.3574 183.889C92.4183 185.953 93.5761 188.752 93.5761 191.67Z" fill="#8EE4FD"/>
<path d="M64.6634 393.73C64.6634 395.563 64.1206 397.355 63.1036 398.879C62.0866 400.403 60.6411 401.591 58.9498 402.292C57.2586 402.994 55.3976 403.177 53.6022 402.819C51.8068 402.462 50.1576 401.579 48.8632 400.283C47.5688 398.987 46.6873 397.336 46.3302 395.538C45.9731 393.74 46.1564 391.876 46.8569 390.183C47.5574 388.49 48.7437 387.042 50.2658 386.024C51.7879 385.005 53.5773 384.462 55.4079 384.462C57.8626 384.462 60.2168 385.438 61.9526 387.176C63.6883 388.914 64.6634 391.272 64.6634 393.73Z" fill="#8EE4FD"/>
<path d="M692.111 216.576C700.736 216.576 707.728 209.574 707.728 200.938C707.728 192.301 700.736 185.3 692.111 185.3C683.486 185.3 676.494 192.301 676.494 200.938C676.494 209.574 683.486 216.576 692.111 216.576Z" stroke="#8EE4FD" stroke-width="1.24" stroke-miterlimit="10"/>
<path d="M86.6269 188.786C92.3795 188.786 97.0429 184.116 97.0429 178.356C97.0429 172.596 92.3795 167.926 86.6269 167.926C80.8743 167.926 76.2109 172.596 76.2109 178.356C76.2109 184.116 80.8743 188.786 86.6269 188.786Z" stroke="#8EE4FD" stroke-width="1.24" stroke-miterlimit="10"/>
<path d="M772.093 406.473C773.991 398.381 768.979 390.281 760.898 388.38C752.818 386.479 744.728 391.498 742.83 399.589C740.931 407.681 745.943 415.781 754.024 417.682C762.105 419.583 770.194 414.564 772.093 406.473Z" stroke="#8EE4FD" stroke-width="1.24" stroke-miterlimit="10"/>
<path d="M138.681 298.363C132.818 298.363 127.087 296.622 122.213 293.36C117.338 290.098 113.539 285.462 111.296 280.038C109.053 274.614 108.467 268.645 109.612 262.888C110.756 257.13 113.581 251.842 117.727 247.692C121.874 243.541 127.157 240.716 132.907 239.572C138.658 238.428 144.618 239.018 150.034 241.267C155.449 243.515 160.078 247.322 163.333 252.204C166.588 257.087 168.324 262.826 168.321 268.697C168.31 276.564 165.183 284.105 159.627 289.667C154.07 295.228 146.538 298.355 138.681 298.363ZM138.681 241.383C133.286 241.381 128.01 242.98 123.523 245.98C119.035 248.979 115.537 253.244 113.47 258.235C111.404 263.226 110.861 268.718 111.912 274.017C112.963 279.316 115.56 284.185 119.374 288.006C123.189 291.827 128.049 294.43 133.34 295.485C138.632 296.54 144.117 296 149.103 293.933C154.088 291.866 158.349 288.365 161.346 283.873C164.344 279.381 165.944 274.1 165.944 268.697C165.937 261.458 163.063 254.517 157.952 249.397C152.841 244.276 145.911 241.395 138.681 241.383Z" fill="#8EE4FD"/>
<path d="M129.157 296.585C115.176 272.407 128.528 241.985 129.157 240.711L131.324 241.677C131.184 241.985 117.902 272.281 131.324 295.395L129.157 296.585Z" fill="#8EE4FD"/>
<path d="M148.383 296.585L146.328 295.395C159.694 272.281 146.412 241.985 146.328 241.677L148.495 240.711C149.013 241.985 162.351 272.407 148.383 296.585Z" fill="#8EE4FD"/>
<path d="M165.748 258.799H111.613V261.179H165.748V258.799Z" fill="#8EE4FD"/>
<path d="M165.748 277.601H111.613V279.981H165.748V277.601Z" fill="#8EE4FD"/>
<path d="M139.869 240.208H137.492V297.187H139.869V240.208Z" fill="#8EE4FD"/>
<path d="M749.014 284.951H697.549C694.036 284.951 691.188 287.803 691.188 291.321V342.854C691.188 346.372 694.036 349.224 697.549 349.224H749.014C752.527 349.224 755.375 346.372 755.375 342.854V291.321C755.375 287.803 752.527 284.951 749.014 284.951Z" fill="#8EE4FD"/>
<path d="M728.643 326.531C730.041 325.201 731.202 323.955 732.474 322.793C732.703 322.488 733 322.241 733.341 322.071C733.682 321.901 734.057 321.813 734.438 321.813C734.819 321.813 735.195 321.901 735.536 322.071C735.876 322.241 736.173 322.488 736.403 322.793C738.066 324.389 739.674 326.027 741.268 327.692C741.534 327.917 741.749 328.197 741.899 328.511C742.048 328.826 742.129 329.169 742.136 329.518C742.142 329.866 742.074 330.212 741.937 330.532C741.799 330.852 741.595 331.14 741.338 331.374C740.303 332.534 739.206 333.637 738.052 334.678C737.201 335.34 736.189 335.764 735.121 335.906C734.052 336.049 732.965 335.906 731.97 335.49C718.982 331.29 709.782 322.891 705.057 310.011C704.222 307.851 704.237 305.455 705.099 303.306C705.96 301.157 707.604 299.415 709.698 298.433C710.179 298.155 710.74 298.05 711.289 298.134C711.838 298.218 712.342 298.486 712.718 298.895C714.452 300.575 716.158 302.283 717.808 304.061C718.053 304.307 718.246 304.6 718.374 304.923C718.502 305.246 718.563 305.592 718.552 305.94C718.542 306.287 718.46 306.629 718.313 306.944C718.166 307.259 717.956 307.54 717.696 307.771C716.675 308.877 715.613 309.927 714.522 310.949C714.37 311.052 714.241 311.186 714.145 311.343C714.048 311.5 713.986 311.675 713.962 311.858C713.938 312.041 713.954 312.226 714.007 312.402C714.06 312.579 714.15 312.742 714.27 312.881C717.88 318.535 722.813 323.22 728.643 326.531Z" fill="white"/>
<path d="M505.462 112.949H432.354C430.825 112.949 429.586 114.19 429.586 115.721V161.136C429.586 162.667 430.825 163.908 432.354 163.908H505.462C506.991 163.908 508.23 162.667 508.23 161.136V115.721C508.23 114.19 506.991 112.949 505.462 112.949Z" fill="#8EE4FD"/>
<path d="M468.873 147.655C468.726 147.657 468.582 147.607 468.468 147.515L430.551 116.533C430.443 116.416 430.382 116.265 430.377 116.106C430.373 115.948 430.425 115.793 430.526 115.67C430.626 115.547 430.768 115.465 430.924 115.438C431.08 115.412 431.24 115.442 431.376 115.525L468.873 146.227L506.623 114.867C506.758 114.771 506.924 114.729 507.088 114.751C507.252 114.772 507.402 114.855 507.508 114.982C507.614 115.109 507.668 115.272 507.66 115.438C507.651 115.603 507.58 115.759 507.461 115.875L469.293 147.515C469.173 147.608 469.025 147.658 468.873 147.655Z" fill="white"/>
<path d="M430.749 162.214C430.587 162.208 430.433 162.143 430.315 162.032C430.254 161.974 430.205 161.903 430.172 161.825C430.138 161.747 430.121 161.662 430.121 161.577C430.121 161.492 430.138 161.408 430.172 161.33C430.205 161.252 430.254 161.181 430.315 161.122L454.167 135.055C454.289 134.948 454.445 134.889 454.607 134.891C454.769 134.892 454.924 134.954 455.044 135.063C455.163 135.172 455.238 135.322 455.255 135.483C455.271 135.644 455.227 135.806 455.132 135.937L431.224 161.99C431.165 162.059 431.092 162.115 431.01 162.153C430.928 162.192 430.839 162.213 430.749 162.214Z" fill="white"/>
<path d="M506.805 162.214C506.715 162.212 506.626 162.191 506.544 162.152C506.462 162.113 506.389 162.058 506.33 161.99L482.534 135.937C482.464 135.876 482.409 135.801 482.37 135.717C482.332 135.632 482.311 135.541 482.311 135.449C482.31 135.356 482.328 135.265 482.365 135.18C482.402 135.095 482.456 135.019 482.525 134.957C482.593 134.894 482.673 134.847 482.761 134.818C482.849 134.789 482.942 134.779 483.033 134.788C483.125 134.797 483.214 134.826 483.294 134.872C483.375 134.918 483.444 134.98 483.499 135.055L507.35 161.122C507.471 161.243 507.538 161.407 507.538 161.577C507.538 161.748 507.471 161.912 507.35 162.032C507.279 162.101 507.193 162.153 507.098 162.185C507.004 162.216 506.904 162.226 506.805 162.214Z" fill="white"/>
<path d="M504.707 505.406C504.707 505.406 481.037 555.33 482.198 609.761H697.326C697.326 609.761 695.005 547.224 668.413 503.222L504.707 505.406Z" fill="#436A91"/>
<path d="M562.574 521.464H673.319" stroke="#0B334C" stroke-width="0.93" stroke-linecap="round" stroke-linejoin="round"/>
<path d="M654.529 505.826V521.464" stroke="#0B334C" stroke-width="0.93" stroke-linecap="round" stroke-linejoin="round"/>
<path d="M628.512 505.826V521.464" stroke="#0B334C" stroke-width="0.93" stroke-linecap="round" stroke-linejoin="round"/>
<path d="M602.477 505.826V521.464" stroke="#0B334C" stroke-width="0.93" stroke-linecap="round" stroke-linejoin="round"/>
<path d="M576.459 505.826V521.464" stroke="#0B334C" stroke-width="0.93" stroke-linecap="round" stroke-linejoin="round"/>
<path d="M662.92 522.038C662.92 522.038 682.284 579.942 679.697 610.349" stroke="#0B334C" stroke-width="0.93" stroke-linecap="round" stroke-linejoin="round"/>
<path d="M602.911 297.607V268.781H561.331V297.607C561.331 299.122 561.033 300.622 560.454 302.021C559.875 303.421 559.027 304.693 557.957 305.764C556.887 306.835 555.617 307.685 554.219 308.265C552.821 308.844 551.323 309.143 549.811 309.143C586.441 363.532 614.823 309.143 614.823 309.143H614.459C612.944 309.146 611.443 308.851 610.042 308.273C608.641 307.695 607.368 306.845 606.295 305.774C605.222 304.702 604.371 303.429 603.791 302.028C603.21 300.626 602.911 299.124 602.911 297.607Z" fill="#CC6F49"/>
<path d="M602.925 273.149V281.339C599.542 283.794 595.944 285.935 592.174 287.737C589.122 289.214 585.776 289.982 582.387 289.982C578.997 289.982 575.651 289.214 572.6 287.737C568.609 285.852 564.82 283.568 561.289 280.919V272.771C564.827 275.418 568.615 277.711 572.6 279.617C575.654 281.085 578.999 281.847 582.387 281.847C585.775 281.847 589.119 281.085 592.174 279.617C595.951 277.801 599.55 275.636 602.925 273.149Z" fill="#0B334C"/>
<path d="M654.235 326.307C649.608 307.785 620.121 308.359 614.053 307.785C613.423 307.695 612.823 307.458 612.301 307.093C611.779 306.728 611.35 306.246 611.048 305.685C611.048 300.281 610.908 289.417 608.545 289.417C605.399 289.417 585.476 295.717 585.476 295.717L583.379 303.767L581.981 296.417C581.981 296.417 560.659 287.667 557.863 288.367C555.696 288.913 555.836 301.219 556.018 306.735C554.164 308.001 552.045 308.825 549.824 309.143C533.046 309.073 522.099 310.095 512.27 321.393C502.442 332.69 488.307 531.964 488.307 531.964C492.012 536.346 524.266 537.942 567.999 537.214C571.019 537.214 580.345 510.614 583.379 510.614C586.874 510.544 599.821 535.548 603.302 535.464C648.517 534.386 684.043 532.664 684.043 532.664C684.043 532.664 658.863 344.842 654.235 326.307Z" fill="#FCB13A"/>
<path d="M583.029 313.217V508.514" stroke="#0B334C" stroke-width="0.93" stroke-linecap="round" stroke-linejoin="round"/>
<path d="M577.184 434.917C571.592 435.337 566.111 435.715 560.658 436.079C559.036 434.175 557.191 432.089 555.387 430.297C550.55 425.467 548.229 421.897 547.32 418.999C546.411 416.101 540.092 421.589 543.531 428.057C545.237 430.945 546.589 434.029 547.558 437.241C547.558 437.241 533.087 433.181 531.34 440.923C531.34 441.593 531.54 442.248 531.913 442.804C532.287 443.36 532.817 443.792 533.437 444.045C533.437 444.045 529.117 445.837 529.368 448.245C529.62 450.653 532.57 452.655 532.57 452.655C532.57 452.655 528.907 454.223 529.047 456.715C529.187 459.207 532.57 460.803 532.57 460.803C532.57 460.803 531.074 462.455 531.955 463.953C532.683 464.977 533.679 465.781 534.833 466.275C535.988 466.769 537.256 466.934 538.498 466.753C541.63 466.389 546.733 466.865 547.684 463.953C547.684 463.953 559.54 464.877 564.168 463.155C568.502 463.547 572.85 463.897 577.184 464.219V434.917Z" fill="#CC6F49"/>
<path d="M609.551 313.637C613.05 310.573 617.49 308.8 622.134 308.611C629.726 308.219 642.686 308.611 650.026 314.435C658.555 321.267 710.649 376.468 737.031 411.846C740.153 416.008 742.226 420.863 743.074 425.998C743.922 431.134 743.52 436.399 741.902 441.345C740.284 446.292 737.498 450.775 733.781 454.414C730.063 458.052 725.524 460.739 720.548 462.245C716.355 463.472 712.059 464.311 707.713 464.751C670.858 468.657 571.089 467.789 571.089 467.789C571.089 467.789 568.055 433.909 570.222 433.475C572.389 433.041 658.709 422.625 658.709 422.625L608.376 361.194C604.726 356.822 602.122 351.671 600.765 346.136C599.408 340.601 599.333 334.829 600.547 329.26C601.839 323.236 604.989 317.771 609.551 313.637Z" fill="#FCB13A"/>
<path d="M616.361 369.454L658.571 422.429L678.815 423.311" stroke="#0B334C" stroke-width="0.93" stroke-linecap="round" stroke-linejoin="round"/>
<path d="M570.098 433.153L658.571 422.429L673.321 415.779" stroke="#0B334C" stroke-width="0.93" stroke-linecap="round" stroke-linejoin="round"/>
<path d="M570.67 463.841V467.929C570.67 467.929 663.785 467.341 669.279 466.767" stroke="#0B334C" stroke-width="0.93" stroke-linecap="round" stroke-linejoin="round"/>
<path d="M547.545 310.389C547.545 310.389 520.981 304.593 508.216 321.967C495.451 339.34 442.029 460.019 439.709 527.764C437.388 595.509 453.843 705.31 454.417 707.046C454.99 708.782 487.972 711.68 492.585 707.046C497.199 702.412 483.917 527.54 524.393 448.203C564.868 368.866 575.885 322.541 547.545 310.389Z" fill="#FCB13A"/>
<path d="M530.488 365.114C530.488 365.982 514.004 470.785 514.004 470.785" stroke="#0B334C" stroke-width="0.93" stroke-linecap="round" stroke-linejoin="round"/>
<path d="M631.601 216.268C630.225 215.696 628.75 215.402 627.26 215.402C625.77 215.402 624.295 215.696 622.919 216.268C622.919 215.288 623.017 214.308 623.045 213.342C623.272 207.847 622.388 202.363 620.444 197.219C618.501 192.075 615.54 187.378 611.737 183.409C607.935 179.441 603.37 176.283 598.318 174.126C593.266 171.969 587.831 170.857 582.338 170.857C576.846 170.857 571.411 171.969 566.358 174.126C561.306 176.283 556.742 179.441 552.939 183.409C549.137 187.378 546.175 192.075 544.232 197.219C542.289 202.363 541.405 207.847 541.632 213.342C541.632 214.294 541.716 215.246 541.758 216.142C539.681 215.28 537.397 215.052 535.192 215.487C532.986 215.923 530.959 217.001 529.364 218.587C527.769 220.174 526.679 222.197 526.23 224.402C525.781 226.608 525.993 228.897 526.84 230.982C529.203 236.736 538.207 243.497 544.037 241.355C544.666 246.633 545.968 251.808 547.91 256.755C553.083 268.263 564.407 275.501 572.67 279.463C575.724 280.934 579.069 281.697 582.457 281.697C585.846 281.697 589.19 280.934 592.244 279.463C600.493 275.487 611.748 268.263 616.907 256.713C618.816 251.793 620.103 246.652 620.738 241.411C626.568 243.497 635.544 236.764 637.879 231.024C638.985 228.232 638.947 225.116 637.771 222.353C636.596 219.589 634.378 217.403 631.601 216.268Z" fill="#CC6F49"/>
<path d="M582.638 225.382C583.413 227.141 583.744 229.064 583.603 230.982C583.481 232.806 583.214 234.618 582.806 236.4C582.384 237.913 582.117 239.466 582.009 241.033C582.009 242.293 583.072 243.735 584.176 245.345C583.187 245.171 582.239 244.815 581.38 244.295C580.417 243.69 579.672 242.793 579.255 241.733C578.899 240.69 578.765 239.584 578.863 238.486C578.942 237.544 579.082 236.609 579.283 235.686C579.684 233.928 580.198 232.197 580.821 230.506C581.478 228.854 582.023 227.23 582.638 225.382Z" fill="#0B334C"/>
<path d="M571.762 216.548C570.783 216.548 569.679 216.422 568.672 216.408C567.676 216.371 566.679 216.428 565.694 216.576C564.713 216.732 563.766 217.059 562.898 217.542C561.986 218.053 561.156 218.7 560.437 219.46H560.353C560.231 219.583 560.069 219.66 559.897 219.676C559.724 219.692 559.551 219.648 559.408 219.549C559.265 219.451 559.161 219.305 559.114 219.138C559.067 218.971 559.08 218.792 559.151 218.634C559.627 217.414 560.372 216.318 561.332 215.428C562.339 214.498 563.544 213.808 564.855 213.412C566.134 213.012 567.475 212.851 568.812 212.936C570.131 213.005 571.421 213.348 572.601 213.944C572.868 214.095 573.078 214.331 573.198 214.614C573.318 214.897 573.342 215.212 573.266 215.51C573.189 215.808 573.017 216.072 572.776 216.263C572.534 216.453 572.237 216.558 571.93 216.562L571.762 216.548Z" fill="#0B334C"/>
<path d="M592.09 213.944C593.274 213.348 594.569 213.004 595.893 212.936C597.23 212.851 598.571 213.012 599.849 213.412C601.125 213.825 602.294 214.513 603.275 215.428C604.253 216.346 605.008 217.476 605.484 218.732C605.558 218.914 605.556 219.118 605.48 219.299C605.404 219.48 605.26 219.623 605.078 219.698C604.947 219.756 604.801 219.774 604.659 219.749C604.517 219.724 604.385 219.658 604.281 219.558H604.198C603.476 218.801 602.646 218.155 601.737 217.64C600.868 217.157 599.922 216.83 598.941 216.674C597.951 216.526 596.949 216.469 595.949 216.506C594.956 216.506 593.851 216.618 592.873 216.646H592.677C592.369 216.645 592.069 216.542 591.825 216.353C591.582 216.164 591.407 215.899 591.329 215.601C591.251 215.302 591.273 214.986 591.393 214.701C591.513 214.417 591.724 214.18 591.992 214.028L592.09 213.944Z" fill="#0B334C"/>
<path d="M600.66 230.688C600.66 233.936 599.024 236.568 597.01 236.568C594.997 236.568 593.361 233.936 593.361 230.688C593.361 227.44 594.997 224.808 597.01 224.808C599.024 224.808 600.66 227.44 600.66 230.688Z" fill="#0B334C"/>
<path d="M571.312 230.688C571.312 233.936 569.676 236.568 567.663 236.568C565.649 236.568 564.014 233.936 564.014 230.688C564.014 227.44 565.635 224.808 567.663 224.808C569.69 224.808 571.312 227.44 571.312 230.688Z" fill="#0B334C"/>
<path d="M590.215 252.877C591.058 252.388 591.937 251.962 592.843 251.603C593.724 251.239 594.563 250.903 595.486 250.455C594.971 251.357 594.154 252.047 593.179 252.401C592.248 252.811 591.227 252.975 590.215 252.877Z" fill="#0B334C"/>
<path d="M581.465 249.657C582.995 249.844 584.538 249.914 586.079 249.867C587.511 249.829 588.927 249.559 590.273 249.069C591.613 248.58 592.807 247.756 593.74 246.675C594.26 246.132 594.728 245.541 595.138 244.911C595.572 244.267 595.865 243.511 596.313 242.881C596.253 243.686 596.117 244.483 595.907 245.261C595.659 246.051 595.306 246.805 594.859 247.501C594.396 248.215 593.831 248.857 593.181 249.405C592.832 249.657 592.468 249.881 592.105 250.119C591.732 250.334 591.344 250.521 590.944 250.679C589.365 251.25 587.673 251.433 586.009 251.211C584.4 251.029 582.849 250.499 581.465 249.657Z" fill="#0B334C"/>
<path d="M587.14 260.115C586.395 259.311 585.428 258.749 584.362 258.499C583.296 258.25 582.179 258.325 581.156 258.715C579.428 259.413 578.022 260.731 577.213 262.411C575.326 265.981 578.793 272.463 580.918 275.865C581.091 276.14 581.328 276.368 581.61 276.53C581.891 276.692 582.207 276.783 582.532 276.794C582.856 276.805 583.178 276.736 583.469 276.594C583.761 276.451 584.013 276.24 584.204 275.977C586.362 273.054 587.899 269.719 588.72 266.177C588.979 265.132 588.976 264.039 588.71 262.996C588.444 261.953 587.924 260.992 587.196 260.199L587.14 260.115Z" fill="#0B334C"/>
<path d="M623.407 184.25C623.293 181.39 622.136 178.67 620.155 176.606C618.173 174.543 615.506 173.277 612.656 173.05C606.965 172.574 601.275 173.568 595.585 173.932C589.894 174.296 577.101 159.932 572.725 158.126C570.361 157.258 567.836 156.923 565.327 157.143C562.819 157.363 560.39 158.134 558.213 159.4C551.698 162.886 545.196 170.474 546.79 178.23H546.455C544.885 178.082 543.301 178.268 541.808 178.775C540.315 179.283 538.946 180.101 537.79 181.176C536.635 182.25 535.72 183.558 535.105 185.012C534.49 186.466 534.189 188.033 534.221 189.612C534.221 192.104 534.403 194.582 534.613 197.06C534.959 202.688 535.588 208.295 536.5 213.86C536.947 216.114 545.099 222.988 546.567 224.85C546.79 225.169 547.093 225.425 547.446 225.591C547.799 225.757 548.188 225.828 548.577 225.797C548.965 225.766 549.339 225.634 549.661 225.414C549.983 225.193 550.241 224.893 550.411 224.542C551.712 221.994 551.474 218.27 552.075 214.896C552.802 210.864 556.06 199.944 560.967 197.34C564.616 195.422 568.895 198.922 572.376 201.218C575.857 203.514 577.032 204.97 580.765 206.468C583.703 207.529 586.858 207.846 589.948 207.392C593.038 206.937 595.969 205.726 598.479 203.864C599.642 203.014 600.995 202.462 602.42 202.255C603.845 202.049 605.299 202.194 606.655 202.678C608.011 203.163 609.229 203.972 610.201 205.035C611.174 206.098 611.873 207.383 612.236 208.778L612.446 209.492C613.229 212.152 612.446 217.626 612.194 222.022C612.114 222.495 612.165 222.98 612.342 223.426C612.519 223.872 612.815 224.26 613.197 224.549C613.579 224.838 614.033 225.016 614.51 225.064C614.987 225.112 615.467 225.028 615.899 224.822C618.025 223.724 619.879 222.163 621.323 220.254C622.767 218.345 623.766 216.136 624.246 213.79C626.511 202.702 623.799 195.856 623.407 184.25Z" fill="#0B334C"/>
<path d="M601.052 164.426C598.76 161.038 592.664 154.626 578.864 153.101C572.291 152.401 565.676 153.972 560.116 157.552C547.197 165.812 523.457 185.412 521.793 218.634C521.535 224.599 523.6 230.432 527.553 234.902C533.379 241.615 539.763 247.82 546.638 253.451C546.638 253.451 530.21 206.244 574.768 178.468C640.088 192.006 617.257 255.229 617.257 255.229C617.257 255.229 639.627 244.267 640.088 225.13C640.801 196.136 616.614 164.258 601.052 164.426Z" fill="#FCB13A"/>
<path d="M574.795 178.468C574.795 178.468 601.289 172.532 601.877 165C602.338 159.4 596.046 160.156 593.488 162.718C590.929 165.28 574.795 178.468 574.795 178.468Z" fill="#FDC56D"/>
<path d="M540.919 235.35C539.501 227.509 540.016 219.441 542.421 211.845C544.826 204.25 549.048 197.358 554.719 191.768" stroke="#0B334C" stroke-width="0.93" stroke-linecap="round" stroke-linejoin="round"/>
<path d="M600.744 172.168C600.744 172.168 621.366 180.918 627.476 201.568" stroke="#0B334C" stroke-width="0.93" stroke-linecap="round" stroke-linejoin="round"/>
<path d="M207.493 454.573C207.493 454.573 160.069 514.8 153.078 599.345H378.679C378.679 599.345 370.584 501.486 321.356 455.735L207.493 454.573Z" fill="#00A2DD"/>
<path d="M223.406 458.633C223.406 459.501 217.911 534.232 170.193 531.012" stroke="#0B334C" stroke-width="0.93" stroke-linecap="round" stroke-linejoin="round"/>
<path d="M158.631 597.021L174.541 531.012" stroke="#0B334C" stroke-width="0.93" stroke-linecap="round" stroke-linejoin="round"/>
<path d="M392.898 445.823C392.465 440.615 391.948 435.407 391.29 430.213C389.221 414.38 386.663 398.798 383.125 383.566C381.532 375.908 379.574 368.376 377.715 360.816C375.855 353.256 373.674 345.808 371.437 338.416C362.843 309.236 352.487 280.605 340.427 252.681L338.889 248.985C338.153 247.195 337.215 245.494 336.093 243.917L329.102 234.188C329.102 234.188 318.462 208.848 316.589 208.988C314.715 209.128 312.968 222.47 316.393 231.598C313.498 233.765 311.112 236.541 309.403 239.732C308.131 242.897 307.171 246.179 306.536 249.531C306.316 250.578 306.466 251.668 306.961 252.616C307.456 253.564 308.265 254.31 309.249 254.725C312.283 255.985 316.239 257.973 316.743 259.849C317.498 262.915 318.812 268.179 318.812 268.179C321.608 279.239 326.739 303.431 326.823 303.669C327.28 305.025 327.329 306.485 326.963 307.869C327.033 308.471 327.089 309.073 327.131 309.661C327.55 314.519 322.825 318.159 318.462 318.355C317.563 318.399 316.663 318.281 315.806 318.005C314.082 318.802 312.123 318.926 310.311 318.355C310.899 323.133 311.267 327.935 311.416 332.76C315.75 364.246 317.721 396.04 319.805 427.791C325.397 439.761 331.423 451.591 337.98 463.253L340.776 467.957C342.8 471.429 345.725 474.287 349.24 476.229C352.755 478.172 356.729 479.125 360.742 478.989C361.769 479.137 362.808 479.193 363.845 479.157C369.625 478.903 375.215 477.016 379.968 473.713C384.721 470.411 388.443 465.828 390.703 460.495L391.388 459.949C391.29 459.781 391.207 459.613 391.123 459.445C392.731 455.096 393.338 450.44 392.898 445.823Z" fill="#ED8D5D"/>
<path d="M345.419 425.915L342.539 393.478L341.672 418.817" stroke="#0B334C" stroke-width="0.93" stroke-linecap="round" stroke-linejoin="round"/>
<path d="M342.498 393.506L318.604 429.093L314.102 418.929L300.442 388.2L296.332 295.801C312.285 296.627 319.653 299.119 326.517 301.401C329.146 313.581 332.767 330.534 334.906 342.728C335.172 344.128 335.409 345.458 335.647 346.816C338.332 362.104 340.666 377.406 342.442 392.652C342.484 393.254 342.498 393.506 342.498 393.506Z" fill="#1F5B99"/>
<path d="M314.2 418.383L295.982 365.114L313.333 425.621L314.2 418.383Z" fill="#0B334C"/>
<path d="M296.765 297.131C284.07 315.989 270.117 322.905 259.016 322.905C254.099 322.988 249.287 321.475 245.3 318.593C236.352 311.901 233.85 297.131 233.85 297.131H236.52C239.371 297.131 242.106 295.997 244.122 293.978C246.139 291.959 247.272 289.22 247.272 286.365V256.041L252.514 255.691L286.069 253.437V286.365C286.066 289.212 287.19 291.944 289.195 293.962C291.2 295.98 293.922 297.12 296.765 297.131Z" fill="#ED8D5D"/>
<path d="M247.242 263.531V271.175C250.405 273.462 253.764 275.463 257.281 277.153C260.116 278.518 263.222 279.227 266.368 279.227C269.515 279.227 272.621 278.518 275.456 277.153C279.176 275.397 282.708 273.268 285.998 270.797V263.167C282.701 265.636 279.171 267.774 275.456 269.551C272.619 270.91 269.514 271.615 266.368 271.615C263.223 271.615 260.118 270.91 257.281 269.551C253.753 267.866 250.392 265.85 247.242 263.531Z" fill="#0B334C"/>
<path d="M313.614 427.651C316.214 434.875 326.924 457.471 326.924 457.471H203.414C203.414 457.471 219.618 427.931 219.325 421.281C219.031 414.631 191.866 331.514 195.333 320.483C198.8 309.451 204.113 301.611 212.74 299.315C221.366 297.019 234.872 297.075 234.872 297.075C234.872 297.075 245.931 321.645 266.469 319.615C287.008 317.585 296.235 295.815 296.235 295.815C296.235 295.815 315.613 294.919 326.616 301.513C326.714 302.045 326.84 302.563 326.952 303.081C329.832 316.283 332.544 329.498 334.893 342.742C331.901 351.492 311.069 420.497 313.614 427.651Z" fill="#1F5B99"/>
<path d="M262.148 321.393V357.876" stroke="#0B334C" stroke-width="0.93" stroke-linecap="round" stroke-linejoin="round"/>
<path d="M270.242 330.94C270.242 331.455 270.09 331.959 269.804 332.387C269.518 332.815 269.112 333.149 268.637 333.346C268.162 333.543 267.639 333.595 267.134 333.494C266.63 333.394 266.166 333.146 265.803 332.782C265.439 332.418 265.191 331.954 265.091 331.448C264.991 330.943 265.042 330.42 265.239 329.944C265.436 329.468 265.769 329.061 266.197 328.775C266.624 328.489 267.127 328.336 267.642 328.336C268.331 328.336 268.993 328.611 269.48 329.099C269.968 329.588 270.242 330.25 270.242 330.94V330.94Z" stroke="#0B334C" stroke-width="0.93" stroke-linecap="round" stroke-linejoin="round"/>
<path d="M269.81 344.73C269.81 345.245 269.658 345.749 269.372 346.177C269.086 346.605 268.68 346.939 268.205 347.136C267.73 347.333 267.207 347.385 266.703 347.284C266.198 347.184 265.735 346.936 265.371 346.572C265.007 346.207 264.76 345.743 264.659 345.238C264.559 344.733 264.611 344.21 264.807 343.734C265.004 343.258 265.337 342.851 265.765 342.565C266.193 342.279 266.696 342.126 267.21 342.126C267.551 342.126 267.89 342.194 268.205 342.325C268.521 342.455 268.807 342.647 269.049 342.889C269.29 343.131 269.482 343.418 269.612 343.734C269.743 344.05 269.81 344.388 269.81 344.73Z" stroke="#0B334C" stroke-width="0.93" stroke-linecap="round" stroke-linejoin="round"/>
<path d="M269.377 358.52C269.377 359.035 269.224 359.539 268.939 359.967C268.653 360.395 268.247 360.729 267.771 360.926C267.296 361.123 266.773 361.175 266.269 361.074C265.765 360.974 265.301 360.726 264.937 360.361C264.574 359.997 264.326 359.533 264.226 359.028C264.125 358.523 264.177 357.999 264.374 357.524C264.571 357.048 264.904 356.641 265.332 356.355C265.759 356.069 266.262 355.916 266.776 355.916C267.118 355.916 267.456 355.983 267.771 356.114C268.087 356.245 268.374 356.437 268.615 356.679C268.857 356.921 269.048 357.208 269.179 357.524C269.31 357.84 269.377 358.178 269.377 358.52V358.52Z" stroke="#0B334C" stroke-width="0.93" stroke-linecap="round" stroke-linejoin="round"/>
<path d="M255.508 399.568C255.508 399.568 274.005 388.844 280.674 377.854L255.508 399.568Z" fill="#0B334C"/>
<path d="M265.517 404.216C265.061 404.165 264.619 404.025 264.217 403.804C263.814 403.582 263.46 403.283 263.173 402.925C262.886 402.566 262.672 402.154 262.544 401.712C262.416 401.271 262.377 400.809 262.427 400.352C262.427 400.352 262.427 400.268 262.427 400.226V400.324C262.209 400.728 261.913 401.086 261.556 401.376C261.199 401.665 260.789 401.882 260.348 402.012C259.908 402.142 259.446 402.183 258.989 402.134C258.533 402.085 258.09 401.945 257.688 401.724C257.283 401.504 256.925 401.206 256.636 400.848C256.346 400.489 256.131 400.077 256.001 399.635C255.871 399.192 255.829 398.729 255.879 398.27C255.928 397.812 256.068 397.368 256.289 396.964L256.373 396.824C255.696 397.459 254.794 397.799 253.867 397.77C252.939 397.741 252.061 397.345 251.424 396.67C251.109 396.336 250.863 395.943 250.7 395.513C250.537 395.084 250.46 394.626 250.474 394.167C250.489 393.707 250.594 393.256 250.783 392.837C250.972 392.418 251.242 392.041 251.578 391.728L251.662 391.644C250.873 392.128 249.925 392.28 249.024 392.068C248.123 391.856 247.343 391.296 246.852 390.51C246.364 389.722 246.207 388.773 246.417 387.87C246.626 386.967 247.185 386.185 247.971 385.694L248.124 385.596H247.999C247.153 385.98 246.19 386.014 245.319 385.688C244.449 385.363 243.744 384.705 243.357 383.86C242.973 383.015 242.94 382.052 243.266 381.184C243.591 380.315 244.247 379.61 245.09 379.226C245.936 378.908 246.871 378.928 247.702 379.283C248.532 379.637 249.194 380.299 249.55 381.13C249.907 381.918 249.961 382.81 249.703 383.636C249.446 384.463 248.894 385.165 248.152 385.61C248.93 385.216 249.826 385.129 250.665 385.365C251.503 385.6 252.223 386.143 252.682 386.884C253.121 387.588 253.295 388.424 253.175 389.245C253.054 390.065 252.647 390.816 252.025 391.364C252.711 390.917 253.532 390.726 254.344 390.823C255.157 390.921 255.909 391.3 256.471 391.896C256.988 392.454 257.31 393.166 257.388 393.923C257.466 394.681 257.297 395.443 256.905 396.096C257.446 395.556 258.149 395.208 258.906 395.104C259.663 395.001 260.433 395.147 261.099 395.522C261.721 395.866 262.224 396.392 262.539 397.03C262.854 397.668 262.966 398.388 262.861 399.092C263.185 398.461 263.693 397.944 264.317 397.609C264.941 397.274 265.652 397.137 266.356 397.216C267.05 397.297 267.705 397.582 268.237 398.036C268.77 398.489 269.156 399.09 269.348 399.764C269.393 399.076 269.64 398.416 270.058 397.869C270.476 397.321 271.046 396.908 271.697 396.684C272.363 396.459 273.081 396.439 273.759 396.626C274.436 396.813 275.043 397.199 275.5 397.734C275.227 397.069 275.165 396.336 275.322 395.635C275.48 394.933 275.849 394.297 276.38 393.814C276.957 393.283 277.696 392.962 278.478 392.903C279.259 392.845 280.037 393.052 280.687 393.492C280.121 392.927 279.766 392.185 279.682 391.39C279.598 390.594 279.79 389.794 280.225 389.124C280.685 388.402 281.393 387.875 282.215 387.643C283.038 387.41 283.917 387.489 284.685 387.864C283.947 387.426 283.396 386.732 283.138 385.913C282.88 385.094 282.933 384.208 283.287 383.426C283.472 383.005 283.738 382.624 284.07 382.306C284.403 381.987 284.794 381.738 285.223 381.572C285.651 381.405 286.108 381.325 286.568 381.336C287.028 381.346 287.48 381.448 287.901 381.634C288.32 381.82 288.699 382.088 289.016 382.421C289.332 382.754 289.579 383.147 289.744 383.576C289.909 384.005 289.988 384.462 289.976 384.921C289.965 385.381 289.863 385.834 289.676 386.254C289.49 386.674 289.223 387.053 288.89 387.37C288.558 387.687 288.166 387.935 287.737 388.1C287.309 388.265 286.852 388.344 286.393 388.332C285.934 388.321 285.482 388.218 285.063 388.032H284.937L285.091 388.13C285.478 388.379 285.812 388.701 286.074 389.079C286.336 389.458 286.521 389.884 286.619 390.334C286.716 390.784 286.724 391.249 286.642 391.702C286.559 392.155 286.389 392.587 286.139 392.974C285.891 393.36 285.569 393.693 285.192 393.954C284.815 394.215 284.391 394.399 283.942 394.495C283.494 394.591 283.031 394.598 282.581 394.515C282.13 394.431 281.7 394.26 281.316 394.01L281.428 394.136C282.052 394.821 282.379 395.726 282.337 396.653C282.295 397.58 281.888 398.452 281.204 399.078C280.52 399.703 279.615 400.03 278.69 399.988C277.765 399.946 276.894 399.538 276.269 398.854L276.171 398.756L276.255 398.952C276.552 399.83 276.49 400.79 276.081 401.623C275.672 402.455 274.95 403.09 274.073 403.39C273.64 403.54 273.182 403.602 272.724 403.574C272.267 403.546 271.819 403.428 271.407 403.226C270.996 403.025 270.628 402.744 270.325 402.399C270.021 402.055 269.789 401.654 269.641 401.22C269.61 401.148 269.586 401.073 269.572 400.996C269.572 400.996 269.572 401.108 269.572 401.178C269.475 402.032 269.069 402.82 268.429 403.393C267.79 403.967 266.962 404.284 266.104 404.286L265.517 404.216ZM287.761 381.676C286.881 381.388 286.151 380.761 285.731 379.934C285.312 379.108 285.237 378.148 285.524 377.266C285.667 376.828 285.894 376.422 286.193 376.073C286.493 375.723 286.858 375.436 287.269 375.227C287.679 375.019 288.127 374.894 288.585 374.86C289.044 374.825 289.505 374.882 289.942 375.026C290.822 375.314 291.552 375.941 291.972 376.768C292.391 377.594 292.466 378.554 292.179 379.436C291.95 380.139 291.504 380.751 290.907 381.186C290.309 381.621 289.59 381.856 288.852 381.858C288.48 381.859 288.112 381.798 287.761 381.676ZM240.533 377.196C240.378 376.763 240.311 376.304 240.335 375.845C240.359 375.386 240.474 374.937 240.673 374.522C240.872 374.108 241.151 373.738 241.494 373.433C241.837 373.127 242.238 372.893 242.672 372.744C243.104 372.589 243.562 372.522 244.021 372.546C244.479 372.571 244.928 372.686 245.342 372.885C245.755 373.084 246.125 373.364 246.43 373.707C246.735 374.051 246.969 374.451 247.118 374.886C247.272 375.319 247.339 375.778 247.315 376.237C247.291 376.696 247.176 377.145 246.977 377.559C246.778 377.974 246.499 378.344 246.156 378.649C245.813 378.955 245.413 379.189 244.979 379.338C244.607 379.476 244.214 379.547 243.818 379.548C243.095 379.545 242.39 379.316 241.802 378.895C241.213 378.474 240.77 377.88 240.533 377.196ZM289.928 375.012C289.04 374.784 288.277 374.216 287.801 373.431C287.326 372.646 287.176 371.706 287.384 370.812C287.612 369.924 288.179 369.16 288.963 368.686C289.748 368.212 290.687 368.066 291.578 368.278C292.467 368.503 293.232 369.071 293.706 369.857C294.18 370.643 294.324 371.585 294.109 372.478C293.921 373.234 293.486 373.906 292.873 374.385C292.259 374.865 291.503 375.125 290.725 375.124C290.456 375.117 290.189 375.079 289.928 375.012ZM238.366 370.294C238.116 369.401 238.231 368.445 238.684 367.637C239.138 366.829 239.893 366.233 240.784 365.982C241.227 365.857 241.69 365.82 242.146 365.875C242.603 365.93 243.044 366.075 243.444 366.301C243.845 366.528 244.196 366.831 244.479 367.195C244.762 367.558 244.969 367.974 245.09 368.418C245.34 369.311 245.225 370.267 244.772 371.075C244.318 371.883 243.563 372.479 242.672 372.73C242.366 372.812 242.051 372.855 241.735 372.856C240.971 372.856 240.228 372.606 239.619 372.143C239.011 371.681 238.57 371.031 238.366 370.294ZM291.62 368.208C291.167 368.124 290.734 367.951 290.348 367.699C289.962 367.447 289.629 367.121 289.369 366.74C289.109 366.359 288.927 365.93 288.834 365.478C288.74 365.026 288.737 364.559 288.824 364.106C288.907 363.651 289.081 363.217 289.333 362.829C289.586 362.441 289.913 362.107 290.295 361.847C290.677 361.586 291.107 361.404 291.56 361.312C292.013 361.219 292.48 361.217 292.934 361.306C293.387 361.39 293.82 361.563 294.206 361.815C294.592 362.067 294.925 362.393 295.185 362.774C295.445 363.156 295.627 363.585 295.72 364.037C295.814 364.489 295.817 364.955 295.73 365.408C295.569 366.199 295.14 366.909 294.516 367.419C293.892 367.93 293.111 368.208 292.305 368.208C292.077 368.228 291.848 368.228 291.62 368.208ZM236.618 363.322C236.512 362.873 236.497 362.408 236.572 361.953C236.648 361.499 236.812 361.063 237.057 360.673C237.301 360.282 237.621 359.944 237.996 359.678C238.372 359.412 238.797 359.223 239.246 359.122C239.695 359.019 240.16 359.005 240.615 359.082C241.069 359.16 241.503 359.326 241.893 359.572C242.283 359.818 242.62 360.138 242.886 360.515C243.151 360.892 243.34 361.318 243.441 361.768C243.544 362.217 243.558 362.681 243.482 363.136C243.406 363.59 243.241 364.024 242.997 364.414C242.753 364.804 242.434 365.143 242.059 365.409C241.684 365.676 241.261 365.866 240.812 365.968C240.555 366.023 240.292 366.051 240.029 366.052C239.236 366.052 238.465 365.782 237.845 365.286C237.225 364.79 236.792 364.097 236.618 363.322ZM292.976 361.334C292.065 361.183 291.251 360.677 290.711 359.927C290.172 359.177 289.951 358.243 290.096 357.33C290.167 356.876 290.328 356.44 290.567 356.048C290.807 355.656 291.121 355.315 291.493 355.045C291.864 354.774 292.285 354.58 292.731 354.472C293.178 354.365 293.641 354.346 294.095 354.418C295.01 354.56 295.832 355.059 296.38 355.808C296.928 356.556 297.157 357.491 297.017 358.408C296.887 359.233 296.468 359.985 295.836 360.529C295.203 361.073 294.397 361.373 293.563 361.376C293.367 361.38 293.17 361.366 292.976 361.334ZM235.178 356.322C235.01 355.411 235.211 354.47 235.735 353.706C236.259 352.943 237.064 352.418 237.974 352.248C238.425 352.163 238.888 352.168 239.337 352.263C239.786 352.358 240.212 352.541 240.59 352.801C240.968 353.061 241.291 353.394 241.54 353.78C241.789 354.165 241.96 354.596 242.043 355.048C242.21 355.96 242.01 356.9 241.486 357.664C240.961 358.428 240.156 358.952 239.246 359.122C239.037 359.143 238.826 359.143 238.617 359.122C237.809 359.126 237.025 358.848 236.398 358.338C235.77 357.827 235.339 357.115 235.178 356.322ZM294.039 354.404C293.582 354.35 293.141 354.207 292.74 353.982C292.339 353.757 291.986 353.456 291.702 353.094C291.417 352.733 291.207 352.319 291.082 351.875C290.958 351.432 290.922 350.969 290.977 350.512C291.092 349.59 291.567 348.75 292.297 348.176C293.028 347.602 293.955 347.339 294.877 347.446C295.798 347.562 296.635 348.038 297.206 348.769C297.778 349.501 298.036 350.43 297.925 351.352C297.823 352.201 297.414 352.983 296.775 353.551C296.136 354.118 295.312 354.432 294.458 354.432L294.039 354.404ZM234.003 349.294C233.871 348.378 234.105 347.446 234.655 346.702C235.205 345.957 236.026 345.46 236.939 345.318C237.857 345.182 238.791 345.414 239.538 345.965C240.284 346.516 240.783 347.34 240.924 348.258C241.06 349.175 240.828 350.109 240.277 350.854C239.727 351.6 238.904 352.096 237.988 352.234H237.457C236.626 352.235 235.822 351.94 235.19 351.401C234.557 350.862 234.136 350.115 234.003 349.294ZM294.864 347.446C293.942 347.358 293.092 346.907 292.5 346.194C291.908 345.481 291.622 344.562 291.704 343.638C291.746 343.181 291.878 342.736 292.092 342.329C292.306 341.922 292.597 341.561 292.951 341.267C293.304 340.974 293.711 340.752 294.15 340.616C294.588 340.48 295.049 340.432 295.507 340.474C295.965 340.515 296.41 340.646 296.817 340.859C297.224 341.073 297.585 341.365 297.879 341.719C298.173 342.073 298.393 342.482 298.529 342.922C298.664 343.362 298.711 343.824 298.666 344.282C298.586 345.149 298.187 345.955 297.546 346.542C296.905 347.13 296.068 347.457 295.199 347.46H294.864V347.446ZM233.053 342.238C232.996 341.782 233.03 341.319 233.153 340.876C233.276 340.433 233.485 340.019 233.768 339.657C234.051 339.296 234.403 338.994 234.803 338.769C235.204 338.544 235.645 338.4 236.101 338.346C236.556 338.29 237.018 338.324 237.461 338.447C237.903 338.57 238.317 338.779 238.678 339.063C239.039 339.346 239.341 339.699 239.566 340.1C239.79 340.5 239.934 340.942 239.987 341.398C240.098 342.315 239.843 343.238 239.278 343.967C238.712 344.696 237.882 345.171 236.967 345.29H236.548C235.694 345.297 234.866 344.991 234.222 344.428C233.578 343.866 233.162 343.087 233.053 342.238ZM295.507 340.53C295.048 340.5 294.6 340.379 294.188 340.175C293.776 339.97 293.408 339.686 293.107 339.338C292.805 338.991 292.575 338.587 292.431 338.15C292.286 337.713 292.229 337.252 292.263 336.792C292.331 335.867 292.762 335.007 293.461 334.398C294.16 333.79 295.072 333.483 295.996 333.544C296.92 333.613 297.779 334.044 298.387 334.744C298.995 335.444 299.301 336.357 299.24 337.282C299.175 338.176 298.771 339.011 298.111 339.615C297.45 340.22 296.583 340.547 295.688 340.53H295.451H295.507ZM232.284 335.252C232.237 334.795 232.282 334.334 232.414 333.894C232.547 333.454 232.765 333.045 233.056 332.689C233.347 332.334 233.705 332.04 234.11 331.824C234.515 331.608 234.959 331.474 235.415 331.43C235.872 331.384 236.333 331.429 236.772 331.561C237.212 331.694 237.62 331.912 237.975 332.204C238.33 332.495 238.624 332.854 238.839 333.259C239.055 333.665 239.189 334.109 239.232 334.566C239.279 335.023 239.234 335.484 239.101 335.923C238.969 336.362 238.75 336.77 238.459 337.124C238.168 337.478 237.81 337.771 237.405 337.986C237 338.2 236.557 338.332 236.101 338.374H235.751C234.88 338.371 234.041 338.042 233.4 337.451C232.758 336.861 232.36 336.052 232.284 335.182V335.252ZM295.982 333.53C295.525 333.509 295.076 333.397 294.662 333.202C294.248 333.006 293.876 332.731 293.568 332.392C293.26 332.052 293.023 331.656 292.868 331.224C292.714 330.792 292.646 330.334 292.668 329.877C292.688 329.417 292.798 328.967 292.993 328.55C293.187 328.134 293.462 327.76 293.801 327.45C294.14 327.141 294.537 326.901 294.969 326.746C295.401 326.59 295.859 326.522 296.318 326.545C296.777 326.566 297.227 326.678 297.643 326.874C298.059 327.07 298.432 327.347 298.741 327.687C299.05 328.028 299.289 328.426 299.444 328.86C299.599 329.293 299.668 329.753 299.645 330.213C299.602 331.111 299.215 331.959 298.564 332.579C297.913 333.2 297.048 333.545 296.15 333.544H295.982V333.53ZM231.669 328.183C231.634 327.724 231.691 327.263 231.834 326.826C231.978 326.389 232.207 325.985 232.507 325.636C232.806 325.288 233.172 325.002 233.583 324.795C233.993 324.588 234.44 324.464 234.898 324.431C235.356 324.396 235.817 324.453 236.253 324.597C236.689 324.741 237.093 324.969 237.441 325.27C237.789 325.57 238.075 325.936 238.281 326.347C238.488 326.758 238.612 327.206 238.645 327.665C238.711 328.59 238.408 329.504 237.803 330.207C237.198 330.91 236.34 331.345 235.415 331.417H235.164C234.271 331.415 233.412 331.072 232.763 330.458C232.113 329.844 231.722 329.005 231.669 328.113V328.183ZM296.318 326.531C295.858 326.518 295.406 326.415 294.987 326.227C294.568 326.039 294.19 325.771 293.874 325.437C293.559 325.102 293.312 324.709 293.148 324.28C292.985 323.85 292.907 323.392 292.92 322.933C292.933 322.472 293.036 322.018 293.225 321.597C293.413 321.176 293.682 320.797 294.018 320.481C294.353 320.165 294.747 319.918 295.178 319.755C295.608 319.592 296.067 319.516 296.527 319.531C297.452 319.56 298.327 319.955 298.962 320.629C299.596 321.304 299.937 322.203 299.911 323.129C299.885 324.04 299.506 324.905 298.853 325.54C298.2 326.176 297.326 326.531 296.415 326.531H296.318ZM231.221 321.113C231.195 320.653 231.259 320.192 231.411 319.758C231.562 319.323 231.798 318.922 232.105 318.579C232.411 318.235 232.783 317.956 233.197 317.757C233.612 317.557 234.061 317.442 234.521 317.417C235.447 317.371 236.354 317.694 237.043 318.316C237.732 318.938 238.147 319.807 238.198 320.735C238.247 321.661 237.928 322.569 237.309 323.259C236.69 323.95 235.823 324.366 234.898 324.417H234.702C233.798 324.417 232.929 324.065 232.279 323.435C231.63 322.806 231.25 321.948 231.221 321.043V321.113ZM296.513 319.517C296.055 319.513 295.602 319.419 295.18 319.239C294.758 319.06 294.376 318.799 294.055 318.471C293.734 318.143 293.481 317.755 293.31 317.329C293.139 316.903 293.054 316.448 293.06 315.989C293.065 315.529 293.161 315.075 293.342 314.652C293.523 314.23 293.785 313.847 294.113 313.526C294.442 313.205 294.83 312.952 295.256 312.781C295.683 312.61 296.138 312.525 296.597 312.531C297.056 312.534 297.509 312.629 297.931 312.808C298.352 312.988 298.735 313.249 299.056 313.576C299.377 313.904 299.63 314.292 299.8 314.718C299.971 315.144 300.056 315.6 300.051 316.059C300.04 316.981 299.667 317.862 299.013 318.511C298.359 319.161 297.476 319.527 296.555 319.531L296.513 319.517ZM230.9 313.931C230.883 313.471 230.957 313.013 231.117 312.581C231.277 312.15 231.521 311.755 231.834 311.418C232.147 311.082 232.523 310.81 232.941 310.619C233.359 310.428 233.81 310.321 234.269 310.305C235.197 310.278 236.097 310.619 236.775 311.253C237.453 311.888 237.854 312.764 237.89 313.693C237.92 314.619 237.583 315.519 236.951 316.196C236.319 316.873 235.445 317.272 234.521 317.305H234.395C233.489 317.305 232.619 316.954 231.967 316.324C231.315 315.695 230.932 314.837 230.9 313.931ZM293.074 308.947C293.074 308.018 293.439 307.127 294.091 306.467C294.743 305.806 295.628 305.43 296.555 305.419C297.015 305.415 297.47 305.503 297.896 305.676C298.322 305.85 298.709 306.106 299.035 306.43C299.361 306.754 299.62 307.139 299.797 307.564C299.974 307.989 300.065 308.445 300.065 308.905C300.068 309.364 299.981 309.819 299.809 310.244C299.636 310.669 299.382 311.056 299.06 311.383C298.738 311.709 298.354 311.969 297.932 312.147C297.509 312.324 297.056 312.417 296.597 312.419C295.675 312.426 294.787 312.068 294.127 311.423C293.467 310.778 293.089 309.898 293.074 308.975V308.947ZM230.718 306.847C230.71 306.387 230.794 305.931 230.962 305.503C231.131 305.076 231.383 304.686 231.702 304.355C232.021 304.025 232.402 303.761 232.824 303.579C233.245 303.396 233.698 303.298 234.157 303.291C234.616 303.283 235.072 303.367 235.499 303.536C235.926 303.705 236.315 303.956 236.645 304.276C236.975 304.596 237.239 304.978 237.421 305.4C237.603 305.821 237.701 306.275 237.708 306.735C237.716 307.194 237.633 307.651 237.464 308.078C237.295 308.506 237.044 308.896 236.724 309.226C236.405 309.556 236.024 309.82 235.602 310.003C235.181 310.186 234.728 310.283 234.269 310.291C233.356 310.306 232.473 309.963 231.81 309.335C231.146 308.707 230.754 307.844 230.718 306.931V306.847ZM292.976 302.003C292.965 301.543 293.044 301.086 293.21 300.657C293.375 300.228 293.623 299.836 293.94 299.503C294.257 299.17 294.636 298.903 295.056 298.717C295.476 298.531 295.928 298.43 296.387 298.419C296.846 298.408 297.303 298.487 297.732 298.653C298.16 298.819 298.551 299.067 298.884 299.384C299.216 299.702 299.483 300.081 299.669 300.502C299.855 300.922 299.956 301.375 299.967 301.835C299.978 302.294 299.898 302.752 299.733 303.181C299.568 303.61 299.319 304.002 299.003 304.335C298.686 304.667 298.306 304.934 297.887 305.12C297.467 305.307 297.014 305.408 296.555 305.419H296.471C295.563 305.419 294.691 305.066 294.039 304.434C293.386 303.801 293.005 302.94 292.976 302.031V302.003ZM234.129 303.277C233.67 303.268 233.217 303.168 232.797 302.984C232.376 302.799 231.996 302.534 231.678 302.202C231.36 301.871 231.11 301.48 230.943 301.052C230.776 300.623 230.695 300.166 230.704 299.707C230.713 299.247 230.812 298.794 230.996 298.373C231.181 297.952 231.446 297.571 231.777 297.252C232.108 296.934 232.498 296.684 232.926 296.516C233.354 296.349 233.81 296.268 234.269 296.277C234.728 296.286 235.181 296.386 235.601 296.57C236.022 296.754 236.402 297.02 236.72 297.351C237.038 297.683 237.288 298.074 237.455 298.502C237.622 298.93 237.704 299.387 237.694 299.847C237.676 300.763 237.3 301.635 236.646 302.277C235.993 302.918 235.114 303.277 234.199 303.277H234.171H234.129Z" fill="#FCB13A"/>
<path d="M215.87 500.129L215.66 499.793C207.76 487.473 199.721 474.677 192.213 461.853C184.705 449.029 177.212 436.121 170.165 423.073C166.572 416.396 163.035 409.69 159.623 402.97C160.518 402.214 161.427 401.472 162.336 400.73C164.531 398.938 166.768 397.16 168.991 395.382C166.782 392.904 164.573 390.412 162.336 387.948C152.898 377.476 143.391 366.668 135.366 354.908C133.031 356.966 130.682 359.038 128.375 361.138C124.796 364.433 121.24 367.755 117.708 371.106C113.464 375.162 110.733 380.549 109.97 386.374C109.207 392.198 110.457 398.109 113.513 403.124L113.625 403.306C117.554 410.054 121.804 416.577 125.929 423.171L129.773 428.981C132.793 433.517 135.813 438.011 138.931 442.449C156.327 467.465 175.223 491.402 195.513 514.128L196.282 515.01C198.337 517.288 201.164 518.719 204.214 519.027C207.264 519.334 210.319 518.496 212.787 516.674C215.254 514.853 216.957 512.178 217.566 509.17C218.174 506.161 217.644 503.034 216.079 500.395C216.016 500.301 215.946 500.212 215.87 500.129Z" fill="#ED8D5D"/>
<path d="M213.2 499.135C213.2 499.135 234.899 508.318 234.507 511.832C234.116 515.346 222.567 514.786 222.567 514.786C222.567 514.786 237.765 535.786 235.863 538.32C233.962 540.854 220.484 524.74 220.484 524.74C220.484 524.74 228.733 540.056 226.482 542.814C224.231 545.572 213.2 526.252 213.2 526.252C213.2 526.252 217.828 543.36 214.206 544.606C210.585 545.852 206.097 524.908 206.097 524.908C206.097 524.908 206.643 537.508 203.916 537.914C201.19 538.32 194.549 510.306 194.549 510.306L213.2 499.135Z" fill="#ED8D5D"/>
<path d="M151.402 395.214L159.204 403.04L156.897 395.802" stroke="#0B334C" stroke-width="0.93" stroke-linecap="round" stroke-linejoin="round"/>
<path d="M205.469 370.616L225.14 356.994L207.216 377.56L205.469 370.616Z" fill="#0B334C"/>
<path d="M127.41 358.31L165.579 400.436L231.5 350.918L215.883 298.811C215.883 298.811 199.833 303.151 190.717 310.963C181.601 318.775 127.41 358.31 127.41 358.31Z" fill="#1F5B99"/>
<path d="M318.226 224.332C316.045 229.708 307.629 236.008 302.19 234.006C301.594 238.928 300.378 243.754 298.569 248.369C295.703 254.307 291.372 259.414 285.986 263.209C282.676 265.661 279.136 267.785 275.416 269.551C272.578 270.909 269.473 271.615 266.328 271.615C263.183 271.615 260.078 270.909 257.24 269.551C256.429 269.159 255.591 268.739 254.738 268.263C252.124 266.899 249.619 265.335 247.244 263.587C241.654 259.714 237.168 254.45 234.227 248.313C232.447 243.721 231.249 238.924 230.662 234.034C226.859 235.434 221.616 232.732 218.079 229.176C216.649 227.792 215.496 226.148 214.682 224.332C213.796 222.168 213.65 219.772 214.264 217.517C214.878 215.261 216.22 213.272 218.079 211.858L218.359 211.648L219.03 211.214C219.267 211.074 219.505 210.934 219.743 210.822L220.498 210.472C220.822 210.337 221.153 210.22 221.49 210.122C223.253 209.587 225.127 209.539 226.915 209.982C227.49 210.099 228.052 210.273 228.593 210.5C228.593 209.59 228.509 208.666 228.481 207.7C228.393 205.53 228.496 203.356 228.789 201.204C230.089 191.659 234.956 182.962 242.408 176.868C249.86 170.775 259.342 167.737 268.942 168.367C278.542 168.997 287.547 173.249 294.14 180.266C300.733 187.282 304.424 196.54 304.469 206.174C304.469 206.706 304.469 207.252 304.469 207.798C304.469 208.68 304.469 209.576 304.357 210.458C305.88 209.833 307.525 209.565 309.166 209.674H309.74C310.259 209.737 310.774 209.84 311.278 209.982C311.677 210.087 312.069 210.218 312.452 210.374C313.75 210.906 314.93 211.69 315.924 212.681C316.918 213.672 317.706 214.851 318.243 216.148C318.779 217.446 319.054 218.837 319.052 220.242C319.049 221.646 318.768 223.036 318.226 224.332Z" fill="#ED8D5D"/>
<path d="M278.477 239.438C278.474 241.224 279 242.971 279.99 244.458C280.979 245.945 282.386 247.104 284.034 247.79C285.681 248.476 287.495 248.656 289.245 248.31C290.995 247.963 292.604 247.104 293.866 245.842C295.129 244.579 295.989 242.97 296.338 241.218C296.687 239.466 296.509 237.65 295.827 235.999C295.145 234.348 293.989 232.937 292.506 231.944C291.023 230.952 289.279 230.422 287.494 230.422C285.105 230.422 282.814 231.371 281.123 233.061C279.432 234.752 278.48 237.045 278.477 239.438Z" fill="#E6794E"/>
<path d="M236.395 239.438C236.395 241.226 236.925 242.974 237.918 244.46C238.912 245.946 240.323 247.104 241.974 247.785C243.626 248.467 245.442 248.643 247.192 248.29C248.943 247.937 250.55 247.071 251.809 245.803C253.068 244.534 253.922 242.92 254.264 241.165C254.605 239.409 254.419 237.592 253.728 235.943C253.037 234.294 251.872 232.888 250.382 231.902C248.891 230.917 247.142 230.397 245.356 230.408C242.975 230.422 240.695 231.38 239.016 233.072C237.337 234.764 236.394 237.052 236.395 239.438Z" fill="#E6794E"/>
<path d="M266.173 218.97C266.746 220.692 267.278 222.204 267.823 223.758C268.386 225.342 268.853 226.96 269.221 228.602C269.412 229.469 269.543 230.348 269.613 231.234C269.706 232.261 269.582 233.296 269.249 234.272C268.867 235.258 268.175 236.094 267.278 236.652C266.488 237.134 265.615 237.466 264.705 237.632C265.754 236.134 266.76 234.832 266.732 233.614C266.633 232.15 266.385 230.701 265.991 229.288C265.609 227.626 265.362 225.935 265.25 224.234C265.115 222.429 265.433 220.62 266.173 218.97Z" fill="#0B334C"/>
<path d="M275.514 208.302C276.622 207.75 277.83 207.427 279.065 207.35C280.308 207.276 281.554 207.428 282.742 207.798C283.966 208.172 285.089 208.818 286.028 209.688C286.932 210.533 287.626 211.578 288.055 212.74C288.116 212.887 288.125 213.051 288.081 213.204C288.036 213.357 287.941 213.49 287.81 213.582C287.68 213.673 287.522 213.717 287.363 213.707C287.204 213.696 287.054 213.632 286.937 213.524H286.867C286.173 212.812 285.376 212.208 284.504 211.732C283.709 211.277 282.837 210.973 281.931 210.836C281.006 210.694 280.07 210.637 279.135 210.668C278.198 210.668 277.178 210.78 276.269 210.808H276.115C275.822 210.819 275.534 210.729 275.299 210.554C275.064 210.378 274.896 210.128 274.822 209.843C274.749 209.559 274.775 209.258 274.895 208.99C275.016 208.723 275.224 208.505 275.486 208.372L275.514 208.302Z" fill="#0B334C"/>
<path d="M256.541 210.724C255.632 210.724 254.612 210.598 253.675 210.598C252.74 210.563 251.804 210.614 250.879 210.752C249.977 210.902 249.107 211.205 248.306 211.648C247.454 212.129 246.676 212.733 245.999 213.44H245.929C245.867 213.507 245.791 213.56 245.707 213.597C245.623 213.633 245.532 213.652 245.44 213.652C245.348 213.652 245.258 213.633 245.173 213.597C245.089 213.56 245.013 213.507 244.951 213.44C244.857 213.343 244.795 213.222 244.77 213.09C244.745 212.958 244.759 212.822 244.811 212.698C245.24 211.54 245.935 210.5 246.838 209.66C247.775 208.787 248.899 208.141 250.124 207.77C251.316 207.392 252.567 207.24 253.815 207.322C255.048 207.387 256.253 207.711 257.352 208.274C257.503 208.351 257.637 208.457 257.746 208.586C257.856 208.716 257.938 208.866 257.989 209.027C258.04 209.189 258.058 209.359 258.042 209.528C258.026 209.697 257.977 209.86 257.897 210.01C257.786 210.224 257.617 210.403 257.409 210.527C257.202 210.65 256.964 210.714 256.723 210.71L256.541 210.724Z" fill="#0B334C"/>
<path d="M249.354 223.926C249.354 226.95 250.877 229.4 252.765 229.4C254.652 229.4 256.176 226.95 256.176 223.926C256.176 220.902 254.652 218.438 252.765 218.438C250.877 218.438 249.354 220.888 249.354 223.926Z" fill="#0B334C"/>
<path d="M276.744 223.926C276.744 226.95 278.268 229.414 280.156 229.414C282.043 229.414 283.553 226.95 283.553 223.926C283.553 220.902 282.029 218.438 280.156 218.438C278.282 218.438 276.744 220.902 276.744 223.926Z" fill="#0B334C"/>
<path d="M259.099 244.631C258.636 244.7 258.165 244.7 257.701 244.631C257.221 244.558 256.752 244.426 256.303 244.239C255.863 244.067 255.452 243.826 255.087 243.525C254.693 243.244 254.376 242.869 254.164 242.433C255.017 242.853 255.786 243.161 256.625 243.511C257.016 243.693 257.436 243.847 257.841 244.043C258.273 244.212 258.693 244.408 259.099 244.631Z" fill="#0B334C"/>
<path d="M267.279 241.607C265.998 242.372 264.567 242.849 263.085 243.007C261.529 243.216 259.945 243.043 258.471 242.503C258.102 242.358 257.742 242.19 257.394 241.999L256.388 241.327C255.783 240.817 255.26 240.218 254.836 239.55C253.997 238.261 253.514 236.773 253.438 235.238C253.857 235.868 254.137 236.54 254.542 237.128C254.906 237.718 255.327 238.272 255.8 238.78C256.667 239.785 257.773 240.556 259.016 241.019C260.297 241.477 261.642 241.727 263.001 241.761C264.429 241.818 265.859 241.767 267.279 241.607Z" fill="#0B334C"/>
<path d="M256.947 165.616C247.049 167.063 237.942 171.855 231.138 179.196C222.892 188.06 218.25 199.689 218.121 211.802C218.846 211.228 219.645 210.757 220.498 210.402C222.525 209.561 224.765 209.38 226.901 209.884C229.418 216.31 232.941 223.17 232.941 223.17L236.422 214.77C272.27 206.132 270.83 189.332 270.83 189.332C270.83 189.332 282.686 214.224 293.955 215.386C293.955 215.386 296.849 223.786 298.01 223.212C298.793 222.82 304.329 210.164 304.315 210.472C306.532 209.55 308.994 209.402 311.306 210.052C310.215 184.6 290.39 160.506 256.947 165.616Z" fill="#0B334C"/>
<path d="M249.549 280.863C251.325 276.271 250.947 270.041 247.27 263.573C241.681 259.7 237.195 254.436 234.254 248.299C232.474 243.707 231.276 238.91 230.689 234.02C226.886 235.42 221.643 232.718 218.105 229.162C218.709 237.662 220.835 245.985 224.383 253.731C222.663 258.169 218.888 269.901 223.069 278.609C221.097 284.923 219.182 294.527 223.223 300.463C221.139 305.895 217.001 318.999 222.188 326.293C219.755 333.166 216.176 346.97 223.95 352.892C221.24 355.217 219.422 358.413 218.808 361.933C218.193 365.452 218.82 369.076 220.58 372.184L244.642 374.984C244.642 374.984 247.871 360.718 242.223 353.662C249.759 348.86 251.576 336.932 246.082 326.279C250.696 320.385 251.101 310.543 246.361 301.639C250.849 296.963 252.136 288.885 249.549 280.863Z" fill="#0B334C"/>
<path d="M303.712 255.131C304.329 255.249 304.963 255.244 305.578 255.116C306.193 254.989 306.776 254.741 307.296 254.387C307.815 254.034 308.26 253.581 308.604 253.055C308.949 252.53 309.187 251.941 309.304 251.323L317.148 209.786C317.267 209.168 317.263 208.533 317.137 207.916C317.01 207.3 316.763 206.714 316.409 206.194C316.056 205.673 315.603 205.228 315.077 204.883C314.551 204.539 313.963 204.302 313.345 204.186C312.729 204.066 312.095 204.069 311.48 204.195C310.865 204.321 310.281 204.568 309.762 204.92C309.242 205.273 308.797 205.724 308.452 206.249C308.108 206.774 307.87 207.363 307.752 207.98L299.881 249.531C299.762 250.151 299.766 250.789 299.895 251.407C300.023 252.025 300.273 252.611 300.629 253.132C300.986 253.653 301.441 254.098 301.97 254.441C302.5 254.784 303.091 255.019 303.712 255.131Z" fill="#00A2DD"/>
<path d="M422.918 412.517V362.44H383.575V412.517C383.575 415.41 382.427 418.184 380.385 420.229C378.342 422.274 375.572 423.423 372.684 423.423C407.315 474.873 434.201 423.423 434.201 423.423H433.809C432.379 423.423 430.963 423.141 429.641 422.593C428.32 422.045 427.119 421.242 426.108 420.229C425.097 419.216 424.294 418.014 423.747 416.691C423.2 415.368 422.918 413.95 422.918 412.517Z" fill="#FFA58A"/>
<path d="M422.917 389.376V397.118C419.717 399.446 416.31 401.475 412.739 403.18C409.86 404.569 406.706 405.29 403.511 405.29C400.316 405.29 397.162 404.569 394.284 403.18C390.512 401.396 386.929 399.239 383.588 396.74V388.984C386.932 391.49 390.515 393.661 394.284 395.466C397.164 396.848 400.317 397.566 403.511 397.566C406.705 397.566 409.858 396.848 412.739 395.466C416.315 393.761 419.723 391.722 422.917 389.376Z" fill="#0B334C"/>
<path d="M371.746 422.149C371.746 422.149 397.765 438.949 432.467 422.149C432.467 422.149 463.547 422.149 469.181 433.433C474.816 444.717 487.357 608.893 487.357 608.893H326.447C326.447 608.893 328.181 452.977 335.549 439.495C342.917 426.013 371.746 422.149 371.746 422.149Z" fill="#F64652"/>
<path d="M577.255 541.54C574.962 538.432 572.655 535.366 570.264 532.3C569.397 531.18 568.503 530.102 567.622 528.982H497.436C498.764 530.256 500.107 531.516 501.421 532.79C508.16 539.328 514.787 545.964 521.232 552.712C512.843 554.014 504.343 555.204 495.87 556.282C480.98 558.172 465.992 559.698 450.949 561C435.905 562.302 420.693 563.296 405.873 564.066H405.482H405.076C399.484 560.776 386.831 553.776 384.79 555.666C382.119 558.06 389.403 567.258 389.403 567.258C389.403 567.258 363.161 567.118 362.196 570.198C361.231 573.278 382.371 574.79 382.371 574.79C382.371 574.79 364.88 577.044 363.944 580.529C363.007 584.015 385.447 581.733 385.447 581.733C385.447 581.733 368.669 588.033 369.76 591.743C370.85 595.453 390.732 586.801 390.732 586.801C390.732 586.801 380.022 593.801 381.308 596.279C382.301 598.183 398.435 592.079 405.859 589.181C436.566 592.514 467.448 593.964 498.331 593.521C506.174 593.521 514.018 593.157 521.875 592.863C529.733 592.569 537.604 592.023 545.503 591.281C548.3 591.071 551.096 590.833 553.892 590.553L556.409 590.315C561.692 589.775 566.74 587.85 571.043 584.732C575.346 581.615 578.752 577.417 580.918 572.561C583.083 567.705 583.931 562.363 583.376 557.074C582.822 551.785 580.884 546.736 577.758 542.436C577.688 542.128 577.464 541.848 577.255 541.54Z" fill="#FFA58A"/>
<path d="M524.701 560.832L520.646 552.446L527.302 555.918" stroke="#0B334C" stroke-width="0.93" stroke-linecap="round" stroke-linejoin="round"/>
<path d="M514.215 545.488H579.926C579.926 545.488 582.96 551.172 583.128 554.252L514.215 545.488Z" fill="#0B334C"/>
<path d="M435.5 422.149C435.5 422.149 454.738 416.549 492.907 449.939C531.075 483.329 582.247 545.488 582.247 545.488H508.901C508.901 545.488 459.897 495.088 430.83 476.007C430.83 476.007 401.05 447.335 435.5 422.149Z" fill="#F64652"/>
<path d="M508.51 540.574H574.725" stroke="#0B334C" stroke-width="0.93" stroke-linecap="round" stroke-linejoin="round"/>
<path d="M419.395 567.328C419.395 567.328 426.665 558.13 424.009 555.736C421.953 553.888 409.37 560.888 403.722 564.136H403.33H402.925C388.119 563.366 372.851 562.442 357.864 561.07C342.876 559.698 327.832 558.27 312.942 556.352C304.451 555.269 295.997 554.079 287.58 552.782C294.012 546.034 300.639 539.398 307.392 532.86L311.362 529.052H241.163C240.282 530.172 239.387 531.25 238.506 532.37C236.171 535.436 233.864 538.502 231.516 541.61L230.858 542.506C227.728 546.805 225.787 551.856 225.23 557.148C224.674 562.439 225.523 567.784 227.69 572.642C229.858 577.5 233.267 581.699 237.575 584.814C241.882 587.93 246.935 589.852 252.222 590.385L254.724 590.623C257.521 590.903 260.317 591.141 263.197 591.351C271.082 592.093 278.968 592.471 286.825 592.933C294.683 593.395 302.526 593.521 310.369 593.591C341.248 594.034 372.125 592.584 402.827 589.251C410.251 592.177 426.399 598.253 427.378 596.349C428.678 593.871 417.969 586.871 417.969 586.871C417.969 586.871 437.85 595.537 438.941 591.813C440.031 588.089 423.254 581.803 423.254 581.803C423.254 581.803 445.624 584.071 444.743 580.6C443.862 577.128 426.329 574.86 426.329 574.86C426.329 574.86 447.511 573.334 446.546 570.268C445.582 567.202 419.395 567.328 419.395 567.328Z" fill="#FFA58A"/>
<path d="M267.07 557.066L287.888 552.726L276.605 560.398" stroke="#0B334C" stroke-width="0.93" stroke-linecap="round" stroke-linejoin="round"/>
<path d="M294.388 545.488H228.579C227.691 547.666 226.921 549.891 226.272 552.152C226.146 553.328 294.388 545.488 294.388 545.488Z" fill="#0B334C"/>
<path d="M371.747 422.149C371.747 422.149 352.508 416.549 314.34 449.939C276.171 483.329 225 545.488 225 545.488H298.289C298.289 545.488 347.307 495.088 376.36 476.007C376.36 476.007 406.14 447.335 371.747 422.149Z" fill="#F64652"/>
<path d="M367.691 426.783C367.691 426.783 396.031 451.675 435.934 426.783" stroke="#0B334C" stroke-width="0.93" stroke-linecap="round" stroke-linejoin="round"/>
<path d="M235.834 537.382H299.155" stroke="#0B334C" stroke-width="0.93" stroke-linecap="round" stroke-linejoin="round"/>
<path d="M450.028 335.574C447.4 334.489 444.449 334.489 441.821 335.574C441.821 334.65 441.905 333.726 441.933 332.774C442.125 327.586 441.268 322.412 439.414 317.563C437.56 312.715 434.746 308.291 431.142 304.558C427.538 300.825 423.218 297.86 418.442 295.84C413.665 293.821 408.53 292.788 403.345 292.805C398.16 292.806 393.029 293.856 388.259 295.892C383.489 297.928 379.179 300.907 375.587 304.652C371.995 308.396 369.196 312.828 367.356 317.682C365.517 322.536 364.676 327.713 364.883 332.9L365.008 335.602C363.048 334.788 360.891 334.571 358.808 334.98C356.726 335.389 354.81 336.406 353.303 337.902C351.795 339.398 350.763 341.307 350.336 343.389C349.908 345.47 350.105 347.632 350.901 349.602C353.124 355.048 361.653 361.446 367.162 359.402C367.766 364.39 368.997 369.282 370.825 373.962C375.718 384.84 386.428 391.686 394.243 395.438C397.123 396.823 400.276 397.542 403.471 397.542C406.665 397.542 409.819 396.823 412.698 395.438C420.5 391.686 431.153 384.826 436.033 373.92C437.855 369.272 439.086 364.414 439.696 359.458C445.205 361.432 453.677 355.062 455.914 349.658C456.453 348.347 456.729 346.942 456.725 345.523C456.72 344.105 456.437 342.701 455.89 341.393C455.343 340.085 454.544 338.897 453.538 337.899C452.532 336.9 451.339 336.11 450.028 335.574Z" fill="#FFA58A"/>
<path d="M403.721 344.198C404.454 345.875 404.766 347.707 404.629 349.532C404.513 351.258 404.261 352.971 403.874 354.656C403.471 356.086 403.218 357.555 403.119 359.038C403.119 360.228 404.112 361.6 405.161 363.112C404.243 362.948 403.366 362.611 402.574 362.118C401.657 361.557 400.953 360.704 400.575 359.696C400.229 358.709 400.1 357.658 400.197 356.616C400.275 355.723 400.406 354.834 400.589 353.956C400.957 352.296 401.424 350.66 401.987 349.056C402.602 347.53 403.133 345.948 403.721 344.198Z" fill="#0B334C"/>
<path d="M393.416 335.84C392.493 335.84 391.459 335.714 390.508 335.7C389.573 335.679 388.638 335.736 387.712 335.868C386.798 336.017 385.918 336.325 385.111 336.778C384.247 337.265 383.46 337.879 382.776 338.598H382.707C382.573 338.732 382.392 338.807 382.203 338.807C382.015 338.807 381.834 338.732 381.7 338.598C381.607 338.499 381.545 338.375 381.52 338.241C381.495 338.107 381.509 337.969 381.56 337.842C381.999 336.671 382.702 335.617 383.615 334.762C384.562 333.874 385.701 333.218 386.943 332.844C388.153 332.461 389.424 332.309 390.69 332.396C391.94 332.461 393.164 332.785 394.283 333.348C394.587 333.512 394.814 333.789 394.916 334.119C395.019 334.449 394.987 334.806 394.828 335.112C394.717 335.33 394.546 335.511 394.336 335.635C394.125 335.759 393.884 335.821 393.64 335.812L393.416 335.84Z" fill="#0B334C"/>
<path d="M412.597 333.376C413.716 332.814 414.94 332.489 416.19 332.424C417.456 332.337 418.727 332.489 419.937 332.872C421.18 333.246 422.319 333.902 423.265 334.79C424.178 335.645 424.881 336.699 425.32 337.87C425.384 338.021 425.395 338.19 425.349 338.348C425.304 338.505 425.206 338.643 425.071 338.736C424.936 338.83 424.774 338.874 424.61 338.862C424.447 338.85 424.293 338.781 424.174 338.668C423.49 337.949 422.703 337.335 421.839 336.848C421.032 336.395 420.152 336.087 419.238 335.938C418.312 335.806 417.377 335.75 416.442 335.77C415.491 335.77 414.457 335.882 413.534 335.91H413.338C413.163 335.924 412.987 335.901 412.82 335.845C412.654 335.788 412.501 335.698 412.37 335.58C412.239 335.462 412.134 335.319 412.06 335.159C411.986 335 411.945 334.826 411.94 334.65C411.925 334.399 411.978 334.147 412.093 333.923C412.209 333.699 412.383 333.51 412.597 333.376Z" fill="#0B334C"/>
<path d="M420.762 349.21C420.762 352.29 419.21 354.81 417.309 354.81C415.407 354.81 413.855 352.318 413.855 349.21C413.855 346.102 415.393 343.61 417.309 343.61C419.224 343.61 420.762 346.13 420.762 349.21Z" fill="#0B334C"/>
<path d="M392.998 349.21C392.998 352.29 391.461 354.81 389.545 354.81C387.63 354.81 386.092 352.318 386.092 349.21C386.092 346.102 387.644 343.61 389.545 343.61C391.447 343.61 392.998 346.13 392.998 349.21Z" fill="#0B334C"/>
<path d="M410.879 370.21C411.28 369.966 411.696 369.747 412.123 369.552C412.543 369.342 412.962 369.188 413.368 369.006L414.612 368.488L415.87 367.914C415.645 368.349 415.325 368.727 414.933 369.02C414.555 369.321 414.136 369.566 413.689 369.748C413.24 369.934 412.771 370.066 412.291 370.14C411.826 370.231 411.351 370.254 410.879 370.21Z" fill="#0B334C"/>
<path d="M402.604 367.13C404.05 367.31 405.508 367.38 406.966 367.34C408.341 367.315 409.702 367.059 410.992 366.584C412.26 366.13 413.387 365.353 414.264 364.33C414.737 363.809 415.163 363.247 415.536 362.65C415.942 362.048 416.221 361.376 416.655 360.732C416.577 362.285 416.095 363.791 415.256 365.1C414.823 365.778 414.29 366.386 413.677 366.906L412.656 367.578C412.304 367.778 411.94 367.955 411.565 368.11C410.071 368.649 408.47 368.822 406.896 368.614C405.374 368.437 403.91 367.931 402.604 367.13Z" fill="#0B334C"/>
<path d="M451.144 294.219C448.194 284.097 418.694 282.809 393.584 290.761C393.584 290.761 395.206 270.195 371.382 304.481C371.382 304.481 358.421 312.083 358.463 321.351C358.463 328 366.46 340.586 370.962 347.152C371.207 347.512 371.554 347.79 371.957 347.952C372.361 348.114 372.803 348.153 373.228 348.063C373.653 347.973 374.043 347.758 374.346 347.447C374.649 347.135 374.854 346.74 374.933 346.312C376.233 339.312 378.358 326.558 378.121 319.503C378.121 319.503 414.388 331.234 431.655 327.286C431.655 333.138 432.06 346.06 433.961 346.718C436.408 347.572 448.809 333.026 449.522 328.966C449.928 326.642 448.194 320.945 446.279 317.053C448.859 313.916 450.648 310.204 451.494 306.23C452.341 302.256 452.221 298.137 451.144 294.219Z" fill="#0B334C"/>
<path d="M312.663 470.729H499.843C500.956 470.729 502.022 471.171 502.809 471.959C503.596 472.747 504.037 473.815 504.037 474.929V593.717H308.301V475.055C308.283 474.478 308.384 473.904 308.598 473.369C308.811 472.833 309.132 472.347 309.542 471.941C309.951 471.535 310.439 471.218 310.976 471.01C311.513 470.801 312.087 470.705 312.663 470.729Z" fill="#8EE4FD"/>
<path d="M409.42 545.66C416.783 543.912 421.337 536.518 419.591 529.145C417.845 521.772 410.46 517.213 403.097 518.961C395.734 520.709 391.181 528.104 392.927 535.476C394.673 542.849 402.057 547.409 409.42 545.66Z" fill="#1F5B99"/>
<path d="M735.229 593.802H66.4531V625.063H735.229V593.802Z" fill="#0B334C"/>
<path d="M145.335 449.449C141.602 448.511 147.824 441.147 151.724 436.975C147.62 427.736 141.879 419.317 134.779 412.126C134.19 411.529 133.478 411.068 132.693 410.775C131.908 410.481 131.069 410.362 130.234 410.426C129.398 410.49 128.587 410.735 127.856 411.145C127.124 411.554 126.491 412.118 125.999 412.798C115.793 427.105 112.619 444.325 113.094 461.265C117.47 462.945 126.39 466.753 126.055 470.071C125.761 473.081 118.225 470.715 113.472 468.937C116.562 503.587 133.046 535.002 133.046 535.002C160.561 497.567 161.609 467.285 154.954 445.655C151.948 447.923 148.103 450.135 145.335 449.449Z" fill="#3ADFE0"/>
<path d="M129.131 547.28C128.753 546.02 158.491 460.411 185.642 459.977C212.794 459.543 230.382 493.759 224.203 499.457C218.023 505.154 182.147 496.825 186.957 502.088C191.766 507.352 201.413 518.762 195.345 520.96C189.278 523.158 170.361 519.21 165.552 524.026C160.742 528.842 132.626 559.124 129.131 547.28Z" fill="#2CD0D1"/>
<path d="M138.765 536.752C138.765 536.752 109.405 457.345 72.6063 451.199C35.8078 445.053 46.825 499.905 62.0925 497.329C77.3599 494.753 96.2625 486.787 94.0675 495.131C91.8724 503.474 70.4113 518.328 84.4344 523.158C98.4576 527.988 114.662 521.842 119.485 528.856C124.309 535.87 131.313 543.332 138.765 536.752Z" fill="#2CD0D1"/>
<path d="M156.03 487.529C150.535 494.767 135.506 528.646 135.506 528.646C135.506 528.646 125.118 504.034 117.861 492.737" stroke="#0B334C" stroke-width="0.93" stroke-linecap="round" stroke-linejoin="round"/>
<path d="M135.508 520.54L131.453 418.621" stroke="#0B334C" stroke-width="0.93" stroke-linecap="round" stroke-linejoin="round"/>
<path d="M159.356 593.787H112.03L103.264 529.738H168.122L159.356 593.787Z" fill="#FCB13A"/>
<path d="M108.033 537.914H163.553" stroke="#0B334C" stroke-width="0.93" stroke-linecap="round" stroke-linejoin="round"/>
</g>
</svg>
