<svg xmlns="http://www.w3.org/2000/svg" viewBox="0 0 750 500"><defs><style>.cls-1,.cls-19{fill:#fff;}.cls-2{fill:#a07af4;}.cls-10,.cls-15,.cls-16,.cls-22,.cls-27,.cls-28,.cls-29,.cls-3,.cls-31{fill:none;}.cls-19,.cls-22,.cls-3{stroke:#2a1e17;}.cls-10,.cls-15,.cls-16,.cls-19,.cls-22,.cls-27,.cls-29,.cls-3{stroke-linecap:round;stroke-linejoin:round;}.cls-4{fill:#2a1e17;}.cls-5{fill:#f98a5f;}.cls-6{fill:#2a1e33;}.cls-7{fill:#eaeaea;}.cls-8{fill:#ff826e;}.cls-9{fill:#063359;}.cls-10{stroke:#2a1e33;}.cls-11{fill:#e82a2a;}.cls-12{fill:#faf000;}.cls-13{fill:#aaa;}.cls-14{fill:#111;}.cls-15{stroke:#7c7c7c;}.cls-16{stroke:#eaeaea;}.cls-17{fill:#ff0;}.cls-18{fill:#ff6;}.cls-20{fill:#91ba83;}.cls-21{fill:#e52500;}.cls-22{stroke-width:0.67px;}.cls-23{fill:#ff1e00;}.cls-24{fill:#ff6631;}.cls-25{fill:#154700;}.cls-26{fill:#3e9917;}.cls-27{stroke:#e82a2a;}.cls-28{stroke:#faf000;}.cls-28,.cls-31{stroke-miterlimit:10;}.cls-29{stroke:#a07af4;}.cls-30{fill:#7595ec;}.cls-31{stroke:#fff;stroke-width:1.6px;}.cls-31,.cls-32{opacity:0.8;}</style></defs><g id="OBJECTS"><path class="cls-1" d="M436.87,179.27c-32.4-30.37-70.36-38.2-80.39-39.8,6.75-18.23,17.2-45.33,19.8-49.35a39.63,39.63,0,0,1,5.07-.28c7.37,0,23.14,1.53,46,11.8,32.77,14.74,41.74,31.5,43.51,35.6ZM376.52,89.79"/><path class="cls-2" d="M381.35,91.84c7.21,0,22.66,1.51,45.14,11.62,29.82,13.42,39.45,28.42,42,33.49l-31.83,39.4a161.13,161.13,0,0,0-54.07-32.14,152.4,152.4,0,0,0-23.38-6.33c7.46-20.06,15.59-40.72,18.32-45.88.88-.09,2.17-.16,3.83-.16m0-4a33.83,33.83,0,0,0-6.07.42c-2.34.78-21.54,52.84-21.54,52.84s45.56,4.65,83.32,41.12l36-44.62s-6-20.26-45-37.79c-22.82-10.27-38.73-12-46.78-12Z"/><path class="cls-3" d="M360.43,145.15s44.8,4.52,72.41,29.86"/><polygon class="cls-2" points="399.12 142.96 415.83 110.46 433.01 144.35 399.12 142.96"/><polygon class="cls-3" points="402.37 142.5 419.08 110 436.26 143.89 402.37 142.5"/><path class="cls-3" d="M386.68,85.86s50.23,4.53,81.46,41.64"/><path class="cls-4" d="M412.34,229.88l-4.57-3.39c.77-1,12.86-13.9,19.86-24.27C427.63,202.22,413.47,230.71,412.34,229.88Z"/><path class="cls-3" d="M241.06,136c1.34,2.24,1.94,1.35,5.83,1.05s9.42,2.54,11.37,7.33,1.35,5.53.3,6.13-8.53,1.49-8.83,3"/><polygon class="cls-5" points="341.83 379.47 338.34 373.58 325.98 394.19 329.23 396.68 341.83 379.47"/><path class="cls-5" d="M259.73,328.37s-6.4-10.42-3.65-15.52L276.51,315Z"/><path d="M259.73,328.37l1.23,2.81-3.78,14.73a5.06,5.06,0,0,0,1.59,5.07h0l18.69-27.63a6.41,6.41,0,0,0-.95-8.31l-4.17-3.88Z"/><path class="cls-6" d="M249.73,153.51c5.86-.14,13.27-.51,11.79-5s-7-15.58-19.66-12.24c0,0-4.45,3.71,1.12,10.39S249.73,153.51,249.73,153.51Z"/><path class="cls-7" d="M279.36,315.28s-10-29.49-1.54-42.45c7-10.69,29.77,6.7,32.9,9L327,252.42s-3.77-5.28-13-10.45-47.43-20.65-65.38,7.67c-6.63,10.46-6.74,55.37,6,72.58Z"/><path class="cls-3" d="M279.36,315.28s-10-29.49-1.54-42.45c7-10.69,29.77,6.7,32.9,9"/><path class="cls-7" d="M327,252.42c-7.42,7.8-29.41,45.84-34.36,64-6.61,24.31-4.13,44.48,32.23,84l17.58-25.6s-12.36-18.77-10.05-36.46c3.34-25.59,21.55-50.4,30.76-66.13Z"/><polygon class="cls-4" points="329.82 255.72 359.06 278.67 367.79 265.38 329.82 255.72"/><path class="cls-8" d="M497.74,231.6q6.84,1.46,10.42,5.21c2.39,2.49,1.3,3.8.43,4.56s-4.23-.11-7.16-2.72S497.74,231.6,497.74,231.6Z"/><path class="cls-8" d="M407.77,226.49c.77-1,12.86-13.9,19.86-24.27,0,0,21.15,23.7,23.44,24.46.86.29,6,.22,12.48.15,10.89-.11,25.36-.22,28.56,1.38,5.1,2.55,8.15,3.83,9.43,7.39s1.78,5.9-1.28,6.12c-3.56.26-5.86-4.33-5.86-4.33A71.09,71.09,0,0,1,484,242s-27.1,10.52-45.22,5.43C433.78,246,407.77,226.49,407.77,226.49Z"/><path class="cls-8" d="M243.45,131.82c-2.33.89-3.74,2-2.39,4.19s1.94,1.35,5.83,1.05,9.42,2.54,11.37,7.33,1.35,5.53.3,6.13-8.53,1.49-8.83,3,3,5.91,9.91,5.61l1.65-.3s14.47,14.14,16.56,16.23,17.49,12.52,26,14.64c6.44,1.61,19.5-.47,27.34-2,3.81-.74,6.39-1.35,6.39-1.35s-5.88-10.61-7.08-26.91c0,0-14.09,2.26-23.45,4.31,0,0-21.84-12.17-32.46-17.56,0,0-9.27-11.37-13.61-12.86S246.59,130.62,243.45,131.82Z"/><path class="cls-4" d="M331.16,187.69c3.81-.74,6.39-1.35,6.39-1.35s-7.12-9-8.32-25.29c0,0-3.21,3.47-2.21,12.71C328.27,185.36,331.16,187.69,331.16,187.69Z"/><path class="cls-9" d="M328.89,159.23s.2,19.92,5.53,28.23l1.92-.76s-25.16,29.43-33.29,48.66c-1.33,3.14,52.23,37.36,60.14,36.88,0,0,26.09-39.83,35-51.64L407.8,228s18.82-19.05,19.83-25.81c0,0-18.18-22.12-33-28.59s-28.15-17.57-44.12-17.27C336.64,156.62,328.89,159.23,328.89,159.23Z"/><polygon class="cls-4" points="407.8 228.03 398.21 220.6 399.74 216.44 407.8 228.03"/><path class="cls-8" d="M422.39,149.25c-1.68,5.22-6.53,20.33-11.94,22.2s-11-.48-11-.48l-5.76,2.95c-.64,1.93-5.19,3.59-11.07,3.82-4.34.16-7-5.42-5.71-9.46.6-1.86,2.8-11,2.8-11s4.67-17.16,9-20.71,8.32-7.05,19.77-2.42C425.94,141.23,422.39,149.25,422.39,149.25Z"/><path class="cls-6" d="M387.63,150c-.77,3.21-4.11,9.63-6.29,8.47s-2.95-4.1-1.41-9.75,2.82-18.47,7.19-20.78,6.28.38,6.28.38-1.92-9.37,3.72-10.65c0,0,1.93-.9,1.16,5.52a8.58,8.58,0,0,1,9.23-5.13c7.06.77,9.5,10.65,9.5,10.65a3.55,3.55,0,0,1,3.72-2.7c3.21,0,8.08,4.75,6.93,10,0,0,8.21-2.57,12.57,4s3.85,13.72-6.67,16.55c-11,3-10.91-9.88-12.57-11.55s-3.47-3.59-9.63-1.28-12.57-4.49-12.57-4.49-1,8.21-2.05,9-3.08,1.79-2.57-2.06,1.16-3.46.77-4.49-2.12-4.26-5.77-1.41C385.06,143.45,387.63,150,387.63,150Z"/><path class="cls-10" d="M389.37,151.43c-2.44-2.06-4.14-5.68-2-9.3s5.68-4.11,6.76-2.74,1.49,3.68.48,6.42"/><path d="M329.23,396.68l1.22,2.82-3.78,14.72a5.06,5.06,0,0,0,1.59,5.07h0L347,391.66a6.42,6.42,0,0,0-.94-8.31l-4.18-3.88Z"/><path class="cls-10" d="M393.4,128.31s-1.43-4.65-5.72-5.88"/><line class="cls-3" x1="302.46" y1="233.95" x2="354.24" y2="161.62"/><path class="cls-3" d="M375.59,166.68c-1.87,2.42-2.72,12.86,5.87,13.54a23.22,23.22,0,0,0,14.07-3.09"/><path class="cls-3" d="M261,133.32s5.92,7.83,6.85,10.62"/><path class="cls-3" d="M482.57,238.35s4,3.25,11.83-1c2.86-1.53.83-5.15-2.79-4.24a17.07,17.07,0,0,1-7.91-.45"/><path class="cls-3" d="M499.09,232.05s3.8,4.43,3.7,7"/><path class="cls-3" d="M443.26,231.57s3.43-4.57,7.81-4.89"/><path class="cls-3" d="M298.6,171.13s2-6.24,8.42-7.39"/><path class="cls-3" d="M316,265.8l-7.65,14.65s-25.24,42.71-16.68,70.31"/><path class="cls-3" d="M338.36,314.81l24.83-42.57s32.55-47.21,35.88-53.88l11.49-21.25"/><path class="cls-3" d="M305.93,238.49s44.16,32.19,57.26,33.75"/><path class="cls-3" d="M328.89,159.23s0,20.21,5.41,28.49"/><path class="cls-3" d="M426.21,199c-1.39,8.33-19.83,25.82-19.83,25.82"/><circle class="cls-4" cx="288.65" cy="300.12" r="2.62"/><polygon class="cls-3" points="534.69 356.47 533.24 346.44 541.8 352.13 537.32 353.1 534.69 356.47"/><path class="cls-3" d="M251,185.23c-16.21-14.3-43,21.37,55,134.91,56.55,65.49,101,71.37,107,48.58,10.8-40.88-28.2-51.21-13.69-35.2,21.1,23.28,81.12,28.2,125.84,6.47,44.13-21.43,17-54.73,14.27-56.67"/><circle class="cls-4" cx="525.84" cy="339.79" r="2.62"/><line class="cls-3" x1="487.68" y1="361.19" x2="565.41" y2="317.38"/><circle class="cls-4" cx="252.57" cy="187.35" r="2.62"/><circle class="cls-11" cx="319.43" cy="133.21" r="5.63"/><path class="cls-2" d="M217.34,90.3a2.48,2.48,0,1,0,2.48,2.47,2.48,2.48,0,0,0-2.48-2.47Z"/><circle class="cls-12" cx="548.74" cy="395.01" r="2.47"/><path class="cls-13" d="M504.55,283.31,478,270.83a2.76,2.76,0,0,1,.06-5L527.49,244a2.76,2.76,0,0,1,2.2,0l34,14.59Z"/><path class="cls-14" d="M502.9,242.3c.07,11,1.65,41,1.65,41l59.11-24.69-1.32-41.76a3.59,3.59,0,0,0-5.08-3.15l-50.9,23.19A5.93,5.93,0,0,0,502.9,242.3Z"/><path class="cls-15" d="M504.55,283.31l59.11-24.69-1.32-41.76s-.4-4.56-5.08-3.15"/><line class="cls-16" x1="533.16" y1="253.3" x2="537.15" y2="243.87"/><line class="cls-16" x1="537.15" y1="253.3" x2="541.14" y2="243.87"/><circle class="cls-11" cx="228" cy="353.73" r="2.47"/><circle class="cls-11" cx="436.54" cy="365.98" r="3.44"/><path class="cls-17" d="M253.64,390.4a73.37,73.37,0,0,0,31.23,6.7,1.4,1.4,0,0,1,1.39,1.58l-2.15,17.13A1.41,1.41,0,0,1,283,417c-4.37.82-22,3.24-35.21-7.95a1.38,1.38,0,0,1-.44-1.43l4.36-16.33A1.41,1.41,0,0,1,253.64,390.4Z"/><path class="cls-3" d="M255.19,395.44s7.62,10.71,10.34,12.24,17.4-7.21,17.4-7.21"/><line class="cls-3" x1="272.72" y1="406.19" x2="280.73" y2="414.42"/><line class="cls-3" x1="261.59" y1="404.6" x2="252.22" y2="407.15"/><rect class="cls-18" x="489.93" y="187.8" width="8.95" height="8.95"/><polygon class="cls-2" points="491.15 308.5 493.81 313.11 496.46 317.72 491.15 317.72 485.83 317.72 488.49 313.11 491.15 308.5"/><path class="cls-3" d="M276.09,104.42l.69-20.91c-.07-2,.72-2.57,1.93-2.84,5.68-1.26,23-5.1,41.73.45,2.43.71,2.35,2,2.31,3.16l-.67,19.93a2.7,2.7,0,0,1-3.29,2.28,145.8,145.8,0,0,0-20.51-1,116.44,116.44,0,0,0-19.68,1.59C276.73,107.45,276,106.06,276.09,104.42Z"/><path class="cls-3" d="M282.41,101.37l10.93-12.8,12.1,11.94C301.27,99.15,282.41,101.37,282.41,101.37Z"/><polyline class="cls-3" points="300.04 94.49 308.88 87.42 316.33 92.74 316.61 101.05 305.44 100.51"/><ellipse class="cls-3" cx="285.03" cy="87.41" rx="1.83" ry="2.15" transform="matrix(0.1, -0.99, 0.99, 0.1, 169.39, 362.2)"/><path class="cls-3" d="M487.48,376.13l7.34,13.54c.77,1.21.5,1.9-.17,2.52C491.51,395.1,482,404,468,407.42c-1.81.44-2.24-.4-2.65-1.15l-7-12.91a2,2,0,0,1,1.24-2.67,106.66,106.66,0,0,0,13.4-7,85.23,85.23,0,0,0,11.91-8.32C486,374.44,486.91,375.07,487.48,376.13Z"/><path class="cls-3" d="M484.61,380.42l-2.19,12.19-12.13-3.09C473.45,388.83,484.61,380.42,484.61,380.42Z"/><polyline class="cls-3" points="475.96 391.34 472.98 399.12 466.27 398.51 463 393.33 470.29 389.52"/><ellipse class="cls-3" cx="488.13" cy="390.26" rx="1.58" ry="1.34" transform="translate(-118.06 238.24) rotate(-24.56)"/><path class="cls-19" d="M451.78,145l29.8,22.8a1.48,1.48,0,0,0,2.08-.29l4.5-6.1a1.46,1.46,0,0,0-.27-2l-29.37-23.51a1.47,1.47,0,0,0-2.11.29l-4.92,6.79A1.48,1.48,0,0,0,451.78,145Z"/><polygon class="cls-11" points="453.99 143.93 461.21 149 465.48 143.91 458.25 137.88 453.99 143.93"/><polygon class="cls-12" points="463.94 150.97 471.17 156.72 475.05 151.94 467.77 146.03 463.94 150.97"/><polygon class="cls-2" points="473.6 158.92 480.83 163.99 484.27 159.57 477.43 153.84 473.6 158.92"/><path class="cls-19" d="M511.23,113.06,518,170.12a2.26,2.26,0,0,0,2.55,2l11.49-1.58a2.25,2.25,0,0,0,1.94-2.45l-5.57-57.34a2.26,2.26,0,0,0-2.57-2l-12.71,1.86A2.25,2.25,0,0,0,511.23,113.06Z"/><polygon class="cls-11" points="514.71 114.4 516.86 127.74 527 126.99 525.89 112.62 514.71 114.4"/><polygon class="cls-20" points="517.59 132.84 519.02 146.91 528.4 146.07 527.11 131.77 517.59 132.84"/><polygon class="cls-12" points="519.2 151.94 521.35 165.28 529.88 164.34 528.86 150.71 519.2 151.94"/><path class="cls-19" d="M496.41,125.21l18.8,55.27a1.8,1.8,0,0,0,2.31,1.11l11.78-4.24a1.8,1.8,0,0,0,1.1-2.23l-17.66-55.81a1.79,1.79,0,0,0-2.33-1.14L497.49,123A1.8,1.8,0,0,0,496.41,125.21Z"/><polygon class="cls-2" points="500.23 126.22 505.11 138.82 514.87 135.98 510.8 122.15 500.23 126.22"/><polygon class="cls-21" points="506.89 143.66 511.21 157.12 520.21 154.35 515.97 140.63 506.89 143.66"/><polygon class="cls-12" points="512.43 162 517.31 174.61 525.46 171.91 521.62 158.79 512.43 162"/><path class="cls-20" d="M218,150.58h2.22a1.7,1.7,0,0,1,1.7,1.7v3.32a1.7,1.7,0,0,1-1.7,1.7H218a0,0,0,0,1,0,0v-6.72A0,0,0,0,1,218,150.58Z" transform="translate(185.26 -112.25) rotate(47.59)"/><rect class="cls-3" x="208.07" y="143.72" width="12.43" height="8.57" rx="0.98" transform="translate(249.53 406.05) rotate(-132.41)"/><rect class="cls-11" x="191.35" y="182.16" width="8.87" height="8.1"/><polyline class="cls-3" points="191.35 176.95 191.35 182.16 186.04 182.16"/><rect class="cls-12" x="483.6" y="90.69" width="8.87" height="8.1"/><polyline class="cls-3" points="483.6 85.48 483.6 90.69 478.29 90.69"/><path class="cls-3" d="M243.51,140.76c-92-38.13-162.76,35.29,10.59,147.72,13.65,8.85,34.59,12,34.59,12"/><circle class="cls-4" cx="158.93" cy="143.32" r="2.62"/><polygon class="cls-3" points="142.24 128.93 145.11 126.17 151.71 129.95 155.02 140.18 144.9 135.94 142.24 128.93"/><polygon class="cls-3" points="145.11 126.17 142.24 128.93 140.63 126.98 143.39 124.33 145.11 126.17"/><line class="cls-3" x1="155.02" y1="140.18" x2="148.44" y2="132.94"/><path class="cls-19" d="M171,323.76l7.15,36.83a1.47,1.47,0,0,0,1.75,1.16l7.41-1.57a1.48,1.48,0,0,0,1.15-1.69l-6.37-37.08a1.47,1.47,0,0,0-1.77-1.19L172.09,322A1.48,1.48,0,0,0,171,323.76Z"/><polygon class="cls-11" points="173.29 324.46 175.33 333.05 181.89 332.07 180.49 322.77 173.29 324.46"/><polygon class="cls-12" points="176.05 336.33 177.65 345.43 183.72 344.44 182.19 335.18 176.05 336.33"/><polygon class="cls-2" points="178.01 348.7 180.04 357.28 185.56 356.26 184.24 347.43 178.01 348.7"/><polygon class="cls-3" points="375.65 416.07 405.86 407.99 407.01 411.26 376.46 419.19 375.65 416.07"/><line class="cls-3" x1="371.46" y1="411.85" x2="372.33" y2="414.59"/><line class="cls-3" x1="370.6" y1="413.64" x2="373.15" y2="412.76"/><line class="cls-3" x1="369.99" y1="422.32" x2="371.63" y2="427.5"/><line class="cls-3" x1="368.59" y1="425.6" x2="373.13" y2="424.16"/><line class="cls-3" x1="363.09" y1="413.78" x2="365.23" y2="420.64"/><line class="cls-3" x1="360.96" y1="418.05" x2="367.32" y2="416.02"/><polygon class="cls-22" points="155.38 87.91 136.27 79.28 137.06 77.09 156.29 85.95 155.38 87.91"/><line class="cls-22" x1="155.77" y1="91.88" x2="156.48" y2="90.09"/><line class="cls-22" x1="156.97" y1="91.32" x2="155.27" y2="90.69"/><line class="cls-22" x1="160.98" y1="87.07" x2="162.32" y2="83.69"/><line class="cls-22" x1="163.1" y1="85.96" x2="160.13" y2="84.78"/><line class="cls-22" x1="160.93" y1="94.43" x2="162.73" y2="89.97"/><line class="cls-22" x1="163.85" y1="93.12" x2="159.69" y2="91.48"/><path class="cls-23" d="M226.82,249.35c-13.47-9.7-26.71-24.77-20.9-40.26,0,0,9.29-6.19,24,1.55l14.71,7.74Z"/><path class="cls-1" d="M220.72,314c-6.07-2.86-31.95-16.34-36.56-39.37-4-19.9,11.24-46.72,18.86-58.57-.49,15.73,15.3,29,22.93,34.53a81.52,81.52,0,0,0,21.23,11.22Z"/><path class="cls-24" d="M201.86,220.72c1.65,10.45,9.63,21.29,23.21,31.07a81.16,81.16,0,0,0,20,10.81L220,312c-7.63-3.81-30.22-16.7-34.41-37.67-3.49-17.47,8.35-40.65,16.23-53.6m4.06-11.63s-28.65,38.71-23.23,65.82,38.71,41,38.71,41l27.88-55c-8.71-3.2-14.37-5.8-22.46-11.62-13.47-9.7-26.71-24.77-20.9-40.26Z"/><path class="cls-3" d="M198.38,231.59a33.23,33.23,0,0,0,17.22,23.88"/><line class="cls-3" x1="223.93" y1="261.03" x2="239.49" y2="269.36"/><path class="cls-3" d="M200.61,253.81s5,11.1,21.1,18.33"/><path class="cls-3" d="M187.83,255.47s.56,11.67,8.33,15.55"/><path class="cls-3" d="M205.6,214.93s-1.44,15,21.22,34.42"/><path class="cls-3" d="M213.94,217.7s7.22-.55,17.77,7.22"/><path class="cls-3" d="M180,265.53c-.46,7.43.46,34.35,39.46,51.53"/><path class="cls-25" d="M429,250.55,412.47,283.7s11.22,4.13,2.45,17c0,0,20.73,8.6,34.3-13.74S429,250.55,429,250.55Z"/><path class="cls-1" d="M391.15,351.86c-8.37,0-17.2-3.41-26.28-10.16l30.95-51.26L414.23,302l.11.05a28.5,28.5,0,0,0,10.05,1.74h0a27.8,27.8,0,0,0,16.24-5.13L418,337.39C418,337.46,408.22,351.86,391.15,351.86Z"/><path class="cls-26" d="M396.31,292.52l17,10.71.21.13.24.1a29.87,29.87,0,0,0,10.62,1.86,29.57,29.57,0,0,0,12.11-2.54l-19.74,33.77c-.64.93-9.81,13.81-25.61,13.81-7.71,0-15.86-3-24.28-9.06l29.44-48.78M449.22,287c-7.66,12.62-17.62,15.37-24.83,15.37a27,27,0,0,1-9.47-1.63l-19.59-12.34-32.44,53.73c10.86,8.37,20.34,11.28,28.26,11.28,18.12,0,28.15-15.22,28.15-15.22L449.22,287Z"/><path class="cls-3" d="M412.47,283.7s12.34,4.36,2.45,17"/><path class="cls-3" d="M394.94,287.2s16.81,15.4,26.11,15.29,20.21-2.32,26.65-13.41"/><path class="cls-3" d="M397,307.12s11.54,10.24,24.44,6.95"/><path class="cls-3" d="M409.12,322.42s6.05,4.54,14.51.25"/><path class="cls-3" d="M381.28,328.74s14,13.88,36,4.72"/><path class="cls-3" d="M388.88,315.19s5.69,4.07,9.26,5.37"/><path class="cls-3" d="M431.85,260.17s12.75,4.17,14.28,21"/><path class="cls-3" d="M438.26,281s5.87,9.08-4.05,18.17"/><path class="cls-3" d="M364.07,344.62s32,27.42,55.25-4.65"/><line class="cls-27" x1="132.99" y1="240.2" x2="140.45" y2="240.2"/><line class="cls-27" x1="548.74" y1="150.43" x2="556.2" y2="150.43"/><line class="cls-28" x1="348.59" y1="99.23" x2="356.06" y2="99.23"/><line class="cls-28" x1="562.99" y1="189.14" x2="570.33" y2="190.46"/><line class="cls-29" x1="269.82" y1="375.37" x2="277.28" y2="375.37"/><circle class="cls-20" cx="579.07" cy="282.33" r="2.47"/><circle class="cls-20" cx="324.75" cy="196.29" r="2.47"/><path class="cls-3" d="M194.35,218.44s-54.89-34.2-41,63.72c14.46,101.81,82.34,157.23,92,143.41s1.42-39.78,1.42-39.78"/><rect class="cls-30" x="247.49" y="193.17" width="88.39" height="19.87" rx="1.41"/><rect class="cls-1" x="256.91" y="199.02" width="46.22" height="3.02" rx="1.51"/><line class="cls-3" x1="257.34" y1="205.96" x2="330.78" y2="205.96"/><path class="cls-31" d="M358.53,253.2c-1.86-.91-3.65-1.89-5.42-2.92-.44-.25-.88-.52-1.31-.78-9.28-6.32-17.36-11.47-26.66-17.61l.86-1.35c.31-.48.65-1,1.05-1.65s.65-1,1-1.51q1.38-2.17,2.79-4.36l.94-1.46c1.05-1.57,2.09-3.16,3.1-4.77.21-.32.41-.64.61-1,4.54-8.72,17.38-30.31,19.48-33.59,7.07,4.51,12.07,6.95,19.2,11.64l3.3,2.19,3.26,2.19,4.61,2.92c.44.27.87.55,1.3.83a56.88,56.88,0,0,1,5.65,3.28C379.93,220.16,367.61,235,359.44,252,358.84,252.72,358.53,253.2,358.53,253.2Z"/><g id="Layer_2" data-name="Layer 2" class="cls-32"><g id="Layer_1-2" data-name="Layer 1-2"><path class="cls-1" d="M360.53,222.35a2.33,2.33,0,0,0,1.62-.17l-.18.13.78.35-.86.39.18.08c.35.16.7.33,1.05.48.13.06.17.13.14.25a.5.5,0,0,0,0,.12c-.05.31-.18.64.39.71a2.11,2.11,0,0,1-1.73.31,1.94,1.94,0,0,1-.42-.17l-1.3-.65c-.44-.22-.87-.45-1.3-.68s-.85-.47-1.27-.72-.83-.51-1.24-.78a1.93,1.93,0,0,1-.86-1.14,1.66,1.66,0,0,1,.26-1.31c.3-.43.6-.88.9-1.33s.59-.91.89-1.38a1,1,0,0,1,1.1-.53.16.16,0,0,0,.14-.05.32.32,0,0,1,.5,0l.48.35c.25.18.28.26.22.6a5,5,0,0,0,.45.3.19.19,0,0,0,.18,0c.21-.11.43-.22.64-.35a.59.59,0,0,1,.68,0c.36.21.73.41,1.1.61l1.13.55a.56.56,0,0,1,.37.55c0,.21,0,.41,0,.62a.19.19,0,0,0,.15.2,1.79,1.79,0,0,1,.83.52,1.26,1.26,0,0,1,.18,1.54c-.24.41-.5.82-.77,1.24l-.85,1.27-.06.07a1.15,1.15,0,0,1,0-.2c.08-.55.14-1.09.2-1.61s.09-1.05.13-1.56c0-.13,0-.2-.18-.25s-.31-.13-.44-.18c0,.34,0,.66-.1,1a.54.54,0,0,1-.15.29l0-.5-1.22.81a1.51,1.51,0,0,0,.61-1.24l-1,.66-1.37.86-.59-.29,0-.06.12-1.19c0-.4.07-.8.11-1.2a.38.38,0,0,0,0-.1,1.74,1.74,0,0,0-.85.84c0-.34.07-.69.12-1.07l-.55.33a2.2,2.2,0,0,1,1.22-.89,5.2,5.2,0,0,1-.45-.28.22.22,0,0,0-.3,0l-.85.51-.85.49-.86.48-.86.48-.14.08.15.11c.18.12.37.33.55.34s.38-.16.56-.26a.26.26,0,0,1,.33,0c.36.24.74.46,1.12.69l0-.8c.26.15.46.28.68.38a.24.24,0,0,1,.17.21,1.41,1.41,0,0,0,.63.9l-.06.66Zm.18.77a3,3,0,0,0,1.14-.09l-.51-.23a.2.2,0,0,0-.13,0l-.49.33c-.34-.11-.69-.21-1-.35a3.67,3.67,0,0,1-.61-.42l-.05,0c.05.05.08.12.15.16.34.19.7.36,1,.54A.41.41,0,0,0,360.71,223.12Zm-.48-3.63a2.25,2.25,0,0,1,1.69.06,1.73,1.73,0,0,1,1,1.25c.27-.1.42-.36.75-.39a2.29,2.29,0,0,0-.53-.9,2.93,2.93,0,0,0-.89-.61,3.49,3.49,0,0,0-1-.29,2.66,2.66,0,0,0-1.05.11C360.38,219,360.15,219.23,360.23,219.49Zm-1-2.61a.49.49,0,0,0-.72.13.59.59,0,0,0,.16.77h0a.52.52,0,0,0,.73-.13.6.6,0,0,0-.17-.77Zm-.74,4.5a2.2,2.2,0,0,0,.55.92,4.19,4.19,0,0,0,.05-.47.21.21,0,0,0-.08-.16l-.52-.29Z"/><path class="cls-1" d="M353.81,214.07l-.37.58-1.1-.75-1,1.39-1,1.37h-.06c-.33-.18-.32-.18-.15-.49l.78-1.36.76-1.36c-.42-.29-.84-.6-1.29-.87-.25-.14-.3-.1-.46.14-.31.47-.58.95-.93,1.39a1.69,1.69,0,0,1-1,.62,1.78,1.78,0,0,1-1.16-.24,3,3,0,0,1-.63-.49,1.69,1.69,0,0,1-.14-2.17c.43-.68.88-1.36,1.33-2.07.22.14.45.28.67.44,0,0,0,.13,0,.18l-1.2,1.74a1.51,1.51,0,0,0-.12.2,1.07,1.07,0,0,0,.79,1.64,1,1,0,0,0,.95-.45c.32-.46.61-.93.9-1.41a.71.71,0,0,1,.75-.37,1.93,1.93,0,0,1,.74.26c.5.32,1,.66,1.49,1l1.49,1A.46.46,0,0,1,353.81,214.07Z"/><path class="cls-1" d="M367.09,226.85a.65.65,0,0,1-.41-.69c0-.56,0-1.1-.07-1.62s-.11-1-.19-1.52l-.75,1.16-.8,1.2-.69-.38.37-.55.79-1.19c.27-.43.54-.85.74-1.15l.32-.52c.17.08.35.15.51.24a.27.27,0,0,1,.1.17c.09.43.17.86.23,1.31s.12.92.16,1.4c0,.07,0,.13,0,.24l.71-1.09.67-1.05.66.4s-.55.86-1.14,1.76Z"/><path class="cls-1" d="M353.8,214.69l1,.73-.91,1.4,0,0,.25-.38,1.49,1.13.92-1.42.64.49-.34.53-.75,1.13-.74,1.1-.34.49-.64-.45.88-1.3L353.72,217a1.67,1.67,0,0,1-.69.79c-.3.19-.63.36-.93.59,0-.12,0-.19,0-.26.05-.3.12-.59.16-.89a1.63,1.63,0,0,1,.28-.71l.58-.87c.2-.29.39-.59.58-.88C353.74,214.75,353.77,214.73,353.8,214.69Zm-.92,2.49s0-.09,0-.11l-.29-.17a1.86,1.86,0,0,0-.1.2c0,.2-.08.4-.11.61a.22.22,0,0,0,.07.19.24.24,0,0,0,.2,0c.18-.1.35-.21.51-.32a.58.58,0,0,0,.14-.14,1.88,1.88,0,0,0-.25-.24S352.93,217.18,352.88,217.18Z"/><path class="cls-1" d="M347.84,209.73c-.14-.09-.28-.19-.42-.27a.19.19,0,0,1-.11-.24.73.73,0,0,1,.6-.62.8.8,0,0,1,.89.43.77.77,0,0,1-.28,1,.23.23,0,0,1-.2,0,4.71,4.71,0,0,1-.48-.29Z"/><path class="cls-1" d="M355,215.09l-1-.71a.5.5,0,0,1,.74-.15A.63.63,0,0,1,355,215.09Z"/><path class="cls-1" d="M363.5,222c0,.33-.07.65-.12,1l-.61-.27Z"/><path class="cls-1" d="M349.87,216.67c.19.06.22.15.08.24a.67.67,0,0,1-.36.15c-.28,0-.52,0-.62.34l-.17-.1a.6.6,0,0,1,.64-.47C349.61,216.84,349.78,216.87,349.87,216.67Z"/><path class="cls-1" d="M363.94,224.88l-.31-.16.39-.35C364,224.55,364,224.7,363.94,224.88Z"/><path class="cls-1" d="M360.71,223.12a.41.41,0,0,1-.47,0c-.34-.18-.7-.35-1-.54-.07,0-.1-.11-.15-.16l.05,0a4.39,4.39,0,0,0,.61.42c.32.14.67.24,1,.35Z"/><path class="cls-1" d="M358.44,220.54l-.55-.34.86-.5Z"/></g></g></g></svg>