<svg width="622" height="652" viewBox="0 0 622 652" fill="none" xmlns="http://www.w3.org/2000/svg">
<path d="M422.695 636.833C478.127 641.793 529.075 605.085 564.585 562.256C598.97 520.79 625.056 468.948 621.697 415.155C619.294 378.63 603.72 344.222 577.872 318.332C559.394 300.054 534.383 286.282 508.598 288.956C477.539 292.167 452.343 317.962 421.385 321.325C389.788 324.688 361.216 304.51 334.037 287.913C309.613 272.998 283.006 260.151 254.483 257.881C225.961 255.611 195.221 265.683 178.541 288.973C165.607 307.133 162.264 331.347 147.113 347.709C131.306 364.776 106.63 369.3 84.6088 376.799C47.0996 389.596 11.371 416.837 2.30029 455.428C-6.26654 491.548 10.2456 529.416 33.4095 558.338C77.2346 613.224 146.777 646.569 216.974 646.367C231.387 646.367 246.135 644.87 259.22 638.783" fill="#F4F3FF"/>
<path d="M107.991 235.415C201.688 236.34 232.294 223.443 242.49 209.923C252.686 196.404 258.364 179.303 256.869 162.454C255.575 147.975 247.428 132.774 233.453 128.823C222.35 125.661 209.852 130.672 202.579 139.652C194.667 149.438 192.114 163.193 182.422 171.349C184.437 154.651 169.437 137.987 152.639 138.223C135.842 138.458 121.345 155.559 123.831 172.19C117.65 162.622 105.774 156.35 94.6706 158.821C83.5674 161.293 75.135 173.871 78.8808 184.616C70.724 180.095 61.3383 178.297 52.0903 179.486C42.8422 180.674 34.2145 184.787 27.4632 191.225C24.7151 193.773 22.638 196.962 21.416 200.507C19.1988 207.855 22.8942 216.011 28.7062 221.022C34.5182 226.032 42.1444 228.488 49.5185 230.354C68.6218 235.112 88.3556 236.82 107.991 235.415Z" fill="#F4F3FF"/>
<path d="M508.128 244.479C515.247 244.297 522.254 242.653 528.712 239.647C535.17 236.642 540.943 232.34 545.671 227.008C550.508 221.476 554.204 214.632 554.607 207.3C555.01 199.969 551.566 192.166 545.066 188.702C535.71 183.658 524.371 188.887 515.082 193.999C514.645 187.811 517.131 181.842 519.332 176.057C521.94 169.973 523.507 163.492 523.968 156.888C524.117 152.508 523.365 148.145 521.759 144.069C520.152 139.993 517.725 136.292 514.628 133.195C511.494 130.132 507.689 127.843 503.517 126.509C499.344 125.175 494.919 124.833 490.591 125.51C480.848 127.192 472.685 134.473 468.082 143.25C463.48 152.028 462.102 162.151 462.102 172.055C460.24 167.79 457.428 164.008 453.882 160.998C450.336 157.987 446.15 155.828 441.643 154.685C432.589 152.684 422.292 156.198 417.152 163.916C412.012 171.635 413.171 183.237 420.36 189.14C414.28 187.267 407.864 186.751 401.564 187.626C398.42 188.088 395.419 189.248 392.78 191.019C390.141 192.791 387.931 195.13 386.311 197.867C383.355 203.483 384.212 211.218 389.133 215.203C384.121 214.258 378.964 214.407 374.015 215.641C370.74 216.465 367.296 217.995 365.768 221.005C365.127 222.485 364.877 224.105 365.042 225.71C365.207 227.315 365.781 228.85 366.708 230.169C368.606 232.781 371.062 234.935 373.898 236.475C384.9 243.201 413.759 247.876 508.094 244.597" fill="#F4F3FF"/>
<path d="M73.2709 332.39C76.6051 332.301 79.8855 331.527 82.9082 330.115C85.9308 328.704 88.6311 326.685 90.8413 324.184C93.2071 321.65 94.6714 318.405 95.0071 314.952C95.1457 313.232 94.8026 311.508 94.0163 309.972C93.23 308.436 92.0316 307.15 90.5557 306.259C86.1715 303.921 80.8635 306.343 76.5129 308.731C76.5648 305.816 77.2468 302.948 78.5118 300.323C79.73 297.478 80.4624 294.448 80.6787 291.36C80.7453 289.313 80.3922 287.273 79.6411 285.367C78.8899 283.461 77.7567 281.729 76.3113 280.279C74.8442 278.844 73.063 277.772 71.1092 277.147C69.1555 276.523 67.0832 276.363 65.0569 276.68C62.789 277.18 60.6634 278.186 58.8394 279.625C57.0154 281.064 55.5404 282.897 54.5248 284.987C52.5237 289.181 51.5614 293.795 51.7196 298.44C50.8513 296.442 49.5364 294.671 47.8764 293.263C46.2163 291.855 44.2554 290.847 42.1449 290.318C40.0224 289.835 37.805 289.987 35.7682 290.755C33.7314 291.523 31.9651 292.874 30.6889 294.639C29.5033 296.46 29.0027 298.643 29.2766 300.8C29.5504 302.956 30.5808 304.944 32.1839 306.41C29.3439 305.527 26.3447 305.28 23.3988 305.687C21.928 305.911 20.5251 306.459 19.2907 307.291C18.0564 308.122 17.0214 309.217 16.2598 310.496C15.5536 311.802 15.2991 313.306 15.5361 314.772C15.7732 316.238 16.4883 317.585 17.57 318.601C15.2303 318.16 12.8229 318.235 10.5149 318.82C9.73257 318.939 8.9847 319.225 8.32133 319.657C7.65796 320.089 7.09438 320.658 6.66827 321.325C6.36484 322.017 6.24561 322.775 6.32215 323.527C6.39869 324.278 6.6684 324.997 7.10503 325.613C7.98363 326.84 9.13334 327.847 10.4646 328.556C15.6046 331.7 29.1099 333.886 73.2709 332.356" fill="#F4F3FF"/>
<g opacity="0.46">
<path opacity="0.46" d="M288.633 216.565C288.187 216.565 287.76 216.388 287.445 216.073C287.13 215.758 286.953 215.33 286.953 214.884C286.953 214.438 287.13 214.01 287.445 213.695C287.76 213.38 288.187 213.202 288.633 213.202C289.078 213.202 289.505 213.38 289.821 213.695C290.136 214.01 290.312 214.438 290.312 214.884C290.312 215.33 290.136 215.758 289.821 216.073C289.505 216.388 289.078 216.565 288.633 216.565Z" fill="white"/>
</g>
<path d="M409.93 435.67C417.556 431.514 424.811 426.71 431.615 421.31C445.169 410.545 456.899 397.661 466.353 383.156C471.067 375.927 475.19 368.33 478.682 360.438C482.163 352.544 484.972 344.371 487.081 336.005C487.35 334.963 487.602 333.92 487.837 332.861C487.955 332.39 488.677 332.625 488.559 333.096C486.607 341.599 483.932 349.919 480.564 357.966C477.216 365.958 473.222 373.663 468.621 381.003C459.394 395.771 447.845 408.95 434.421 420.032C427.738 425.536 420.601 430.463 413.088 434.762L410.266 436.343C409.846 436.578 409.51 435.905 409.93 435.67Z" fill="#E4E4F9"/>
<path d="M486.324 339.015C491.648 336.577 497.158 329.397 498.3 322.368C498.686 320.386 498.686 318.347 498.3 316.365C497.964 314.362 496.884 312.56 495.277 311.32C494.551 310.866 493.721 310.604 492.865 310.56C492.01 310.516 491.158 310.691 490.389 311.068C486.525 312.749 484.358 317.794 484.022 323.057C483.939 328.451 484.728 333.823 486.357 338.965" fill="#E4E4F9"/>
<path d="M479.655 357.495C484.795 360.27 493.849 360.354 500.131 357.041C501.938 356.131 503.561 354.894 504.918 353.392C506.278 351.915 507.044 349.986 507.068 347.978C506.998 347.119 506.71 346.293 506.231 345.578C505.751 344.863 505.097 344.282 504.33 343.892C500.635 341.857 495.293 343.152 490.892 346.044C486.539 349.223 482.732 353.091 479.621 357.495" fill="#E4E4F9"/>
<path d="M480.175 358.302C482.006 352.753 480.495 343.824 476.11 338.124C474.912 336.497 473.412 335.115 471.693 334.055C469.999 332.972 467.963 332.558 465.981 332.894C465.16 333.113 464.408 333.536 463.794 334.124C463.181 334.712 462.725 335.446 462.471 336.257C461.11 340.243 463.327 345.27 466.939 349.071C470.831 352.795 475.302 355.861 480.175 358.151" fill="#E4E4F9"/>
<path d="M466.167 382.819C470.82 386.367 479.757 387.864 486.476 385.51C488.399 384.892 490.188 383.917 491.75 382.634C493.323 381.375 494.376 379.579 494.706 377.59C494.766 376.739 494.609 375.888 494.251 375.114C493.892 374.341 493.344 373.671 492.657 373.167C489.298 370.578 483.838 371.048 479.085 373.167C474.303 375.647 469.952 378.884 466.201 382.752" fill="#E4E4F9"/>
<path d="M466.571 383.71C469.141 378.498 469.141 369.434 465.613 363.212C464.672 361.421 463.395 359.828 461.85 358.521C460.343 357.194 458.399 356.469 456.391 356.486C455.537 356.582 454.72 356.895 454.021 357.395C453.321 357.895 452.761 358.567 452.393 359.345C450.445 363.095 451.873 368.392 454.863 372.696C458.16 376.977 462.131 380.691 466.621 383.694" fill="#E4E4F9"/>
<path d="M447.925 406.378C452.04 410.531 460.674 413.238 467.662 411.876C469.652 411.54 471.56 410.833 473.289 409.791C475.01 408.769 476.299 407.155 476.917 405.251C477.096 404.411 477.057 403.538 476.804 402.717C476.551 401.896 476.093 401.154 475.473 400.559C472.517 397.533 467.074 397.196 462.035 398.727C456.951 400.505 452.191 403.1 447.942 406.411" fill="#E4E4F9"/>
<path d="M448.194 407.319C451.553 402.527 452.695 393.531 450.125 386.889C449.436 384.992 448.4 383.241 447.068 381.726C445.754 380.2 443.924 379.212 441.928 378.952C441.071 378.926 440.222 379.119 439.461 379.514C438.7 379.908 438.051 380.49 437.577 381.205C435.125 384.568 435.797 390.1 438.149 394.775C440.808 399.475 444.211 403.712 448.227 407.319" fill="#E4E4F9"/>
<path d="M427.533 424.404C429.252 426.654 431.445 428.497 433.956 429.802C436.468 431.107 439.236 431.842 442.063 431.954C443.679 432.012 445.291 431.767 446.817 431.231C448.333 430.71 449.606 429.651 450.395 428.254C450.676 427.628 450.789 426.939 450.724 426.255C450.66 425.571 450.419 424.916 450.025 424.353C448.228 421.495 443.978 420.368 439.812 420.721C435.546 421.272 431.399 422.516 427.533 424.404Z" fill="#E4E4F9"/>
<path d="M427.585 425.177C429.492 423.084 430.915 420.597 431.754 417.891C432.593 415.186 432.827 412.328 432.439 409.522C432.218 407.924 431.693 406.383 430.894 404.982C430.124 403.568 428.854 402.494 427.333 401.972C426.666 401.811 425.969 401.822 425.308 402.005C424.647 402.187 424.043 402.535 423.553 403.015C421.084 405.301 420.714 409.741 421.873 413.726C423.173 417.832 425.13 421.699 427.669 425.177" fill="#E4E4F9"/>
<path d="M423.786 590.994C429.952 597.254 437.841 601.533 446.446 603.286C455.037 604.982 463.862 605.113 472.499 603.673C499.051 599.728 523.209 586.097 540.328 565.401C537.182 562.336 533.318 560.11 529.09 558.927C513.342 553.491 496.435 552.34 480.096 555.59C463.758 558.839 448.575 566.374 436.099 577.424C432.605 580.501 426.02 586.79 423.82 590.876" fill="#90AEE4"/>
<path d="M532.469 566.191C518.705 568.716 505.085 571.971 491.667 575.944C478.229 579.761 464.791 583.78 451.168 586.958C443.559 588.74 435.882 590.321 428.122 591.33C427.433 591.33 427.215 590.355 427.92 590.254C441.737 588.177 455.402 585.182 468.822 581.291C482.26 577.575 495.699 573.489 509.305 570.059C516.88 568.142 524.523 566.443 532.25 565.132C532.939 565.014 533.157 566.073 532.469 566.191Z" fill="white"/>
<path d="M445.893 587.362C449.947 589.483 454.146 591.315 458.458 592.843C462.763 594.378 467.169 595.614 471.644 596.543C474.18 597.064 476.683 597.468 479.304 597.804C479.992 597.888 479.908 598.964 479.304 598.88C474.695 598.309 470.131 597.415 465.647 596.207C461.166 595.001 456.776 593.478 452.511 591.65C450.092 590.624 447.707 589.48 445.372 588.287C445.313 588.247 445.262 588.196 445.222 588.136C445.182 588.077 445.154 588.01 445.14 587.94C445.126 587.869 445.126 587.797 445.14 587.727C445.154 587.656 445.181 587.589 445.221 587.53C445.261 587.47 445.312 587.419 445.371 587.379C445.431 587.339 445.498 587.312 445.568 587.297C445.638 587.283 445.71 587.283 445.78 587.297C445.851 587.311 445.917 587.339 445.977 587.379L445.893 587.362Z" fill="white"/>
<path d="M460.372 583.376C462.688 579.638 465.56 576.276 468.889 573.405C472.269 570.494 475.875 567.856 479.673 565.518C481.806 564.156 483.973 562.862 486.14 561.567C486.745 561.197 487.232 562.189 486.627 562.542C482.865 564.795 479.085 567.065 475.49 569.605C471.902 572.077 468.596 574.936 465.63 578.13C463.994 579.941 462.537 581.907 461.28 583.999C460.91 584.604 460.003 583.999 460.372 583.393V583.376Z" fill="white"/>
<path d="M484.461 577.054C490.202 579.223 496.207 580.614 502.317 581.19C503.997 581.342 505.676 581.443 507.457 581.476C508.162 581.476 508.078 582.569 507.457 582.552C501.274 582.434 495.134 581.495 489.198 579.761C487.518 579.257 485.838 578.702 484.159 578.08C483.504 577.827 483.856 576.802 484.511 577.054H484.461Z" fill="white"/>
<path d="M501.057 572.026C505.08 567.455 509.997 563.758 515.503 561.163C517.045 560.424 518.633 559.783 520.257 559.246C520.387 559.226 520.52 559.254 520.632 559.323C520.744 559.392 520.827 559.499 520.868 559.625C520.908 559.75 520.903 559.886 520.852 560.007C520.802 560.129 520.71 560.229 520.593 560.289C515.002 562.179 509.857 565.195 505.475 569.151C504.213 570.279 503.024 571.487 501.914 572.766C501.81 572.847 501.682 572.889 501.55 572.884C501.419 572.879 501.294 572.827 501.197 572.738C501.1 572.65 501.038 572.529 501.022 572.399C501.005 572.268 501.036 572.136 501.108 572.026H501.057Z" fill="white"/>
<path d="M228.463 624.053C230.915 608.919 227.858 593.247 221.408 579.374C214.958 565.502 205.265 553.344 194.33 542.633C160.583 509.822 115.911 490.657 68.9022 488.824C67.508 496.357 69.4397 504.109 71.8585 511.373C81.0951 539.097 97.5144 563.872 119.441 583.169C141.367 602.465 168.015 615.593 196.665 621.211C204.661 622.792 220.417 625.297 228.463 623.986" fill="#E3E1FF"/>
<path d="M78.2427 499.03C96.1994 515.846 115.617 530.795 135.254 545.475C154.89 560.154 174.762 574.582 193.659 590.22C204.242 598.931 214.522 608.011 224.248 617.68C225.121 618.537 223.862 619.983 222.988 619.109C205.586 601.84 186.47 586.454 166.968 571.639C147.466 556.825 127.46 542.498 108.176 527.23C97.4256 518.704 86.9271 509.86 76.8821 500.51C75.975 499.669 77.2348 498.223 78.1419 499.064L78.2427 499.03Z" fill="#A4A4ED"/>
<path d="M199.857 597.098C198.49 589.198 196.571 581.405 194.112 573.775C191.675 566.17 188.717 558.742 185.26 551.545C183.278 547.453 181.139 543.451 178.843 539.539C178.238 538.479 179.834 537.42 180.523 538.479C184.625 545.509 188.239 552.813 191.341 560.339C194.389 567.873 196.909 575.61 198.883 583.494C200.025 587.984 200.982 592.49 201.772 597.047C201.786 597.299 201.7 597.546 201.534 597.735C201.367 597.923 201.133 598.039 200.882 598.056C200.629 598.07 200.38 597.985 200.189 597.819C199.998 597.652 199.879 597.418 199.857 597.165V597.098Z" fill="#A4A4ED"/>
<path d="M178.927 581.174C171.25 581.953 163.498 581.539 155.948 579.946C148.3 578.366 140.79 576.178 133.489 573.405C129.34 571.875 125.225 570.244 121.109 568.612C119.967 568.142 120.807 566.426 121.949 566.931C129.105 569.79 136.278 572.631 143.635 574.935C150.899 577.308 158.403 578.87 166.01 579.593C170.272 579.935 174.558 579.873 178.809 579.408C180.019 579.257 180.136 581.174 178.927 581.308V581.174Z" fill="#A4A4ED"/>
<path d="M144.459 554.353C141.359 544.046 136.896 534.2 131.189 525.078C129.587 522.522 127.908 520.027 126.149 517.595C125.41 516.603 127.023 515.56 127.745 516.552C134.155 525.306 139.374 534.873 143.266 545.004C144.392 547.879 145.383 550.788 146.273 553.748C146.626 554.925 144.812 555.53 144.459 554.353Z" fill="#A4A4ED"/>
<path d="M119.75 536.596C109.13 535.846 98.7757 532.921 89.3298 528.003C86.6718 526.623 84.0922 525.096 81.6028 523.43C81.3935 523.285 81.2502 523.062 81.2045 522.812C81.1588 522.561 81.2145 522.302 81.3592 522.093C81.504 521.883 81.7261 521.74 81.9766 521.694C82.227 521.648 82.4853 521.704 82.6947 521.849C91.2865 527.654 100.977 531.631 111.167 533.536C114.077 534.072 117.016 534.442 119.969 534.645C120.2 534.688 120.408 534.815 120.552 535.001C120.696 535.188 120.766 535.421 120.75 535.656C120.733 535.891 120.63 536.111 120.462 536.275C120.293 536.44 120.069 536.536 119.834 536.546L119.75 536.596Z" fill="#A4A4ED"/>
<path d="M418.059 413.104C420.396 404.737 422.02 396.186 422.914 387.544C423.801 378.987 423.992 370.371 423.485 361.783C422.45 344.472 418.645 327.44 412.214 311.337C408.99 303.335 405.101 295.618 400.59 288.266C400.035 287.341 399.464 286.433 398.91 285.525C398.641 285.122 399.313 284.769 399.582 285.172C404.304 292.508 408.384 300.238 411.777 308.277C415.155 316.263 417.874 324.514 419.907 332.945C421.959 341.368 423.33 349.944 424.006 358.588C424.719 367.284 424.719 376.024 424.006 384.719C423.253 393.351 421.787 401.906 419.621 410.296C419.353 411.338 419.067 412.381 418.782 413.406C418.753 413.502 418.687 413.583 418.599 413.63C418.51 413.677 418.407 413.688 418.311 413.659C418.215 413.63 418.135 413.564 418.088 413.475C418.041 413.387 418.03 413.284 418.059 413.188V413.104Z" fill="#FC6681"/>
<path d="M402.219 290.906C404.185 285.391 402.908 276.428 398.675 270.728C397.513 269.077 396.048 267.662 394.358 266.558C392.692 265.435 390.672 264.962 388.681 265.229C387.841 265.433 387.068 265.849 386.436 266.438C385.803 267.027 385.333 267.769 385.069 268.592C383.608 272.544 385.707 277.639 389.218 281.523C393.013 285.347 397.404 288.527 402.219 290.94" fill="#FC6681"/>
<path d="M410.785 308.546C416.362 306.864 422.745 300.373 424.761 293.546C425.365 291.606 425.604 289.571 425.466 287.543C425.356 285.533 424.506 283.634 423.081 282.213C422.416 281.671 421.625 281.308 420.781 281.158C419.938 281.008 419.07 281.076 418.26 281.355C414.212 282.566 411.423 287.308 410.449 292.453C409.675 297.787 409.783 303.213 410.768 308.512" fill="#FC6681"/>
<path d="M411.743 308.747C409.039 303.551 401.664 298.406 394.525 297.632C392.523 297.359 390.488 297.473 388.529 297.969C386.559 298.449 384.84 299.648 383.708 301.332C383.29 302.082 383.071 302.928 383.071 303.787C383.071 304.646 383.29 305.491 383.708 306.242C385.639 310.009 390.78 311.926 396.02 311.976C401.403 311.794 406.72 310.731 411.76 308.831" fill="#FC6681"/>
<path d="M419.503 335.904C425.281 335.03 432.555 329.649 435.595 323.209C436.507 321.401 437.077 319.44 437.275 317.424C437.467 315.42 436.917 313.415 435.729 311.791C435.156 311.152 434.43 310.669 433.619 310.39C432.807 310.11 431.938 310.043 431.093 310.194C426.911 310.782 423.434 315.036 421.687 319.98C420.108 325.135 419.387 330.515 419.553 335.904" fill="#FC6681"/>
<path d="M420.428 336.308C418.546 330.759 412.029 324.537 405.108 322.687C403.17 322.116 401.14 321.922 399.128 322.116C397.125 322.264 395.249 323.158 393.871 324.621C393.341 325.299 392.993 326.102 392.861 326.952C392.729 327.803 392.816 328.673 393.115 329.481C394.425 333.483 399.229 336.207 404.403 337.014C409.747 337.649 415.16 337.411 420.428 336.308Z" fill="#FC6681"/>
<path d="M423.62 365.415C429.465 365.415 437.427 361.06 441.324 355.107C442.477 353.446 443.304 351.58 443.76 349.609C444.231 347.655 443.968 345.596 443.021 343.824C442.543 343.11 441.892 342.53 441.127 342.138C440.363 341.747 439.511 341.557 438.653 341.588C434.437 341.588 430.389 345.304 427.953 349.996C425.689 354.886 424.226 360.11 423.62 365.466" fill="#FC6681"/>
<path d="M424.475 365.886C423.383 360.118 417.756 353.039 411.204 350.248C409.369 349.409 407.391 348.929 405.376 348.835C403.379 348.69 401.398 349.289 399.816 350.517C399.196 351.114 398.739 351.861 398.489 352.685C398.239 353.509 398.205 354.384 398.388 355.225C399.127 359.379 403.427 362.708 408.466 364.272C413.671 365.66 419.067 366.188 424.441 365.836" fill="#FC6681"/>
<path d="M422.276 392.623C425.087 392.957 427.937 392.67 430.624 391.781C433.312 390.891 435.772 389.422 437.83 387.477C438.985 386.355 439.92 385.026 440.585 383.559C441.28 382.112 441.417 380.46 440.971 378.918C440.712 378.281 440.296 377.72 439.761 377.288C439.226 376.855 438.591 376.566 437.914 376.446C434.555 375.757 430.842 378.01 428.188 381.239C425.602 384.685 423.593 388.53 422.242 392.623" fill="#FC6681"/>
<path d="M422.881 393.127C422.714 390.299 421.928 387.542 420.578 385.051C419.228 382.561 417.348 380.398 415.07 378.716C413.766 377.767 412.296 377.071 410.736 376.665C409.19 376.229 407.538 376.385 406.1 377.102C405.517 377.466 405.037 377.975 404.708 378.579C404.378 379.182 404.21 379.861 404.219 380.549C404.118 383.912 406.99 387.275 410.635 389.293C414.485 391.221 418.62 392.516 422.881 393.127Z" fill="#FC6681"/>
<path d="M204.409 531.972C201.794 523.689 198.478 515.645 194.499 507.926C190.558 500.281 186.002 492.97 180.876 486.066C175.703 479.083 169.973 472.532 163.742 466.476C157.567 460.454 150.91 454.948 143.837 450.014C136.764 445.073 129.284 440.741 121.479 437.066C120.522 436.595 119.531 436.158 118.557 435.72C118.12 435.519 118.557 434.863 118.926 435.048C126.886 438.606 134.528 442.837 141.771 447.693C148.958 452.511 155.744 457.904 162.062 463.819C174.778 475.717 185.488 489.595 193.776 504.916C197.883 512.546 201.35 520.505 204.141 528.71C204.477 529.718 204.813 530.744 205.132 531.77C205.283 532.241 204.561 532.443 204.409 531.972Z" fill="#BDD4EC"/>
<path d="M124.285 438.394C122.925 432.694 116.945 425.9 110.276 423.428C108.399 422.686 106.398 422.303 104.38 422.302C102.368 422.274 100.418 422.993 98.9039 424.32C98.317 424.946 97.8994 425.711 97.6907 426.544C97.482 427.377 97.4891 428.249 97.7112 429.078C98.6687 433.198 103.187 436.309 108.26 437.637C113.526 438.751 118.938 439.007 124.285 438.394Z" fill="#BDD4EC"/>
<path d="M141.133 448.483C144.846 443.96 146.66 435.031 144.611 428.305C144.078 426.353 143.177 424.52 141.957 422.907C140.763 421.288 139.018 420.163 137.052 419.746C136.196 419.655 135.332 419.785 134.541 420.124C133.75 420.462 133.059 420.998 132.533 421.68C129.829 424.908 130.081 430.407 132.079 435.25C134.359 440.134 137.417 444.615 141.133 448.517" fill="#BDD4EC"/>
<path d="M142.04 448.113C137.001 445.255 127.879 445.036 121.547 448.265C119.721 449.131 118.078 450.342 116.709 451.83C115.325 453.285 114.529 455.202 114.475 457.211C114.534 458.07 114.812 458.9 115.283 459.621C115.753 460.342 116.4 460.93 117.163 461.33C120.824 463.432 126.183 462.205 130.601 459.38C135.003 456.269 138.872 452.464 142.057 448.113" fill="#BDD4EC"/>
<path d="M163.425 466.594C167.775 462.692 170.933 454.201 169.942 447.138C169.704 445.132 169.094 443.187 168.145 441.404C167.205 439.628 165.653 438.253 163.777 437.537C162.948 437.316 162.075 437.312 161.243 437.524C160.411 437.736 159.647 438.157 159.024 438.747C155.849 441.539 155.261 447.004 156.487 452.099C158 457.275 160.343 462.17 163.425 466.594Z" fill="#BDD4EC"/>
<path d="M164.33 466.375C159.728 462.76 150.892 461.162 144.055 463.382C142.124 463.965 140.323 464.913 138.747 466.173C137.144 467.419 136.06 469.217 135.707 471.218C135.637 472.075 135.787 472.936 136.142 473.719C136.498 474.502 137.048 475.18 137.739 475.691C141.099 478.331 146.508 477.944 151.312 475.825C156.127 473.419 160.523 470.25 164.33 466.442" fill="#BDD4EC"/>
<path d="M182.976 489.025C187.848 485.78 192.148 477.809 192.165 470.697C192.217 468.673 191.881 466.657 191.173 464.761C190.506 462.864 189.159 461.282 187.394 460.321C186.605 459.986 185.743 459.858 184.891 459.95C184.038 460.041 183.223 460.348 182.523 460.843C178.995 463.163 177.651 468.477 178.155 473.706C178.924 479.04 180.552 484.214 182.976 489.025Z" fill="#BDD4EC"/>
<path d="M183.95 488.941C179.902 484.72 171.301 481.879 164.297 483.14C162.3 483.443 160.38 484.122 158.636 485.141C156.898 486.143 155.584 487.745 154.94 489.647C154.748 490.487 154.773 491.362 155.014 492.19C155.255 493.017 155.704 493.768 156.318 494.373C159.207 497.433 164.717 497.82 169.756 496.407C174.864 494.702 179.663 492.181 183.967 488.941" fill="#BDD4EC"/>
<path d="M196.75 512.516C199.284 511.257 201.509 509.455 203.269 507.237C205.028 505.02 206.278 502.442 206.93 499.686C207.3 498.116 207.368 496.49 207.131 494.894C206.918 493.301 206.129 491.841 204.914 490.791C204.349 490.396 203.693 490.153 203.008 490.085C202.322 490.017 201.631 490.127 201 490.404C197.859 491.632 195.961 495.583 195.474 499.754C195.201 504.049 195.632 508.36 196.75 512.516Z" fill="#BDD4EC"/>
<path d="M197.523 512.617C195.836 510.34 193.669 508.464 191.175 507.121C188.681 505.778 185.922 505.002 183.094 504.849C181.484 504.762 179.871 504.979 178.341 505.488C176.813 505.983 175.521 507.025 174.712 508.413C174.427 509.039 174.304 509.726 174.357 510.412C174.41 511.097 174.636 511.758 175.015 512.331C176.778 515.207 181.011 516.401 185.177 516.115C189.455 515.627 193.625 514.446 197.523 512.617Z" fill="#BDD4EC"/>
<path d="M457.685 532.594C466.179 534.387 474.811 535.445 483.486 535.755C509.48 536.676 535.309 531.269 558.756 519.999C566.519 516.253 573.953 511.86 580.98 506.866C581.87 506.244 582.659 505.622 583.6 504.983C583.986 504.68 584.373 505.336 583.986 505.622C576.988 510.821 569.559 515.411 561.78 519.343C554.056 523.249 546.028 526.522 537.776 529.13C529.544 531.728 521.119 533.668 512.58 534.931C503.956 536.206 495.242 536.768 486.527 536.613C477.873 536.463 469.248 535.586 460.742 533.99L457.584 533.351C457.114 533.25 457.282 532.51 457.769 532.611L457.685 532.594Z" fill="#BDD4EC"/>
<path d="M578.459 508.666C584.069 510.263 592.921 508.397 598.347 503.789C599.918 502.518 601.234 500.96 602.227 499.199C603.236 497.456 603.57 495.404 603.168 493.431C602.909 492.614 602.446 491.876 601.823 491.287C601.2 490.699 600.437 490.279 599.607 490.068C595.559 488.874 590.62 491.312 586.975 495.112C583.421 499.157 580.545 503.751 578.459 508.716" fill="#BDD4EC"/>
<path d="M561.41 518.402C563.51 523.85 570.346 529.803 577.284 531.35C579.243 531.841 581.278 531.955 583.281 531.686C585.264 531.436 587.087 530.467 588.404 528.962C588.903 528.264 589.216 527.449 589.313 526.596C589.41 525.742 589.288 524.878 588.958 524.085C587.463 520.117 582.558 517.645 577.368 517.006C571.997 516.595 566.595 517.067 561.376 518.402" fill="#BDD4EC"/>
<path d="M561.275 519.36C566.314 516.317 570.9 508.548 571.219 501.418C571.347 499.405 571.097 497.386 570.48 495.466C569.889 493.539 568.609 491.899 566.886 490.858C566.111 490.491 565.256 490.327 564.4 490.383C563.545 490.439 562.718 490.713 561.997 491.178C558.369 493.347 556.807 498.61 557.093 503.856C557.636 509.218 559.048 514.454 561.275 519.36Z" fill="#BDD4EC"/>
<path d="M534.652 528.911C535.911 534.629 541.757 541.557 548.375 544.146C550.237 544.937 552.233 545.359 554.254 545.39C556.289 545.47 558.282 544.793 559.848 543.49C560.447 542.874 560.878 542.115 561.102 541.285C561.325 540.455 561.333 539.582 561.125 538.748C560.268 534.612 555.8 531.417 550.744 529.988C545.501 528.765 540.095 528.401 534.736 528.911" fill="#BDD4EC"/>
<path d="M534.451 529.853C539.843 527.6 545.621 520.621 546.998 513.643C547.439 511.672 547.501 509.635 547.183 507.64C546.882 505.664 545.866 503.869 544.328 502.595C543.618 502.111 542.796 501.817 541.94 501.741C541.085 501.664 540.224 501.808 539.44 502.158C535.526 503.756 533.191 508.716 532.721 513.929C532.45 519.315 533.051 524.71 534.501 529.904" fill="#BDD4EC"/>
<path d="M505.575 534.982C506.011 540.817 510.832 548.434 517.03 551.999C518.759 553.035 520.669 553.731 522.658 554.05C524.638 554.406 526.681 554.01 528.386 552.941C529.064 552.416 529.597 551.727 529.935 550.938C530.273 550.15 530.405 549.288 530.317 548.434C530.049 544.213 526.068 540.43 521.28 538.345C516.261 536.381 510.957 535.245 505.575 534.982Z" fill="#BDD4EC"/>
<path d="M505.172 535.873C510.832 534.41 517.518 528.306 519.87 521.597C520.593 519.704 520.941 517.687 520.894 515.661C520.886 513.653 520.138 511.72 518.794 510.229C518.157 509.651 517.383 509.245 516.545 509.051C515.707 508.857 514.833 508.88 514.007 509.12C509.925 510.129 506.902 514.719 505.608 519.814C504.578 525.105 504.414 530.529 505.121 535.873" fill="#BDD4EC"/>
<path d="M478.362 535.469C478.225 538.291 478.708 541.108 479.776 543.722C480.844 546.337 482.471 548.686 484.543 550.603C485.73 551.69 487.108 552.545 488.608 553.126C490.111 553.705 491.775 553.705 493.278 553.126C493.897 552.829 494.429 552.377 494.823 551.815C495.218 551.252 495.461 550.598 495.529 549.914C495.999 546.551 493.513 542.952 490.103 540.514C486.491 538.163 482.519 536.419 478.345 535.352" fill="#BDD4EC"/>
<path d="M477.909 536.092C480.717 535.737 483.413 534.769 485.805 533.255C488.197 531.741 490.227 529.718 491.751 527.331C492.602 525.994 493.2 524.512 493.514 522.959C493.839 521.382 493.57 519.741 492.758 518.351C492.364 517.787 491.83 517.336 491.209 517.041C490.587 516.746 489.9 516.618 489.214 516.67C485.855 516.787 482.714 519.882 480.916 523.665C479.25 527.635 478.235 531.848 477.909 536.142" fill="#BDD4EC"/>
<path d="M415.673 561.264C432.589 563.215 449.873 558.977 464.958 551.057C480.042 543.137 493.06 531.703 504.415 518.973C539.098 479.646 558.033 428.871 557.58 376.413C549.181 375.252 540.631 377.808 532.669 380.885C502.323 392.625 475.633 412.216 455.324 437.657C435.014 463.099 421.813 493.481 417.068 525.7C415.741 534.696 413.708 552.369 415.657 561.264" fill="#E3E1FF"/>
<path d="M546.762 387.343C529.108 408.227 513.419 430.659 498.133 453.293C482.847 475.926 467.897 498.829 451.503 520.756C442.365 533.014 432.807 544.936 422.577 556.287C421.67 557.313 419.991 555.984 420.898 554.958C439.173 534.662 455.282 512.55 470.719 490.051C486.156 467.552 501.056 444.515 517.031 422.285C525.95 409.875 535.222 397.701 545.099 386.014C545.99 384.972 547.653 386.3 546.779 387.343H546.762Z" fill="#A4A4ED"/>
<path d="M444.13 528.003C461.571 524.098 478.388 517.794 494.103 509.271C498.582 506.85 502.921 504.26 507.121 501.502C508.263 500.762 509.523 502.494 508.364 503.184C500.757 508.131 492.815 512.542 484.595 516.384C476.4 520.234 467.94 523.493 459.281 526.137C454.359 527.65 449.387 528.945 444.365 530.072C444.226 530.087 444.085 530.075 443.951 530.036C443.817 529.997 443.691 529.932 443.582 529.845C443.473 529.757 443.382 529.649 443.315 529.526C443.247 529.404 443.204 529.269 443.189 529.13C443.174 528.991 443.186 528.85 443.225 528.716C443.263 528.581 443.328 528.456 443.416 528.346C443.503 528.237 443.611 528.146 443.734 528.079C443.856 528.011 443.991 527.968 444.13 527.953V528.003Z" fill="#A4A4ED"/>
<path d="M460.742 503.823C459.479 495.306 459.536 486.645 460.91 478.146C462.306 469.545 464.373 461.066 467.091 452.788C468.57 448.08 470.182 443.422 471.778 438.747C472.232 437.452 474.18 438.31 473.743 439.588C470.938 447.71 468.166 455.848 466 464.172C463.737 472.406 462.391 480.865 461.985 489.395C461.822 494.165 462.114 498.94 462.858 503.655C463.077 505.017 460.96 505.235 460.742 503.89V503.823Z" fill="#A4A4ED"/>
<path d="M488.745 464.105C500.064 460.115 510.798 454.623 520.66 447.777C523.415 445.86 526.097 443.842 528.706 441.724C529.765 440.866 531.024 442.598 529.949 443.405C520.567 451.023 510.212 457.357 499.159 462.238C496.018 463.634 492.81 464.895 489.585 466.039C488.291 466.493 487.518 464.508 488.812 464.054L488.745 464.105Z" fill="#A4A4ED"/>
<path d="M507.187 435.653C507.44 423.754 510.127 412.034 515.082 401.215C516.477 398.181 518.042 395.228 519.769 392.37C519.933 392.165 520.167 392.026 520.426 391.982C520.685 391.937 520.952 391.989 521.175 392.128C521.399 392.267 521.564 392.483 521.639 392.735C521.714 392.987 521.694 393.258 521.583 393.497C515.58 403.381 511.664 414.392 510.077 425.85C509.634 429.117 509.376 432.407 509.304 435.704C509.304 435.985 509.192 436.254 508.994 436.453C508.795 436.651 508.526 436.763 508.246 436.763C507.965 436.763 507.696 436.651 507.497 436.453C507.299 436.254 507.187 435.985 507.187 435.704V435.653Z" fill="#A4A4ED"/>
<path d="M445.625 644.03C448.114 644.038 450.581 643.555 452.884 642.608C455.186 641.66 457.279 640.267 459.043 638.508C460.806 636.749 462.205 634.658 463.16 632.357C464.115 630.055 464.606 627.588 464.606 625.095C464.608 622.602 464.119 620.132 463.165 617.829C462.211 615.525 460.812 613.433 459.049 611.672C457.285 609.911 455.191 608.517 452.888 607.568C450.584 606.619 448.116 606.136 445.625 606.144H212.423C212.101 606.144 211.782 606.081 211.485 605.958C211.187 605.834 210.917 605.653 210.689 605.425C210.461 605.197 210.281 604.927 210.157 604.629C210.034 604.331 209.971 604.012 209.971 603.689V603.673C209.971 603.051 210.216 602.455 210.654 602.014C211.091 601.573 211.685 601.323 212.306 601.318H448.984C452.167 601.31 455.319 601.929 458.262 603.142C461.204 604.355 463.879 606.137 466.132 608.387C468.385 610.636 470.173 613.309 471.393 616.251C472.612 619.193 473.24 622.347 473.24 625.533C473.24 628.712 472.615 631.861 471.399 634.799C470.183 637.737 468.402 640.406 466.156 642.655C463.909 644.903 461.243 646.687 458.308 647.904C455.374 649.121 452.228 649.747 449.052 649.747H212.81C212.057 649.747 211.335 649.447 210.802 648.914C210.27 648.382 209.971 647.659 209.971 646.905V646.771C209.969 646.422 210.035 646.077 210.167 645.755C210.298 645.433 210.492 645.14 210.737 644.893C210.982 644.646 211.274 644.45 211.595 644.316C211.916 644.183 212.26 644.114 212.608 644.114L445.625 644.03Z" fill="#766CFF"/>
<path d="M464.605 625.095C464.616 627.571 464.14 630.024 463.204 632.315C462.268 634.607 460.89 636.691 459.149 638.449C457.409 640.207 455.339 641.605 453.059 642.563C450.778 643.52 448.332 644.019 445.859 644.03H212.472L212.808 642.735C215.781 631.152 215.781 619.005 212.808 607.422L212.472 606.128H445.859C448.335 606.139 450.784 606.638 453.066 607.598C455.349 608.557 457.42 609.958 459.161 611.72C460.902 613.482 462.279 615.57 463.214 617.865C464.148 620.16 464.621 622.617 464.605 625.095Z" fill="#EDEDF9"/>
<path d="M459.062 628.896C459.084 623.895 457.123 619.09 453.607 615.536C450.092 611.983 445.312 609.971 440.316 609.945H213.346C213.178 609.121 213.01 608.263 212.809 607.49L212.473 606.195H445.859C450.847 606.217 455.623 608.22 459.138 611.763C462.652 615.307 464.619 620.102 464.605 625.095C464.616 628.759 463.565 632.347 461.579 635.424C459.593 638.501 456.758 640.935 453.418 642.432C455.209 640.664 456.631 638.556 457.6 636.232C458.569 633.908 459.066 631.414 459.062 628.896Z" fill="#DCDCEF"/>
<path d="M291.975 620.589H393.971V621.985H291.975V620.589Z" fill="#DCDCEF"/>
<path d="M227.858 633.907H329.854V635.302H227.858V633.907Z" fill="#DCDCEF"/>
<path d="M356.766 621.447V643.206L346.872 635.134L337.163 642.937L338.288 621.363L356.766 621.447Z" fill="#FC6681"/>
<path d="M196.85 565.502H423.652C432.372 565.502 439.441 572.578 439.441 581.308V585.462C439.441 594.191 432.372 601.268 423.652 601.268H196.85C188.129 601.268 181.06 594.191 181.06 585.462V581.308C181.06 572.578 188.129 565.502 196.85 565.502Z" fill="#06005A"/>
<path opacity="0.43" d="M216.688 565.502H220.938V601.268H216.688V565.502Z" fill="white"/>
<path opacity="0.43" d="M235.502 565.502H239.752V601.268H235.502V565.502Z" fill="white"/>
<path d="M439.441 575.473V580.518L237.131 565.384H427.146C433.965 565.502 439.441 571.723 439.441 575.473Z" fill="#000033"/>
<path opacity="0.43" d="M404.184 565.502H408.434V601.268H404.184V565.502Z" fill="white"/>
<path opacity="0.43" d="M386.194 565.502H390.443V601.268H386.194V565.502Z" fill="white"/>
<path d="M425.467 540.901C425.467 551.377 417.639 559.869 407.98 559.869H190.451L190.753 558.557C193.544 546.952 193.544 534.85 190.753 523.245L190.451 521.933H408.064C417.723 521.95 425.467 530.442 425.467 540.901Z" fill="#EDEDF9"/>
<path d="M407.896 559.953C417.639 559.953 425.551 551.461 425.551 540.985C425.551 530.526 417.639 522.034 407.896 522.034H190.485C190.173 522.023 189.868 521.951 189.584 521.822C189.301 521.692 189.046 521.508 188.834 521.28C188.622 521.052 188.457 520.785 188.348 520.493C188.239 520.201 188.189 519.89 188.2 519.579V519.495C188.189 519.197 188.237 518.901 188.34 518.622C188.444 518.343 188.602 518.088 188.805 517.871C189.008 517.653 189.252 517.478 189.523 517.356C189.794 517.234 190.087 517.166 190.384 517.157H411.038C423.485 517.157 433.58 527.987 433.58 541.372C433.58 554.824 423.501 565.586 411.038 565.586H190.854C190.492 565.573 190.137 565.488 189.807 565.338C189.478 565.187 189.182 564.973 188.935 564.707C188.689 564.442 188.497 564.13 188.371 563.79C188.245 563.451 188.187 563.089 188.2 562.727V562.593C188.189 562.257 188.244 561.922 188.362 561.608C188.48 561.293 188.659 561.005 188.888 560.76C189.117 560.515 189.393 560.318 189.698 560.179C190.004 560.04 190.334 559.963 190.669 559.953H407.896Z" fill="#766CFF"/>
<path d="M420.428 544.667C420.428 534.191 412.617 525.7 402.958 525.7H191.308C191.14 524.892 190.989 524.018 190.787 523.261L190.485 521.95H408.065C417.724 521.95 425.551 530.442 425.551 540.901C425.619 544.485 424.677 548.016 422.832 551.088C420.987 554.161 418.314 556.65 415.12 558.271C418.57 554.588 420.471 549.716 420.428 544.667Z" fill="#DCDCEF"/>
<path d="M290.598 536.428H392.594V537.824H290.598V536.428Z" fill="#DCDCEF"/>
<path d="M226.499 549.746H328.494V551.141H226.499V549.746Z" fill="#DCDCEF"/>
<path d="M241.365 415.878C236.998 415.878 232.809 414.143 229.719 411.053C226.629 407.963 224.891 403.771 224.887 399.399C224.887 395.024 226.623 390.828 229.713 387.735C232.803 384.641 236.995 382.903 241.365 382.903H444.264C444.543 382.903 444.82 382.848 445.078 382.74C445.336 382.633 445.57 382.475 445.766 382.277C445.963 382.078 446.119 381.843 446.224 381.584C446.33 381.325 446.383 381.047 446.38 380.768C446.38 380.227 446.167 379.707 445.786 379.323C445.405 378.939 444.888 378.721 444.348 378.716H238.426C235.662 378.716 232.926 379.261 230.374 380.32C227.821 381.38 225.502 382.932 223.549 384.889C221.596 386.845 220.047 389.168 218.991 391.724C217.935 394.28 217.393 397.02 217.395 399.786C217.393 402.551 217.935 405.29 218.991 407.845C220.047 410.4 221.596 412.722 223.55 414.678C225.503 416.633 227.822 418.184 230.375 419.241C232.927 420.298 235.663 420.841 238.426 420.839H443.945C444.6 420.839 445.228 420.578 445.691 420.115C446.154 419.651 446.414 419.023 446.414 418.367V418.249C446.416 417.948 446.359 417.648 446.245 417.369C446.131 417.09 445.963 416.835 445.751 416.621C445.539 416.407 445.286 416.237 445.008 416.121C444.729 416.005 444.431 415.946 444.13 415.946L241.365 415.878Z" fill="#FC6681"/>
<path d="M224.886 399.399C224.868 403.749 226.576 407.928 229.634 411.018C232.693 414.108 236.851 415.856 241.197 415.878H444.213L443.927 414.752C441.323 404.683 441.323 394.116 443.927 384.047L444.213 382.903H241.197C239.044 382.914 236.914 383.35 234.929 384.185C232.944 385.02 231.143 386.238 229.628 387.77C228.114 389.301 226.916 391.117 226.102 393.112C225.288 395.108 224.875 397.244 224.886 399.399Z" fill="#EDEDF9"/>
<path d="M229.673 402.661C229.662 400.506 230.075 398.37 230.889 396.374C231.703 394.379 232.901 392.564 234.416 391.032C235.93 389.5 237.732 388.282 239.716 387.447C241.701 386.612 243.831 386.176 245.984 386.165H443.44C443.608 385.459 443.743 384.736 443.927 384.03L444.213 382.903H241.197C239.044 382.914 236.914 383.35 234.929 384.185C232.944 385.02 231.143 386.238 229.628 387.77C228.114 389.301 226.916 391.117 226.102 393.112C225.288 395.108 224.875 397.244 224.886 399.399C224.871 402.595 225.783 405.727 227.513 408.414C229.243 411.101 231.715 413.227 234.629 414.533C233.049 412.989 231.796 411.142 230.945 409.102C230.093 407.062 229.661 404.872 229.673 402.661Z" fill="#DCDCEF"/>
<path d="M286.331 395.464H375.057V396.675H286.331V395.464Z" fill="#DCDCEF"/>
<path d="M261.521 406.445H350.246V407.656H261.521V406.445Z" fill="#DCDCEF"/>
<path d="M210.02 469.334H436.822C445.542 469.334 452.611 476.411 452.611 485.141V501.183C452.611 509.912 445.542 516.989 436.822 516.989H210.02C201.299 516.989 194.23 509.912 194.23 501.183V485.141C194.23 476.411 201.299 469.334 210.02 469.334Z" fill="#FC6681"/>
<path opacity="0.43" d="M229.875 469.334H234.125V516.989H229.875V469.334Z" fill="white"/>
<path opacity="0.43" d="M248.688 469.334H252.938V516.989H248.688V469.334Z" fill="white"/>
<path d="M452.611 481.576V489.412L250.3 469.334H440.383C443.626 469.334 446.736 470.624 449.03 472.92C451.323 475.216 452.611 478.329 452.611 481.576Z" fill="#EA496C"/>
<path opacity="0.43" d="M417.371 469.334H421.621V516.989H417.371V469.334Z" fill="white"/>
<path opacity="0.43" d="M399.363 469.334H403.613V516.989H399.363V469.334Z" fill="white"/>
<path d="M442.97 463.567C451.486 463.567 458.407 455.159 458.407 444.616C458.407 434.14 451.486 425.665 442.97 425.665H252.804C252.217 425.597 251.679 425.302 251.306 424.844C250.933 424.385 250.753 423.799 250.805 423.21V423.126C250.753 422.561 250.925 421.998 251.283 421.557C251.641 421.117 252.157 420.835 252.72 420.772H445.725C456.61 420.772 465.445 431.618 465.445 444.986C465.445 458.438 456.61 469.2 445.725 469.2H253.123C252.442 469.124 251.819 468.783 251.385 468.252C250.952 467.721 250.744 467.041 250.805 466.358V466.224C250.748 465.588 250.941 464.955 251.342 464.459C251.743 463.963 252.322 463.643 252.955 463.567H442.97Z" fill="#766CFF"/>
<path d="M458.406 444.616C458.406 455.092 451.57 463.567 443.12 463.567H252.837L253.122 462.272C255.541 450.626 255.541 438.606 253.122 426.96L252.837 425.665H443.12C451.57 425.665 458.406 434.14 458.406 444.616Z" fill="#EDEDF9"/>
<path d="M453.921 448.366C453.921 437.906 447.085 429.415 438.635 429.415H253.559C253.425 428.591 253.29 427.733 253.122 426.96L252.837 425.665H443.12C451.519 425.665 458.406 434.073 458.406 444.616C458.406 452.368 454.66 459.01 449.285 461.952C452.353 458.096 453.991 453.295 453.921 448.366Z" fill="#DCDCEF"/>
<path d="M317.658 440.109H400.807V441.505H317.658V440.109Z" fill="#DCDCEF"/>
<path d="M265.402 453.427H348.551V454.823H265.402V453.427Z" fill="#DCDCEF"/>
<path d="M325.639 454.201V475.96L317.593 467.888L309.664 475.691L310.588 454.116L325.639 454.201Z" fill="#06005A"/>
<path d="M278.639 190.855C280.31 199.624 284.927 207.557 291.724 213.337C291.982 213.515 292.172 213.776 292.262 214.077C292.264 214.23 292.236 214.382 292.178 214.523C292.121 214.665 292.035 214.793 291.926 214.901C291.022 215.743 289.908 216.324 288.7 216.582C284.232 217.96 279.585 218.668 274.91 218.684C274.541 218.762 274.16 218.766 273.79 218.694C273.42 218.622 273.068 218.477 272.755 218.267C272.442 218.057 272.174 217.787 271.967 217.471C271.76 217.156 271.618 216.802 271.55 216.431C269.786 211.651 268.344 206.758 267.233 201.785C267.182 201.558 267.182 201.322 267.233 201.095C267.233 200.658 267.754 200.372 268.14 200.12C271.04 198.286 273.612 195.979 275.749 193.293" fill="#FF948C"/>
<path d="M267.182 201.146C267.182 200.709 267.703 200.423 268.089 200.17C270.989 198.337 273.561 196.029 275.699 193.343L278.638 190.855C278.789 191.628 278.991 192.385 279.176 193.158C278.876 193.967 278.711 194.819 278.689 195.681C278.537 199.162 274.976 202.794 273.649 206.022C271.936 209.996 271.792 214.473 273.246 218.55C272.954 218.461 272.68 218.318 272.44 218.129C271.991 217.659 271.672 217.079 271.516 216.448C269.763 211.661 268.332 206.763 267.233 201.785C267.172 201.577 267.155 201.36 267.182 201.146Z" fill="#EF7E7B"/>
<path d="M243.447 214.127C245.159 210.377 245.345 206.107 243.968 202.222C243.049 200.288 242.313 198.273 241.767 196.202C241.548 193.05 242.368 189.913 244.102 187.273C245.829 184.659 247.143 181.795 247.999 178.781C248.366 176.73 248.195 174.618 247.503 172.652C246.811 170.687 245.622 168.934 244.052 167.565L240.457 169.466C241.186 171.663 241.473 173.984 241.3 176.293C241.127 178.602 240.498 180.854 239.449 182.918C238.08 185.026 236.953 187.282 236.09 189.644C235.048 193.797 237.215 198.052 239.449 201.701C241.683 205.35 244.002 209.402 243.363 213.64" fill="#06005A"/>
<path d="M258.783 147.303C256.191 147.546 253.677 148.328 251.403 149.598C249.128 150.867 247.143 152.598 245.574 154.678C244.005 156.758 242.886 159.143 242.288 161.681C241.691 164.218 241.628 166.852 242.103 169.415C242.591 171.988 243.598 174.46 243.985 177.032C244.269 178.314 244.254 179.645 243.939 180.92C243.624 182.195 243.019 183.379 242.171 184.381C241.482 185.07 240.894 185.558 240.256 186.315C239.617 187.071 239.231 187.677 239.785 188.484C240.34 189.291 241.969 189.896 243.011 190.653C243.548 191.107 243.968 191.684 244.237 192.334C246.92 197.861 250.308 203.016 254.315 207.67C254.506 207.943 254.767 208.158 255.071 208.292C255.563 208.413 256.082 208.335 256.516 208.074C261.751 206.064 266.78 203.553 271.533 200.574C276.302 197.571 280.114 193.265 282.519 188.164C284.591 183.25 284.83 177.753 283.19 172.677" fill="#FF948C"/>
<path d="M245.497 179.05C245.497 179.874 245.967 180.53 246.539 180.53C247.11 180.53 247.58 179.874 247.58 179.05C247.58 178.226 247.11 177.587 246.539 177.587C245.967 177.587 245.497 178.243 245.497 179.05Z" fill="#06005A"/>
<path opacity="0.51" d="M248.202 188.147C248.202 189.002 248.455 189.838 248.929 190.548C249.404 191.259 250.078 191.813 250.867 192.14C251.656 192.467 252.524 192.553 253.361 192.386C254.199 192.219 254.968 191.808 255.572 191.203C256.175 190.599 256.586 189.829 256.753 188.991C256.92 188.152 256.834 187.283 256.507 186.494C256.181 185.704 255.627 185.029 254.917 184.554C254.207 184.079 253.373 183.826 252.519 183.826C251.374 183.826 250.276 184.281 249.466 185.092C248.657 185.902 248.202 187.001 248.202 188.147Z" fill="#F96662"/>
<path d="M245.967 195.412L251.006 194.352C249.999 195.467 248.812 196.405 247.495 197.127C246.319 197.463 245.967 195.412 245.967 195.412Z" fill="#F96662"/>
<path d="M287.725 156.82C293.086 158.005 298.678 157.56 303.784 155.542C306.38 154.523 308.538 152.625 309.881 150.178C311.018 147.65 311.272 144.814 310.604 142.124C309.731 138.416 307.752 135.062 304.928 132.509C302.104 129.955 298.57 128.324 294.797 127.831C292.641 127.568 290.454 127.751 288.371 128.367C286.288 128.983 284.354 130.019 282.686 131.412C281.034 132.845 279.782 134.684 279.055 136.748C278.327 138.812 278.149 141.029 278.537 143.183" fill="#06005A"/>
<path d="M239.366 151.154C242.397 147.606 246.118 144.714 250.303 142.656C254.488 140.597 259.049 139.415 263.706 139.181C271.131 138.71 277.043 139.484 282.184 142.544C287.324 145.604 290.095 150.145 293.152 155.307C296.781 161.461 299.082 165.396 298.847 172.644C298.743 176.152 297.875 179.595 296.302 182.732C294.729 185.869 292.49 188.624 289.742 190.804C288.231 191.998 284.317 195.143 282.419 195.361C280.05 195.63 280.084 196.168 278.32 194.554C276.6 192.887 275.279 190.852 274.457 188.601C273.482 186.163 272.609 183.305 270.224 182.195C268.258 181.287 266.142 181.909 263.975 182.481C264.009 182.996 264.009 183.513 263.975 184.028C263.639 187.811 261.825 191.275 260.347 194.773C258.868 198.27 257.676 202.155 258.667 205.82C259.561 208.249 260.686 210.585 262.026 212.799C264.166 217.31 264.474 222.476 262.883 227.21L262.631 226.705C262.866 221.526 259.507 216.952 256.416 212.799C253.325 208.645 250.184 203.819 250.94 198.691C251.377 195.664 253.124 193.024 254.299 190.165C255.334 187.488 255.808 184.626 255.694 181.758L254.669 181.253C248.924 178.294 243.23 174.695 239.719 169.264C236.208 163.832 235.369 156.232 239.366 151.154Z" fill="#06005A"/>
<path d="M294.646 160.436C294.646 160.436 296.847 160.436 293.118 155.391C288.733 150.062 284.079 144.961 279.176 140.106C279.176 140.106 277.496 139.097 280.469 145.47C283.442 151.843 290.279 157.695 294.646 160.436Z" fill="#FC6681"/>
<path d="M278.723 140.257C278.723 140.257 277.295 139.618 275.162 142.595C273.247 145.741 271.601 149.043 270.24 152.465C270.24 152.465 269.988 153.558 272.978 150.784C275.752 147.818 277.728 144.196 278.723 140.257Z" fill="#FC6681"/>
<path d="M278.723 140.661C278.723 140.661 278.723 139.316 275.8 138.189C272.919 137.31 269.969 136.68 266.981 136.306C266.981 136.306 266.074 136.306 269.064 138.189C272.023 139.816 275.346 140.667 278.723 140.661Z" fill="#FC6681"/>
<path d="M276.657 140.543C276.654 140.953 276.772 141.354 276.997 141.697C277.222 142.039 277.543 142.307 277.921 142.466C278.298 142.625 278.714 142.668 279.116 142.59C279.518 142.513 279.887 142.317 280.178 142.028C280.469 141.74 280.667 141.371 280.748 140.97C280.829 140.568 280.789 140.151 280.633 139.772C280.478 139.393 280.213 139.069 279.873 138.841C279.532 138.613 279.132 138.492 278.723 138.492C278.178 138.492 277.655 138.707 277.268 139.091C276.881 139.476 276.661 139.997 276.657 140.543Z" fill="#FC6681"/>
<path d="M267.048 182.01C266.208 184.044 266.158 189.156 268.291 189.661C269.003 189.788 269.735 189.755 270.432 189.563C271.13 189.371 271.776 189.025 272.323 188.551C273.417 187.57 274.264 186.342 274.792 184.969C275.645 183.32 275.929 181.433 275.598 179.605C275.404 178.7 274.913 177.886 274.204 177.292C273.495 176.698 272.608 176.358 271.684 176.326C271.041 176.406 270.424 176.628 269.877 176.977C269.331 177.327 268.869 177.793 268.526 178.344C267.856 179.463 267.358 180.676 267.048 181.943" fill="#FF948C"/>
<path d="M267.569 186.92C273.045 186.92 275.396 182.06 274.607 177.89C275.033 178.413 275.342 179.02 275.514 179.672C275.845 181.501 275.561 183.387 274.708 185.037C274.171 186.385 273.325 187.589 272.239 188.551C271.692 189.025 271.046 189.371 270.348 189.563C269.651 189.755 268.919 189.788 268.207 189.661C267.25 189.425 266.729 188.248 266.527 186.836C266.872 186.89 267.22 186.918 267.569 186.92Z" fill="#EF7E7B"/>
<path d="M191.979 449.089C191.123 456.656 189.393 464.794 196.128 476.616C197.057 477.807 197.737 479.174 198.127 480.634C198.379 483.342 195.826 485.511 193.256 486.385C190.686 487.26 187.864 487.344 185.462 488.588C182.556 490.085 180.691 492.994 178.373 495.314C175.274 498.396 171.305 500.451 167.001 501.2C166.514 501.284 165.859 501.2 165.691 500.779C165.643 500.546 165.673 500.304 165.775 500.09C166.867 497.366 169.672 495.785 171.537 493.515C173.401 491.245 174.207 488.47 175.602 485.898C176.744 483.846 178.625 479.995 179.532 477.809C180.96 474.295 180.355 470.545 179.532 466.829C178.462 461.246 177.099 455.723 175.45 450.283" fill="#FF948C"/>
<path d="M283.98 329.582C263.04 322.678 241.038 319.569 219.007 320.4C202.713 321.006 184.992 324.621 174.611 337.216C167.136 346.296 166.33 350.668 165.624 362.439C164.986 373.117 166.414 390.924 167.304 401.568C168.9 419.662 169.286 438.445 173.334 456.134C173.413 456.745 173.651 457.325 174.023 457.816C174.496 458.238 175.078 458.518 175.703 458.623C180.747 459.949 186.027 460.105 191.14 459.077C191.887 458.992 192.59 458.681 193.156 458.186C193.645 457.547 193.921 456.771 193.945 455.966C195.625 443.439 197.019 424.017 198.094 411.321C198.951 401.232 198.8 397.869 202.126 388.267C202.868 385.631 204.162 383.184 205.922 381.087C209.752 377.051 216 376.749 221.544 377.035C240.323 378.01 259.305 382.819 277.698 378.918" fill="#00001E"/>
<path d="M216.168 376.665C217.45 384.257 221.429 391.13 227.372 396.019C228.648 396.865 229.689 398.023 230.395 399.382C231.386 401.922 229.522 404.713 227.288 406.243C225.054 407.773 222.349 408.648 220.367 410.497C217.982 412.734 217.008 416.046 215.328 418.905C213.186 422.715 209.926 425.774 205.988 427.666C205.535 427.885 204.896 428.053 204.611 427.666C204.502 427.454 204.466 427.211 204.51 426.976C204.812 424.051 207.08 421.764 208.256 419.073C209.432 416.383 209.432 413.457 210.087 410.666C210.758 407.74 211.28 404.782 211.649 401.804C212.086 398.037 210.876 396.322 209.096 392.959C206.315 388.618 203.309 384.426 200.092 380.398" fill="#FF948C"/>
<path d="M323.623 341.79C324.513 350.635 324.782 360.875 319.491 368.207C311.747 378.968 296.192 380.936 282.956 381.659C269.719 382.382 256.449 381.155 244.993 374.496C233.537 367.837 223.576 358.857 214.17 349.508C200.496 335.887 187.764 321.342 175.401 306.528C195.558 326.353 214.472 349.088 221.191 376.53C221.367 377.073 221.401 377.652 221.292 378.212C220.955 378.958 220.358 379.556 219.612 379.893L202.814 388.99C202.438 389.319 201.991 389.556 201.508 389.682C201.025 389.808 200.52 389.82 200.031 389.717C199.543 389.615 199.085 389.4 198.693 389.09C198.302 388.78 197.987 388.383 197.775 387.931C188.837 377.048 180.504 365.68 172.814 353.88C161.475 336.896 150.355 318.568 148.978 298.255C148.642 293.059 149.129 287.358 152.64 283.558C156.537 279.321 162.92 278.698 168.665 278.749C192.181 278.934 217.378 293.748 238.325 304.291C259.271 314.835 283.678 342.967 298.628 311.32" fill="#080866"/>
<path d="M152.422 241.452L123.396 203.853C123.228 203.635 122.998 203.472 122.736 203.387C122.475 203.302 122.193 203.298 121.93 203.377C121.666 203.455 121.432 203.612 121.259 203.826C121.086 204.04 120.981 204.301 120.96 204.576L118.591 232.725L136.38 260.639L152.422 241.452Z" fill="#FC6681"/>
<path d="M166.111 248.918L125.982 202.558L119.548 232.069L166.111 248.918Z" fill="#ECEBF2"/>
<path d="M170.578 248.918L149.749 210.983L118.589 232.725L170.578 248.918Z" fill="white"/>
<path d="M189.156 265.683C183.898 257.141 165.824 228.504 160.852 220.618C160.49 220.043 159.944 219.608 159.303 219.385C158.662 219.162 157.964 219.164 157.324 219.39L118.589 232.843L147.565 278.244C147.773 278.573 148.081 278.827 148.444 278.97C148.806 279.112 149.204 279.135 149.581 279.035L187.93 268.777C188.243 268.695 188.532 268.54 188.774 268.325C189.016 268.11 189.204 267.841 189.323 267.54C189.442 267.239 189.489 266.914 189.46 266.592C189.431 266.269 189.327 265.958 189.156 265.683Z" fill="#FC6681"/>
<path d="M119.447 232.422C119.691 233.326 120.114 234.172 120.692 234.908C121.269 235.645 121.988 236.258 122.807 236.71C127.846 239.687 131.441 245.118 136.077 248.851C140.848 252.7 145.952 256.116 151.329 259.058C162.757 264.812 175.27 268.084 188.049 268.66H187.931L149.582 278.917C149.206 279.017 148.808 278.994 148.445 278.852C148.083 278.71 147.775 278.456 147.566 278.127L118.591 232.725L119.447 232.422Z" fill="#F25375"/>
<path d="M286.819 207.922C301.164 216.919 311.075 231.918 316.517 247.977C321.96 264.035 323.354 281.187 323.724 298.137C324.093 315.087 323.488 332.104 325.151 348.987C325.269 350.147 325.151 351.677 324.009 351.963C323.27 352.165 322.548 351.627 321.943 351.139C304.994 337.216 283.056 331.23 263.655 321.006C262.638 320.675 261.736 320.062 261.055 319.237C260.374 318.412 259.941 317.41 259.809 316.348L257.541 307.116C254.181 293.664 250.906 280.044 250.402 266.171C249.66 253.255 253.203 240.456 260.48 229.766C261.908 227.563 267.2 218.213 269.014 216.313C273.784 211.655 279.68 214.632 286.786 207.906" fill="#90AEE4"/>
<path d="M257.39 230.589C257.908 231.896 258.821 233.007 260.002 233.767C261.183 234.527 262.572 234.898 263.975 234.827C275.565 234.121 288.012 234.104 299.636 232.355C300.845 245.807 298.343 259.983 290.75 271.316C282.234 284.012 268.913 292.033 255.475 298.608C252.746 287.985 251.058 277.121 250.436 266.171C249.949 253.912 251.813 241.385 257.39 230.589Z" fill="#6C97D3"/>
<path d="M167.689 268.306C165.523 269.551 162.65 268.407 160.97 266.625C159.375 264.805 157.883 262.896 156.502 260.908C154.638 258.52 150.741 256.754 147.028 254.181C146.933 254.112 146.819 254.073 146.701 254.071C146.583 254.069 146.467 254.103 146.37 254.17C146.272 254.236 146.198 254.331 146.156 254.441C146.115 254.552 146.108 254.673 146.138 254.787C146.743 257.006 150.102 260.605 150.64 262.673C150.695 262.783 150.723 262.904 150.723 263.026C150.723 263.149 150.695 263.27 150.64 263.379C150.547 263.455 150.438 263.508 150.322 263.534C150.205 263.56 150.084 263.559 149.968 263.531C145.836 263.11 142.711 259.596 138.814 258.099C138.26 257.834 137.633 257.763 137.034 257.898C135.774 258.284 136.731 260.84 137.034 262.118C137.91 264.978 139.568 267.535 141.821 269.5C149.229 275.991 158.115 277.437 167.857 276.075" fill="#FF948C"/>
<path d="M298.947 224.048C293.606 220.198 286.702 219.962 280.386 221.072C268.258 223.208 257.104 229.698 246.925 237.232C237.451 244.21 228.448 252.214 218.251 257.662C204.477 264.994 188.839 267.382 173.536 266.928C170.63 266.843 167.556 266.692 164.969 268.138C162.382 269.584 160.602 273.334 162.097 276.075C163.153 277.59 164.694 278.699 166.464 279.22C178.592 284.264 190.787 289.309 203.419 292.151C216.051 294.992 229.422 295.816 241.97 292.268C259.254 287.392 273.885 274.814 286.786 261.378C290.8 257.514 294.199 253.056 296.864 248.162C299.384 243.117 304.658 231.346 298.83 224.048" fill="#90AEE4"/>
<g opacity="0.46">
<path opacity="0.46" d="M280.336 235.415C279.89 235.415 279.463 235.238 279.148 234.923C278.833 234.608 278.656 234.18 278.656 233.734C278.656 233.288 278.833 232.86 279.148 232.545C279.463 232.23 279.89 232.052 280.336 232.052C280.781 232.052 281.209 232.23 281.524 232.545C281.839 232.86 282.016 233.288 282.016 233.734C282.016 234.18 281.839 234.608 281.524 234.923C281.209 235.238 280.781 235.415 280.336 235.415Z" fill="white"/>
</g>
<g opacity="0.46">
<path opacity="0.46" d="M252.752 272.056C252.306 272.056 251.879 271.879 251.564 271.564C251.249 271.248 251.072 270.821 251.072 270.375C251.072 269.929 251.249 269.501 251.564 269.186C251.879 268.87 252.306 268.693 252.752 268.693C253.197 268.693 253.625 268.87 253.94 269.186C254.255 269.501 254.432 269.929 254.432 270.375C254.432 270.821 254.255 271.248 253.94 271.564C253.625 271.879 253.197 272.056 252.752 272.056Z" fill="white"/>
</g>
<g opacity="0.46">
<path opacity="0.46" d="M249.008 244.983C248.562 244.983 248.135 244.806 247.82 244.491C247.505 244.176 247.328 243.748 247.328 243.302C247.328 242.856 247.505 242.428 247.82 242.113C248.135 241.798 248.562 241.62 249.008 241.62C249.453 241.62 249.88 241.798 250.196 242.113C250.511 242.428 250.688 242.856 250.688 243.302C250.688 243.748 250.511 244.176 250.196 244.491C249.88 244.806 249.453 244.983 249.008 244.983Z" fill="white"/>
</g>
<g opacity="0.46">
<path opacity="0.46" d="M273.365 260.252C272.92 260.252 272.492 260.075 272.177 259.759C271.862 259.444 271.685 259.016 271.685 258.57C271.685 258.124 271.862 257.697 272.177 257.381C272.492 257.066 272.92 256.889 273.365 256.889C273.811 256.889 274.238 257.066 274.553 257.381C274.868 257.697 275.045 258.124 275.045 258.57C275.045 259.016 274.868 259.444 274.553 259.759C274.238 260.075 273.811 260.252 273.365 260.252Z" fill="white"/>
</g>
<g opacity="0.46">
<path opacity="0.46" d="M220.535 269.904C220.09 269.904 219.662 269.727 219.347 269.411C219.032 269.096 218.855 268.668 218.855 268.222C218.855 267.776 219.032 267.349 219.347 267.033C219.662 266.718 220.09 266.541 220.535 266.541C220.981 266.541 221.408 266.718 221.723 267.033C222.038 267.349 222.215 267.776 222.215 268.222C222.215 268.668 222.038 269.096 221.723 269.411C221.408 269.727 220.981 269.904 220.535 269.904Z" fill="white"/>
</g>
<g opacity="0.46">
<path opacity="0.46" d="M226.465 289.746C226.019 289.746 225.592 289.569 225.277 289.254C224.962 288.938 224.785 288.51 224.785 288.064C224.785 287.619 224.962 287.191 225.277 286.875C225.592 286.56 226.019 286.383 226.465 286.383C226.91 286.383 227.338 286.56 227.653 286.875C227.968 287.191 228.145 287.619 228.145 288.064C228.145 288.51 227.968 288.938 227.653 289.254C227.338 289.569 226.91 289.746 226.465 289.746Z" fill="white"/>
</g>
<g opacity="0.46">
<path opacity="0.46" d="M187.158 277.454C186.713 277.454 186.285 277.277 185.97 276.961C185.655 276.646 185.478 276.218 185.478 275.772C185.478 275.326 185.655 274.899 185.97 274.583C186.285 274.268 186.713 274.091 187.158 274.091C187.604 274.091 188.031 274.268 188.346 274.583C188.661 274.899 188.838 275.326 188.838 275.772C188.838 276.218 188.661 276.646 188.346 276.961C188.031 277.277 187.604 277.454 187.158 277.454Z" fill="white"/>
</g>
<g opacity="0.46">
<path opacity="0.46" d="M267.484 312.262C267.039 312.262 266.611 312.085 266.296 311.769C265.981 311.454 265.804 311.026 265.804 310.58C265.804 310.134 265.981 309.707 266.296 309.391C266.611 309.076 267.039 308.899 267.484 308.899C267.93 308.899 268.357 309.076 268.672 309.391C268.987 309.707 269.164 310.134 269.164 310.58C269.164 311.026 268.987 311.454 268.672 311.769C268.357 312.085 267.93 312.262 267.484 312.262Z" fill="white"/>
</g>
<g opacity="0.46">
<path opacity="0.46" d="M288.902 285.727C288.457 285.727 288.029 285.55 287.714 285.235C287.399 284.919 287.222 284.492 287.222 284.046C287.222 283.6 287.399 283.172 287.714 282.857C288.029 282.541 288.457 282.364 288.902 282.364C289.348 282.364 289.775 282.541 290.09 282.857C290.405 283.172 290.582 283.6 290.582 284.046C290.582 284.492 290.405 284.919 290.09 285.235C289.775 285.55 289.348 285.727 288.902 285.727Z" fill="white"/>
</g>
<g opacity="0.46">
<path opacity="0.46" d="M294.799 320.3C294.353 320.3 293.926 320.122 293.611 319.807C293.296 319.492 293.119 319.064 293.119 318.618C293.119 318.172 293.296 317.744 293.611 317.429C293.926 317.114 294.353 316.936 294.799 316.936C295.244 316.936 295.672 317.114 295.987 317.429C296.302 317.744 296.479 318.172 296.479 318.618C296.479 319.064 296.302 319.492 295.987 319.807C295.672 320.122 295.244 320.3 294.799 320.3Z" fill="white"/>
</g>
<g opacity="0.46">
<path opacity="0.46" d="M315.408 339.335C314.963 339.335 314.535 339.157 314.22 338.842C313.905 338.527 313.728 338.099 313.728 337.653C313.728 337.207 313.905 336.779 314.22 336.464C314.535 336.149 314.963 335.971 315.408 335.971C315.854 335.971 316.281 336.149 316.596 336.464C316.911 336.779 317.088 337.207 317.088 337.653C317.088 338.099 316.911 338.527 316.596 338.842C316.281 339.157 315.854 339.335 315.408 339.335Z" fill="white"/>
</g>
<g opacity="0.46">
<path opacity="0.46" d="M314.601 296.708C314.156 296.708 313.729 296.53 313.414 296.215C313.099 295.9 312.922 295.472 312.922 295.026C312.922 294.58 313.099 294.152 313.414 293.837C313.729 293.522 314.156 293.344 314.601 293.344C315.047 293.344 315.474 293.522 315.789 293.837C316.104 294.152 316.281 294.58 316.281 295.026C316.281 295.472 316.104 295.9 315.789 296.215C315.474 296.53 315.047 296.708 314.601 296.708Z" fill="white"/>
</g>
<g opacity="0.46">
<path opacity="0.46" d="M302.844 263.48C302.398 263.48 301.971 263.303 301.656 262.988C301.341 262.673 301.164 262.245 301.164 261.799C301.164 261.353 301.341 260.925 301.656 260.61C301.971 260.294 302.398 260.117 302.844 260.117C303.289 260.117 303.716 260.294 304.031 260.61C304.346 260.925 304.523 261.353 304.523 261.799C304.523 262.245 304.346 262.673 304.031 262.988C303.716 263.303 303.289 263.48 302.844 263.48Z" fill="white"/>
</g>
<g opacity="0.46">
<path opacity="0.46" d="M302.844 237.736C302.398 237.736 301.971 237.559 301.656 237.244C301.341 236.928 301.164 236.5 301.164 236.054C301.164 235.609 301.341 235.181 301.656 234.865C301.971 234.55 302.398 234.373 302.844 234.373C303.289 234.373 303.716 234.55 304.031 234.865C304.346 235.181 304.523 235.609 304.523 236.054C304.523 236.5 304.346 236.928 304.031 237.244C303.716 237.559 303.289 237.736 302.844 237.736Z" fill="white"/>
</g>
<g opacity="0.46">
<path opacity="0.46" d="M261.053 292.151C260.607 292.151 260.18 291.973 259.865 291.658C259.55 291.343 259.373 290.915 259.373 290.469C259.373 290.023 259.55 289.595 259.865 289.28C260.18 288.965 260.607 288.788 261.053 288.788C261.498 288.788 261.925 288.965 262.24 289.28C262.555 289.595 262.732 290.023 262.732 290.469C262.732 290.915 262.555 291.343 262.24 291.658C261.925 291.973 261.498 292.151 261.053 292.151Z" fill="white"/>
</g>
<g opacity="0.46">
<path opacity="0.46" d="M318.617 269.904C318.172 269.904 317.744 269.727 317.429 269.411C317.114 269.096 316.937 268.668 316.937 268.222C316.937 267.776 317.114 267.349 317.429 267.033C317.744 266.718 318.172 266.541 318.617 266.541C319.063 266.541 319.49 266.718 319.805 267.033C320.12 267.349 320.297 267.776 320.297 268.222C320.297 268.668 320.12 269.096 319.805 269.411C319.49 269.727 319.063 269.904 318.617 269.904Z" fill="white"/>
</g>
</svg>
