<svg xmlns="http://www.w3.org/2000/svg" xmlns:xlink="http://www.w3.org/1999/xlink" viewBox="0 0 750 500"><defs><style>.cls-1,.cls-12,.cls-13,.cls-16,.cls-17,.cls-23,.cls-27,.cls-29,.cls-3,.cls-37,.cls-39,.cls-50,.cls-52,.cls-57,.cls-64,.cls-67{fill:none;}.cls-2{fill:#fff;}.cls-3{stroke:#cedbed;stroke-width:2.12px;}.cls-12,.cls-13,.cls-16,.cls-17,.cls-19,.cls-23,.cls-27,.cls-28,.cls-29,.cls-3,.cls-34,.cls-37,.cls-39,.cls-42,.cls-50,.cls-51,.cls-52,.cls-57,.cls-64,.cls-67{stroke-miterlimit:10;}.cls-19,.cls-4{fill:#cedbed;}.cls-5{fill:url(#linear-gradient);}.cls-6{fill:url(#linear-gradient-2);}.cls-7{fill:url(#linear-gradient-3);}.cls-8{fill:url(#linear-gradient-4);}.cls-9{fill:url(#linear-gradient-5);}.cls-10{fill:url(#linear-gradient-6);}.cls-11{fill:url(#linear-gradient-7);}.cls-12,.cls-39,.cls-50,.cls-67{stroke:#0c3069;}.cls-12{stroke-width:1.1px;}.cls-13,.cls-23,.cls-27{stroke:#fff;}.cls-13{stroke-width:2.11px;}.cls-14{fill:url(#linear-gradient-8);}.cls-15{fill:url(#linear-gradient-9);}.cls-16,.cls-17{stroke:#1656bd;}.cls-16{stroke-width:3.17px;}.cls-17{stroke-width:3.34px;}.cls-18{fill:#0c3069;}.cls-19,.cls-28,.cls-34,.cls-42,.cls-51{stroke:#000;stroke-width:0.5px;}.cls-20{fill:#ff6d6d;}.cls-21{fill:#063359;}.cls-22{fill:#052f4c;}.cls-23{stroke-width:2px;}.cls-23,.cls-25{opacity:0.8;}.cls-24{fill:#08224a;}.cls-26{fill:#ffa526;}.cls-27,.cls-29,.cls-50,.cls-52{stroke-width:0.72px;}.cls-28{fill:#80371d;}.cls-29{stroke:#ffa526;}.cls-30{fill:url(#linear-gradient-10);}.cls-31{fill:#d92727;}.cls-32{fill:#a1c1ed;}.cls-33{fill:#16a3bd;}.cls-34{fill:#cfd8e7;}.cls-35{fill:url(#linear-gradient-11);}.cls-36{fill:url(#linear-gradient-12);}.cls-37{stroke:#082445;}.cls-37,.cls-39{stroke-width:0.89px;}.cls-38{fill:url(#linear-gradient-13);}.cls-40,.cls-42{fill:#0f3d85;}.cls-41{fill:url(#linear-gradient-14);}.cls-43{fill:url(#linear-gradient-15);}.cls-44{fill:url(#linear-gradient-16);}.cls-45{fill:url(#linear-gradient-17);}.cls-46{fill:url(#linear-gradient-18);}.cls-47{fill:#f04f4f;}.cls-48{fill:url(#linear-gradient-19);}.cls-49{fill:url(#linear-gradient-20);}.cls-51{fill:#456b4b;}.cls-52{stroke:#29492d;}.cls-53,.cls-59{opacity:0.5;}.cls-53{fill:url(#linear-gradient-21);}.cls-54{fill:url(#linear-gradient-22);}.cls-55{fill:#062d47;}.cls-56{opacity:0.57;fill:url(#linear-gradient-23);}.cls-57{stroke:#d92727;stroke-width:0.53px;}.cls-58{fill:url(#linear-gradient-24);}.cls-59{fill:url(#linear-gradient-25);}.cls-60{fill:url(#linear-gradient-26);}.cls-61{fill:url(#linear-gradient-27);}.cls-62{fill:#967c45;}.cls-63{fill:#786337;}.cls-64{stroke:#4f4124;stroke-width:0.84px;}.cls-65,.cls-69,.cls-70{opacity:0.4;}.cls-65{fill:url(#linear-gradient-28);}.cls-66{fill:url(#linear-gradient-29);}.cls-67{stroke-width:1.09px;}.cls-68{fill:url(#linear-gradient-30);}.cls-69{fill:url(#linear-gradient-31);}.cls-70{fill:url(#linear-gradient-32);}.cls-71{fill:#1656bd;}.cls-72{clip-path:url(#clip-path);}</style><linearGradient id="linear-gradient" x1="335.51" y1="233.9" x2="239.32" y2="424.9" gradientUnits="userSpaceOnUse"><stop offset="0.05" stop-color="#a1c1ed"/><stop offset="1" stop-color="#a1c1ed" stop-opacity="0"/></linearGradient><linearGradient id="linear-gradient-2" x1="527.79" y1="123.82" x2="557.42" y2="325.44" xlink:href="#linear-gradient"/><linearGradient id="linear-gradient-3" x1="32.59" y1="237.48" x2="70.72" y2="237.48" gradientTransform="matrix(-1, -0.09, -0.09, 1, 149.04, 67.55)" gradientUnits="userSpaceOnUse"><stop offset="0.04" stop-color="#ffa526"/><stop offset="1" stop-color="#ff6026"/></linearGradient><linearGradient id="linear-gradient-4" x1="0.82" y1="224.02" x2="24.01" y2="224.02" xlink:href="#linear-gradient-3"/><linearGradient id="linear-gradient-5" x1="21.39" y1="272.13" x2="59.5" y2="272.13" xlink:href="#linear-gradient-3"/><linearGradient id="linear-gradient-6" x1="-13.1" y1="249.76" x2="8.89" y2="249.76" xlink:href="#linear-gradient-3"/><linearGradient id="linear-gradient-7" x1="26.94" y1="199.95" x2="60.79" y2="199.95" xlink:href="#linear-gradient-3"/><linearGradient id="linear-gradient-8" x1="588.05" y1="395.75" x2="588.05" y2="232.7" gradientUnits="userSpaceOnUse"><stop offset="0" stop-color="#6ab883"/><stop offset="1" stop-color="#dbb883"/></linearGradient><linearGradient id="linear-gradient-9" x1="193.34" y1="398.89" x2="193.34" y2="283.73" gradientTransform="matrix(-1, 0, 0, 1, 366.93, 0)" xlink:href="#linear-gradient-8"/><linearGradient id="linear-gradient-10" x1="384.56" y1="219.52" x2="396.35" y2="219.52" gradientUnits="userSpaceOnUse"><stop offset="0" stop-color="#f04f4f"/><stop offset="0.15" stop-color="#f04f4f" stop-opacity="0.99"/><stop offset="0.28" stop-color="#f04f4f" stop-opacity="0.94"/><stop offset="0.4" stop-color="#f04f4f" stop-opacity="0.86"/><stop offset="0.53" stop-color="#f04f4f" stop-opacity="0.76"/><stop offset="0.65" stop-color="#f04f4f" stop-opacity="0.62"/><stop offset="0.76" stop-color="#f04f4f" stop-opacity="0.45"/><stop offset="0.88" stop-color="#f04f4f" stop-opacity="0.25"/><stop offset="0.99" stop-color="#f04f4f" stop-opacity="0.02"/><stop offset="1" stop-color="#f04f4f" stop-opacity="0"/></linearGradient><linearGradient id="linear-gradient-11" x1="180.78" y1="231.34" x2="180.78" y2="277.78" gradientUnits="userSpaceOnUse"><stop offset="0.03"/><stop offset="1" stop-color="#0c3069" stop-opacity="0"/></linearGradient><linearGradient id="linear-gradient-12" x1="204.92" y1="197.69" x2="229.52" y2="231.06" gradientUnits="userSpaceOnUse"><stop offset="0" stop-color="#06132d"/><stop offset="1" stop-color="#134578" stop-opacity="0"/></linearGradient><linearGradient id="linear-gradient-13" x1="155.09" y1="196.82" x2="129.9" y2="227.47" xlink:href="#linear-gradient-12"/><linearGradient id="linear-gradient-14" x1="176.42" y1="164.46" x2="188.41" y2="164.46" xlink:href="#linear-gradient-10"/><linearGradient id="linear-gradient-15" x1="307.03" y1="326.76" x2="300.68" y2="385.42" gradientUnits="userSpaceOnUse"><stop offset="0" stop-color="#0c3069"/><stop offset="1" stop-color="#0c3069" stop-opacity="0"/></linearGradient><linearGradient id="linear-gradient-16" x1="275.34" y1="265.21" x2="258.16" y2="245.59" gradientUnits="userSpaceOnUse"><stop offset="0" stop-color="#80371d" stop-opacity="0.89"/><stop offset="0.07" stop-color="#80371d"/><stop offset="1" stop-color="#80371d" stop-opacity="0"/></linearGradient><linearGradient id="linear-gradient-17" x1="275.93" y1="276.75" x2="257.17" y2="257.59" xlink:href="#linear-gradient-12"/><linearGradient id="linear-gradient-18" x1="319.43" y1="280.37" x2="311.15" y2="242.85" xlink:href="#linear-gradient-12"/><linearGradient id="linear-gradient-19" x1="298.97" y1="207.57" x2="296.92" y2="223.75" xlink:href="#linear-gradient-10"/><linearGradient id="linear-gradient-20" x1="356.04" y1="299.56" x2="356.04" y2="255.56" gradientUnits="userSpaceOnUse"><stop offset="0.04" stop-color="#87b2ed"/><stop offset="1" stop-color="#fff"/></linearGradient><linearGradient id="linear-gradient-21" x1="490.82" y1="243.01" x2="490.82" y2="268.74" gradientUnits="userSpaceOnUse"><stop offset="0.03"/><stop offset="1" stop-opacity="0"/></linearGradient><linearGradient id="linear-gradient-22" x1="452.61" y1="196.71" x2="476.67" y2="196.71" xlink:href="#linear-gradient-10"/><linearGradient id="linear-gradient-23" x1="505.39" y1="174.97" x2="494.81" y2="261.55" xlink:href="#linear-gradient-15"/><linearGradient id="linear-gradient-24" x1="431.83" y1="199.43" x2="443.75" y2="199.43" xlink:href="#linear-gradient-10"/><linearGradient id="linear-gradient-25" x1="508.29" y1="286.37" x2="451.21" y2="371.99" xlink:href="#linear-gradient-21"/><linearGradient id="linear-gradient-26" x1="418.79" y1="177.53" x2="420.64" y2="110.68" gradientUnits="userSpaceOnUse"><stop offset="0.05" stop-color="#fff"/><stop offset="1" stop-color="#fff" stop-opacity="0"/></linearGradient><linearGradient id="linear-gradient-27" x1="483.01" y1="169.68" x2="494.98" y2="169.68" xlink:href="#linear-gradient-10"/><linearGradient id="linear-gradient-28" x1="576.03" y1="296.46" x2="540.62" y2="467.43" gradientUnits="userSpaceOnUse"><stop offset="0"/><stop offset="0.93" stop-opacity="0"/></linearGradient><linearGradient id="linear-gradient-29" x1="555.9" y1="247.82" x2="580.85" y2="247.82" gradientTransform="matrix(1, 0, 0, 1, 0, 0)" xlink:href="#linear-gradient-3"/><linearGradient id="linear-gradient-30" x1="574.44" y1="257.27" x2="601.61" y2="257.27" gradientTransform="matrix(1, 0, 0, 1, 0, 0)" xlink:href="#linear-gradient-3"/><linearGradient id="linear-gradient-31" x1="390.24" y1="259.53" x2="390.24" y2="395.45" xlink:href="#linear-gradient-28"/><linearGradient id="linear-gradient-32" x1="532.66" y1="118.71" x2="546.41" y2="187.81" xlink:href="#linear-gradient-28"/><clipPath id="clip-path"><path class="cls-1" d="M496.84,173.79c5.11-4.24,12.86-4.85,16.38-1.07S517,189.37,517,189.37h-4.94s-5.81,18.41-6,26.34,6.51,29.42,6.51,29.42c.93,3.17-3.17,3.43-9.91,3.43h-32.5c-6.6,0-3.57-5.55-2.24-11.23s5.9-23.12,6-26.82-6.66-9.33-3.62-16.56,8.28-16.91,13.39-16.29Z"/></clipPath></defs><g id="BACKGROUND"><rect class="cls-2" width="750" height="500"/></g><g id="OBJECTS"><path class="cls-3" d="M671.65,191.41a187.21,187.21,0,0,1,7.14,41.07c3.65,53.42-11,100.5-23.89,130.59a317.69,317.69,0,0,1-20.38,39.66"/><path class="cls-3" d="M105.75,400.18C90.39,323.93,87.89,262.41,98.1,212.33a229,229,0,0,1,17.73-53.61"/><path class="cls-3" d="M662.73,183.82c5.53,14.56,8.89,30.9,10.13,49.12C676.42,285,662.12,331,649.49,360.43a307.18,307.18,0,0,1-21.88,42"/><path class="cls-3" d="M111.83,400.18c-15.42-76-18-137-7.92-186.5,5-24.68,13.36-46.9,24.8-66.28"/><path class="cls-3" d="M652.89,176.24c7.9,16.35,12.55,35.34,14,57.16,3.47,50.74-10.51,95.65-22.84,124.39a296.08,296.08,0,0,1-23.55,44.42"/><path class="cls-3" d="M117.92,400.18c-15.48-75.68-18.16-136.3-8.2-185.15,6.21-30.43,17.54-57,33.67-78.84"/><path class="cls-4" d="M125,404.71H611.46S667.54,329.49,661,233.86,586.8,114.39,501.61,98.76,316.67,38.49,216.9,85.12C97.08,141.13,97.06,272.6,125,404.71Z"/><path class="cls-5" d="M384,306.09c-8.94-89.3-114.55-86.86-114.55-86.86-37.4-56-104.32-56.78-137.06-53.29C100.33,231,106.58,317.72,125,404.71H486.82C474.53,310.48,384,306.09,384,306.09Z"/><path class="cls-6" d="M611.46,404.71S667.54,329.49,661,233.86c-1.83-26.79-8.46-47.94-18.93-64.86-33.35,7.12-86.39,27.88-124.09,88.27a614.47,614.47,0,0,0-66.54,147.44Z"/><path class="cls-7" d="M93.56,312.08s-9.2-16.84-13.73-22.26c-6.2-7.4-17.28-8.61-22,3.2-4.39,10.86,3.89,18.38,12.65,20.07S93.56,312.08,93.56,312.08Z"/><path class="cls-8" d="M106.79,307.82s-2.68-19.51-1.52-28.73,9.46-10.26,15-7.63,9.74,8.57,7,17.5S106.79,307.82,106.79,307.82Z"/><path class="cls-9" d="M102.39,338.1S88.79,325.18,82.2,322s-16.13-.92-17.35,8.42,2.37,16,12.74,17.28S102.39,338.1,102.39,338.1Z"/><path class="cls-10" d="M115.93,331.33s.19-14.17,2.76-22.91,9.83-9.75,15.12-5.79,7.38,12.43,3.25,17.88S115.93,331.33,115.93,331.33Z"/><path class="cls-11" d="M94.45,288.35A158.1,158.1,0,0,1,76,270.4c-9.28-10.66-6.86-30.41,8.62-32.56,14-2,19.93,11.42,19.41,22.1S94.45,288.35,94.45,288.35Z"/><path class="cls-12" d="M87.27,249.92s5.24,56.53,39.91,130.25"/><path class="cls-12" d="M66.51,298.38C79.09,305.67,102.17,316,102.17,316s10.75-19.64,14.21-31.39"/><path class="cls-12" d="M75.71,334.13c15.39,2.48,34.31,5,34.31,5s13.1-16.9,19.9-28"/><rect class="cls-13" x="230.82" y="136.81" width="316.21" height="128.15"/><path class="cls-14" d="M496.84,405.45H679.36s-2.11-39.3-19-26.62c0,0,5.29-38.91,1.59-39s-13.74,10.47-13.74,10.47,5.28-36.84-3.17-34.8-7.93,9.36-7.93,9.36,5.29-38.24.53-60.57,1.06-42.67-8.46-44.66-21.66,58.26-21.66,58.26-7.93-3.69-11.63,23.79c0,0-17.9-12.68-18.46,27.48,0,0-29.81-3.6-34.22,28.33,0,0-18.8-1.51-23.95,12.09S495.32,387,496.84,405.45Z"/><path class="cls-15" d="M271.46,405.45H75.4s6-7.27,12.75-9.19c0,0,2.88-26.58,19.23-27.29,0,0,26.35-75.51,39.12-28.64,0,0-1.5-55.59,23.36-28.2,0,0,4.72-48,15-48.79S200,316.48,200,316.48s13.13-.36,20.07,9.16c0,0-1.32-55.58,9.12-55.75S242.64,324,242.64,324s29.92-18.64,17.15,59.75C259.79,383.77,274,382.36,271.46,405.45Z"/><line class="cls-16" x1="378.26" y1="316.76" x2="368.8" y2="414.82"/><line class="cls-16" x1="408.62" y1="316.76" x2="418.08" y2="414.82"/><line class="cls-16" x1="375.91" y1="341.2" x2="411.13" y2="341.2"/><line class="cls-17" x1="373.97" y1="362.84" x2="413.06" y2="362.84"/><rect class="cls-18" x="368.8" y="308.91" width="49.27" height="10.66" rx="3.4"/><line class="cls-16" x1="456.65" y1="316.76" x2="447.19" y2="414.82"/><line class="cls-16" x1="487" y1="316.76" x2="496.46" y2="414.82"/><line class="cls-16" x1="454.29" y1="341.2" x2="489.51" y2="341.2"/><line class="cls-17" x1="452.35" y1="362.84" x2="491.44" y2="362.84"/><rect class="cls-18" x="447.19" y="308.91" width="49.27" height="10.66" rx="3.4"/><ellipse class="cls-19" cx="386.35" cy="423.43" rx="6.9" ry="3.75"/><path class="cls-20" d="M386.87,383.77l.21,19.58a17.12,17.12,0,0,1,1,6c0,3.43,3.05,8.74.32,11.2s-5.92.41-6.15-3,0-6.79-.94-8.67-1.07-4.95.21-6.33l-3.3-18.45Z"/><path class="cls-18" d="M385.73,410l-1,.12a1.66,1.66,0,0,1-1.85-1.29l-1.36-6.28c-1.28,1.38-1.12,4.45-.21,6.33s.7,5.22.94,8.67,3.42,5.49,6.15,3-.35-7.77-.32-11.2a17.12,17.12,0,0,0-1-6l.18,4.88A1.71,1.71,0,0,1,385.73,410Z"/><path class="cls-20" d="M429.94,376.94l2.82,19.37a17,17,0,0,1,1.83,5.83c.43,3.41,4.19,8.26,1.81,11.06s-5.81,1.21-6.5-2.18-.94-6.72-2.09-8.46-1.71-4.76-.63-6.3l-5.74-17.85Z"/><path class="cls-18" d="M432.31,403.08l-.94.24a1.66,1.66,0,0,1-2-1l-2.18-6c-1.08,1.54-.52,4.55.63,6.3s1.4,5.08,2.09,8.46,4.13,5,6.5,2.18-1.38-7.65-1.81-11.06a17,17,0,0,0-1.83-5.83l.83,4.81A1.7,1.7,0,0,1,432.31,403.08Z"/><path class="cls-21" d="M378.05,225.38s11.7,9.66,24.78,3.56c0,0-.05-1.52,1.27-1.52s6.56,1,13.83,4.41c10.22,4.84,33.56,31,32.59,44.3-.7,9.69-7.75,12.86-14.09,12.6s-5.81-11-5.81-11L410.71,261,407,288.73H364.55l-6-43.42-14.44-61.75a17.55,17.55,0,0,1,5.07-8.37,7.66,7.66,0,0,1,8.14-1.23Z"/><path class="cls-22" d="M378.05,225.38,357.33,174a7.66,7.66,0,0,0-8.14,1.23,17.55,17.55,0,0,0-5.07,8.37l14.44,61.74C372.57,256.05,378.05,225.38,378.05,225.38Z"/><path class="cls-23" d="M403.51,304.28a7.24,7.24,0,0,1-4.75.56c-.56-.09-1.12-.21-1.66-.34-7.24-.87-14.21-1.62-21.38-.22q-.33-1.66-.51-3.39c-.61-5.76,0-12,.67-18.17,0-.64,0-1.29,0-1.92.15-7.68.2-15.14.3-23.08l1.54.16,1.87.15,1.45.18c6.28,1.85,13.28,1.85,19.64,1.37.47-.06.94-.12,1.41-.2.95-.16,1.9-.36,2.86-.61a5.27,5.27,0,0,1,1.35.73,6.93,6.93,0,0,1,1.32,1.29,10,10,0,0,1,.09,1.44,32.54,32.54,0,0,1-.88,5.37q-.12.79-.27,1.59c-.49,2.63-1.24,5.25-1.92,7.7-.06.54-.09,1.06-.12,1.57-.21,3.59-.38,7.18-.44,10.67-.08.58-.17,1.17-.26,1.76-.63,4.14-1.41,8.34-.27,12.56A6.06,6.06,0,0,0,403.51,304.28Z"/><path class="cls-21" d="M436.43,288.73c6.34.26,13.39-2.91,14.09-12.6,1-13.25-22.37-39.46-32.59-44.3-1.58-.75-3.07-1.38-4.44-1.91h0c-9.31,15.21-2.78,31.06-2.78,31.06l19.91,16.74S430.09,288.47,436.43,288.73Z"/><path class="cls-24" d="M441,278.42c.12,6.41-1.8,10.77-5.52,10.32s-5.53-6.46-4.88-11Z"/><g id="Layer_2" data-name="Layer 2" class="cls-25"><g id="Layer_1-2" data-name="Layer 1-2"><path class="cls-2" d="M392.91,280.23a1.68,1.68,0,0,0,1.08-.75l-.07.17h.69l-.43.63h1.08a.16.16,0,0,1,.2.14l0,.1c.09.25.14.55.56.39a1.58,1.58,0,0,1-1.08.87,2.19,2.19,0,0,1-.36,0h-4.89a1.59,1.59,0,0,1-1.14-.43,1.44,1.44,0,0,1-.42-1.1c0-.48,0-1,0-1.45s0-1,0-1.44a.88.88,0,0,1,.52-.92.18.18,0,0,0,.08-.11.29.29,0,0,1,.34-.27h.5c.27,0,.33,0,.45.29h.47s.09-.05.12-.09.19-.35.27-.53a.49.49,0,0,1,.48-.29h2.11a.56.56,0,0,1,.52.3c.1.17.22.33.32.5a.18.18,0,0,0,.2.11,1.5,1.5,0,0,1,.8.16,1.45,1.45,0,0,1,.84,1.23c0,.44,0,.87,0,1.3s0,.87,0,1.3c0,0,0,.05,0,.08a.93.93,0,0,1-.07-.15c-.18-.46-.36-.91-.56-1.36s-.4-.9-.61-1.35c-.06-.12-.12-.17-.24-.15h-.38c.14.3.28.59.4.88a.55.55,0,0,1,0,.31l-.21-.44c-.15.39-.31.76-.47,1.13a1.53,1.53,0,0,0-.15-1.28c-.14.33-.27.63-.41.94s-.38.84-.59,1.25h-.55s0,0,0-.06c-.15-.34-.3-.69-.46-1s-.33-.7-.5-1l-.05-.07a1.54,1.54,0,0,0-.21,1.06l-.44-.9-.23.52a2,2,0,0,1,.44-1.27h-.46a.19.19,0,0,0-.22.14c-.24.54-.48,1.07-.74,1.61-.13.27-.26.54-.4.81s-.27.53-.4.8c0,0,0,.09-.07.14h.16c.19,0,.43.06.56,0s.21-.32.29-.49a.24.24,0,0,1,.25-.15c.38,0,.76,0,1.14,0l-.41-.62c.26,0,.47,0,.68,0a.22.22,0,0,1,.22.09,1.38,1.38,0,0,0,.87.48c.07.18.15.36.23.55Zm.46.55a2.32,2.32,0,0,0,.77-.5h-.46a.11.11,0,0,0-.09.05c-.08.15-.15.3-.22.45-.29,0-.58.1-.88.12a4.58,4.58,0,0,1-.62-.08l0,0a.45.45,0,0,0,.18.07h1C393.17,280.94,393.29,280.93,393.37,280.78Zm-2-2.79a1.51,1.51,0,0,1,1.22-.65,1.61,1.61,0,0,1,1.32.67c.14-.18.11-.46.32-.6a2.22,2.22,0,0,0-1.72-.74,2,2,0,0,0-1.56.74C391.21,277.52,391.18,277.82,391.36,278Zm-2-1.45a.44.44,0,0,0-.45.45.47.47,0,0,0,.49.44h0a.45.45,0,0,0,.46-.45.5.5,0,0,0-.5-.44Zm1.63,3.74a2,2,0,0,0,.81.5,3,3,0,0,0-.17-.4.2.2,0,0,0-.12-.1Z"/><path class="cls-2" d="M384.3,277.47v.59h-1.08c0,.5-.07,1-.11,1.48s-.07,1-.1,1.44l-.05,0c-.31,0-.3,0-.32-.28s-.05-.88-.07-1.32-.05-.88-.07-1.32c-.42,0-.85,0-1.27,0-.24,0-.26.07-.26.32,0,.46,0,.93,0,1.39a1.32,1.32,0,0,1-.42.88,1.43,1.43,0,0,1-.91.35,2.46,2.46,0,0,1-.66-.06,1.39,1.39,0,0,1-.78-.52,1.61,1.61,0,0,1-.27-1c0-.34,0-.67,0-1v-1h.66s.07.09.07.14c0,.3,0,.59,0,.89l0,.88v.19a.93.93,0,0,0,.42.76.9.9,0,0,0,.86,0,.78.78,0,0,0,.46-.73c0-.47,0-.93,0-1.4a.59.59,0,0,1,.35-.6,1.6,1.6,0,0,1,.63-.17h3Z"/><path class="cls-2" d="M399.33,280.93a.51.51,0,0,1-.59-.24c-.24-.35-.49-.69-.74-1s-.51-.7-.78-1.06c0,0,0,.59,0,1.17s0,1.17,0,1.17h-.63s0-.87.05-1.75,0-1.74,0-1.74H397a.31.31,0,0,1,.15.11c.25.31.49.63.73.94l.71.95c0,.05.07.09.12.16v-1.08c0-.53,0-1.07,0-1.07h.63v1.74C399.34,280.06,399.33,280.93,399.33,280.93Z"/><path class="cls-2" d="M384.56,277.91h1v1.45h0V279l1.55,0v-1.47h.68V278c0,.32,0,.76,0,1.19s0,.87,0,1.19,0,.54,0,.54h-.66l0-1.4-1.6,0a1.46,1.46,0,0,1-.12.9c-.11.29-.27.57-.36.88a1.88,1.88,0,0,1-.1-.19c-.1-.24-.19-.48-.29-.71a1.37,1.37,0,0,1-.13-.63c0-.3,0-.6,0-.9s0-.6,0-.9C384.55,278,384.56,278,384.56,277.91Zm.49,2.2s-.06-.06-.08-.06l-.28,0a1,1,0,0,0,0,.18c.06.17.13.33.2.49a.14.14,0,0,0,.27,0c.08-.16.14-.32.21-.49a.35.35,0,0,0,0-.16,1.28,1.28,0,0,0-.27,0S385.08,280.08,385.05,280.11Z"/><path class="cls-2" d="M378.25,277.22c-.14,0-.28,0-.41,0a.19.19,0,0,1-.19-.12.63.63,0,0,1,.15-.72.66.66,0,0,1,.81-.08.64.64,0,0,1,.25.82.22.22,0,0,1-.14.09,3.69,3.69,0,0,1-.47,0Z"/><path class="cls-2" d="M385.55,277.58h-1a.47.47,0,0,1,.44-.48A.47.47,0,0,1,385.55,277.58Z"/><path class="cls-2" d="M394.82,278.8c.12.29.23.56.34.85h-.53C394.7,279.37,394.76,279.09,394.82,278.8Z"/><path class="cls-2" d="M382.74,281.18c.16,0,.22,0,.17.13a.6.6,0,0,1-.19.27c-.2.11-.35.24-.28.51h-.17a.5.5,0,0,1,.25-.61C382.63,281.42,382.77,281.36,382.74,281.18Z"/><path class="cls-2" d="M396.34,280.93h-.28l.13-.4Z"/><path class="cls-2" d="M393.37,280.78c-.08.15-.2.16-.35.16h-1a.45.45,0,0,1-.18-.07l0,0a4.58,4.58,0,0,0,.62.08c.3,0,.59-.08.88-.12Z"/><path class="cls-2" d="M390.57,279.66H390l.38-.81C390.46,279.13,390.52,279.39,390.57,279.66Z"/></g></g><polygon class="cls-26" points="422.6 287.24 394.52 287.24 400.83 248.56 428.91 248.56 422.6 287.24"/><polygon class="cls-27" points="418.97 251.74 409.73 251.74 410.52 246.89 419.76 246.89 418.97 251.74"/><path class="cls-28" d="M375.83,304.14c15.32.47,13.74,81.74,13.74,81.74H373.89s-3.67-6.92-3.7-13c0-6.29-3-12.86-3.87-19.56S352.57,303.44,375.83,304.14Z"/><line class="cls-29" x1="389.61" y1="380.06" x2="371.5" y2="380.06"/><path class="cls-28" d="M408.36,299.5c15.24-1.59,24.54,79.17,24.54,79.17l-15.54,2.09s-4.56-6.37-5.41-12.42c-.87-6.23-4.69-12.35-6.45-18.86S385.22,301.9,408.36,299.5Z"/><line class="cls-29" x1="432.26" y1="373.56" x2="414.86" y2="375.98"/><path class="cls-20" d="M384.86,214.94l-.78,9.58a1.69,1.69,0,0,1-2,1.54l-4.06-.68s2.38,13.54,12.62,15.46,12.16-11.9,12.16-11.9l-5.62-1-2.91-13Z"/><path class="cls-30" d="M394.3,214.94h-9.44l-.3,3.72a16.18,16.18,0,0,0,11.79,5.44Z"/><path class="cls-31" d="M381.2,208.88s-5-9.42.62-13c2.9-6.3,15.41-5.33,18.36,1.63a9.67,9.67,0,0,1-2.2,11.23Z"/><circle class="cls-31" cx="385.81" cy="189.44" r="5.88"/><path class="cls-20" d="M399.31,208.13a1.65,1.65,0,0,0-1.63-.09c.25-1.83.43-3.34.43-3.34s-8.19,1.14-13.3-4c0,0-.61,4.58-3,6.25,0,0,0,.42.06,1.06a1.72,1.72,0,0,0-1.45.17c-1.06.6-.44,3.26,1.89,3.35.34,1.84.89,3.71,1.79,4.49,2,1.77,4.75,3.26,6.25,3.17s5.73-3.52,6.26-5a22.44,22.44,0,0,0,.55-2.66l.25,0C399.76,211.39,400.37,208.73,399.31,208.13Z"/><path class="cls-20" d="M438.1,274.06l-31.58-7.13s-5.41-7.27-7-7.6.66,2.47.66,2.47-2.26-1.61-2.85-.55a3.4,3.4,0,0,0,0,2.51s-.71,1.09,1.14,2.92,6.87,3,6.87,3,23.59,14.75,29.06,16.78S444.18,276.84,438.1,274.06Z"/><path class="cls-24" d="M357.33,174a7.66,7.66,0,0,0-8.14,1.23,17.55,17.55,0,0,0-5.07,8.37C349.05,187.43,357,178.27,357.33,174Z"/><path class="cls-20" d="M357.14,175l-5.91-19.15s2.18-4.49,1.85-5.81-1.85-.93-1.85-.93a7.5,7.5,0,0,0-.51-1.65c-.22-.26-5.63,2.25-5.63,2.25s-1,3,.39,3.76a2.44,2.44,0,0,0,1.92,3l5,25.45A15.55,15.55,0,0,0,357.14,175Z"/><line class="cls-16" x1="291.24" y1="316.76" x2="281.78" y2="414.82"/><line class="cls-16" x1="321.59" y1="316.76" x2="331.05" y2="414.82"/><line class="cls-16" x1="288.88" y1="341.2" x2="324.1" y2="341.2"/><line class="cls-17" x1="286.95" y1="362.84" x2="326.04" y2="362.84"/><rect class="cls-18" x="281.78" y="308.91" width="49.27" height="10.66" rx="3.4"/><path class="cls-32" d="M263.62,114H169.73c-19,0-10.57-15.85,0-18.67s8.1-19.73,27.13-26.42c10.56-3.72,21.49,7,21.49,7s12-3.87,22.55,3.88c7.1,5.21,12.46,16.7,22.72,16.91C280.53,97,287.75,114,263.62,114Z"/><path class="cls-32" d="M338.34,106.09s-5.25-7.55-13.72,0c0,0,12-1.8,13.72,7.24,1.72-9,13.73-7.24,13.73-7.24C343.6,98.54,338.34,106.09,338.34,106.09Z"/><path class="cls-32" d="M596.26,162.91s-3.9-5.6-10.17,0c0,0,8.9-1.34,10.17,5.36,1.27-6.7,10.17-5.36,10.17-5.36C600.15,157.31,596.26,162.91,596.26,162.91Z"/><path class="cls-19" d="M169.6,426.6c1.19,2.58-4.4,7.71-12.49,11.46s-15.62,4.69-16.81,2.1,4.39-7.71,12.48-11.45S168.4,424,169.6,426.6Z"/><path class="cls-19" d="M216.24,425.25c-1.19,2.58,4.4,7.71,12.49,11.46s15.62,4.68,16.81,2.1-4.39-7.71-12.48-11.45S217.44,422.67,216.24,425.25Z"/><path class="cls-18" d="M219.22,410.11l1.58,11.27s-1.76,5.38,0,7.22,8.63,4.41,8.63,4.41,11.19,5.46,12.95,4.31-9.69-12.86-9.69-12.86l-3.78-8.63-.86-5.46Z"/><path class="cls-33" d="M230.22,418.83a5.43,5.43,0,0,0-3.54,5l-5.88-2.42s-1.76,5.38,0,7.22,8.63,4.41,8.63,4.41,11.19,5.46,12.95,4.31-9.69-12.86-9.69-12.86Z"/><path class="cls-18" d="M166.59,410.11v11.27a8.93,8.93,0,0,1,0,7.4c-1.85,3.7-22.86,10.7-23.92,9.78s10-11.23,10-11.23l4.89-8.5.27-8.72Z"/><path class="cls-33" d="M156.78,420.26l-4.07,7.07s-11.09,10.3-10,11.23,22.07-6.08,23.92-9.78a8.27,8.27,0,0,0,.69-5.08L161.71,425A6.79,6.79,0,0,0,156.78,420.26Z"/><path class="cls-34" d="M207.68,252.79l3.43,28.54s4.76,19,5.82,32.24S232,411.87,232,411.87H216.4s-2.38-5-1.85-9.51-5-8.46-4.23-13.48-5.55-14.53-6.87-23.78-21.67-73.73-21.67-73.73l-9.51,76.9s1.58,13.47,0,19.29-.53,14-3.17,24.31H153.68s-2-60.78-2.29-75.58-.12-65,6-83.5Z"/><path class="cls-35" d="M153,279.68c16.65-11,45.33-17.64,55.52-19.75l-.86-7.14H157.34C155.3,259,153.93,268.84,153,279.68Z"/><path class="cls-21" d="M168.83,169.64s12.53-16.73,29.35,0c0,0,22-.35,27.2,16.83l12.16,34.17,39.81,13.21-1.58,7s-30.3,2.93-43.34,0S210.76,221,210.76,221L209,248.83s2.47,3.35,1.76,5.28-6.14,2.29-12.58,2.29H156.33l-9.16-80.15A86.23,86.23,0,0,1,168.83,169.64Z"/><path class="cls-20" d="M148.86,252.8s3.08,1.86,5.22,1,3.72-2.93,7.3-3.43,4.29-.15,4.29.35-4.86.93-6.72,2.29c0,0,8-1.44,8.15.07.08.72-6.72.86-8.3,1.86,0,0,7.73-.64,7.8,0s-6.72,1-7.8,2c0,0,5.58,0,5.23,1.17s-3.44-.35-5.8.79-4.15,1.57-6.65,0a16.36,16.36,0,0,0-4-2Z"/><path class="cls-36" d="M226.78,238.62s-4.69-10.06-7.18-14.7.5-11.29,1.33-17.1S214.39,196,214.39,196l-3.63,25S217,233.13,226.78,238.62Z"/><path class="cls-21" d="M147.17,176.25c5.21-2.28,9.32,28.72,4.06,35.59s-18.73,22.32-18.73,22.32,2.64.8,0,3.17l19.29,15.46L150,259.2s-20.95-4.69-34.82-12.09S110,223,113,217.17s17.67-22.38,17.67-22.38S136.07,181.09,147.17,176.25Z"/><path class="cls-37" d="M142.06,193.34s.51,6,8.88,16"/><path class="cls-38" d="M144.27,199.54s-4.65,10.87-2.21,13.24c2.13,2.08-4.8,10.37-4,15,4.34-5.07,10.14-11.93,13.18-15.9a7,7,0,0,0,.78-1.36C150,208.1,145.58,202.67,144.27,199.54Z"/><line class="cls-39" x1="230.82" y1="404.71" x2="214.51" y2="404.71"/><line class="cls-39" x1="169.86" y1="404.71" x2="153.56" y2="404.71"/><line class="cls-39" x1="181.67" y1="292.28" x2="181.67" y2="256.4"/><path class="cls-39" d="M187.2,256.4v14.49c0,7-5.53,9-5.53,9"/><path class="cls-39" d="M198.18,256.4s-.6,10.65,11.92,16.47"/><path class="cls-39" d="M164.18,255.65s-4.56,18-10.72,19.22"/><path class="cls-39" d="M205.65,331.45a11.51,11.51,0,0,0,6,3.35"/><path class="cls-39" d="M168.48,332.33s-5.76,4.05-9.66,5.46"/><path class="cls-40" d="M175.81,154.48,169,144.93s-6.29-4.6-2.66-10.89,15.23-2.78,20.67-1.21c0,0,11.13.61,11.13,8.23s-8.59,13.42-8.59,13.42Z"/><path class="cls-20" d="M178.08,158.72l-1.65,11.06a3,3,0,0,0,1.1,2.84,8.18,8.18,0,0,0,5.24,1.56,8.38,8.38,0,0,0,5.16-1.61,3.07,3.07,0,0,0,1.16-2.91l-1.63-10.94Z"/><path class="cls-41" d="M176.43,170.19c5-.06,9.45-3,12-5.13l-.95-6.34h-9.38l-1.65,11.06A2.8,2.8,0,0,0,176.43,170.19Z"/><path class="cls-20" d="M185.74,136.81a15.49,15.49,0,0,1-11.54,8.08S173.81,163,182.28,163s10-15.77,10-15.77S185.48,141.81,185.74,136.81Z"/><path class="cls-37" d="M215.34,187.79s-.26,3.3-1.06,9-3.69,22.07-3.69,22.07"/><path class="cls-37" d="M218.51,196.51s-1.8,7.92-6.25,12.15"/><path class="cls-37" d="M151.64,214.35s-2.22-18.36-1.8-25.72"/><path class="cls-19" d="M313.15,423.43c0,3.32-5,6-11.07,6s-11.08-2.7-11.08-6,5-6,11.08-6S313.15,420.1,313.15,423.43Z"/><path class="cls-20" d="M297.49,402.66l-.29,10.25s-3,7.61-1.49,7.78,3.9.26,2.88,2-2.19,4,4,4.44,7.26-1.57,6.49-4c-.62-1.94-4.07-7.53-5.36-9.6a2.8,2.8,0,0,1-.43-1.73l.85-11.63Z"/><path class="cls-18" d="M295.71,420.69c1.52.17,3.9.26,2.88,2s-2.19,4,4,4.44,7.26-1.57,6.49-4c-.53-1.65-3.13-6-4.68-8.5-1.89.44-4.49,1.3-5.45,2.83-.84,1.34-2,.16-2.9-1.25C295.4,418.3,294.88,420.6,295.71,420.69Z"/><path class="cls-42" d="M293,326.87l1.59,77.84h15.85s3.17-4.38,2.82-14.24,3.52-11.63,3.88-20.09,4.05-46.51,4.05-46.51Z"/><path class="cls-43" d="M320.41,332.33s-3.24,6.34-8.18,7.05-5.63,6.52-10.39,12-2.81,10.56-8,14.62l-.8-39.11,28.19-3Z"/><path class="cls-20" d="M322.45,321.5l11.92-1a3.82,3.82,0,0,1,2.93,1,15.32,15.32,0,0,1,4.09,6.19c1.94,5.29,2,8.19,4.05,8.46s-1.06-25.55-1.06-25.55l-24.22-1.93Z"/><path class="cls-18" d="M339.83,310.21l1.29,10.1-2.78,2.21a15.93,15.93,0,0,1,3.05,5.14c1.94,5.29,2,8.19,4.05,8.46s-1.06-25.55-1.06-25.55Z"/><path class="cls-21" d="M303.9,219.12c-21.13,3-31.39,9.51-33.55,11h0l-.44.32h0c-16,11.79-27.28,49.57-26.29,54.65,1.76,9.07,12.42,6.69,14.88,2.82,1.94-3,12.43-18.12,16.87-24.47,1.73,13.42,3,25.39,3,25.39h52.72L334,230.73C324.87,219.5,303.9,219.12,303.9,219.12Z"/><line class="cls-37" x1="275.37" y1="263.47" x2="271.77" y2="238.62"/><path class="cls-37" d="M267.47,246s0,8.86,7.32,13.46"/><path class="cls-20" d="M258.47,253.48,260,222.94a10.48,10.48,0,0,0,1.77-3.71c.5-2.11,4.29-3.91,3.76-5.26s-3.27,1.89-4.05,1.59-.62-.89-.88-4.94.05-7.93-.75-7.9-1.31,9.33-1.31,9.33-.72-11-2.06-10.75-.49,10.27-.49,10.27-2-9-3-9,.53,9.55.53,9.55-3.48-6-4.09-5.68,3.16,7.22,3.16,7.22-1.15,6,1.48,8.94L247.56,253Z"/><polygon class="cls-44" points="275.64 265.56 275.64 265.56 275.64 265.55 275.64 265.56"/><path class="cls-45" d="M275.34,263.51l-3-20.85s-5.07,3.77-4.88,12.59-6.68,7.51-7.07,12.92-5.25,9.37-5.25,9.37l2.71,11.19a5,5,0,0,0,.64-.79C260.43,284.9,270.89,269.88,275.34,263.51Z"/><path class="cls-23" d="M314,286.31a7.73,7.73,0,0,1-4.67,1c-.56,0-1.13-.08-1.68-.15-7.29-.08-14.29-.08-21.29,1.92a31.77,31.77,0,0,1-.84-3.08c-1.16-5.26-1.15-11.08-1.09-16.83-.05-.59-.1-1.19-.14-1.78-.6-7.09-1.26-14-1.93-21.31,1,0,2,0,3.42-.06l1.66-.09c4.94-.31,9.77-.76,14.84-.89l2.47-.17c1.57-.2,3.18-.37,4.79-.51l2.42-.22c.4,8.94.4,18.94,1.19,28.15,0,.55,0,1.1-.08,1.65-.23,3.88-.61,7.84.94,11.62A6.5,6.5,0,0,0,314,286.31Z"/><path class="cls-46" d="M299,288.86h32.1l2.32-46.39-12.82-3c-5.68,4.36-7.27,9.58-7.14,13.21s-5.94,6.87-6.67,12C306.2,268.75,301.1,283,299,288.86Z"/><path class="cls-47" d="M312.58,278.75l-22.72,6.35s-9.05,0-10.17,3.76H314.5Z"/><path class="cls-42" d="M237.2,327.13c-3.28-12.33,6.36-23.69,36.37-23.69,36.41,0,50.82,2.11,50.82,2.11v19.38S241.94,345,237.2,327.13Z"/><path class="cls-20" d="M302.91,208.81l3.36,10.8a3.11,3.11,0,0,1-.9,3.27c-2.88,2.56-9,7.7-10.59,6.3-2-1.85-2.25-14.07-2.25-14.07Z"/><path class="cls-48" d="M303.9,212l-1-3.18-10.38,6.3a83.56,83.56,0,0,0,.73,9.43C298.77,222.16,302.33,215.53,303.9,212Z"/><path class="cls-20" d="M285.94,205.73s1.22,11.39,3.8,12.61,11.7-5.23,13.6-9c0,0,4.92-3,2.46-7.07l-11.12-9.5-9.8,3.27Z"/><path class="cls-18" d="M291.44,196.68s2.91-2,4.32,1.06,1.76,6.08,6.87,6c0,0,.53-2.29,3.17-1.5a60.78,60.78,0,0,0,1.06-7.22c.26-3.52-5.81-13-16.12-3.7,0,0-5.73-2.11-8.1,3.35s-.53,11.54-.53,11.54,2.64,1.85,7.66,0C289.77,206.2,285.72,194.92,291.44,196.68Z"/><path class="cls-21" d="M260.4,249.83,259,287.24H244.27s-4.88-1.81-4.22-13.84,5.68-24.31,5.68-24.31Z"/><path class="cls-21" d="M334,230.73c4.76,6,12.93,27.45,15.15,48a9,9,0,0,1-9,10h-29.4s-2.38-7.13-1.19-12l12.28-2.38s-.92-2.91,1.72-3.17c0,0-1.32-6.49-4.62-18.44S328.84,224.25,334,230.73Z"/><path class="cls-37" d="M322.49,236s-6.21,6.06-2.87,19.28"/><polygon class="cls-49" points="379.98 287.24 325.37 287.24 332.11 249.83 386.72 249.83 379.98 287.24"/><ellipse class="cls-18" cx="356.04" cy="268.53" rx="7.37" ry="6.16" transform="translate(-87.93 310.54) rotate(-42.43)"/><path class="cls-50" d="M434.74,273.3s2.66-3,7.5-.29"/><path class="cls-26" d="M483.71,177.66c-4.84,2.73-13.39,16.29-13.39,16.29a27.1,27.1,0,0,1,2.12-12.68s-6-.09-6.7-1.5c-2.3-4.62,4.94-15,4.94-15-9.78-2.29-13.3-8.19-6.87-12.07s13.74-7.31,13.74-7.31,3.84-6,11.44-.88c4.85,3.26,4.31,9.34,6,11.54s6.53,5.11,4.76,6.34c0,0,7.93,2.73,9.6,10,0,0-8-1.49-12.5,1.33Z"/><path class="cls-19" d="M464.4,420.66c.19,2.06-4.82,4.19-11.17,4.74s-11.66-.66-11.84-2.73,4.83-4.19,11.18-4.75S464.22,418.59,464.4,420.66Z"/><path class="cls-19" d="M516.34,420.66c.18,2.06-4.83,4.19-11.18,4.74s-11.65-.66-11.83-2.73,4.82-4.19,11.18-4.75S516.16,418.59,516.34,420.66Z"/><path class="cls-20" d="M460.67,378.1l-3.94,35-7,4.9s-7.25,1.06-7.22,2.52,15.32-.3,19-.37.61-2.66.95-5.57,8.8-36.65,8.8-36.65Z"/><path class="cls-20" d="M503.51,378.1l5.15,35-7,4.9s-7.24,1.06-7.22,2.52,15.33-.3,19-.37.6-2.66.94-5.57-.3-36.65-.3-36.65Z"/><path class="cls-51" d="M508,244.25s7.67,11.31,7.36,42.47l1.63,94H499.37L486,291.38l-7.93,48.74s3.84,11.56-4.78,40.64H457.64L460.55,333a347.45,347.45,0,0,1,9.07-88.79Z"/><path class="cls-52" d="M486,291.38S481.42,265,482.66,243"/><path class="cls-52" d="M478,243S476.73,266,483,266.25"/><path class="cls-53" d="M508,244.25h-38.4q-1.06,4.45-2,8.84a24.35,24.35,0,0,0,10.42.36c8.39-1.31,25.75,10.94,35.92,10.81C511.86,249.92,508,244.25,508,244.25Z"/><path class="cls-20" d="M468.12,188.28,445,204.78l-9.53-12,1-.64L433,183.82l-4.7,2.94a2.87,2.87,0,0,0-1.28,3.11c.56,2.26,1.88,5.58,4.83,5.76,0,0,3,19.48,11.1,22S476.67,198,476.67,198Z"/><path class="cls-54" d="M468.12,188.28l-15.51,11.05c5.17.13,13.71,1.07,15.16,5.81,5.11-3.88,8.9-7.14,8.9-7.14Z"/><path class="cls-55" d="M479.69,178.59l-12.08,8.61a1.65,1.65,0,0,0-.26,2.46L476.84,200Z"/><path class="cls-21" d="M496.84,173.79c5.11-4.24,12.86-4.85,16.38-1.07S517,189.37,517,189.37h-4.94s-5.81,18.41-6,26.34,6.51,29.42,6.51,29.42c.93,3.17-3.17,3.43-9.91,3.43h-32.5c-6.6,0-3.57-5.55-2.24-11.23s5.9-23.12,6-26.82-6.66-9.33-3.62-16.56,8.28-16.91,13.39-16.29Z"/><path class="cls-50" d="M497.41,183.82,496.22,191s1.45,1.65,4.95,1.78"/><path class="cls-50" d="M492.39,186.66s-.73,7.73,7.86,9.52"/><path class="cls-56" d="M506.09,215.71a45.29,45.29,0,0,1,.94-7.15l-8.16-16.17L496.22,191l.72-4.3c-4.05,1.52-2.11,6.74-1.38,10.11s-.53,5-5.55,4.76-4.89.26-2,5,4.68,11.06,3.52,20.48c-.68,5.48-3.8,16.94-5.44,21.53h16.58c6.74,0,10.84-.26,9.91-3.43C512.6,245.13,505.91,223.64,506.09,215.71Z"/><path class="cls-57" d="M445,204.78a4.45,4.45,0,0,1,2.1,3.32"/><path class="cls-58" d="M438,195.93c-1.68,0-4.31-.13-6.14-.3a67.62,67.62,0,0,0,1.49,6.72c3.2-1.43,7.94,0,10.43.88Z"/><path class="cls-59" d="M459.94,343.1l-2.3,37.66H473.3c8.62-29.08,4.77-40.64,4.77-40.64L486,291.38l-1.59-11.12C480.9,294.36,467.86,325,459.94,343.1Z"/><path class="cls-18" d="M442.47,420.48c0,1.45,15.32-.3,19-.37,3.08-.06,1.46-1.87,1-4.16-6.41,3.29-3.57-2.85-5.78-2.89l-7,4.9S442.44,419,442.47,420.48Z"/><path class="cls-18" d="M494.4,420.48c0,1.45,15.33-.3,19-.37,3.08-.06,1.45-1.87,1-4.16-6.42,3.29-3.58-2.85-5.79-2.89l-7,4.9S494.38,419,494.4,420.48Z"/><path class="cls-60" d="M443.75,183.82s-8.25-3.56-5.11-13.6,15.17-8.06,14.51-17.31-10.12-7-14.51-9.65-.25-10.17-6.81-13.34-13,1.58-22,3.17-16.78,3-16.51,0,4.62-3.44,3.17-7.14-8.86-3.7-9.91-2.64c0,0,8.06,0,8.32,2.78s-6,4.09-5.69,9.11,11.24,4,21.94,3.3,9.74,3.57,8.9,8.86.88,8.85,7.88,9.77,10.26,1.8,6.34,9.52c-3.37,6.65-.69,12.81,5.62,17.17Z"/><path class="cls-20" d="M473.94,162.51s.7,1.23,2.2,4.58,3.26,4.84,6.87,4.49l.7,6.08s-7,5.65-3.17,7.4,9.25-6.16,16.3-11.27c0,0-5.6-2.63-7.23-7.5-2.81-8.45-7.13-6.16-9.24-15.06C480.37,151.23,477.81,160,473.94,162.51Z"/><path class="cls-61" d="M489.61,166.29c-.11-.35-.23-.67-.35-1-1.33,2.87-4.17,6-6.25,6.27l.28,2.47L495,172.7A13.41,13.41,0,0,1,489.61,166.29Z"/><path class="cls-20" d="M515.38,189.37s-8.19-4.23-16.25,1.19l-12.95,93.55s-1.85,2.17-.66,3.13,4,.56,7.13.56h8.72s-5.68-3.82-7.13-4.55-2-3-2-3,12.15-29.33,11-45.58A313.39,313.39,0,0,0,515.38,189.37Z"/><path class="cls-62" d="M430.89,183.24a24.56,24.56,0,0,0,3.59,10.83,2.09,2.09,0,0,0,1.77,1h7.25a2.11,2.11,0,0,0,1.77-1,24.56,24.56,0,0,0,3.59-10.83,1,1,0,0,0-1-1.13H431.92A1,1,0,0,0,430.89,183.24Z"/><ellipse class="cls-4" cx="577.4" cy="416.76" rx="28.98" ry="3.12"/><rect class="cls-63" x="554.44" y="302.83" width="45.91" height="113.93"/><line class="cls-64" x1="600.35" y1="340.26" x2="554.44" y2="340.26"/><line class="cls-64" x1="600.35" y1="378.74" x2="554.44" y2="378.74"/><line class="cls-64" x1="600.35" y1="343.52" x2="554.44" y2="343.52"/><line class="cls-64" x1="600.35" y1="306.09" x2="554.44" y2="306.09"/><line class="cls-64" x1="600.35" y1="382" x2="554.44" y2="382"/><path class="cls-2" d="M580.4,312.73a3,3,0,1,1-3-2.92A3,3,0,0,1,580.4,312.73Z"/><path class="cls-2" d="M580.4,350.86a3,3,0,1,1-3-2.92A3,3,0,0,1,580.4,350.86Z"/><path class="cls-2" d="M580.4,389a3,3,0,1,1-3-2.92A3,3,0,0,1,580.4,389Z"/><polygon class="cls-65" points="554.44 321.36 554.44 416.76 567.55 416.76 554.44 321.36"/><path class="cls-66" d="M568.38,282.94a20.47,20.47,0,0,1-5.56-19.15s-12.29-12-4.1-19.29c0,0-4.76-30,5-31.84S574.57,238,574.57,238s5.55-1,2,17.12c0,0,7.66.72,2.51,27.94Z"/><path class="cls-67" d="M563.74,212.66s2.55,40.12,10.13,70.35"/><path class="cls-68" d="M574.44,283H587s14-22.13,10-30.32c0,0,8.06-18.37,2.77-20.88s-11.89,12.69-11.89,12.69S575.75,244.1,574.44,283Z"/><path class="cls-67" d="M599.81,231.81s-14.14,25.6-19,51.2"/><path class="cls-18" d="M577.4,279.88c-6.73,0-12.1.8-12,1.79l2.08,21.16h19.83l2.09-21.16C589.49,280.68,584.12,279.88,577.4,279.88Z"/><ellipse class="cls-4" cx="536.67" cy="429.97" rx="7" ry="2.38"/><ellipse class="cls-4" cx="243.56" cy="429.97" rx="7" ry="2.38"/><rect class="cls-62" x="255.15" y="294.28" width="269.46" height="22.2"/><polygon class="cls-63" points="248.71 294.28 241.26 429.45 246.22 429.45 264.68 294.28 248.71 294.28"/><polygon class="cls-63" points="531.07 294.28 538.51 429.45 533.55 429.45 515.09 294.28 531.07 294.28"/><polygon class="cls-69" points="248.42 299.47 532.07 312.5 531.07 294.28 248.71 294.28 248.42 299.47"/><rect class="cls-62" x="236.59" y="286.72" width="306.6" height="9.67"/><circle class="cls-70" cx="538.51" cy="148.13" r="23.64"/><circle class="cls-71" cx="537.12" cy="146.68" r="23.64" transform="translate(286.24 643.75) rotate(-78.49)"/><circle class="cls-2" cx="537.12" cy="146.68" r="17.66" transform="translate(271.82 636.2) rotate(-76.82)"/><path class="cls-23" d="M199.13,238.92c-1.71.19-3.42.31-5.12.38l-1.28,0c-9.37-.28-17.37-.28-26.67-.44v-4.46c0-1.43,0-2.87,0-4.32v-1.45q.12-4.72,0-9.53c0-1.06-.08-2.13-.14-3.2-1.54-8.88.46-17.88-2.54-25.88,7,0,13,0,20.13.1l3.3.05,3.28.08h5.84a49,49,0,0,1,5.45-.22c-2,16-4,32-2.15,47.57C199.13,238.44,199.13,238.92,199.13,238.92Z"/><g class="cls-72"><path class="cls-23" d="M472.61,239l-1.15,0-1.27,0-1.39,0c-.47,0-.94,0-1.38-.06s-.86-.06-1.23-.09-.71-.08-1-.13a12.27,12.27,0,0,1-1.35-.28l-.79-.24a1.84,1.84,0,0,0-.53-.09,2.39,2.39,0,0,0-.57-.11l-.35,0-.36,0-.4,0-.47,0-.55.07-.65.11a14.13,14.13,0,0,1-.11-1.46c0-.49,0-1,0-1.48s0-.84.07-1.26,0-.84.05-1.26v-1.28a96.26,96.26,0,0,1,1.18-11.79l.09-1.66c.32-6.58.55-13,.83-19.81.69.09,1.38.19,2.24.28l.92.09a5,5,0,0,0,.78,0,4,4,0,0,0,.86-.18l.77-.25a5.48,5.48,0,0,1,.74-.16,3,3,0,0,1,.67,0,3.21,3.21,0,0,1,.63.14,6.37,6.37,0,0,1,.61.23l.61.27a4.72,4.72,0,0,0,.61.27,3.23,3.23,0,0,0,.63.16,5.25,5.25,0,0,0,.68,0l.71-.09c.49-.09,1-.2,1.55-.34l.83-.2.87-.2.89-.26q.45-.12.9-.21l.88-.14c.29,0,.56-.06.84-.08a14.24,14.24,0,0,1,1.59,0c.52,0,1,.05,1.5.11s.92.11,1.36.18l1.27.22,1.25.22c.42.07.83.15,1.24.24s.83.18,1.24.27l1.21.31c-.05.3-.1.61-.16.92s-.11.61-.17.92-.13.62-.2.93-.14.62-.21.93-.15.63-.22.94l-.21.93c-.09.47-.18.94-.24,1.4s-.16.73-.22,1.09-.13.73-.19,1.09c-.36,2.18-.59,4.35-.75,6.52,0,.58-.07,1.16-.11,1.73-1.16,6.54.84,12.54.88,19.77.05.84.1,1.72.15,2.69-.15.25-4.41.63-8.54.4l-.95-.07-.95-.07c-.31,0-.64,0-1,0h-1.05c-.36,0-.73,0-1.1,0s-.76,0-1.15-.07Z"/></g><g id="Layer_2-2" data-name="Layer 2" class="cls-25"><g id="Layer_1-2-2" data-name="Layer 1-2"><path class="cls-2" d="M186.6,216a1.55,1.55,0,0,0,1.05-.75l-.07.18.7,0-.42.62H188c.31,0,.63,0,.94,0a.19.19,0,0,1,.21.16l0,.1c.11.26.17.56.6.4a1.44,1.44,0,0,1-1.06.87,1.14,1.14,0,0,1-.37,0h-4.81a1.45,1.45,0,0,1-1.11-.43,1.56,1.56,0,0,1-.42-1.13c0-.49,0-1,0-1.47s0-1,0-1.43a.92.92,0,0,1,.53-.9.17.17,0,0,0,.07-.1.3.3,0,0,1,.34-.27h.49c.26,0,.31,0,.42.28h.45a.17.17,0,0,0,.12-.08c.1-.17.2-.34.29-.51a.49.49,0,0,1,.48-.28h1l1,0a.53.53,0,0,1,.5.29c.09.17.2.33.29.5a.19.19,0,0,0,.19.11,1.61,1.61,0,0,1,.81.16,1.39,1.39,0,0,1,.81,1.23c0,.43,0,.86,0,1.29s0,.87,0,1.31a.17.17,0,0,1,0,.07l-.08-.15-.6-1.38-.61-1.35a.22.22,0,0,0-.24-.16H188c.13.29.26.58.37.87a.62.62,0,0,1,0,.3l-.2-.44-.49,1.12a1.57,1.57,0,0,0-.14-1.28c-.15.32-.28.62-.42.93s-.37.83-.55,1.26h-.55a.13.13,0,0,0,0-.06c-.15-.36-.3-.71-.46-1.06s-.31-.69-.47-1a.43.43,0,0,0,0-.07,1.62,1.62,0,0,0-.22,1.05l-.4-.9c-.08.2-.16.36-.23.52a1.94,1.94,0,0,1,.45-1.25c-.17,0-.31,0-.44,0a.18.18,0,0,0-.21.14l-.36.79-.37.82c-.12.27-.24.55-.37.82s-.25.56-.38.84c0,0,0,.09-.06.15h.15c.19,0,.41.06.55,0a1.23,1.23,0,0,0,.26-.51.21.21,0,0,1,.23-.16c.36,0,.72,0,1.09,0l-.4-.63H185a.2.2,0,0,1,.2.09,1.35,1.35,0,0,0,.85.49c.09.19.17.38.26.58C186.43,216.4,186.51,216.21,186.6,216Zm.48.57a2,2,0,0,0,.75-.5h-.46a.13.13,0,0,0-.09,0c-.07.15-.13.31-.2.47-.28,0-.57.09-.85.1a3.19,3.19,0,0,1-.61-.08l0,.05c.06,0,.12.07.18.07h1C186.89,216.77,187,216.76,187.08,216.6Zm-2-2.83a1.47,1.47,0,0,1,1.2-.62,1.53,1.53,0,0,1,1.27.68c.15-.18.13-.45.35-.59a2.21,2.21,0,0,0-.77-.57,2.31,2.31,0,0,0-.89-.17,2.07,2.07,0,0,0-.86.18,1.88,1.88,0,0,0-.69.53C185,213.31,184.93,213.6,185.1,213.77Zm-1.83-1.4a.45.45,0,0,0-.45.44.45.45,0,0,0,.46.43h0a.46.46,0,0,0,.45-.45.45.45,0,0,0-.46-.42Zm1.52,3.71a2.1,2.1,0,0,0,.8.51c-.07-.15-.12-.29-.18-.42a.18.18,0,0,0-.13-.09c-.14,0-.29,0-.49,0Z"/><path class="cls-2" d="M178.22,213.36v.58l-1.09,0c0,.49-.07,1-.11,1.47s-.07,1-.1,1.45l-.05,0c-.3,0-.3,0-.32-.29s0-.87-.07-1.31-.05-.88-.08-1.32c-.42,0-.85,0-1.27,0-.24,0-.26.07-.26.31,0,.47,0,.93,0,1.39a1.34,1.34,0,0,1-1.34,1.24,2.42,2.42,0,0,1-.66-.06,1.41,1.41,0,0,1-1.07-1.46v-2h.67s.07.1.06.15c0,.58,0,1.17-.06,1.75v.2a.89.89,0,0,0,1.29.79.79.79,0,0,0,.46-.74c0-.46,0-.93,0-1.39a.59.59,0,0,1,.36-.6,1.59,1.59,0,0,1,.63-.16l1.47,0h1.56Z"/><path class="cls-2" d="M193.23,216.85a.54.54,0,0,1-.61-.25c-.25-.35-.52-.7-.79-1l-.83-1.07v2.34h-.65v-2.94c0-.33,0-.54,0-.54a3.65,3.65,0,0,1,.47,0,.28.28,0,0,1,.14.1l.76.95.75,1,.13.15s0-.53,0-1.07v-1.06h.65v3.48Z"/><path class="cls-2" d="M178.49,213.79l1,0v1.43h0v-.39l1.54,0v-1.46l.66,0s0,.22,0,.54V215c0,.44,0,.88,0,1.22s0,.55,0,.55l-.65,0v-1.43l-1.58,0a1.53,1.53,0,0,1-.12.92c-.11.29-.27.58-.37.9l-.1-.2c-.1-.24-.18-.48-.29-.72a1.41,1.41,0,0,1-.12-.64c0-.3,0-.6,0-.9v-.9S178.49,213.83,178.49,213.79ZM179,216s0-.06-.07-.06l-.28,0a.62.62,0,0,0,0,.19,4.19,4.19,0,0,0,.2.49.18.18,0,0,0,.13.1c.05,0,.11-.06.14-.11l.21-.5a.35.35,0,0,0,0-.16,1.28,1.28,0,0,0-.27-.05S179,216,179,216Z"/><path class="cls-2" d="M172.15,213.13h-.42c-.1,0-.14,0-.18-.12a.61.61,0,0,1,.14-.7.66.66,0,0,1,.82-.09.63.63,0,0,1,.24.81.19.19,0,0,1-.14.09Z"/><path class="cls-2" d="M179.49,213.44l-1,0A.46.46,0,0,1,179,213,.47.47,0,0,1,179.49,213.44Z"/><path class="cls-2" d="M188.48,214.63c.13.29.25.57.37.86h-.55Z"/><path class="cls-2" d="M176.67,217.07c.15,0,.22,0,.16.13a.59.59,0,0,1-.18.27c-.21.12-.36.24-.29.52h-.17a.52.52,0,0,1,.25-.62C176.56,217.31,176.7,217.25,176.67,217.07Z"/><path class="cls-2" d="M190.13,216.81h-.3c0-.13.07-.26.12-.41C190,216.55,190.06,216.67,190.13,216.81Z"/><path class="cls-2" d="M187.08,216.6c-.07.16-.19.17-.34.16h-1c-.05,0-.11-.05-.17-.07l0-.05a3.19,3.19,0,0,0,.61.08c.28,0,.57-.07.85-.1Z"/><path class="cls-2" d="M184.34,215.44h-.53l.36-.82Z"/></g></g><g id="Layer_2-3" data-name="Layer 2" class="cls-25"><g id="Layer_1-2-3" data-name="Layer 1-2"><path class="cls-2" d="M303.72,268a1.8,1.8,0,0,0,1-.89c0,.06,0,.11-.06.19l.7-.07-.38.67h.16l1-.08c.12,0,.19,0,.22.14l.05.1c.12.26.21.58.63.39a1.57,1.57,0,0,1-1,1,1.19,1.19,0,0,1-.37.06l-1.2.12-1.21.13-1.2.13-1.21.11a1.48,1.48,0,0,1-1.13-.36,1.52,1.52,0,0,1-.48-1.09c0-.48-.05-1-.07-1.44l-.06-1.45a.91.91,0,0,1,.49-.94.18.18,0,0,0,.07-.11.3.3,0,0,1,.32-.28l.49,0c.26,0,.31,0,.42.27a3.73,3.73,0,0,0,.46,0s.09-.05.11-.09.19-.35.28-.54a.52.52,0,0,1,.47-.31l1-.08,1-.07a.53.53,0,0,1,.51.24c.09.16.21.29.3.44a.2.2,0,0,0,.2.09,1.63,1.63,0,0,1,.82.09,1.25,1.25,0,0,1,.86,1.07c0,.39.06.8.08,1.21s0,.85.06,1.3c0,0,0,.05,0,.08a1.46,1.46,0,0,1-.09-.16c-.22-.46-.45-.9-.68-1.32s-.45-.82-.67-1.22a.21.21,0,0,0-.24-.12l-.39,0c.14.25.28.51.41.77a.55.55,0,0,1,0,.28l-.22-.39c-.15.38-.3.74-.44,1.12a1.38,1.38,0,0,0-.2-1.2c-.13.32-.26.63-.38.94s-.32.86-.49,1.32l-.54.07a.14.14,0,0,0,0-.06l-.51-1-.52-.95-.05-.06a1.53,1.53,0,0,0-.16,1.06l-.45-.83c-.07.2-.14.36-.2.53a2,2,0,0,1,.39-1.28l-.44,0a.19.19,0,0,0-.2.15l-.33.83c-.1.27-.21.55-.32.83l-.33.84c-.1.28-.21.55-.32.83,0,0,0,.09-.05.14h.15c.18,0,.41,0,.53-.07s.17-.33.24-.52a.23.23,0,0,1,.22-.17c.36,0,.72-.08,1.08-.13l-.43-.57a5.48,5.48,0,0,0,.64-.09.2.2,0,0,1,.21.07,1.28,1.28,0,0,0,.88.37l.29.54Zm.51.52a2.45,2.45,0,0,0,.73-.61l-.47.05s-.08,0-.09.06-.11.33-.16.5c-.29.07-.57.17-.85.22a3.21,3.21,0,0,1-.62,0v.05a.41.41,0,0,0,.18.05c.32,0,.64-.09,1-.11C304.05,268.67,304.17,268.64,304.23,268.48ZM302.1,266a1.68,1.68,0,0,1,1.18-.75,1.47,1.47,0,0,1,1.3.49c.14-.18.12-.44.33-.59a2,2,0,0,0-.8-.44,2.23,2.23,0,0,0-.89-.08,2.35,2.35,0,0,0-.86.28,1.94,1.94,0,0,0-.66.58C302,265.52,301.93,265.81,302.1,266Zm-1.87-1.24a.45.45,0,0,0,0,.89h0a.49.49,0,0,0,.43-.48.45.45,0,0,0-.48-.41Zm1.68,3.54a1.93,1.93,0,0,0,.83.42,3,3,0,0,0-.21-.4.15.15,0,0,0-.13-.08l-.49.06Z"/><path class="cls-2" d="M295.22,265.94v.61l-1.12.12c0,.53-.05,1-.07,1.54s0,1,0,1.43l-.05,0c-.31.05-.31.05-.35-.24s-.1-.85-.14-1.29-.07-.9-.1-1.36c-.43,0-.87.06-1.31.12-.24,0-.26.1-.26.35,0,.5,0,1,0,1.44a1.28,1.28,0,0,1-.37.88,1.37,1.37,0,0,1-.89.37,2,2,0,0,1-.65-.05,1.47,1.47,0,0,1-.8-.49,1.62,1.62,0,0,1-.32-.93c0-.34,0-.69,0-1.05s0-.72,0-1.09h.65s.07.1.06.16c0,.31,0,.63,0,.94s0,.61,0,.91c0,.06,0,.13,0,.19a1,1,0,0,0,.45.75.91.91,0,0,0,.85,0,.75.75,0,0,0,.42-.75c0-.47,0-.95,0-1.44a.69.69,0,0,1,.36-.67,1.74,1.74,0,0,1,.64-.22l1.51-.14,1.51-.14Z"/><path class="cls-2" d="M310.42,268.47a.57.57,0,0,1-.62-.27c-.28-.37-.56-.73-.85-1.09s-.59-.7-.89-1c0,0,0,.55.06,1.14l.06,1.2h-.65s0-.23,0-.57,0-.78-.06-1.21-.05-.83-.06-1.12,0-.5,0-.5h.47a.27.27,0,0,1,.15.09c.27.29.54.59.8.89s.54.62.8.94l.13.15s0-.53-.05-1,0-1,0-1h.65l0,.52c0,.31,0,.72.05,1.15s.05.87.06,1.2S310.42,268.47,310.42,268.47Z"/><path class="cls-2" d="M295.5,266.37l1-.1,0,1.47h0l0-.4,1.55-.13-.06-1.47.65,0,0,.54.05,1.19.05,1.19,0,.54-.65,0-.06-1.4-1.6.14a1.52,1.52,0,0,1-.08.92c-.1.29-.25.59-.33.9l-.11-.18c-.12-.22-.22-.45-.35-.66a1.33,1.33,0,0,1-.16-.62c0-.3,0-.6,0-.91s0-.62,0-.93Zm.58,2.18s-.06-.05-.08,0l-.29.05a1,1,0,0,0,0,.18,4,4,0,0,0,.24.46.17.17,0,0,0,.14.08.18.18,0,0,0,.13-.11c.07-.17.13-.34.19-.51a.35.35,0,0,0,0-.16,1.37,1.37,0,0,0-.29,0S296.12,268.53,296.08,268.55Z"/><path class="cls-2" d="M289.1,266.05h-.41a.18.18,0,0,1-.18-.13.74.74,0,0,1,.14-.76.63.63,0,0,1,.81-.11.71.71,0,0,1,.23.88.21.21,0,0,1-.14.1,3.38,3.38,0,0,1-.45,0Z"/><path class="cls-2" d="M296.51,265.94l-1,.09a.52.52,0,0,1,.45-.53A.46.46,0,0,1,296.51,265.94Z"/><path class="cls-2" d="M305.53,266.34c.14.26.28.52.42.8l-.56,0C305.44,266.9,305.49,266.62,305.53,266.34Z"/><path class="cls-2" d="M293.75,269.85c.16-.06.23,0,.18.11a.69.69,0,0,1-.17.27c-.2.12-.35.25-.25.5l-.17,0a.45.45,0,0,1,.2-.59C293.65,270.08,293.79,270,293.75,269.85Z"/><path class="cls-2" d="M307.31,268.42H307c0-.15.06-.28.09-.44C307.17,268.14,307.23,268.27,307.31,268.42Z"/><path class="cls-2" d="M304.23,268.48c-.05.16-.18.19-.33.21-.32,0-.64.08-1,.11a.41.41,0,0,1-.18-.05v-.05a3.21,3.21,0,0,0,.62,0c.28-.05.56-.15.85-.22Z"/><path class="cls-2" d="M301.43,267.68l-.53.06.31-.84C301.28,267.16,301.35,267.42,301.43,267.68Z"/></g></g><g class="cls-72"><g id="Layer_2-4" data-name="Layer 2" class="cls-25"><g id="Layer_1-2-4" data-name="Layer 1-2"><path class="cls-2" d="M477.06,220.17a1.14,1.14,0,0,0,.47-.3,3.15,3.15,0,0,0,.41-.55,2.16,2.16,0,0,0-.09.2l.57,0-.43.69h.13l.88,0c.12,0,.18,0,.2.16s0,.07,0,.11c.1.27.16.59.67.44a2.12,2.12,0,0,1-.52.58,1.58,1.58,0,0,1-.61.3,1.24,1.24,0,0,1-.33,0l-.51,0-.49,0-.48,0-.5-.06c-.35-.06-.7-.14-1-.22l-.82-.23a.62.62,0,0,1-.43-.57,2.3,2.3,0,0,1,.17-1c.08-.2.15-.4.22-.6s.14-.39.2-.59a5.5,5.5,0,0,0,.16-.58c0-.2.07-.4.1-.61a1.1,1.1,0,0,1,.25-.84.18.18,0,0,0,0-.11c0-.19,0-.26.13-.27h.28c.14,0,.18,0,.29.27l.25,0a.12.12,0,0,0,.05-.1c0-.18.06-.36.08-.55s.09-.31.23-.33l.73-.1.82-.08a.45.45,0,0,1,.45.27c.08.16.18.32.26.48a.15.15,0,0,0,.18.11,1.38,1.38,0,0,1,.79.16,1.56,1.56,0,0,1,.57.54,1.31,1.31,0,0,1,.15.77c0,.23-.07.47-.11.7s-.09.47-.14.7-.09.47-.13.7-.08.47-.11.71a.31.31,0,0,1,0,.08,1.22,1.22,0,0,1-.08-.17c-.09-.26-.18-.51-.25-.75a6.93,6.93,0,0,1-.2-.75c-.06-.25-.12-.49-.17-.73l-.15-.73c0-.13-.08-.17-.19-.16h-.35c.05.31.1.62.13.93a.76.76,0,0,1-.05.33l-.07-.47c-.12.21-.24.42-.35.63s-.22.41-.32.62a2.81,2.81,0,0,0,.2-.71,1.94,1.94,0,0,0,0-.68l-.27.53c-.08.17-.17.34-.25.52s-.22.46-.32.69l-.3.69h-.37v-.07c0-.36,0-.73,0-1.08s0-.71,0-1.05c0,0,0-.05,0-.07a3.63,3.63,0,0,0-.36,1c0-.29,0-.57,0-.88-.09.19-.16.34-.24.49a4.19,4.19,0,0,1,.19-.63,6.11,6.11,0,0,1,.27-.58,2.18,2.18,0,0,1-.24,0c-.07,0-.1,0-.13.14a7.18,7.18,0,0,1-.33.74,5,5,0,0,1-.41.67l-.45.64-.46.65-.08.12.07,0c.1,0,.19.11.28,0a1.54,1.54,0,0,0,.31-.4c.07-.09.11-.11.18-.09l.63.17,0-.63a1.76,1.76,0,0,0,.38.06c.06,0,.08,0,.09.11a.69.69,0,0,0,.42.55c0,.19.06.38.1.59C476.89,220.55,477,220.36,477.06,220.17Zm.29.59a2.29,2.29,0,0,0,.61-.57l-.36,0a.1.1,0,0,0-.07.06l-.18.49a3.55,3.55,0,0,1-.64.1,1.73,1.73,0,0,1-.44-.14l0,0s.07.08.11.09c.25,0,.49.06.73.08A.23.23,0,0,0,477.35,220.76Zm-.71-2.89a1.82,1.82,0,0,1,.36-.53.81.81,0,0,1,.42-.23.56.56,0,0,1,.45.11,1,1,0,0,1,.34.5c.15-.2.19-.49.4-.65a1.38,1.38,0,0,0-.55-.55,1,1,0,0,0-.63-.09,1.1,1.1,0,0,0-.54.29,2,2,0,0,0-.4.6C476.62,217.4,476.57,217.7,476.64,217.87Zm-.95-1.34c-.14,0-.23.2-.21.43s.1.42.23.42h0c.14,0,.26-.2.26-.43s-.15-.43-.28-.42Zm.17,3.54a1.1,1.1,0,0,0,.39.61c0-.16,0-.3,0-.43a.13.13,0,0,0-.05-.11l-.31-.07Z"/><path class="cls-2" d="M472.61,217.15l0,.54-.37.1-.34.1a5.93,5.93,0,0,1-.1.72,7.27,7.27,0,0,1-.2.73c-.09.25-.19.51-.31.78l-.39.83-.06.05c-.3.16-.29.15-.15-.2s.2-.51.29-.75.15-.48.21-.71a4.23,4.23,0,0,0,.12-.68,4.87,4.87,0,0,0,0-.66h-1.06l-.46,0c-.37,0-.38.07-.35.35a3.07,3.07,0,0,1,0,.8,3.71,3.71,0,0,1-.22.82,2.21,2.21,0,0,1-.36.57,1.34,1.34,0,0,1-.56.34,2.21,2.21,0,0,1-.87-.05,5.48,5.48,0,0,1-.56-.16l-.64-.24-.77-.25-.7-.19a5.24,5.24,0,0,1-.83-.3,2.41,2.41,0,0,1-.58-.36,1,1,0,0,1-.39-.88c0-.28.05-.55.07-.82s0-.53,0-.79h1.31c.05,0,.16.07.16.11a3.12,3.12,0,0,1,0,.69,3.92,3.92,0,0,1-.11.73c0,.06,0,.11,0,.17a.51.51,0,0,0,.19.44,1.94,1.94,0,0,0,.63.37c.26.12.6.25,1,.38a6.12,6.12,0,0,0,1.13.35,1.21,1.21,0,0,0,.78,0,.63.63,0,0,0,.33-.43,2.73,2.73,0,0,0,.1-.81,2.35,2.35,0,0,0-.17-.81c-.14-.33-.05-.51.29-.56l.44-.07a4.44,4.44,0,0,1,.53,0h1.5a2,2,0,0,0,.35,0,1.27,1.27,0,0,0,.28,0,1.1,1.1,0,0,0,.26-.06l.5-.11Z"/><path class="cls-2" d="M483.22,221.12c-.2.06-.34,0-.48-.24l-.3-.56c-.1-.19-.19-.38-.29-.58l-.28-.61q-.15-.3-.3-.63s0,.16-.06.4-.07.55-.1.87-.06.63-.07.86,0,.39,0,.39l-.76-.09.05-.58c0-.18,0-.38.07-.6s.07-.46.11-.7l.12-.69c0-.22.07-.43.1-.6.05-.35.07-.58.07-.58a3.06,3.06,0,0,1,.45.06.24.24,0,0,1,.13.13c.1.18.19.37.28.55l.24.56c.08.18.15.37.23.55s.15.36.23.54l.08.16s0-.14,0-.36,0-.5.07-.79.06-.59.09-.8l.05-.37.5,0-.1.58c0,.18-.05.38-.08.6s-.05.45-.06.69,0,.46,0,.67,0,.41,0,.58C483.2,220.9,483.22,221.12,483.22,221.12Z"/><path class="cls-2" d="M472.81,217.52h.65s0,.31-.09.62l-.1.63h0l.07-.35.86.08.12-.59c.07-.3.13-.6.13-.6l.38.05s0,.19-.07.45a7.22,7.22,0,0,1-.27,1c-.11.35-.24.71-.35,1s-.18.47-.18.47l-.32,0,.21-.61c.11-.3.21-.6.21-.6l-.43,0h-.43a2.49,2.49,0,0,1-.32.87c-.16.29-.37.59-.57.92,0-.08,0-.13,0-.18,0-.22.08-.45.1-.67a2.36,2.36,0,0,1,.12-.6c.07-.29.13-.57.17-.85a7.91,7.91,0,0,0,.06-.83S472.81,217.56,472.81,217.52Zm0,2s0,0,0,0a1.27,1.27,0,0,0-.18.06c0,.06,0,.13,0,.18s0,.31-.05.45,0,.09.05.08a.34.34,0,0,0,.12-.12c.11-.17.2-.34.29-.5a.54.54,0,0,0,.06-.16.34.34,0,0,0-.15,0Z"/><path class="cls-2" d="M463.73,216.65l-.76,0a.36.36,0,0,1-.31-.08c-.19-.17-.12-.41.17-.55a1.68,1.68,0,0,1,.64-.17,2.13,2.13,0,0,1,.71.08c.57.15.91.4.73.61a.5.5,0,0,1-.26.08Z"/><path class="cls-2" d="M473.47,217.24h-.66c0-.23.08-.42.26-.43S473.43,217,473.47,217.24Z"/><path class="cls-2" d="M478.78,218.55c.05.31.11.61.18.93h-.53C478.54,219.18,478.66,218.87,478.78,218.55Z"/><path class="cls-2" d="M470.57,221.29c.17-.12.2-.09.07.09a2.36,2.36,0,0,1-.35.41,1.76,1.76,0,0,0-.63.71l-.17.05a2.13,2.13,0,0,1,.65-.79A1.15,1.15,0,0,0,470.57,221.29Z"/><path class="cls-2" d="M480.28,220.91l-.36,0c.05-.14.1-.27.17-.43Z"/><path class="cls-2" d="M477.35,220.76a.23.23,0,0,1-.26.17c-.24,0-.48,0-.73-.08,0,0-.08-.06-.11-.09l0,0a1.73,1.73,0,0,0,.44.14,3.55,3.55,0,0,0,.64-.1Z"/><path class="cls-2" d="M475.79,219.43l-.3-.06.45-.69C475.89,218.94,475.85,219.18,475.79,219.43Z"/></g></g></g></g></svg>