<svg xmlns="http://www.w3.org/2000/svg" viewBox="0 0 392.79 350.65"><defs><style>.cls-1{fill:#d4955f;}.cls-2{fill:#d48948;}.cls-3{fill:#e59163;}.cls-4{fill:#d78383;}.cls-5{fill:#ebb17f;}.cls-6{fill:#e9a666;}.cls-7{fill:#fbf4eb;}.cls-8{fill:#f7e5d1;}</style></defs><g id="Layer_2" data-name="Layer 2"><g id="BACKGROUND"><path class="cls-1" d="M125.79,122.53a60.14,60.14,0,0,1,46.05-23.47c.64,0,.64-1,0-1a61.93,61.93,0,0,0-39,15.45,56.34,56.34,0,0,0-7.9,8.51c-.39.52.48,1,.86.51Z" transform="translate(0 -0.33)"/><path class="cls-1" d="M148,132.08A28.69,28.69,0,0,0,155.6,126a41.7,41.7,0,0,0,5-7.5c2.87-5.29,5.1-11,8.69-15.85a32.27,32.27,0,0,1,30.38-12.72c6.22.76,12.65,2.81,17.73,6.57.79.59,1.55-.74.77-1.32a38.11,38.11,0,0,0-15.82-6.38,35.57,35.57,0,0,0-17.09.78,34.47,34.47,0,0,0-15.05,9.57c-4.17,4.58-6.69,10.25-9.45,15.73a52.71,52.71,0,0,1-5.21,8.73,27.26,27.26,0,0,1-8.33,7.19.76.76,0,0,0,.77,1.32Z" transform="translate(0 -0.33)"/><path class="cls-1" d="M148.07,132.13c4.67-2.49,8.51-6.2,12.14-10a118.07,118.07,0,0,1,11.69-11.23A66.73,66.73,0,0,1,200,97.38a60.12,60.12,0,0,1,17.86-.81c1,.09,1-1.43,0-1.53a61.58,61.58,0,0,0-31.12,5A71.66,71.66,0,0,0,173,108.12a80.36,80.36,0,0,0-6.3,5.19c-2,1.85-3.9,3.83-5.77,5.82-4.13,4.36-8.29,8.83-13.65,11.69-.87.46-.1,1.78.77,1.31Z" transform="translate(0 -0.33)"/><path class="cls-1" d="M136.87,125.6a57.62,57.62,0,0,1,11.36-5.13,57,57,0,0,0-10.82,6Z" transform="translate(0 -0.33)"/><path class="cls-1" d="M130.59,123.43a128.07,128.07,0,0,1,11-8.28,78.49,78.49,0,0,1,12-6.71,78.7,78.7,0,0,0-11.68,7.12,125,125,0,0,0-10.59,8.63Z" transform="translate(0 -0.33)"/><path class="cls-1" d="M120.4,121a136.93,136.93,0,0,0-2-24.42c-.15-1-1.62-.56-1.47.4a135.3,135.3,0,0,1,1.93,24,.76.76,0,0,0,1.52,0Z" transform="translate(0 -0.33)"/><path class="cls-1" d="M93.34,184.46c2.89-4.27,5.62-8.66,8.37-13,2.39-3.78,4.74-7.59,6.94-11.48,1.12-2,2.2-4,3.22-6,.44-.88-.88-1.65-1.32-.77a258.55,258.55,0,0,1-13.68,23c-1.6,2.5-3.18,5-4.84,7.49-.55.82.77,1.58,1.31.77Z" transform="translate(0 -0.33)"/><path class="cls-1" d="M45.84,276.52a98.58,98.58,0,0,1,3.7-29.93,97.56,97.56,0,0,1,5.22-14.15,66.79,66.79,0,0,1,7.61-12.54,160.46,160.46,0,0,1,11.49-13.1c.67-.71-.4-1.79-1.08-1.08-7,7.38-14.09,15.07-18.56,24.31a99.52,99.52,0,0,0-8.93,29.23,100.63,100.63,0,0,0-1,17.26.76.76,0,0,0,1.52,0Z" transform="translate(0 -0.33)"/><path class="cls-1" d="M118.23,96.27A87,87,0,0,1,95.1,65.49a88,88,0,0,1-6-19.29A79.38,79.38,0,0,1,87.8,25,79.25,79.25,0,0,1,93.58,1.29l-1.12.46c4.18,2.37,7.34,6.52,10,10.44a91.74,91.74,0,0,1,8.8,16.73,83.52,83.52,0,0,1,5.27,17.69c.56,3.38.72,6.82,1,10.24.35,4.08.71,8.17,1,12.27a108.9,108.9,0,0,1-.93,24.27c-.18,1.08-.38,2.15-.6,3.22s1.28,1.36,1.47.4a103.45,103.45,0,0,0,1.74-24.9c-.18-4.13-.51-8.24-.86-12.36-.32-3.84-.51-7.72-1-11.55a77.65,77.65,0,0,0-4.79-17.76A97.83,97.83,0,0,0,104.8,13c-2.78-4.36-6-8.8-10.32-11.78-.41-.28-.82-.55-1.25-.79a.78.78,0,0,0-1.12.46A81.77,81.77,0,0,0,86.52,22.4a78.94,78.94,0,0,0,.65,21.49,88.87,88.87,0,0,0,15,37.08,89.31,89.31,0,0,0,15,16.38C117.89,98,119,96.91,118.23,96.27Z" transform="translate(0 -0.33)"/><path class="cls-1" d="M117.23,97a308,308,0,0,1-12.15-30.9A121.31,121.31,0,0,1,99,33.57,120.7,120.7,0,0,0,105.56,66,306.75,306.75,0,0,0,118.15,96.6Z" transform="translate(0 -0.33)"/><path class="cls-1" d="M117.19,96.84A134.25,134.25,0,0,0,112.55,69a134.67,134.67,0,0,1,5.64,27.81Z" transform="translate(0 -0.33)"/><path class="cls-1" d="M63.85,84.8A86.12,86.12,0,0,1,76.73,98.9,108.14,108.14,0,0,1,87,116.11a114.72,114.72,0,0,1,7.1,19.07,105.73,105.73,0,0,1,3.5,19.72A84.12,84.12,0,0,1,97,174.06c-.11.77-.24,1.53-.38,2.29l1.12-.46c-10.46-6.77-18.63-16.6-24.3-27.62a95.08,95.08,0,0,1-10.07-39.44,105.84,105.84,0,0,1,1.78-24.36c.19-1-1.28-1.37-1.47-.41a106.1,106.1,0,0,0,.82,44.14,86.51,86.51,0,0,0,16.79,34.87,68.34,68.34,0,0,0,15.68,14.14.77.77,0,0,0,1.12-.46,83.86,83.86,0,0,0,1.19-19.31,105.94,105.94,0,0,0-3-20,117.86,117.86,0,0,0-6.76-19.51,110.27,110.27,0,0,0-10-17.76A90.29,90.29,0,0,0,66.66,85.27c-.57-.52-1.15-1-1.73-1.54C64.19,83.09,63.11,84.16,63.85,84.8Z" transform="translate(0 -0.33)"/><path class="cls-1" d="M96.9,176.83a40.71,40.71,0,0,1-2.22-4.43c-.66-1.49-1.29-3-1.88-4.51q-1.8-4.56-3.25-9.23a87.63,87.63,0,0,1-2.43-9.47,29.92,29.92,0,0,1-.52-9.71,29.92,29.92,0,0,0,.76,9.66A89.3,89.3,0,0,0,90,158.51c1,3.07,2.2,6.11,3.47,9.09q.95,2.24,2,4.44a38.7,38.7,0,0,0,2.26,4.23Z" transform="translate(0 -0.33)"/><path class="cls-1" d="M96.94,176.88a109.45,109.45,0,0,1-18.88-32.57,105.68,105.68,0,0,1-6.57-37,105.34,105.34,0,0,0,7,36.79,108.55,108.55,0,0,0,19.17,32.1Z" transform="translate(0 -0.33)"/><path class="cls-1" d="M179.46,301.25a54.49,54.49,0,0,1,7.76-28.11,64.28,64.28,0,0,1,4.91-7.12c.4-.5-.31-1.21-.71-.71a55.56,55.56,0,0,0-13,35.94.5.5,0,0,0,1,0Z" transform="translate(0 -0.33)"/><path class="cls-1" d="M224.37,238.32a31.73,31.73,0,0,1,13.1-7.94,43,43,0,0,1,14.42-1.84,30.91,30.91,0,0,1,7.7,1.26c.94.29,1.34-1.18.4-1.47a36.83,36.83,0,0,0-14.74-1.08,38.49,38.49,0,0,0-14.18,4.15,33.82,33.82,0,0,0-7.77,5.84.76.76,0,0,0,1.07,1.08Z" transform="translate(0 -0.33)"/><path class="cls-1" d="M179.17,302c10.53-4.23,22.3-8.49,29-18.24a30.33,30.33,0,0,0,4.4-10.15.76.76,0,0,0-1.47-.4,29.43,29.43,0,0,1-3.7,9,28.64,28.64,0,0,1-5.36,6.16c-4.18,3.66-9.2,6.24-14.25,8.47-3,1.32-6,2.51-9.05,3.73-.9.36-.5,1.83.41,1.47Z" transform="translate(0 -0.33)"/><path class="cls-1" d="M231.29,246.12a60,60,0,0,1,21.39-14.06A62.37,62.37,0,0,1,260,229.8c.95-.23.55-1.7-.4-1.47A61.26,61.26,0,0,0,235.78,240a64.66,64.66,0,0,0-5.57,5,.76.76,0,0,0,1.08,1.08Z" transform="translate(0 -0.33)"/><path class="cls-1" d="M178.52,301a54.2,54.2,0,0,1,6.49-9.68,57.39,57.39,0,0,1,8.3-8.12,56.36,56.36,0,0,0-13.9,18.24Z" transform="translate(0 -0.33)"/><path class="cls-1" d="M178.47,301.24c0-.16,0-.34,0-.43s0,0,0,0a.28.28,0,0,0,0,.07l0,.05a.5.5,0,0,0,.21.15.45.45,0,0,0,.44-.09l.07-.07s0,0,0,0l-.06.17a3.48,3.48,0,0,0-.1.44c0,.06,0,.15,0,.16s0,0,0-.07a.45.45,0,0,0-.18-.22.6.6,0,0,0-.27-.06.4.4,0,0,0-.13,0l0,0a.26.26,0,0,0-.1.07h0s0,0,0,0c.11-.2.25-.56.39-.87l.41-.94c.56-1.26,1.13-2.51,1.72-3.75q1.77-3.72,3.74-7.34a137.16,137.16,0,0,1,8.66-14,137.41,137.41,0,0,0-8.22,14.2q-1.84,3.68-3.5,7.42-.83,1.88-1.59,3.78l-.38.95c-.14.32-.22.61-.43,1l-.07.1,0,0a.55.55,0,0,1-.14.12l-.06,0a.33.33,0,0,1-.15,0,.48.48,0,0,1-.29-.07.52.52,0,0,1-.22-.27.47.47,0,0,1,0-.19,1.73,1.73,0,0,1,0-.35,3.59,3.59,0,0,1,.11-.57,1.89,1.89,0,0,1,.1-.32.51.51,0,0,1,.08-.13l.1-.12a.51.51,0,0,1,.51-.09.52.52,0,0,1,.23.16.35.35,0,0,1,0,.08.53.53,0,0,1,.06.13c0,.05,0,.11,0,.13a4.32,4.32,0,0,1,0,.6Z" transform="translate(0 -0.33)"/><path class="cls-1" d="M112.16,349.48a144.68,144.68,0,0,1,3.48-24.94,153,153,0,0,1,7.76-24c1.77-4.29,3.68-8.52,5.65-12.72a1.55,1.55,0,0,0-.54-2.05,1.51,1.51,0,0,0-2,.54,226.67,226.67,0,0,0-9.77,23.52,145.53,145.53,0,0,0-6,25c-.73,4.86-1.24,9.76-1.49,14.67a1.5,1.5,0,0,0,3,0Z" transform="translate(0 -0.33)"/><path class="cls-1" d="M339.06,213.17c4.41-8.91,14.66-16.72,12.06-27.78a30.19,30.19,0,0,0-3-7.22c-1.37-2.55-2.78-5.08-4.17-7.63s-2.76-5.12-4.19-7.65a24.51,24.51,0,0,0-4.43-6,18.48,18.48,0,0,0-14.1-4.83c-.4,0-.66.62-.23.83a40,40,0,0,1,7,4.09,14.18,14.18,0,0,1,4.85,6.78,50.94,50.94,0,0,1,1.8,7.82,27.38,27.38,0,0,1,.37,7.45,10.4,10.4,0,0,1-3.4,6.92c-.44.38.19,1,.63.63,4-3.42,4.12-9,3.47-13.78a56.59,56.59,0,0,0-1.71-8.34,15.37,15.37,0,0,0-4.49-7.37,35.34,35.34,0,0,0-8.09-5l-.22.83a17.63,17.63,0,0,1,12.59,3.81,20.63,20.63,0,0,1,4.56,5.5c1.38,2.31,2.62,4.7,3.91,7.06l4.12,7.55a45.2,45.2,0,0,1,3.36,7,15,15,0,0,1,.63,7.54,22.24,22.24,0,0,1-2.71,7c-2.83,5-6.86,9.13-9.4,14.27-.25.51.52,1,.77.45Z" transform="translate(0 -0.33)"/><path class="cls-1" d="M342.55,168a41.31,41.31,0,0,1,.14,12.21,37.68,37.68,0,0,1-1.3,6,12.55,12.55,0,0,1-3,5.24,12.43,12.43,0,0,0,2.78-5.3,37.71,37.71,0,0,0,1.08-5.95,40.57,40.57,0,0,0-.58-12Z" transform="translate(0 -0.33)"/><path class="cls-1" d="M338.68,213.39a78.23,78.23,0,0,0,16.31-2.6q2-.54,3.93-1.2a13,13,0,0,1,3.19-.81,2.43,2.43,0,0,1,2.56,1.07,9.77,9.77,0,0,1,.59,3.49c.38,4.36.18,9.25,3.13,12.82,1.51,1.84,3.75,3,5.11,5a9.18,9.18,0,0,1,1.29,6.61c-.88,5.66-5.57,9.49-9.76,12.89-.45.36.19,1,.63.63,3.9-3.15,8.12-6.62,9.61-11.61a11.57,11.57,0,0,0,.08-6.72c-.76-2.4-2.51-3.93-4.37-5.5a12.29,12.29,0,0,1-2.56-2.73,10.88,10.88,0,0,1-1.37-3.3,41.13,41.13,0,0,1-.82-7.18,33.61,33.61,0,0,0-.41-3.6,3.09,3.09,0,0,0-1.57-2.39c-2-1-4.36.11-6.24.73a76.63,76.63,0,0,1-19.33,3.54c-.57,0-.58.92,0,.89Z" transform="translate(0 -0.33)"/><path class="cls-1" d="M368,224.4a68.3,68.3,0,0,1-20.4,8.62,67.79,67.79,0,0,0,19.91-9.37Z" transform="translate(0 -0.33)"/><path class="cls-1" d="M373.28,229.94a31.52,31.52,0,0,0-12.73,3.41,31.8,31.8,0,0,1,12.65-4.29Z" transform="translate(0 -0.33)"/><path class="cls-1" d="M271.21,266.81a158,158,0,0,1,26.86-17.44c9.15-4.55,19-7.89,29.26-8.69,9.56-.75,19.43.57,28.14,4.72a35.19,35.19,0,0,1,11.69,8.34,14.13,14.13,0,0,1,3.31,6.81,22.37,22.37,0,0,1-.17,7.74,29.78,29.78,0,0,1-17.76,22.07c-.53.23-.08,1,.45.77a30.89,30.89,0,0,0,17.36-19.24c1.43-4.7,2-10.26,0-14.85s-6.24-7.72-10.32-10.21c-8.42-5.13-18.37-7.32-28.16-7.24a75.63,75.63,0,0,0-29.92,7,143.7,143.7,0,0,0-28.23,17.2c-1.05.8-2.09,1.6-3.12,2.41-.45.36.18,1,.63.63Z" transform="translate(0 -0.33)"/><path class="cls-1" d="M270.67,266.88A50.28,50.28,0,0,0,290,273a45.34,45.34,0,0,0,10.15-.17,64,64,0,0,0,10.22-2.3c6.72-2,13.31-4.41,20.33-5.21a55.58,55.58,0,0,1,18.68,1,48.36,48.36,0,0,1,19.06,9c.44.35,1.08-.27.63-.63-9.91-7.79-22.59-11.24-35.1-10.53a57.74,57.74,0,0,0-9.36,1.28c-3.56.78-7,1.89-10.49,3a105,105,0,0,1-10.27,2.88,46.31,46.31,0,0,1-10.57,1,48.51,48.51,0,0,1-22.14-6.15c-.51-.27-1,.5-.45.77Z" transform="translate(0 -0.33)"/><path class="cls-1" d="M368.53,255a39.7,39.7,0,0,0,4.19,6.23,27.07,27.07,0,0,0,5.84,4.71,21.57,21.57,0,0,1,5.34,4.45,14.85,14.85,0,0,1,2.69,5.46,11.5,11.5,0,0,1-2.86,11.4,17.51,17.51,0,0,1-6.28,3.6,35.37,35.37,0,0,1-7.52,1.8A31.89,31.89,0,0,1,353,290.36c-.52-.23-1,.54-.45.77a32.53,32.53,0,0,0,15.56,2.58,37.12,37.12,0,0,0,7.75-1.42,23.56,23.56,0,0,0,6.86-3.08,12,12,0,0,0,4.28-5.12,12.57,12.57,0,0,0,.88-6,15.66,15.66,0,0,0-5.93-10.86c-2.38-1.86-5.14-3.21-7.34-5.3a31.4,31.4,0,0,1-5.3-7.36.45.45,0,0,0-.77.45Z" transform="translate(0 -0.33)"/><path class="cls-1" d="M375.67,262.76a24.24,24.24,0,0,1,2.18,6.95,17,17,0,0,1-.43,7.23,16.19,16.19,0,0,1-3.57,6.25,22.8,22.8,0,0,1-5.62,4.45,23.17,23.17,0,0,0,5.46-4.59,15.86,15.86,0,0,0,3.31-6.23,16.25,16.25,0,0,0,.19-7,23,23,0,0,0-2.32-6.64Z" transform="translate(0 -0.33)"/><path class="cls-1" d="M370.75,263.56a13.52,13.52,0,0,0-4.4-3.56,28,28,0,0,0-5.39-2.12,64.73,64.73,0,0,0-11.46-2.26,108.73,108.73,0,0,0-23.44.35,108.45,108.45,0,0,1,23.48-.79,64.81,64.81,0,0,1,11.61,2.06,29.22,29.22,0,0,1,5.57,2.07,14.25,14.25,0,0,1,4.73,3.7Z" transform="translate(0 -0.33)"/><path class="cls-1" d="M370.45,268.39a.3.3,0,0,0-.16.14.16.16,0,0,0,0,.11l0-.07,0-.05-.08-.1-.17-.2c-.23-.27-.45-.54-.7-.79a17.6,17.6,0,0,0-1.54-1.45,26.13,26.13,0,0,0-3.49-2.47,65.2,65.2,0,0,0-7.76-3.74,63.91,63.91,0,0,1,8,3.36,26.25,26.25,0,0,1,3.69,2.32,16.34,16.34,0,0,1,1.67,1.43c.28.25.53.52.78.79l.19.2.09.11.13.18a1,1,0,0,1,.13.44.63.63,0,0,1-.08.37.58.58,0,0,1-.37.29Z" transform="translate(0 -0.33)"/><path class="cls-1" d="M336.07,240.44c2.61-2.6,5.22-5.28,6.55-8.81A11.15,11.15,0,0,0,341.4,221c-2-2.62-5.1-4-8.15-5-3.35-1.09-6.8-1.78-10.12-3a31.75,31.75,0,0,1-9.38-5,18.79,18.79,0,0,1-6.07-8.89c-1.24-3.75-1.84-7.76-3.89-11.2a18.66,18.66,0,0,0-23.67-7.19,15.91,15.91,0,0,0-1.95,1.16c-.47.32,0,1.1.45.77a16.94,16.94,0,0,1,16.82-1.05,17.6,17.6,0,0,1,6.78,5.55c2.22,3.07,3,6.76,4,10.34a21.71,21.71,0,0,0,4.91,9.34,26.27,26.27,0,0,0,8.18,5.59,56.62,56.62,0,0,0,9.58,3.26c3.19.82,6.51,1.68,9.27,3.54a9.68,9.68,0,0,1,4.32,9c-.32,3.75-2.56,7-5.1,9.63-.64.67-1.31,1.33-2,2a.45.45,0,0,0,.64.63Z" transform="translate(0 -0.33)"/><path class="cls-1" d="M342.53,223a22,22,0,0,0-3-9.31c-1.77-3.18-3.86-6.17-5.21-9.56A32.94,32.94,0,0,1,332,193.2a37.77,37.77,0,0,1,.25-5.72,21.28,21.28,0,0,0,.12-5.91c-.58-3.41-2.93-6.16-5.34-8.48a36.55,36.55,0,0,0-8.47-6.32,21.51,21.51,0,0,0-10-2.47,27.29,27.29,0,0,0-10.45,2.3c-6.91,2.94-12.76,8.17-18.07,13.37l-1.95,1.95c-.4.41.23,1,.63.63,5.13-5.19,10.63-10.4,17.11-13.87,6.25-3.35,13.7-4.74,20.44-2a30.6,30.6,0,0,1,8.7,5.7c2.48,2.21,5.14,4.75,6.21,8,1.19,3.63-.05,7.59-.07,11.3a33.73,33.73,0,0,0,1.62,10.51,51.74,51.74,0,0,0,5.24,10.5A23.17,23.17,0,0,1,341.64,223c0,.56.93.57.89,0Z" transform="translate(0 -0.33)"/><path class="cls-1" d="M270.83,266.47a98.38,98.38,0,0,1,14.05-25.62c5.94-7.79,13.53-14.32,18.51-22.84a51,51,0,0,0,5.83-15.29c.12-.56-.74-.79-.86-.23a50.38,50.38,0,0,1-5,13.82,66,66,0,0,1-8.82,12c-3.25,3.68-6.62,7.25-9.65,11.12A99,99,0,0,0,270,266.24c-.2.53.66.77.86.23Z" transform="translate(0 -0.33)"/><path class="cls-1" d="M331.81,197.15a29.12,29.12,0,0,0-33.06-22.69A29.57,29.57,0,0,1,332.68,197Z" transform="translate(0 -0.33)"/><path class="cls-1" d="M321.42,212.75a46.85,46.85,0,0,1-21.19,29.73,46.38,46.38,0,0,0,20.32-29.91Z" transform="translate(0 -0.33)"/><path class="cls-1" d="M316.13,210a16.06,16.06,0,0,1-4.54,11.49,15.6,15.6,0,0,0,3.65-11.44Z" transform="translate(0 -0.33)"/><path class="cls-1" d="M345.23,241.86c10.33-1.73,21-3,31.47-1.43a49.47,49.47,0,0,1,8.47,2c1.1.36,1.56-1.36.48-1.72-10.23-3.43-21.33-3.18-31.91-1.9-3,.36-6,.81-9,1.31-1.13.19-.65,1.91.47,1.72Z" transform="translate(0 -0.33)"/><path class="cls-1" d="M343.78,230.37c.78-.66,1.47-1.41,2.18-2.14a35.17,35.17,0,0,1,2.67-2.36,61.7,61.7,0,0,1,6.06-4.62,43.7,43.7,0,0,1,20.44-7c1.14-.08,1.15-1.87,0-1.78A45.35,45.35,0,0,0,361,215.9a50.44,50.44,0,0,0-12.54,7.8c-1.13.93-2.3,1.85-3.36,2.87-.87.84-1.66,1.75-2.58,2.54s.4,2,1.26,1.26Z" transform="translate(0 -0.33)"/><path class="cls-1" d="M342,218.7a89.25,89.25,0,0,0,19.68-22.95,84.74,84.74,0,0,0,4-7.53c.49-1-1.05-1.94-1.54-.9A87.58,87.58,0,0,1,347,211.77q-3,3-6.23,5.67c-.89.73.38,2,1.26,1.26Z" transform="translate(0 -0.33)"/><path class="cls-1" d="M368.76,217.9c-1.16-1.63.76-5,4.28-7.47s7.3-3.21,8.46-1.59-.77,5-4.29,7.47S369.91,219.52,368.76,217.9Z" transform="translate(0 -0.33)"/><path class="cls-1" d="M371.38,183.9c1.15,1.63-.77,5-4.28,7.47s-7.31,3.21-8.46,1.59.76-5,4.28-7.47S370.22,182.28,371.38,183.9Z" transform="translate(0 -0.33)"/><path class="cls-1" d="M378.16,244.5c-.74-1.84,1.9-4.65,5.91-6.26s7.85-1.42,8.59.43-1.9,4.65-5.9,6.26S378.9,246.35,378.16,244.5Z" transform="translate(0 -0.33)"/><path class="cls-1" d="M250,279.27c4.41-3.39,17.22-7,22.72-6.21a204.41,204.41,0,0,0,34.67,1.73s-17.33-1.25-24.84-8.09A53.87,53.87,0,0,0,309.84,253c-4.14,3-9,4.67-13.91,6.23-5.28,1.69-10.95,3.3-16.28,1.76a.67.67,0,0,1-.41-.24.71.71,0,0,1,.09-.71c4-7.6,19.72-18.22,19.2-26.81-3.65,9.92-17.11,11-22.86,19.91a67.06,67.06,0,0,1-25.9,23.72" transform="translate(0 -0.33)"/><path class="cls-1" d="M229.39,285.11q-7.23,2.76-14.62,5.11-8.75,2.77-17.66,5c-7,1.76-14,3.28-21,4.61q-12.21,2.29-24.55,3.83c-9.57,1.21-19.17,2.11-28.79,2.77l-3.9.26a1.5,1.5,0,1,0,0,3q14.74-.91,29.43-2.63c8.54-1,17.07-2.25,25.54-3.77q10.81-1.95,21.51-4.53c6.12-1.5,12.2-3.16,18.22-5q7.56-2.36,15-5.12l1.67-.63a1.55,1.55,0,0,0,1-1.85,1.5,1.5,0,0,0-1.84-1Z" transform="translate(0 -0.33)"/><path class="cls-1" d="M260.92,271.36c-2.5,1-4.93,2.17-7.36,3.33-3.43,1.63-6.86,3.25-10.32,4.79a1.5,1.5,0,1,0,1.51,2.59c3.41-1.52,6.79-3.11,10.16-4.72,1.26-.6,2.53-1.2,3.8-1.78l1.65-.75.47-.2c.07,0,.42-.18.11-.05l.78-.32a1.55,1.55,0,0,0,1-1.84,1.51,1.51,0,0,0-1.85-1.05Z" transform="translate(0 -0.33)"/><path class="cls-2" d="M209.53,228.12a65.43,65.43,0,0,1,25.17,25,63.63,63.63,0,0,1,7.94,31.7A56.89,56.89,0,0,1,240,301.09l-.3.91-.06.18c-.08.2-.09.24,0,.11,0,.07-.13.09,0,0s.13-.13.24-.16.33-.07.21,0c.1-.05.06.12.05,0l-.09-.06c.07.06.08.06,0,0a5.87,5.87,0,0,1-1.12-1.52,36,36,0,0,1-2.27-4.57c-.35-.83-.61-1.69-1-2.53a35,35,0,0,0-1.83-3.87,34.21,34.21,0,0,0-5.13-6.95,40.44,40.44,0,0,0-14.5-9.21c-5.47-2.19-11.18-3.72-16.64-5.94a46.52,46.52,0,0,1-7.71-3.91,38.17,38.17,0,0,1-7.16-6.08c-1-1.1-2-2.26-2.93-3.46a.79.79,0,0,0-1-.27.76.76,0,0,0-.27,1A42.06,42.06,0,0,0,192.72,267c5.38,2.72,11.2,4.39,16.86,6.37s11.35,4.37,15.92,8.37a32.14,32.14,0,0,1,5.8,6.68,37,37,0,0,1,3.59,7.44,35.77,35.77,0,0,0,2.1,4.53,16.35,16.35,0,0,0,1.31,2.1c.38.5.88,1.14,1.58,1.16.93,0,1.15-.94,1.38-1.64.44-1.33.83-2.67,1.17-4a57.4,57.4,0,0,0,1.45-8.45A64.33,64.33,0,0,0,238,256.27a65.76,65.76,0,0,0-23.59-26.95q-2-1.32-4.12-2.51a.76.76,0,0,0-.77,1.31Z" transform="translate(0 -0.33)"/><path class="cls-2" d="M185.39,232c10.38,4.2,20.41,9.55,29,16.76A73.11,73.11,0,0,1,226,260.89a59.6,59.6,0,0,1,8.14,14.6,59.61,59.61,0,0,0-8.44-14.37,73.2,73.2,0,0,0-11.77-11.77c-8.7-6.94-18.73-12-29.11-15.93Z" transform="translate(0 -0.33)"/><path class="cls-2" d="M185.61,239.65a82.07,82.07,0,0,1,7.94,3.62,43.66,43.66,0,0,1,7.17,5,44.46,44.46,0,0,1,6.06,6.21,46,46,0,0,1,4.75,7.23,45.22,45.22,0,0,0-5-7,43.91,43.91,0,0,0-6.25-5.87,42.22,42.22,0,0,0-7.23-4.55,78.17,78.17,0,0,0-7.93-3.2Z" transform="translate(0 -0.33)"/><path class="cls-2" d="M184.48,245.53c3.88,3.21,8.05,6.11,12.21,9-4.43-2.47-8.87-4.94-13.12-7.79Z" transform="translate(0 -0.33)"/><path class="cls-2" d="M182.6,225.58c3.31,1,6.67,1.83,10,2.77a72,72,0,0,1,9.91,3.4,43.74,43.74,0,0,1,8.84,5.6c2.65,2.2,5.26,4.71,6.63,7.94-1.49-3.17-4.16-5.55-6.87-7.64a43,43,0,0,0-8.91-5.2,69.14,69.14,0,0,0-9.88-3c-3.37-.81-6.76-1.53-10.15-2.41Z" transform="translate(0 -0.33)"/><path class="cls-2" d="M170.48,160.83a75.32,75.32,0,0,1,11.32-19.12A66.37,66.37,0,0,1,198.6,127,94.53,94.53,0,0,1,210.31,121c3.4-1.47,7.78-3.35,11.19-.89a5.09,5.09,0,0,1,1.86,4.79,50.77,50.77,0,0,1-1.21,6.56l-2.8,13.71c-1.87,9.12-3.68,18.25-5.6,27.35-.23,1.09-.47,2.18-.75,3.26a.76.76,0,0,0,1.47.41c1.18-4.65,2-9.39,3-14.08s1.95-9.55,2.92-14.33l2.93-14.32c.47-2.29,1-4.57,1.39-6.87.33-2,.44-4.14-.64-5.93C222,117.22,217.43,117,214,118a50.31,50.31,0,0,0-6.34,2.56c-2.1,1-4.18,2-6.22,3a67.92,67.92,0,0,0-18.67,14.7,76.14,76.14,0,0,0-12.58,19.47c-.39.88-.77,1.76-1.13,2.65s1.1,1.3,1.47.41Z" transform="translate(0 -0.33)"/><path class="cls-2" d="M206.05,144.64A135.63,135.63,0,0,1,201.19,159a133.17,133.17,0,0,1-6.46,13.74,138.78,138.78,0,0,1-8,12.94c-2.88,4.17-5.94,8.2-8.85,12.31l-1.24-.9c3-4.06,6.19-8,9.16-12.08a133.75,133.75,0,0,0,8.24-12.65,130.11,130.11,0,0,0,6.78-13.51A134.26,134.26,0,0,0,206.05,144.64Z" transform="translate(0 -0.33)"/><path class="cls-2" d="M179.19,164.29a33.33,33.33,0,0,1,.14,9.36,54.68,54.68,0,0,1-2,9.22l-1.44-.49a53.72,53.72,0,0,0,2.68-8.85A32.89,32.89,0,0,0,179.19,164.29Z" transform="translate(0 -0.33)"/><path class="cls-2" d="M122.67,178a79.38,79.38,0,0,0-13.4,1.36,130.39,130.39,0,0,0-12.8,2.81q-6.39,1.73-12.59,4.08c-3.53,1.34-7.13,2.83-9.95,5.42a11.84,11.84,0,0,0-4.05,9.37c.28,3.6,2.77,6.2,5.94,7.66a33.72,33.72,0,0,0,5.11,1.72q3,.83,6,1.75a67,67,0,0,1,11.87,4.87c7.42,4.07,13.34,10.48,21.07,14.05,1,.43,1.91.83,2.89,1.18s1.33-1.14.41-1.47a45.18,45.18,0,0,1-10.83-6.11c-3.28-2.34-6.35-5-9.73-7.15-6.85-4.43-14.66-6.74-22.44-8.9-3.07-.85-6.53-2.13-8.09-5.13s-.49-6.68,1.44-9.19c2.21-2.88,5.67-4.58,9-5.9a124,124,0,0,1,11.87-4.08c4-1.18,8.15-2.17,12.29-3a100.62,100.62,0,0,1,12.71-1.75c1.1-.07,2.2-.1,3.3-.1a.76.76,0,0,0,0-1.52Z" transform="translate(0 -0.33)"/><path class="cls-2" d="M142.82,207.35c-9.14-3.21-18.7-5.2-28.24-7.1-4.77-.94-9.56-1.82-14.4-2.28a61.14,61.14,0,0,0-14.56.18,61.4,61.4,0,0,1,14.59-.56,144.72,144.72,0,0,1,14.51,1.91c9.6,1.65,19.23,3.39,28.58,6.4Z" transform="translate(0 -0.33)"/><path class="cls-2" d="M131,215.82c-4.71-1.67-9.35-3.48-14.09-5a65.85,65.85,0,0,0-14.55-3.16,66.82,66.82,0,0,1,14.77,2.43c4.83,1.28,9.58,2.86,14.34,4.27Z" transform="translate(0 -0.33)"/><path class="cls-2" d="M131.34,195.47a98.41,98.41,0,0,0-19.17-4.9A99.41,99.41,0,0,1,131.83,194Z" transform="translate(0 -0.33)"/><path class="cls-2" d="M177.92,197.66a58.51,58.51,0,0,1,35.53-20.55,59,59,0,0,1,20.58,0,79.86,79.86,0,0,1,20.16,6.79,204,204,0,0,1,18.87,10.58c1.42.88,2.91,1.71,4.26,2.69,1.09.79,2.28,1.9,2.26,3.35a3.74,3.74,0,0,1-2.06,2.9,26.05,26.05,0,0,1-4.55,2l-22.36,8.69c-7.46,2.9-14.89,5.87-22.39,8.69a68.81,68.81,0,0,1-10.79,3.27,45.09,45.09,0,0,1-11.83.58,87.64,87.64,0,0,1-11.54-1.42,108.39,108.39,0,0,1-11.15-3.1c-1.86-.6-3.72-1.2-5.58-1.77a.76.76,0,0,0-.41,1.47c3.88,1.19,7.72,2.52,11.63,3.62a74.93,74.93,0,0,0,11.68,2.21,69.18,69.18,0,0,0,12.2.58A46.76,46.76,0,0,0,224,226c3.8-1.22,7.5-2.73,11.22-4.17l11.64-4.53,23.29-9.05c1.89-.74,3.79-1.45,5.67-2.21a12.15,12.15,0,0,0,3.74-2.16,4.53,4.53,0,0,0,1.58-3.64,5.62,5.62,0,0,0-2.26-3.74,36.51,36.51,0,0,0-4.06-2.68c-1.59-1-3.17-2-4.76-2.91-3.19-1.92-6.42-3.79-9.7-5.54a97.27,97.27,0,0,0-20.39-8.42,61.74,61.74,0,0,0-21.39-2,61,61,0,0,0-38.15,17.75c-1.23,1.25-2.42,2.56-3.55,3.91-.62.75.45,1.83,1.08,1.08Z" transform="translate(0 -0.33)"/><path class="cls-2" d="M165.13,218a26.55,26.55,0,0,1,7-5,49.1,49.1,0,0,1,7.94-3.06,72.26,72.26,0,0,1,16.61-3.05A62.86,62.86,0,0,1,213.51,208a52.68,52.68,0,0,1,15.67,6,52.78,52.78,0,0,0-15.75-5.62,62.6,62.6,0,0,0-16.68-.75A71.11,71.11,0,0,0,180.42,211c-5.27,1.7-10.46,4-14.19,8Z" transform="translate(0 -0.33)"/><path class="cls-2" d="M208.68,215.21c-3.41,1.44-7.23,1.48-10.87,1.08s-7.26-1.13-10.9-1.44a36.25,36.25,0,0,0-10.81.5A38.16,38.16,0,0,0,166,219.16l-.72-1.34a39.29,39.29,0,0,1,10.57-3.59,37.23,37.23,0,0,1,11.1-.14c3.67.44,7.25,1.3,10.87,1.82A21.59,21.59,0,0,0,208.68,215.21Z" transform="translate(0 -0.33)"/><path class="cls-2" d="M259.17,198.77c-7.69-3.49-16.17-4.55-24.5-5.06s-16.82-.42-25,1.47a82.4,82.4,0,0,0-23.09,9.43,161.05,161.05,0,0,0-20.45,14.47l-1-1.19A164.1,164.1,0,0,1,186,203.61a83.63,83.63,0,0,1,23.5-9.18c8.28-1.79,16.79-1.73,25.15-1.1S251.53,195.16,259.17,198.77Z" transform="translate(0 -0.33)"/><path class="cls-2" d="M143.7,206a73.9,73.9,0,0,1-16.6-19.12c-4-6.77-6.93-14.15-9.85-21.44s-5.86-14.69-9.93-21.45c-2.1-3.49-4.78-6.7-6.29-10.51-1.3-3.28-1.58-7.11.41-10.2a6.61,6.61,0,0,1,4.18-2.9,17.57,17.57,0,0,1,6.26.12c3.92.54,7.83,1.22,11.69,2.1a74.71,74.71,0,0,1,22.11,8.48,51.34,51.34,0,0,1,16.77,16.69,98.16,98.16,0,0,1,9.81,22c2.82,8.61,5.47,17.68,4.54,26.84a37.72,37.72,0,0,1-2.42,9.87,24.88,24.88,0,0,1-5.36,8.56,15,15,0,0,1-3.73,2.76c-.87.46-.1,1.77.77,1.32,6.26-3.28,9.68-10.43,11.3-17a39.27,39.27,0,0,0,1.07-11.93,67.5,67.5,0,0,0-2.65-14.16,127,127,0,0,0-9.06-23.88,56.83,56.83,0,0,0-15.3-19,64.91,64.91,0,0,0-21.88-10.61,112.48,112.48,0,0,0-12-2.72c-2.06-.36-4.11-.67-6.18-.95A17.16,17.16,0,0,0,105,119c-3.62.91-5.87,4.13-6.41,7.71-.61,4.07,1,7.94,3.06,11.37,1.09,1.81,2.34,3.53,3.47,5.31s2,3.36,2.94,5.09c1.91,3.6,3.57,7.34,5.14,11.1,3.17,7.61,6,15.38,9.67,22.76a75.85,75.85,0,0,0,14.84,20.39c1.57,1.53,3.21,3,4.9,4.39.76.62,1.84-.45,1.08-1.08Z" transform="translate(0 -0.33)"/><path class="cls-2" d="M164.93,218.37A44,44,0,0,0,163.18,197,37.35,37.35,0,0,0,151,179.28a37.81,37.81,0,0,1,13,17.46,45.17,45.17,0,0,1,2.53,21.87Z" transform="translate(0 -0.33)"/><path class="cls-2" d="M165.11,218a25.41,25.41,0,0,0,5.52-11,39.2,39.2,0,0,0,1-12.55c-.09-1.06-.22-2.1-.4-3.15s-.47-2-.75-3.07q-.9-3.06-1.94-6.08t-2.2-6a42.27,42.27,0,0,0-2.67-5.8,41.88,41.88,0,0,1,2.85,5.73c.84,2,1.63,3.95,2.38,5.95s1.47,4,2.13,6.05a31.65,31.65,0,0,1,.86,3.11c.21,1.06.38,2.12.5,3.19a40.18,40.18,0,0,1-.6,12.89,26.77,26.77,0,0,1-5.5,11.78Z" transform="translate(0 -0.33)"/><path class="cls-2" d="M166.41,218.26a17,17,0,0,1,.78,3.87c.06,1.33.08,2.53.09,3.84a34.09,34.09,0,0,1-.87,7.66A42,42,0,0,1,160,247.47a62,62,0,0,1-4.67,6c-1.68,1.91-3.46,3.71-5.17,5.56a65.32,65.32,0,0,0-9.06,12.1,65.15,65.15,0,0,1,8.78-12.35c1.67-1.9,3.4-3.75,5-5.68a60.39,60.39,0,0,0,4.47-6.07,41,41,0,0,0,5.93-13.67,31.67,31.67,0,0,0,.65-7.39c0-1.23-.09-2.55-.18-3.75a15.32,15.32,0,0,0-.81-3.52Z" transform="translate(0 -0.33)"/><path class="cls-2" d="M165.88,219.22c6.76-1,13.27,3,16.69,8.68a18.29,18.29,0,0,1,2.67,10,24.59,24.59,0,0,1-3.54,11.28,58,58,0,0,1-7.51,9.93c-2.95,3.27-6.06,6.38-9.29,9.37a250.46,250.46,0,0,1-20.31,16.61q-2.68,2-5.38,4L136.56,291a11.08,11.08,0,0,1-2.62,1.58c-4.22,1.52-5-4.77-5.24-7.48-.4-4.64,0-9.32-.68-13.94s-2.15-8.91-3.3-13.34c-2.21-8.5-3-17.57-1-26.2a36.11,36.11,0,0,1,11.09-19.06,28.35,28.35,0,0,1,9.13-5.45,22.1,22.1,0,0,1,6.16-1.33,10.26,10.26,0,0,1,5,.67,16.58,16.58,0,0,1,5.74,5.43,45.14,45.14,0,0,1,3.6,5.92l.37.76c.07.16.14.42.07.15a.76.76,0,0,0,1.47-.4,6.8,6.8,0,0,0-.61-1.31q-.72-1.41-1.53-2.76a32,32,0,0,0-5.23-6.85A12.41,12.41,0,0,0,155.7,205a12,12,0,0,0-5.57-.78A26.22,26.22,0,0,0,138.58,208,35.39,35.39,0,0,0,124.23,225c-3.47,8.45-3.78,17.92-2.33,26.85.76,4.67,2.18,9.15,3.39,13.72a47.13,47.13,0,0,1,1.39,7.06c.25,2.45.25,4.91.29,7.37a54.32,54.32,0,0,0,.48,7.43,10.66,10.66,0,0,0,1.86,5.08,4.38,4.38,0,0,0,4.75,1.6c2.07-.59,3.85-2.24,5.56-3.48,7.45-5.44,14.83-11,21.81-17,3.47-3,6.84-6.12,10-9.39a94,94,0,0,0,8.81-10.11c4.8-6.56,8.22-14.8,5.48-22.91-2.24-6.62-8-12.3-15.07-13.44a16.92,16.92,0,0,0-5.22,0C164.51,217.9,164.92,219.37,165.88,219.22Z" transform="translate(0 -0.33)"/><path class="cls-2" d="M165.52,219.23a25.52,25.52,0,0,1-5.83-2.51,12.56,12.56,0,0,0-5.61-1.66,14.56,14.56,0,0,0-5.81,1.16,28.81,28.81,0,0,0-5.33,2.92,36,36,0,0,0-14.21,19.49,36.47,36.47,0,0,1,13.77-20.11,29.79,29.79,0,0,1,5.4-3.18,15.76,15.76,0,0,1,6.19-1.43,13.86,13.86,0,0,1,6.19,1.61,24.17,24.17,0,0,0,5.56,2.22Z" transform="translate(0 -0.33)"/><path class="cls-2" d="M166.37,218.16a65.87,65.87,0,0,1,3.76,10,32.2,32.2,0,0,1,1.06,10.65,29.66,29.66,0,0,1-2.6,10.33,23.17,23.17,0,0,1-6.41,8.38,23.13,23.13,0,0,0,6.06-8.54,28.93,28.93,0,0,0,2.19-10.21,31.5,31.5,0,0,0-1.4-10.3,64.71,64.71,0,0,0-4-9.68Z" transform="translate(0 -0.33)"/><path class="cls-2" d="M127.17,273.18a1.06,1.06,0,0,1-.75-.74,1.36,1.36,0,0,1,0-.67,1.88,1.88,0,0,1,.17-.47c.09-.16.16-.25.21-.33l.73-1.05q.75-1,1.53-2c1-1.34,2.14-2.64,3.28-3.89a63.79,63.79,0,0,1,7.42-6.91,62.79,62.79,0,0,0-6.83,7.4c-1,1.32-2,2.67-2.94,4.07-.46.69-.91,1.4-1.34,2.11l-.64,1.07a1.06,1.06,0,0,0-.11.21.65.65,0,0,0,0,.13s0,0,0,0-.2-.32-.32-.33Z" transform="translate(0 -0.33)"/><path class="cls-2" d="M165.17,219a24,24,0,0,0-7.79,3.22,43.75,43.75,0,0,0-6.83,5.26,58.18,58.18,0,0,0-5.87,6.38,50.92,50.92,0,0,0-4.84,7.23,52.6,52.6,0,0,1,4.53-7.46,60.14,60.14,0,0,1,5.65-6.7,44.68,44.68,0,0,1,6.74-5.67,25.29,25.29,0,0,1,8.1-3.75Z" transform="translate(0 -0.33)"/><path class="cls-2" d="M166.63,219a83.13,83.13,0,0,1,53.81-17.37,68,68,0,0,1,15.73,2.52.76.76,0,0,0,.41-1.47,73.75,73.75,0,0,0-29-2.06,86.32,86.32,0,0,0-28.28,8.53,80.34,80.34,0,0,0-13.78,8.77c-.77.6.32,1.68,1.08,1.08Z" transform="translate(0 -0.33)"/><path class="cls-2" d="M166.83,218.66c-.06.16-.1.16,0,0l.15-.23.21-.28,0,0,.17-.21c.59-.72,1.21-1.4,1.85-2.08A75.72,75.72,0,0,1,176,209.6a94.81,94.81,0,0,1,25-14.82,90.18,90.18,0,0,1,20.22-5.48c1-.14.56-1.61-.4-1.47a93.26,93.26,0,0,0-33.62,12.06,89.55,89.55,0,0,0-18.64,14.4c-.78.79-1.54,1.61-2.25,2.47a5.41,5.41,0,0,0-1,1.49c-.33.93,1.14,1.33,1.47.41Z" transform="translate(0 -0.33)"/><path class="cls-2" d="M166.63,219c2.27-2.19,4.32-4.6,6.37-7,3.06-3.56,6-7.19,9-10.85q5-6.18,9.78-12.47c3-3.88,5.9-7.8,8.74-11.78,2.06-2.88,4.11-5.79,5.9-8.85l.46-.8c.47-.86-.85-1.63-1.32-.77a91.19,91.19,0,0,1-5.37,8.26c-2.74,3.9-5.59,7.73-8.47,11.52-3.16,4.17-6.39,8.3-9.65,12.39q-4.48,5.61-9.12,11.1c-2.19,2.58-4.4,5.17-6.79,7.58l-.58.57c-.7.68.37,1.76,1.08,1.08Z" transform="translate(0 -0.33)"/><path class="cls-2" d="M166.48,219.11a15.58,15.58,0,0,0,4.72-5.29c1.26-2.12,2.52-4.26,3.75-6.4a98.12,98.12,0,0,0,6.42-13.55,121.88,121.88,0,0,0,7.21-28.56,94,94,0,0,0,.81-14.32.76.76,0,0,0-1.52,0,105.3,105.3,0,0,1-2.93,26,109.78,109.78,0,0,1-10.23,27.69c-1.3,2.41-2.77,4.71-4.11,7.09s-2.66,4.51-4.89,6c-.82.54-.05,1.86.77,1.31Z" transform="translate(0 -0.33)"/><path class="cls-2" d="M166.75,218.84c3.16-7.41,2.89-15.6,1.05-23.31A81.79,81.79,0,0,0,164,184q-2.28-5.73-5.12-11.21a124.81,124.81,0,0,0-7.06-11.89c-.54-.81-1.86-.05-1.31.77a122.08,122.08,0,0,1,11.34,21.06c3,7.18,5.54,14.76,5.77,22.61a30.15,30.15,0,0,1-2.22,12.7.79.79,0,0,0,.28,1,.75.75,0,0,0,1-.27Z" transform="translate(0 -0.33)"/><path class="cls-2" d="M166.86,218.46a40.1,40.1,0,0,0-5-16.37,19.91,19.91,0,0,0-5.43-6,27.51,27.51,0,0,0-7-3.51,74.81,74.81,0,0,0-8.58-2.29c-1-.21-1.37,1.26-.41,1.47,4.85,1.07,9.85,2.22,14.1,4.89,4.64,2.92,7.31,7.74,9,12.83a42.81,42.81,0,0,1,1.83,9c.11,1,1.63,1,1.53,0Z" transform="translate(0 -0.33)"/><path class="cls-3" d="M235.9,206.49c3.85-.41,6.82-2.09,6.64-3.76s-3.43-2.69-7.28-2.28-6.81,2.09-6.64,3.76S232.06,206.89,235.9,206.49Z" transform="translate(0 -0.33)"/><path class="cls-3" d="M222.62,190.54c3.19-2.18,5-5.07,4.07-6.45s-4.3-.74-7.49,1.43-5,5.07-4.08,6.45S219.42,192.72,222.62,190.54Z" transform="translate(0 -0.33)"/><path class="cls-3" d="M203.49,166.64c-.35,3.85.73,7.09,2.4,7.24s3.3-2.85,3.65-6.7-.73-7.09-2.4-7.24S203.84,162.79,203.49,166.64Z" transform="translate(0 -0.33)"/><path class="cls-3" d="M185.65,150.39c-.76,3.79,0,7.13,1.6,7.46s3.59-2.47,4.36-6.26,0-7.13-1.6-7.46S186.42,146.6,185.65,150.39Z" transform="translate(0 -0.33)"/><path class="cls-3" d="M148.54,162.21c1.24,3.66,3.53,6.2,5.12,5.66s1.87-3.94.64-7.6-3.53-6.2-5.11-5.66S147.31,158.54,148.54,162.21Z" transform="translate(0 -0.33)"/><path class="cls-3" d="M139,192.21c1.91,3.37,4.64,5.42,6.1,4.59s1.09-4.22-.82-7.58-4.64-5.42-6.09-4.59S137.05,188.85,139,192.21Z" transform="translate(0 -0.33)"/><path class="cls-4" d="M176.35,302.52l.42,0a.41.41,0,0,0,.19-.05.34.34,0,0,0,.16-.1.42.42,0,0,0,.11-.16.43.43,0,0,0,0-.19l0-.14a.42.42,0,0,0-.13-.22l-.1-.08a.54.54,0,0,0-.25-.06l-.42,0a.31.31,0,0,0-.19,0,.34.34,0,0,0-.16.1.39.39,0,0,0-.1.16.35.35,0,0,0-.05.2l0,.13a.5.5,0,0,0,.13.22l.1.08a.72.72,0,0,0,.25.07Z" transform="translate(0 -0.33)"/><path class="cls-5" d="M274.46,100.53a66,66,0,0,1-3,26.57,75.9,75.9,0,0,1-12.9,24.58A56.92,56.92,0,0,1,247.94,162l1.12.46a50.39,50.39,0,0,1,1.6-28.05,66.84,66.84,0,0,1,13.79-23.17,73.1,73.1,0,0,1,11.16-10.08c.78-.57,0-1.89-.77-1.31a74.06,74.06,0,0,0-18.77,19.89,61.6,61.6,0,0,0-9.59,26.83,48,48,0,0,0,1.11,16.29.77.77,0,0,0,1.12.46,65,65,0,0,0,17.73-20.83,78.74,78.74,0,0,0,9.15-26.85,61.88,61.88,0,0,0,.4-15.14C275.89,99.57,274.36,99.56,274.46,100.53Z" transform="translate(0 -0.33)"/><path class="cls-5" d="M247.58,162.56a45.53,45.53,0,0,1,2.26-6.49c.86-2.1,1.79-4.16,2.81-6.17A60,60,0,0,1,256,144a20.92,20.92,0,0,1,4.41-5.1,20.62,20.62,0,0,0-4.08,5.3,61.19,61.19,0,0,0-3,6c-.89,2.05-1.7,4.14-2.43,6.25a47.92,47.92,0,0,0-1.83,6.34Z" transform="translate(0 -0.33)"/><path class="cls-5" d="M247.57,162.66a74.93,74.93,0,0,1,20.36-47.12,74.17,74.17,0,0,0-18.84,47.18Z" transform="translate(0 -0.33)"/><path class="cls-5" d="M317.27,288.92a58.79,58.79,0,0,1-22.7,7.22A67.93,67.93,0,0,1,270,294.63a51.06,51.06,0,0,1-12.28-4.81l.14,1.06a44.25,44.25,0,0,1,21.63-8.72A58.92,58.92,0,0,1,304,284.41a65,65,0,0,1,13.23,5.68.68.68,0,0,0,.69-1.17,65.68,65.68,0,0,0-24.72-8.14,53.42,53.42,0,0,0-24.45,2.59,42.58,42.58,0,0,0-11.88,6.55.69.69,0,0,0,.14,1.07,57.78,57.78,0,0,0,23.41,6.73,70,70,0,0,0,25-2.37A55.21,55.21,0,0,0,318,290.09.68.68,0,0,0,317.27,288.92Z" transform="translate(0 -0.33)"/><path class="cls-5" d="M257.22,289.75a41.47,41.47,0,0,1,6.09-.54q3-.1,6,0a54.59,54.59,0,0,1,6,.55,18.46,18.46,0,0,1,5.75,1.71,18.34,18.34,0,0,0-5.79-1.37,54.06,54.06,0,0,0-6-.22c-2,0-4,.14-6,.31a41.46,41.46,0,0,0-5.81.84Z" transform="translate(0 -0.33)"/><path class="cls-5" d="M257.14,289.77a66.69,66.69,0,0,1,45.64-.7,66,66,0,0,0-45.14,2Z" transform="translate(0 -0.33)"/><path class="cls-1" d="M111.72,345.58c.91-11.67-.14-23.49-2-35-.87-5.37-2-10.71-3.31-16a108.27,108.27,0,0,0-3.81-12.32A44.54,44.54,0,0,0,100.7,278,20.28,20.28,0,0,0,98,274.13a33.75,33.75,0,0,0-15.5-10.2c-13.49-4.18-27.61-.36-41.08,1.8a146.47,146.47,0,0,1-18.94,1.59,82.85,82.85,0,0,1-17.8-.93,35.52,35.52,0,0,1-3.66-.9C0,265.2-.37,266.67.57,267c5.4,1.67,11.24,1.93,16.85,2a163.16,163.16,0,0,0,17.69-.82c13.76-1.45,27.5-6.13,41.44-4A33.06,33.06,0,0,1,93.7,272a27.44,27.44,0,0,1,4.87,5.4,24.37,24.37,0,0,1,1.75,3.41,82.85,82.85,0,0,1,3.73,11c1.39,5,2.52,10,3.46,15.12a157.93,157.93,0,0,1,2.92,34.63c-.05,1.36-.12,2.71-.23,4.07-.08,1,1.45,1,1.52,0Z" transform="translate(0 -0.33)"/><path class="cls-1" d="M111.7,345.37a143.56,143.56,0,0,0-12.94-35.7,118.58,118.58,0,0,0-10-15.82,127.53,127.53,0,0,0-13.64-15.19,163.63,163.63,0,0,0-18.2-15.47c-.8-.57-1.56.75-.77,1.32a156.3,156.3,0,0,1,16.16,13.58A135.16,135.16,0,0,1,86.13,293a122.23,122.23,0,0,1,18.06,32.5,153,153,0,0,1,6,20.33c.21,1,1.68.55,1.47-.41Z" transform="translate(0 -0.33)"/><path class="cls-1" d="M99.38,275.88a152.77,152.77,0,0,0-12.7-17.43,64.43,64.43,0,0,0-7.58-7.38,41,41,0,0,0-9.4-6,23.56,23.56,0,0,0-11.63-1.58,69.85,69.85,0,0,0-11.66,2.18,128.3,128.3,0,0,0-22.16,8.55c-3.62,1.73-7.19,3.55-10.75,5.39-1.72.89-3.42,1.79-5.2,2.55s-3.58,1.44-5.36,2.21c-.87.37-1.72.76-2.56,1.19s-.1,1.77.77,1.32c3.34-1.72,7-2.82,10.3-4.49s6.89-3.58,10.37-5.3a148,148,0,0,1,21.51-8.94,83.06,83.06,0,0,1,11.26-2.68c3.87-.64,7.94-1,11.78,0a29.5,29.5,0,0,1,9.77,5.19,57.43,57.43,0,0,1,7.75,6.95,122.22,122.22,0,0,1,12.68,16.73c.5.76,1,1.51,1.49,2.27s1.86.06,1.32-.77Z" transform="translate(0 -0.33)"/><path class="cls-1" d="M89,261.41a30.89,30.89,0,0,0-12.19-6.65,49.77,49.77,0,0,0-15.76-1.42c-2.92.14-6.1.18-8.88,1.18-.91.33-.52,1.8.41,1.47a26.29,26.29,0,0,1,7.49-1.07,67.35,67.35,0,0,1,7.91,0,35,35,0,0,1,13.71,3.37A28.64,28.64,0,0,1,88,262.49c.73.65,1.81-.42,1.08-1.08Z" transform="translate(0 -0.33)"/><path class="cls-1" d="M26.12,260.79a62.23,62.23,0,0,0,11.47-3.42c3.09-1.23,6.09-2.65,9.13-4a47.38,47.38,0,0,1,11.15-3.63A31,31,0,0,1,68,249.41,54.4,54.4,0,0,1,79.15,253c.91.36,1.31-1.11.41-1.47a60.24,60.24,0,0,0-10.17-3.43,29.4,29.4,0,0,0-9.86-.14,46.82,46.82,0,0,0-12,3.41c-3,1.25-5.92,2.68-8.92,3.94a64.78,64.78,0,0,1-12.91,4c-1,.19-.55,1.66.41,1.47Z" transform="translate(0 -0.33)"/><path class="cls-1" d="M111.72,345.58a178.69,178.69,0,0,0-3.59-30.15c-2.11-10.09-5.13-20.17-10-29.28A52.35,52.35,0,0,0,89,273.61a.76.76,0,0,0-1.07,1.08c6.72,6.65,11,15.48,14.11,24.31a146.64,146.64,0,0,1,6.87,30.42c.66,5.36,1.1,10.76,1.29,16.16,0,1,1.56,1,1.52,0Z" transform="translate(0 -0.33)"/><path class="cls-1" d="M111.72,345.58a124,124,0,0,0-4.32-25.81A93.33,93.33,0,0,0,97,295.5a64.25,64.25,0,0,0-8.88-11.31c-.69-.7-1.77.38-1.08,1.08a70,70,0,0,1,14,21,109.57,109.57,0,0,1,7.51,25.05,125.68,125.68,0,0,1,1.71,14.22c.06,1,1.59,1,1.52,0Z" transform="translate(0 -0.33)"/><path class="cls-6" d="M104.69,254.24c1.23,3.66,3.52,6.2,5.11,5.66s1.87-3.94.64-7.6-3.52-6.2-5.11-5.67S103.45,250.57,104.69,254.24Z" transform="translate(0 -0.33)"/><path class="cls-7" d="M204.51,313.17c-3.68-1.2-7.08-.87-7.59.72s2,3.86,5.71,5.05,7.08.87,7.6-.72S208.19,314.37,204.51,313.17Z" transform="translate(0 -0.33)"/><path class="cls-6" d="M256.79,249.64c-2.18,3.19-2.83,6.55-1.45,7.49s4.28-.87,6.46-4.06,2.83-6.55,1.44-7.5S259,246.45,256.79,249.64Z" transform="translate(0 -0.33)"/><path class="cls-8" d="M303.8,124.86c-3.36,1.91-5.42,4.64-4.59,6.1s4.23,1.09,7.59-.82,5.42-4.64,4.59-6.09S307.16,123,303.8,124.86Z" transform="translate(0 -0.33)"/><path class="cls-7" d="M95.41,102.2c1.23,3.67,3.52,6.2,5.11,5.67s1.88-3.94.64-7.61-3.52-6.2-5.11-5.66S94.17,98.54,95.41,102.2Z" transform="translate(0 -0.33)"/><path class="cls-5" d="M145.19,83.64c-1.79,3.43-2.05,6.83-.56,7.61s4.14-1.37,5.94-4.79,2-6.83.56-7.61S147,80.22,145.19,83.64Z" transform="translate(0 -0.33)"/></g></g></svg>