<svg xmlns="http://www.w3.org/2000/svg" viewBox="0 0 396.4 353.12"><defs><style>.cls-1{fill:#d4955f;}.cls-2{fill:#d48948;}.cls-3{fill:#e59163;}.cls-4{fill:#d78383;}.cls-5{fill:#ebb17f;}.cls-6{fill:#e9a666;}.cls-7{fill:#fbf4eb;}.cls-8{fill:#f7e5d1;}</style></defs><g id="Layer_2" data-name="Layer 2"><g id="BACKGROUND"><path class="cls-1" d="M253.62,226.87a60.72,60.72,0,0,1-36.89,18,61.62,61.62,0,0,1-12.07.11c-.64-.06-.63.94,0,1a62.37,62.37,0,0,0,41-11,56.49,56.49,0,0,0,8.65-7.39c.44-.46-.26-1.17-.71-.7Z"/><path class="cls-1" d="M232.53,214.71a29.26,29.26,0,0,0-8.36,5.25,40,40,0,0,0-5.77,6.68c-3.45,4.84-6.27,10.16-10.28,14.59a32.56,32.56,0,0,1-32.39,9.67c-6.1-1.5-12.27-4.24-16.89-8.58-.72-.68-1.8.4-1.08,1.07a38.36,38.36,0,0,0,15,8.26A36.07,36.07,0,0,0,189.94,253a34.69,34.69,0,0,0,16.54-8c4.62-4,7.78-9.38,11.12-14.46a52.86,52.86,0,0,1,6.23-8.12,27.51,27.51,0,0,1,9.11-6.22.78.78,0,0,0,.53-.94.76.76,0,0,0-.94-.53Z"/><path class="cls-1" d="M232.51,214.65c-4.86,1.9-9,5-13,8.3a127.92,127.92,0,0,1-12.66,9.71c-9.09,5.76-19.36,9.76-30.13,10.69a60.76,60.76,0,0,1-18.19-1.23c-1-.21-1.36,1.26-.4,1.47a62.1,62.1,0,0,0,32.15-1.43,73,73,0,0,0,14.92-6.71,96.94,96.94,0,0,0,13.19-9.59c4.47-3.75,9.06-7.59,14.55-9.74.91-.35.51-1.83-.4-1.47Z"/><path class="cls-1" d="M242.84,222.54a58.47,58.47,0,0,1-12,3.8,57.65,57.65,0,0,0,11.53-4.7Z"/><path class="cls-1" d="M248.87,225.44a128.73,128.73,0,0,1-12,7,79.36,79.36,0,0,1-12.76,5.31A79.23,79.23,0,0,0,236.69,232a130.29,130.29,0,0,0,11.62-7.39Z"/><path class="cls-1" d="M258.82,228.93a138.47,138.47,0,0,0-.92,24.68c0,1,1.56,1,1.52,0a136.68,136.68,0,0,1,.87-24.27.79.79,0,0,0-.53-.94.77.77,0,0,0-.94.53Z"/><path class="cls-1" d="M293.41,168.65c-3.4,3.94-6.66,8-9.93,12.07-2.86,3.54-5.68,7.11-8.37,10.77-1.36,1.85-2.68,3.73-3.94,5.65-.55.82.77,1.58,1.31.76a262.07,262.07,0,0,1,16.3-21.27c1.89-2.31,3.76-4.64,5.71-6.9.63-.74-.44-1.83-1.08-1.08Z"/><path class="cls-1" d="M351.7,82.24a99.47,99.47,0,0,1-7.19,29.41,98.24,98.24,0,0,1-6.84,13.45,66.52,66.52,0,0,1-9.12,11.75,166.27,166.27,0,0,1-13.15,11.87c-.75.63.33,1.7,1.08,1.08,7.94-6.62,15.93-13.53,21.52-22.34a100.71,100.71,0,0,0,15.23-45.22c.08-1-1.44-1-1.53,0Z"/><path class="cls-1" d="M258.12,254.15A87.37,87.37,0,0,1,278,289a89.8,89.8,0,0,1,3.42,20.59A79,79,0,0,1,280,330a80.55,80.55,0,0,1-8.34,22l1.05-.27a21.82,21.82,0,0,1-4.52-4.73,51.2,51.2,0,0,1-4.28-7,93.61,93.61,0,0,1-6.86-18,81.08,81.08,0,0,1-3.1-18.34c-.14-3.54.11-7.08.22-10.61.13-4.08.25-8.16.5-12.23a108.87,108.87,0,0,1,3.79-23.8c.3-1.06.63-2.1,1-3.14s-1.17-1.34-1.47-.41a103.52,103.52,0,0,0-4.61,24.35c-.32,4.09-.48,8.2-.61,12.3-.13,3.91-.37,7.84-.36,11.75A77.5,77.5,0,0,0,255,320.35,99,99,0,0,0,261.69,339c2.26,4.69,5,9.59,9,13.05a14.93,14.93,0,0,0,1.26,1,.77.77,0,0,0,1-.27,82.85,82.85,0,0,0,7.91-19.88,78.66,78.66,0,0,0,2.2-20.68,92.78,92.78,0,0,0-2.89-21.1,87.83,87.83,0,0,0-7.48-19.14A89.12,89.12,0,0,0,260.94,255c-.57-.65-1.15-1.29-1.74-1.93S257.46,253.43,258.12,254.15Z"/><path class="cls-1" d="M259.14,253.46a311.36,311.36,0,0,1,8.54,32.37,122.14,122.14,0,0,1,2.3,33.3,122.2,122.2,0,0,0-2.79-33.2,312.54,312.54,0,0,0-9-32.17Z"/><path class="cls-1" d="M259.16,253.64a135.62,135.62,0,0,0,1.38,28.45,136,136,0,0,1-2.38-28.5Z"/><path class="cls-1" d="M311.09,271.89a85.67,85.67,0,0,1-11.22-15.64,107,107,0,0,1-8.21-18.43,116.82,116.82,0,0,1-4.86-19.95,106.23,106.23,0,0,1-1.16-20.16,84.58,84.58,0,0,1,2.87-19.11c.2-.74.42-1.48.65-2.22l-1.28.34c9.74,8.06,16.85,18.94,21.23,30.74a96.48,96.48,0,0,1,5.37,40.71,106.59,106.59,0,0,1-4.67,24.06c-.29.94,1.18,1.34,1.47.41a106.6,106.6,0,0,0,4.38-43.89,87.37,87.37,0,0,0-12.6-37A68.4,68.4,0,0,0,289,175.64a.77.77,0,0,0-1.27.34,84,84,0,0,0-3.44,19.2,105.41,105.41,0,0,0,.7,20.4,117.88,117.88,0,0,0,4.48,20.33,112.08,112.08,0,0,0,7.94,19,91.06,91.06,0,0,0,11,16.3c.53.61,1.06,1.21,1.6,1.8S311.75,272.62,311.09,271.89Z"/><path class="cls-1" d="M288.87,176a41.34,41.34,0,0,1,1.7,4.69c.49,1.57.94,3.16,1.36,4.75.85,3.17,1.57,6.38,2.17,9.61a89,89,0,0,1,1.32,9.76,30.08,30.08,0,0,1-.62,9.79,30,30,0,0,0,.37-9.77,88.26,88.26,0,0,0-1.56-9.68c-.68-3.2-1.48-6.38-2.4-9.51q-.69-2.35-1.47-4.68A42.64,42.64,0,0,0,288,176.4Z"/><path class="cls-1" d="M288.84,175.9a110.11,110.11,0,0,1,15.07,34.82,106.33,106.33,0,0,1,2.24,37.78,106.35,106.35,0,0,0-2.72-37.66A109.41,109.41,0,0,0,288,176.46Z"/><path class="cls-1" d="M220.84,41.75a55,55,0,0,1-11,27.16,65.09,65.09,0,0,1-5.82,6.6.5.5,0,0,0,.71.71,58.6,58.6,0,0,0,15.52-25.88,58.1,58.1,0,0,0,1.63-8.59c.08-.64-.92-.63-1,0Z"/><path class="cls-1" d="M168.43,99.48a31.9,31.9,0,0,1-13.89,6.33,42.62,42.62,0,0,1-14.73.17,31.33,31.33,0,0,1-7.48-2.12c-.89-.4-1.66.92-.77,1.31A37.37,37.37,0,0,0,146.18,108,38.63,38.63,0,0,0,161,105.55a34.75,34.75,0,0,0,8.53-5c.77-.61-.31-1.68-1.07-1.08Z"/><path class="cls-1" d="M221.14,41c-11.06,3-23.49,5.91-31.27,15a31.09,31.09,0,0,0-5.46,9.53c-.35.93,1.13,1.32,1.47.41A28.84,28.84,0,0,1,196.61,52,55.7,55.7,0,0,1,212,45.15c3.15-1,6.33-1.8,9.5-2.66a.76.76,0,0,0-.4-1.47Z"/><path class="cls-1" d="M162.42,90.86a60.46,60.46,0,0,1-23,11.49,61.67,61.67,0,0,1-7.51,1.4c-1,.12-1,1.65,0,1.53a61.91,61.91,0,0,0,25.45-9,67.5,67.5,0,0,0,6.1-4.36c.77-.62-.32-1.69-1.08-1.08Z"/><path class="cls-1" d="M221.76,42A54.37,54.37,0,0,1,214.12,51a58.18,58.18,0,0,1-9.25,7.16,56.76,56.76,0,0,0,16-16.63Z"/><path class="cls-1" d="M221.84,41.82a2.83,2.83,0,0,0-.05.43s0,0,0,0,0,0,0-.07l0-.06a.67.67,0,0,0-.19-.17.46.46,0,0,0-.45,0A.29.29,0,0,0,221,42h0a.76.76,0,0,0,.08-.16,3,3,0,0,0,.15-.42,1.2,1.2,0,0,0,0-.17v.07a.42.42,0,0,0,.16.24.36.36,0,0,0,.25.09.32.32,0,0,0,.14,0l0,0,.1-.06h0c-.14.18-.32.53-.5.82l-.52.9c-.7,1.19-1.42,2.38-2.16,3.55-1.47,2.34-3,4.65-4.6,6.91a137.13,137.13,0,0,1-10.32,13,140.08,140.08,0,0,0,9.91-13.25q2.28-3.45,4.37-7c.7-1.19,1.38-2.39,2-3.59l.49-.91a10.56,10.56,0,0,1,.56-1,.24.24,0,0,1,.07-.09l.05-.05.15-.1.06,0,.16,0a.61.61,0,0,1,.28.1.55.55,0,0,1,.19.3.76.76,0,0,1,0,.2,1.31,1.31,0,0,1-.06.34,5.18,5.18,0,0,1-.17.56,2.78,2.78,0,0,1-.15.3.61.61,0,0,1-.09.13.55.55,0,0,1-.11.1.52.52,0,0,1-.52,0,.57.57,0,0,1-.21-.19.36.36,0,0,1,0-.09.49.49,0,0,1,0-.13.93.93,0,0,1,0-.14,4.83,4.83,0,0,1,0-.6Z"/><path class="cls-1" d="M293.94,1.09a148.11,148.11,0,0,1-6.43,24.71A152.42,152.42,0,0,1,277,48.73c-2.36,4.22-4.84,8.37-7.39,12.48-1,1.65,1.57,3.15,2.59,1.51a222,222,0,0,0,12.51-22.41,148.87,148.87,0,0,0,9-24.31q1.9-7,3.11-14.11A1.53,1.53,0,0,0,295.78.05a1.5,1.5,0,0,0-1.84,1Z"/><path class="cls-1" d="M50.69,111.16C45.34,119.4,34.34,125.93,35.35,137a29.1,29.1,0,0,0,2.16,8c1.09,2.76,2.22,5.51,3.33,8.26s2.15,5.42,3.28,8.1a24.39,24.39,0,0,0,3.8,6.58,18.58,18.58,0,0,0,13.53,6.41.45.45,0,0,0,.23-.83A37.87,37.87,0,0,1,55,168.46,14.35,14.35,0,0,1,51.06,161a50.72,50.72,0,0,1-.84-8.26,26,26,0,0,1,.55-7.15,10.45,10.45,0,0,1,4.14-6.36c.47-.32,0-1.09-.45-.77-4.32,2.91-5.21,8.27-5.16,13.13a61.42,61.42,0,0,0,.67,8.34,15.84,15.84,0,0,0,3.6,8.3,34.82,34.82,0,0,0,7.66,6l.22-.83a17.7,17.7,0,0,1-12.06-5.24,20.9,20.9,0,0,1-4-6.15c-1.16-2.59-2.16-5.26-3.22-7.9l-3.24-8a40.07,40.07,0,0,1-2.47-7.54,14.77,14.77,0,0,1,.49-7.52,23.51,23.51,0,0,1,3.53-6.44c3.4-4.57,7.87-8.24,11-13,.32-.48-.45-.93-.77-.45Z"/><path class="cls-1" d="M41.93,155.9a41.68,41.68,0,0,1,1.29-12.24,38.32,38.32,0,0,1,2-5.81,12.76,12.76,0,0,1,3.62-4.9,12.62,12.62,0,0,0-3.41,5,37,37,0,0,0-1.78,5.83,41.22,41.22,0,0,0-.83,12.08Z"/><path class="cls-1" d="M51.08,110.94a79.27,79.27,0,0,0-16.65.7c-1.43.22-2.86.48-4.28.78a12.09,12.09,0,0,1-2.93.39,2.67,2.67,0,0,1-2.41-1.11,4,4,0,0,1-.31-1.85c0-.62,0-1.24,0-1.85.13-4.53,1-9.66-1.8-13.62-1.37-1.93-3.4-3.36-4.46-5.51a9.39,9.39,0,0,1-.35-6.72c1.59-5.45,6.65-8.69,11.18-11.55.49-.31,0-1.08-.45-.77C24.46,72.46,19.9,75.35,17.76,80a12,12,0,0,0-1.1,6.72c.36,2.48,1.8,4.29,3.47,6.06a14.41,14.41,0,0,1,2.38,3,10.73,10.73,0,0,1,1.13,3.53,39.21,39.21,0,0,1,0,7.66,27.61,27.61,0,0,0,0,3.75,3,3,0,0,0,1.45,2.5c1.81,1,4.12.31,6-.07a77,77,0,0,1,20-1.31c.57,0,.57-.85,0-.89Z"/><path class="cls-1" d="M23,96.47a68.9,68.9,0,0,1,21.43-6.23,68.11,68.11,0,0,0-21,7Z"/><path class="cls-1" d="M18.44,90.31a32,32,0,0,0,13.15-1.92A32.29,32.29,0,0,1,18.41,91.2Z"/><path class="cls-1" d="M125,65.36A157.86,157.86,0,0,1,95.35,79.93c-9.72,3.42-20,5.5-30.3,5a55.79,55.79,0,0,1-26.92-8c-4.06-2.54-8.12-5.77-10.8-9.79a14.44,14.44,0,0,1-2.5-7.42A23.42,23.42,0,0,1,26,51.92,30.16,30.16,0,0,1,43.17,33.34c1-.41,2-.76,3.07-1.07a.45.45,0,0,0-.24-.86,31.19,31.19,0,0,0-19.58,17c-2,4.51-3.34,10-1.92,14.88s5.3,8.6,9.14,11.61c7.64,6,17,9.35,26.61,10.52A75.08,75.08,0,0,0,91,82.3a143.56,143.56,0,0,0,30.94-14c1.19-.7,2.37-1.41,3.55-2.12.48-.3,0-1.07-.45-.77Z"/><path class="cls-1" d="M125.46,65.36a50.42,50.42,0,0,0-18-8.2A46.49,46.49,0,0,0,97.57,56a61.1,61.1,0,0,0-10.63,1c-7.2,1.22-14.28,3-21.63,3a56,56,0,0,1-18.68-3.19,48.75,48.75,0,0,1-18-11.29.45.45,0,0,0-.63.63c9,9,21.32,13.88,33.93,14.64a59.14,59.14,0,0,0,9.87-.24c3.68-.4,7.31-1.12,11-1.82A90,90,0,0,1,94.15,57a45.9,45.9,0,0,1,10.21.47A49.33,49.33,0,0,1,125,66.13c.46.33.91-.44.45-.77Z"/><path class="cls-1" d="M26.11,65.75a37.57,37.57,0,0,0-3.59-6.89,28.48,28.48,0,0,0-5.34-5.35,20.54,20.54,0,0,1-4.77-5.16,15,15,0,0,1-2-6,11.48,11.48,0,0,1,4.78-11,19.78,19.78,0,0,1,6.85-2.63,36,36,0,0,1,7.54-.77A32.15,32.15,0,0,1,45.9,32.23a.45.45,0,0,0,.45-.77A32.61,32.61,0,0,0,31.5,27.1a37.21,37.21,0,0,0-7.82.41,25.53,25.53,0,0,0-7.31,2.15,12.36,12.36,0,0,0-5.13,4.53,12.74,12.74,0,0,0-1.75,6A15.78,15.78,0,0,0,14.17,52c2.12,2.09,4.65,3.74,6.6,6a31.66,31.66,0,0,1,4.57,8.17c.22.53,1,.07.77-.45Z"/><path class="cls-1" d="M19.91,57.16A24.17,24.17,0,0,1,18.54,50a17,17,0,0,1,1.28-7.19,16.26,16.26,0,0,1,4.3-5.84,23.25,23.25,0,0,1,6.15-3.79,23.15,23.15,0,0,0-6,4,15.82,15.82,0,0,0-4.05,5.83,16.53,16.53,0,0,0-1,7,23.6,23.6,0,0,0,1.54,6.93Z"/><path class="cls-1" d="M24.92,57a13.57,13.57,0,0,0,4,4.08,28.6,28.6,0,0,0,5.15,2.76A66.3,66.3,0,0,0,45.26,67.4a109,109,0,0,0,23.5,2.39,109.24,109.24,0,0,1-23.59-2A65.08,65.08,0,0,1,33.79,64.4a29.1,29.1,0,0,1-5.33-2.72,14.47,14.47,0,0,1-4.3-4.27Z"/><path class="cls-1" d="M25.78,52.14A.32.32,0,0,0,26,52a.22.22,0,0,0,0-.11s0,0,0,.08l0,0,.07.1.15.22c.19.3.39.6.6.88a17.76,17.76,0,0,0,1.37,1.64,26.62,26.62,0,0,0,3.21,2.87,64,64,0,0,0,7.33,4.66,64.58,64.58,0,0,1-7.59-4.3,26.64,26.64,0,0,1-3.42-2.76,17.88,17.88,0,0,1-1.51-1.63c-.24-.28-.46-.58-.68-.88l-.17-.23-.08-.11a.7.7,0,0,1-.1-.19,1,1,0,0,1-.09-.46.76.76,0,0,1,.12-.36.61.61,0,0,1,.41-.24Z"/><path class="cls-1" d="M56.89,84.2C54,86.51,51,88.91,49.28,92.31a11.28,11.28,0,0,0-.05,10.59c1.63,2.86,4.55,4.68,7.46,6,3.2,1.49,6.56,2.58,9.73,4.14a33,33,0,0,1,8.81,6,18.9,18.9,0,0,1,5.2,9.56c.87,4,1,8.2,2.66,12a18.81,18.81,0,0,0,22.92,9.9,17.57,17.57,0,0,0,2-.92c.51-.27.06-1-.45-.77a17.12,17.12,0,0,1-17-1,17.71,17.71,0,0,1-6.12-6.37c-1.89-3.41-2.22-7.31-2.84-11.09a21.36,21.36,0,0,0-4-9.94A27.4,27.4,0,0,0,70,114a61.52,61.52,0,0,0-9.23-4.32C57.72,108.5,54.5,107.21,52,105a9.71,9.71,0,0,1-2.95-9.52c.84-3.65,3.4-6.53,6.21-8.85.73-.6,1.48-1.18,2.22-1.77.45-.35-.18-1-.63-.63Z"/><path class="cls-1" d="M48.4,100.94a22.51,22.51,0,0,0,2,9.93c1.44,3.41,3.14,6.69,4.07,10.29a33.57,33.57,0,0,1,.91,11.34,42.55,42.55,0,0,1-1,5.7,17.75,17.75,0,0,0-.64,5.75c.34,3.45,2.39,6.38,4.54,9a36.47,36.47,0,0,0,7.49,7,21.74,21.74,0,0,0,9.66,3.65,27.19,27.19,0,0,0,10.83-1.06c7.28-2.14,13.74-6.69,19.68-11.28l2.2-1.74c.45-.36-.18-1-.63-.63-5.82,4.65-12.06,9.32-19.08,12-6.66,2.52-14.22,2.94-20.56-.66a31.29,31.29,0,0,1-7.75-6.52c-2.23-2.49-4.55-5.3-5.31-8.64-.84-3.7.83-7.47,1.31-11.11a34.29,34.29,0,0,0-.29-10.84,50.29,50.29,0,0,0-4-11.14c-1.58-3.54-2.77-7.1-2.57-11,0-.57-.86-.57-.89,0Z"/><path class="cls-1" d="M125.33,65.72a99.18,99.18,0,0,1-17.06,24c-6.92,7.18-15.37,12.89-21.38,20.93a51.49,51.49,0,0,0-7.54,14.5c-.18.54.68.78.86.24a50.91,50.91,0,0,1,6.62-13.15,66.22,66.22,0,0,1,10.23-11c3.7-3.31,7.51-6.5,11-10a100,100,0,0,0,18-25c.26-.51-.51-1-.77-.45Z"/><path class="cls-1" d="M56.1,128A29.34,29.34,0,0,0,86.52,154.6a29.79,29.79,0,0,1-31.31-26.5Z"/><path class="cls-1" d="M68.33,113.61A47.24,47.24,0,0,1,93,86.34a46.77,46.77,0,0,0-23.86,27.55Z"/><path class="cls-1" d="M73.31,117a16.15,16.15,0,0,1,5.9-11,15.76,15.76,0,0,0-5,11Z"/><path class="cls-1" d="M48.05,81.67c-10.55.51-21.37.52-31.64-2.22a49,49,0,0,1-8.3-3c-1-.48-1.94,1-.9,1.54,9.84,4.64,20.92,5.73,31.67,5.72,3.06,0,6.12-.11,9.17-.26,1.15,0,1.15-1.84,0-1.78Z"/><path class="cls-1" d="M48.12,93.27c-.86.59-1.66,1.26-2.47,1.92a32,32,0,0,1-2.9,2,67.38,67.38,0,0,1-6.53,3.9,44.07,44.07,0,0,1-13.57,4.26,43.8,43.8,0,0,1-8,.38c-1.15,0-1.14,1.74,0,1.79a46,46,0,0,0,14.48-1.75,50.59,50.59,0,0,0,13.52-6.38c1.18-.76,2.39-1.51,3.5-2.36S48,95.5,49,94.81s.06-2.18-.9-1.54Z"/><path class="cls-1" d="M48.53,105.17A90.46,90.46,0,0,0,26,125.93q-2.64,3.44-4.94,7.12c-.61,1,.93,1.87,1.54.9a88.58,88.58,0,0,1,20-22.33c2.2-1.75,4.5-3.39,6.86-4.91,1-.62.07-2.17-.9-1.54Z"/><path class="cls-1" d="M21.55,102.89c1,1.77-1.35,4.89-5.16,7s-7.69,2.36-8.66.6,1.35-4.88,5.17-7S20.59,101.13,21.55,102.89Z"/><path class="cls-1" d="M14.93,136.62c-1-1.76,1.35-4.89,5.17-7s7.69-2.36,8.65-.6-1.35,4.88-5.16,7S15.9,138.38,14.93,136.62Z"/><path class="cls-1" d="M15.26,75.15c.53,1.94-2.45,4.44-6.65,5.58s-8,.5-8.55-1.44,2.45-4.43,6.65-5.57S14.73,73.22,15.26,75.15Z"/><path class="cls-1" d="M147.65,55.4c-4.81,2.88-18.07,5-23.48,3.55a206,206,0,0,0-34.5-5.8s17.2,3.29,23.91,11A54.18,54.18,0,0,0,84.66,74.65C89.15,72.14,94.27,71,99.32,70c5.48-1.07,11.35-2,16.5.15a.82.82,0,0,1,.39.29c.11.23,0,.49-.18.7A48.87,48.87,0,0,1,96.38,87.74c10.65-.21,15.71-1,22.51-9.22a67.46,67.46,0,0,1,28.7-20.7"/><path class="cls-1" d="M169.14,51.94q7.58-1.92,15.25-3.4,4.37-.85,8.76-1.56c1.55-.25,3.11-.5,4.67-.72l2.41-.35,1.15-.16h.07l.23,0,.78-.1c7.16-.94,14.36-1.63,21.58-2.13q12.63-.85,25.29-.94c9.7-.08,19.4.14,29.08.61l3.94.2a1.5,1.5,0,0,0,0-3q-14.89-.83-29.81-.83-12.87,0-25.73.78c-7.4.46-14.79,1.12-22.15,2-6.34.79-12.67,1.74-18.95,2.91q-7.86,1.47-15.62,3.37l-1.75.44c-1.87.47-1.08,3.36.8,2.89Z"/><path class="cls-1" d="M136,62c2.53-.68,5-1.54,7.47-2.38,3.6-1.22,7.19-2.43,10.82-3.56,1.83-.57,1-3.47-.8-2.89-3.62,1.13-7.22,2.34-10.81,3.56-2.48.84-4.95,1.7-7.47,2.38A1.5,1.5,0,0,0,136,62Z"/><path class="cls-2" d="M182.07,111.32a65.78,65.78,0,0,1-22.21-28A64.08,64.08,0,0,1,155.76,50a56.78,56.78,0,0,1,4.89-16.11,1.87,1.87,0,0,0,.15-.32c0-.1-.06,0,0,0s-.14.1-.2.11-.36,0-.22,0c-.28,0,0-.07,0,0s-.1-.11,0,0a3,3,0,0,1,.19.23,9.76,9.76,0,0,1,1,2,36.67,36.67,0,0,1,1.61,4.7c.27,1,.47,2,.76,3.06a36.63,36.63,0,0,0,1.55,4.17,34.25,34.25,0,0,0,4.58,7.5c3.65,4.56,8.49,7.86,13.61,10.55s10.44,4.84,15.47,7.65a45.39,45.39,0,0,1,7,4.7,38.87,38.87,0,0,1,6.44,6.94c.9,1.23,1.72,2.51,2.5,3.81a.76.76,0,0,0,1.32-.77,42.31,42.31,0,0,0-12.8-13.75c-5-3.3-10.47-5.62-15.81-8.21s-10.59-5.48-14.72-9.78a33.2,33.2,0,0,1-8.32-15.77,33.94,33.94,0,0,0-1.4-4.39,19.85,19.85,0,0,0-1.13-2.54,3.4,3.4,0,0,0-1.16-1.43,1.2,1.2,0,0,0-1.69.71Q158.44,35,157.66,37a57.79,57.79,0,0,0-2.56,8.34,64.81,64.81,0,0,0,1.81,34.41,66.22,66.22,0,0,0,20.62,30q1.83,1.53,3.77,3c.79.58,1.55-.75.77-1.32Z"/><path class="cls-2" d="M206.78,110.31c-9.9-5.41-19.32-12-27.1-20.18a74.69,74.69,0,0,1-10.18-13.5,60.23,60.23,0,0,1-6.43-15.58,60.19,60.19,0,0,0,6.76,15.38,73.54,73.54,0,0,0,10.4,13.17c7.89,8,17.34,14.22,27.27,19.37Z"/><path class="cls-2" d="M207.45,102.63a84.91,84.91,0,0,1-7.52-4.55,44.5,44.5,0,0,1-6.59-5.81A45.92,45.92,0,0,1,188,85.33a45,45,0,0,1-3.9-7.79,45.26,45.26,0,0,0,4.22,7.58,44.61,44.61,0,0,0,5.57,6.61,43.4,43.4,0,0,0,6.69,5.41,82.44,82.44,0,0,0,7.57,4.13Z"/><path class="cls-2" d="M209.28,96.88c-3.51-3.67-7.34-7.06-11.17-10.45,4.14,3,8.3,6,12.21,9.34Z"/><path class="cls-2" d="M208.81,117.07c-3.19-1.38-6.46-2.62-9.71-3.95a72.22,72.22,0,0,1-9.52-4.56,44.35,44.35,0,0,1-8.18-6.64c-2.4-2.53-4.72-5.34-5.71-8.73,1.12,3.34,3.51,6,6,8.46a43.83,43.83,0,0,0,8.3,6.25,71.19,71.19,0,0,0,9.55,4.15c3.27,1.21,6.59,2.33,9.87,3.61Z"/><path class="cls-2" d="M213.39,183.23A76.67,76.67,0,0,1,199.92,201a67.13,67.13,0,0,1-18.26,12.75,91.63,91.63,0,0,1-12.54,4.66c-3.63,1.1-8.44,2.65-11.63-.31a5.29,5.29,0,0,1-1.27-5.28c.49-2.19,1.33-4.32,2-6.45L162.66,193c2.92-8.85,5.78-17.72,8.76-26.55.36-1.07.73-2.13,1.13-3.18s-1.12-1.32-1.47-.41c-1.71,4.48-3.09,9.1-4.59,13.65l-4.56,13.84-4.56,13.84c-.75,2.26-1.53,4.5-2.23,6.78-.63,2.06-1,4.31-.1,6.35,1.72,3.74,6.35,4.39,10,3.75a53.86,53.86,0,0,0,6.79-1.89c2.21-.71,4.41-1.48,6.57-2.34a69.18,69.18,0,0,0,20.18-12.46,77,77,0,0,0,14.74-17.87c.5-.82,1-1.65,1.44-2.49s-.84-1.63-1.32-.77Z"/><path class="cls-2" d="M175.83,195.34a133.82,133.82,0,0,1,6.55-13.8,136,136,0,0,1,8.08-13,139.24,139.24,0,0,1,9.51-12c3.38-3.84,6.92-7.51,10.31-11.29l1.12,1c-3.51,3.71-7.13,7.29-10.58,11a136,136,0,0,0-9.74,11.7,134.23,134.23,0,0,0-8.37,12.73A136.76,136.76,0,0,0,175.83,195.34Z"/><path class="cls-2" d="M205,178.84a33.6,33.6,0,0,1,1-9.4,55.09,55.09,0,0,1,3.07-9l1.38.66a54.36,54.36,0,0,0-3.72,8.54A33.24,33.24,0,0,0,205,178.84Z"/><path class="cls-2" d="M263.31,171.72a78.22,78.22,0,0,0,13.43.21q6.69-.33,13.31-1.33t13.28-2.66c3.74-.95,7.57-2.08,10.66-4.47a11.77,11.77,0,0,0,4.79-9.06c0-3.65-2.45-6.41-5.45-8.16a39.48,39.48,0,0,0-5-2.27c-1.92-.78-3.83-1.58-5.72-2.44a66.45,66.45,0,0,1-11-6.16c-6.89-4.89-12-11.92-19.23-16.4-.9-.56-1.83-1.07-2.78-1.55s-1.65.88-.77,1.32A45.34,45.34,0,0,1,279,126.12c3,2.7,5.72,5.66,8.81,8.23,6.23,5.18,13.64,8.48,21.09,11.48,3,1.21,6.38,2.76,7.81,5.86s.11,6.73-2,9.11c-2.51,2.8-6.22,4.16-9.75,5.15a124.34,124.34,0,0,1-12.5,2.74q-6.4,1.08-12.88,1.55a102.26,102.26,0,0,1-13,.24c-1.08-.06-2.16-.16-3.23-.29s-1,1.41,0,1.53Z"/><path class="cls-2" d="M246.49,140c8.78,4.28,18.11,7.4,27.44,10.42,4.67,1.5,9.36,2.94,14.15,4a61.73,61.73,0,0,0,14.59,1.53A61.85,61.85,0,0,1,288,154.78c-4.83-.91-9.58-2.24-14.3-3.62-9.41-2.79-18.85-5.66-27.86-9.77Z"/><path class="cls-2" d="M259.34,132.91c4.52,2.23,9,4.58,13.52,6.66a66.74,66.74,0,0,0,14.2,4.87,67.33,67.33,0,0,1-14.5-4.17c-4.69-1.85-9.26-4-13.86-6Z"/><path class="cls-2" d="M256.58,153.25a99,99,0,0,0,18.62,7.14,99.66,99.66,0,0,1-19.27-5.76Z"/><path class="cls-2" d="M210.15,145.64a59.73,59.73,0,0,1-18,11.81,60.65,60.65,0,0,1-41.72,1.72,82.18,82.18,0,0,1-18.68-9.09,208.57,208.57,0,0,1-17.2-12.53c-1.3-1-2.67-2-3.88-3.14-1-1-2.23-2.32-1.89-3.87a4.09,4.09,0,0,1,2.51-2.53,25.77,25.77,0,0,1,4.48-1.37l23.64-6.13c7.76-2,15.5-4.1,23.28-6a67.14,67.14,0,0,1,11.6-2.06,46.49,46.49,0,0,1,11.83.88A92.65,92.65,0,0,1,197.31,116a105.68,105.68,0,0,1,10.81,4.43c1.75.79,3.5,1.59,5.27,2.37.89.39,1.66-.92.77-1.32-3.69-1.62-7.33-3.36-11-4.91A72.39,72.39,0,0,0,191.79,113a75.26,75.26,0,0,0-11.92-2.07,46.36,46.36,0,0,0-12,.87c-4,.76-8,1.85-11.91,2.88l-12.18,3.16-24.36,6.32c-2,.52-4,1-6,1.55a12.66,12.66,0,0,0-3.93,1.62,4.78,4.78,0,0,0-2.21,3.35,5.43,5.43,0,0,0,1.68,4.14,32.75,32.75,0,0,0,4,3.36c1.41,1.12,2.84,2.24,4.26,3.35,2.89,2.23,5.81,4.43,8.8,6.52a100.8,100.8,0,0,0,18.86,10.68,62,62,0,0,0,42.93,2,60.62,60.62,0,0,0,19.37-10.4c1.42-1.13,2.78-2.33,4.1-3.57.71-.68-.36-1.75-1.08-1.08Z"/><path class="cls-2" d="M225.4,126.75a26.9,26.9,0,0,1-7.6,4.18,48.27,48.27,0,0,1-8.31,2.13,72.2,72.2,0,0,1-17,1.11,63.5,63.5,0,0,1-16.69-3.11,53.51,53.51,0,0,1-15-7.84,53,53,0,0,0,15.1,7.47,62.92,62.92,0,0,0,16.61,2.72,71.84,71.84,0,0,0,16.75-1.47c5.48-1.08,10.94-2.82,15.16-6.37Z"/><path class="cls-2" d="M181.49,124.4c3.58-1.05,7.41-.64,11,.19s7.14,2,10.74,2.72a36.65,36.65,0,0,0,10.89.78,38.33,38.33,0,0,0,10.52-2.64l.56,1.42a39.6,39.6,0,0,1-11,2.36,37.83,37.83,0,0,1-11.13-1.17c-3.62-.87-7.1-2.15-10.66-3.1S185.11,123.48,181.49,124.4Z"/><path class="cls-2" d="M129,134.92c7.29,4.39,15.65,6.46,23.93,8s16.79,2.4,25.17,1.46a82.85,82.85,0,0,0,24.23-6.73,161.89,161.89,0,0,0,22.17-12.08l.81,1.29a164,164,0,0,1-22.54,11.85,84.22,84.22,0,0,1-24.6,6.43c-8.49.82-17-.24-25.31-1.85S136.23,139.43,129,134.92Z"/><path class="cls-2" d="M245.52,141.28a74.48,74.48,0,0,1,14.36,21.13c3.25,7.27,5.26,15,7.34,22.71s4.2,15.48,7.53,22.77c1.72,3.77,4,7.32,5,11.39.83,3.4.5,7.34-2,10-3,3.25-7.53,2.05-11.29,1.06s-7.62-2.16-11.34-3.51a73.82,73.82,0,0,1-20.63-11,51.93,51.93,0,0,1-14.62-18.44,97.74,97.74,0,0,1-7.3-23.29c-1.8-8.88-3.41-18.24-1.44-27.24,1.44-6.53,4.6-13.39,9.91-17.67a15,15,0,0,1,4-2.35c.91-.35.51-1.82-.4-1.47-6.74,2.58-11,9.29-13.43,15.77a39.67,39.67,0,0,0-2.46,11.8,67.59,67.59,0,0,0,1,14.34,126.2,126.2,0,0,0,6.25,25,57.52,57.52,0,0,0,13.05,20.83,65.13,65.13,0,0,0,20.26,13,113.38,113.38,0,0,0,11.46,4.13c2,.6,4,1.15,5.95,1.67a20,20,0,0,0,6.63.94,8.93,8.93,0,0,0,7.75-6.59c1.27-4,.16-8.14-1.48-11.86-.88-2-1.94-3.9-2.9-5.85-.87-1.79-1.66-3.62-2.38-5.47-1.48-3.83-2.7-7.76-3.84-11.7-2.3-8.05-4.21-16.22-7.06-24.1A76.9,76.9,0,0,0,251,145.17c-1.39-1.72-2.86-3.38-4.39-5-.69-.71-1.76.37-1.08,1.08Z"/><path class="cls-2" d="M225.65,126.37a44.46,44.46,0,0,0-.76,21.6,37.67,37.67,0,0,0,10.17,19.17,38,38,0,0,1-10.91-19,45.49,45.49,0,0,1,0-22.18Z"/><path class="cls-2" d="M225.43,126.73a25.57,25.57,0,0,0-6.83,10.4,39.67,39.67,0,0,0-2.43,12.46c0,1.06,0,2.13,0,3.19a31,31,0,0,0,.39,3.16c.36,2.12.78,4.22,1.23,6.32s.94,4.2,1.49,6.27a43.42,43.42,0,0,0,2,6.13,43.54,43.54,0,0,1-2.17-6.08q-.91-3.09-1.68-6.23c-.52-2.09-1-4.19-1.42-6.3a31.45,31.45,0,0,1-.5-3.23c-.09-1.08-.14-2.16-.13-3.25a40.69,40.69,0,0,1,2.12-12.83,26.86,26.86,0,0,1,6.89-11.14Z"/><path class="cls-2" d="M224.17,126.31a17.41,17.41,0,0,1-.33-4c.09-1.33.21-2.54.36-3.85a33.88,33.88,0,0,1,1.77-7.57A42.45,42.45,0,0,1,234,97.82a61.94,61.94,0,0,1,5.39-5.48c1.9-1.71,3.89-3.3,5.82-5a65.74,65.74,0,0,0,10.5-11,66.37,66.37,0,0,1-10.25,11.32c-1.9,1.71-3.85,3.35-5.69,5.1a60.53,60.53,0,0,0-5.19,5.55,41.4,41.4,0,0,0-7.55,13,32.29,32.29,0,0,0-1.52,7.33c-.11,1.23-.21,2.56-.26,3.76a15.07,15.07,0,0,0,.4,3.63Z"/><path class="cls-2" d="M224.92,125.4c-7,.25-13-4.5-15.82-10.66a18.19,18.19,0,0,1-1.49-10.31,24.66,24.66,0,0,1,4.64-10.56,54.71,54.71,0,0,1,8.3-8.84c3.36-3,6.88-5.8,10.51-8.46a252.39,252.39,0,0,1,22.62-14.5q2.9-1.68,5.82-3.33l3-1.66a11.54,11.54,0,0,1,3-1.37c4.35-1,4.35,5.52,4.27,8.18-.15,4.76-1.12,9.47-.95,14.24s1.2,9.38,1.81,14.07c1.12,8.61.73,17.57-2.2,25.8a36.19,36.19,0,0,1-13.72,18,29,29,0,0,1-10,4.26,21.71,21.71,0,0,1-6.58.4,9.19,9.19,0,0,1-4.44-1.44,17.67,17.67,0,0,1-4.91-6.16,43.94,43.94,0,0,1-2.73-6l-.27-.76c0-.11-.13-.56-.08-.14-.12-1-1.64-1-1.52,0a6,6,0,0,0,.4,1.31c.36,1,.76,2,1.19,2.92a33.32,33.32,0,0,0,4.21,7.3,14,14,0,0,0,2.94,2.86,10.44,10.44,0,0,0,4.76,1.59,24.8,24.8,0,0,0,12.4-1.94,35.36,35.36,0,0,0,17-15.42c4.44-7.89,6-17.13,5.67-26.08A123.36,123.36,0,0,0,271,84.5a51.56,51.56,0,0,1-.66-7.45,70.39,70.39,0,0,1,.53-7.54,59.47,59.47,0,0,0,.45-7.42,11.86,11.86,0,0,0-1.11-5.47,4.45,4.45,0,0,0-4.47-2.48c-2.24.26-4.29,1.76-6.2,2.84-8.18,4.6-16.29,9.34-24,14.62q-5.83,4-11.34,8.4a88.7,88.7,0,0,0-9.86,9,34.75,34.75,0,0,0-6.82,10.3,20.4,20.4,0,0,0-1.21,11.45c1.34,7,6.54,13.43,13.46,15.49a16.18,16.18,0,0,0,5.22.67C225.9,126.89,225.9,125.37,224.92,125.4Z"/><path class="cls-2" d="M225.17,125.44a26,26,0,0,1,5.53,3.2,12.78,12.78,0,0,0,5.43,2.33,14.87,14.87,0,0,0,6-.49,28.41,28.41,0,0,0,5.68-2.3,36.3,36.3,0,0,0,16.51-17.84,36.63,36.63,0,0,1-16.15,18.51,29.6,29.6,0,0,1-5.78,2.55,15.83,15.83,0,0,1-6.36.7,14,14,0,0,1-6-2.34,24.88,24.88,0,0,0-5.31-2.88Z"/><path class="cls-2" d="M224.2,126.41a65.4,65.4,0,0,1-2.6-10.47,32.83,32.83,0,0,1,.19-10.79,30,30,0,0,1,3.82-10,23.4,23.4,0,0,1,7.4-7.64,23.37,23.37,0,0,0-7.07,7.83,29,29,0,0,0-3.39,10,31.51,31.51,0,0,0,.18,10.48,65.27,65.27,0,0,0,2.91,10.16Z"/><path class="cls-2" d="M269.89,75.94a1,1,0,0,1,.66.83,1.42,1.42,0,0,1-.07.66,2.12,2.12,0,0,1-.23.45c-.11.16-.19.23-.25.31l-.86,1c-.57.64-1.16,1.26-1.76,1.87q-1.81,1.83-3.75,3.51a62.78,62.78,0,0,1-8.23,6,62.3,62.3,0,0,0,7.71-6.6c1.19-1.19,2.33-2.44,3.42-3.72.55-.64,1.08-1.3,1.59-2l.77-1,.14-.19a.33.33,0,0,0,0-.13s0,0,0,0a.51.51,0,0,0,.29.36Z"/><path class="cls-2" d="M225.49,125.71a24.4,24.4,0,0,0,8.18-2.31,44.38,44.38,0,0,0,7.45-4.46,59.05,59.05,0,0,0,6.63-5.71,50.36,50.36,0,0,0,5.69-6.67A52.55,52.55,0,0,1,248,113.5a60.32,60.32,0,0,1-6.44,6,44.83,44.83,0,0,1-7.42,4.88,25.47,25.47,0,0,1-8.54,2.8Z"/><path class="cls-2" d="M224.11,125.49a82.28,82.28,0,0,1-27,10.47,81.56,81.56,0,0,1-29.1.64,69.51,69.51,0,0,1-15.49-4.39.76.76,0,0,0-.4,1.47,74.24,74.24,0,0,0,28.7,5.45A86.49,86.49,0,0,0,210,134a81.57,81.57,0,0,0,14.86-7.14c.84-.52.07-1.84-.77-1.32Z"/><path class="cls-2" d="M223.84,125.76a1.1,1.1,0,0,1-.09.14c.16-.27,0,0-.07.07a8.42,8.42,0,0,1-.59.61c-.65.63-1.34,1.23-2.05,1.82a73.31,73.31,0,0,1-7.39,5.36,96.35,96.35,0,0,1-26.86,12,90.32,90.32,0,0,1-20.86,3.12c-1,0-1,1.56,0,1.53a94.48,94.48,0,0,0,35-8.08A90.85,90.85,0,0,0,221.48,130c.88-.71,1.74-1.45,2.56-2.23a4.93,4.93,0,0,0,1.12-1.25c.43-.88-.89-1.65-1.32-.77Z"/><path class="cls-2" d="M224.11,125.49c-2.55,1.94-4.92,4.12-7.27,6.29-3.49,3.21-6.89,6.49-10.27,9.81q-5.7,5.59-11.25,11.33c-3.43,3.54-6.83,7.12-10.14,10.77-2.41,2.67-4.83,5.37-7,8.25-.19.24-.37.49-.55.74-.57.8.75,1.56,1.32.77a90.17,90.17,0,0,1,6.29-7.55c3.2-3.58,6.49-7.07,9.82-10.53q5.48-5.7,11.12-11.26Q211.35,139,216.65,134c2.49-2.32,5-4.65,7.67-6.78l.34-.27.22-.17c.78-.59,0-1.92-.77-1.32Z"/><path class="cls-2" d="M224.11,125.49a16,16,0,0,0-5.37,4.85c-1.52,2-3,4-4.54,6a98.51,98.51,0,0,0-8,12.85,123.31,123.31,0,0,0-10.49,27.68A96.82,96.82,0,0,0,193.25,191c-.09,1,1.43,1,1.52,0a105.93,105.93,0,0,1,6-25.67A111.26,111.26,0,0,1,214.18,139c1.59-2.26,3.33-4.39,5-6.62s3.27-4.29,5.74-5.54c.88-.45.11-1.76-.77-1.32Z"/><path class="cls-2" d="M223.84,125.76c-3.89,6.8-4.64,14.81-3.81,22.48a99.21,99.21,0,0,0,6.15,24A126.76,126.76,0,0,0,232,185.48c.45.88,1.77.11,1.32-.76a122.52,122.52,0,0,1-9.09-23.23c-2.06-7.44-3.6-15.18-2.83-22.93a30.17,30.17,0,0,1,3.72-12,.76.76,0,0,0-1.32-.77Z"/><path class="cls-2" d="M223.74,126.15a39.74,39.74,0,0,0,3.33,17.35c2.32,4.94,6.5,8.28,11.33,10.59a77.56,77.56,0,0,0,8.18,3.22c.93.33,1.33-1.15.41-1.47-4.63-1.6-9.43-3.3-13.31-6.39a18.5,18.5,0,0,1-4.86-5.84,31.53,31.53,0,0,1-2.74-8,43.83,43.83,0,0,1-.82-9.5.76.76,0,0,0-1.52,0Z"/><path class="cls-3" d="M153.21,129.93c-3.9-.05-7.07,1.28-7.09,3s3.12,3.1,7,3.14,7.07-1.28,7.09-3S157.11,130,153.21,129.93Z"/><path class="cls-3" d="M164.63,147.45c-3.45,1.81-5.62,4.48-4.83,6s4.21,1.25,7.67-.55,5.62-4.48,4.83-6S168.09,145.65,164.63,147.45Z"/><path class="cls-3" d="M181,173.63c.8-3.82.11-7.19-1.55-7.54s-3.64,2.47-4.44,6.28-.1,7.19,1.55,7.54S180.18,177.44,181,173.63Z"/><path class="cls-3" d="M196.92,192c1.21-3.71.89-7.14-.72-7.66s-3.89,2-5.1,5.76-.89,7.13.72,7.66S195.71,195.69,196.92,192Z"/><path class="cls-3" d="M235.46,184.52c-.81-3.82-2.8-6.62-4.45-6.27s-2.34,3.72-1.54,7.53,2.8,6.62,4.45,6.27S236.26,188.33,235.46,184.52Z"/><path class="cls-3" d="M248.58,155.61c-1.52-3.59-4-6-5.57-5.31s-1.59,4.1-.07,7.69,4,6,5.56,5.31S250.09,159.2,248.58,155.61Z"/><path class="cls-4" d="M224.05,40.79h-.43a.34.34,0,0,0-.19,0,.39.39,0,0,0-.16.1.34.34,0,0,0-.1.16.41.41,0,0,0,0,.19l0,.13a.65.65,0,0,0,.13.23l.1.07a.45.45,0,0,0,.25.07h.43a.41.41,0,0,0,.19,0,.44.44,0,0,0,.16-.1.37.37,0,0,0,.1-.17.32.32,0,0,0,.05-.19l0-.13a.45.45,0,0,0-.13-.22l-.1-.08a.45.45,0,0,0-.25-.07Z"/><path class="cls-5" d="M102.15,231.37a66.46,66.46,0,0,1,6.23-26.27,77,77,0,0,1,15.82-23A57.59,57.59,0,0,1,136,173l-1.15-.66a50.73,50.73,0,0,1-4.77,27.77,67.61,67.61,0,0,1-16.61,21.79A74.12,74.12,0,0,1,101,230.72a.76.76,0,0,0,.77,1.31,74.17,74.17,0,0,0,21.16-17.82,61.79,61.79,0,0,0,12.65-25.63,48.11,48.11,0,0,0,.8-16.27.78.78,0,0,0-1.15-.66,65.69,65.69,0,0,0-20.19,18.84,79.6,79.6,0,0,0-12.25,25.7,62.37,62.37,0,0,0-2.17,15.18A.76.76,0,0,0,102.15,231.37Z"/><path class="cls-5" d="M136.35,172.52a26.14,26.14,0,0,1-1.42,3.21c-.51,1-1.05,2-1.6,3q-1.67,3-3.54,5.85a62.29,62.29,0,0,1-4,5.51,21,21,0,0,1-5,4.59,21,21,0,0,0,4.72-4.83,63.89,63.89,0,0,0,3.68-5.67c1.14-2,2.19-4,3.17-6a46.53,46.53,0,0,0,2.58-6.13Z"/><path class="cls-5" d="M136.38,172.43a75.57,75.57,0,0,1-25.92,44.78,74.81,74.81,0,0,0,24.41-45Z"/><path class="cls-5" d="M78.72,36.48A66.32,66.32,0,0,1,104.66,29a76.82,76.82,0,0,1,27.82,2.51,57.94,57.94,0,0,1,13.73,5.83V36.07a50.27,50.27,0,0,1-25,9.3A67,67,0,0,1,93.39,42a72.76,72.76,0,0,1-14.67-6.83A.76.76,0,0,0,78,36.48a74,74,0,0,0,27.54,10,61.1,61.1,0,0,0,27.66-2,47.65,47.65,0,0,0,13.82-7,.76.76,0,0,0,0-1.31,65.53,65.53,0,0,0-26.31-8.37,79.19,79.19,0,0,0-28.4,1.91A62.52,62.52,0,0,0,78,35.16C77.08,35.63,77.85,37,78.72,36.48Z"/><path class="cls-5" d="M146.76,37.47a28.71,28.71,0,0,1-3.49.33c-1.15.06-2.29.08-3.43.09-2.28,0-4.56-.06-6.83-.23a61.77,61.77,0,0,1-6.78-.81,21.08,21.08,0,0,1-6.45-2.12,20.73,20.73,0,0,0,6.51,1.74,61,61,0,0,0,6.75.43c2.26,0,4.52,0,6.77-.16a46.7,46.7,0,0,0,6.61-.76Z"/><path class="cls-5" d="M146.85,37.44a75.54,75.54,0,0,1-51.72-.65,74.77,74.77,0,0,0,51.2-.78Z"/><path class="cls-1" d="M293.89,5.16c-2.29,11.64-2.65,23.65-2.1,35.46.25,5.47.72,10.93,1.45,16.36a111.62,111.62,0,0,0,2.37,12.82A39.33,39.33,0,0,0,297,74.2a19.84,19.84,0,0,0,2.32,4.27,34,34,0,0,0,14.58,12.1c13,5.58,27.39,3.47,41.08,2.91a147.4,147.4,0,0,1,19.14.62,84.51,84.51,0,0,1,17.51,3,33.38,33.38,0,0,1,3.62,1.33c.89.4,1.67-.92.77-1.31-5.22-2.32-11-3.27-16.6-4a166.63,166.63,0,0,0-17.57-1.28c-14-.24-28.23,2.85-42-.83a33.47,33.47,0,0,1-16.23-9.55,28.67,28.67,0,0,1-4.56-6.27,21.46,21.46,0,0,1-1.33-3.51,82.8,82.8,0,0,1-2.49-11.47c-.81-5.12-1.35-10.29-1.69-15.47a159.31,159.31,0,0,1,1.11-35.19c.21-1.33.44-2.66.7-4,.19-1-1.28-1.37-1.47-.41Z"/><path class="cls-1" d="M293.86,5.37a144.74,144.74,0,0,0,8.84,37.56,121.14,121.14,0,0,0,8.39,17.31,129.15,129.15,0,0,0,11.84,16.62A162,162,0,0,0,339,94.12c.73.66,1.81-.42,1.08-1.08A155,155,0,0,1,325.83,78a137.1,137.1,0,0,1-12.2-16.46,123.66,123.66,0,0,1-14.52-34.87,153.27,153.27,0,0,1-3.72-21.26c-.1-1-1.63-1-1.53,0Z"/><path class="cls-1" d="M298.08,76.57a152.14,152.14,0,0,0,10.55,18.77,66.43,66.43,0,0,0,6.74,8.32,42.43,42.43,0,0,0,8.43,7c6.83,4.12,15.33,3.45,22.93,2.42a126.77,126.77,0,0,0,23.7-6c3.86-1.32,7.69-2.74,11.51-4.18,1.84-.69,3.66-1.4,5.55-2s3.76-1,5.63-1.58q1.36-.4,2.7-.9c.91-.34.51-1.82-.41-1.47-3.54,1.32-7.28,2-10.84,3.29-3.74,1.36-7.45,2.82-11.21,4.16a147.57,147.57,0,0,1-23.12,6.5,81.19,81.19,0,0,1-11.84,1.28,27,27,0,0,1-11.31-1.62,30.94,30.94,0,0,1-9-6.39,59.62,59.62,0,0,1-6.87-7.84,126.4,126.4,0,0,1-10.63-18.16c-.41-.81-.82-1.62-1.22-2.43s-1.76-.11-1.32.76Z"/><path class="cls-1" d="M306.76,92.26a31,31,0,0,0,11.35,8,49.86,49.86,0,0,0,15.41,3.26c3,.22,6.31.56,9.32-.14,1-.22.55-1.69-.41-1.47-2.57.6-5.37.31-8,.15a64.67,64.67,0,0,1-7.85-.94,35.45,35.45,0,0,1-13-5,28.8,28.8,0,0,1-5.74-5c-.65-.73-1.73.35-1.08,1.08Z"/><path class="cls-1" d="M369.72,100.21a64.58,64.58,0,0,0-12.18,2.12c-3.29.89-6.51,2-9.77,3a48.22,48.22,0,0,1-12.19,2.26,29.94,29.94,0,0,1-9.61-1,56,56,0,0,1-10.28-4.76c-.86-.47-1.63.84-.77,1.31a65.56,65.56,0,0,0,9.49,4.54,28,28,0,0,0,9.26,1.45,47.4,47.4,0,0,0,12.9-1.87c3.19-.89,6.31-2,9.49-2.93a65.39,65.39,0,0,1,13.66-2.6c1-.07,1-1.59,0-1.52Z"/><path class="cls-1" d="M293.86,5.37a178.22,178.22,0,0,0,.08,30.56c.93,10.36,2.76,20.83,6.62,30.54a53.19,53.19,0,0,0,7.66,13.58c.61.77,1.68-.31,1.08-1.07-5.95-7.44-9.17-16.82-11.24-26a147.08,147.08,0,0,1-3.27-31.25c0-5.46.15-10.92.6-16.36.08-1-1.45-1-1.53,0Z"/><path class="cls-1" d="M293.86,5.37a124.86,124.86,0,0,0,1.34,26.41,93.9,93.9,0,0,0,7.61,25.49,64.67,64.67,0,0,0,7.55,12.3c.61.77,1.68-.32,1.08-1.08A70.35,70.35,0,0,1,300,45.78a109.49,109.49,0,0,1-4.57-26,127.75,127.75,0,0,1,0-14.38c.05-1-1.47-1-1.53,0Z"/><path class="cls-6" d="M290.18,97.54c-.81-3.81-2.8-6.62-4.46-6.27s-2.34,3.72-1.53,7.54,2.8,6.62,4.45,6.27S291,101.35,290.18,97.54Z"/><path class="cls-7" d="M192.73,33.63c3.54,1.63,7,1.7,7.69.17s-1.59-4.1-5.13-5.73-7-1.71-7.69-.17S189.19,32,192.73,33.63Z"/><ellipse class="cls-6" cx="135.06" cy="82.26" rx="7.06" ry="3.06" transform="translate(-15.66 130.13) rotate(-48.96)"/><path class="cls-8" d="M75.64,203.66c3.59-1.51,6-4,5.31-5.56s-4.1-1.59-7.69-.07-6,4-5.31,5.56S72.05,205.18,75.64,203.66Z"/><path class="cls-7" d="M281.6,250.83c-.8-3.81-2.8-6.62-4.45-6.27s-2.34,3.72-1.54,7.54,2.8,6.62,4.46,6.27S282.41,254.64,281.6,250.83Z"/><path class="cls-5" d="M229.59,263.56c2.19-3.21,2.84-6.59,1.45-7.55s-4.31.89-6.51,4.1-2.85,6.6-1.45,7.55S227.39,266.78,229.59,263.56Z"/></g></g></svg>