<svg xmlns="http://www.w3.org/2000/svg" viewBox="0 0 444.66 281.82"><defs><style>.cls-1{fill:#d4955f;}.cls-2{opacity:0.51;}</style></defs><g id="Layer_2" data-name="Layer 2"><g id="BACKGROUND"><path class="cls-1" d="M295.07,163.75c1.71,7.36,8.16,15.24,4.18,22.94a22.94,22.94,0,0,1-3.3,4.53c-1.4,1.6-2.84,3.17-4.26,4.75l-4.29,4.78a22.37,22.37,0,0,1-4.43,4,13.7,13.7,0,0,1-11.58,1.38V207c4.18-1,8.45-2.15,11-5.83a33,33,0,0,0,3.12-6,23.35,23.35,0,0,0,1.83-6.12,9,9,0,0,0-1.44-6.49c-.33-.46-1.11,0-.77.45,2.44,3.39,1.25,7.71-.2,11.25a40.68,40.68,0,0,1-2.78,5.71,11,11,0,0,1-4.47,4.15,28.44,28.44,0,0,1-6.56,2.07.45.45,0,0,0,0,.86,14.62,14.62,0,0,0,10.59-.57c3.81-1.72,6.43-5.25,9.15-8.28l4.67-5.19a37.89,37.89,0,0,0,3.71-4.58,12.72,12.72,0,0,0,2-5.31,16.31,16.31,0,0,0-.52-6.18c-1.2-4.62-3.75-8.76-4.83-13.41-.13-.56-1-.32-.86.24Z" transform="translate(-0.01 0)"/><path class="cls-1" d="M289.78,198.38a31.84,31.84,0,0,0,2.57-9.09,30,30,0,0,0,.24-4.74,9.8,9.8,0,0,0-1.2-4.55,9.77,9.77,0,0,1,1.33,4.54,29.34,29.34,0,0,1-.1,4.78,32,32,0,0,1-2.34,9.27Z" transform="translate(-0.01 0)"/><path class="cls-1" d="M295.38,164.06a60.17,60.17,0,0,1,12.45,5.21c1,.54,1.89,1.13,2.83,1.7a6.61,6.61,0,0,0,2.56,1,2.42,2.42,0,0,0,2.17-.78,7.77,7.77,0,0,0,1.11-2.45c1.15-3.38,1.8-7.53,5.07-9.58,1.68-1,3.64-1.64,4.95-3.2a8.36,8.36,0,0,0,1.82-4.76c.35-4.68-2.61-8.61-5.31-12.1-.35-.46-1,.18-.63.63,2.36,3,5,6.44,5.07,10.48a7.94,7.94,0,0,1-1.38,4.87c-1.18,1.59-3.06,2.18-4.7,3.14-3,1.79-4.14,5.09-5.11,8.27-.26.85-.52,1.7-.83,2.53s-.64,2-1.71,2.08a4.62,4.62,0,0,1-2.55-.86c-.88-.52-1.73-1.08-2.61-1.58a61.76,61.76,0,0,0-13-5.47.45.45,0,0,0-.24.86Z" transform="translate(-0.01 0)"/><path class="cls-1" d="M319.53,160.6A53.14,53.14,0,0,0,306,149.92a53.41,53.41,0,0,1,14,10.31Z" transform="translate(-0.01 0)"/><path class="cls-1" d="M324.79,157.48a25.08,25.08,0,0,1-8.91-5.49,24.62,24.62,0,0,0,9.08,5Z" transform="translate(-0.01 0)"/><path class="cls-1" d="M253.08,110.82a125.15,125.15,0,0,0,17.21,18.06,64.62,64.62,0,0,0,20.95,12.17A44.43,44.43,0,0,0,315,142.52a26.7,26.7,0,0,0,10.67-4.7c3.19-2.54,4.46-6.34,4.76-10.29a24.26,24.26,0,0,0-7.78-19.45,26.54,26.54,0,0,0-2.1-1.71c-.46-.34-.91.44-.45.77a23.46,23.46,0,0,1,9.5,18.19c.08,3.79-.65,8-3.37,10.79s-6.55,4.22-10.16,5.21a42.42,42.42,0,0,1-23-.67,61,61,0,0,1-20.66-11.25,116.42,116.42,0,0,1-16.75-16.91c-.63-.76-1.26-1.53-1.88-2.31-.35-.44-1,.19-.63.63Z" transform="translate(-0.01 0)"/><path class="cls-1" d="M253.52,110.94a38.39,38.39,0,0,1,16.2-1,42.64,42.64,0,0,1,14.84,5.78c4.56,2.66,9,5.47,14,7.28a44.35,44.35,0,0,0,14.87,2.67,38.87,38.87,0,0,0,16.44-3.56c.52-.24.07-1-.45-.77-9.38,4.35-20.21,4.37-29.9,1-5.06-1.73-9.54-4.52-14.11-7.22a45.06,45.06,0,0,0-14.55-5.93,39.1,39.1,0,0,0-17.57.88.45.45,0,0,0,.24.86Z" transform="translate(-0.01 0)"/><path class="cls-1" d="M326.44,137.47a27.09,27.09,0,0,1,4.82-4.32,35.32,35.32,0,0,1,6.12-2.64,12.68,12.68,0,0,0,7.24-7,9.53,9.53,0,0,0-1.05-9.51c-2.36-3.13-6.24-5.16-9.86-6.48a25.82,25.82,0,0,0-13.54-1.23c-.57.1-.33,1,.23.86a24.64,24.64,0,0,1,11.57.73A23.34,23.34,0,0,1,342,113.6a8.69,8.69,0,0,1,2,9.16,11.76,11.76,0,0,1-6.94,6.93,34.77,34.77,0,0,0-6.23,2.69,28.25,28.25,0,0,0-5,4.46c-.39.42.24,1,.63.63Z" transform="translate(-0.01 0)"/><path class="cls-1" d="M332.25,131.86a18.37,18.37,0,0,0,3-4.68,13,13,0,0,0,1.1-5.42,12.27,12.27,0,0,0-1.43-5.35,17.53,17.53,0,0,0-3.36-4.49,18,18,0,0,1,3.48,4.43,12.61,12.61,0,0,1,1.58,5.4,13.37,13.37,0,0,1-1,5.58,19,19,0,0,1-2.92,4.88Z" transform="translate(-0.01 0)"/><path class="cls-1" d="M329.5,131.25a11.16,11.16,0,0,1-4.25,2,23.27,23.27,0,0,1-4.61.58,51.76,51.76,0,0,1-9.23-.5,85.28,85.28,0,0,1-17.78-4.8A85.2,85.2,0,0,0,311.45,133a50.2,50.2,0,0,0,9.17.36c3-.16,6.18-.67,8.54-2.57Z" transform="translate(-0.01 0)"/><path class="cls-1" d="M330.05,126.47a.44.44,0,0,1,.2.24.4.4,0,0,1,0,.25.88.88,0,0,1-.16.29,1.82,1.82,0,0,1-.39.28,8.21,8.21,0,0,1-.73.47,14.6,14.6,0,0,1-1.52.79,19.53,19.53,0,0,1-3.22,1.13,50.87,50.87,0,0,1-6.69,1.16,50.79,50.79,0,0,0,6.61-1.42,20.14,20.14,0,0,0,3.13-1.23,14.56,14.56,0,0,0,1.44-.83q.36-.22.69-.48a3.51,3.51,0,0,0,.29-.22.28.28,0,0,0,0-.08s0,.11.07.13Z" transform="translate(-0.01 0)"/><path class="cls-1" d="M297.78,142.57c1.54,2.48,3.15,5.08,3.36,8.07a7.75,7.75,0,0,1-3.41,7.3c-2.19,1.36-4.89,1.61-7.41,1.72a79.16,79.16,0,0,0-8,.51,24.1,24.1,0,0,0-7.56,2.26,15.2,15.2,0,0,0-5.76,5.21c-1.63,2.47-2.71,5.31-4.63,7.59a13.17,13.17,0,0,1-5.78,4,13.44,13.44,0,0,1-14.36-3.3c-.38-.43-1,.2-.63.63a14.11,14.11,0,0,0,13.05,4.11,14.75,14.75,0,0,0,6.47-2.94c2.27-1.8,3.66-4.31,5-6.81,1.46-2.68,3.06-5.16,5.67-6.86a20.54,20.54,0,0,1,7.63-2.8,58.9,58.9,0,0,1,8.5-.66,17.57,17.57,0,0,0,7.78-1.59,8.49,8.49,0,0,0,4.33-7.53c0-3.46-1.75-6.48-3.51-9.32-.3-.49-1.07,0-.77.45Z" transform="translate(-0.01 0)"/><path class="cls-1" d="M299.48,156.46a16.74,16.74,0,0,1-4,6.49,67.25,67.25,0,0,0-5.26,5.81,26.75,26.75,0,0,0-3.71,7.13,25.51,25.51,0,0,0-1,4c-.24,1.41-.33,2.83-.61,4.22A8.44,8.44,0,0,1,283.2,188a13.32,13.32,0,0,1-3.06,2.64,29.42,29.42,0,0,1-7.91,3.74,16.26,16.26,0,0,1-8.31.24,20.7,20.7,0,0,1-7.36-3.56c-5.21-3.85-8.92-9.58-12.25-15-.29-.49-1.07,0-.77.45,5.62,9.2,14,21,26.36,19.3a24.52,24.52,0,0,0,8.35-3c2.33-1.27,4.76-2.76,6.23-5,1.65-2.54,1.46-5.72,2.07-8.58a26,26,0,0,1,3.13-7.93,42.52,42.52,0,0,1,6.06-7.2,18.58,18.58,0,0,0,4.6-7.29c.17-.55-.69-.78-.86-.24Z" transform="translate(-0.01 0)"/><path class="cls-1" d="M252.55,110.53a78.4,78.4,0,0,0,5.91,21.79c3.08,7.06,7.72,13.44,10.09,20.8a39.57,39.57,0,0,1,1.82,13c0,.57.87.57.89,0a40.68,40.68,0,0,0-1.3-11.36,49.87,49.87,0,0,0-4.32-10.48c-1.8-3.41-3.76-6.74-5.41-10.23a75.56,75.56,0,0,1-4.13-10.78,77.24,77.24,0,0,1-2.66-12.75c-.07-.56-1-.57-.89,0Z" transform="translate(-0.01 0)"/><path class="cls-1" d="M288,174.72a23.14,23.14,0,0,1-29.89,11.09,22.89,22.89,0,0,0,29.4-11.33Z" transform="translate(-0.01 0)"/><path class="cls-1" d="M281.67,160.65a36.47,36.47,0,0,0-10.2-26.51,36.72,36.72,0,0,1,10.74,26.52Z" transform="translate(-0.01 0)"/><path class="cls-1" d="M277.16,161.63a12.31,12.31,0,0,0-.81-9.43,12.55,12.55,0,0,1,1.32,9.58Z" transform="translate(-0.01 0)"/><path class="cls-1" d="M305.24,143.87c7.69,3.22,15.71,6.12,24.08,6.85a40.26,40.26,0,0,0,7,0c.68-.07.69-1.15,0-1.08-8.31.75-16.57-1.41-24.31-4.24-2.19-.81-4.36-1.68-6.52-2.59-.63-.26-.91.78-.28,1.05Z" transform="translate(-0.01 0)"/><path class="cls-1" d="M301.48,151.88c.52.72.93,1.49,1.4,2.24s1.17,1.65,1.77,2.45a47.52,47.52,0,0,0,3.91,4.7,35.08,35.08,0,0,0,14.71,9.1c.66.21,1-.83.29-1a34.54,34.54,0,0,1-9.63-4.83,38,38,0,0,1-8-8c-.69-.9-1.4-1.8-2-2.76-.52-.79-.95-1.63-1.51-2.4-.4-.55-1.34,0-.93.55Z" transform="translate(-0.01 0)"/><path class="cls-1" d="M298,160.47a69.2,69.2,0,0,1,10.77,20.84q1,3.16,1.69,6.42c.15.68,1.19.39,1-.29a69.62,69.62,0,0,0-8.77-21.94,65.87,65.87,0,0,0-3.8-5.57c-.42-.55-1.35,0-.93.54Z" transform="translate(-0.01 0)"/><path class="cls-1" d="M319.36,165.27c-1.17,1-.31,3.93,1.92,6.47s5,3.77,6.17,2.74.32-3.93-1.92-6.47S320.53,164.24,319.36,165.27Z" transform="translate(-0.01 0)"/><path class="cls-1" d="M315.23,191.7c1.17-1,.31-3.93-1.93-6.47s-5-3.77-6.17-2.74-.31,3.93,1.93,6.47S314.05,192.73,315.23,191.7Z" transform="translate(-0.01 0)"/><path class="cls-1" d="M331.34,146.65c-.9,1.28.61,3.9,3.38,5.85s5.74,2.5,6.64,1.22-.61-3.89-3.38-5.84S332.24,145.38,331.34,146.65Z" transform="translate(-0.01 0)"/><path class="cls-1" d="M233.94,96.6s16.1,12.15,20.7,24.94c2.81,7.81,6.27,9.75,14,12.74a38.07,38.07,0,0,1-10-17.34c-.05-.19-.08-.43.06-.56a.55.55,0,0,1,.36-.11c4.34-.22,8.38,2,12.11,4.28,3.43,2.07,6.88,4.24,9.5,7.27a42.22,42.22,0,0,0-18.37-15.36c7-3.87,20.42-1.7,20.42-1.7A160.08,160.08,0,0,0,256,105.82c-4.34-.38-16.16-8.2-19.55-11.44Z" transform="translate(-0.01 0)"/><path class="cls-1" d="M209,110.58a17.2,17.2,0,0,1,16.73,5.76c2.32,2.79,3.36,6.31,4.38,9.72s2.14,6.75,4.3,9.62a21.34,21.34,0,0,0,8.66,6.82l.34-.82c-3.79-1.44-7.84-1.86-11.78-2.71a47.52,47.52,0,0,1-10.28-3.34,27.32,27.32,0,0,1-8.66-6.19,20.16,20.16,0,0,1-4.66-8.78,15.21,15.21,0,0,1,1.13-10.73c.27-.5-.5-1-.77-.45-3.24,6.09-1.63,13.64,2.35,19,4.47,6,11.7,9.16,18.75,10.92,4.54,1.13,9.3,1.48,13.69,3.15.46.18.81-.62.34-.81a20.64,20.64,0,0,1-8.12-6.2c-2.32-3-3.46-6.46-4.52-10-1-3.39-2.1-6.81-4.35-9.61a18,18,0,0,0-7.43-5.37,17.55,17.55,0,0,0-10.33-.82c-.56.12-.33,1,.23.86Z" transform="translate(-0.01 0)"/><path class="cls-1" d="M209.2,110.06a14.37,14.37,0,0,1,17-1.58c5.81,3.63,7.66,10.93,11.68,16.11,2.16,2.78,5,5.18,8.54,5.81l.12-.88a25.22,25.22,0,0,1-15.61-3.71c-.49-.3-.94.47-.45.77a26,26,0,0,0,16.06,3.83c.46,0,.65-.78.12-.87-7.12-1.25-10.18-8.87-13.44-14.38a21,21,0,0,0-6.57-7.45,15.25,15.25,0,0,0-18,1.72c-.42.4.21,1,.63.63Z" transform="translate(-0.01 0)"/><path class="cls-1" d="M208.72,110.22a8.79,8.79,0,0,0-5.79,6c-.92,2.86-.37,5.92.36,8.76a21.33,21.33,0,0,0,4.73,9c2.58,2.84,6,4.66,9.14,6.74s7.17,5.11,7.38,9.36a.45.45,0,0,0,.89,0c.16-2.09.16-4.18.16-6.27s0-4.19-.16-6.27c-.05-.57-.94-.57-.9,0,.15,2.08.16,4.18.17,6.27s0,4.18-.16,6.27h.89c-.16-3.4-2.5-6.08-5-8.11-2.83-2.28-6.11-3.91-9-6.11a19.63,19.63,0,0,1-6.45-8.57,26.59,26.59,0,0,1-1.22-4.38,16.15,16.15,0,0,1-.39-4.27c.26-3.3,2.28-6.65,5.6-7.59a.45.45,0,0,0-.23-.86Z" transform="translate(-0.01 0)"/><path class="cls-1" d="M207,101.19c1,1.57,2.56,5.75,4.4,5.77s3.67-.39,5.5-.2c3,.31,5.68,2.21,8,4.19-4.69-2.76-6.7-3.22-11.4-.48,3.45,1.21,1.38,5.09,3,8.37s6.27,8.83,6.27,8.83-6.09-4.54-9-7-5.16-1.93-5.44-5.72c-1.14,5-2.57,6.47-1.19,11.41-1.3-2.62-2.63-5.3-3-8.21a25.51,25.51,0,0,1,.15-5.52c.33-3.22,1-6.35-.35-10.33Z" transform="translate(-0.01 0)"/><path class="cls-1" d="M231.33,129.25a42.07,42.07,0,0,0,17.61,9.19c.62.16.89-.81.26-1A41.21,41.21,0,0,1,232,128.55c-.48-.42-1.19.28-.7.7Z" transform="translate(-0.01 0)"/><path class="cls-1" d="M230,139.49a60.86,60.86,0,0,1,7.67,11.4c.3.57,1.16.06.87-.51a62.8,62.8,0,0,0-7.83-11.6c-.42-.49-1.13.22-.71.71Z" transform="translate(-0.01 0)"/><path class="cls-1" d="M249.16,135.6c-2.79-.1-5.08.87-5.13,2.18s2.17,2.44,4.95,2.54,5.08-.87,5.13-2.17S251.94,135.7,249.16,135.6Z" transform="translate(-0.01 0)"/><path class="cls-1" d="M240.44,150.14c-.58-2.73-2.09-4.71-3.36-4.44s-1.84,2.71-1.26,5.43,2.1,4.71,3.37,4.44S241,152.86,240.44,150.14Z" transform="translate(-0.01 0)"/><path class="cls-1" d="M172.72,101.22a12.44,12.44,0,0,1,6.8,10.74,18,18,0,0,1-1.82,7.25,23.41,23.41,0,0,0-2.09,7.36,15.45,15.45,0,0,0,1.78,8.16l.55-.33a55.15,55.15,0,0,0-5.22-6.69,34.51,34.51,0,0,1-4.53-7c-2.18-4.58-2.8-9.93-.43-14.58a11,11,0,0,1,5.42-5.23c.38-.16,0-.72-.32-.56-4.41,1.88-6.88,6.55-7.24,11.16-.44,5.52,2.21,10.79,5.42,15.09,2.06,2.74,4.61,5.14,6.35,8.12a.32.32,0,0,0,.55-.33,14.8,14.8,0,0,1-1.67-7.94c.19-2.72,1.29-5.18,2.3-7.67a16.92,16.92,0,0,0,1.58-7.19,13.22,13.22,0,0,0-1.86-6,12.69,12.69,0,0,0-5.25-4.89c-.37-.18-.7.37-.32.56Z" transform="translate(-0.01 0)"/><path class="cls-1" d="M173,101a10.33,10.33,0,0,1,10.57,7.88c.68,3.12-.12,6.32-.64,9.4a55.8,55.8,0,0,1-1.85,6.45c-.58,2-1.13,4.39.32,6.11l.39-.51a18,18,0,0,1-3.38-2.49,10.15,10.15,0,0,1-1.87-3.69c-.14-.39-.76-.22-.62.17a11,11,0,0,0,2,3.89,17.71,17.71,0,0,0,3.58,2.68c.32.21.61-.24.39-.51-1.42-1.68-.54-4.31,0-6.15.36-1.13.77-2.24,1.11-3.38a35.5,35.5,0,0,0,.76-3.69c.52-2.93,1.09-6,.29-8.94a10.65,10.65,0,0,0-3.82-5.58,10.8,10.8,0,0,0-7.25-2.29c-.41,0-.42.68,0,.65Z" transform="translate(-0.01 0)"/><path class="cls-1" d="M172.76,100.9a6.43,6.43,0,0,0-6.16.82,12.15,12.15,0,0,0-3.85,5.47,15,15,0,0,0-1.14,7.77c.39,3,1.7,5.77,2.46,8.66.33,1.27.88,2.46,1.29,3.7s.79,2.67,0,3.82c-.22.3.25.64.5.39,1.77-1.81,4.45-2.57,6-4.65.24-.33-.31-.66-.56-.32-1.45,2-4.14,2.76-5.85,4.51l.5.39c1.24-1.75.18-4.12-.49-5.89-.43-1.12-.73-2.26-1.08-3.41-.41-1.37-.92-2.7-1.34-4.06a15.22,15.22,0,0,1-.45-8.27,16.54,16.54,0,0,1,2.91-6.17c1.61-2,4.5-3.26,7-2.2.37.16.7-.4.32-.56Z" transform="translate(-0.01 0)"/><path class="cls-1" d="M175.7,95.12c-.17,1.32-1,4.32,0,5.17s2.24,1.45,3.18,2.39c1.57,1.56,2.18,3.83,2.6,6-1.38-3.68-2.3-4.86-6.19-5.45,1.39,2.25-1.54,3.48-2.12,6.07a45.94,45.94,0,0,0-.49,7.81s-1.36-5.32-1.86-8-2-3.43-.46-5.69c-2.92,2.29-4.38,2.47-5.85,5.87a18.19,18.19,0,0,1,2.06-6,18.33,18.33,0,0,1,2.6-3c1.65-1.66,2.19-2.78,3.23-5.64Z" transform="translate(-0.01 0)"/><path class="cls-1" d="M245,101.76C235,93.39,225.41,84.71,215.82,76c-8.62-7.86-17.22-15.75-26.12-23.31a304,304,0,0,0-27.23-20.84,260.89,260.89,0,0,0-31.88-18.31A157.89,157.89,0,0,0,95.33.93C93.8.6,92.26.3,90.72,0a1.54,1.54,0,0,0-1.84,1.05,1.5,1.5,0,0,0,1,1.84,145.59,145.59,0,0,1,35.27,11.36,256.18,256.18,0,0,1,32.32,17.86A280.52,280.52,0,0,1,184.7,52.37c8.87,7.39,17.41,15.16,25.94,22.94,9.33,8.5,18.67,17,28.26,25.22q2,1.68,3.94,3.35a1.55,1.55,0,0,0,2.12,0,1.52,1.52,0,0,0,0-2.12Z" transform="translate(-0.01 0)"/><path class="cls-1" d="M208.65,107.06c-2.2-7.82-4.57-15.59-7.27-23.25a231.85,231.85,0,0,0-9.26-22.71Q189.2,54.92,185.78,49a1.5,1.5,0,0,0-2.59,1.51A182.75,182.75,0,0,1,193.7,72c3.07,7.46,5.75,15.07,8.17,22.76q2.06,6.51,3.89,13.09a1.5,1.5,0,0,0,2.89-.8Z" transform="translate(-0.01 0)"/><path class="cls-1" d="M174.77,98.33c1.15-6.17,3.75-11.9,6-17.71A89,89,0,0,0,185.87,62a90.18,90.18,0,0,0,1-11c.07-1.93-2.93-1.93-3,0a85.15,85.15,0,0,1-2.73,18.78c-1.6,6.09-4.1,11.82-6.33,17.69a58.75,58.75,0,0,0-3,10,1.55,1.55,0,0,0,1,1.85,1.52,1.52,0,0,0,1.85-1Z" transform="translate(-0.01 0)"/><path class="cls-1" d="M184.65,49.68a116.16,116.16,0,0,0,23.11,14.74A116.72,116.72,0,0,0,229,72.94a20.91,20.91,0,0,0,6.84,1,26.73,26.73,0,0,0,14.67-5.36c8.4-6.43,12.49-16.51,17-25.72a117.83,117.83,0,0,1,7.82-13.39,69.27,69.27,0,0,1,9.21-11.67A26.53,26.53,0,0,1,287,15.69c.47-.36,0-1.16-.47-.8-3.7,2.79-6.63,6.54-9.32,10.28a121.78,121.78,0,0,0-7.91,12.29c-5.1,9.21-8.46,19.63-15.93,27.34a26.35,26.35,0,0,1-13.22,7.6,21.11,21.11,0,0,1-5.92.61,19.92,19.92,0,0,1-3.06-.5,69.86,69.86,0,0,1-8.83-2.73c-3.82-1.42-7.58-3-11.26-4.78a124.46,124.46,0,0,1-23.3-14c-.84-.65-1.66-1.32-2.47-2-.46-.39-1.12.27-.66.65Z" transform="translate(-0.01 0)"/><path class="cls-1" d="M184.74,49.76A113.79,113.79,0,0,0,214.11,58a93.76,93.76,0,0,0,15.25.79A103.11,103.11,0,0,0,245.13,57a127.55,127.55,0,0,0,17.55-4.38c.56-.19.32-1.08-.25-.89a121.43,121.43,0,0,1-15.28,3.93,110.79,110.79,0,0,1-15.7,2.16,96.83,96.83,0,0,1-29.93-3.21A119,119,0,0,1,185.21,49c-.54-.23-1,.57-.47.81Z" transform="translate(-0.01 0)"/><path class="cls-1" d="M235.1,74a108.86,108.86,0,0,0,18.59-.28,47.93,47.93,0,0,0,8.78-1.92,24.72,24.72,0,0,0,7.86-3.9,21,21,0,0,0,5-6.41A59.78,59.78,0,0,0,279,53.36a102.64,102.64,0,0,0,4.51-17.54c.6-3.34,1.1-6.69,1.6-10,.25-1.74.57-3.45,1-5.17s.86-3.43,1.12-5.19c.09-.58-.8-.83-.89-.24-.46,3-1.46,6-1.92,9s-.85,5.82-1.33,8.72a119.52,119.52,0,0,1-4,17.35,66.14,66.14,0,0,1-3.24,8.24,28.6,28.6,0,0,1-4.44,7.08,18.42,18.42,0,0,1-7.23,4.6,43.83,43.83,0,0,1-8.58,2.3c-6.76,1.12-13.67.87-20.49.56-.6,0-.59.91,0,.93Z" transform="translate(-0.01 0)"/><path class="cls-1" d="M249.13,74a24.24,24.24,0,0,0,10.09-5,40,40,0,0,0,7.92-9.28,23.73,23.73,0,0,0,3.27-6.14.46.46,0,0,0-.89-.25,21.39,21.39,0,0,1-2.76,5.27,52.16,52.16,0,0,1-3.52,4.95,28.45,28.45,0,0,1-8.46,7.33,22.94,22.94,0,0,1-5.89,2.18c-.59.13-.34,1,.24.9Z" transform="translate(-0.01 0)"/><path class="cls-1" d="M278.71,34a52.18,52.18,0,0,0-3.35,9.87c-.65,2.75-1.1,5.54-1.76,8.29-1.28,5.34-3.47,10.86-7.58,14.67a46.3,46.3,0,0,1-6.82,4.89c-.5.32,0,1.12.47.8A58.33,58.33,0,0,0,266,68.16a20.72,20.72,0,0,0,4.28-5,33.66,33.66,0,0,0,3.79-8.8c.76-2.8,1.25-5.65,1.86-8.48a53.64,53.64,0,0,1,3.63-11.33c.25-.54-.55-1-.8-.47Z" transform="translate(-0.01 0)"/><path class="cls-1" d="M184.74,49.76a142.22,142.22,0,0,0,21,11.61,85.76,85.76,0,0,0,23.28,7,41.3,41.3,0,0,0,12.26-.06c.59-.1.34-1-.25-.89-7.4,1.24-15.07-.11-22.19-2.2a115.71,115.71,0,0,1-22.69-9.66c-3.75-2.05-7.42-4.26-11-6.64-.49-.33-1,.47-.47.81Z" transform="translate(-0.01 0)"/><path class="cls-1" d="M184.74,49.76c11.65,7.32,25.17,12.74,39,13.62a51.31,51.31,0,0,0,11.21-.5c.58-.09.33-1-.25-.89-13.48,2.15-27.51-1.77-39.61-7.58A99,99,0,0,1,185.21,49c-.5-.32-1,.49-.47.81Z" transform="translate(-0.01 0)"/><g class="cls-2"><path class="cls-1" d="M1.49,257.23C5.87,230.54,20,206,40.21,188.09A114.63,114.63,0,0,1,75,166.85c15.46-5.91,32.9-8.63,48.92-3.28,29,9.69,44.36,39.13,61.6,62,8.59,11.41,18.36,22.32,30.85,29.54a77.92,77.92,0,0,0,37.36,10.06,89.85,89.85,0,0,0,38.42-7.91,85.26,85.26,0,0,0,17.05-10.18c5.41-4.17,10.83-9.08,13.7-15.41,2.46-5.42,2.78-12.07-.42-17.28s-9.35-7.07-15.23-6.27c-12.5,1.69-22.54,12.27-26.75,23.68a36.18,36.18,0,0,0,5.2,34.83c7.72,10,20.14,16.07,32.83,15,14-1.13,26.43-9.64,35.69-19.77a97.52,97.52,0,0,0,21.9-40.35c8.54-31.38,4-64.46,10.46-96.17a144,144,0,0,1,41.3-74.63,141.78,141.78,0,0,1,16.43-13.51c.8-.56,0-1.88-.77-1.31a145.74,145.74,0,0,0-50.25,62.6,149.7,149.7,0,0,0-10.45,41c-1.82,15.7-1.91,31.53-3,47.28-1.07,15.56-3.17,31.23-9,45.8-5.58,14-14.66,27.13-26.52,36.51-11.17,8.82-25.87,14.15-39.87,9.32-12.26-4.22-22.25-15.14-24.39-28.06-2.1-12.7,3.44-26.19,13.34-34.26,5.35-4.36,12.78-7.75,19.8-6.33,7.68,1.54,11.1,9.37,9.81,16.59s-6.94,13.12-12.47,17.72a82.71,82.71,0,0,1-16.52,10.64,88.22,88.22,0,0,1-38.69,9,76.78,76.78,0,0,1-37.65-9.54c-12.84-7.27-22.8-18.51-31.52-30.2-16.24-21.77-30.54-48.24-56.54-59.79-26.49-11.76-57.79-1.19-80.24,14.69A122.25,122.25,0,0,0,4.56,238.65,112.42,112.42,0,0,0,0,256.83c-.16,1,1.31,1.37,1.47.4Z" transform="translate(-0.01 0)"/></g></g></g></svg>