<?xml version="1.0" encoding="iso-8859-1"?>
<!-- Generator: Adobe Illustrator 25.3.1, SVG Export Plug-In . SVG Version: 6.00 Build 0)  -->
<svg version="1.1" xmlns="http://www.w3.org/2000/svg" xmlns:xlink="http://www.w3.org/1999/xlink" x="0px" y="0px"
	 viewBox="0 0 750 500" style="enable-background:new 0 0 750 500;" xml:space="preserve">
<g id="bg">
	<g>
		<g>
			<path style="fill:none;stroke:#CEDBED;stroke-width:2.1183;stroke-miterlimit:10;" d="M671.645,191.411
				c3.757,12.528,6.13,26.199,7.147,41.065c3.651,53.423-10.978,100.502-23.892,130.59c-7.241,16.87-14.748,30.422-20.376,39.667"/>
			<path style="fill:none;stroke:#CEDBED;stroke-width:2.1183;stroke-miterlimit:10;" d="M105.747,400.176
				c-15.36-76.25-17.855-137.769-7.643-187.842c3.954-19.393,9.888-37.321,17.729-53.615"/>
			<path style="fill:none;stroke:#CEDBED;stroke-width:2.1183;stroke-miterlimit:10;" d="M662.727,183.822
				c5.529,14.562,8.889,30.898,10.135,49.116c3.56,52.081-10.742,98.075-23.368,127.488c-7.985,18.603-16.268,33.041-21.879,41.97"
				/>
			<path style="fill:none;stroke:#CEDBED;stroke-width:2.1183;stroke-miterlimit:10;" d="M111.831,400.181
				c-15.42-75.966-18.005-137.033-7.917-186.499c5.034-24.685,13.353-46.901,24.801-66.279"/>
			<path style="fill:none;stroke:#CEDBED;stroke-width:2.1183;stroke-miterlimit:10;" d="M652.893,176.239
				c7.902,16.352,12.547,35.339,14.039,57.161c3.469,50.74-10.507,95.647-22.843,124.386c-8.969,20.895-18.247,36.317-23.549,44.429
				"/>
			<path style="fill:none;stroke:#CEDBED;stroke-width:2.1183;stroke-miterlimit:10;" d="M117.915,400.183
				C102.437,324.5,99.76,263.884,109.723,215.03c6.206-30.434,17.534-56.96,33.667-78.841"/>
			<path style="fill:#CEDBED;" d="M124.946,404.71H611.46c0,0,56.08-75.221,49.542-170.849
				c-6.538-95.627-74.199-119.467-159.389-135.099c-85.19-15.632-184.942-60.275-284.708-13.64
				C97.082,141.134,97.056,272.598,124.946,404.71z"/>
		</g>
		<linearGradient id="SVGID_1_" gradientUnits="userSpaceOnUse" x1="335.5084" y1="233.8995" x2="239.3224" y2="424.8974">
			<stop  offset="0.0532" style="stop-color:#A1C1ED"/>
			<stop  offset="1" style="stop-color:#A1C1ED;stop-opacity:0"/>
		</linearGradient>
		<path style="fill:url(#SVGID_1_);" d="M384.014,306.093c-8.943-89.304-114.55-86.861-114.55-86.861
			c-37.405-56.008-104.327-56.784-137.063-53.289c-32.073,65.072-25.82,151.777-7.455,238.767h361.872
			C474.529,310.482,384.014,306.093,384.014,306.093z"/>
		<linearGradient id="SVGID_2_" gradientUnits="userSpaceOnUse" x1="527.7897" y1="123.8183" x2="557.424" y2="325.4366">
			<stop  offset="0.0532" style="stop-color:#A1C1ED"/>
			<stop  offset="1" style="stop-color:#A1C1ED;stop-opacity:0"/>
		</linearGradient>
		<path style="fill:url(#SVGID_2_);" d="M611.46,404.71c0,0,56.08-75.221,49.542-170.849c-1.832-26.789-8.462-47.942-18.929-64.861
			c-33.347,7.121-86.39,27.881-124.094,88.271c-36.332,58.195-56.448,113.53-66.539,147.438H611.46z"/>
	</g>
	<linearGradient id="SVGID_3_" gradientUnits="userSpaceOnUse" x1="588.0549" y1="395.75" x2="588.0549" y2="232.6957">
		<stop  offset="0" style="stop-color:#6AB883"/>
		<stop  offset="1" style="stop-color:#DBB883"/>
	</linearGradient>
	<path style="fill:url(#SVGID_3_);" d="M496.837,405.45H679.36c0,0-2.114-39.303-19.026-26.624c0,0,5.285-38.91,1.586-39.012
		c-3.699-0.102-13.741,10.464-13.741,10.464s5.285-36.838-3.171-34.8c-8.456,2.038-7.927,9.359-7.927,9.359
		s5.285-38.241,0.529-60.569c-4.756-22.328,1.057-42.672-8.456-44.655c-9.513-1.983-21.668,58.253-21.668,58.253
		s-7.927-3.687-11.627,23.795c0,0-17.896-12.684-18.461,27.482c0,0-29.808-3.603-34.212,28.323c0,0-18.805-1.506-23.958,12.095
		C514.073,383.161,495.317,387.045,496.837,405.45z"/>
</g>
<g id="Layer_1">
</g>
</svg>
