<?xml version="1.0" encoding="iso-8859-1"?>
<!-- Generator: Adobe Illustrator 25.3.1, SVG Export Plug-In . SVG Version: 6.00 Build 0)  -->
<svg version="1.1" xmlns="http://www.w3.org/2000/svg" xmlns:xlink="http://www.w3.org/1999/xlink" x="0px" y="0px"
	 viewBox="0 0 750 500" style="enable-background:new 0 0 750 500;" xml:space="preserve">
<g id="chai_x5F_vapours">
	<linearGradient id="SVGID_1_" gradientUnits="userSpaceOnUse" x1="418.7863" y1="177.5349" x2="420.6361" y2="110.6804">
		<stop  offset="0.0493" style="stop-color:#FFFFFF"/>
		<stop  offset="1" style="stop-color:#FFFFFF;stop-opacity:0"/>
	</linearGradient>
	<path style="fill:url(#SVGID_1_);" d="M443.747,183.823c0,0-8.246-3.566-5.104-13.608s15.165-8.06,14.505-17.309
		c-0.669-9.372-10.116-7.003-14.505-9.645c-4.389-2.642-0.249-10.174-6.811-13.345c-6.562-3.171-13.036,1.586-22.021,3.171
		s-16.78,3.039-16.516,0c0.264-3.039,4.624-3.435,3.171-7.135c-1.453-3.699-8.852-3.699-9.909-2.643c0,0,8.06,0,8.324,2.775
		c0.264,2.775-5.971,4.096-5.694,9.117c0.277,5.021,11.243,3.964,21.945,3.303c10.702-0.661,9.738,3.567,8.899,8.852
		c-0.839,5.285,0.879,8.852,7.881,9.777c7.003,0.925,10.253,1.791,6.342,9.513c-3.37,6.652-0.693,12.816,5.62,17.176H443.747z"/>
</g>
<g id="Layer_1">
</g>
</svg>
