<?xml version="1.0" encoding="iso-8859-1"?>
<!-- Generator: Adobe Illustrator 25.3.1, SVG Export Plug-In . SVG Version: 6.00 Build 0)  -->
<svg version="1.1" xmlns="http://www.w3.org/2000/svg" xmlns:xlink="http://www.w3.org/1999/xlink" x="0px" y="0px"
	 viewBox="0 0 750 500" style="enable-background:new 0 0 750 500;" xml:space="preserve">
<g id="girl_x5F_1">
	<g>
		<g>
			<g>
				<g>
					
						<line style="fill:none;stroke:#1656BD;stroke-width:3.171;stroke-miterlimit:10;" x1="378.264" y1="316.756" x2="368.803" y2="414.821"/>
					
						<line style="fill:none;stroke:#1656BD;stroke-width:3.171;stroke-miterlimit:10;" x1="408.616" y1="316.756" x2="418.077" y2="414.821"/>
				</g>
				
					<line style="fill:none;stroke:#1656BD;stroke-width:3.171;stroke-miterlimit:10;" x1="375.905" y1="341.203" x2="411.126" y2="341.203"/>
				
					<line style="fill:none;stroke:#1656BD;stroke-width:3.3407;stroke-miterlimit:10;" x1="373.97" y1="362.836" x2="413.062" y2="362.836"/>
			</g>
			<path style="fill:#0C3069;" d="M414.678,319.569h-42.475c-1.878,0-3.4-1.522-3.4-3.4v-3.861c0-1.878,1.522-3.4,3.4-3.4h42.475
				c1.878,0,3.4,1.522,3.4,3.4v3.861C418.077,318.047,416.555,319.569,414.678,319.569z"/>
		</g>
		
			<ellipse style="fill:#CEDBED;stroke:#000000;stroke-width:0.5;stroke-miterlimit:10;" cx="386.349" cy="423.427" rx="6.9" ry="3.753"/>
		<g>
			<path style="fill:#FF6D6D;" d="M386.867,383.775l0.213,19.573c0,0,1.057,2.592,1.028,6.028c-0.029,3.436,3.05,8.741,0.322,11.204
				c-2.728,2.463-5.919,0.415-6.154-3.03c-0.235-3.445-0.033-6.787-0.938-8.669c-0.905-1.882-1.065-4.947,0.216-6.326l-3.304-18.457
				L386.867,383.775z"/>
			<path style="fill:#0C3069;" d="M385.727,410.002c-0.307,0.031-0.636,0.069-0.965,0.114c-0.86,0.117-1.669-0.434-1.852-1.282
				l-1.355-6.278c-1.281,1.379-1.121,4.444-0.216,6.326c0.905,1.882,0.703,5.224,0.938,8.669c0.235,3.445,3.426,5.493,6.154,3.03
				c2.728-2.463-0.352-7.768-0.322-11.204c0.029-3.436-1.028-6.028-1.028-6.028l0.18,4.884
				C387.293,409.134,386.625,409.911,385.727,410.002z"/>
		</g>
		<g>
			<path style="fill:#FF6D6D;" d="M429.938,376.937l2.826,19.369c0,0,1.394,2.427,1.824,5.837c0.43,3.409,4.191,8.255,1.816,11.061
				c-2.375,2.805-5.811,1.202-6.504-2.181c-0.693-3.383-0.939-6.722-2.088-8.466c-1.148-1.744-1.716-4.76-0.631-6.298l-5.741-17.85
				L429.938,376.937z"/>
			<path style="fill:#0C3069;" d="M432.312,403.081c-0.3,0.072-0.621,0.153-0.941,0.241c-0.837,0.231-1.712-0.207-2.007-1.023
				l-2.182-6.041c-1.085,1.538-0.517,4.554,0.631,6.298c1.149,1.744,1.395,5.083,2.088,8.466c0.693,3.383,4.129,4.986,6.504,2.181
				c2.375-2.805-1.386-7.651-1.816-11.061c-0.43-3.409-1.824-5.837-1.824-5.837l0.831,4.816
				C433.748,402.012,433.191,402.871,432.312,403.081z"/>
		</g>
		<path style="fill:#063359;" d="M378.052,225.376c0,0,11.693,9.667,24.773,3.567c0,0-0.044-1.519,1.277-1.519
			c1.321,0,6.562,0.959,13.829,4.404c10.218,4.845,33.554,31.053,32.591,44.305c-0.705,9.689-7.751,12.86-14.093,12.596
			c-6.342-0.264-5.814-11.01-5.814-11.01l-19.907-16.736l-3.7,27.746h-42.456l-5.99-43.425l-14.445-61.746
			c0,0,1.167-5.021,5.076-8.368c3.908-3.347,8.136-1.233,8.136-1.233L378.052,225.376z"/>
		<path style="fill:#052F4C;" d="M378.052,225.376l-20.721-51.418c0,0-4.228-2.114-8.136,1.233
			c-3.908,3.347-5.076,8.368-5.076,8.368l14.446,61.746C372.569,256.051,378.052,225.376,378.052,225.376z"/>
		<path style="opacity:0.8;fill:none;stroke:#FFFFFF;stroke-width:2;stroke-miterlimit:10;" d="M403.505,304.283
			c-1.405,0.796-3.076,0.819-4.749,0.554c-0.557-0.088-1.115-0.208-1.657-0.339c-7.242-0.869-14.204-1.616-21.375-0.216
			c-0.228-1.109-0.397-2.241-0.518-3.393c-0.603-5.759,0.012-12.003,0.67-18.17c0.014-0.644,0.027-1.285,0.039-1.925
			c0.149-7.675,0.202-15.138,0.302-23.078c0.497,0.053,0.995,0.107,1.545,0.159c0.551,0.052,1.155,0.103,1.866,0.152
			c0.485,0.057,0.968,0.117,1.449,0.178c6.282,1.849,13.282,1.849,19.637,1.372c0.473-0.056,0.944-0.122,1.417-0.2
			c0.945-0.156,1.896-0.357,2.854-0.611c0.455,0.163,0.906,0.4,1.353,0.73c0.446,0.33,0.888,0.753,1.323,1.289
			c0.068,0.484,0.091,0.966,0.083,1.443c-0.032,1.91-0.576,3.748-0.879,5.374c-0.076,0.528-0.164,1.056-0.263,1.584
			c-0.493,2.637-1.24,5.251-1.928,7.707c-0.053,0.537-0.086,1.052-0.117,1.566c-0.214,3.596-0.38,7.178-0.44,10.668
			c-0.078,0.587-0.164,1.176-0.255,1.767c-0.63,4.133-1.418,8.339-0.275,12.559C403.514,303.966,403.505,304.283,403.505,304.283z"
			/>
		<path style="fill:#063359;" d="M436.429,288.73c6.342,0.264,13.388-2.907,14.093-12.596c0.964-13.252-22.373-39.461-32.591-44.305
			c-1.586-0.752-3.069-1.379-4.442-1.91l0,0c-9.309,15.207-2.78,31.066-2.78,31.066l19.907,16.736
			C430.615,277.719,430.087,288.465,436.429,288.73z"/>
		<path style="fill:#08224A;" d="M441.02,278.417c0.121,6.415-1.803,10.778-5.523,10.328c-3.72-0.45-5.53-6.465-4.882-11.026
			L441.02,278.417z"/>
		<g id="Layer_2_3_" style="opacity:0.8;">
			<g id="Layer_1-2_2_">
				<path style="fill:#FFFFFF;" d="M392.91,280.23c0.467-0.1,0.821-0.358,1.08-0.755c-0.021,0.052-0.043,0.105-0.073,0.179l0.693,0
					l-0.433,0.623l0.16,0c0.31,0,0.618,0.007,0.924-0.002c0.113-0.004,0.171,0.036,0.196,0.144c0.01,0.035,0.023,0.07,0.037,0.104
					c0.088,0.251,0.138,0.548,0.558,0.385c-0.26,0.488-0.608,0.763-1.076,0.869c-0.12,0.025-0.242,0.036-0.363,0.033
					c-0.792,0.001-1.595,0.001-2.414,0.002c-0.819,0-1.649,0-2.483,0c-0.47,0-0.862-0.158-1.137-0.428
					c-0.276-0.27-0.433-0.653-0.423-1.104c0.009-0.482,0.015-0.965,0.015-1.447c0-0.482-0.006-0.965-0.015-1.447
					c-0.014-0.413,0.138-0.728,0.529-0.917c0.038-0.025,0.064-0.063,0.073-0.106c0.041-0.196,0.13-0.272,0.339-0.274
					c0.168-0.002,0.335,0,0.503,0c0.269,0,0.327,0.036,0.447,0.296c0.152,0,0.314,0.006,0.473-0.005
					c0.043-0.003,0.095-0.048,0.116-0.087c0.099-0.175,0.194-0.351,0.279-0.532c0.095-0.2,0.259-0.29,0.479-0.291
					c0.355-0.002,0.708-0.003,1.06-0.003c0.352,0,0.701,0.001,1.049,0.002c0.218,0,0.397,0.091,0.517,0.3
					c0.099,0.173,0.219,0.334,0.321,0.505c0.049,0.083,0.105,0.114,0.196,0.109c0.277-0.015,0.548,0.02,0.805,0.155
					c0.496,0.263,0.802,0.674,0.841,1.235c0.024,0.433,0.034,0.866,0.032,1.3s-0.017,0.868-0.033,1.302
					c-0.004,0.025-0.009,0.05-0.016,0.074c-0.03-0.063-0.053-0.107-0.07-0.152c-0.176-0.452-0.358-0.903-0.552-1.355
					c-0.194-0.451-0.401-0.903-0.615-1.355c-0.057-0.118-0.12-0.162-0.242-0.151c-0.132,0.012-0.268,0.003-0.375,0.003
					c0.14,0.297,0.277,0.589,0.4,0.885c0.034,0.098,0.044,0.202,0.028,0.304l-0.206-0.442c-0.156,0.392-0.311,0.762-0.473,1.133
					c0.133-0.438,0.097-0.855-0.152-1.282c-0.136,0.331-0.268,0.637-0.406,0.945c-0.187,0.417-0.384,0.835-0.591,1.254l-0.555,0
					c-0.002-0.021-0.006-0.041-0.012-0.061c-0.145-0.347-0.296-0.693-0.456-1.038c-0.16-0.346-0.328-0.691-0.501-1.036
					c-0.016-0.025-0.033-0.048-0.053-0.07c-0.203,0.34-0.257,0.689-0.209,1.065c-0.137-0.294-0.277-0.588-0.432-0.907
					c-0.088,0.196-0.161,0.359-0.236,0.522c-0.015-0.47,0.152-0.878,0.441-1.267c-0.178,0-0.319,0.009-0.461-0.002
					c-0.123-0.01-0.175,0.037-0.22,0.14c-0.235,0.537-0.482,1.074-0.742,1.611c-0.13,0.268-0.262,0.537-0.396,0.806
					c-0.134,0.269-0.27,0.537-0.406,0.806c-0.021,0.041-0.038,0.085-0.063,0.139c0.066,0,0.11,0,0.156,0
					c0.193-0.002,0.427,0.06,0.566-0.025c0.145-0.089,0.207-0.316,0.289-0.488c0.052-0.11,0.116-0.152,0.245-0.149
					c0.378,0.009,0.757,0.002,1.142,0.002l-0.408-0.616c0.26,0,0.47,0.012,0.678-0.006c0.107-0.01,0.156,0.023,0.217,0.092
					c0.227,0.26,0.511,0.429,0.866,0.478c0.079,0.18,0.157,0.361,0.239,0.554C392.713,280.586,392.812,280.409,392.91,280.23z
					 M393.367,280.78c0.278-0.115,0.537-0.257,0.774-0.499c-0.175,0-0.317-0.003-0.46,0.002c-0.031,0-0.082,0.021-0.094,0.045
					c-0.076,0.149-0.144,0.302-0.217,0.453c-0.29,0.04-0.583,0.102-0.876,0.114c-0.207,0.009-0.414-0.048-0.622-0.076l-0.02,0.045
					c0.058,0.024,0.116,0.067,0.176,0.069c0.331,0.007,0.662-0.004,0.989,0.006C393.165,280.944,393.289,280.931,393.367,280.78z
					 M391.36,277.993c0.284-0.415,0.745-0.644,1.221-0.652c0.476-0.008,0.968,0.205,1.319,0.672
					c0.139-0.184,0.112-0.464,0.321-0.608c-0.471-0.519-1.109-0.752-1.722-0.738c-0.613,0.014-1.201,0.276-1.561,0.745
					C391.212,277.518,391.177,277.82,391.36,277.993z M389.397,276.538c-0.259,0.001-0.46,0.203-0.45,0.451
					c0.01,0.248,0.229,0.448,0.491,0.447l0,0c0.261-0.005,0.464-0.204,0.458-0.451C389.876,276.736,389.655,276.539,389.397,276.538
					L389.397,276.538z M391.033,280.283c0.257,0.235,0.495,0.405,0.811,0.501c-0.062-0.154-0.108-0.284-0.171-0.408
					c-0.025-0.047-0.071-0.081-0.126-0.092C391.395,280.275,391.238,280.282,391.033,280.283L391.033,280.283z"/>
				<path style="fill:#FFFFFF;" d="M384.3,277.472l-0.003,0.588l-1.078,0.007c-0.037,0.5-0.074,0.994-0.109,1.481
					c-0.036,0.487-0.071,0.967-0.105,1.443c-0.026,0.017-0.035,0.028-0.044,0.028c-0.307,0.022-0.302,0.021-0.318-0.28
					c-0.024-0.437-0.048-0.876-0.072-1.316c-0.024-0.44-0.048-0.881-0.072-1.322c-0.417,0.001-0.846-0.016-1.271,0.009
					c-0.239,0.014-0.257,0.074-0.261,0.316c-0.007,0.467,0.016,0.936-0.033,1.394c-0.04,0.371-0.189,0.67-0.421,0.88
					s-0.546,0.332-0.917,0.346c-0.22,0.011-0.44-0.01-0.654-0.063c-0.335-0.089-0.598-0.268-0.779-0.518
					c-0.18-0.25-0.277-0.572-0.279-0.944c-0.002-0.337-0.001-0.675,0-1.017c0.001-0.342,0.003-0.687,0.003-1.039
					c0.219,0.001,0.442-0.002,0.664,0.011c0.025,0,0.065,0.095,0.064,0.144c-0.009,0.295-0.021,0.59-0.032,0.885
					c-0.012,0.295-0.024,0.589-0.036,0.882c-0.003,0.065,0,0.13,0.003,0.194c0.017,0.339,0.18,0.607,0.418,0.756
					c0.237,0.149,0.548,0.18,0.858,0.045c0.315-0.139,0.452-0.411,0.464-0.738c0.018-0.463,0.016-0.93,0.004-1.397
					c-0.006-0.288,0.121-0.493,0.359-0.603c0.195-0.09,0.418-0.164,0.63-0.167c0.489-0.009,0.978-0.012,1.468-0.013
					s0.979-0.002,1.468-0.005C384.247,277.464,384.274,277.467,384.3,277.472z"/>
				<path style="fill:#FFFFFF;" d="M399.33,280.932c-0.26,0.056-0.431-0.018-0.587-0.24c-0.242-0.35-0.49-0.695-0.743-1.042
					c-0.253-0.347-0.512-0.697-0.779-1.056c0,0,0.002,0.584-0.01,1.169s-0.034,1.169-0.034,1.169l-0.623-0.001
					c0,0,0.037-0.874,0.042-1.747c0.005-0.873-0.023-1.745-0.023-1.745c0.148,0,0.296-0.009,0.441,0.005
					c0.05,0.005,0.106,0.058,0.143,0.104c0.248,0.315,0.493,0.631,0.733,0.947c0.24,0.316,0.478,0.633,0.714,0.95
					c0.029,0.041,0.063,0.081,0.118,0.151c0,0,0.003-0.537-0.001-1.073c-0.004-0.536-0.013-1.073-0.013-1.073l0.627,0.001
					c0,0,0.009,0.87,0.007,1.74S399.33,280.932,399.33,280.932z"/>
				<path style="fill:#FFFFFF;" d="M384.562,277.911l0.995-0.008l-0.005,1.443l0.024,0l0.001-0.39l1.551-0.013l-0.005-1.478
					l0.678-0.003c0,0,0.003,0.217,0.004,0.543s0.003,0.76,0.001,1.194c-0.002,0.434-0.008,0.868-0.012,1.193
					c-0.005,0.325-0.008,0.542-0.008,0.542l-0.666,0.004l0.016-1.397l-1.595,0.014c0.07,0.329-0.003,0.621-0.117,0.909
					c-0.114,0.287-0.27,0.569-0.367,0.879c-0.045-0.089-0.074-0.14-0.097-0.194c-0.099-0.235-0.186-0.476-0.294-0.707
					c-0.09-0.199-0.133-0.416-0.124-0.636c0.006-0.299,0.008-0.598,0.009-0.898s0.002-0.6,0.004-0.901
					C384.554,277.982,384.56,277.955,384.562,277.911z M385.046,280.109c-0.028-0.021-0.053-0.057-0.078-0.056
					c-0.092,0.001-0.183,0.016-0.275,0.025c0.006,0.062,0,0.129,0.021,0.187c0.06,0.164,0.125,0.327,0.201,0.485
					c0.022,0.046,0.088,0.101,0.131,0.099c0.044-0.002,0.11-0.057,0.133-0.105c0.077-0.159,0.143-0.323,0.205-0.488
					c0.02-0.054,0.033-0.164,0.026-0.166c-0.089-0.025-0.18-0.04-0.273-0.044C385.11,280.043,385.079,280.085,385.046,280.109z"/>
				<path style="fill:#FFFFFF;" d="M378.253,277.216c-0.139-0.001-0.279-0.008-0.418-0.001c-0.098,0.005-0.145-0.037-0.184-0.12
					c-0.109-0.235-0.05-0.547,0.143-0.71c0.259-0.22,0.58-0.253,0.814-0.086c0.286,0.204,0.393,0.545,0.247,0.819
					c-0.031,0.051-0.082,0.086-0.14,0.096C378.563,277.225,378.408,277.216,378.253,277.216L378.253,277.216z"/>
				<path style="fill:#FFFFFF;" d="M385.554,277.578l-0.975,0.007c-0.008-0.258,0.185-0.464,0.446-0.482
					C385.315,277.083,385.517,277.26,385.554,277.578z"/>
				<path style="fill:#FFFFFF;" d="M394.817,278.803c0.119,0.282,0.232,0.558,0.348,0.851l-0.535-0.001
					C394.696,279.371,394.757,279.091,394.817,278.803z"/>
				<path style="fill:#FFFFFF;" d="M382.744,281.18c0.154-0.042,0.219,0.003,0.162,0.134c-0.043,0.098-0.098,0.218-0.183,0.265
					c-0.205,0.115-0.356,0.24-0.281,0.511l-0.169,0.01c-0.059-0.299,0.006-0.454,0.244-0.609
					C382.633,281.417,382.773,281.361,382.744,281.18z"/>
				<path style="fill:#FFFFFF;" d="M396.343,280.933l-0.283,0c0.042-0.131,0.081-0.253,0.128-0.403
					C396.242,280.67,396.289,280.791,396.343,280.933z"/>
				<path style="fill:#FFFFFF;" d="M393.367,280.78c-0.078,0.152-0.202,0.165-0.351,0.16c-0.326-0.011-0.657,0-0.989-0.006
					c-0.06,0-0.117-0.044-0.176-0.069l0.02-0.045c0.208,0.027,0.415,0.085,0.622,0.076c0.293-0.012,0.586-0.074,0.877-0.114
					L393.367,280.78z"/>
				<path style="fill:#FFFFFF;" d="M390.574,279.659l-0.564,0.001l0.381-0.81C390.457,279.126,390.516,279.389,390.574,279.659z"/>
			</g>
		</g>
		<g>
			<polygon style="fill:#FFA526;" points="422.603,287.243 394.521,287.243 400.826,248.564 428.908,248.564 			"/>
			<polygon style="fill:none;stroke:#FFFFFF;stroke-width:0.7201;stroke-miterlimit:10;" points="418.971,251.735 409.73,251.735 
				410.519,246.89 419.76,246.89 			"/>
		</g>
		<path style="fill:#80371D;stroke:#000000;stroke-width:0.5;stroke-miterlimit:10;" d="M375.828,304.144
			c15.319,0.464,13.741,81.741,13.741,81.741H373.89c0,0-3.666-6.921-3.699-13.036c-0.034-6.292-2.995-12.86-3.876-19.554
			C365.434,346.6,352.574,303.439,375.828,304.144z"/>
		
			<line style="fill:none;stroke:#FFA526;stroke-width:0.7201;stroke-miterlimit:10;" x1="389.615" y1="380.064" x2="371.504" y2="380.064"/>
		<path style="fill:#80371D;stroke:#000000;stroke-width:0.5;stroke-miterlimit:10;" d="M408.357,299.496
			c15.244-1.587,24.54,79.171,24.54,79.171l-15.538,2.095c0,0-4.558-6.369-5.408-12.425c-0.875-6.231-4.686-12.345-6.454-18.861
			C403.73,342.959,385.218,301.904,408.357,299.496z"/>
		
			<line style="fill:none;stroke:#FFA526;stroke-width:0.7201;stroke-miterlimit:10;" x1="432.263" y1="373.558" x2="414.857" y2="375.978"/>
		<path style="fill:#FF6D6D;" d="M384.857,214.939l-0.776,9.584c-0.08,0.992-0.993,1.703-1.975,1.538l-4.054-0.683
			c0,0,2.378,13.546,12.618,15.46c10.24,1.914,12.155-11.893,12.155-11.893l-5.615-0.965l-2.907-13.04H384.857z"/>
		<linearGradient id="SVGID_1_" gradientUnits="userSpaceOnUse" x1="384.5553" y1="219.5184" x2="396.3452" y2="219.5184">
			<stop  offset="0" style="stop-color:#F04F4F"/>
			<stop  offset="0.9465" style="stop-color:#F04F4F;stop-opacity:0.0535"/>
			<stop  offset="1" style="stop-color:#F04F4F;stop-opacity:0"/>
		</linearGradient>
		<path style="fill:url(#SVGID_1_);" d="M394.303,214.939h-9.447l-0.301,3.723c1.835,2.098,5.569,5.168,11.79,5.436L394.303,214.939
			z"/>
		<path style="fill:#D92727;" d="M381.201,208.883c0,0-5.021-9.425,0.617-13.036c2.907-6.298,15.414-5.329,18.365,1.63
			c2.951,6.959-2.202,11.231-2.202,11.231L381.201,208.883z"/>
		<circle style="fill:#D92727;" cx="385.81" cy="189.439" r="5.879"/>
		<path style="fill:#FF6D6D;" d="M399.314,208.134c-0.78-0.439-1.378-0.23-1.639-0.09c0.253-1.83,0.438-3.345,0.438-3.345
			s-8.192,1.145-13.301-4.052c0,0-0.617,4.58-2.995,6.254c0,0,0.016,0.416,0.065,1.062c-0.311-0.113-0.82-0.184-1.452,0.171
			c-1.057,0.595-0.444,3.252,1.892,3.344c0.336,1.842,0.887,3.714,1.785,4.496c2.026,1.762,4.757,3.259,6.254,3.171
			c1.497-0.088,5.725-3.523,6.254-5.021c0.157-0.444,0.353-1.46,0.55-2.661c0.082,0.008,0.159,0.019,0.257,0.015
			C399.758,211.386,400.371,208.729,399.314,208.134z"/>
		<path style="fill:#FF6D6D;" d="M438.102,274.064l-31.578-7.135c0,0-5.417-7.268-7.003-7.598c-1.585-0.33,0.661,2.465,0.661,2.465
			s-2.261-1.606-2.848-0.549s0,2.51,0,2.51s-0.719,1.095,1.131,2.926c1.85,1.831,6.87,3.02,6.87,3.02s23.593,14.744,29.067,16.78
			C439.877,288.519,444.18,276.839,438.102,274.064z"/>
		<path style="fill:#08224A;" d="M357.331,173.958c0,0-4.228-2.114-8.136,1.233c-3.908,3.347-5.076,8.368-5.076,8.368
			C349.051,187.435,356.978,178.274,357.331,173.958z"/>
		<path style="fill:#FF6D6D;" d="M357.137,174.96l-5.906-19.146c0,0,2.18-4.492,1.85-5.813c-0.33-1.321-1.85-0.925-1.85-0.925
			s-0.286-1.387-0.507-1.652c-0.22-0.264-5.637,2.246-5.637,2.246s-0.991,2.973,0.396,3.766c0,0-0.529,2.51,1.916,2.973l5.012,25.45
			C352.411,181.857,355.843,179.176,357.137,174.96z"/>
		<path style="fill:none;stroke:#0C3069;stroke-width:0.7201;stroke-miterlimit:10;" d="M434.738,273.304
			c0,0,2.66-2.973,7.504-0.291"/>
	</g>
</g>
<g id="Layer_1">
</g>
</svg>
