<?xml version="1.0" encoding="iso-8859-1"?>
<!-- Generator: Adobe Illustrator 25.3.1, SVG Export Plug-In . SVG Version: 6.00 Build 0)  -->
<svg version="1.1" xmlns="http://www.w3.org/2000/svg" xmlns:xlink="http://www.w3.org/1999/xlink" x="0px" y="0px"
	 viewBox="0 0 750 500" style="enable-background:new 0 0 750 500;" xml:space="preserve">
<g id="girl_x5F_2">
	<g>
		<path style="fill:#FFA526;" d="M483.712,177.658c-4.844,2.731-13.388,16.295-13.388,16.295
			c-0.705-6.606,2.114-12.684,2.114-12.684s-5.99-0.088-6.694-1.497c-2.308-4.617,4.933-14.974,4.933-14.974
			c-9.777-2.29-13.3-8.192-6.87-12.067c6.43-3.876,13.741-7.311,13.741-7.311s3.844-5.994,11.448-0.881
			c4.847,3.259,4.309,9.337,5.987,11.539c1.678,2.202,6.523,5.109,4.761,6.342c0,0,7.927,2.73,9.601,10.041
			c0,0-8.016-1.49-12.508,1.325L483.712,177.658z"/>
		<path style="fill:#CEDBED;stroke:#000000;stroke-width:0.5;stroke-miterlimit:10;" d="M464.404,420.655
			c0.181,2.065-4.824,4.19-11.179,4.747c-6.355,0.556-11.653-0.667-11.833-2.732c-0.181-2.065,4.824-4.19,11.179-4.747
			C458.926,417.367,464.224,418.59,464.404,420.655z"/>
		<path style="fill:#CEDBED;stroke:#000000;stroke-width:0.5;stroke-miterlimit:10;" d="M516.339,420.655
			c0.181,2.065-4.824,4.19-11.179,4.747c-6.355,0.556-11.653-0.667-11.833-2.732c-0.181-2.065,4.824-4.19,11.179-4.747
			C510.86,417.367,516.158,418.59,516.339,420.655z"/>
		<path style="fill:#FF6D6D;" d="M460.671,378.099l-3.943,34.964l-7.04,4.895c0,0-7.247,1.066-7.219,2.519
			c0.028,1.453,15.323-0.299,19.022-0.371c3.699-0.072,0.609-2.659,0.949-5.571c0.34-2.912,8.8-36.643,8.8-36.643L460.671,378.099z"
			/>
		<path style="fill:#FF6D6D;" d="M503.505,378.099l5.158,34.964l-7.041,4.895c0,0-7.247,1.066-7.219,2.519
			c0.028,1.453,15.323-0.299,19.022-0.371c3.699-0.072,0.609-2.659,0.949-5.571c0.34-2.912-0.301-36.643-0.301-36.643
			L503.505,378.099z"/>
		<path style="fill:#456B4B;stroke:#000000;stroke-width:0.5;stroke-miterlimit:10;" d="M508.023,244.248
			c0,0,7.663,11.308,7.355,42.472l1.63,94.042h-17.638l-13.364-89.378l-7.93,48.733c0,0,3.842,11.564-4.773,40.645H457.64
			l2.913-47.727c0,0-2.208-41.575,9.066-88.787H508.023z"/>
		<path style="fill:none;stroke:#29492D;stroke-width:0.7201;stroke-miterlimit:10;" d="M486.006,291.384
			c0,0-4.583-26.349-3.35-48.37"/>
		<path style="fill:none;stroke:#29492D;stroke-width:0.7201;stroke-miterlimit:10;" d="M477.987,243.015
			c0,0-1.256,22.946,5.053,23.232"/>
		<linearGradient id="SVGID_1_" gradientUnits="userSpaceOnUse" x1="490.8185" y1="243.0148" x2="490.8185" y2="268.7355">
			<stop  offset="0.0334" style="stop-color:#000000"/>
			<stop  offset="1" style="stop-color:#000000;stop-opacity:0"/>
		</linearGradient>
		<path style="opacity:0.5;fill:url(#SVGID_1_);" d="M508.023,244.248h-38.404c-0.71,2.972-1.366,5.921-1.972,8.839
			c2.224,0.633,5.658,1.102,10.423,0.36c8.394-1.307,25.754,10.945,35.921,10.813C511.855,249.918,508.023,244.248,508.023,244.248z
			"/>
		<path style="fill:#FF6D6D;" d="M468.122,188.283l-23.148,16.494l-9.531-12.035l0.969-0.639l-3.435-8.28l-4.696,2.942
			c-1.048,0.656-1.576,1.908-1.279,3.108c0.559,2.259,1.879,5.58,4.83,5.754c0,0,2.995,19.488,11.098,21.988
			c8.104,2.499,33.736-19.609,33.736-19.609L468.122,188.283z"/>
		<linearGradient id="SVGID_2_" gradientUnits="userSpaceOnUse" x1="452.6145" y1="196.7098" x2="476.6657" y2="196.7098">
			<stop  offset="0" style="stop-color:#F04F4F"/>
			<stop  offset="0.9465" style="stop-color:#F04F4F;stop-opacity:0.0535"/>
			<stop  offset="1" style="stop-color:#F04F4F;stop-opacity:0"/>
		</linearGradient>
		<path style="fill:url(#SVGID_2_);" d="M468.122,188.283l-15.507,11.05c5.165,0.128,13.701,1.071,15.157,5.805
			c5.112-3.873,8.894-7.133,8.894-7.133L468.122,188.283z"/>
		<path style="fill:#062D47;" d="M479.686,178.591l-12.072,8.605c-0.81,0.578-0.932,1.734-0.26,2.469l9.489,10.367L479.686,178.591z
			"/>
		<path style="fill:#063359;" d="M496.837,173.786c5.109-4.232,12.86-4.848,16.383-1.061c3.523,3.788,3.788,16.648,3.788,16.648
			h-4.933c0,0-5.813,18.409-5.99,26.337c-0.176,7.928,6.518,29.42,6.518,29.42c0.925,3.171-3.171,3.435-9.909,3.435
			s-25.896,0-32.502,0s-3.567-5.549-2.246-11.23c1.321-5.681,5.901-23.122,5.99-26.821c0.088-3.7-6.65-9.337-3.611-16.56
			c3.039-7.223,8.28-16.912,13.388-16.295L496.837,173.786z"/>
		<path style="fill:none;stroke:#0C3069;stroke-width:0.7201;stroke-miterlimit:10;" d="M497.409,183.823l-1.189,7.135
			c0,0,1.453,1.652,4.955,1.784"/>
		<path style="fill:none;stroke:#0C3069;stroke-width:0.7201;stroke-miterlimit:10;" d="M492.388,186.664
			c0,0-0.729,7.729,7.86,9.513"/>
		<linearGradient id="SVGID_3_" gradientUnits="userSpaceOnUse" x1="505.3887" y1="174.972" x2="494.8064" y2="261.5538">
			<stop  offset="0" style="stop-color:#0C3069"/>
			<stop  offset="1" style="stop-color:#0C3069;stop-opacity:0"/>
		</linearGradient>
		<path style="opacity:0.57;fill:url(#SVGID_3_);" d="M506.085,215.709c0.042-1.908,0.413-4.425,0.949-7.145l-8.161-16.173
			l-2.653-1.434l0.716-4.294c-4.041,1.519-2.102,6.74-1.376,10.107c0.725,3.368-0.528,5.021-5.549,4.756
			c-5.021-0.264-4.888,0.264-1.982,5.021c2.907,4.757,4.685,11.065,3.52,20.479c-0.678,5.478-3.798,16.942-5.439,21.536
			c6.551,0,13.166,0,16.585,0c6.738,0,10.834-0.264,9.909-3.435C512.603,245.129,505.909,223.637,506.085,215.709z"/>
		<path style="fill:none;stroke:#D92727;stroke-width:0.5285;stroke-miterlimit:10;" d="M444.974,204.776
			c0,0,1.763,0.914,2.095,3.322"/>
		<linearGradient id="SVGID_4_" gradientUnits="userSpaceOnUse" x1="431.8317" y1="199.4267" x2="443.7469" y2="199.4267">
			<stop  offset="0" style="stop-color:#F04F4F"/>
			<stop  offset="0.9465" style="stop-color:#F04F4F;stop-opacity:0.0535"/>
			<stop  offset="1" style="stop-color:#F04F4F;stop-opacity:0"/>
		</linearGradient>
		<path style="fill:url(#SVGID_4_);" d="M437.965,195.927c-1.678-0.042-4.307-0.13-6.134-0.3c0,0,0.457,2.963,1.492,6.723
			c3.198-1.426,7.931-0.052,10.423,0.878L437.965,195.927z"/>
		<linearGradient id="SVGID_5_" gradientUnits="userSpaceOnUse" x1="508.2881" y1="286.37" x2="451.2104" y2="371.9865">
			<stop  offset="0.0334" style="stop-color:#000000"/>
			<stop  offset="1" style="stop-color:#000000;stop-opacity:0"/>
		</linearGradient>
		<path style="opacity:0.5;fill:url(#SVGID_5_);" d="M459.938,343.104l-2.298,37.658h15.662c8.615-29.081,4.773-40.645,4.773-40.645
			l7.931-48.733l-1.588-11.121C480.902,294.355,467.862,325.043,459.938,343.104z"/>
		<path style="fill:#0C3069;" d="M442.468,420.477c0.028,1.453,15.323-0.299,19.022-0.371c3.082-0.06,1.455-1.868,1.022-4.154
			c-6.416,3.292-3.574-2.853-5.784-2.89l-7.041,4.895C449.687,417.958,442.44,419.024,442.468,420.477z"/>
		<path style="fill:#0C3069;" d="M494.404,420.477c0.028,1.453,15.323-0.299,19.022-0.371c3.082-0.06,1.455-1.868,1.022-4.154
			c-6.416,3.292-3.574-2.853-5.784-2.89l-7.041,4.895C501.623,417.958,494.375,419.024,494.404,420.477z"/>
		<path style="fill:#FF6D6D;" d="M473.935,162.507c0,0,0.705,1.233,2.202,4.58c1.498,3.347,3.259,4.844,6.871,4.492l0.705,6.078
			c0,0-6.958,5.651-3.171,7.406c3.788,1.755,9.249-6.166,16.295-11.278c0,0-5.601-2.626-7.223-7.491
			c-2.819-8.456-7.135-6.166-9.249-15.062C480.365,151.233,477.811,160.041,473.935,162.507z"/>
		<linearGradient id="SVGID_6_" gradientUnits="userSpaceOnUse" x1="483.0077" y1="169.677" x2="494.982" y2="169.677">
			<stop  offset="0" style="stop-color:#F04F4F"/>
			<stop  offset="0.9465" style="stop-color:#F04F4F;stop-opacity:0.0535"/>
			<stop  offset="1" style="stop-color:#F04F4F;stop-opacity:0"/>
		</linearGradient>
		<path style="fill:url(#SVGID_6_);" d="M489.614,166.295c-0.117-0.35-0.237-0.675-0.358-0.99c-1.329,2.88-4.167,5.995-6.248,6.275
			l0.286,2.469l11.688-1.349C493.198,171.504,490.628,169.337,489.614,166.295z"/>
		<path style="fill:#FF6D6D;" d="M515.378,189.372c0,0-8.192-4.228-16.251,1.189l-12.948,93.544c0,0-1.85,2.179-0.661,3.137
			c1.189,0.959,3.964,0.562,7.135,0.562c3.171,0,8.72,0,8.72,0s-5.681-3.829-7.135-4.557c-1.453-0.728-1.982-2.974-1.982-2.974
			s12.155-29.332,10.966-45.583C503.223,234.691,510.754,214.212,515.378,189.372z"/>
		<g>
			<defs>
				<path id="SVGID_69_" d="M496.837,173.786c5.109-4.232,12.86-4.848,16.383-1.061c3.523,3.788,3.788,16.648,3.788,16.648h-4.933
					c0,0-5.813,18.409-5.99,26.337c-0.176,7.928,6.518,29.42,6.518,29.42c0.925,3.171-3.171,3.435-9.909,3.435s-25.896,0-32.502,0
					s-3.567-5.549-2.246-11.23c1.321-5.681,5.901-23.122,5.99-26.821c0.088-3.7-6.65-9.337-3.611-16.56
					c3.039-7.223,8.28-16.912,13.388-16.295L496.837,173.786z"/>
			</defs>
			<clipPath id="SVGID_7_">
				<use xlink:href="#SVGID_69_"  style="overflow:visible;"/>
			</clipPath>
			<path style="opacity:0.8;clip-path:url(#SVGID_7_);fill:none;stroke:#FFFFFF;stroke-width:2;stroke-miterlimit:10;" d="
				M472.611,239.017c-0.37-0.009-0.749-0.018-1.15-0.026c-0.402-0.007-0.828-0.014-1.276-0.021
				c-0.448-0.007-0.911-0.016-1.385-0.029c-0.473-0.013-0.943-0.032-1.385-0.059c-0.442-0.027-0.853-0.059-1.226-0.095
				c-0.373-0.037-0.705-0.078-0.993-0.123c-0.576-0.091-1.014-0.19-1.345-0.285c-0.332-0.095-0.586-0.178-0.791-0.238
				c-0.205-0.06-0.375-0.091-0.528-0.093c-0.198-0.058-0.387-0.093-0.568-0.103c-0.118-0.001-0.235,0.007-0.352,0.021
				c-0.119,0.014-0.241,0.029-0.367,0.044c-0.127,0.015-0.261,0.029-0.4,0.045c-0.146,0.013-0.301,0.028-0.464,0.046
				c-0.172,0.018-0.353,0.041-0.554,0.071c-0.201,0.03-0.419,0.069-0.647,0.112c-0.063-0.482-0.1-0.969-0.109-1.46
				c-0.009-0.492,0.005-0.987,0.033-1.486c0.023-0.416,0.049-0.834,0.071-1.253c0.021-0.419,0.034-0.841,0.042-1.264
				c-0.001-0.423,0-0.849,0.007-1.276c0.062-3.845,0.61-7.84,1.179-11.798c0.028-0.553,0.056-1.103,0.083-1.652
				c0.324-6.588,0.554-12.996,0.839-19.812c0.689,0.092,1.378,0.183,2.233,0.277c0.285,0.031,0.589,0.063,0.918,0.095
				c0.256,0.02,0.514,0.035,0.788,0.014c0.274-0.021,0.561-0.09,0.852-0.182c0.262-0.083,0.523-0.17,0.777-0.245
				c0.254-0.075,0.5-0.131,0.735-0.16c0.235-0.029,0.46-0.031,0.677-0.008c0.216,0.023,0.425,0.07,0.628,0.136
				c0.204,0.066,0.405,0.145,0.607,0.233s0.406,0.18,0.613,0.272c0.198,0.1,0.398,0.191,0.604,0.265
				c0.206,0.074,0.417,0.127,0.63,0.162c0.222,0.011,0.447,0.001,0.679-0.02c0.231-0.021,0.468-0.053,0.712-0.094
				c0.49-0.084,1.009-0.201,1.554-0.334c0.273-0.066,0.551-0.134,0.833-0.201c0.283-0.067,0.571-0.134,0.864-0.199
				c0.295-0.098,0.594-0.187,0.895-0.265c0.301-0.079,0.602-0.147,0.9-0.205c0.298-0.058,0.591-0.105,0.877-0.142
				s0.565-0.064,0.839-0.084c0.549-0.039,1.08-0.046,1.596-0.029c0.514,0.017,1.01,0.055,1.495,0.108
				c0.463,0.052,0.916,0.115,1.359,0.186c0.43,0.066,0.855,0.137,1.276,0.214c0.416,0.07,0.832,0.145,1.246,0.223
				c0.415,0.074,0.83,0.154,1.243,0.239c0.414,0.085,0.828,0.178,1.236,0.275c0.415,0.099,0.82,0.203,1.216,0.306
				c-0.053,0.305-0.106,0.611-0.161,0.918c-0.055,0.307-0.113,0.614-0.174,0.923s-0.127,0.618-0.195,0.928s-0.14,0.622-0.213,0.934
				c-0.073,0.312-0.147,0.624-0.22,0.937c-0.073,0.312-0.143,0.625-0.208,0.937c-0.097,0.468-0.18,0.934-0.248,1.398
				c-0.081,0.363-0.153,0.726-0.219,1.089s-0.129,0.726-0.188,1.089c-0.356,2.177-0.589,4.354-0.745,6.522
				c-0.042,0.578-0.078,1.155-0.11,1.728c-1.164,6.536,0.836,12.536,0.874,19.776c0.051,0.834,0.102,1.714,0.153,2.686
				c-0.151,0.247-4.412,0.626-8.54,0.396c-0.318-0.017-0.635-0.038-0.95-0.063c-0.315-0.024-0.629-0.051-0.946-0.071
				c-0.319-0.02-0.647-0.029-0.987-0.029c-0.34-0.001-0.69,0.003-1.049,0.004c-0.359,0.001-0.727-0.003-1.103-0.016
				c-0.376-0.013-0.76-0.038-1.143-0.074C473.44,239.096,473.03,239.058,472.611,239.017z"/>
		</g>
		<g>
			<defs>
				<path id="SVGID_71_" d="M496.837,173.786c5.109-4.232,12.86-4.848,16.383-1.061c3.523,3.788,3.788,16.648,3.788,16.648h-4.933
					c0,0-5.813,18.409-5.99,26.337c-0.176,7.928,6.518,29.42,6.518,29.42c0.925,3.171-3.171,3.435-9.909,3.435s-25.896,0-32.502,0
					s-3.567-5.549-2.246-11.23c1.321-5.681,5.901-23.122,5.99-26.821c0.088-3.7-6.65-9.337-3.611-16.56
					c3.039-7.223,8.28-16.912,13.388-16.295L496.837,173.786z"/>
			</defs>
			<clipPath id="SVGID_8_">
				<use xlink:href="#SVGID_71_"  style="overflow:visible;"/>
			</clipPath>
			<g id="Layer_2_4_" style="opacity:0.8;clip-path:url(#SVGID_8_);">
				<g id="Layer_1-2_3_">
					<path style="fill:#FFFFFF;" d="M477.064,220.175c0.168-0.058,0.321-0.161,0.464-0.305s0.279-0.33,0.409-0.553
						c-0.025,0.058-0.05,0.117-0.085,0.2l0.564-0.027l-0.43,0.696l0.132-0.007c0.27-0.012,0.561-0.013,0.882-0.025
						c0.12-0.005,0.181,0.039,0.204,0.155c0.01,0.038,0.023,0.075,0.038,0.112c0.097,0.271,0.162,0.588,0.666,0.439
						c-0.154,0.248-0.325,0.439-0.513,0.583s-0.391,0.242-0.616,0.298c-0.111,0.027-0.223,0.042-0.333,0.043
						c-0.175,0.007-0.345,0.015-0.509,0.023s-0.325,0.016-0.486,0.022c-0.159,0-0.317-0.005-0.478-0.018
						c-0.161-0.013-0.327-0.033-0.503-0.064c-0.348-0.061-0.702-0.139-1.023-0.222c-0.31-0.075-0.577-0.153-0.818-0.226
						c-0.251-0.076-0.393-0.283-0.429-0.574c-0.034-0.282,0.025-0.644,0.176-1.036c0.076-0.203,0.15-0.402,0.219-0.599
						s0.135-0.392,0.195-0.586c0.064-0.19,0.117-0.385,0.16-0.583c0.043-0.199,0.076-0.402,0.1-0.611
						c0.001-0.375,0.063-0.667,0.251-0.842c0.017-0.024,0.025-0.061,0.022-0.103c-0.014-0.193,0.018-0.269,0.131-0.274
						c0.091-0.004,0.183-0.007,0.274-0.013c0.146-0.011,0.185,0.023,0.289,0.275c0.081-0.008,0.169-0.012,0.253-0.033
						c0.023-0.006,0.046-0.054,0.053-0.095c0.032-0.182,0.057-0.366,0.073-0.553c0.014-0.207,0.095-0.311,0.234-0.332
						c0.231-0.035,0.472-0.07,0.728-0.101s0.534-0.058,0.824-0.077c0.189-0.01,0.345,0.071,0.447,0.268
						c0.082,0.165,0.182,0.319,0.263,0.485c0.038,0.081,0.088,0.111,0.176,0.105c0.269-0.017,0.54,0.019,0.791,0.159
						c0.246,0.142,0.44,0.322,0.567,0.541c0.127,0.219,0.184,0.476,0.154,0.77c-0.032,0.232-0.07,0.465-0.113,0.698
						c-0.042,0.233-0.088,0.467-0.135,0.702c-0.047,0.235-0.092,0.469-0.132,0.703c-0.041,0.234-0.076,0.469-0.107,0.703
						c-0.007,0.027-0.015,0.053-0.026,0.079c-0.035-0.07-0.061-0.119-0.079-0.169c-0.091-0.251-0.175-0.502-0.251-0.75
						s-0.143-0.497-0.202-0.744s-0.113-0.493-0.164-0.736c-0.05-0.243-0.099-0.486-0.148-0.727c-0.028-0.124-0.079-0.17-0.198-0.157
						c-0.128,0.014-0.25,0.007-0.344,0.009c0.052,0.31,0.1,0.617,0.132,0.934c0.005,0.105-0.014,0.218-0.056,0.328l-0.068-0.475
						c-0.123,0.214-0.24,0.423-0.351,0.63c-0.111,0.208-0.215,0.414-0.316,0.621c0.097-0.244,0.165-0.479,0.2-0.709
						c0.035-0.23,0.033-0.456-0.01-0.681c-0.093,0.182-0.183,0.358-0.269,0.531c-0.087,0.173-0.17,0.344-0.252,0.516
						c-0.111,0.233-0.218,0.465-0.321,0.696c-0.103,0.231-0.204,0.46-0.303,0.687l-0.369-0.012c0.003-0.021,0.004-0.043,0.003-0.063
						c-0.02-0.366-0.027-0.73-0.031-1.087c-0.004-0.357-0.015-0.705-0.038-1.046c-0.004-0.024-0.009-0.047-0.016-0.068
						c-0.174,0.341-0.283,0.681-0.356,1.047c0.005-0.289,0.002-0.573-0.012-0.876c-0.086,0.185-0.161,0.336-0.24,0.485
						c0.049-0.217,0.114-0.423,0.191-0.624c0.077-0.2,0.166-0.395,0.266-0.589c-0.093,0.01-0.167,0.024-0.239,0.019
						c-0.062-0.004-0.094,0.042-0.13,0.14c-0.094,0.255-0.203,0.502-0.326,0.736s-0.26,0.457-0.409,0.67
						c-0.147,0.215-0.301,0.425-0.453,0.639c-0.153,0.213-0.306,0.432-0.46,0.654c-0.024,0.035-0.047,0.072-0.077,0.118
						c0.031,0.008,0.052,0.013,0.074,0.019c0.092,0.023,0.183,0.112,0.28,0.054c0.101-0.06,0.208-0.257,0.308-0.4
						c0.063-0.091,0.11-0.119,0.177-0.098c0.196,0.062,0.41,0.113,0.635,0.17l-0.035-0.626c0.142,0.028,0.255,0.062,0.377,0.064
						c0.063,0,0.082,0.036,0.097,0.109c0.064,0.278,0.2,0.473,0.42,0.547c0.023,0.191,0.053,0.383,0.093,0.588
						C476.889,220.548,476.976,220.364,477.064,220.175z M477.35,220.756c0.21-0.131,0.411-0.294,0.609-0.566
						c-0.138,0.008-0.247,0.011-0.355,0.023c-0.023,0.001-0.062,0.026-0.072,0.053c-0.065,0.163-0.122,0.329-0.179,0.492
						c-0.214,0.046-0.43,0.104-0.644,0.098c-0.152-0.005-0.295-0.085-0.44-0.14l-0.022,0.042c0.038,0.032,0.074,0.083,0.118,0.091
						c0.241,0.045,0.485,0.057,0.724,0.077C477.199,220.932,477.291,220.917,477.35,220.756z M476.635,217.865
						c0.107-0.217,0.232-0.394,0.367-0.523c0.135-0.129,0.279-0.21,0.423-0.236c0.155-0.024,0.311,0.012,0.449,0.113
						c0.137,0.101,0.255,0.267,0.334,0.504c0.153-0.202,0.196-0.498,0.401-0.656c-0.147-0.261-0.342-0.441-0.554-0.544
						c-0.213-0.103-0.429-0.132-0.629-0.096c-0.2,0.036-0.382,0.136-0.536,0.288c-0.154,0.152-0.29,0.354-0.403,0.598
						C476.623,217.402,476.565,217.703,476.635,217.865z M475.687,216.528c-0.137,0.006-0.226,0.202-0.211,0.437
						c0.001,0.231,0.101,0.416,0.236,0.415l0,0c0.135-0.006,0.253-0.198,0.258-0.434
						C475.955,216.706,475.825,216.522,475.687,216.528L475.687,216.528z M475.856,220.072c0.089,0.263,0.2,0.464,0.398,0.604
						c-0.014-0.161-0.017-0.296-0.03-0.426c-0.005-0.05-0.025-0.088-0.056-0.106C476.076,220.116,475.979,220.101,475.856,220.072
						L475.856,220.072z"/>
					<path style="fill:#FFFFFF;" d="M472.611,217.151l0.027,0.534c0,0-0.191,0.054-0.365,0.106
						c-0.174,0.052-0.342,0.096-0.342,0.096c-0.018,0.241-0.049,0.482-0.099,0.721c-0.05,0.24-0.118,0.481-0.204,0.728
						c-0.085,0.251-0.188,0.51-0.307,0.779s-0.252,0.549-0.395,0.835c-0.034,0.032-0.048,0.048-0.056,0.052
						c-0.298,0.153-0.293,0.151-0.148-0.201c0.107-0.256,0.203-0.507,0.286-0.751c0.084-0.244,0.155-0.481,0.211-0.712
						s0.099-0.457,0.126-0.679c0.027-0.222,0.036-0.442,0.031-0.661c-0.095,0.002-0.194,0.003-0.301,0.003
						c-0.107,0-0.222-0.001-0.349-0.001c-0.126,0-0.261,0-0.406,0.002c-0.145,0.002-0.301,0.007-0.463,0.013
						c-0.366,0.013-0.376,0.078-0.344,0.351c0.031,0.263,0.03,0.531-0.011,0.803c-0.041,0.272-0.111,0.545-0.223,0.817
						c-0.09,0.219-0.214,0.412-0.359,0.575c-0.154,0.154-0.34,0.269-0.563,0.339c-0.245,0.041-0.527,0.03-0.87-0.048
						c-0.171-0.039-0.36-0.095-0.561-0.163s-0.413-0.148-0.633-0.236c-0.267-0.094-0.529-0.183-0.776-0.254
						c-0.247-0.071-0.479-0.13-0.696-0.191c-0.325-0.09-0.602-0.191-0.836-0.3c-0.233-0.109-0.423-0.228-0.571-0.356
						c-0.297-0.256-0.428-0.553-0.39-0.88c0.025-0.283,0.046-0.558,0.063-0.824c0.003-0.266,0-0.529-0.013-0.793
						c0.198-0.004,0.405-0.008,0.619-0.01c0.215-0.002,0.444-0.003,0.682-0.002c0.053-0.001,0.162,0.069,0.168,0.106
						c0.039,0.224,0.058,0.451,0.049,0.686c-0.009,0.235-0.049,0.48-0.109,0.732c-0.014,0.057-0.018,0.114-0.022,0.172
						c-0.017,0.157,0.052,0.305,0.191,0.44c0.139,0.135,0.352,0.257,0.624,0.365c0.266,0.124,0.599,0.253,0.967,0.382
						c0.371,0.15,0.757,0.28,1.131,0.355c0.346,0.069,0.599,0.047,0.775-0.044s0.283-0.242,0.333-0.429
						c0.071-0.265,0.104-0.535,0.096-0.805c-0.007-0.27-0.062-0.541-0.173-0.813c-0.136-0.332-0.042-0.516,0.293-0.567
						c0.137-0.021,0.284-0.044,0.445-0.062c0.161-0.018,0.337-0.03,0.524-0.027c0.199,0.001,0.393,0.001,0.574,0.001
						c0.184,0.002,0.355,0.004,0.511,0.007c0.156,0.003,0.296,0.006,0.422,0.009c0.126,0.003,0.24,0.003,0.343-0.003
						c0.103-0.006,0.197-0.016,0.286-0.031c0.089-0.015,0.174-0.035,0.257-0.056c0.169-0.045,0.333-0.083,0.497-0.115
						C472.575,217.149,472.593,217.149,472.611,217.151z"/>
					<path style="fill:#FFFFFF;" d="M483.221,221.12c-0.199,0.064-0.34-0.008-0.479-0.235c-0.104-0.184-0.205-0.371-0.302-0.561
						s-0.193-0.384-0.286-0.582c-0.094-0.199-0.188-0.401-0.285-0.607s-0.198-0.416-0.302-0.63c0,0-0.022,0.159-0.053,0.397
						c-0.032,0.238-0.07,0.553-0.104,0.868c-0.034,0.315-0.06,0.626-0.074,0.86c-0.015,0.234-0.022,0.389-0.022,0.389l-0.759-0.087
						c0,0,0.016-0.232,0.048-0.584c0.016-0.176,0.041-0.381,0.072-0.602c0.031-0.221,0.068-0.456,0.108-0.692
						s0.08-0.472,0.117-0.693c0.037-0.221,0.07-0.426,0.096-0.601c0.051-0.351,0.076-0.582,0.076-0.582
						c0.156,0.018,0.308,0.026,0.45,0.059c0.048,0.011,0.097,0.075,0.126,0.129c0.098,0.186,0.19,0.371,0.279,0.557
						c0.086,0.185,0.167,0.371,0.244,0.555c0.077,0.185,0.152,0.368,0.227,0.549c0.075,0.181,0.151,0.361,0.229,0.539
						c0.02,0.046,0.043,0.09,0.081,0.168c0,0,0.006-0.144,0.018-0.361c0.012-0.217,0.035-0.507,0.064-0.798
						c0.029-0.292,0.064-0.582,0.093-0.799c0.029-0.218,0.049-0.362,0.049-0.362l0.499,0.04c0,0-0.04,0.231-0.096,0.581
						c-0.028,0.175-0.057,0.379-0.084,0.598c-0.026,0.219-0.048,0.451-0.063,0.683s-0.022,0.461-0.022,0.675
						s0.006,0.411,0.016,0.578C483.201,220.902,483.221,221.12,483.221,221.12z"/>
					<path style="fill:#FFFFFF;" d="M472.808,217.524l0.652-0.007c0,0-0.042,0.314-0.09,0.626s-0.099,0.624-0.099,0.624l0.014-0.001
						l0.071-0.344l0.867,0.082c0,0,0.061-0.298,0.121-0.596c0.061-0.298,0.121-0.596,0.121-0.596l0.386,0.05
						c0,0-0.019,0.187-0.072,0.454c-0.052,0.267-0.151,0.61-0.267,0.957c-0.116,0.347-0.244,0.707-0.349,0.987
						c-0.104,0.28-0.179,0.473-0.179,0.473l-0.324-0.036c0,0,0.106-0.301,0.211-0.603c0.105-0.302,0.21-0.603,0.21-0.603
						s-0.217-0.016-0.431-0.026c-0.214-0.01-0.43-0.008-0.43-0.008c-0.038,0.296-0.158,0.572-0.319,0.862
						c-0.161,0.29-0.37,0.595-0.574,0.927c0.012-0.084,0.017-0.131,0.027-0.182c0.039-0.224,0.079-0.452,0.093-0.667
						c0.012-0.182,0.052-0.39,0.117-0.605c0.073-0.288,0.131-0.572,0.17-0.851c0.039-0.279,0.06-0.554,0.069-0.826
						C472.804,217.588,472.807,217.564,472.808,217.524z M472.79,219.514c-0.011-0.017-0.016-0.049-0.031-0.045
						c-0.056,0.012-0.116,0.038-0.174,0.06c-0.015,0.06-0.039,0.127-0.044,0.181c-0.017,0.154-0.034,0.306-0.045,0.452
						c-0.004,0.043,0.016,0.088,0.044,0.079c0.029-0.009,0.092-0.074,0.124-0.124c0.105-0.167,0.2-0.336,0.288-0.501
						c0.029-0.054,0.068-0.159,0.064-0.161c-0.045-0.015-0.096-0.02-0.151-0.013C472.847,219.443,472.817,219.487,472.79,219.514z"
						/>
					<path style="fill:#FFFFFF;" d="M463.727,216.655c-0.26,0.003-0.515,0.003-0.756,0.016c-0.169,0.01-0.25-0.019-0.316-0.079
						c-0.185-0.17-0.11-0.414,0.175-0.555c0.19-0.093,0.411-0.148,0.643-0.164c0.232-0.016,0.479,0.008,0.706,0.073
						c0.565,0.149,0.905,0.404,0.727,0.616c-0.045,0.039-0.138,0.067-0.255,0.077C464.34,216.654,464.027,216.652,463.727,216.655
						L463.727,216.655z"/>
					<path style="fill:#FFFFFF;" d="M473.468,217.24l-0.661-0.009c-0.028-0.23,0.08-0.417,0.262-0.428
						C473.276,216.799,473.434,216.966,473.468,217.24z"/>
					<path style="fill:#FFFFFF;" d="M478.785,218.553c0.048,0.306,0.104,0.607,0.174,0.926l-0.524,0.008
						C478.543,219.175,478.658,218.868,478.785,218.553z"/>
					<path style="fill:#FFFFFF;" d="M470.572,221.289c0.17-0.117,0.201-0.089,0.067,0.094c-0.102,0.14-0.233,0.311-0.348,0.404
						c-0.279,0.226-0.516,0.426-0.631,0.713l-0.172,0.053c0.148-0.317,0.317-0.514,0.656-0.788
						C470.314,221.627,470.485,221.498,470.572,221.289z"/>
					<path style="fill:#FFFFFF;" d="M480.282,220.911l-0.363-0.025c0.054-0.137,0.105-0.264,0.172-0.421
						C480.156,220.62,480.213,220.753,480.282,220.911z"/>
					<path style="fill:#FFFFFF;" d="M477.35,220.756c-0.058,0.162-0.151,0.177-0.262,0.171c-0.239-0.021-0.482-0.033-0.725-0.077
						c-0.044-0.008-0.079-0.06-0.117-0.092l0.022-0.042c0.145,0.054,0.288,0.135,0.44,0.14c0.215,0.007,0.43-0.052,0.645-0.097
						L477.35,220.756z"/>
					<path style="fill:#FFFFFF;" d="M475.794,219.433l-0.303-0.064l0.445-0.685C475.894,218.939,475.848,219.182,475.794,219.433z"
						/>
				</g>
			</g>
		</g>
	</g>
</g>
<g id="Layer_1">
</g>
</svg>
