<?xml version="1.0" encoding="iso-8859-1"?>
<!-- Generator: Adobe Illustrator 25.3.1, SVG Export Plug-In . SVG Version: 6.00 Build 0)  -->
<svg version="1.1" xmlns="http://www.w3.org/2000/svg" xmlns:xlink="http://www.w3.org/1999/xlink" x="0px" y="0px"
	 viewBox="0 0 750 500" style="enable-background:new 0 0 750 500;" xml:space="preserve">
<g id="left_x5F_bush">
	
		<linearGradient id="SVGID_1_" gradientUnits="userSpaceOnUse" x1="192.6246" y1="398.8935" x2="192.6246" y2="283.7294" gradientTransform="matrix(-1 0 0 1 366.2071 0)">
		<stop  offset="0" style="stop-color:#6AB883"/>
		<stop  offset="1" style="stop-color:#DBB883"/>
	</linearGradient>
	<path style="fill:url(#SVGID_1_);" d="M271.462,405.45H75.396c0,0,6.005-7.274,12.754-9.192c0,0,2.882-26.581,19.225-27.285
		c0,0,26.359-75.514,39.125-28.642c0,0-1.501-55.594,23.364-28.203c0,0,4.72-48.011,15.038-48.785
		c10.317-0.773,15.06,53.133,15.06,53.133s13.133-0.352,20.064,9.16c0,0-1.311-55.579,9.12-55.746
		c10.431-0.167,13.498,54.126,13.498,54.126s29.914-18.639,17.146,59.759C259.789,383.775,274.016,382.361,271.462,405.45z"/>
</g>
<g id="Layer_1">
</g>
</svg>
