<?xml version="1.0" encoding="iso-8859-1"?>
<!-- Generator: Adobe Illustrator 25.3.1, SVG Export Plug-In . SVG Version: 6.00 Build 0)  -->
<svg version="1.1" xmlns="http://www.w3.org/2000/svg" xmlns:xlink="http://www.w3.org/1999/xlink" x="0px" y="0px"
	 viewBox="0 0 750 500" style="enable-background:new 0 0 750 500;" xml:space="preserve">
<g id="man_x5F_1">
	<g>
		<g>
			<path style="fill:#CEDBED;stroke:#000000;stroke-width:0.5;stroke-miterlimit:10;" d="M169.596,426.601
				c1.195,2.582-4.395,7.711-12.486,11.456c-8.091,3.745-15.619,4.688-16.814,2.107c-1.195-2.582,4.395-7.711,12.486-11.456
				C160.873,424.963,168.401,424.02,169.596,426.601z"/>
			<path style="fill:#CEDBED;stroke:#000000;stroke-width:0.5;stroke-miterlimit:10;" d="M216.242,425.251
				c-1.195,2.582,4.395,7.71,12.486,11.456c8.091,3.745,15.619,4.688,16.814,2.107c1.195-2.582-4.395-7.71-12.486-11.455
				C224.965,423.612,217.437,422.669,216.242,425.251z"/>
			<path style="fill:#0C3069;" d="M219.217,410.107l1.585,11.275c0,0-1.762,5.373,0,7.223c1.762,1.85,8.632,4.404,8.632,4.404
				s11.187,5.461,12.948,4.316c1.762-1.145-9.689-12.86-9.689-12.86l-3.787-8.632l-0.852-5.466L219.217,410.107z"/>
			<path style="fill:#16A3BD;" d="M230.221,418.828c-3.622,1.398-3.54,4.967-3.54,4.967l-5.878-2.413c0,0-1.762,5.373,0,7.223
				c1.762,1.85,8.632,4.404,8.632,4.404s11.187,5.461,12.948,4.316c1.762-1.145-9.689-12.86-9.689-12.86L230.221,418.828z"/>
			<path style="fill:#0C3069;" d="M166.588,410.107v11.275c0,0,1.85,3.699,0,7.399c-1.85,3.699-22.857,10.702-23.914,9.777
				c-1.057-0.925,10.041-11.231,10.041-11.231l4.889-8.5l0.264-8.721H166.588z"/>
			<path style="fill:#16A3BD;" d="M156.779,420.261l-4.064,7.066c0,0-11.098,10.306-10.041,11.231
				c1.057,0.925,22.065-6.078,23.914-9.777c0.924-1.848,0.925-3.695,0.694-5.082l-5.572,1.25
				C160.969,422.108,158.652,420.833,156.779,420.261z"/>
			<path style="fill:#CFD8E7;stroke:#000000;stroke-width:0.5;stroke-miterlimit:10;" d="M207.678,252.792l3.435,28.539
				c0,0,4.757,19.026,5.814,32.238c1.057,13.212,15.062,98.3,15.062,98.3h-15.591c0,0-2.378-5.021-1.85-9.513
				c0.529-4.492-5.021-8.456-4.228-13.477c0.793-5.021-5.549-14.534-6.87-23.782c-1.321-9.249-21.668-73.725-21.668-73.725
				l-9.513,76.896c0,0,1.585,13.477,0,19.29c-1.585,5.813-0.529,14.005-3.171,24.311h-15.423c0,0-2.017-60.777-2.281-75.575
				c-0.264-14.798-0.122-64.966,5.944-83.502H207.678z"/>
			<linearGradient id="SVGID_1_" gradientUnits="userSpaceOnUse" x1="180.7792" y1="231.3401" x2="180.7792" y2="277.7794">
				<stop  offset="0.0268" style="stop-color:#000000"/>
				<stop  offset="1" style="stop-color:#0C3069;stop-opacity:0"/>
			</linearGradient>
			<path style="fill:url(#SVGID_1_);" d="M153.02,279.68c16.649-10.982,45.333-17.636,55.518-19.747l-0.86-7.141h-50.34
				C155.298,259.025,153.93,268.841,153.02,279.68z"/>
			<path style="fill:#063359;" d="M168.834,169.642c0,0,12.53-16.736,29.342,0c0,0,22.054-0.352,27.207,16.824l12.155,34.176
				l39.813,13.212l-1.586,6.982c0,0-30.3,2.931-43.337,0c-13.036-2.931-21.668-19.842-21.668-19.842L209,248.828
				c0,0,2.466,3.347,1.762,5.285c-0.705,1.938-6.144,2.29-12.585,2.29c-6.441,0-41.85,0-41.85,0l-9.161-80.155
				C147.166,176.248,156.503,171.668,168.834,169.642z"/>
			<path style="fill:#FF6D6D;" d="M148.86,252.799c0,0,3.076,1.86,5.223,1.002c2.146-0.858,3.72-2.933,7.298-3.434
				c3.577-0.501,4.293-0.143,4.293,0.358c0,0.501-4.865,0.93-6.725,2.289c0,0,8.005-1.439,8.156,0.072
				c0.071,0.715-6.725,0.859-8.299,1.86c0,0,7.727-0.644,7.798,0c0.072,0.644-6.725,1.025-7.798,1.979c0,0,5.58,0.024,5.223,1.169
				c-0.358,1.145-3.434-0.358-5.795,0.787c-2.361,1.145-4.15,1.574-6.654,0c-2.504-1.574-4.007-1.956-4.007-1.956L148.86,252.799z"
				/>
			<linearGradient id="SVGID_2_" gradientUnits="userSpaceOnUse" x1="204.9246" y1="197.6873" x2="229.5176" y2="231.0553">
				<stop  offset="0" style="stop-color:#06132D"/>
				<stop  offset="0.9955" style="stop-color:#134578;stop-opacity:0"/>
			</linearGradient>
			<path style="fill:url(#SVGID_2_);" d="M226.781,238.623c-0.009-0.02-4.691-10.058-7.18-14.703
				c-2.491-4.65,0.498-11.292,1.328-17.103c0.83-5.812-6.538-10.824-6.538-10.824l-3.631,25.002
				C210.761,220.994,216.96,233.132,226.781,238.623z"/>
			<path style="fill:#063359;" d="M147.166,176.248c5.219-2.278,9.324,28.721,4.067,35.589
				c-5.256,6.867-18.733,22.326-18.733,22.326s2.642,0.793,0,3.171l19.29,15.459l-1.784,6.408c0,0-20.942-4.69-34.815-12.089
				c-13.873-7.399-5.153-24.07-2.246-29.938c2.907-5.868,17.677-22.383,17.677-22.383S136.067,181.093,147.166,176.248z"/>
			<path style="fill:none;stroke:#082445;stroke-width:0.8889;stroke-miterlimit:10;" d="M142.057,193.336
				c0,0,0.509,6.038,8.887,15.967"/>
			<linearGradient id="SVGID_3_" gradientUnits="userSpaceOnUse" x1="155.0944" y1="196.8234" x2="129.8992" y2="227.4714">
				<stop  offset="0" style="stop-color:#06132D"/>
				<stop  offset="0.9955" style="stop-color:#134578;stop-opacity:0"/>
			</linearGradient>
			<path style="fill:url(#SVGID_3_);" d="M144.271,199.538c0,0-4.648,10.868-2.214,13.239c2.134,2.079-4.799,10.378-4.011,14.961
				c4.344-5.069,10.143-11.924,13.187-15.901c0.29-0.379,0.547-0.843,0.781-1.359C150.011,208.102,145.585,202.667,144.271,199.538z
				"/>
			
				<line style="fill:none;stroke:#0C3069;stroke-width:0.8889;stroke-miterlimit:10;" x1="230.817" y1="404.71" x2="214.511" y2="404.71"/>
			
				<line style="fill:none;stroke:#0C3069;stroke-width:0.8889;stroke-miterlimit:10;" x1="169.864" y1="404.71" x2="153.557" y2="404.71"/>
			
				<line style="fill:none;stroke:#0C3069;stroke-width:0.8889;stroke-miterlimit:10;" x1="181.669" y1="292.283" x2="181.669" y2="256.403"/>
			<path style="fill:none;stroke:#0C3069;stroke-width:0.8889;stroke-miterlimit:10;" d="M187.199,256.403c0,0,0,7.487,0,14.49
				c0,7.003-5.53,8.984-5.53,8.984"/>
			<path style="fill:none;stroke:#0C3069;stroke-width:0.8889;stroke-miterlimit:10;" d="M198.177,256.403
				c0,0-0.594,10.649,11.919,16.467"/>
			<path style="fill:none;stroke:#0C3069;stroke-width:0.8889;stroke-miterlimit:10;" d="M164.179,255.648
				c0,0-4.555,18.037-10.718,19.217"/>
			<path style="fill:none;stroke:#0C3069;stroke-width:0.8889;stroke-miterlimit:10;" d="M205.653,331.45c0,0,2.29,2.642,5.99,3.347
				"/>
			<path style="fill:none;stroke:#0C3069;stroke-width:0.8889;stroke-miterlimit:10;" d="M168.482,332.331
				c0,0-5.758,4.052-9.662,5.461"/>
			<path style="fill:#0F3D85;" d="M175.808,154.478l-6.771-9.552c0,0-6.288-4.595-2.66-10.882
				c3.627-6.287,15.235-2.781,20.676-1.209c0,0,11.124,0.605,11.124,8.222c0,7.617-8.585,13.421-8.585,13.421H175.808z"/>
			<path style="fill:#FF6D6D;" d="M178.083,158.72l-1.648,11.064c-0.16,1.073,0.236,2.172,1.091,2.84
				c0.986,0.771,2.632,1.554,5.248,1.554c2.44,0,4.111-0.822,5.153-1.612c0.893-0.677,1.332-1.794,1.167-2.902l-1.63-10.945H178.083
				z"/>
			<linearGradient id="SVGID_4_" gradientUnits="userSpaceOnUse" x1="176.4238" y1="164.4555" x2="188.4073" y2="164.4555">
				<stop  offset="0" style="stop-color:#F04F4F"/>
				<stop  offset="0.9465" style="stop-color:#F04F4F;stop-opacity:0.0535"/>
				<stop  offset="1" style="stop-color:#F04F4F;stop-opacity:0"/>
			</linearGradient>
			<path style="fill:url(#SVGID_4_);" d="M176.426,170.191c5.011-0.061,9.449-3.022,11.981-5.135l-0.944-6.337h-9.381l-1.648,11.064
				C176.415,169.92,176.429,170.055,176.426,170.191z"/>
			<path style="fill:#FF6D6D;" d="M185.741,136.805c0,0-3.335,7.055-11.545,8.081c0,0-0.385,18.087,8.081,18.087
				c8.466,0,10.005-15.778,10.005-15.778S185.484,141.808,185.741,136.805z"/>
			<path style="fill:none;stroke:#082445;stroke-width:0.8889;stroke-miterlimit:10;" d="M215.342,187.787
				c0,0-0.264,3.303-1.057,8.984c-0.793,5.681-3.7,22.065-3.7,22.065"/>
			<path style="fill:none;stroke:#082445;stroke-width:0.8889;stroke-miterlimit:10;" d="M218.513,196.507
				c0,0-1.806,7.927-6.254,12.155"/>
			<path style="fill:none;stroke:#082445;stroke-width:0.8889;stroke-miterlimit:10;" d="M151.637,214.345
				c0,0-2.214-18.353-1.794-25.715"/>
		</g>
		<path style="opacity:0.8;fill:none;stroke:#FFFFFF;stroke-width:2;stroke-miterlimit:10;" d="M199.128,238.922
			c-1.713,0.189-3.418,0.308-5.121,0.374c-0.426,0.016-0.852,0.029-1.277,0.039c-9.37-0.28-17.37-0.28-26.668-0.431
			c0-0.427,0-0.853,0-1.33s0-1.005-0.001-1.635c0.001-0.499,0.001-0.997,0.002-1.496c0.001-1.434,0.003-2.875,0.006-4.322
			c0.001-0.482,0.003-0.965,0.004-1.448c0.072-3.155,0.063-6.333-0.037-9.529c-0.033-1.065-0.077-2.133-0.131-3.201
			c-1.545-8.888,0.455-17.888-2.545-25.888c7,0,13,0,20.128,0.103c1.104,0.015,2.205,0.034,3.302,0.057
			c1.097,0.023,2.19,0.049,3.279,0.079c1.53-0.008,3.047-0.012,4.554-0.015c0.431-0.001,0.86-0.001,1.289-0.002
			c2.448-0.222,3.448-0.222,5.448-0.222c-2,16-4,32-2.148,47.578C199.133,238.441,199.128,238.922,199.128,238.922z"/>
		<g id="Layer_2_1_" style="opacity:0.8;">
			<g id="Layer_1-2">
				<path style="fill:#FFFFFF;" d="M186.603,216.032c0.456-0.096,0.798-0.353,1.046-0.749c-0.02,0.052-0.04,0.105-0.069,0.179
					l0.7,0.017l-0.417,0.623l0.162,0.004c0.315,0.007,0.63,0.021,0.945,0.019c0.117-0.001,0.178,0.041,0.209,0.151
					c0.012,0.036,0.027,0.072,0.044,0.106c0.104,0.257,0.172,0.561,0.598,0.403c-0.243,0.493-0.586,0.768-1.058,0.871
					c-0.121,0.024-0.244,0.034-0.368,0.03c-0.4-0.004-0.8-0.008-1.2-0.011s-0.801-0.006-1.202-0.007
					c-0.401-0.001-0.803-0.001-1.206,0c-0.403,0.001-0.806,0.004-1.21,0.008c-0.455,0.006-0.839-0.153-1.108-0.429
					c-0.269-0.276-0.423-0.669-0.418-1.133c0.005-0.494,0.01-0.984,0.011-1.468s-0.001-0.961-0.006-1.434
					c-0.008-0.403,0.144-0.712,0.527-0.9c0.037-0.024,0.063-0.062,0.072-0.104c0.044-0.19,0.132-0.265,0.334-0.268
					c0.163-0.003,0.325-0.003,0.488-0.004c0.26-0.002,0.315,0.033,0.422,0.282c0.147-0.001,0.302,0.005,0.456-0.006
					c0.042-0.003,0.093-0.046,0.116-0.084c0.103-0.167,0.203-0.337,0.293-0.51c0.101-0.192,0.266-0.277,0.48-0.278
					c0.347,0,0.694,0.002,1.04,0.005c0.346,0.003,0.693,0.008,1.039,0.014c0.218,0.003,0.391,0.093,0.498,0.297
					c0.088,0.169,0.198,0.327,0.29,0.494c0.044,0.081,0.099,0.113,0.191,0.11c0.281-0.009,0.556,0.029,0.811,0.166
					c0.496,0.266,0.793,0.674,0.812,1.226c0.013,0.427,0.017,0.857,0.016,1.289c-0.001,0.433-0.005,0.869-0.007,1.307
					c-0.003,0.025-0.008,0.05-0.014,0.075c-0.034-0.064-0.059-0.109-0.079-0.155c-0.199-0.461-0.4-0.919-0.602-1.374
					c-0.202-0.455-0.404-0.906-0.607-1.354c-0.053-0.117-0.114-0.161-0.24-0.154c-0.135,0.008-0.273-0.004-0.38-0.007
					c0.127,0.293,0.256,0.582,0.372,0.877c0.033,0.098,0.041,0.201,0.023,0.301l-0.2-0.442c-0.168,0.383-0.327,0.746-0.488,1.113
					c0.131-0.435,0.1-0.85-0.138-1.275c-0.146,0.322-0.284,0.622-0.419,0.927c-0.184,0.413-0.368,0.833-0.555,1.259l-0.541-0.005
					c-0.003-0.021-0.007-0.042-0.014-0.062c-0.151-0.356-0.304-0.709-0.458-1.058s-0.311-0.693-0.469-1.033
					c-0.015-0.024-0.031-0.047-0.048-0.069c-0.2,0.334-0.256,0.681-0.212,1.057c-0.129-0.295-0.259-0.588-0.401-0.903
					c-0.086,0.194-0.158,0.355-0.231,0.518c-0.008-0.466,0.159-0.868,0.446-1.247c-0.17,0-0.305,0.009-0.439-0.001
					c-0.117-0.009-0.168,0.037-0.213,0.138c-0.117,0.263-0.236,0.528-0.356,0.795c-0.12,0.268-0.242,0.538-0.366,0.812
					c-0.123,0.274-0.248,0.549-0.373,0.827c-0.125,0.278-0.251,0.557-0.377,0.836c-0.02,0.043-0.035,0.088-0.058,0.145
					c0.063-0.001,0.106-0.002,0.149-0.003c0.185-0.005,0.411,0.055,0.542-0.035c0.137-0.094,0.191-0.33,0.267-0.51
					c0.048-0.114,0.107-0.158,0.231-0.157c0.361,0.004,0.721-0.005,1.089-0.008l-0.401-0.63c0.247-0.002,0.447,0.01,0.645-0.008
					c0.102-0.01,0.149,0.024,0.209,0.094c0.224,0.266,0.502,0.441,0.847,0.494c0.084,0.186,0.168,0.373,0.258,0.574
					C186.426,216.395,186.515,216.214,186.603,216.032z M187.081,216.604c0.27-0.114,0.522-0.256,0.749-0.499
					c-0.176-0.004-0.318-0.009-0.461-0.007c-0.031-0.001-0.08,0.02-0.092,0.045c-0.069,0.152-0.128,0.308-0.193,0.463
					c-0.285,0.038-0.57,0.098-0.856,0.108c-0.202,0.008-0.405-0.053-0.609-0.082l-0.018,0.046c0.058,0.025,0.115,0.07,0.174,0.072
					c0.322,0.009,0.645,0,0.967,0.014C186.889,216.771,187.011,216.759,187.081,216.604z M185.099,213.771
					c0.285-0.404,0.738-0.622,1.202-0.623s0.939,0.215,1.269,0.679c0.146-0.177,0.132-0.451,0.35-0.585
					c-0.221-0.257-0.487-0.445-0.772-0.567s-0.59-0.18-0.89-0.177s-0.595,0.066-0.86,0.186c-0.266,0.119-0.502,0.295-0.684,0.521
					C184.973,213.308,184.93,213.602,185.099,213.771z M183.268,212.368c-0.249,0.004-0.448,0.201-0.444,0.441
					c0.004,0.24,0.21,0.432,0.46,0.427l0,0c0.249-0.008,0.448-0.203,0.45-0.442C183.723,212.555,183.517,212.367,183.268,212.368
					L183.268,212.368z M184.793,216.076c0.253,0.242,0.488,0.418,0.797,0.518c-0.066-0.159-0.116-0.294-0.181-0.422
					c-0.026-0.049-0.071-0.083-0.124-0.095C185.139,216.068,184.989,216.076,184.793,216.076L184.793,216.076z"/>
				<path style="fill:#FFFFFF;" d="M178.225,213.358l0.001,0.581l-1.088,0.017c-0.035,0.496-0.07,0.987-0.105,1.474
					c-0.035,0.487-0.07,0.97-0.104,1.449c-0.026,0.017-0.035,0.028-0.044,0.028c-0.308,0.02-0.303,0.02-0.319-0.283
					c-0.024-0.439-0.049-0.879-0.075-1.318s-0.051-0.877-0.077-1.313c-0.419,0.001-0.849-0.017-1.276,0.008
					c-0.239,0.014-0.257,0.073-0.26,0.313c-0.006,0.463,0.019,0.929-0.029,1.387c-0.078,0.741-0.597,1.204-1.341,1.236
					c-0.221,0.013-0.442-0.007-0.658-0.058c-0.673-0.173-1.06-0.711-1.065-1.456c-0.005-0.673,0-1.347,0-2.044
					c0.219,0,0.442-0.005,0.665,0.007c0.025,0,0.065,0.094,0.064,0.142c-0.018,0.586-0.043,1.171-0.064,1.756
					c-0.003,0.065,0,0.129,0.003,0.194c0.035,0.678,0.661,1.065,1.284,0.791c0.316-0.142,0.453-0.414,0.464-0.741
					c0.016-0.462,0.013-0.926,0-1.389c-0.008-0.285,0.119-0.488,0.358-0.598c0.196-0.09,0.42-0.163,0.632-0.166
					c0.491-0.009,0.982-0.011,1.474-0.013s0.985-0.006,1.479-0.014C178.171,213.35,178.198,213.354,178.225,213.358z"/>
				<path style="fill:#FFFFFF;" d="M193.23,216.85c-0.265,0.054-0.442-0.022-0.606-0.248c-0.258-0.355-0.523-0.704-0.794-1.056
					c-0.271-0.351-0.547-0.704-0.828-1.065c0,0,0.001,0.582,0.001,1.167c-0.001,0.586-0.003,1.175-0.003,1.175l-0.652-0.009
					c0,0,0.001-0.22,0.002-0.55c0.001-0.329,0.002-0.768,0.002-1.204c0-0.436-0.002-0.869-0.003-1.193
					c-0.001-0.324-0.003-0.539-0.003-0.539c0.155,0.003,0.311-0.004,0.463,0.012c0.052,0.005,0.11,0.059,0.147,0.104
					c0.253,0.315,0.505,0.631,0.756,0.949c0.251,0.318,0.501,0.637,0.75,0.957c0.031,0.041,0.066,0.082,0.124,0.153
					c0,0,0-0.536-0.001-1.071s-0.003-1.067-0.003-1.067l0.647,0.006c0,0,0.002,0.866,0.002,1.736
					C193.231,215.977,193.23,216.85,193.23,216.85z"/>
				<path style="fill:#FFFFFF;" d="M178.493,213.788l1.006-0.022l-0.001,1.439l0.024-0.001l0.001-0.392l1.536-0.038l-0.004-1.466
					l0.658-0.015c0,0,0.002,0.213,0.003,0.535c0.001,0.322,0.002,0.755,0,1.193c-0.002,0.438-0.006,0.881-0.01,1.215
					s-0.007,0.557-0.007,0.557l-0.648,0.013l0.014-1.428l-1.58,0.038c0.069,0.332-0.005,0.629-0.121,0.922s-0.275,0.582-0.375,0.898
					c-0.044-0.09-0.074-0.142-0.096-0.197c-0.098-0.239-0.185-0.483-0.293-0.716c-0.091-0.2-0.133-0.42-0.124-0.642
					c0.006-0.301,0.008-0.601,0.009-0.901c0.001-0.299,0-0.598,0.001-0.896C178.485,213.858,178.491,213.831,178.493,213.788z
					 M178.985,215.98c-0.028-0.021-0.054-0.057-0.079-0.056c-0.093,0.002-0.185,0.017-0.278,0.028
					c0.006,0.063-0.001,0.131,0.021,0.189c0.06,0.166,0.125,0.331,0.201,0.49c0.022,0.047,0.088,0.102,0.132,0.1
					s0.111-0.059,0.135-0.108c0.078-0.162,0.145-0.33,0.21-0.498c0.021-0.055,0.034-0.167,0.027-0.169
					c-0.089-0.025-0.182-0.039-0.275-0.041C179.049,215.912,179.018,215.955,178.985,215.98z"/>
				<path style="fill:#FFFFFF;" d="M172.15,213.127c-0.139,0-0.279-0.007-0.418,0.002c-0.098,0.006-0.145-0.035-0.184-0.118
					c-0.109-0.233-0.048-0.543,0.145-0.706c0.259-0.219,0.58-0.254,0.814-0.089c0.286,0.201,0.393,0.538,0.247,0.81
					c-0.031,0.051-0.082,0.085-0.14,0.096C172.46,213.134,172.305,213.126,172.15,213.127L172.15,213.127z"/>
				<path style="fill:#FFFFFF;" d="M179.492,213.444l-0.985,0.021c-0.01-0.254,0.184-0.459,0.446-0.48
					C179.246,212.962,179.452,213.132,179.492,213.444z"/>
				<path style="fill:#FFFFFF;" d="M188.484,214.631c0.122,0.284,0.241,0.564,0.367,0.863l-0.549-0.015
					C188.363,215.195,188.422,214.916,188.484,214.631z"/>
				<path style="fill:#FFFFFF;" d="M176.666,217.068c0.155-0.042,0.219,0.004,0.163,0.136c-0.043,0.098-0.098,0.219-0.183,0.266
					c-0.205,0.116-0.357,0.241-0.282,0.516l-0.169,0.01c-0.059-0.303,0.006-0.459,0.245-0.614
					C176.555,217.306,176.696,217.25,176.666,217.068z"/>
				<path style="fill:#FFFFFF;" d="M190.126,216.814l-0.294-0.005c0.037-0.132,0.072-0.255,0.114-0.407
					C190.008,216.546,190.062,216.669,190.126,216.814z"/>
				<path style="fill:#FFFFFF;" d="M187.081,216.604c-0.069,0.156-0.191,0.168-0.339,0.161c-0.321-0.014-0.644-0.006-0.967-0.014
					c-0.058,0-0.116-0.047-0.174-0.072l0.018-0.046c0.203,0.029,0.407,0.09,0.609,0.082c0.286-0.01,0.571-0.07,0.857-0.108
					L187.081,216.604z"/>
				<path style="fill:#FFFFFF;" d="M184.343,215.439l-0.535,0.006l0.359-0.823C184.228,214.899,184.285,215.164,184.343,215.439z"/>
			</g>
		</g>
	</g>
</g>
<g id="Layer_1">
</g>
</svg>
