<?xml version="1.0" encoding="iso-8859-1"?>
<!-- Generator: Adobe Illustrator 25.3.1, SVG Export Plug-In . SVG Version: 6.00 Build 0)  -->
<svg version="1.1" xmlns="http://www.w3.org/2000/svg" xmlns:xlink="http://www.w3.org/1999/xlink" x="0px" y="0px"
	 viewBox="0 0 750 500" style="enable-background:new 0 0 750 500;" xml:space="preserve">
<g id="man_x5F_2">
	<g>
		<g>
			<g>
				<g>
					
						<line style="fill:none;stroke:#1656BD;stroke-width:3.171;stroke-miterlimit:10;" x1="291.241" y1="316.756" x2="281.78" y2="414.821"/>
					
						<line style="fill:none;stroke:#1656BD;stroke-width:3.171;stroke-miterlimit:10;" x1="321.593" y1="316.756" x2="331.055" y2="414.821"/>
				</g>
				
					<line style="fill:none;stroke:#1656BD;stroke-width:3.171;stroke-miterlimit:10;" x1="288.883" y1="341.203" x2="324.103" y2="341.203"/>
				
					<line style="fill:none;stroke:#1656BD;stroke-width:3.3407;stroke-miterlimit:10;" x1="286.947" y1="362.836" x2="326.039" y2="362.836"/>
			</g>
			<path style="fill:#0C3069;" d="M327.655,319.569H285.18c-1.878,0-3.4-1.522-3.4-3.4v-3.861c0-1.878,1.522-3.4,3.4-3.4h42.475
				c1.878,0,3.4,1.522,3.4,3.4v3.861C331.055,318.047,329.533,319.569,327.655,319.569z"/>
		</g>
		<path style="fill:#CEDBED;stroke:#000000;stroke-width:0.5;stroke-miterlimit:10;" d="M313.149,423.427
			c0,3.327-4.958,6.024-11.073,6.024c-6.116,0-11.073-2.697-11.073-6.024c0-3.327,4.958-6.024,11.073-6.024
			C308.191,417.403,313.149,420.1,313.149,423.427z"/>
		<path style="fill:#FF6D6D;" d="M297.486,402.663l-0.284,10.245c0,0-3.016,7.61-1.494,7.783c1.523,0.173,3.897,0.262,2.883,1.975
			c-1.015,1.713-2.19,3.979,3.986,4.448c6.176,0.469,7.266-1.574,6.493-3.972c-0.625-1.937-4.066-7.53-5.365-9.606
			c-0.323-0.517-0.472-1.121-0.428-1.729l0.848-11.625L297.486,402.663z"/>
		<path style="fill:#0C3069;" d="M295.708,420.69c1.523,0.173,3.897,0.262,2.883,1.975c-1.015,1.713-2.19,3.979,3.986,4.448
			c6.176,0.469,7.266-1.574,6.493-3.972c-0.534-1.656-3.126-5.981-4.678-8.5c-1.894,0.439-4.49,1.295-5.451,2.827
			c-0.841,1.341-2,0.157-2.901-1.245C295.397,418.298,294.879,420.596,295.708,420.69z"/>
		<path style="fill:#0F3D85;stroke:#000000;stroke-width:0.5;stroke-miterlimit:10;" d="M293.03,326.869l1.586,77.841h15.855
			c0,0,3.171-4.38,2.819-14.245c-0.352-9.865,3.523-11.627,3.876-20.083c0.352-8.456,4.052-46.508,4.052-46.508L293.03,326.869z"/>
		<linearGradient id="SVGID_1_" gradientUnits="userSpaceOnUse" x1="307.0262" y1="326.7589" x2="300.6842" y2="385.4217">
			<stop  offset="0" style="stop-color:#0C3069"/>
			<stop  offset="1" style="stop-color:#0C3069;stop-opacity:0"/>
		</linearGradient>
		<path style="fill:url(#SVGID_1_);" d="M320.408,332.331c0,0-3.242,6.342-8.175,7.047c-4.933,0.705-5.637,6.518-10.394,11.979
			c-4.756,5.461-2.811,10.566-8.012,14.62l-0.797-39.107l28.186-2.995L320.408,332.331z"/>
		<path style="fill:#FF6D6D;" d="M322.45,321.496l11.92-1.02c1.075-0.092,2.134,0.266,2.935,0.989
			c1.222,1.104,2.943,3.086,4.083,6.196c1.938,5.285,2.026,8.192,4.052,8.456c2.026,0.264-1.057-25.544-1.057-25.544l-24.223-1.938
			L322.45,321.496z"/>
		<path style="fill:#0C3069;" d="M339.833,310.21l1.29,10.097l-2.781,2.208c1.042,1.167,2.202,2.846,3.045,5.147
			c1.938,5.285,2.026,8.192,4.052,8.456c2.026,0.264-1.057-25.544-1.057-25.544L339.833,310.21z"/>
		<path style="fill:#063359;" d="M303.898,219.117c-21.128,3.037-31.385,9.511-33.546,11.024v0c0,0-0.001,0-0.001,0.001
			c-0.294,0.206-0.442,0.323-0.442,0.323c0.001,0.004,0.002,0.008,0.003,0.011c-16.016,11.786-27.281,49.569-26.296,54.644
			c1.762,9.073,12.42,6.694,14.886,2.819c1.935-3.041,12.433-18.113,16.868-24.468c1.731,13.426,2.994,25.393,2.994,25.393h52.717
			l2.907-58.134C324.872,219.497,303.898,219.117,303.898,219.117z"/>
		
			<line style="fill:none;stroke:#082445;stroke-width:0.8889;stroke-miterlimit:10;" x1="275.37" y1="263.469" x2="271.769" y2="238.623"/>
		<path style="fill:none;stroke:#082445;stroke-width:0.8889;stroke-miterlimit:10;" d="M267.473,245.986
			c0,0,0.026,8.863,7.315,13.465"/>
		<path style="fill:#FF6D6D;" d="M258.473,253.485l1.478-30.544c0,0,1.268-1.595,1.767-3.708c0.499-2.113,4.29-3.914,3.76-5.262
			c-0.53-1.348-3.266,1.892-4.045,1.59c-0.779-0.302-0.618-0.89-0.886-4.937c-0.267-4.047,0.053-7.934-0.742-7.907
			c-0.795,0.028-1.311,9.328-1.311,9.328s-0.727-10.948-2.059-10.748c-1.333,0.2-0.497,10.274-0.497,10.274
			s-2.012-9.007-3.005-8.988c-0.993,0.018,0.53,9.55,0.53,9.55s-3.48-5.989-4.09-5.687c-0.61,0.301,3.156,7.23,3.156,7.23
			s-1.148,5.963,1.486,8.935l-6.45,30.348L258.473,253.485z"/>
		<linearGradient id="SVGID_2_" gradientUnits="userSpaceOnUse" x1="275.3371" y1="265.2131" x2="258.1647" y2="245.5874">
			<stop  offset="0" style="stop-color:#80371D;stop-opacity:0.8927"/>
			<stop  offset="0.0687" style="stop-color:#80371D"/>
			<stop  offset="1" style="stop-color:#80371D;stop-opacity:0"/>
		</linearGradient>
		<polygon style="fill:url(#SVGID_2_);" points="275.637,265.558 275.637,265.558 275.637,265.554 		"/>
		<linearGradient id="SVGID_3_" gradientUnits="userSpaceOnUse" x1="275.9311" y1="276.747" x2="257.1695" y2="257.589">
			<stop  offset="0" style="stop-color:#06132D"/>
			<stop  offset="0.9955" style="stop-color:#134578;stop-opacity:0"/>
		</linearGradient>
		<path style="fill:url(#SVGID_3_);" d="M275.343,263.507l-2.989-20.848c0,0-5.07,3.775-4.881,12.591
			c0.189,8.816-6.681,7.505-7.077,12.917c-0.396,5.412-5.241,9.376-5.241,9.376l2.705,11.187c0.249-0.255,0.468-0.52,0.642-0.793
			C260.433,284.902,270.893,269.884,275.343,263.507z"/>
		<path style="opacity:0.8;fill:none;stroke:#FFFFFF;stroke-width:2;stroke-miterlimit:10;" d="M314.003,286.309
			c-1.321,0.873-2.982,1.06-4.672,0.981c-0.563-0.026-1.129-0.082-1.682-0.149c-7.289-0.086-14.289-0.086-21.289,1.914
			c-0.333-1-0.611-2.028-0.842-3.078c-1.156-5.252-1.146-11.072-1.086-16.826c-0.048-0.595-0.097-1.188-0.146-1.779
			c-0.592-7.094-1.259-13.983-1.926-21.317c1,0,2,0,3.424-0.051c0.553-0.031,1.103-0.063,1.652-0.098
			c4.943-0.309,9.769-0.76,14.843-0.889c0.827-0.054,1.65-0.111,2.468-0.173c1.577-0.2,3.18-0.361,4.792-0.509
			c0.806-0.074,1.614-0.145,2.423-0.216c0.398,8.935,0.398,18.935,1.189,28.149c-0.021,0.549-0.05,1.101-0.083,1.655
			c-0.229,3.875-0.606,7.832,0.938,11.612C313.981,286.016,314.003,286.309,314.003,286.309z"/>
		<linearGradient id="SVGID_4_" gradientUnits="userSpaceOnUse" x1="319.434" y1="280.3748" x2="311.1543" y2="242.8516">
			<stop  offset="0" style="stop-color:#06132D"/>
			<stop  offset="0.9955" style="stop-color:#134578;stop-opacity:0"/>
		</linearGradient>
		<path style="fill:url(#SVGID_4_);" d="M298.976,288.862h32.106l2.319-46.389l-12.823-3.025c-5.682,4.36-7.267,9.579-7.135,13.212
			c0.132,3.633-5.946,6.87-6.672,12.023C306.198,268.75,301.1,283.024,298.976,288.862z"/>
		<path style="fill:#F04F4F;" d="M312.585,278.754l-22.725,6.342c0,0-9.051,0-10.173,3.766h34.815L312.585,278.754z"/>
		<path style="fill:#0F3D85;stroke:#000000;stroke-width:0.5;stroke-miterlimit:10;" d="M237.196,327.131
			c-3.274-12.335,6.361-23.692,36.374-23.692c36.415,0,50.818,2.114,50.818,2.114v19.378
			C324.388,324.932,241.943,345.014,237.196,327.131z"/>
		<path style="fill:#FF6D6D;" d="M302.908,208.814l3.367,10.801c0.366,1.173,0.015,2.45-0.903,3.266
			c-2.88,2.559-9.045,7.704-10.593,6.3c-2.04-1.85-2.246-14.071-2.246-14.071L302.908,208.814z"/>
		<linearGradient id="SVGID_5_" gradientUnits="userSpaceOnUse" x1="298.9717" y1="207.5693" x2="296.9238" y2="223.7544">
			<stop  offset="0" style="stop-color:#F04F4F"/>
			<stop  offset="0.9465" style="stop-color:#F04F4F;stop-opacity:0.0535"/>
			<stop  offset="1" style="stop-color:#F04F4F;stop-opacity:0"/>
		</linearGradient>
		<path style="fill:url(#SVGID_5_);" d="M303.898,211.989l-0.99-3.175l-10.376,6.295c0,0,0.089,5.285,0.731,9.43
			C298.768,222.162,302.33,215.529,303.898,211.989z"/>
		<path style="fill:#FF6D6D;" d="M285.941,205.725c0,0,1.216,11.397,3.799,12.613c2.583,1.216,11.701-5.227,13.601-9.034
			c0,0,4.924-3.041,2.462-7.071l-11.124-9.5l-9.801,3.267L285.941,205.725z"/>
		<path style="fill:#0C3069;" d="M291.445,196.683c0,0,2.907-2.026,4.316,1.057c1.409,3.083,1.762,6.078,6.871,5.99
			c0,0,0.529-2.29,3.171-1.497c0,0,0.793-3.7,1.057-7.223c0.264-3.523-5.813-13.036-16.119-3.699c0,0-5.725-2.114-8.104,3.347
			c-2.378,5.461-0.529,11.539-0.529,11.539s2.643,1.85,7.663,0C289.771,206.196,285.72,194.922,291.445,196.683z"/>
		<path style="fill:#063359;" d="M260.396,249.827l-1.442,37.415h-14.682c0,0-4.884-1.816-4.223-13.839
			c0.661-12.023,5.681-24.311,5.681-24.311L260.396,249.827z"/>
		<path style="fill:#063359;" d="M333.989,230.727c4.757,5.977,12.932,27.457,15.152,47.99c0.578,5.348-3.622,10.013-9.002,10.013
			h-29.404c0,0-2.378-7.135-1.189-12.023l12.288-2.378c0,0-0.925-2.907,1.718-3.171c0,0-1.321-6.489-4.624-18.439
			C315.624,240.769,328.836,224.253,333.989,230.727z"/>
		<path style="fill:none;stroke:#082445;stroke-width:0.8889;stroke-miterlimit:10;" d="M322.494,235.965
			c0,0-6.213,6.067-2.875,19.285"/>
		<g id="Layer_2_2_" style="opacity:0.8;">
			<g id="Layer_1-2_1_">
				<path style="fill:#FFFFFF;" d="M303.72,267.962c0.451-0.161,0.779-0.464,1.007-0.89c-0.018,0.054-0.035,0.109-0.06,0.186
					l0.706-0.071l-0.383,0.675l0.163-0.016c0.317-0.029,0.635-0.048,0.952-0.078c0.117-0.011,0.181,0.027,0.219,0.138
					c0.015,0.037,0.031,0.072,0.05,0.107c0.12,0.262,0.205,0.579,0.624,0.387c-0.215,0.539-0.543,0.857-1.011,1.002
					c-0.12,0.035-0.243,0.057-0.367,0.063c-0.401,0.033-0.802,0.07-1.203,0.111c-0.401,0.041-0.802,0.086-1.204,0.131
					c-0.401,0.045-0.803,0.09-1.206,0.132c-0.402,0.042-0.805,0.079-1.209,0.112c-0.454,0.032-0.847-0.105-1.132-0.362
					c-0.284-0.258-0.46-0.634-0.481-1.084c-0.022-0.482-0.043-0.963-0.064-1.445c-0.022-0.481-0.043-0.963-0.066-1.445
					c-0.022-0.413,0.118-0.735,0.492-0.94c0.036-0.026,0.061-0.066,0.069-0.11c0.038-0.198,0.123-0.278,0.324-0.289
					c0.162-0.009,0.323-0.015,0.485-0.023c0.259-0.014,0.314,0.019,0.427,0.268c0.146-0.01,0.3-0.016,0.453-0.038
					c0.041-0.006,0.091-0.053,0.113-0.093c0.098-0.177,0.193-0.355,0.279-0.536c0.096-0.201,0.258-0.299,0.472-0.315
					c0.346-0.025,0.693-0.05,1.039-0.075c0.347-0.025,0.693-0.049,1.04-0.071c0.218-0.015,0.394,0.058,0.507,0.241
					c0.093,0.151,0.208,0.289,0.306,0.437c0.047,0.071,0.103,0.096,0.196,0.086c0.283-0.031,0.56-0.016,0.821,0.091
					c0.508,0.212,0.823,0.568,0.863,1.072c0.032,0.394,0.055,0.795,0.075,1.211c0.021,0.416,0.039,0.851,0.061,1.298
					c-0.002,0.026-0.005,0.052-0.01,0.078c-0.038-0.065-0.066-0.11-0.088-0.156c-0.226-0.459-0.452-0.9-0.678-1.319
					c-0.225-0.419-0.449-0.822-0.671-1.218c-0.058-0.104-0.122-0.139-0.247-0.12c-0.136,0.02-0.275,0.023-0.383,0.031
					c0.139,0.259,0.28,0.514,0.409,0.777c0.037,0.088,0.05,0.185,0.037,0.281l-0.221-0.394c-0.152,0.379-0.296,0.745-0.439,1.12
					c0.11-0.437,0.06-0.828-0.198-1.2c-0.133,0.323-0.258,0.626-0.379,0.939c-0.164,0.425-0.325,0.866-0.488,1.317l-0.542,0.072
					c-0.004-0.021-0.01-0.041-0.017-0.06c-0.172-0.332-0.345-0.658-0.517-0.977c-0.172-0.319-0.345-0.633-0.517-0.945
					c-0.015-0.022-0.033-0.042-0.051-0.062c-0.186,0.351-0.225,0.697-0.163,1.06c-0.143-0.273-0.287-0.544-0.442-0.837
					c-0.078,0.2-0.142,0.367-0.207,0.535c-0.029-0.458,0.121-0.873,0.394-1.277c-0.169,0.018-0.303,0.04-0.437,0.043
					c-0.116,0.002-0.165,0.052-0.206,0.157c-0.107,0.272-0.215,0.546-0.322,0.822c-0.108,0.276-0.216,0.553-0.324,0.832
					c-0.108,0.279-0.217,0.558-0.326,0.838c-0.109,0.28-0.218,0.558-0.328,0.836c-0.017,0.043-0.03,0.087-0.05,0.143
					c0.063-0.004,0.105-0.006,0.148-0.009c0.184-0.014,0.413,0.032,0.538-0.064c0.131-0.101,0.171-0.336,0.235-0.518
					c0.041-0.116,0.097-0.164,0.22-0.174c0.359-0.03,0.718-0.079,1.084-0.125l-0.437-0.573c0.245-0.031,0.446-0.045,0.642-0.089
					c0.101-0.023,0.15,0.004,0.214,0.064c0.239,0.232,0.528,0.367,0.876,0.371c0.096,0.174,0.192,0.351,0.294,0.542
					C303.565,268.353,303.643,268.158,303.72,267.962z M304.234,268.476c0.264-0.153,0.508-0.331,0.721-0.607
					c-0.177,0.019-0.32,0.031-0.464,0.053c-0.031,0.004-0.079,0.031-0.089,0.058c-0.06,0.163-0.11,0.331-0.165,0.498
					c-0.283,0.077-0.565,0.177-0.85,0.226c-0.201,0.035-0.409,0.001-0.614-0.001l-0.015,0.049c0.059,0.018,0.12,0.056,0.178,0.05
					c0.323-0.034,0.645-0.086,0.969-0.115C304.053,268.673,304.174,268.645,304.234,268.476z M302.101,265.955
					c0.27-0.428,0.715-0.694,1.18-0.751c0.465-0.057,0.95,0.089,1.299,0.486c0.14-0.183,0.115-0.437,0.329-0.586
					c-0.232-0.216-0.505-0.363-0.795-0.447s-0.598-0.106-0.898-0.071c-0.3,0.035-0.593,0.128-0.855,0.273s-0.492,0.342-0.666,0.585
					C301.957,265.516,301.925,265.809,302.101,265.955z M300.232,264.711c-0.247,0.014-0.438,0.224-0.427,0.471
					c0.012,0.247,0.222,0.432,0.47,0.414l0,0c0.247-0.024,0.438-0.235,0.432-0.477C300.689,264.878,300.479,264.698,300.232,264.711
					L300.232,264.711z M301.914,268.254c0.268,0.208,0.513,0.353,0.828,0.413c-0.076-0.151-0.134-0.279-0.208-0.398
					c-0.029-0.045-0.076-0.073-0.13-0.078C302.258,268.202,302.109,268.229,301.914,268.254L301.914,268.254z"/>
				<path style="fill:#FFFFFF;" d="M295.223,265.941l0.009,0.612l-1.118,0.118c-0.03,0.527-0.056,1.04-0.075,1.535
					c-0.018,0.495-0.028,0.97-0.032,1.434c-0.026,0.019-0.034,0.03-0.044,0.031c-0.317,0.052-0.311,0.051-0.349-0.236
					c-0.052-0.422-0.1-0.853-0.141-1.296c-0.041-0.443-0.075-0.898-0.105-1.359c-0.431,0.041-0.871,0.06-1.306,0.12
					c-0.243,0.032-0.261,0.097-0.262,0.353c-0.003,0.493,0.032,0.974,0.003,1.435c-0.023,0.372-0.155,0.672-0.373,0.885
					c-0.218,0.213-0.523,0.341-0.89,0.367c-0.217,0.016-0.436,0.001-0.65-0.045c-0.335-0.081-0.605-0.251-0.795-0.494
					s-0.302-0.56-0.32-0.932c-0.014-0.341-0.022-0.688-0.027-1.045s-0.005-0.722-0.005-1.097c0.213,0,0.431-0.005,0.649,0.006
					c0.024,0,0.064,0.101,0.062,0.154c-0.009,0.316-0.019,0.63-0.027,0.939s-0.013,0.613-0.015,0.912
					c0,0.066,0.004,0.131,0.01,0.196c0.032,0.338,0.206,0.6,0.448,0.742s0.551,0.164,0.849,0.026
					c0.305-0.147,0.426-0.419,0.426-0.749c-0.001-0.467-0.011-0.952-0.026-1.445c-0.007-0.307,0.122-0.535,0.363-0.667
					c0.198-0.109,0.425-0.204,0.641-0.223c0.499-0.046,1-0.09,1.504-0.136s1.009-0.093,1.514-0.142
					C295.168,265.938,295.195,265.939,295.223,265.941z"/>
				<path style="fill:#FFFFFF;" d="M310.42,268.472c-0.263,0.05-0.444-0.033-0.621-0.271c-0.278-0.373-0.562-0.735-0.852-1.09
					c-0.29-0.355-0.585-0.7-0.884-1.045c0,0,0.029,0.557,0.058,1.144c0.029,0.587,0.059,1.203,0.059,1.203l-0.655,0
					c0,0-0.011-0.233-0.029-0.576c-0.017-0.342-0.039-0.783-0.061-1.205c-0.022-0.422-0.043-0.829-0.058-1.128
					s-0.026-0.495-0.026-0.495c0.156-0.002,0.312-0.012,0.466,0c0.052,0.004,0.113,0.052,0.152,0.093
					c0.267,0.288,0.535,0.582,0.801,0.886c0.267,0.304,0.534,0.618,0.8,0.938c0.033,0.042,0.071,0.083,0.133,0.155
					c0,0-0.027-0.528-0.052-1.04c-0.026-0.512-0.051-1.012-0.051-1.012l0.65,0.013c0,0,0.01,0.204,0.025,0.514
					c0.015,0.309,0.036,0.727,0.057,1.154c0.021,0.427,0.043,0.865,0.059,1.2C310.409,268.246,310.42,268.472,310.42,268.472z"/>
				<path style="fill:#FFFFFF;" d="M295.503,266.372l1.024-0.099l0.046,1.466l0.024-0.003l-0.014-0.394l1.551-0.13l-0.064-1.478
					l0.65-0.029c0,0,0.01,0.217,0.024,0.542c0.015,0.325,0.034,0.758,0.054,1.192c0.019,0.433,0.039,0.867,0.054,1.192
					c0.015,0.325,0.024,0.542,0.024,0.542l-0.644,0.033l-0.064-1.394l-1.6,0.14c0.087,0.323,0.026,0.621-0.078,0.917
					c-0.103,0.295-0.249,0.588-0.331,0.9c-0.052-0.082-0.085-0.129-0.112-0.179c-0.116-0.22-0.221-0.446-0.346-0.662
					c-0.105-0.186-0.16-0.398-0.161-0.617c-0.007-0.3-0.016-0.603-0.024-0.909c-0.008-0.306-0.016-0.615-0.021-0.926
					C295.496,266.446,295.501,266.418,295.503,266.372z M296.082,268.555c-0.03-0.018-0.058-0.051-0.084-0.048
					c-0.095,0.011-0.19,0.035-0.285,0.054c0.01,0.061,0.006,0.129,0.031,0.184c0.071,0.156,0.147,0.31,0.236,0.456
					c0.026,0.043,0.097,0.09,0.142,0.084c0.045-0.006,0.111-0.068,0.132-0.117c0.071-0.164,0.13-0.333,0.187-0.503
					c0.018-0.055,0.027-0.166,0.018-0.168c-0.093-0.016-0.189-0.022-0.285-0.016C296.145,268.482,296.115,268.527,296.082,268.555z"
					/>
				<path style="fill:#FFFFFF;" d="M289.1,266.055c-0.136,0.001-0.273-0.006-0.408,0.003c-0.095,0.006-0.141-0.038-0.179-0.127
					c-0.106-0.251-0.047-0.584,0.142-0.762c0.255-0.24,0.571-0.283,0.801-0.11c0.281,0.212,0.383,0.578,0.237,0.879
					c-0.031,0.056-0.081,0.094-0.139,0.106c-0.151,0.015-0.303,0.008-0.454,0.009L289.1,266.055z"/>
				<path style="fill:#FFFFFF;" d="M296.513,265.942l-1,0.091c-0.014-0.267,0.18-0.496,0.445-0.536
					C296.253,265.454,296.465,265.62,296.513,265.942z"/>
				<path style="fill:#FFFFFF;" d="M305.535,266.343c0.136,0.259,0.271,0.518,0.414,0.798l-0.554,0.043
					C305.441,266.899,305.487,266.623,305.535,266.343z"/>
				<path style="fill:#FFFFFF;" d="M293.75,269.846c0.157-0.056,0.227-0.019,0.178,0.112c-0.037,0.097-0.084,0.216-0.168,0.268
					c-0.202,0.127-0.347,0.258-0.246,0.504l-0.172,0.024c-0.087-0.274-0.034-0.424,0.199-0.591
					C293.654,270.082,293.794,270.015,293.75,269.846z"/>
				<path style="fill:#FFFFFF;" d="M307.305,268.419l-0.296,0.006c0.03-0.142,0.057-0.272,0.092-0.433
					C307.172,268.14,307.233,268.268,307.305,268.419z"/>
				<path style="fill:#FFFFFF;" d="M304.234,268.476c-0.059,0.169-0.181,0.197-0.329,0.21c-0.323,0.028-0.645,0.081-0.969,0.115
					c-0.058,0.008-0.119-0.032-0.178-0.05l0.015-0.049c0.205,0.003,0.412,0.037,0.614,0.001c0.286-0.049,0.567-0.149,0.851-0.226
					L304.234,268.476z"/>
				<path style="fill:#FFFFFF;" d="M301.428,267.68l-0.532,0.063l0.314-0.846C301.284,267.164,301.355,267.418,301.428,267.68z"/>
			</g>
		</g>
	</g>
</g>
<g id="Layer_1">
</g>
</svg>
