<svg xmlns="http://www.w3.org/2000/svg" xmlns:xlink="http://www.w3.org/1999/xlink" viewBox="0 0 106.43 279.78"><defs><style>.cls-1,.cls-13,.cls-15,.cls-18,.cls-2,.cls-8{fill:none;stroke-miterlimit:10;}.cls-1,.cls-2{stroke:#1656bd;}.cls-1{stroke-width:3.17px;}.cls-2{stroke-width:3.34px;}.cls-3{fill:#0c3069;}.cls-4{fill:#cedbed;}.cls-5{fill:#ff6d6d;}.cls-6{fill:#063359;}.cls-7{fill:#052f4c;}.cls-13,.cls-8{stroke:#fff;}.cls-8{stroke-width:2px;}.cls-10,.cls-8{opacity:0.8;}.cls-9{fill:#08224a;}.cls-11{fill:#fff;}.cls-12{fill:#ffa526;}.cls-13,.cls-15,.cls-18{stroke-width:0.72px;}.cls-14{fill:#80371d;}.cls-15{stroke:#ffa526;}.cls-16{fill:url(#linear-gradient);}.cls-17{fill:#d92727;}.cls-18{stroke:#0c3069;}</style><linearGradient id="linear-gradient" x1="40.44" y1="72.11" x2="52.23" y2="72.11" gradientUnits="userSpaceOnUse"><stop offset="0" stop-color="#f04f4f"/><stop offset="0.15" stop-color="#f04f4f" stop-opacity="0.99"/><stop offset="0.28" stop-color="#f04f4f" stop-opacity="0.94"/><stop offset="0.4" stop-color="#f04f4f" stop-opacity="0.86"/><stop offset="0.53" stop-color="#f04f4f" stop-opacity="0.76"/><stop offset="0.65" stop-color="#f04f4f" stop-opacity="0.62"/><stop offset="0.76" stop-color="#f04f4f" stop-opacity="0.45"/><stop offset="0.88" stop-color="#f04f4f" stop-opacity="0.25"/><stop offset="0.99" stop-color="#f04f4f" stop-opacity="0.02"/><stop offset="1" stop-color="#f04f4f" stop-opacity="0"/></linearGradient></defs><g id="Layer_2" data-name="Layer 2"><g id="girl_1" data-name="girl 1"><line class="cls-1" x1="34.15" y1="169.35" x2="24.68" y2="267.42"/><line class="cls-1" x1="64.5" y1="169.35" x2="73.96" y2="267.42"/><line class="cls-1" x1="31.79" y1="193.8" x2="67.01" y2="193.8"/><line class="cls-2" x1="29.85" y1="215.43" x2="68.94" y2="215.43"/><rect class="cls-3" x="24.68" y="161.51" width="49.27" height="10.66" rx="3.4"/><ellipse class="cls-4" cx="42.23" cy="276.02" rx="6.9" ry="3.75"/><path class="cls-5" d="M42.75,236.37,43,255.94a17.19,17.19,0,0,1,1,6c0,3.44,3,8.74.32,11.21s-5.92.41-6.15-3,0-6.79-.94-8.67-1.06-5,.22-6.33l-3.31-18.46Z"/><path class="cls-3" d="M41.61,262.6l-1,.11a1.65,1.65,0,0,1-1.85-1.28l-1.35-6.28c-1.28,1.38-1.12,4.44-.22,6.33s.7,5.22.94,8.67,3.42,5.49,6.15,3S44,265.41,44,262a17.19,17.19,0,0,0-1-6l.18,4.89A1.71,1.71,0,0,1,41.61,262.6Z"/><path class="cls-5" d="M85.82,229.53l2.83,19.37a17.25,17.25,0,0,1,1.82,5.84c.43,3.41,4.19,8.25,1.82,11.06s-5.81,1.2-6.51-2.18-.94-6.72-2.08-8.47-1.72-4.76-.64-6.3L77.32,231Z"/><path class="cls-3" d="M88.19,255.68l-.94.24a1.65,1.65,0,0,1-2-1l-2.19-6.05c-1.08,1.54-.51,4.56.64,6.3s1.39,5.09,2.08,8.47,4.13,5,6.51,2.18-1.39-7.65-1.82-11.06a17.25,17.25,0,0,0-1.82-5.84l.83,4.82A1.72,1.72,0,0,1,88.19,255.68Z"/><path class="cls-6" d="M33.93,78s11.7,9.67,24.78,3.57c0,0-.05-1.52,1.27-1.52s6.57,1,13.83,4.4c10.22,4.85,33.56,31.06,32.59,44.31-.7,9.69-7.75,12.86-14.09,12.6s-5.81-11-5.81-11L66.59,113.58l-3.7,27.75H20.44l-6-43.43L0,36.16a17.47,17.47,0,0,1,5.08-8.37,7.66,7.66,0,0,1,8.13-1.24Z"/><path class="cls-7" d="M33.93,78,13.21,26.55a7.66,7.66,0,0,0-8.13,1.24A17.47,17.47,0,0,0,0,36.16L14.45,97.9C28.45,108.65,33.93,78,33.93,78Z"/><path class="cls-8" d="M59.39,156.88a7.24,7.24,0,0,1-4.75.55c-.56-.09-1.12-.21-1.66-.34-7.24-.86-14.2-1.61-21.37-.21a34.18,34.18,0,0,1-.52-3.39c-.61-5.76,0-12,.67-18.17,0-.65,0-1.29,0-1.93.15-7.67.2-15.14.3-23.08l1.55.16c.55,0,1.15.11,1.86.15l1.45.18c6.28,1.85,13.28,1.85,19.64,1.37.47,0,.94-.12,1.41-.2a27,27,0,0,0,2.86-.61,5.6,5.6,0,0,1,1.35.73,7.24,7.24,0,0,1,1.32,1.29,8.84,8.84,0,0,1,.09,1.44,31.81,31.81,0,0,1-.88,5.38c-.08.53-.17,1-.26,1.58-.5,2.64-1.24,5.25-1.93,7.71-.05.54-.09,1-.12,1.57-.21,3.59-.38,7.17-.44,10.66-.08.59-.16,1.18-.25,1.77-.63,4.13-1.42,8.34-.28,12.56C59.4,156.56,59.39,156.88,59.39,156.88Z"/><path class="cls-6" d="M92.31,141.33c6.34.26,13.39-2.91,14.09-12.6,1-13.25-22.37-39.46-32.59-44.31-1.58-.75-3.07-1.37-4.44-1.91h0c-9.31,15.21-2.78,31.07-2.78,31.07L86.5,130.32S86,141.06,92.31,141.33Z"/><path class="cls-9" d="M96.9,131c.12,6.42-1.8,10.78-5.52,10.33s-5.53-6.46-4.88-11Z"/><g id="Layer_2-2" data-name="Layer 2" class="cls-10"><g id="Layer_1-2" data-name="Layer 1-2"><path class="cls-11" d="M48.79,132.83a1.66,1.66,0,0,0,1.08-.76l-.07.18h.69l-.43.62h1.08a.18.18,0,0,1,.2.15.42.42,0,0,0,0,.1c.08.25.13.55.55.38a1.57,1.57,0,0,1-1.44.91H45.6a1.6,1.6,0,0,1-1.14-.43,1.44,1.44,0,0,1-.42-1.1c0-.49,0-1,0-1.45s0-1,0-1.45a.88.88,0,0,1,.53-.92.18.18,0,0,0,.07-.1c0-.2.13-.27.34-.28h.5c.27,0,.33,0,.45.3.15,0,.31,0,.47,0a.22.22,0,0,0,.12-.09l.28-.53a.51.51,0,0,1,.48-.3h2.1a.58.58,0,0,1,.52.3c.1.18.22.34.32.51a.21.21,0,0,0,.2.11,1.47,1.47,0,0,1,.8.15,1.49,1.49,0,0,1,.85,1.24c0,.43,0,.86,0,1.3s0,.87,0,1.3c0,0,0,.05,0,.07l-.07-.15c-.18-.45-.36-.9-.55-1.35s-.41-.9-.62-1.36a.22.22,0,0,0-.24-.15h-.38c.14.3.28.59.4.89a.52.52,0,0,1,0,.3l-.2-.44c-.16.39-.31.76-.48,1.13a1.5,1.5,0,0,0-.15-1.28c-.13.33-.27.64-.4,1s-.39.83-.6,1.25h-.55s0,0,0-.06c-.15-.35-.3-.69-.46-1s-.33-.69-.5-1l-.05-.07a1.59,1.59,0,0,0-.21,1.06l-.43-.91c-.09.2-.16.36-.24.52a2,2,0,0,1,.44-1.26c-.18,0-.32,0-.46,0s-.17,0-.22.14c-.23.53-.48,1.07-.74,1.61l-.4.8-.4.81-.07.14h.16c.19,0,.43.06.57,0s.2-.31.29-.49a.22.22,0,0,1,.24-.15h1.14l-.4-.62c.25,0,.47,0,.67,0a.23.23,0,0,1,.22.1,1.37,1.37,0,0,0,.87.47c.08.18.15.36.24.56C48.59,133.18,48.69,133,48.79,132.83Zm.46.55a2.22,2.22,0,0,0,.77-.5h-.46a.13.13,0,0,0-.09,0c-.08.15-.14.31-.22.46a8.62,8.62,0,0,1-.87.11,4.5,4.5,0,0,1-.63-.07l0,0c.06,0,.12.07.18.07h1C49.05,133.54,49.17,133.53,49.25,133.38Zm-2-2.79a1.48,1.48,0,0,1,1.22-.65,1.59,1.59,0,0,1,1.32.67c.14-.18.11-.47.32-.61a2.26,2.26,0,0,0-1.72-.74,2,2,0,0,0-1.56.75C47.09,130.11,47.06,130.42,47.24,130.59Zm-2-1.46a.44.44,0,0,0-.45.45.48.48,0,0,0,.49.45h0a.45.45,0,0,0,.46-.45.51.51,0,0,0-.5-.45Zm1.64,3.75a2.08,2.08,0,0,0,.81.5c-.07-.15-.11-.28-.18-.41a.19.19,0,0,0-.12-.09Z"/><path class="cls-11" d="M40.18,130.07v.59H39.1c0,.5-.07,1-.11,1.48s-.07,1-.1,1.45l0,0c-.3,0-.3,0-.32-.28s0-.88-.07-1.32-.05-.88-.07-1.32c-.42,0-.84,0-1.27,0-.24,0-.26.07-.26.31,0,.47,0,.94,0,1.4a1.36,1.36,0,0,1-.42.88,1.42,1.42,0,0,1-.92.34,2.11,2.11,0,0,1-.66-.06,1.37,1.37,0,0,1-.77-.52,1.59,1.59,0,0,1-.28-.94v-2.06h.66s.07.1.07.15l0,.88c0,.3,0,.59,0,.89v.19a.93.93,0,0,0,.42.76,1,1,0,0,0,.86,0,.78.78,0,0,0,.46-.74c0-.46,0-.93,0-1.39a.6.6,0,0,1,.36-.61,1.51,1.51,0,0,1,.63-.16l1.46,0h1.55Z"/><path class="cls-11" d="M55.21,133.53a.51.51,0,0,1-.58-.24l-.75-1c-.25-.35-.51-.7-.78-1.06,0,0,0,.58,0,1.17s0,1.17,0,1.17h-.62s0-.88,0-1.75,0-1.75,0-1.75h.45c.05,0,.1.06.14.1l.73,1,.72.95.11.15s0-.53,0-1.07,0-1.07,0-1.07h.63s0,.87,0,1.74S55.21,133.53,55.21,133.53Z"/><path class="cls-11" d="M40.44,130.51h1v1.44h0v-.39H43v-1.48h.68s0,.22,0,.54v1.2c0,.43,0,.86,0,1.19s0,.54,0,.54H43l0-1.4h-1.6a1.56,1.56,0,0,1-.11.91c-.12.29-.27.57-.37.88a1.88,1.88,0,0,1-.1-.19c-.1-.24-.18-.48-.29-.71a1.41,1.41,0,0,1-.13-.64c0-.29,0-.59,0-.89s0-.6,0-.91Zm.49,2.2s-.06-.06-.08-.06l-.28,0a.58.58,0,0,0,0,.19,4.19,4.19,0,0,0,.2.49s.08.1.13.09a.18.18,0,0,0,.13-.1c.08-.16.14-.32.21-.49a.38.38,0,0,0,0-.17,1.26,1.26,0,0,0-.27,0S41,132.68,40.93,132.71Z"/><path class="cls-11" d="M34.14,129.81h-.42a.18.18,0,0,1-.19-.12.61.61,0,0,1,.15-.71.66.66,0,0,1,.81-.09.65.65,0,0,1,.25.82.21.21,0,0,1-.14.1Z"/><path class="cls-11" d="M41.44,130.17h-1a.47.47,0,0,1,.45-.48A.48.48,0,0,1,41.44,130.17Z"/><path class="cls-11" d="M50.7,131.4c.12.28.23.56.35.85h-.54C50.58,132,50.64,131.69,50.7,131.4Z"/><path class="cls-11" d="M38.63,133.78c.15-.05.21,0,.16.13a.6.6,0,0,1-.19.27c-.2.11-.35.24-.28.51h-.16a.49.49,0,0,1,.24-.61C38.51,134,38.65,134,38.63,133.78Z"/><path class="cls-11" d="M52.22,133.53h-.28l.13-.4Z"/><path class="cls-11" d="M49.25,133.38c-.08.15-.2.16-.35.16h-1c-.06,0-.12-.05-.18-.07l0,0a4.5,4.5,0,0,0,.63.07,8.62,8.62,0,0,0,.87-.11Z"/><path class="cls-11" d="M46.46,132.26h-.57l.38-.81C46.34,131.72,46.4,132,46.46,132.26Z"/></g></g><polygon class="cls-12" points="78.48 139.84 50.4 139.84 56.71 101.16 84.79 101.16 78.48 139.84"/><polygon class="cls-13" points="74.85 104.33 65.61 104.33 66.4 99.49 75.64 99.49 74.85 104.33"/><path class="cls-14" d="M31.71,156.74c15.32.46,13.74,81.74,13.74,81.74H29.77s-3.66-6.92-3.7-13c0-6.29-3-12.86-3.87-19.55S8.46,156,31.71,156.74Z"/><line class="cls-15" x1="45.5" y1="232.66" x2="27.39" y2="232.66"/><path class="cls-14" d="M64.24,152.09c15.24-1.59,24.54,79.17,24.54,79.17l-15.54,2.1s-4.56-6.37-5.41-12.43c-.87-6.23-4.68-12.34-6.45-18.86S41.1,154.5,64.24,152.09Z"/><line class="cls-15" x1="88.14" y1="226.15" x2="70.74" y2="228.57"/><path class="cls-5" d="M40.74,67.53,40,77.12a1.7,1.7,0,0,1-2,1.54L33.93,78s2.38,13.55,12.62,15.46S58.71,81.54,58.71,81.54l-5.62-1-2.9-13Z"/><path class="cls-16" d="M50.19,67.53H40.74l-.3,3.73a16.16,16.16,0,0,0,11.79,5.43Z"/><path class="cls-17" d="M37.08,61.48s-5-9.43.62-13c2.91-6.3,15.41-5.33,18.36,1.63a9.64,9.64,0,0,1-2.2,11.23Z"/><circle class="cls-17" cx="41.69" cy="42.03" r="5.88"/><path class="cls-5" d="M55.2,60.73a1.65,1.65,0,0,0-1.64-.09c.25-1.83.43-3.34.43-3.34s-8.19,1.14-13.3-4.06c0,0-.61,4.58-3,6.26,0,0,0,.41.06,1.06a1.68,1.68,0,0,0-1.45.17c-1.05.59-.44,3.25,1.89,3.34.34,1.85.89,3.72,1.79,4.5,2,1.76,4.76,3.26,6.25,3.17s5.73-3.52,6.26-5a22.44,22.44,0,0,0,.55-2.66,1,1,0,0,0,.25,0C55.64,64,56.25,61.32,55.2,60.73Z"/><path class="cls-5" d="M94,126.66l-31.57-7.13s-5.42-7.27-7-7.6.66,2.46.66,2.46-2.26-1.6-2.84-.55a3.34,3.34,0,0,0,0,2.51s-.72,1.1,1.13,2.93,6.87,3,6.87,3S84.81,137,90.28,139.08,100.06,129.43,94,126.66Z"/><path class="cls-9" d="M13.21,26.55a7.66,7.66,0,0,0-8.13,1.24A17.47,17.47,0,0,0,0,36.16C4.93,40,12.86,30.87,13.21,26.55Z"/><path class="cls-5" d="M13,27.56,7.11,8.41S9.29,3.92,9,2.6s-1.85-.93-1.85-.93A7.22,7.22,0,0,0,6.61,0C6.39-.24,1,2.27,1,2.27s-1,3,.4,3.76A2.43,2.43,0,0,0,3.28,9l5,25.45A15.55,15.55,0,0,0,13,27.56Z"/><path class="cls-18" d="M90.62,125.9s2.66-3,7.5-.29"/></g></g></svg>