<svg xmlns="http://www.w3.org/2000/svg" xmlns:xlink="http://www.w3.org/1999/xlink" viewBox="0 0 623.86 377.17"><defs><style>.cls-1,.cls-10,.cls-11,.cls-14,.cls-15,.cls-21,.cls-23,.cls-32,.cls-37,.cls-46,.cls-48,.cls-52,.cls-59,.cls-63,.cls-67{fill:none;stroke-miterlimit:10;}.cls-1{stroke:#cedbed;stroke-width:2.12px;}.cls-2{fill:#cedbed;}.cls-3{fill:url(#linear-gradient);}.cls-4{fill:url(#linear-gradient-2);}.cls-5{fill:url(#linear-gradient-3);}.cls-6{fill:url(#linear-gradient-4);}.cls-7{fill:url(#linear-gradient-5);}.cls-8{fill:url(#linear-gradient-6);}.cls-9{fill:url(#linear-gradient-7);}.cls-10,.cls-32,.cls-46,.cls-63{stroke:#0c3069;}.cls-10{stroke-width:1.1px;}.cls-11,.cls-21{stroke:#fff;}.cls-11{stroke-width:2.11px;}.cls-12{fill:url(#linear-gradient-8);}.cls-13{fill:url(#linear-gradient-9);}.cls-14,.cls-15{stroke:#1656bd;}.cls-14{stroke-width:3.17px;}.cls-15{stroke-width:3.34px;}.cls-16{fill:#0c3069;}.cls-17{fill:#ff6d6d;}.cls-18{fill:#103f8a;}.cls-19{fill:#08224a;}.cls-20{fill:#ffa526;}.cls-21,.cls-23,.cls-46,.cls-48{stroke-width:0.72px;}.cls-22{fill:#80371d;}.cls-23{stroke:#ffa526;}.cls-24{fill:url(#linear-gradient-10);}.cls-25{fill:#d92727;}.cls-26{fill:#a1c1ed;}.cls-27{fill:#16a3bd;}.cls-28{fill:#0f3d85;}.cls-29{fill:url(#linear-gradient-11);}.cls-30{fill:#1656bd;}.cls-31{fill:url(#linear-gradient-12);}.cls-32,.cls-37{stroke-width:0.89px;}.cls-33{fill:url(#linear-gradient-13);}.cls-34{fill:url(#linear-gradient-14);}.cls-35{fill:url(#linear-gradient-15);}.cls-36{fill:url(#linear-gradient-16);}.cls-37,.cls-52{stroke:#d92727;}.cls-38{fill:url(#linear-gradient-17);}.cls-39{fill:url(#linear-gradient-18);}.cls-40{fill:url(#linear-gradient-19);}.cls-41{fill:#f04f4f;}.cls-42{fill:url(#linear-gradient-20);}.cls-43{fill:url(#linear-gradient-21);}.cls-44{fill:url(#linear-gradient-22);}.cls-45{fill:url(#linear-gradient-23);}.cls-47{fill:#456b4b;}.cls-48{stroke:#38573d;}.cls-49,.cls-54{opacity:0.5;}.cls-49{fill:url(#linear-gradient-24);}.cls-50{fill:url(#linear-gradient-25);}.cls-51{opacity:0.57;fill:url(#linear-gradient-26);}.cls-52{stroke-width:0.53px;}.cls-53{fill:url(#linear-gradient-27);}.cls-54{fill:url(#linear-gradient-28);}.cls-55{fill:url(#linear-gradient-29);}.cls-56{fill:url(#linear-gradient-30);}.cls-57{fill:#967c45;}.cls-58{fill:#786337;}.cls-59{stroke:#4f4124;stroke-width:0.84px;}.cls-60{fill:#fff;}.cls-61,.cls-65,.cls-66{opacity:0.4;}.cls-61{fill:url(#linear-gradient-31);}.cls-62{fill:url(#linear-gradient-32);}.cls-63{stroke-width:1.09px;}.cls-64{fill:url(#linear-gradient-33);}.cls-65{fill:url(#linear-gradient-34);}.cls-66{fill:url(#linear-gradient-35);}.cls-67{stroke:#5d94de;stroke-width:0.76px;}</style><linearGradient id="linear-gradient" x1="278.95" y1="169.45" x2="182.76" y2="360.45" gradientUnits="userSpaceOnUse"><stop offset="0.05" stop-color="#a1c1ed"/><stop offset="1" stop-color="#a1c1ed" stop-opacity="0"/></linearGradient><linearGradient id="linear-gradient-2" x1="471.23" y1="59.37" x2="500.86" y2="260.99" xlink:href="#linear-gradient"/><linearGradient id="linear-gradient-3" x1="-23.97" y1="173.04" x2="14.15" y2="173.04" gradientTransform="matrix(-1, -0.09, -0.09, 1, 30.19, 62.04)" gradientUnits="userSpaceOnUse"><stop offset="0.04" stop-color="#ffa526"/><stop offset="1" stop-color="#ff6026"/></linearGradient><linearGradient id="linear-gradient-4" x1="-55.74" y1="159.58" x2="-32.56" y2="159.58" xlink:href="#linear-gradient-3"/><linearGradient id="linear-gradient-5" x1="-35.17" y1="207.68" x2="2.94" y2="207.68" xlink:href="#linear-gradient-3"/><linearGradient id="linear-gradient-6" x1="-69.66" y1="185.31" x2="-47.67" y2="185.31" xlink:href="#linear-gradient-3"/><linearGradient id="linear-gradient-7" x1="-29.62" y1="135.5" x2="4.23" y2="135.5" xlink:href="#linear-gradient-3"/><linearGradient id="linear-gradient-8" x1="531.49" y1="331.3" x2="531.49" y2="168.25" gradientUnits="userSpaceOnUse"><stop offset="0" stop-color="#6ab883"/><stop offset="1" stop-color="#dbb883"/></linearGradient><linearGradient id="linear-gradient-9" x1="136.78" y1="334.45" x2="136.78" y2="219.28" gradientTransform="matrix(-1, 0, 0, 1, 253.8, 0)" xlink:href="#linear-gradient-8"/><linearGradient id="linear-gradient-10" x1="327.99" y1="155.07" x2="339.78" y2="155.07" gradientUnits="userSpaceOnUse"><stop offset="0" stop-color="#f04f4f"/><stop offset="0.15" stop-color="#f04f4f" stop-opacity="0.99"/><stop offset="0.28" stop-color="#f04f4f" stop-opacity="0.94"/><stop offset="0.4" stop-color="#f04f4f" stop-opacity="0.86"/><stop offset="0.53" stop-color="#f04f4f" stop-opacity="0.76"/><stop offset="0.65" stop-color="#f04f4f" stop-opacity="0.62"/><stop offset="0.76" stop-color="#f04f4f" stop-opacity="0.45"/><stop offset="0.88" stop-color="#f04f4f" stop-opacity="0.25"/><stop offset="0.99" stop-color="#f04f4f" stop-opacity="0.02"/><stop offset="1" stop-color="#f04f4f" stop-opacity="0"/></linearGradient><linearGradient id="linear-gradient-11" x1="124.22" y1="166.89" x2="124.22" y2="213.33" gradientUnits="userSpaceOnUse"><stop offset="0.03" stop-color="#0c3069"/><stop offset="1" stop-color="#0c3069" stop-opacity="0"/></linearGradient><linearGradient id="linear-gradient-12" x1="148.36" y1="133.24" x2="172.96" y2="166.61" gradientUnits="userSpaceOnUse"><stop offset="0" stop-color="#0c3069"/><stop offset="1" stop-color="#0c3069" stop-opacity="0"/></linearGradient><linearGradient id="linear-gradient-13" x1="98.53" y1="132.38" x2="73.34" y2="163.02" xlink:href="#linear-gradient-12"/><linearGradient id="linear-gradient-14" x1="119.86" y1="100.01" x2="131.84" y2="100.01" xlink:href="#linear-gradient-10"/><linearGradient id="linear-gradient-15" x1="250.46" y1="262.31" x2="244.12" y2="320.97" xlink:href="#linear-gradient-12"/><linearGradient id="linear-gradient-16" x1="186.99" y1="190.8" x2="277.43" y2="190.8" gradientTransform="matrix(1, 0, 0, 1, 0, 0)" xlink:href="#linear-gradient-3"/><linearGradient id="linear-gradient-17" x1="218.77" y1="200.77" x2="201.6" y2="181.14" gradientUnits="userSpaceOnUse"><stop offset="0" stop-color="#80371d" stop-opacity="0.89"/><stop offset="0.07" stop-color="#80371d"/><stop offset="1" stop-color="#80371d" stop-opacity="0"/></linearGradient><linearGradient id="linear-gradient-18" x1="219.37" y1="212.3" x2="200.61" y2="193.14" gradientUnits="userSpaceOnUse"><stop offset="0" stop-color="#80371d"/><stop offset="1" stop-color="#80371d" stop-opacity="0"/></linearGradient><linearGradient id="linear-gradient-19" x1="262.87" y1="215.93" x2="254.59" y2="178.4" xlink:href="#linear-gradient-18"/><linearGradient id="linear-gradient-20" x1="242.41" y1="143.12" x2="240.36" y2="159.31" xlink:href="#linear-gradient-10"/><linearGradient id="linear-gradient-21" x1="183.42" y1="203.72" x2="203.83" y2="203.72" gradientTransform="matrix(1, 0, 0, 1, 0, 0)" xlink:href="#linear-gradient-3"/><linearGradient id="linear-gradient-22" x1="303.22" y1="194.36" x2="258.12" y2="194.72" gradientTransform="matrix(1, 0, 0, 1, 0, 0)" xlink:href="#linear-gradient-3"/><linearGradient id="linear-gradient-23" x1="299.48" y1="235.12" x2="299.48" y2="191.12" gradientUnits="userSpaceOnUse"><stop offset="0.04" stop-color="#87b2ed"/><stop offset="1" stop-color="#fff"/></linearGradient><linearGradient id="linear-gradient-24" x1="434.26" y1="178.57" x2="434.26" y2="204.29" gradientUnits="userSpaceOnUse"><stop offset="0.03"/><stop offset="1" stop-opacity="0"/></linearGradient><linearGradient id="linear-gradient-25" x1="396.05" y1="132.26" x2="420.1" y2="132.26" xlink:href="#linear-gradient-10"/><linearGradient id="linear-gradient-26" x1="448.83" y1="110.52" x2="438.24" y2="197.11" xlink:href="#linear-gradient-12"/><linearGradient id="linear-gradient-27" x1="375.27" y1="134.98" x2="387.18" y2="134.98" xlink:href="#linear-gradient-10"/><linearGradient id="linear-gradient-28" x1="451.73" y1="221.92" x2="394.65" y2="307.54" xlink:href="#linear-gradient-24"/><linearGradient id="linear-gradient-29" x1="362.22" y1="113.09" x2="364.07" y2="46.23" gradientUnits="userSpaceOnUse"><stop offset="0.05" stop-color="#fff"/><stop offset="1" stop-color="#fff" stop-opacity="0"/></linearGradient><linearGradient id="linear-gradient-30" x1="426.45" y1="105.23" x2="438.42" y2="105.23" xlink:href="#linear-gradient-10"/><linearGradient id="linear-gradient-31" x1="519.47" y1="232.01" x2="484.06" y2="402.98" gradientUnits="userSpaceOnUse"><stop offset="0"/><stop offset="0.93" stop-opacity="0"/></linearGradient><linearGradient id="linear-gradient-32" x1="499.34" y1="183.37" x2="524.29" y2="183.37" gradientTransform="matrix(1, 0, 0, 1, 0, 0)" xlink:href="#linear-gradient-3"/><linearGradient id="linear-gradient-33" x1="517.88" y1="192.82" x2="545.04" y2="192.82" gradientTransform="matrix(1, 0, 0, 1, 0, 0)" xlink:href="#linear-gradient-3"/><linearGradient id="linear-gradient-34" x1="333.68" y1="195.08" x2="333.68" y2="331" xlink:href="#linear-gradient-31"/><linearGradient id="linear-gradient-35" x1="476.1" y1="54.26" x2="489.84" y2="123.36" xlink:href="#linear-gradient-31"/></defs><g id="Layer_2" data-name="Layer 2"><g id="OBJECTS"><path class="cls-1" d="M615.08,127A187.2,187.2,0,0,1,622.23,168c3.65,53.42-11,100.5-23.89,130.59A318.66,318.66,0,0,1,578,338.29"/><path class="cls-1" d="M49.18,335.73C33.82,259.48,31.33,198,41.54,147.89A229,229,0,0,1,59.27,94.27"/><path class="cls-1" d="M606.16,119.37c5.53,14.57,8.89,30.9,10.14,49.12,3.56,52.08-10.74,98.08-23.37,127.49a308.32,308.32,0,0,1-21.88,42"/><path class="cls-1" d="M55.27,335.73c-15.42-76-18-137-7.92-186.5,5-24.68,13.35-46.9,24.8-66.27"/><path class="cls-1" d="M596.33,111.79c7.9,16.35,12.55,35.34,14,57.16,3.47,50.74-10.51,95.65-22.84,124.39A296.83,296.83,0,0,1,564,337.77"/><path class="cls-1" d="M61.35,335.74c-15.48-75.69-18.15-136.3-8.19-185.16,6.21-30.43,17.53-57,33.67-78.84"/><path class="cls-2" d="M68.38,340.26H554.9S611,265,604.44,169.41,530.24,50,445.05,34.31,260.11-26,160.34,20.68C40.52,76.69,40.49,208.15,68.38,340.26Z"/><path class="cls-3" d="M327.45,241.65c-8.94-89.31-114.55-86.87-114.55-86.87C175.5,98.78,108.57,98,75.84,101.5,43.77,166.57,50,253.27,68.38,340.26H430.26C418,246,327.45,241.65,327.45,241.65Z"/><path class="cls-4" d="M554.9,340.26S611,265,604.44,169.41c-1.83-26.79-8.46-47.94-18.93-64.86-33.35,7.12-86.39,27.88-124.09,88.27a614.07,614.07,0,0,0-66.54,147.44Z"/><path class="cls-5" d="M37,247.63s-9.2-16.84-13.74-22.26c-6.19-7.4-17.27-8.6-22,3.2C-3.18,239.43,5.1,247,13.87,248.64S37,247.63,37,247.63Z"/><path class="cls-6" d="M50.23,243.37s-2.68-19.51-1.53-28.73,9.47-10.26,15-7.63,9.74,8.57,7,17.51S50.23,243.37,50.23,243.37Z"/><path class="cls-7" d="M45.83,273.65s-13.61-12.92-20.19-16.1S9.51,256.63,8.29,266s2.37,16,12.74,17.28S45.83,273.65,45.83,273.65Z"/><path class="cls-8" d="M59.37,266.88s.19-14.16,2.75-22.91,9.84-9.75,15.12-5.79,7.39,12.43,3.25,17.88S59.37,266.88,59.37,266.88Z"/><path class="cls-9" d="M37.89,223.9a158.6,158.6,0,0,1-18.42-18c-9.27-10.66-6.85-30.41,8.63-32.56,14-1.94,19.93,11.42,19.4,22.1S37.89,223.9,37.89,223.9Z"/><path class="cls-10" d="M30.71,185.47S36,242,70.61,315.72"/><path class="cls-10" d="M10,233.93c12.58,7.29,35.66,17.67,35.66,17.67S56.36,232,59.82,220.2"/><path class="cls-10" d="M19.14,269.68c15.4,2.49,34.32,5,34.32,5s13.09-16.9,19.9-28"/><rect class="cls-11" x="174.25" y="72.36" width="316.21" height="128.15"/><path class="cls-12" d="M440.27,341H622.8s-2.12-39.3-19-26.62c0,0,5.29-38.91,1.59-39s-13.74,10.46-13.74,10.46S596.9,249,588.45,251s-7.93,9.36-7.93,9.36,5.28-38.24.53-60.57,1.05-42.67-8.46-44.65-21.67,58.25-21.67,58.25-7.92-3.69-11.62,23.79c0,0-17.9-12.68-18.47,27.48,0,0-29.8-3.6-34.21,28.33,0,0-18.8-1.51-24,12.09S438.75,322.6,440.27,341Z"/><path class="cls-13" d="M214.9,341H18.83s6-7.27,12.76-9.19c0,0,2.88-26.58,19.22-27.29,0,0,26.36-75.51,39.13-28.64,0,0-1.5-55.59,23.36-28.2,0,0,4.72-48,15-48.79S143.4,252,143.4,252s13.13-.35,20.06,9.16c0,0-1.31-55.58,9.12-55.75s13.5,54.13,13.5,54.13,29.91-18.64,17.15,59.76C203.23,319.33,217.45,317.91,214.9,341Z"/><line class="cls-14" x1="321.7" y1="252.31" x2="312.24" y2="350.37"/><line class="cls-14" x1="352.05" y1="252.31" x2="361.51" y2="350.37"/><line class="cls-14" x1="319.34" y1="276.75" x2="354.56" y2="276.75"/><line class="cls-15" x1="317.41" y1="298.39" x2="356.5" y2="298.39"/><rect class="cls-16" x="312.24" y="244.46" width="49.27" height="10.66" rx="3.4"/><line class="cls-14" x1="400.08" y1="252.31" x2="390.62" y2="350.37"/><line class="cls-14" x1="430.44" y1="252.31" x2="439.9" y2="350.37"/><line class="cls-14" x1="397.73" y1="276.75" x2="432.95" y2="276.75"/><line class="cls-15" x1="395.79" y1="298.39" x2="434.88" y2="298.39"/><rect class="cls-16" x="390.62" y="244.46" width="49.27" height="10.66" rx="3.4"/><ellipse class="cls-2" cx="329.79" cy="358.98" rx="6.9" ry="3.75"/><path class="cls-17" d="M330.3,319.33l.22,19.57a17.39,17.39,0,0,1,1,6c0,3.43,3.05,8.74.32,11.2s-5.92.42-6.16-3,0-6.79-.93-8.67-1.07-4.94.21-6.32l-3.3-18.46Z"/><path class="cls-16" d="M329.16,345.55l-1,.12a1.66,1.66,0,0,1-1.85-1.28L325,338.11c-1.28,1.38-1.12,4.44-.21,6.32s.7,5.23.93,8.67,3.43,5.49,6.16,3-.35-7.77-.32-11.2a17.39,17.39,0,0,0-1-6l.18,4.88A1.71,1.71,0,0,1,329.16,345.55Z"/><path class="cls-17" d="M373.38,312.49l2.82,19.37a17.12,17.12,0,0,1,1.83,5.83c.43,3.41,4.19,8.26,1.81,11.07s-5.81,1.2-6.5-2.19-.94-6.72-2.09-8.46-1.72-4.76-.63-6.3L364.88,314Z"/><path class="cls-16" d="M375.75,338.63l-.94.24a1.65,1.65,0,0,1-2-1l-2.18-6c-1.09,1.54-.52,4.55.63,6.3s1.4,5.08,2.09,8.46,4.13,5,6.5,2.19-1.38-7.66-1.81-11.07a17.12,17.12,0,0,0-1.83-5.83l.83,4.81A1.7,1.7,0,0,1,375.75,338.63Z"/><path class="cls-16" d="M321.49,160.93s11.69,9.67,24.77,3.57c0,0,0-1.52,1.28-1.52s6.56,1,13.83,4.4c10.22,4.85,33.55,31.05,32.59,44.31-.71,9.69-7.75,12.86-14.09,12.59s-5.82-11-5.82-11l-19.9-16.73-3.7,27.74H308l-6-43.42-14.44-61.75a17.45,17.45,0,0,1,5.07-8.37,7.68,7.68,0,0,1,8.14-1.23Z"/><path class="cls-18" d="M321.49,160.93l-20.72-51.42a7.68,7.68,0,0,0-8.14,1.23,17.45,17.45,0,0,0-5.07,8.37L302,180.86C316,191.6,321.49,160.93,321.49,160.93Z"/><path class="cls-18" d="M379.87,224.28c6.34.27,13.38-2.9,14.09-12.59,1-13.26-22.37-39.46-32.59-44.31-1.59-.75-3.07-1.38-4.44-1.91h0c-9.31,15.21-2.78,31.07-2.78,31.07l19.9,16.73S373.52,224,379.87,224.28Z"/><path class="cls-19" d="M384.46,214c.12,6.41-1.81,10.78-5.53,10.33s-5.53-6.47-4.88-11Z"/><polygon class="cls-20" points="366.04 222.79 337.96 222.79 344.26 184.12 372.35 184.12 366.04 222.79"/><polygon class="cls-21" points="362.41 187.29 353.17 187.29 353.96 182.44 363.2 182.44 362.41 187.29"/><path class="cls-22" d="M319.27,239.7c15.31.46,13.74,81.74,13.74,81.74H317.33s-3.67-6.92-3.7-13c0-6.29-3-12.86-3.88-19.55S296,239,319.27,239.7Z"/><line class="cls-23" x1="333.05" y1="315.62" x2="314.94" y2="315.62"/><path class="cls-22" d="M351.79,235.05c15.25-1.59,24.54,79.17,24.54,79.17l-15.53,2.09s-4.56-6.37-5.41-12.42c-.88-6.23-4.69-12.35-6.46-18.86S328.66,237.46,351.79,235.05Z"/><line class="cls-23" x1="375.7" y1="309.11" x2="358.29" y2="311.53"/><path class="cls-17" d="M328.29,150.49l-.77,9.58a1.69,1.69,0,0,1-2,1.54l-4.05-.68s2.38,13.54,12.62,15.46,12.15-11.89,12.15-11.89l-5.61-1-2.91-13Z"/><path class="cls-24" d="M337.74,150.49h-9.45l-.3,3.72a16.22,16.22,0,0,0,11.79,5.44Z"/><path class="cls-25" d="M324.64,144.43s-5-9.42.62-13c2.9-6.3,15.41-5.33,18.36,1.63a9.66,9.66,0,0,1-2.2,11.23Z"/><circle class="cls-25" cx="329.25" cy="124.99" r="5.88"/><path class="cls-17" d="M342.75,143.69a1.65,1.65,0,0,0-1.64-.09c.26-1.83.44-3.35.44-3.35s-8.19,1.15-13.3-4.05c0,0-.62,4.58-3,6.25,0,0,0,.42.06,1.07a1.65,1.65,0,0,0-1.45.17c-1.06.59-.45,3.25,1.89,3.34.34,1.84.89,3.71,1.79,4.5,2,1.76,4.75,3.25,6.25,3.17s5.72-3.53,6.25-5a19.16,19.16,0,0,0,.55-2.67l.26,0C343.2,146.94,343.81,144.28,342.75,143.69Z"/><path class="cls-17" d="M381.54,209.62,350,202.48s-5.41-7.27-7-7.6.66,2.47.66,2.47-2.26-1.61-2.85-.55a3.39,3.39,0,0,0,0,2.51s-.72,1.1,1.13,2.93,6.87,3,6.87,3S372.37,220,377.84,222,387.62,212.39,381.54,209.62Z"/><path class="cls-19" d="M300.77,109.51a7.68,7.68,0,0,0-8.14,1.23,17.45,17.45,0,0,0-5.07,8.37C292.49,123,300.42,113.83,300.77,109.51Z"/><path class="cls-17" d="M300.57,110.51l-5.9-19.14s2.18-4.5,1.85-5.82-1.85-.92-1.85-.92a7.34,7.34,0,0,0-.51-1.65c-.22-.27-5.64,2.24-5.64,2.24s-1,3,.4,3.77a2.43,2.43,0,0,0,1.92,3l5,25.45A15.48,15.48,0,0,0,300.57,110.51Z"/><line class="cls-14" x1="234.68" y1="252.31" x2="225.22" y2="350.37"/><line class="cls-14" x1="265.03" y1="252.31" x2="274.49" y2="350.37"/><line class="cls-14" x1="232.32" y1="276.75" x2="267.54" y2="276.75"/><line class="cls-15" x1="230.38" y1="298.39" x2="269.48" y2="298.39"/><rect class="cls-16" x="225.22" y="244.46" width="49.27" height="10.66" rx="3.4"/><path class="cls-26" d="M207.06,49.51H113.17c-19,0-10.57-15.86,0-18.68s8.1-19.73,27.12-26.42c10.57-3.72,21.5,7.05,21.5,7.05s12-3.88,22.54,3.87c7.11,5.21,12.47,16.7,22.73,16.91C224,32.6,231.19,49.51,207.06,49.51Z"/><path class="cls-26" d="M281.78,41.64s-5.25-7.55-13.72,0c0,0,12-1.8,13.72,7.24,1.72-9,13.72-7.24,13.72-7.24C287,34.09,281.78,41.64,281.78,41.64Z"/><path class="cls-26" d="M539.7,98.46s-3.9-5.6-10.18,0c0,0,8.9-1.34,10.18,5.36,1.27-6.7,10.17-5.36,10.17-5.36C543.59,92.86,539.7,98.46,539.7,98.46Z"/><path class="cls-2" d="M113,362.15c1.2,2.59-4.39,7.71-12.48,11.46s-15.62,4.69-16.82,2.11,4.4-7.71,12.49-11.46S111.84,359.57,113,362.15Z"/><path class="cls-2" d="M159.68,360.8c-1.2,2.58,4.4,7.71,12.49,11.46S187.78,377,189,374.37s-4.4-7.72-12.49-11.46S160.87,358.22,159.68,360.8Z"/><path class="cls-16" d="M162.65,345.66l1.59,11.27s-1.76,5.38,0,7.23,8.63,4.4,8.63,4.4,11.19,5.46,12.95,4.32S176.13,360,176.13,360l-3.79-8.64-.85-5.46Z"/><path class="cls-27" d="M173.66,354.38a5.43,5.43,0,0,0-3.54,5l-5.88-2.42s-1.76,5.38,0,7.23,8.63,4.4,8.63,4.4,11.19,5.46,12.95,4.32S176.13,360,176.13,360Z"/><path class="cls-16" d="M110,345.66v11.27a8.93,8.93,0,0,1,0,7.4c-1.85,3.7-22.86,10.71-23.92,9.78s10-11.23,10-11.23l4.89-8.5.27-8.72Z"/><path class="cls-27" d="M100.22,355.81l-4.07,7.07s-11.1,10.31-10,11.23S108.18,368,110,364.33a8.26,8.26,0,0,0,.69-5.08l-5.57,1.25A6.8,6.8,0,0,0,100.22,355.81Z"/><path class="cls-28" d="M151.12,188.34l3.43,28.54s4.76,19,5.81,32.24,15.07,98.3,15.07,98.3H159.84s-2.38-5-1.85-9.51-5-8.46-4.23-13.48-5.55-14.53-6.87-23.78-21.67-73.73-21.67-73.73l-9.51,76.9s1.58,13.48,0,19.29-.53,14-3.17,24.31H97.11s-2-60.78-2.28-75.57-.12-65,6-83.51Z"/><path class="cls-29" d="M96.46,215.23c16.65-11,45.33-17.63,55.52-19.74l-.86-7.15H100.78C98.74,194.58,97.37,204.39,96.46,215.23Z"/><path class="cls-30" d="M112.27,105.19s12.53-16.73,29.34,0c0,0,22.06-.35,27.21,16.83L181,156.19l39.81,13.22-1.59,7s-30.3,2.93-43.33,0-21.67-19.84-21.67-19.84l-1.76,27.83s2.46,3.35,1.76,5.29S148.06,192,141.61,192H99.76L90.6,111.8A86.4,86.4,0,0,1,112.27,105.19Z"/><path class="cls-17" d="M92.3,188.35s3.07,1.86,5.22,1,3.72-2.93,7.3-3.43,4.29-.14,4.29.36-4.86.93-6.73,2.29c0,0,8-1.44,8.16.07.07.71-6.72.86-8.3,1.86,0,0,7.73-.65,7.8,0s-6.72,1-7.8,2c0,0,5.58,0,5.22,1.17s-3.43-.36-5.79.78-4.15,1.58-6.65,0a16,16,0,0,0-4-2Z"/><path class="cls-31" d="M170.22,174.17s-4.69-10-7.18-14.7.5-11.29,1.33-17.1-6.54-10.83-6.54-10.83l-3.63,25S160.4,168.68,170.22,174.17Z"/><path class="cls-30" d="M90.6,111.8c5.22-2.28,9.33,28.72,4.07,35.59s-18.73,22.32-18.73,22.32,2.64.8,0,3.18l19.29,15.45-1.79,6.41s-20.94-4.69-34.81-12.09-5.15-24.07-2.25-29.93,17.68-22.39,17.68-22.39S79.5,116.64,90.6,111.8Z"/><path class="cls-32" d="M85.49,128.89s.51,6,8.89,16"/><path class="cls-33" d="M87.71,135.09S83.06,146,85.49,148.33c2.14,2.08-4.8,10.38-4,15,4.35-5.07,10.15-11.92,13.19-15.9a6.74,6.74,0,0,0,.78-1.36C93.45,143.65,89,138.22,87.71,135.09Z"/><line class="cls-32" x1="174.25" y1="340.26" x2="157.95" y2="340.26"/><line class="cls-32" x1="113.3" y1="340.26" x2="96.99" y2="340.26"/><line class="cls-32" x1="125.11" y1="227.84" x2="125.11" y2="191.96"/><path class="cls-32" d="M130.64,192v14.49c0,7-5.53,9-5.53,9"/><path class="cls-32" d="M141.61,192s-.59,10.64,11.92,16.46"/><path class="cls-32" d="M107.62,191.2s-4.56,18-10.72,19.22"/><path class="cls-32" d="M149.09,267a11.51,11.51,0,0,0,6,3.35"/><path class="cls-32" d="M111.92,267.88s-5.76,4.05-9.66,5.46"/><path class="cls-28" d="M119.25,90l-6.78-9.55s-6.28-4.6-2.66-10.88,15.24-2.78,20.68-1.21c0,0,11.12.6,11.12,8.22S133,90,133,90Z"/><path class="cls-17" d="M121.52,94.27l-1.65,11.07a3,3,0,0,0,1.09,2.84,9.35,9.35,0,0,0,10.4-.06,3,3,0,0,0,1.17-2.9l-1.63-11Z"/><path class="cls-34" d="M119.86,105.74c5-.06,9.45-3,12-5.13l-.94-6.34h-9.38l-1.65,11.07C119.85,105.47,119.87,105.61,119.86,105.74Z"/><path class="cls-17" d="M129.18,72.36a15.52,15.52,0,0,1-11.55,8.08s-.38,18.09,8.08,18.09,10-15.78,10-15.78S128.92,77.36,129.18,72.36Z"/><path class="cls-27" d="M93.28,135.23s5.43-6.7,15.47,0c0,0,8.13-8.29,17.45,0,0,0,9.85-8.29,19,0,0,0,7.76-3.88,12.07,0l-2.47,14.67H95.07Z"/><path class="cls-32" d="M158.78,123.34s-.27,3.3-1.06,9-3.7,22.07-3.7,22.07"/><path class="cls-32" d="M162,132.06s-1.81,7.93-6.25,12.15"/><path class="cls-32" d="M95.07,149.9s-2.21-18.36-1.79-25.72"/><path class="cls-2" d="M256.59,359c0,3.33-5,6-11.08,6s-11.07-2.69-11.07-6,5-6,11.07-6S256.59,355.65,256.59,359Z"/><path class="cls-17" d="M240.92,338.22l-.28,10.24s-3,7.61-1.49,7.78,3.89.26,2.88,2-2.19,4,4,4.45,7.27-1.58,6.5-4c-.63-1.93-4.07-7.53-5.37-9.6a2.85,2.85,0,0,1-.42-1.73l.84-11.63Z"/><path class="cls-16" d="M239.15,356.24c1.52.18,3.89.26,2.88,2s-2.19,4,4,4.45,7.27-1.58,6.5-4c-.54-1.65-3.13-6-4.68-8.5-1.89.44-4.49,1.3-5.45,2.83-.84,1.34-2,.16-2.9-1.24C238.83,353.85,238.32,356.15,239.15,356.24Z"/><path class="cls-28" d="M236.47,262.42l1.58,77.84h15.86s3.17-4.38,2.82-14.24,3.52-11.63,3.87-20.09,4-46.5,4-46.5Z"/><path class="cls-35" d="M263.84,267.88s-3.24,6.34-8.17,7.05-5.64,6.52-10.39,12-2.81,10.56-8,14.62l-.79-39.11,28.18-3Z"/><path class="cls-17" d="M265.89,257.05l11.92-1a3.89,3.89,0,0,1,2.93,1,15.53,15.53,0,0,1,4.09,6.19c1.93,5.29,2,8.2,4.05,8.46s-1.06-25.54-1.06-25.54l-24.22-1.94Z"/><path class="cls-16" d="M283.27,245.76l1.29,10.1-2.78,2.21a15.93,15.93,0,0,1,3.05,5.14c1.93,5.29,2,8.2,4.05,8.46s-1.06-25.54-1.06-25.54Z"/><path class="cls-36" d="M247.34,154.67c-21.13,3-31.39,9.51-33.55,11h0c-.3.21-.44.33-.44.33h0c-16,11.78-27.28,49.57-26.3,54.64,1.77,9.07,12.42,6.69,14.89,2.82,1.93-3,12.43-18.11,16.87-24.47,1.73,13.43,3,25.39,3,25.39h52.72l2.91-58.13C268.31,155.05,247.34,154.67,247.34,154.67Z"/><line class="cls-37" x1="218.81" y1="199.02" x2="215.21" y2="174.17"/><path class="cls-37" d="M210.91,181.54s0,8.86,7.32,13.46"/><path class="cls-17" d="M201.91,189l1.48-30.55a10.36,10.36,0,0,0,1.76-3.71c.5-2.11,4.29-3.91,3.76-5.26s-3.26,1.89-4,1.59-.62-.89-.89-4.93.06-7.94-.74-7.91-1.31,9.33-1.31,9.33-.73-10.95-2.06-10.75-.5,10.27-.5,10.27-2-9-3-9,.53,9.55.53,9.55-3.48-6-4.09-5.68,3.16,7.23,3.16,7.23-1.15,6,1.48,8.93L191,188.51Z"/><polygon class="cls-38" points="219.07 201.11 219.07 201.11 219.07 201.11 219.07 201.11"/><path class="cls-39" d="M218.78,199.06l-3-20.85s-5.07,3.78-4.88,12.59-6.68,7.51-7.08,12.92-5.24,9.38-5.24,9.38l2.71,11.18a4.62,4.62,0,0,0,.64-.79C203.87,220.45,214.33,205.44,218.78,199.06Z"/><path class="cls-40" d="M242.41,224.41h32.11L276.84,178,264,175c-5.69,4.36-7.27,9.58-7.14,13.21s-5.94,6.87-6.67,12C249.64,204.3,244.54,218.58,242.41,224.41Z"/><path class="cls-41" d="M256,214.31l-22.72,6.34s-9.05,0-10.18,3.76h34.82Z"/><path class="cls-28" d="M180.63,262.68C177.36,250.35,187,239,217,239c36.41,0,50.82,2.12,50.82,2.12v19.37S185.38,280.57,180.63,262.68Z"/><path class="cls-17" d="M246.35,144.37l3.36,10.8a3.1,3.1,0,0,1-.9,3.26c-2.88,2.56-9.05,7.71-10.59,6.3-2-1.85-2.25-14.07-2.25-14.07Z"/><path class="cls-42" d="M247.34,147.54l-1-3.17L236,150.66a83.41,83.41,0,0,0,.73,9.43C242.21,157.71,245.77,151.08,247.34,147.54Z"/><path class="cls-17" d="M229.38,141.28s1.21,11.39,3.8,12.61,11.7-5.23,13.6-9c0,0,4.92-3.05,2.46-7.08l-11.12-9.5-9.81,3.27Z"/><path class="cls-16" d="M234.88,132.24s2.91-2,4.32,1,1.76,6.08,6.87,6c0,0,.53-2.29,3.17-1.5a62.81,62.81,0,0,0,1.06-7.22c.26-3.52-5.82-13-16.12-3.7,0,0-5.73-2.11-8.11,3.35s-.52,11.54-.52,11.54,2.64,1.85,7.66,0C233.21,141.75,229.16,130.47,234.88,132.24Z"/><path class="cls-43" d="M203.83,185.38l-1.44,37.41H187.71S182.83,221,183.49,209s5.68-24.32,5.68-24.32Z"/><path class="cls-44" d="M277.43,166.28c4.75,6,12.93,27.46,15.15,48a9,9,0,0,1-9,10H254.17s-2.38-7.13-1.19-12l12.29-2.38s-.92-2.91,1.72-3.17c0,0-1.32-6.49-4.63-18.44S272.27,159.81,277.43,166.28Z"/><path class="cls-37" d="M265.93,171.52s-6.21,6.06-2.87,19.28"/><polygon class="cls-45" points="323.42 222.79 268.81 222.79 275.55 185.38 330.16 185.38 323.42 222.79"/><ellipse class="cls-16" cx="299.48" cy="204.09" rx="7.37" ry="6.16" transform="translate(-59.26 255.5) rotate(-42.43)"/><path class="cls-46" d="M378.18,208.86s2.66-3,7.5-.3"/><path class="cls-2" d="M407.84,356.21c.18,2.06-4.82,4.19-11.18,4.74s-11.65-.66-11.83-2.73,4.82-4.19,11.18-4.74S407.66,354.14,407.84,356.21Z"/><path class="cls-2" d="M459.78,356.21c.18,2.06-4.83,4.19-11.18,4.74s-11.65-.66-11.84-2.73,4.83-4.19,11.18-4.74S459.6,354.14,459.78,356.21Z"/><path class="cls-17" d="M404.11,313.65l-3.94,35-7.05,4.89s-7.24,1.07-7.21,2.52,15.32-.3,19-.37.61-2.66.95-5.57,8.8-36.64,8.8-36.64Z"/><path class="cls-17" d="M446.94,313.65l5.16,35-7,4.89s-7.25,1.07-7.22,2.52,15.32-.3,19-.37.61-2.66.95-5.57-.3-36.64-.3-36.64Z"/><path class="cls-47" d="M451.46,179.8s7.66,11.31,7.36,42.47l1.62,94H442.81l-13.37-89.37-7.93,48.73s3.84,11.56-4.77,40.64H401.08L404,268.59a347.45,347.45,0,0,1,9.07-88.79Z"/><path class="cls-48" d="M429.44,226.94s-4.58-26.35-3.35-48.37"/><path class="cls-48" d="M421.42,178.57s-1.25,22.94,5.06,23.23"/><path class="cls-49" d="M451.46,179.8h-38.4q-1.06,4.45-2,8.84a24.41,24.41,0,0,0,10.43.36c8.39-1.31,25.75,10.94,35.92,10.81C455.29,185.47,451.46,179.8,451.46,179.8Z"/><path class="cls-17" d="M411.56,123.83l-23.15,16.5-9.53-12,1-.63-3.44-8.28-4.69,2.94a2.85,2.85,0,0,0-1.28,3.1c.56,2.26,1.88,5.58,4.83,5.76,0,0,3,19.49,11.1,22s33.73-19.61,33.73-19.61Z"/><path class="cls-50" d="M411.56,123.83l-15.51,11c5.17.13,13.7,1.08,15.16,5.81,5.11-3.87,8.89-7.13,8.89-7.13Z"/><path class="cls-30" d="M423.12,114.14l-12.07,8.61a1.66,1.66,0,0,0-.26,2.47l9.49,10.36Z"/><path class="cls-20" d="M427.15,113.21c-4.84,2.73-13.39,16.29-13.39,16.29a27.1,27.1,0,0,1,2.12-12.68s-6-.09-6.7-1.5c-2.31-4.61,4.93-15,4.93-15-9.77-2.29-13.3-8.19-6.87-12.07S421,81,421,81s3.85-6,11.45-.88c4.85,3.26,4.31,9.34,6,11.54s6.52,5.11,4.76,6.34c0,0,7.93,2.73,9.6,10,0,0-8-1.49-12.51,1.33Z"/><path class="cls-30" d="M440.27,109.34c5.11-4.23,12.86-4.85,16.39-1.06s3.78,16.64,3.78,16.64h-4.93s-5.81,18.41-6,26.34S456,180.68,456,180.68c.93,3.17-3.17,3.44-9.91,3.44h-32.5c-6.61,0-3.57-5.55-2.25-11.23s5.9-23.13,6-26.83-6.65-9.33-3.61-16.56,8.28-16.91,13.39-16.29Z"/><path class="cls-46" d="M440.85,119.38l-1.19,7.13s1.45,1.65,4.95,1.78"/><path class="cls-46" d="M435.83,122.22s-.73,7.73,7.86,9.51"/><path class="cls-51" d="M449.52,151.26a46.56,46.56,0,0,1,1-7.14l-8.16-16.18-2.65-1.43.71-4.29c-4,1.52-2.1,6.74-1.37,10.1s-.53,5-5.55,4.76-4.89.26-2,5,4.68,11.07,3.52,20.48c-.68,5.48-3.8,16.94-5.44,21.54h16.58c6.74,0,10.84-.27,9.91-3.44C456,180.68,449.35,159.19,449.52,151.26Z"/><path class="cls-52" d="M388.41,140.33a4.48,4.48,0,0,1,2.1,3.32"/><path class="cls-53" d="M381.4,131.48c-1.68,0-4.3-.13-6.13-.3a67.62,67.62,0,0,0,1.49,6.72c3.2-1.42,7.93-.05,10.42.88Z"/><path class="cls-54" d="M403.38,278.66l-2.3,37.65h15.66c8.61-29.08,4.77-40.64,4.77-40.64l7.93-48.73-1.58-11.12C424.34,229.91,411.3,260.6,403.38,278.66Z"/><path class="cls-16" d="M385.91,356c0,1.45,15.32-.3,19-.37,3.08-.06,1.45-1.87,1-4.15-6.42,3.29-3.57-2.86-5.78-2.89l-7.05,4.89S385.88,354.58,385.91,356Z"/><path class="cls-16" d="M437.84,356c0,1.45,15.32-.3,19-.37,3.09-.06,1.46-1.87,1-4.15-6.42,3.29-3.58-2.86-5.79-2.89l-7,4.89S437.81,354.58,437.84,356Z"/><path class="cls-55" d="M387.18,119.38s-8.24-3.57-5.1-13.61,15.17-8.06,14.51-17.31-10.12-7-14.51-9.65-.25-10.17-6.81-13.34-13,1.58-22,3.17-16.78,3-16.52,0,4.63-3.44,3.17-7.13-8.85-3.7-9.91-2.65c0,0,8.06,0,8.33,2.78s-6,4.09-5.7,9.11,11.25,4,21.95,3.31,9.74,3.56,8.9,8.85.88,8.85,7.88,9.78,10.25,1.79,6.34,9.51c-3.37,6.65-.69,12.82,5.62,17.18Z"/><path class="cls-17" d="M417.37,98.06s.71,1.23,2.2,4.58,3.26,4.84,6.88,4.49l.7,6.08s-7,5.65-3.17,7.41,9.25-6.17,16.29-11.28c0,0-5.6-2.63-7.22-7.49-2.82-8.46-7.13-6.17-9.25-15.07C423.8,86.78,421.25,95.59,417.37,98.06Z"/><path class="cls-56" d="M433.05,101.85q-.18-.52-.36-1c-1.33,2.88-4.16,6-6.24,6.27l.28,2.47,11.69-1.35A13.38,13.38,0,0,1,433.05,101.85Z"/><path class="cls-17" d="M458.82,124.92s-8.2-4.22-16.26,1.19l-12.94,93.55s-1.85,2.18-.66,3.13,4,.57,7.13.57h8.72s-5.68-3.83-7.13-4.56-2-3-2-3,12.16-29.34,11-45.59A313.39,313.39,0,0,0,458.82,124.92Z"/><path class="cls-57" d="M374.33,118.79a24.67,24.67,0,0,0,3.59,10.84,2.12,2.12,0,0,0,1.77,1h7.25a2.14,2.14,0,0,0,1.77-1,24.67,24.67,0,0,0,3.59-10.84,1,1,0,0,0-1-1.13H375.36A1,1,0,0,0,374.33,118.79Z"/><ellipse class="cls-2" cx="520.83" cy="352.31" rx="28.98" ry="3.12"/><rect class="cls-58" x="497.88" y="238.38" width="45.91" height="113.93"/><line class="cls-59" x1="543.79" y1="275.81" x2="497.88" y2="275.81"/><line class="cls-59" x1="543.79" y1="314.29" x2="497.88" y2="314.29"/><line class="cls-59" x1="543.79" y1="279.07" x2="497.88" y2="279.07"/><line class="cls-59" x1="543.79" y1="241.65" x2="497.88" y2="241.65"/><line class="cls-59" x1="543.79" y1="317.55" x2="497.88" y2="317.55"/><path class="cls-60" d="M523.84,248.28a3,3,0,1,1-3-2.92A3,3,0,0,1,523.84,248.28Z"/><path class="cls-60" d="M523.84,286.42a3,3,0,1,1-3-2.92A3,3,0,0,1,523.84,286.42Z"/><path class="cls-60" d="M523.84,324.55a3,3,0,1,1-3-2.92A3,3,0,0,1,523.84,324.55Z"/><polygon class="cls-61" points="497.88 256.91 497.88 352.31 510.99 352.31 497.88 256.91"/><path class="cls-62" d="M511.81,218.49a20.47,20.47,0,0,1-5.56-19.15s-12.28-12-4.09-19.29c0,0-4.76-30,5-31.84S518,173.57,518,173.57s5.55-1,2,17.12c0,0,7.67.72,2.51,27.94Z"/><path class="cls-63" d="M507.18,148.21s2.55,40.12,10.13,70.35"/><path class="cls-64" d="M517.88,218.56h12.55s14-22.13,10-30.32c0,0,8.06-18.36,2.78-20.87s-11.89,12.68-11.89,12.68S519.19,179.65,517.88,218.56Z"/><path class="cls-63" d="M543.25,167.37s-14.14,25.59-19,51.19"/><path class="cls-16" d="M520.83,215.43c-6.72,0-12.09.81-12,1.79l2.09,21.16h19.83l2.08-21.16C532.93,216.24,527.56,215.43,520.83,215.43Z"/><ellipse class="cls-2" cx="480.1" cy="365.52" rx="7" ry="2.38"/><ellipse class="cls-2" cx="186.99" cy="365.52" rx="7" ry="2.38"/><rect class="cls-57" x="198.59" y="229.83" width="269.46" height="22.2"/><polygon class="cls-58" points="192.14 229.83 184.7 365 189.66 365 208.12 229.83 192.14 229.83"/><polygon class="cls-58" points="474.5 229.83 481.95 365 476.99 365 458.53 229.83 474.5 229.83"/><polygon class="cls-65" points="191.86 235.03 475.51 248.06 474.5 229.83 192.14 229.83 191.86 235.03"/><rect class="cls-57" x="180.02" y="222.27" width="306.6" height="9.67"/><circle class="cls-66" cx="481.95" cy="83.68" r="23.64"/><circle class="cls-30" cx="480.56" cy="82.23" r="23.64" transform="translate(304.12 536.73) rotate(-78.49)"/><circle class="cls-60" cx="480.56" cy="82.23" r="17.66" transform="translate(290.91 531.38) rotate(-76.82)"/><polyline class="cls-67" points="480.56 67.8 480.56 82.99 490.47 75.31"/></g></g></svg>