<svg xmlns="http://www.w3.org/2000/svg" viewBox="0 0 551.05 437.22"><defs><style>.cls-1{fill:#e4eee6;}.cls-2{fill:#9ac5a8;}.cls-3{fill:#69897e;}.cls-4{fill:#f8f4e2;}.cls-5{fill:#2e2427;}.cls-6{fill:#ca4f24;}.cls-7{fill:#db8f1b;}.cls-8{fill:#ceb12e;}.cls-9{fill:#87beca;}.cls-10{fill:#e6b11b;}.cls-11{fill:#e7b119;}.cls-12{fill:#85361e;}.cls-13{fill:#427b83;}.cls-14{fill:#d47974;}.cls-15{fill:#46909b;}.cls-16{fill:#c7e2f8;}.cls-17{fill:#78bac9;}.cls-18{fill:#e1ae8d;}.cls-19{fill:#f3d78a;}.cls-20{fill:#ce7d67;}.cls-21{fill:#2d2327;}.cls-22{fill:#fff;}</style></defs><g id="Layer_2" data-name="Layer 2"><g id="OBJECTS"><path class="cls-1" d="M66,112.19s49.75-83.73,120.43-79.63,44.13,54.89,76.17,52.33,94.73-94,175.81-42.54c114,72.29,10.07,147.09,57.46,142.66s77.54,68.24,34.43,137-107.82,65.58-125.09,59.68c-22.42-7.67-52.58-46.16-77.45-24.48s-50,78.22-109.27,55.78c-90.07-34.06-11.7-144.86-95.1-121.66S4.84,209.37,66,112.19Z"/><path class="cls-2" d="M56.62,362a56.88,56.88,0,0,1-22.79-13.43c-10-10-27.43-17.71-26.43-25.95S31.61,318,51.11,351.39C59.73,366.16,72.27,369.57,56.62,362Z"/><path class="cls-3" d="M54.49,358.61S46.62,353.93,41,338.23s-23.52-37.51-18.7-46.11,11.27-.49,24.23,15.26C60.87,324.79,67,374.28,54.49,358.61Z"/><path class="cls-2" d="M67.7,364.6s6.36-11.61,4.71-28.2,11.5-44.44,1.68-45.3c-12.42-1.09-22,30.75-16.9,49.42C62.53,360.2,63.09,384.13,67.7,364.6Z"/><polygon class="cls-4" points="61.23 347.65 37.61 354.05 50.93 383.16 58.93 380.99 69.49 378.13 77.49 375.96 74.3 344.11 61.23 347.65"/><path class="cls-5" d="M53.09,346.61a.36.36,0,0,1-.35-.26l-.17-.58c-4.53-15.06-8.92-25.62-13-31.39-6.45-9-12.38-16.93-12.44-17a.36.36,0,1,1,.57-.43c.06.08,6,8,12.45,17,4.17,5.83,8.6,16.47,13.15,31.61l.18.58a.36.36,0,0,1-.24.44Z"/><path class="cls-5" d="M46.47,350.1a.35.35,0,0,1-.26-.12c-.1-.11-10.48-11.12-17.68-15S11.13,323.9,11,323.83a.36.36,0,1,1,.42-.58c.1.07,10.2,7.17,17.43,11.08s17.76,15.05,17.86,15.16a.36.36,0,0,1,0,.51A.39.39,0,0,1,46.47,350.1Z"/><path class="cls-5" d="M63.82,345.4a.37.37,0,0,1-.36-.31c-2.2-14.74,7.3-46.84,7.4-47.17a.35.35,0,0,1,.44-.24.36.36,0,0,1,.24.45c-.09.32-9.55,32.27-7.37,46.86a.35.35,0,0,1-.3.4Z"/><path class="cls-6" d="M497.13,115.4a56.88,56.88,0,0,1-12.58-23.26c-3.4-13.72-14.35-29.33-9.24-35.88s23.12,8.55,22.58,47.2C497.66,120.56,506.64,130,497.13,115.4Z"/><path class="cls-7" d="M497.07,111.39s-4.33-8.07-1-24.41-.78-44.27,7.79-49.14,9.91,5.39,12.87,25.57C520,85.72,499.71,131.28,497.07,111.39Z"/><path class="cls-6" d="M505.29,123.34s11.44-6.66,18.59-21.72,32.79-32.13,24.82-37.93c-10.07-7.34-34.67,15-40,33.6C503.13,116.9,491.26,137.69,505.29,123.34Z"/><polygon class="cls-4" points="508.5 105.48 484.97 98.77 481.35 130.58 489.32 132.85 499.84 135.85 507.81 138.13 521.51 109.19 508.5 105.48"/><path class="cls-5" d="M502.09,100.4a.36.36,0,0,1-.19-.41l.15-.59c3.89-15.24,5.59-26.55,5-33.62-.86-11.06-1.86-20.89-1.87-21a.36.36,0,0,1,.71-.07c0,.1,1,9.93,1.88,21,.56,7.15-1.15,18.54-5.06,33.86l-.15.59a.36.36,0,0,1-.43.26Z"/><path class="cls-5" d="M494.63,100a.36.36,0,0,1-.2-.25c0-.15-3.23-14.94-7.39-22s-9.19-18.45-9.24-18.56a.36.36,0,0,1,.18-.48.37.37,0,0,1,.47.19c.05.11,5,11.4,9.21,18.49s7.44,22.06,7.47,22.21a.35.35,0,0,1-.27.42A.35.35,0,0,1,494.63,100Z"/><path class="cls-5" d="M511.91,104.91a.37.37,0,0,1-.18-.46c5.72-13.77,30.43-36.36,30.68-36.58a.35.35,0,1,1,.48.52c-.24.23-24.84,22.71-30.5,36.33a.36.36,0,0,1-.47.19Z"/><path class="cls-7" d="M0,148.43H74S63.76,135,53.57,141.7c0,0-5-17.52-19-17.18S17.66,141.7,17.66,141.7,6.63,134.85,0,148.43Z"/><path class="cls-5" d="M49.58,141.36a.35.35,0,0,1-.33-.24c-2.06-5.79-5.16-9.62-9-11.08a9.07,9.07,0,0,0-5.12-.49.35.35,0,0,1-.44-.25.36.36,0,0,1,.25-.44c.09,0,9.79-2.52,15,12a.37.37,0,0,1-.22.46Z"/><path class="cls-5" d="M68.82,146.74a.36.36,0,0,1-.27-.12c-6-6.94-11.65-2.82-11.89-2.65a.36.36,0,0,1-.5-.06.37.37,0,0,1,.07-.51c.06,0,6.39-4.69,12.86,2.75a.35.35,0,0,1,0,.5A.36.36,0,0,1,68.82,146.74Z"/><path class="cls-2" d="M462.16,226.12h74s-10.25-13.44-20.44-6.72c0,0-5-17.52-19-17.19s-16.87,17.19-16.87,17.19S468.79,212.55,462.16,226.12Z"/><path class="cls-5" d="M511.74,219.05a.37.37,0,0,1-.34-.23c-2-5.79-5.15-9.62-9-11.08a8.86,8.86,0,0,0-5.12-.49.35.35,0,0,1-.44-.25.35.35,0,0,1,.24-.44c.11,0,9.8-2.52,15,12a.35.35,0,0,1-.22.45A.25.25,0,0,1,511.74,219.05Z"/><path class="cls-5" d="M531,224.43a.36.36,0,0,1-.27-.12c-6-6.93-11.66-2.82-11.89-2.64a.36.36,0,0,1-.43-.57c.06,0,6.39-4.69,12.86,2.74a.36.36,0,0,1,0,.51A.35.35,0,0,1,531,224.43Z"/><path class="cls-8" d="M70.15,408.28h74s-10.25-13.44-20.44-6.72c0,0-5-17.52-19-17.19s-16.88,17.19-16.88,17.19S76.78,394.71,70.15,408.28Z"/><path class="cls-5" d="M119.73,401.21a.35.35,0,0,1-.33-.23c-4.94-13.9-13.74-11.67-14.1-11.57a.36.36,0,0,1-.2-.69c.1,0,9.8-2.52,15,12a.35.35,0,0,1-.22.45A.25.25,0,0,1,119.73,401.21Z"/><path class="cls-5" d="M139,406.6a.37.37,0,0,1-.27-.13c-6-6.93-11.66-2.82-11.89-2.64a.36.36,0,0,1-.43-.57c.06-.05,6.39-4.69,12.86,2.74a.36.36,0,0,1,0,.51A.36.36,0,0,1,139,406.6Z"/><polygon class="cls-9" points="321.97 21.66 320.5 31.16 308.34 33.66 313.97 38.25 308.11 42.96 339.58 53.37 321.97 21.66"/><path class="cls-5" d="M338.8,53.21a.42.42,0,0,1-.14-.09L320.23,31.39a.35.35,0,0,1,0-.5.36.36,0,0,1,.51,0l18.43,21.72a.36.36,0,0,1,0,.51A.36.36,0,0,1,338.8,53.21Z"/><path class="cls-5" d="M308.2,34a.35.35,0,0,1,.23-.67L318,35.79a.35.35,0,0,1,.26.43.37.37,0,0,1-.44.26L308.25,34Z"/><path class="cls-5" d="M338.8,53.21a.2.2,0,0,1-.09-.05L317.64,36.41a.35.35,0,0,1-.06-.5.36.36,0,0,1,.5-.06L339.16,52.6a.36.36,0,0,1,0,.51A.36.36,0,0,1,338.8,53.21Z"/><path class="cls-5" d="M313.84,38.58a.31.31,0,0,1-.18-.16.35.35,0,0,1,.14-.48l3.89-2.12a.37.37,0,0,1,.49.14.36.36,0,0,1-.15.49l-3.89,2.12A.35.35,0,0,1,313.84,38.58Z"/><polygon class="cls-10" points="261.47 371.8 262.15 381.39 274.06 384.89 268.07 389 273.52 394.17 241.3 401.95 261.47 371.8"/><path class="cls-5" d="M242,401.87a.35.35,0,0,1-.25-.1.36.36,0,0,1,0-.51l20.16-20.12a.36.36,0,0,1,.51.51l-20.16,20.12A.35.35,0,0,1,242,401.87Z"/><path class="cls-5" d="M264.37,386.92a.36.36,0,0,1-.06-.71l9.69-1.67a.36.36,0,1,1,.13.7l-9.7,1.68Z"/><path class="cls-5" d="M242,401.87a.35.35,0,0,1-.29-.15.36.36,0,0,1,.1-.5l22.38-15a.36.36,0,1,1,.4.59l-22.39,14.95A.36.36,0,0,1,242,401.87Z"/><path class="cls-5" d="M268.07,389.36a.36.36,0,0,1-.2-.06l-3.7-2.44a.35.35,0,0,1-.1-.49.35.35,0,0,1,.49-.1l3.71,2.43a.36.36,0,0,1-.2.66Z"/><path class="cls-5" d="M235.57,0c.49,0,1,.06,1.45.1a.34.34,0,0,1,.33.38.36.36,0,0,1-.37.33h0c-.91-.08-1.85-.12-2.82-.14a.36.36,0,0,1-.36-.36.37.37,0,0,1,.36-.35Zm-4.27,0a.36.36,0,0,1,0,.71c-.92,0-1.88.13-2.82.23a.35.35,0,0,1-.4-.31.36.36,0,0,1,.32-.4c1-.1,1.92-.18,2.87-.23Zm8.54.42h0c1,.16,1.91.36,2.82.59a.36.36,0,0,1,.26.43.35.35,0,0,1-.43.26c-.9-.22-1.83-.42-2.77-.57a.36.36,0,0,1,.07-.71Zm-14.22.2a.36.36,0,0,1,0,.71c-.67.11-1.36.24-2,.38l-.74.15a.36.36,0,0,1-.42-.28.35.35,0,0,1,.27-.42l.75-.15c.7-.15,1.39-.27,2.08-.39ZM272.55,3a.36.36,0,0,1,0,.72c-.93,0-1.89,0-2.84,0a.38.38,0,0,1-.37-.35.36.36,0,0,1,.36-.36c1,0,1.93,0,2.87,0Zm2.85.19h0c1,.09,1.92.21,2.86.36a.35.35,0,0,1,.29.41.34.34,0,0,1-.4.29c-.92-.14-1.87-.26-2.81-.35a.35.35,0,0,1-.32-.39A.35.35,0,0,1,275.4,3.14Zm-30-1.25.11,0A27.73,27.73,0,0,1,248.15,3a.36.36,0,0,1-.32.65,23.92,23.92,0,0,0-2.59-1.09.36.36,0,0,1,.13-.7Zm21.46,1.16a.36.36,0,0,1,0,.72c-.92.06-1.88.15-2.83.26a.36.36,0,0,1-.39-.32.35.35,0,0,1,.31-.39c1-.11,1.93-.2,2.86-.27ZM281,4h.06c.94.22,1.88.47,2.78.74a.36.36,0,0,1,.24.45.35.35,0,0,1-.44.24c-.89-.28-1.81-.52-2.74-.73a.35.35,0,0,1-.26-.43A.36.36,0,0,1,281,4ZM261.16,3.7a.36.36,0,0,1,0,.71L260,4.62c-.54.09-1.07.19-1.58.3a.36.36,0,0,1-.14-.7c.51-.11,1.05-.21,1.6-.31l1.23-.2ZM220,1.81a.34.34,0,0,1,.33.28.35.35,0,0,1-.27.42l-2.79.63a.35.35,0,0,1-.16-.69l2.79-.64A.33.33,0,0,1,220,1.81ZM286.49,5.7l.11,0c.89.35,1.78.73,2.64,1.15a.34.34,0,0,1,.17.47.36.36,0,0,1-.48.17c-.84-.4-1.71-.78-2.59-1.12a.36.36,0,0,1-.2-.46A.35.35,0,0,1,286.49,5.7Zm-36-1.3a.34.34,0,0,1,.17,0,24,24,0,0,1,2,1.42l.09,0c.86-.33,1.78-.64,2.74-.91a.36.36,0,0,1,.44.25.37.37,0,0,1-.24.44c-.89.25-1.74.53-2.54.83a.35.35,0,0,1-.58.3,21.36,21.36,0,0,0-2.26-1.68.35.35,0,0,1-.1-.49A.34.34,0,0,1,250.5,4.4ZM214.45,3.09a.37.37,0,0,1,.33.28.36.36,0,0,1-.27.43l-2.77.68a.35.35,0,0,1-.43-.26.37.37,0,0,1,.26-.44l2.78-.68Zm77.18,5.07a.49.49,0,0,1,.16.05c.83.48,1.65,1,2.44,1.55a.35.35,0,0,1,.09.49.35.35,0,0,1-.5.09c-.77-.53-1.57-1-2.39-1.51a.36.36,0,0,1-.13-.49A.38.38,0,0,1,291.63,8.16ZM208.89,4.47a.33.33,0,0,1,.33.27.35.35,0,0,1-.25.43l-2.78.7a.36.36,0,0,1-.43-.26.35.35,0,0,1,.26-.43l2.77-.7A.18.18,0,0,1,208.89,4.47ZM250.26,7a.36.36,0,0,1,.3.19.35.35,0,0,1-.15.48A20,20,0,0,0,248,9.12a.36.36,0,1,1-.43-.57A18.53,18.53,0,0,1,250.08,7,.39.39,0,0,1,250.26,7Zm4.55,1.15a.33.33,0,0,1,.25.12,16.41,16.41,0,0,1,1.7,2.37.35.35,0,1,1-.61.36,15.73,15.73,0,0,0-1.63-2.26.36.36,0,0,1,0-.51A.33.33,0,0,1,254.81,8.12ZM203.35,5.86a.37.37,0,0,1,.33.27.37.37,0,0,1-.26.44l-2.78.68a.36.36,0,0,1-.17-.69l2.78-.69ZM145,4.07a.32.32,0,0,1,.16,0c.82.48,1.66.93,2.49,1.35a.36.36,0,0,1-.32.64c-.84-.43-1.69-.89-2.53-1.37a.35.35,0,0,1-.13-.48A.36.36,0,0,1,145,4.07Zm151.29,7.34a.32.32,0,0,1,.21.08c.74.6,1.47,1.24,2.17,1.91a.36.36,0,0,1-.5.52c-.68-.66-1.39-1.29-2.12-1.88a.36.36,0,0,1-.05-.5A.34.34,0,0,1,296.32,11.41ZM197.79,7.22a.36.36,0,0,1,.07.71l-2.79.64a.35.35,0,1,1-.16-.69l2.78-.65Zm47.94,3.18a.31.31,0,0,1,.22.09.35.35,0,0,1,0,.5,10.23,10.23,0,0,0-1.53,2.28.36.36,0,0,1-.65-.31,10.7,10.7,0,0,1,1.65-2.44A.32.32,0,0,1,245.73,10.4ZM192.21,8.48a.37.37,0,0,1,.34.28.37.37,0,0,1-.28.43l-2.81.57a.36.36,0,0,1-.42-.29.37.37,0,0,1,.29-.42l2.79-.56ZM150.12,6.64a.28.28,0,0,1,.13,0c.86.38,1.75.74,2.63,1.06a.35.35,0,0,1,.21.46.35.35,0,0,1-.46.21c-.89-.33-1.79-.69-2.67-1.08a.35.35,0,0,1-.18-.47A.35.35,0,0,1,150.12,6.64ZM186.6,9.56a.36.36,0,0,1,.33.3.35.35,0,0,1-.29.41c-.94.16-1.89.32-2.83.46a.37.37,0,0,1-.41-.31.36.36,0,0,1,.31-.4l2.81-.45ZM257.67,13a.37.37,0,0,1,.33.24,12.77,12.77,0,0,1,.63,2.86.35.35,0,0,1-.31.39.36.36,0,0,1-.4-.32,11.91,11.91,0,0,0-.6-2.7.36.36,0,0,1,.22-.45A.32.32,0,0,1,257.67,13Zm42.79,2.33a.33.33,0,0,1,.25.12c.63.71,1.25,1.45,1.84,2.21a.36.36,0,0,1-.06.51.35.35,0,0,1-.5-.07c-.58-.75-1.19-1.48-1.82-2.17a.36.36,0,0,1,0-.51A.41.41,0,0,1,300.46,15.35Zm-145-6.72.09,0c.9.27,1.82.53,2.73.75a.36.36,0,0,1-.17.7c-.93-.23-1.86-.49-2.77-.77a.36.36,0,0,1-.24-.45A.35.35,0,0,1,155.48,8.63Zm25.46,1.76a.36.36,0,0,1,.34.32.36.36,0,0,1-.31.39c-1,.12-1.91.22-2.86.3a.37.37,0,0,1-.39-.33.35.35,0,0,1,.33-.38c.94-.09,1.89-.18,2.83-.3ZM161,10h0c.92.17,1.86.32,2.8.45a.36.36,0,1,1-.1.71c-1-.13-1.9-.28-2.83-.46A.36.36,0,0,1,161,10Zm14.22.88a.35.35,0,0,1,.34.34.36.36,0,0,1-.34.37c-1,.05-1.93.08-2.87.09a.36.36,0,0,1-.36-.36.37.37,0,0,1,.36-.36c.92,0,1.88,0,2.84-.08Zm-8.56-.12h0c.95.08,1.89.14,2.84.17h0a.36.36,0,1,1,0,.71c-1,0-1.91-.08-2.87-.16a.36.36,0,0,1-.32-.39A.35.35,0,0,1,166.68,10.76Zm76.62,4.72h0a.36.36,0,0,1,.3.4,7.41,7.41,0,0,0-.07.8,9.08,9.08,0,0,0,.12,1.94.36.36,0,0,1-.7.12,9.8,9.8,0,0,1-.14-2.09c0-.29,0-.58.08-.87A.36.36,0,0,1,243.3,15.48ZM304,19.87a.36.36,0,0,1,.28.16c.53.8,1,1.63,1.51,2.47a.36.36,0,0,1-.63.35c-.46-.83-.95-1.64-1.47-2.42a.36.36,0,0,1,.1-.5A.39.39,0,0,1,304,19.87Zm-45.73-1.22h0a.35.35,0,0,1,.29.41,10.59,10.59,0,0,1-.86,2.82.36.36,0,0,1-.65-.31,10,10,0,0,0,.81-2.62A.36.36,0,0,1,258.22,18.65Zm-14,2.37a.37.37,0,0,1,.31.2,9.58,9.58,0,0,0,1.56,2.26.36.36,0,1,1-.53.49,10.49,10.49,0,0,1-1.67-2.43.36.36,0,0,1,.16-.48A.33.33,0,0,1,244.25,21Zm62.49,3.84a.38.38,0,0,1,.31.21,25.31,25.31,0,0,1,1.09,2.71.36.36,0,1,1-.69.21,21.08,21.08,0,0,0-1.05-2.62.36.36,0,0,1,.18-.47A.32.32,0,0,1,306.74,24.86Zm-51.25-.92.32.17.26.24a7.06,7.06,0,0,1-2.35,1.83.35.35,0,0,1-.47-.17.37.37,0,0,1,.17-.48A6.16,6.16,0,0,0,255.49,23.94Zm-7.39,1.2a.29.29,0,0,1,.16,0,6.27,6.27,0,0,0,2.56.81.37.37,0,0,1,.33.39.35.35,0,0,1-.39.32,7.16,7.16,0,0,1-2.85-.89.37.37,0,0,1-.14-.49A.36.36,0,0,1,248.1,25.14Z"/><path class="cls-11" d="M386.19,61.26s-24.86,15.14-44,20.55c-5.51,1.56-12.74.53-19.82-1.36C309,76.86,296.12,70.16,296.43,72c.15.85,4.77,4.69,4.77,4.69s-7.81-3.93-7.16-1.45c.41,1.55,5.64,4.38,5.64,4.38s-6.35-2.67-6.45-1.12,18.67,23.13,43.41,24.75c25,1.63,55.77-23.8,55.77-23.8Z"/><path class="cls-6" d="M380.62,111.15v66.39h-24.4c-.53,0-1.16,0-1.87,0-7.6.24-24,2.22-15.14,15.22,10.68,15.75,3.07,27.52-12.56,29-15.65-1.46-23.25-13.23-12.57-29,8.81-13-7.55-15-15.14-15.22-.71,0-1.34,0-1.87,0h-24.4V149.47c.24-7.59,2.23-23.94,15.23-15.13,15.74,10.68,27.51,3.07,29-12.57-1.46-15.64-13.23-23.24-29-12.57-13,8.81-15-7.53-15.23-15.13V66h62.81A45.14,45.14,0,0,1,380.62,111.15Z"/><path class="cls-5" d="M374.88,42.34s-9-12.25,4.89-19.58S411.16,32.22,395.35,44C385.45,51.38,374.88,42.34,374.88,42.34Z"/><path class="cls-12" d="M423.9,139s10.17,27.1,19.65,34.63,61,11.58,61,11.58l1.21,4.19,1.13-10.33s-45.49-18.06-47.22-18.8-6.39-37.52-6.39-37.52Z"/><path class="cls-6" d="M497.65,175.25s-2.42,8.87-1.77,9.07,3.91.75,4.36,1.19,1.64,9.18,3,9.82,4.3-17.61,4.3-17.61Z"/><path class="cls-5" d="M498.48,185.3a.38.38,0,0,1-.24-.09.39.39,0,0,1-.06-.54l3.16-4a.37.37,0,0,1,.54-.06.38.38,0,0,1,.07.54l-3.17,4A.37.37,0,0,1,498.48,185.3Z"/><path class="cls-5" d="M499.36,186.87a.39.39,0,0,1-.29-.13.38.38,0,0,1,.05-.55l4-3.4a.38.38,0,0,1,.54,0,.39.39,0,0,1,0,.55l-4,3.4A.38.38,0,0,1,499.36,186.87Z"/><path class="cls-5" d="M500.66,188.83a.37.37,0,0,1-.3-.15.38.38,0,0,1,.07-.54l3.63-2.78a.39.39,0,1,1,.47.61l-3.63,2.78A.43.43,0,0,1,500.66,188.83Z"/><path class="cls-13" d="M426.37,138.39s5.71,31.68,16.81,37.56,44.47,9.82,45.47,9.49,5.14-16.13,4.12-15.89-26.2-10.2-30.32-11.41-8.75-30.51-8.75-30.51Z"/><path class="cls-11" d="M441.09,79.41c8.68,15.47,16,37.42,10.89,41-31.66,22-41.22,9.8-41.22,9.8-2.87-28.88-42.32-48.91-38.75-57.64S414.82,32.63,441.09,79.41Z"/><path class="cls-14" d="M390.73,46.59c-2.67,1.09-2.18-3-2.18-3s.17-6.61,2.72-6.66"/><path class="cls-12" d="M391.47,38.48s.26,16.35-8.67,16.76-8.52-14.59-7.23-20.33S391.8,33.68,391.47,38.48Z"/><path class="cls-5" d="M378.76,49.1a.37.37,0,0,1-.18-.05.36.36,0,0,1-.2-.39l.82-5.92a.39.39,0,0,1,.43-.33.38.38,0,0,1,.33.43l-.68,4.89,1.38-1.22a.39.39,0,0,1,.52.58L379,49A.39.39,0,0,1,378.76,49.1Z"/><path class="cls-5" d="M381.93,51.22c-.65,0-1.2-.62-1.66-1.89a.37.37,0,0,1,.22-.49.39.39,0,0,1,.5.22c.37,1,.73,1.39.94,1.39h0c.38,0,.91-.94,1.14-1.62a.39.39,0,1,1,.73.25c-.12.36-.79,2.13-1.86,2.14Z"/><circle class="cls-5" cx="384.51" cy="42.34" r="1.25"/><circle class="cls-5" cx="377.29" cy="42.75" r="1.25"/><path class="cls-12" d="M383.49,52.83s.8,2.17,3,7.71A6.21,6.21,0,0,0,390,63.47c2.57.82,8.27-6,8.37-7.57l-7.77-13.37S383.8,49.8,383.49,52.83Z"/><path class="cls-12" d="M389.87,41.47s1.65-3.85,3.11-2.34,0,4.79-1.92,5.77S389.87,41.47,389.87,41.47Z"/><path class="cls-5" d="M384.38,55.38h-.09a.39.39,0,0,1-.35-.42.38.38,0,0,1,.42-.35c.05,0,3.11.08,5.46-7a.39.39,0,0,1,.49-.25.39.39,0,0,1,.24.49C388.17,55,385,55.38,384.38,55.38Z"/><path class="cls-12" d="M453.61,110.7s-50.39,18.16-58.64,29,6.37,75,6.17,76.89-7.5,4.6-7.5,4.6l13,.63s4-60.42,5.57-61.56,41.46-27,41.46-27Z"/><path class="cls-6" d="M409.05,213.45s-9.19-.09-9.23.59.27,4,0,4.52-8.45,3.92-8.73,5.4,18.13-.32,18.13-.32Z"/><path class="cls-5" d="M404.59,219.13a.4.4,0,0,1-.15,0l-4.68-2a.39.39,0,0,1,.31-.71l4.68,2a.4.4,0,0,1,.2.51A.39.39,0,0,1,404.59,219.13Z"/><path class="cls-5" d="M402.94,221.37a.39.39,0,0,1-.23-.07l-4.31-3a.39.39,0,0,1,.44-.64l4.32,3a.39.39,0,0,1,.09.54A.38.38,0,0,1,402.94,221.37Z"/><path class="cls-5" d="M400.67,222.9a.37.37,0,0,1-.24-.08l-3.61-2.8a.39.39,0,0,1,.47-.61l3.62,2.8a.39.39,0,0,1,.06.54A.37.37,0,0,1,400.67,222.9Z"/><path class="cls-12" d="M405.66,62.86s-15,24.92-29.49,38.57c-4.17,3.93-11.05,6.36-18.21,8-13.53,3-28,3-26.93,4.48.53.69,6.4,2,6.4,2s-8.75.12-7,2c1.08,1.18,7,1.28,7,1.28s-6.87.57-6.24,2,29.28,7,51.95-3c22.89-10.11,36.42-42,36.42-42Z"/><path class="cls-15" d="M453.61,110.7s11.78,14.36.09,27c-5.65,6.09-37.78,15.68-39.34,22.62-.37,1.63-2.55,47.46-4.65,48.06s-14.13,3.09-15.4,0S383,147,389.22,140C402.52,125.06,453.61,110.7,453.61,110.7Z"/><path class="cls-11" d="M408.1,57.81s16.62,6.2,15.43,15.91-14.73,34.74-28.56,42-40.41,11.59-44.39,11-5.12-11.86-2.92-16,21.46-8.52,33.42-18.42S408.1,57.81,408.1,57.81Z"/><path class="cls-5" d="M400.49,111.09a.37.37,0,0,1-.3-.15.38.38,0,0,1,.06-.54c13.5-10.92,19.11-21.44,21.44-28.34,2.52-7.46,1.84-12.42,1.83-12.46a.39.39,0,0,1,.33-.44.38.38,0,0,1,.43.32c0,.2,2.66,20.33-23.55,41.52A.38.38,0,0,1,400.49,111.09Z"/><path class="cls-5" d="M384.33,89.71a.39.39,0,0,1-.27-.11.37.37,0,0,1,0-.54c.13-.14,12.78-13.19,16.06-26.3a.4.4,0,0,1,.47-.28.38.38,0,0,1,.28.47c-3.33,13.31-16.13,26.51-16.26,26.64A.36.36,0,0,1,384.33,89.71Z"/><path class="cls-5" d="M381.92,87.38a.39.39,0,0,1-.29-.13c-8.35-9.8-2.19-20.76-2.12-20.87a.38.38,0,1,1,.66.39c-.06.1-5.94,10.6,2,20a.38.38,0,0,1-.29.63Z"/><path class="cls-5" d="M390.45,101.54a.37.37,0,0,1-.18,0c-2.3-1.21-6.79-5.88-7.44-7.28a.46.46,0,0,1,.09-.58c.26-.22.73-.62,12.27,7.19a.4.4,0,0,1,.1.54.39.39,0,0,1-.54.1c-4.18-2.83-8.86-5.85-10.74-6.83,1.34,1.77,4.83,5.24,6.61,6.17a.39.39,0,0,1,.17.52A.4.4,0,0,1,390.45,101.54Z"/><path class="cls-5" d="M490.58,172.09h-.09c-1.15-.27-28.3-6.63-33.33-11.53s-7.7-15.28-7.81-15.72a.38.38,0,0,1,.28-.47.39.39,0,0,1,.46.28c0,.11,2.73,10.61,7.6,15.36s32.7,11.27,33,11.33a.38.38,0,0,1-.09.76Z"/><path class="cls-5" d="M484,183.47a.35.35,0,0,1-.18-.05.39.39,0,0,1-.17-.52s2.51-4.81,4.34-14.88a.39.39,0,0,1,.45-.31.39.39,0,0,1,.31.45c-1.86,10.2-4.31,14.91-4.41,15.1A.4.4,0,0,1,484,183.47Z"/><path class="cls-5" d="M401.49,206.36a70.75,70.75,0,0,1-7.92-.47.38.38,0,0,1-.34-.42.4.4,0,0,1,.43-.34c.13,0,12.81,1.51,16.9-1a.38.38,0,1,1,.4.65C408.93,206,405.06,206.36,401.49,206.36Z"/><path class="cls-5" d="M405.44,209.61a.37.37,0,0,1-.38-.37c-1.52-54.31,4.4-56.62,22-63.48A115.42,115.42,0,0,0,452.2,133a7.39,7.39,0,0,0,3.33-5.21c1-6.7-6-15.28-6.11-15.37a.38.38,0,0,1,.06-.54.39.39,0,0,1,.54,0c.3.37,7.28,8.93,6.27,16a8.13,8.13,0,0,1-3.66,5.74,115.71,115.71,0,0,1-25.32,12.88c-17.19,6.71-23,9-21.48,62.73a.4.4,0,0,1-.38.4Z"/><path class="cls-5" d="M451.94,128.14c-3.68,0-7.7-1.51-11.75-4.43a35.6,35.6,0,0,1-5.93-5.35.38.38,0,0,1,0-.54.39.39,0,0,1,.55,0c.09.11,9.22,10.75,18.79,9.39a.38.38,0,0,1,.44.32.39.39,0,0,1-.33.44A13.53,13.53,0,0,1,451.94,128.14Z"/><path class="cls-5" d="M384.33,32.8a8.1,8.1,0,0,1,5.56,7.91c0,3.5,2.83-.17,1.38-3.73S384.33,32.8,384.33,32.8Z"/><path class="cls-4" d="M377.62,31.76a.4.4,0,0,1-.39-.36c-.41-5.28,3.27-6.18,3.31-6.19a.39.39,0,0,1,.46.29.38.38,0,0,1-.29.46c-.13,0-3.06.79-2.71,5.38a.39.39,0,0,1-.35.42Z"/><path class="cls-4" d="M382,31.76h0a.38.38,0,0,1-.37-.4c.25-6.28,5.56-6.16,5.62-6.16a.39.39,0,0,1,.37.4.37.37,0,0,1-.4.37c-.19,0-4.6-.08-4.82,5.42A.39.39,0,0,1,382,31.76Z"/><path class="cls-4" d="M391.71,36.93a2.72,2.72,0,0,1-1.27-.3.37.37,0,0,1-.15-.52.38.38,0,0,1,.52-.15,2.07,2.07,0,0,0,1.67,0c1-.39,1.8-1.54,2.38-3.33a.38.38,0,1,1,.73.23c-.67,2.06-1.62,3.35-2.84,3.82A2.76,2.76,0,0,1,391.71,36.93Z"/><path class="cls-4" d="M386.81,32.6h0a.39.39,0,0,1-.35-.42,5,5,0,0,1,3.34-4.06.38.38,0,1,1,.26.72,4.28,4.28,0,0,0-2.83,3.41A.39.39,0,0,1,386.81,32.6Z"/><path class="cls-12" d="M124.39,263.33s29.5,0,40.38-7c13.15-8.45,29.14-27.72,31.15-33.52,2.54-7.3,3.71-4.66,3.71-4.66l-1.73,6.29s3.35-7.35,3.9-5.72.08,7.26.08,7.26,3.84-8.21,3.21-3.16-11.16,32.81-33,46.92c-11,7.11-47.75,9.67-47.75,9.67Z"/><path class="cls-15" d="M226,275.05c1.47,15.64,13.24,23.24,29,12.57,13-8.81,15,7.54,15.22,15.13v3.58s0-.64,0-1.7v26.18H207.38a45.14,45.14,0,0,1-45.14-45.13V219.29h24.4l1.87,0c7.6-.24,24-2.23,15.14-15.23-10.68-15.75-3.07-27.51,12.57-29,15.64,1.47,23.24,13.23,12.57,29-8.81,13,7.54,15,15.13,15.23l1.88,0h24.39v26.18c0-1.06,0-1.7,0-1.7v3.58c-.25,7.59-2.23,23.94-15.22,15.13C239.19,251.81,227.42,259.41,226,275.05Z"/><path class="cls-7" d="M152.11,259.18s5.25,18.13,3.58,18.16-21-2.45-21-2.45-5.13-12.06-2.94-12.17S150.56,258.61,152.11,259.18Z"/><path class="cls-5" d="M67.71,272.37s1.55-8.64,10.41-10.18,4.63-21.32,23.52-21,12-15.85,29.31-15.08,20.43,22.93,9.33,30.31c-9.92,6.59-24.21,5.45-28,12.66s-9.12,12.71-16.83,11.21S89.3,287,78.9,286.55,65.87,276.82,67.71,272.37Z"/><path class="cls-12" d="M122.64,316.38s-7.69,14.43,7.13,29.48,76.49,56.56,76.49,56.56l13-6.23-9.63,1.7s-22.41-35.58-36.58-49.66S122.64,316.38,122.64,316.38Z"/><path class="cls-12" d="M159.48,314.33s29.28,8,35.19,24.94c4.9,14-33.33,43.43-33.33,43.43l3.57,12.83-9.64-13.32s23.93-35.79,20.6-38.67c-7.74-6.71-31-16.28-31-16.28Z"/><path class="cls-15" d="M120.84,339s11.53,13.39,26.23,21.4c3.22,1.75,17.7-18.91,17.7-18.91l-9.08-9.18,11.56,7.49c2.88-4.87,11.86-16.48,10.56-19.42s-22.41-8.87-23.22-9.54S126.87,329.18,120.84,339Z"/><path class="cls-14" d="M126.43,249.7c2.86.41,1.41-3.39,1.41-3.39s-1.75-6.39-4.23-5.82"/><path class="cls-12" d="M123.78,242s3.66,15.94,12.43,14.2,4.77-16.2,2.14-21.47S122.6,234.91,123.78,242Z"/><path class="cls-5" d="M138.35,234.72s-6.42-5.14-9.7,1.93c-2.29,4.91-1.18,11.95-4.33,11.34s-7.8-8.32-3.69-14.9S137.91,226.94,138.35,234.72Z"/><path class="cls-12" d="M127.26,245s-1-4.08-2.65-2.85-.86,4.71.87,6S127.26,245,127.26,245Z"/><path class="cls-5" d="M138.56,249.27a.34.34,0,0,1-.17-.05l-2.56-1.33a.39.39,0,0,1,.36-.69l1.63.86L136,243.47a.4.4,0,0,1,.22-.5.38.38,0,0,1,.5.22l2.21,5.55a.39.39,0,0,1-.1.43A.4.4,0,0,1,138.56,249.27Z"/><path class="cls-5" d="M135.85,252.11c-1,0-1.9-1.37-2.09-1.66a.38.38,0,0,1,.11-.53.39.39,0,0,1,.54.11c.39.6,1.13,1.39,1.49,1.3.2-.05.46-.49.59-1.57a.38.38,0,1,1,.76.09c-.15,1.35-.53,2.08-1.17,2.23A.91.91,0,0,1,135.85,252.11Z"/><circle class="cls-5" cx="131.46" cy="244.07" r="1.25"/><circle class="cls-5" cx="138.56" cy="242.74" r="1.25"/><path class="cls-12" d="M135,254s-.26,2.29-1,8.19a6.18,6.18,0,0,1-2.76,3.7c-2.3,1.41-9.45-3.82-9.94-5.35l4.35-14.83S133.94,251.15,135,254Z"/><path class="cls-5" d="M133.49,256.46c-.32,0-3.38-.1-6.86-4a.38.38,0,0,1,.57-.51c3.37,3.78,6.25,3.74,6.3,3.75a.39.39,0,0,1,.39.38.37.37,0,0,1-.37.39Z"/><path class="cls-5" d="M150,290.38a.4.4,0,0,1-.23-.08c-23.49-17.88-24.44-30.57-24.47-31.1a.4.4,0,0,1,.37-.41.38.38,0,0,1,.4.37c0,.12,1,12.9,24.16,30.53a.38.38,0,0,1,.08.54A.39.39,0,0,1,150,290.38Z"/><path class="cls-12" d="M132.81,264.21S146,279.8,157.65,280.66s47.38-31.81,48.13-28.18a4.5,4.5,0,0,1-2.42,5.06s6.37-6,6.52-3.09-3.8,5.67-3.8,5.67,9.74-7,5.46-1.65c-2.57,3.2-30.48,41.68-55.72,38.27-17-2.29-33.22-20.53-33.22-20.53Z"/><path class="cls-10" d="M125.69,259.18s7.59-4,28.32,18.19c1.87,2-9.37,17.55-12.56,18.53S119,272.31,119,272.31,116.21,262.51,125.69,259.18Z"/><path class="cls-10" d="M159.05,312.4s-20.43,29.45-34.65,29.48S98,288.57,110.52,270.59c8.79-12.65,13-14,19.44-10.37s24.86,15.56,22.45,22.67-7.93,11-7.59,14.29C146,308.1,162.31,310.12,159.05,312.4Z"/><path class="cls-6" d="M158.41,375.29s6.88,6.11,6.44,6.64-2.87,2.76-3,3.37,3.62,8.58,2.84,9.87-13.22-12.42-13.22-12.42Z"/><path class="cls-5" d="M163,384.22a.25.25,0,0,1-.12,0L158,382.57a.37.37,0,0,1-.24-.48.4.4,0,0,1,.49-.25l4.83,1.63a.39.39,0,0,1,.24.49A.38.38,0,0,1,163,384.22Z"/><path class="cls-5" d="M163.11,386h-.05l-5.23-.65a.39.39,0,0,1,.1-.77l5.23.66a.38.38,0,0,1,.33.43A.39.39,0,0,1,163.11,386Z"/><path class="cls-5" d="M163.09,388.37h0L158.5,388a.41.41,0,0,1-.36-.42.39.39,0,0,1,.42-.35l4.56.34a.38.38,0,0,1,.35.42A.37.37,0,0,1,163.09,388.37Z"/><path class="cls-6" d="M203.56,401.58s5.35-7.47,5.93-7.09,3,2.56,3.67,2.63,8.15-4.51,9.51-3.86-11,14.45-11,14.45Z"/><path class="cls-5" d="M210.47,401.5h-.09a.39.39,0,0,1-.29-.46l1.11-5a.39.39,0,0,1,.46-.29.39.39,0,0,1,.3.46l-1.12,5A.38.38,0,0,1,210.47,401.5Z"/><path class="cls-5" d="M213.25,401.49h0a.38.38,0,0,1-.38-.4l.1-5.27a.39.39,0,1,1,.77,0l-.1,5.27A.39.39,0,0,1,213.25,401.49Z"/><path class="cls-5" d="M215.83,400.56a.39.39,0,0,1-.39-.37l-.13-4.57a.38.38,0,0,1,.37-.4.39.39,0,0,1,.4.37l.14,4.57a.4.4,0,0,1-.38.4Z"/><path class="cls-5" d="M143.69,295.57a.37.37,0,0,1-.18-.05,91.48,91.48,0,0,1-24.69-20.39.39.39,0,0,1,.61-.48,90.43,90.43,0,0,0,24.45,20.2.38.38,0,0,1-.19.72Z"/><path class="cls-5" d="M135.62,297.61a9.23,9.23,0,0,1-5.4-1.37.38.38,0,0,1-.08-.54.39.39,0,0,1,.54-.08s3.77,2.72,11.46-.05a.38.38,0,0,1,.49.23.4.4,0,0,1-.23.5A20.09,20.09,0,0,1,135.62,297.61Z"/><path class="cls-5" d="M146.35,358.25a.39.39,0,0,1-.22-.7c7.92-5.61,15.14-17.78,15.21-17.9a.39.39,0,0,1,.53-.13.37.37,0,0,1,.13.52c-.07.13-7.37,12.43-15.43,18.14A.41.41,0,0,1,146.35,358.25Z"/><path class="cls-5" d="M166.38,336a.35.35,0,0,1-.22-.08.37.37,0,0,1-.09-.53c.1-.13,9.41-12.92,9.46-16.62a.38.38,0,0,1,.4-.38.37.37,0,0,1,.37.39c-.06,3.95-9.22,16.53-9.61,17.06A.38.38,0,0,1,166.38,336Z"/><path class="cls-5" d="M155.69,332.68a.39.39,0,0,1-.23-.07l-7.14-5.07a.39.39,0,0,1-.1-.54.4.4,0,0,1,.54-.09l6.26,4.44a11.54,11.54,0,0,0-3.77-5.67.38.38,0,0,1-.09-.54.38.38,0,0,1,.54-.08c3.35,2.41,4.32,7,4.36,7.16a.38.38,0,0,1-.16.4A.42.42,0,0,1,155.69,332.68Z"/><path class="cls-5" d="M149.39,358.25a.41.41,0,0,1-.18-.05,77.2,77.2,0,0,1-21.67-16.59.38.38,0,1,1,.59-.49,76.93,76.93,0,0,0,21.44,16.4.39.39,0,0,1-.18.73Z"/><path class="cls-5" d="M136.42,349.24a.41.41,0,0,1-.19-.05.38.38,0,0,1-.15-.52c0-.08,4.11-7.57,2.17-12.89a.39.39,0,0,1,.23-.5.38.38,0,0,1,.49.23c2.07,5.66-2,13.21-2.22,13.53A.38.38,0,0,1,136.42,349.24Z"/><path class="cls-5" d="M164.34,316.2a18.2,18.2,0,0,1-6.85-1.52.39.39,0,0,1-.19-.51.41.41,0,0,1,.52-.19c.05,0,5.37,2.44,9.66,1a.39.39,0,0,1,.49.24.38.38,0,0,1-.23.49A10.58,10.58,0,0,1,164.34,316.2Z"/><path class="cls-5" d="M141.45,292.9a.38.38,0,0,1-.36-.25.4.4,0,0,1,.22-.5c5.3-2.08,10.39-14.41,10.45-14.54a.38.38,0,1,1,.71.29c-.21.52-5.27,12.77-10.88,15A.32.32,0,0,1,141.45,292.9Z"/><path class="cls-5" d="M183.77,361a.39.39,0,0,1-.31-.15c-3-3.89-9.24-10.92-9.3-11a.38.38,0,0,1,0-.54.37.37,0,0,1,.54,0c.07.07,6.35,7.12,9.34,11a.38.38,0,0,1-.07.54A.34.34,0,0,1,183.77,361Z"/><path class="cls-4" d="M87.83,261.52l-.12,0a.4.4,0,0,1-.25-.49c2.79-8.35,6.61-8.64,12.41-9.08,1.59-.12,3.41-.26,5.39-.59,6.63-1.11,10-6.71,12.93-11.65a44.77,44.77,0,0,1,2.74-4.24,8.79,8.79,0,0,1,9.4-3.2.4.4,0,0,1,.25.49.39.39,0,0,1-.49.24,7.9,7.9,0,0,0-8.55,2.94,45.82,45.82,0,0,0-2.69,4.16c-2.88,4.84-6.48,10.85-13.47,12-2,.34-3.84.48-5.46.6-5.68.43-9.1.69-11.72,8.55A.41.41,0,0,1,87.83,261.52Z"/><path class="cls-4" d="M99.2,270.12h0a.38.38,0,0,1-.34-.42c0-.09,1-8.54,8-10.88,1.41-.47,2.74-.8,4-1.12,5-1.25,8.53-2.14,10-9.23a.38.38,0,0,1,.45-.3.38.38,0,0,1,.3.45c-1.54,7.57-5.51,8.56-10.54,9.83-1.27.31-2.59.64-4,1.1-6.57,2.19-7.51,10.15-7.51,10.23A.4.4,0,0,1,99.2,270.12Z"/><path class="cls-4" d="M136,232.69a.38.38,0,0,1-.36-.25,6,6,0,0,0-3.1-3.64,5.14,5.14,0,0,0-3.71,0,.39.39,0,0,1-.51-.19.38.38,0,0,1,.2-.51,5.85,5.85,0,0,1,4.31-.06,6.66,6.66,0,0,1,3.53,4.09.38.38,0,0,1-.22.5Z"/><path class="cls-5" d="M445.29,432.47c-.48,0-1,0-1.43,0a.36.36,0,0,1-.35-.37.39.39,0,0,1,.37-.34c.95,0,1.89,0,2.84,0h0a.36.36,0,0,1,0,.71C446.26,432.46,445.78,432.47,445.29,432.47Zm4.29-.22a.36.36,0,0,1-.36-.32.35.35,0,0,1,.32-.39c.94-.09,1.88-.22,2.81-.37a.35.35,0,0,1,.41.29.36.36,0,0,1-.3.41c-.94.16-1.9.29-2.85.38Zm-8.56,0h0c-1-.1-1.91-.23-2.85-.39a.36.36,0,1,1,.12-.7c.93.16,1.87.28,2.81.38a.34.34,0,0,1,.31.39A.35.35,0,0,1,441,432.25Zm14.18-.93a.36.36,0,0,1-.35-.28.37.37,0,0,1,.27-.43c.91-.21,1.83-.45,2.73-.72a.36.36,0,0,1,.45.23.37.37,0,0,1-.24.45c-.92.28-1.86.52-2.78.74Zm-19.81,0h-.08c-.93-.22-1.86-.48-2.78-.77a.35.35,0,0,1-.23-.45.35.35,0,0,1,.44-.23c.91.28,1.82.54,2.73.76a.36.36,0,0,1,.27.43A.36.36,0,0,1,435.39,431.29Zm25.28-1.61a.36.36,0,0,1-.13-.69c.88-.32,1.76-.68,2.63-1.06a.36.36,0,0,1,.47.18.35.35,0,0,1-.18.47q-1.33.59-2.67,1.08Zm-30.73-.1-.13,0c-.89-.35-1.78-.73-2.65-1.13A.38.38,0,0,1,427,428a.36.36,0,0,1,.48-.17c.85.4,1.72.77,2.6,1.11a.36.36,0,0,1-.13.69Zm36-2.19a.36.36,0,0,1-.32-.19.35.35,0,0,1,.16-.48c.84-.43,1.67-.88,2.49-1.36a.35.35,0,0,1,.48.13.36.36,0,0,1-.12.49c-.83.48-1.68.94-2.53,1.38A.45.45,0,0,1,465.9,427.39Zm-41.13-.22a.33.33,0,0,1-.17,0c-.84-.46-1.67-.95-2.49-1.46a.35.35,0,0,1-.11-.49.35.35,0,0,1,.49-.11c.8.5,1.63,1,2.45,1.43a.36.36,0,0,1,.14.49A.34.34,0,0,1,424.77,427.17Zm46.06-2.65a.33.33,0,0,1-.29-.16.34.34,0,0,1,.1-.49c.78-.52,1.56-1.06,2.32-1.63a.36.36,0,0,1,.5.08.35.35,0,0,1-.07.5c-.78.57-1.57,1.12-2.36,1.64A.36.36,0,0,1,470.83,424.52Zm-50.9-.38a.33.33,0,0,1-.21-.07c-.77-.55-1.54-1.13-2.29-1.74a.36.36,0,0,1,.45-.55c.74.59,1.5,1.17,2.26,1.71a.36.36,0,0,1,.08.5A.35.35,0,0,1,419.93,424.14Zm55.5-3a.39.39,0,0,1-.28-.13.37.37,0,0,1,.05-.51c.72-.59,1.44-1.22,2.14-1.86a.36.36,0,0,1,.49.53c-.72.65-1.45,1.28-2.17,1.88A.35.35,0,0,1,475.43,421.13Zm-59.95-.57a.36.36,0,0,1-.24-.09c-.7-.63-1.4-1.29-2.09-2a.35.35,0,0,1,0-.5.36.36,0,0,1,.51,0c.67.67,1.36,1.33,2.06,1.95a.35.35,0,0,1,0,.5A.34.34,0,0,1,415.48,420.56Zm64.16-3.29a.35.35,0,0,1-.25-.1.36.36,0,0,1,0-.51c.66-.66,1.31-1.36,1.94-2.07a.37.37,0,0,1,.51,0,.35.35,0,0,1,0,.5c-.64.72-1.3,1.42-2,2.1A.37.37,0,0,1,479.64,417.27Zm-68.21-.74a.34.34,0,0,1-.26-.12c-.64-.7-1.28-1.43-1.88-2.17a.36.36,0,0,1,.55-.45c.6.72,1.22,1.44,1.86,2.14a.36.36,0,0,1,0,.51A.36.36,0,0,1,411.43,416.53Zm72-3.51a.35.35,0,0,1-.22-.08.35.35,0,0,1-.05-.51c.58-.72,1.17-1.48,1.73-2.24a.36.36,0,0,1,.5-.08.36.36,0,0,1,.08.5c-.57.78-1.16,1.54-1.76,2.27A.35.35,0,0,1,483.45,413Zm-75.66-.89a.37.37,0,0,1-.28-.14c-.57-.76-1.13-1.54-1.68-2.33a.36.36,0,0,1,.59-.41c.54.79,1.1,1.56,1.66,2.31a.35.35,0,0,1-.07.5A.36.36,0,0,1,407.79,412.13Zm79-3.71a.36.36,0,0,1-.2-.06.37.37,0,0,1-.1-.5c.52-.77,1-1.58,1.53-2.4a.36.36,0,1,1,.61.37c-.5.83-1,1.64-1.54,2.43A.37.37,0,0,1,486.84,408.42Zm-82.29-1a.35.35,0,0,1-.3-.17c-.5-.79-1-1.62-1.49-2.45a.36.36,0,0,1,.62-.36c.48.82,1,1.64,1.47,2.43a.35.35,0,0,1-.11.49A.35.35,0,0,1,404.55,407.43Zm85.25-3.9a.39.39,0,0,1-.18,0,.37.37,0,0,1-.14-.49c.45-.82.89-1.67,1.31-2.52a.36.36,0,1,1,.64.31c-.42.86-.87,1.72-1.32,2.55A.37.37,0,0,1,489.8,403.53Zm-88.12-1a.34.34,0,0,1-.31-.19c-.45-.83-.89-1.69-1.31-2.55a.36.36,0,1,1,.64-.32c.42.86.86,1.71,1.3,2.53a.37.37,0,0,1-.15.49A.53.53,0,0,1,401.68,402.49Zm90.63-4.09-.14,0a.36.36,0,0,1-.18-.47c.37-.85.74-1.74,1.09-2.62a.35.35,0,0,1,.46-.21.37.37,0,0,1,.2.47c-.35.89-.72,1.78-1.1,2.65A.36.36,0,0,1,492.31,398.4Zm-93.16-1a.36.36,0,0,1-.32-.21c-.42-.86-.84-1.72-1.27-2.54a.36.36,0,0,1,.63-.33c.43.83.87,1.69,1.28,2.56a.35.35,0,0,1-.17.48A.42.42,0,0,1,399.15,397.37Zm95.24-4.29a.23.23,0,0,1-.11,0,.34.34,0,0,1-.22-.45c.3-.89.6-1.8.87-2.71a.35.35,0,0,1,.45-.23.35.35,0,0,1,.23.44c-.27.92-.57,1.83-.88,2.73A.35.35,0,0,1,494.39,393.08Zm-97.89-.78a.36.36,0,0,1-.31-.18c-.48-.84-1-1.65-1.46-2.43a.36.36,0,1,1,.6-.38c.5.78,1,1.61,1.48,2.46a.36.36,0,0,1-.13.49A.37.37,0,0,1,396.5,392.3Zm-39-.25h-.3a.36.36,0,0,1-.34-.38.37.37,0,0,1,.37-.34,4.14,4.14,0,0,0,2.52-.61.35.35,0,0,1,.49.1.35.35,0,0,1-.1.49A4.74,4.74,0,0,1,357.47,392.05Zm-3-.74a.35.35,0,0,1-.19-.06,3.1,3.1,0,0,1-1.35-2.74.37.37,0,0,1,.35-.37.35.35,0,0,1,.36.35,2.41,2.41,0,0,0,1,2.16.36.36,0,0,1,.1.5A.37.37,0,0,1,354.45,391.31Zm7.16-2.17a.31.31,0,0,1-.13,0,.36.36,0,0,1-.21-.46,7.79,7.79,0,0,0,.45-2.68.35.35,0,0,1,.35-.35h0a.36.36,0,0,1,.35.36,8.46,8.46,0,0,1-.49,2.92A.35.35,0,0,1,361.61,389.14ZM496,387.61H496a.35.35,0,0,1-.25-.43c.23-.91.46-1.84.66-2.77a.36.36,0,0,1,.43-.27.36.36,0,0,1,.27.43c-.21.93-.43,1.87-.67,2.79A.35.35,0,0,1,496,387.61Zm-102.6-.12a.36.36,0,0,1-.3-.15c-.55-.79-1.13-1.55-1.7-2.26a.36.36,0,0,1,.05-.51.35.35,0,0,1,.5.06c.59.73,1.17,1.5,1.74,2.29a.36.36,0,0,1-.09.5A.31.31,0,0,1,393.44,387.49Zm-39.5-1.4a.32.32,0,0,1-.14,0,.36.36,0,0,1-.19-.47,14.85,14.85,0,0,1,1.47-2.53.36.36,0,0,1,.5-.08.34.34,0,0,1,.08.49,13.74,13.74,0,0,0-1.39,2.41A.36.36,0,0,1,353.94,386.09Zm-70.38-2.39a.35.35,0,0,1-.28-.14.34.34,0,0,1,.06-.5s.85-.66,2.32-1.73a.36.36,0,0,1,.42.58c-1.46,1.06-2.29,1.7-2.3,1.71A.4.4,0,0,1,283.56,383.7Zm78.21-.2a.36.36,0,0,1-.35-.29,18.73,18.73,0,0,0-.78-2.69.35.35,0,0,1,.21-.46.36.36,0,0,1,.46.21,19.88,19.88,0,0,1,.81,2.8.35.35,0,0,1-.28.42Zm28.08-.46a.33.33,0,0,1-.26-.11c-.65-.71-1.33-1.38-2-2a.35.35,0,1,1,.48-.52c.69.63,1.38,1.32,2,2a.35.35,0,0,1,0,.51A.36.36,0,0,1,389.85,383Zm107.42-1h-.06a.36.36,0,0,1-.29-.42c.17-.92.32-1.87.46-2.8a.36.36,0,0,1,.4-.31.37.37,0,0,1,.31.41c-.14.94-.3,1.9-.47,2.83A.35.35,0,0,1,497.27,382Zm-140.07-.6a.35.35,0,0,1-.25-.1.37.37,0,0,1,0-.51,25.13,25.13,0,0,1,2.14-2,.36.36,0,0,1,.51.06.35.35,0,0,1-.06.5,25.07,25.07,0,0,0-2.07,1.9A.36.36,0,0,1,357.2,381.43Zm-69-1.11a.35.35,0,0,1-.29-.15.36.36,0,0,1,.09-.5c.72-.5,1.51-1.05,2.37-1.62a.35.35,0,0,1,.49.1.35.35,0,0,1-.09.49c-.86.58-1.65,1.12-2.36,1.62A.42.42,0,0,1,288.2,380.32Zm97.44-1.13a.33.33,0,0,1-.21-.07,25.85,25.85,0,0,0-2.33-1.58.36.36,0,0,1,.37-.62c.8.49,1.61,1,2.39,1.63a.35.35,0,0,1,.07.5A.37.37,0,0,1,385.64,379.19Zm-25.83-1.05a.35.35,0,0,1-.31-.19,28,28,0,0,0-1.42-2.44.36.36,0,0,1,.1-.49.37.37,0,0,1,.5.1,26.83,26.83,0,0,1,1.45,2.5.36.36,0,0,1-.15.48A.33.33,0,0,1,359.81,378.14Zm1.83-.3a.37.37,0,0,1-.31-.17.36.36,0,0,1,.12-.49A23.27,23.27,0,0,1,364,375.8a.36.36,0,0,1,.3.65,22.76,22.76,0,0,0-2.47,1.34A.45.45,0,0,1,361.64,377.84ZM293,377.13a.36.36,0,0,1-.2-.66c.77-.5,1.58-1,2.42-1.54a.36.36,0,0,1,.38.6l-2.41,1.54A.35.35,0,0,1,293,377.13Zm205.13-.75h0a.35.35,0,0,1-.31-.4l0-.26a.37.37,0,0,1,.4-.32.36.36,0,0,1,.31.39l0,.27A.36.36,0,0,1,498.09,376.38Zm-117.34-.11a.23.23,0,0,1-.14,0,22.66,22.66,0,0,0-2.64-1,.35.35,0,1,1,.2-.68,20.84,20.84,0,0,1,2.73,1,.36.36,0,0,1-.15.69Zm-13.94-.82a.36.36,0,0,1-.11-.7,20.72,20.72,0,0,1,2.83-.67.36.36,0,0,1,.12.7,20.41,20.41,0,0,0-2.73.65Zm8.47-.75h0a18.82,18.82,0,0,0-2.49-.16h-.3a.37.37,0,0,1-.37-.35.36.36,0,0,1,.35-.36h.32a18.79,18.79,0,0,1,2.59.18.36.36,0,0,1-.05.71Zm-77.47-.61a.34.34,0,0,1-.3-.17.36.36,0,0,1,.12-.49L300.1,372a.36.36,0,1,1,.36.62c-.84.49-1.67,1-2.46,1.45A.41.41,0,0,1,297.81,374.09Zm58.9-.74a.35.35,0,0,1-.28-.13c-.57-.73-1.19-1.45-1.84-2.15a.35.35,0,0,1,0-.5.34.34,0,0,1,.5,0c.67.71,1.3,1.44,1.88,2.19a.34.34,0,0,1-.06.5A.34.34,0,0,1,356.71,373.35Zm-53.94-2.12a.34.34,0,0,1-.31-.18.36.36,0,0,1,.14-.49c.83-.45,1.67-.91,2.53-1.36a.36.36,0,0,1,.48.15.37.37,0,0,1-.15.49q-1.27.66-2.52,1.35A.33.33,0,0,1,302.77,371.23Zm50.05-2.05a.39.39,0,0,1-.24-.1c-.68-.63-1.41-1.24-2.15-1.84a.35.35,0,0,1-.06-.5.36.36,0,0,1,.5-.06c.76.61,1.5,1.24,2.19,1.87a.36.36,0,0,1,0,.51A.37.37,0,0,1,352.82,369.18Zm-45-.6a.37.37,0,0,1-.32-.2.36.36,0,0,1,.16-.48c.86-.42,1.72-.84,2.59-1.24a.35.35,0,1,1,.3.64L308,368.54A.29.29,0,0,1,307.84,368.58Zm5.19-2.41a.36.36,0,0,1-.33-.22.37.37,0,0,1,.19-.47c.88-.38,1.77-.75,2.66-1.1a.36.36,0,0,1,.46.2.37.37,0,0,1-.2.47c-.88.34-1.76.71-2.64,1.09A.32.32,0,0,1,313,366.17Zm35.32-.55a.36.36,0,0,1-.2-.06c-.77-.53-1.57-1.05-2.38-1.53a.36.36,0,0,1,.36-.62c.83.5,1.65,1,2.43,1.56a.36.36,0,0,1,.09.5A.36.36,0,0,1,348.35,365.62Zm-30-1.56a.35.35,0,0,1-.12-.69c.92-.33,1.84-.64,2.72-.91a.36.36,0,0,1,.22.68c-.88.27-1.79.58-2.7.9A.25.25,0,0,1,318.36,364.06Zm25.08-1.34a.28.28,0,0,1-.15,0,18.22,18.22,0,0,0-2.63-1,.35.35,0,0,1-.24-.44.35.35,0,0,1,.44-.25,19.64,19.64,0,0,1,2.73,1,.36.36,0,0,1-.15.69Zm-19.62-.35a.36.36,0,0,1-.35-.27.36.36,0,0,1,.26-.43c.94-.25,1.88-.47,2.8-.66a.36.36,0,0,1,.42.28.35.35,0,0,1-.28.42c-.9.19-1.83.4-2.76.65Zm5.6-1.14a.35.35,0,0,1-.35-.31.36.36,0,0,1,.3-.4c1-.13,1.94-.23,2.87-.29a.36.36,0,0,1,0,.72c-.91.05-1.85.15-2.81.28Zm8.55-.09h-.05a25.33,25.33,0,0,0-2.81-.24.37.37,0,0,1-.35-.37.36.36,0,0,1,.37-.34,26.81,26.81,0,0,1,2.89.24.36.36,0,0,1,.3.41A.35.35,0,0,1,338,361.14Z"/><path class="cls-16" d="M402.07,218.92h-3.65l1.91,0C401.41,218.89,402.07,218.92,402.07,218.92Z"/><path class="cls-17" d="M315.16,245.58c0,.54,0,1.19,0,1.91v-3.64S315.16,244.5,315.16,245.58Z"/><path class="cls-6" d="M205.69,73.28,183.1,63.35c.07,0,.14,23.69,4.3,25.52S207.2,81.11,205.69,73.28Z"/><path class="cls-18" d="M148.59,122.16s-8.13,41.7-14.68,48.87-51.66-2-51.66-2-4.93,13.39-4,14.73,7.66-7.9,7.66-7.9,16.24,15.19,46.54,13.32S173,138.45,173,138.45Z"/><path class="cls-18" d="M143,136.29s9,41.52,5.79,50.7-48.25,18.53-48.25,18.53-.61,14.29.78,15.15,1.85-10.07,1.85-10.07,35.17,5.61,62.27-8.06,9.72-68.66,9.72-68.66Z"/><path class="cls-15" d="M92.31,171.17s-2.43,8.86-3.1,8.71-3.75-1.35-4.36-1.2-6.09,7-7.59,6.91,5.29-17.34,5.29-17.34Z"/><path class="cls-5" d="M86.67,179.44a.39.39,0,0,1-.38-.33l-.68-5.06a.38.38,0,0,1,.33-.43.39.39,0,0,1,.44.33l.68,5.05a.4.4,0,0,1-.34.44Z"/><path class="cls-5" d="M85.11,180.34a.38.38,0,0,1-.36-.25l-1.73-5a.39.39,0,0,1,.24-.49.4.4,0,0,1,.49.24l1.72,5a.38.38,0,0,1-.23.49A.32.32,0,0,1,85.11,180.34Z"/><path class="cls-5" d="M83,181.37a.39.39,0,0,1-.36-.25l-1.71-4.24a.39.39,0,0,1,.21-.5.4.4,0,0,1,.51.21l1.7,4.25a.38.38,0,0,1-.21.5Z"/><path class="cls-3" d="M143,136.29s-5.31,32.84-9.11,34.74-32.2-3.17-33.35-1.08-6.79,12.85-4,15.64c2.6,2.56,38.22,10.18,45.2,9.24,22.26-3,18.6-34.22,23.66-46.07Z"/><path class="cls-15" d="M106.41,203.62s2.89,8.73,2.24,9-3.86.95-4.29,1.42-1.16,9.24-2.48,10-5.22-17.37-5.22-17.37Z"/><path class="cls-5" d="M106.09,213.7a.39.39,0,0,1-.29-.13l-3.37-3.84a.38.38,0,0,1,0-.54.39.39,0,0,1,.55,0l3.37,3.83a.38.38,0,0,1,0,.54A.35.35,0,0,1,106.09,213.7Z"/><path class="cls-5" d="M105.29,215.32a.43.43,0,0,1-.24-.08l-4.19-3.19a.38.38,0,1,1,.46-.61l4.2,3.18a.38.38,0,0,1,.07.54A.38.38,0,0,1,105.29,215.32Z"/><path class="cls-5" d="M104.09,217.34a.33.33,0,0,1-.21-.07l-3.78-2.58a.4.4,0,0,1-.1-.54.39.39,0,0,1,.54-.1l3.77,2.58a.39.39,0,0,1,.1.54A.37.37,0,0,1,104.09,217.34Z"/><path class="cls-2" d="M142.3,133.2s9.35,41.14,6,49.5-33.65,14.09-34,16,3.12,14.16,4.67,14.62,50.6-3.15,58.87-17.84,1-55.06,1-55.06Z"/><path class="cls-6" d="M138.81,138.58s-21.85-49.71,3-73.48C162,45.69,193,62.36,193.93,78c2.61,42.59,6.71,26,7.73,58.54C201.87,143.09,149.7,143.26,138.81,138.58Z"/><path class="cls-14" d="M168.5,52.37c2.81.7,1.74-3.23,1.74-3.23s-1.12-6.52-3.65-6.2"/><path class="cls-18" d="M166.61,44.45s2.09,16.21,11,15.34,6.33-15.65,4.23-21.15S165.6,39.75,166.61,44.45Z"/><path class="cls-18" d="M176.57,57.51s-.49,2.26-1.83,8.05A6.18,6.18,0,0,1,171.63,69c-2.42,1.18-9-4.72-9.36-6.29L168,48.34S175.83,54.56,176.57,57.51Z"/><path class="cls-19" d="M182.88,42.13s1.83-11.54-5-13.56c-16.38-4.81-10.77,6.87-14.08,8.37-10.56,4.77,1.63,16.21,4,13.82s.07-10.6,5-12.14C179,36.64,181.32,35.92,182.88,42.13Z"/><path class="cls-18" d="M168.57,47.19s-2.87-3-3.73-1.13,1.64,4.5,3.79,4.76S168.57,47.19,168.57,47.19Z"/><path class="cls-5" d="M178.39,37a.29.29,0,0,1-.16,0,.38.38,0,0,1-.2-.5,4.35,4.35,0,0,0,.15-4c-1.2-2.16-4.59-2.66-4.62-2.66a.39.39,0,0,1-.33-.44.39.39,0,0,1,.43-.33c.16,0,3.81.56,5.2,3a5.16,5.16,0,0,1-.12,4.71A.4.4,0,0,1,178.39,37Z"/><path class="cls-5" d="M176,37.16a.38.38,0,0,1-.38-.38c0-3.77-4.19-5.35-4.23-5.37a.38.38,0,0,1-.23-.49.4.4,0,0,1,.5-.23c.19.07,4.68,1.77,4.73,6.08a.38.38,0,0,1-.38.39Z"/><path class="cls-5" d="M172.51,37.88a.39.39,0,0,1-.39-.34,3.89,3.89,0,0,0-3.55-3.5.39.39,0,0,1,.06-.77,4.72,4.72,0,0,1,4.26,4.18.39.39,0,0,1-.34.43Z"/><path class="cls-5" d="M165.44,43.43a5.13,5.13,0,0,1-2.47-.72.39.39,0,0,1-.15-.52.38.38,0,0,1,.53-.15c3.07,1.7,4.55-.63,4.61-.73a.39.39,0,0,1,.66.41A4,4,0,0,1,165.44,43.43Z"/><path class="cls-5" d="M180.66,53.14a.37.37,0,0,1-.21-.06L178,51.49a.39.39,0,0,1-.11-.53.39.39,0,0,1,.54-.11l1.54,1-1.37-4.74a.38.38,0,1,1,.74-.21L181,52.65a.38.38,0,0,1-.14.41A.4.4,0,0,1,180.66,53.14Z"/><path class="cls-5" d="M177.74,55.7c-1,0-1.85-1.54-2-1.86a.39.39,0,0,1,.17-.52.4.4,0,0,1,.52.17c.33.63,1,1.5,1.36,1.44.2,0,.51-.44.73-1.51a.39.39,0,0,1,.76.16c-.29,1.33-.74,2-1.39,2.11Z"/><circle class="cls-5" cx="174.06" cy="47.27" r="1.25"/><circle class="cls-5" cx="181.26" cy="46.64" r="1.25"/><path class="cls-5" d="M176,60.14h0c-4.89-.6-6.78-5.91-6.86-6.14a.39.39,0,0,1,.73-.25s1.81,5.08,6.22,5.62a.38.38,0,0,1,.33.43A.39.39,0,0,1,176,60.14Z"/><path class="cls-5" d="M114.68,202.54a.39.39,0,0,1-.38-.33.39.39,0,0,1,.32-.44c.31,0,30.24-4.76,36.63-13.83s.35-47.09.29-47.47a.39.39,0,0,1,.32-.44.38.38,0,0,1,.44.32c.26,1.57,6.15,38.7-.42,48-2.78,3.94-9.88,7.52-21.11,10.64a157.86,157.86,0,0,1-16,3.51Z"/><path class="cls-5" d="M121.72,209.87a.38.38,0,0,1-.35-.22,45.76,45.76,0,0,1-3.94-12.58.4.4,0,0,1,.34-.43.39.39,0,0,1,.43.34,44.79,44.79,0,0,0,3.86,12.33.39.39,0,0,1-.17.52A.59.59,0,0,1,121.72,209.87Z"/><path class="cls-5" d="M154.57,157.75a.38.38,0,0,1-.18-.72c.08-.05,8.13-4.62,9.63-16.67a.39.39,0,0,1,.44-.33.38.38,0,0,1,.33.43,25.26,25.26,0,0,1-5.59,13.33,17.63,17.63,0,0,1-4.44,3.92A.41.41,0,0,1,154.57,157.75Z"/><path class="cls-5" d="M100.32,186l-.13,0a.38.38,0,0,1-.23-.49,150.46,150.46,0,0,1,5.78-14.37.39.39,0,0,1,.52-.16.39.39,0,0,1,.17.52,147.54,147.54,0,0,0-5.74,14.26A.4.4,0,0,1,100.32,186Z"/><path class="cls-5" d="M171.8,73.1c-2.34,0-5.29-1.77-8.8-5.28a.38.38,0,0,1,0-.54.39.39,0,0,1,.55,0c4,4,7.24,5.66,9.43,4.84,2.82-1.05,3.2-5.85,3.2-5.89a.39.39,0,0,1,.42-.36.37.37,0,0,1,.35.41c0,.22-.42,5.34-3.7,6.56A4.06,4.06,0,0,1,171.8,73.1Z"/><path class="cls-5" d="M187.4,89.26h0a.4.4,0,0,1-.36-.42c.65-7.38-2.11-15.92-2.14-16a.39.39,0,0,1,.74-.24c0,.09,2.83,8.78,2.17,16.32A.37.37,0,0,1,187.4,89.26Z"/><path class="cls-10" d="M317.78,122.16c-1.47,15.63-13.23,23.24-29,12.56-13-8.81-15,7.54-15.23,15.14-.06,2.13,0,3.57,0,3.57v24.49H249.18c1.06,0,1.7,0,1.7,0H247.3c-7.59-.24-23.94-2.23-15.13-15.23,10.67-15.75,3.07-27.51-12.57-29-15.64,1.47-23.24,13.23-12.57,29,8.81,13-7.54,15-15.14,15.23h-3.57s.64,0,1.7,0h-24.4V111.53A45.13,45.13,0,0,1,210.76,66.4h62.81V90.88s-.06,1.44,0,3.57c.24,7.6,2.23,24,15.23,15.14C304.55,98.91,316.31,106.52,317.78,122.16Z"/><path class="cls-18" d="M157.61,73s-.36,31.89,15.15,39.3,35,8.81,37.51,11.13-5.12,2.09-5.12,2.09,9.63,3,8,4.63-8.29-.43-8.29-.43,9.08,3.37,7.06,4.36-24.3,1.7-50.26-9.16-22.13-49.19-22.13-49.19S152.52,70.32,157.61,73Z"/><path class="cls-18" d="M209.22,66.23S221.83,64.68,232.65,78c3.91,4.81.52-3.28.52-3.28s3.76,4,4.58,3.79c1.63-.46-.45-6-.45-6s4.18,7.37,4.33,4.54S240,63.91,230.31,61.78C215.62,58.54,209.22,66.23,209.22,66.23Z"/><path class="cls-6" d="M160.81,72.24s.31,18.27,2.35,21.07-23.87,7.17-23.87,7.17-8.35-27.6,0-31.35S160.49,64.26,160.81,72.24Z"/><path class="cls-5" d="M163.16,93.69a.37.37,0,0,1-.38-.35c0-.2-1.76-20.38-9.68-28a.39.39,0,1,1,.53-.56c8.13,7.78,9.85,27.61,9.91,28.46a.38.38,0,0,1-.35.41Z"/><path class="cls-5" d="M140.39,96.22l-1.11,0a.39.39,0,0,1,0-.77c9.79.31,19.95-3.53,20-3.57a.39.39,0,0,1,.28.72C159.53,92.62,150,96.22,140.39,96.22Z"/><path class="cls-5" d="M139.29,100.87a.39.39,0,0,1-.36-.26c-7.13-19.62-2.86-28.19-2.67-28.55a.38.38,0,1,1,.68.36c0,.08-4.28,8.67,2.72,27.93a.38.38,0,0,1-.23.49A.35.35,0,0,1,139.29,100.87Z"/><path class="cls-20" d="M425.71,281.76s-2,11.21-22.62,8.94-42.29-23.13-57.49-20.8c-7.69,1.19.24,3.17.24,3.17s-2.81,1.27-1.91,2,5.2,1.69,5.2,1.69-5.74.58-4.95,1.44S354.47,280.1,362,284c5.47,2.83,26.23,24.11,45.36,24.93S430,296.23,430,296.23,429.64,283.76,425.71,281.76Z"/><path class="cls-17" d="M276.09,300.54c-.23,1.15-.39,1.83-.39,1.83l.75-3.86C276.32,299.28,276.2,300,276.09,300.54Z"/><path class="cls-7" d="M397.9,241.1l-12.6,65.19A45.14,45.14,0,0,1,332.42,342L270.75,330.1l5-25.7c.1-.52.21-1.15.33-1.85,1.19-7.5,2.35-23.93-12.08-17.75-17.49,7.49-27.6-2.21-26.07-17.84,4.41-15.08,17.4-20.31,30.84-6.84,11.09,11.12,16.14-4.56,17.82-12,.16-.69.28-1.31.39-1.83l5-25.71,23.95,4.63c-1-.2-1.67-.29-1.67-.29l3.5.67c7.41,1.68,23.09,6.74,12,17.83-13.48,13.43-8.25,26.43,6.83,30.83,15.64,1.54,25.34-8.57,17.84-26.06-6.18-14.44,10.25-13.28,17.75-12.08l3.51.68s-.62-.15-1.66-.35Z"/><path class="cls-17" d="M288.44,236.64c-.11.57-.25,1.26-.42,2l.75-3.86S288.66,235.5,288.44,236.64Z"/><path class="cls-13" d="M399.88,295.08s-5,7.45-3.06,11.57,14.41,2.43,20.11,0,3.44-11.57,3.44-11.57S403.13,287.78,399.88,295.08Z"/><path class="cls-18" d="M419.12,349.36s-17.89,15.3-24,28.77-2.37,55.44-2.37,55.44l-6.52,1.23,9.64,2.15s11.66-51.36,18.56-57.9,30-14.11,34.34-20.16-5.67-26.24-5.67-26.24Z"/><path class="cls-14" d="M424.88,271.05c-2.87.28-1.25-3.45-1.25-3.45s2.05-6.3,4.51-5.61"/><path class="cls-18" d="M427.9,263.47s-4.41,15.75-13.09,13.6-4-16.4-1.13-21.54S429.58,259,427.9,263.47Z"/><circle class="cls-6" cx="434.32" cy="252.87" r="6.69"/><path class="cls-6" d="M413.68,255.53s6.65-4.83,9.6,2.38c2.06,5,.61,12,3.79,11.53s8.19-7.94,4.38-14.71S414.49,247.78,413.68,255.53Z"/><path class="cls-18" d="M424.28,266.32s1.14-4,2.78-2.73.63,4.75-1.16,6S424.28,266.32,424.28,266.32Z"/><path class="cls-5" d="M412.8,270.05a.38.38,0,0,1-.35-.54l2.47-5.44a.39.39,0,0,1,.51-.2.38.38,0,0,1,.19.51l-2,4.5,1.67-.78a.39.39,0,1,1,.33.7L413,270A.41.41,0,0,1,412.8,270.05Z"/><path class="cls-5" d="M415.41,273l-.27,0c-.64-.18-1-.93-1.07-2.29a.38.38,0,0,1,.36-.41.39.39,0,0,1,.41.36c.07,1.09.31,1.54.51,1.59.37.11,1.14-.64,1.55-1.22a.39.39,0,0,1,.54-.09.39.39,0,0,1,.09.54C417.33,271.74,416.36,273,415.41,273Z"/><circle class="cls-5" cx="420.13" cy="265.19" r="1.25"/><circle class="cls-5" cx="413.09" cy="263.53" r="1.25"/><path class="cls-18" d="M416.16,275s.16,2.3.65,8.22a6.19,6.19,0,0,0,2.58,3.83c2.23,1.51,9.62-3.37,10.18-4.87l-3.65-15S417.32,272.15,416.16,275Z"/><path class="cls-6" d="M417.74,253.54s-.54,8.44,7,11.64C424.7,265.18,427.16,252.08,417.74,253.54Z"/><path class="cls-6" d="M409.68,262.34s.59-10.88,9.26-12.33C418.94,250,418.1,256.8,409.68,262.34Z"/><path class="cls-5" d="M426.24,261.19h-.09c-7.58-1.86-7.52-7.07-7.52-7.13a.38.38,0,0,1,.39-.37.39.39,0,0,1,.38.39c0,.19,0,4.65,6.93,6.36a.39.39,0,0,1,.29.47A.4.4,0,0,1,426.24,261.19Z"/><path class="cls-5" d="M428,257.49c-1.88,0-4.67-.82-7.87-4.4a.39.39,0,0,1,.58-.52c5.33,6,9.28,3.76,9.44,3.67a.39.39,0,0,1,.4.66A5.2,5.2,0,0,1,428,257.49Z"/><path class="cls-5" d="M411.89,258.87h-.08a.39.39,0,0,1-.29-.47,7.65,7.65,0,0,1,5.31-5.52.4.4,0,0,1,.47.28.38.38,0,0,1-.28.47,6.86,6.86,0,0,0-4.75,4.94A.39.39,0,0,1,411.89,258.87Z"/><path class="cls-15" d="M452.21,343.21s1.69-51-14.77-59.5-30.45,8.87-30.57,18.23,17.41,19.62,6.81,34.12C413.68,336.06,446,347.77,452.21,343.21Z"/><path class="cls-18" d="M433.1,282.78s-5.48,10-24.29,1.18-32.6-35.51-47.74-38.18c-7.67-1.36-.8,3.07-.8,3.07s-3.06.3-2.44,1.25,4.38,3.27,4.38,3.27-5.62-1.29-5.15-.23,9.12,5.14,15,11.24c4.27,4.44,17.08,31.27,34.92,38.2s25.51-4.73,25.51-4.73S436.18,285.94,433.1,282.78Z"/><path class="cls-18" d="M401.45,333s-23.47-1.81-37.3,3.42-40.84,37.56-40.84,37.56l-5.49-3.74,5.31,8.34s42.19-27.92,51.69-27.67,33.43,9,40.9,9.79,5.41-22.7,5.41-22.7Z"/><path class="cls-10" d="M332.87,371.93s-5.65-7.26-6.2-6.85-2.94,2.67-3.56,2.77-8.33-4.18-9.66-3.48,11.52,14,11.52,14Z"/><path class="cls-5" d="M326,372.12a.38.38,0,0,1-.37-.28l-1.31-4.94a.38.38,0,1,1,.74-.19l1.31,4.93a.38.38,0,0,1-.27.47Z"/><path class="cls-5" d="M323.16,372.22a.38.38,0,0,1-.38-.37l-.31-5.26a.39.39,0,0,1,.36-.41.41.41,0,0,1,.41.37l.31,5.26a.38.38,0,0,1-.36.4Z"/><path class="cls-5" d="M320.56,371.39a.38.38,0,0,1-.39-.38l-.05-4.57a.39.39,0,0,1,.38-.39h0a.38.38,0,0,1,.38.38l.05,4.57a.38.38,0,0,1-.38.39Z"/><path class="cls-10" d="M399.83,425.31s-9.18.41-9.17,1.09.48,4,.2,4.51-8.22,4.38-8.42,5.87,18.08-1.31,18.08-1.31Z"/><path class="cls-5" d="M395.68,431.23a.35.35,0,0,1-.14,0l-4.78-1.78a.38.38,0,0,1-.22-.5.37.37,0,0,1,.49-.22l4.78,1.78a.39.39,0,0,1,.23.5A.4.4,0,0,1,395.68,431.23Z"/><path class="cls-5" d="M394.14,433.55a.36.36,0,0,1-.2-.06l-4.48-2.78a.39.39,0,0,1,.41-.66l4.48,2.79a.39.39,0,0,1,.12.53A.38.38,0,0,1,394.14,433.55Z"/><path class="cls-5" d="M392,435.21a.47.47,0,0,1-.22-.07L388,432.53a.38.38,0,0,1-.09-.53.38.38,0,0,1,.53-.1l3.76,2.6a.39.39,0,0,1,.1.54A.4.4,0,0,1,392,435.21Z"/><path class="cls-6" d="M405.39,358a42.06,42.06,0,0,0-11.25,13.88c-4.28,8.72-4.66,40.93-4.47,43.91s6,3.15,10.42,2.68S412,384,418.88,379.05s24.85-12.14,29.91-20.16a22.79,22.79,0,0,0,3.42-15.68s-30.25-5.06-34.47-6.13c0,0-28.27-9.06-40.61-7.81s-40.49,24.3-42.41,26.32,6.18,12.49,7.53,13.13,27.94-14.78,34.11-14.78S405.39,358,405.39,358Z"/><path class="cls-15" d="M405.09,281.44s-9.24,14.5-8.19,17.28,7.74,5.47,21.17,6.06a21.26,21.26,0,0,0,19.21-9.7s3.2-11.29-4.18-12.3S413.39,282.57,405.09,281.44Z"/><path class="cls-15" d="M408.59,303.88s-4.46,6.41,1.23,11.13,15.52-2,15.52-2S425.77,293.06,408.59,303.88Z"/><path class="cls-5" d="M426,306.07a95.18,95.18,0,0,1-17.48-1.81.39.39,0,0,1-.3-.45.39.39,0,0,1,.45-.31c18.42,3.46,26.86.82,26.94.79a.38.38,0,0,1,.49.25.37.37,0,0,1-.25.48C435.64,305.09,432.52,306.07,426,306.07Z"/><path class="cls-5" d="M438,304.26h-.11a.39.39,0,0,1-.26-.48,25.17,25.17,0,0,0-2.19-19.71.4.4,0,0,1,.11-.54.39.39,0,0,1,.54.11A26.11,26.11,0,0,1,438.34,304,.39.39,0,0,1,438,304.26Z"/><path class="cls-5" d="M400.77,416.12h-.07a.4.4,0,0,1-.32-.45c3.69-21.34,9.57-41.85,27.56-47.32,7.18-2.18,11.93-9.14,14.65-14.59a57.64,57.64,0,0,0,4.23-11.48.38.38,0,0,1,.46-.29.38.38,0,0,1,.29.46c-.05.22-5.19,22.32-19.41,26.64-17.58,5.35-23.38,25.61-27,46.71A.38.38,0,0,1,400.77,416.12Z"/><path class="cls-5" d="M406.87,356l-.15,0a.37.37,0,0,1-.22-.43c2-10,7.52-13.34,7.76-13.48a.37.37,0,0,1,.52.14.37.37,0,0,1-.13.52s-4.77,2.92-7,11.1a66.62,66.62,0,0,1,5.72-7.06.37.37,0,0,1,.54,0,.38.38,0,0,1,0,.54,84.81,84.81,0,0,0-6.76,8.53A.4.4,0,0,1,406.87,356Z"/><path class="cls-5" d="M342.25,364.68a.38.38,0,0,1-.34-.2.37.37,0,0,1,.15-.52c.92-.52,22.74-12.72,32.73-13.48s30.35,2.66,30.55,2.7a.39.39,0,0,1,.32.44.4.4,0,0,1-.45.32c-.2,0-20.49-3.45-30.36-2.7s-32.19,13.26-32.42,13.39A.41.41,0,0,1,342.25,364.68Z"/><path class="cls-5" d="M446.58,345h-.05c-21.34-2.61-33.77-5.69-35-8.66a1,1,0,0,1,.06-1,.39.39,0,0,1,.54-.06.38.38,0,0,1,.08.52s0,.12.06.32c.51,1,4.5,4.47,34.35,8.13a.39.39,0,0,1,0,.77Z"/><path class="cls-5" d="M439.06,360.69a.36.36,0,0,1-.34-.21c-6.39-12.27-1.77-16.37-1.57-16.54a.38.38,0,0,1,.5.58s-4.32,3.94,1.75,15.61a.39.39,0,0,1-.17.52A.33.33,0,0,1,439.06,360.69Z"/><circle class="cls-10" cx="499.32" cy="282.25" r="26.44"/><path class="cls-10" d="M491.22,323.37,479,321s3.79-15.48-2-24.48l18.75,3.7Z"/><path class="cls-10" d="M491.22,323.37l12.22,2.4s2.37-15.76,11.1-21.9l-18.75-3.69Z"/><path class="cls-21" d="M478,317.29h25.14a0,0,0,0,1,0,0v5.84a12.07,12.07,0,0,1-12.07,12.07h-1A12.07,12.07,0,0,1,478,323.13v-5.84a0,0,0,0,1,0,0Z" transform="translate(72.33 -88.69) rotate(11.15)"/><rect class="cls-21" x="480.4" y="323.1" width="17.2" height="17.81" rx="8.26" transform="translate(73.42 -88.28) rotate(11.15)"/><path class="cls-5" d="M498.51,319l-.12,0a.36.36,0,0,1-.21-.46c2.77-7.5,9.62-27.6,8.1-30.44-.26-.49-.52-.55-.7-.54-1.58,0-4.64,4.84-6.2,7.88a.35.35,0,0,1-.45.17.34.34,0,0,1-.21-.42c0-.09,2.16-8.09.39-10.7-.2-.29-.36-.27-.42-.27-1.37.17-3.9,5.7-5.18,9.14a.34.34,0,0,1-.4.23.35.35,0,0,1-.29-.36c0-.07.11-6.85-2.18-10.23,0,0,0,0-.05-.06-1.37,1-3.4,17.79-4.63,33.21a.36.36,0,0,1-.38.32.34.34,0,0,1-.33-.38c.62-7.79,2.83-33.24,5.2-33.87a.71.71,0,0,1,.78.38c1.68,2.47,2.14,6.51,2.26,8.84,1.15-2.82,3.38-7.71,5.11-7.93a1.15,1.15,0,0,1,1.1.58c1.3,1.91.78,6.11.27,8.82,1.44-2.47,3.85-6.05,5.61-6.06a1.44,1.44,0,0,1,1.33.92c1.95,3.64-7,28.22-8.06,31A.36.36,0,0,1,498.51,319Z"/><path class="cls-22" d="M512.34,264.74s10.86,7.25,8,15.4-7.25-8.23-12.54-11.71S507.61,262.4,512.34,264.74Z"/><path class="cls-22" d="M522,284.7s.13,7.14-2.37,7.4-2.24-3.46-1.22-6.38S522.06,283.17,522,284.7Z"/><path class="cls-5" d="M470.64,271.2a.32.32,0,0,1-.16,0l-6.67-3.45a.36.36,0,0,1-.15-.48.35.35,0,0,1,.48-.15l6.67,3.45a.36.36,0,0,1-.17.67Z"/><path class="cls-5" d="M468.06,280.29h0l-7.45-.9a.35.35,0,1,1,.08-.7l7.46.89a.37.37,0,0,1,.31.4A.36.36,0,0,1,468.06,280.29Z"/><path class="cls-5" d="M462.15,292.08a.35.35,0,0,1-.35-.28.36.36,0,0,1,.27-.43l7.32-1.66a.35.35,0,1,1,.16.69l-7.32,1.67Z"/><path class="cls-5" d="M467.68,304.11a.36.36,0,0,1-.22-.64l5.93-4.61a.36.36,0,0,1,.5.06.37.37,0,0,1-.06.51L467.9,304A.37.37,0,0,1,467.68,304.11Z"/><path class="cls-5" d="M473.62,262.59a.36.36,0,0,1-.24-.09l-5.95-5.23a.37.37,0,0,1,0-.51.36.36,0,0,1,.51,0l5.94,5.23a.36.36,0,0,1,0,.51A.36.36,0,0,1,473.62,262.59Z"/><path class="cls-5" d="M505.89,250.16l-.12,0a.35.35,0,0,1-.21-.46l2.44-6.75a.35.35,0,0,1,.45-.21.36.36,0,0,1,.22.46l-2.44,6.74A.35.35,0,0,1,505.89,250.16Z"/><path class="cls-5" d="M498,250.59a.36.36,0,0,1-.35-.32l-.76-7.14a.36.36,0,0,1,.32-.39.36.36,0,0,1,.39.32l.76,7.13a.35.35,0,0,1-.32.39Z"/><path class="cls-5" d="M490.28,253a.36.36,0,0,1-.33-.23L487.39,246a.36.36,0,1,1,.67-.25l2.56,6.7a.37.37,0,0,1-.21.47Z"/><path class="cls-5" d="M480.63,256.59a.37.37,0,0,1-.3-.16l-3.88-6a.36.36,0,0,1,.6-.38l3.88,6a.35.35,0,0,1-.11.49A.33.33,0,0,1,480.63,256.59Z"/><path class="cls-5" d="M512.59,252.93a.33.33,0,0,1-.19-.06.36.36,0,0,1-.12-.49l3.83-6.07a.35.35,0,0,1,.49-.11.36.36,0,0,1,.12.49l-3.83,6.07A.36.36,0,0,1,512.59,252.93Z"/><path class="cls-5" d="M518.94,256a.41.41,0,0,1-.19,0,.36.36,0,0,1-.12-.49l3.83-6.07a.35.35,0,0,1,.49-.11.36.36,0,0,1,.12.49l-3.83,6.07A.38.38,0,0,1,518.94,256Z"/><path class="cls-5" d="M524.46,261.55a.37.37,0,0,1-.32-.19.36.36,0,0,1,.17-.48l6.43-3.17a.36.36,0,1,1,.32.64l-6.44,3.17A.41.41,0,0,1,524.46,261.55Z"/><path class="cls-5" d="M527.19,268.7a.35.35,0,0,1-.07-.7l7-1.47a.37.37,0,0,1,.43.28.36.36,0,0,1-.28.42l-7,1.47Z"/><path class="cls-5" d="M529.17,276.16a.35.35,0,0,1-.36-.35.36.36,0,0,1,.36-.36l7.17-.06h0a.36.36,0,0,1,.36.36.37.37,0,0,1-.35.36l-7.18.05Z"/><path class="cls-5" d="M536.24,284.76h-.09l-7-1.74a.36.36,0,0,1,.17-.69l7,1.74a.36.36,0,0,1-.08.7Z"/><path class="cls-5" d="M534.27,293.69l-.12,0-6.74-2.45a.35.35,0,0,1-.22-.45.37.37,0,0,1,.46-.22L534.4,293a.35.35,0,0,1,.21.45A.35.35,0,0,1,534.27,293.69Z"/><path class="cls-5" d="M530.31,304.24a.36.36,0,0,1-.24-.09l-5.26-4.88a.37.37,0,0,1,0-.51.36.36,0,0,1,.51,0l5.25,4.88a.34.34,0,0,1,0,.5A.33.33,0,0,1,530.31,304.24Z"/><path class="cls-5" d="M524.37,311.51a.36.36,0,0,1-.27-.12L519.41,306a.36.36,0,0,1,.54-.47l4.69,5.43a.35.35,0,0,1,0,.5A.36.36,0,0,1,524.37,311.51Z"/><circle class="cls-6" cx="73.53" cy="63.04" r="32.84"/><circle class="cls-22" cx="73.53" cy="63.04" r="24.85"/><circle class="cls-6" cx="73.53" cy="63.04" r="18.15"/><circle class="cls-22" cx="73.53" cy="63.04" r="10.54"/><circle class="cls-6" cx="73.53" cy="63.04" r="4.84"/><polygon class="cls-17" points="105.61 19.98 89.21 36.38 90.09 46.48 104.98 31.59 105.61 19.98"/><polygon class="cls-17" points="116.59 30.96 100.19 47.36 90.09 46.48 104.98 31.59 116.59 30.96"/><path class="cls-5" d="M73.63,63.66a.72.72,0,0,1-.51-1.22l31.36-31.35a.71.71,0,0,1,1,0,.73.73,0,0,1,0,1L74.13,63.45A.7.7,0,0,1,73.63,63.66Z"/></g></g></svg>