<svg width="1920" height="460" viewBox="0 0 1920 460" fill="none" xmlns="http://www.w3.org/2000/svg">
<path fill-rule="evenodd" clip-rule="evenodd" d="M1960 0.80957V460H-40V113.663C10.8532 106.209 80.4326 103.09 172.724 103.78C202.964 104.008 233.577 104.568 264.257 105.129C370.85 107.079 478.254 109.043 573.662 97.1816C600.426 93.8966 625.471 89.5926 650.466 85.297C689.231 78.6349 727.878 71.9932 772.639 69.2052C829.732 65.6358 887.896 68.819 946.19 72.0093C969.795 73.3012 993.422 74.5942 1017.01 75.4405C1202.98 81.8064 1382.12 58.6609 1551.42 36.7874C1557.6 35.9893 1563.76 35.1928 1569.91 34.3995C1692.7 18.5648 1826.54 3.41443 1960 0.80957Z" fill="#F7C300"/>
</svg>
