<svg width="1920" height="515" viewBox="0 0 1920 515" fill="none" xmlns="http://www.w3.org/2000/svg">
<path fill-rule="evenodd" clip-rule="evenodd" d="M1960 99.5971V515H-40V11.279C-36.7923 10.7229 -33.539 10.1817 -30.2395 9.65588C117.735 -13.7722 237.26 9.91745 354.333 33.121C382.485 38.7006 410.495 44.2521 438.724 49.1136C590.282 75.2322 701.38 63.5887 821.3 51.0206C896.803 43.1077 975.802 34.8282 1070.6 35.3759C1166.56 35.9122 1250.21 49.9324 1333.4 63.8742C1360.17 68.3613 1386.89 72.8401 1413.96 76.8588C1530.06 93.7277 1659.28 102.856 1790.95 103.49C1847.84 103.764 1904.48 102.449 1960 99.5971Z" fill="#FFAB38"/>
</svg>
