<svg width="516" height="382" viewBox="0 0 516 382" fill="none" xmlns="http://www.w3.org/2000/svg">
<path d="M36.875 340.517V-140" stroke="#C7C7C7" stroke-miterlimit="10"/>
<path d="M184.371 340.517V-140" stroke="#C7C7C7" stroke-miterlimit="10"/>
<path d="M330.719 340.517V-140" stroke="#C7C7C7" stroke-miterlimit="10"/>
<path d="M478.211 340.517V-140" stroke="#C7C7C7" stroke-miterlimit="10"/>
<path d="M73.5611 375.491L70.6129 382H2.94815L0 375.491L28.7999 355.584H44.7611L73.5611 375.491Z" fill="#EBEBEB"/>
<path d="M220.749 375.491L217.785 382H150.136L147.172 375.491L175.988 355.584H191.933L220.749 375.491Z" fill="#EBEBEB"/>
<path d="M367.917 375.491L364.953 382H297.304L294.355 375.491L323.155 355.584H339.117L367.917 375.491Z" fill="#EBEBEB"/>
<path d="M515.081 375.491L512.117 382H444.468L441.52 375.491L470.319 355.584H486.281L515.081 375.491Z" fill="#EBEBEB"/>
<path d="M46.7602 336.39L44.763 355.584H28.8018L26.8047 336.39H46.7602Z" fill="#DBDBDB"/>
<path d="M193.944 336.39L191.931 355.584H175.985L173.988 336.39H193.944Z" fill="#DBDBDB"/>
<path d="M341.116 336.39L339.118 355.584H323.157L321.16 336.39H341.116Z" fill="#DBDBDB"/>
<path d="M488.28 336.39L486.283 355.584H470.321L468.324 336.39H488.28Z" fill="#DBDBDB"/>
<path d="M73.5611 375.507L70.6129 382H2.94815L0 375.507H73.5611Z" fill="#DBDBDB"/>
<path d="M220.733 375.507L217.785 382H150.12L147.172 375.507H220.733Z" fill="#DBDBDB"/>
<path d="M367.917 375.507L364.953 382H297.288L294.34 375.507H367.917Z" fill="#DBDBDB"/>
<path d="M515.081 375.507L512.117 382H444.468L441.52 375.507H515.081Z" fill="#DBDBDB"/>
</svg>
