<svg width="516" height="46" viewBox="0 0 516 46" fill="none" xmlns="http://www.w3.org/2000/svg">
<path d="M73.5611 39.491L70.6129 46H2.94815L0 39.491L28.7999 19.584H44.7611L73.5611 39.491Z" fill="#EBEBEB"/>
<path d="M220.749 39.491L217.785 46H150.136L147.172 39.491L175.988 19.584H191.933L220.749 39.491Z" fill="#EBEBEB"/>
<path d="M367.917 39.491L364.953 46H297.304L294.355 39.491L323.155 19.584H339.117L367.917 39.491Z" fill="#EBEBEB"/>
<path d="M515.081 39.491L512.117 46H444.468L441.52 39.491L470.319 19.584H486.281L515.081 39.491Z" fill="#EBEBEB"/>
<path d="M46.7602 0.389587L44.763 19.584H28.8018L26.8047 0.389587H46.7602Z" fill="#DBDBDB"/>
<path d="M193.944 0.389587L191.931 19.584H175.985L173.988 0.389587H193.944Z" fill="#DBDBDB"/>
<path d="M341.116 0.389587L339.118 19.584H323.157L321.16 0.389587H341.116Z" fill="#DBDBDB"/>
<path d="M488.28 0.389587L486.283 19.584H470.321L468.324 0.389587H488.28Z" fill="#DBDBDB"/>
<path d="M73.5611 39.5068L70.6129 46H2.94815L0 39.5068H73.5611Z" fill="#DBDBDB"/>
<path d="M220.733 39.5068L217.785 46H150.12L147.172 39.5068H220.733Z" fill="#DBDBDB"/>
<path d="M367.917 39.5068L364.953 46H297.288L294.34 39.5068H367.917Z" fill="#DBDBDB"/>
<path d="M515.081 39.5068L512.117 46H444.468L441.52 39.5068H515.081Z" fill="#DBDBDB"/>
</svg>
