<svg width="316" height="276" viewBox="0 0 316 276" fill="none" xmlns="http://www.w3.org/2000/svg">
<path d="M314.92 55.78H234V187.92H314.92V55.78Z" fill="white"/>
<path d="M234 187.92L233.82 55.78V55.6H234L314.93 55.54H315.17V55.78L315.09 187.92V188.08H314.93L234 187.92ZM234 187.92L314.93 187.76L314.77 187.92L314.69 55.78L314.93 56.02L234 56L234.18 55.82L234 187.92Z" fill="#C7C7C7"/>
<path d="M238.821 183.11H310.121V60.59L238.821 60.59V183.11Z" fill="#FFC727"/>
<path opacity="0.7" d="M238.821 183.11H310.121V60.59L238.821 60.59V183.11Z" fill="white"/>
<path opacity="0.9" d="M249.511 97.28C249.24 98.6435 249.414 100.058 250.009 101.315C250.603 102.572 251.586 103.604 252.812 104.26C254.038 104.915 255.442 105.159 256.817 104.955C258.193 104.751 259.466 104.11 260.449 103.127C261.432 102.144 262.073 100.871 262.277 99.4958C262.481 98.1206 262.237 96.7162 261.581 95.4901C260.926 94.2641 259.893 93.2813 258.637 92.6871C257.38 92.0928 255.965 91.9185 254.601 92.19C253.345 92.4414 252.192 93.0589 251.286 93.9647C250.38 94.8704 249.763 96.024 249.511 97.28V97.28Z" fill="white"/>
<path d="M262.34 139.06H310.12L286.23 109.62L262.34 139.06Z" fill="#FFC727"/>
<g opacity="0.3">
<path opacity="0.3" d="M262.34 139.06H310.12L286.23 109.62L262.34 139.06Z" fill="white"/>
</g>
<path d="M238.809 139.06H281.189L259.999 119.89L238.809 139.06Z" fill="#FFC727"/>
<g opacity="0.5">
<path opacity="0.5" d="M238.809 139.06H281.189L259.999 119.89L238.809 139.06Z" fill="white"/>
</g>
<path d="M310.109 139.06H238.809V183.11H310.109V139.06Z" fill="#FFC727"/>
<g opacity="0.5">
<path opacity="0.5" d="M310.109 139.06H238.809V183.11H310.109V139.06Z" fill="white"/>
</g>
<path d="M234 55.78L244.07 52.54L254.15 49.38L274.36 43.16L274.47 43.13L274.57 43.16L294.78 49.38L304.87 52.54L314.93 55.78L304.76 52.89L294.61 49.93L274.36 43.88H274.57L254.32 49.93L244.17 52.89L234 55.78Z" fill="#C7C7C7"/>
<path d="M274.469 45.13C275.359 45.13 276.079 44.4092 276.079 43.52C276.079 42.6308 275.359 41.91 274.469 41.91C273.58 41.91 272.859 42.6308 272.859 43.52C272.859 44.4092 273.58 45.13 274.469 45.13Z" fill="#C7C7C7"/>
<path d="M213.73 88.05V13.87L103.26 13.87V88.05H213.73Z" fill="white" stroke="#C7C7C7" stroke-width="0.5" stroke-miterlimit="10"/>
<path d="M108.082 83.24L208.922 83.24V18.69L108.082 18.69L108.082 83.24Z" fill="#FFC727"/>
<path d="M117.861 35.07C117.588 36.4314 117.759 37.8448 118.351 39.1012C118.942 40.3576 119.922 41.3904 121.146 42.0469C122.369 42.7033 123.772 42.9487 125.146 42.7467C126.52 42.5447 127.792 41.906 128.775 40.925C129.758 39.9441 130.399 38.6729 130.604 37.2994C130.808 35.9259 130.566 34.523 129.912 33.298C129.258 32.0731 128.227 31.0911 126.972 30.4971C125.716 29.9032 124.303 29.7289 122.941 30C121.689 30.2493 120.538 30.8638 119.634 31.766C118.73 32.6683 118.113 33.8179 117.861 35.07V35.07Z" fill="white"/>
<path d="M141.352 71.45H208.922L175.142 29.81L141.352 71.45Z" fill="#FFC727"/>
<g opacity="0.2">
<path opacity="0.2" d="M141.352 71.45H208.922L175.142 29.81L141.352 71.45Z" fill="black"/>
</g>
<path d="M108.078 71.45H168.008L138.038 44.33L108.078 71.45Z" fill="#FFC727"/>
<g opacity="0.1">
<path opacity="0.1" d="M108.078 71.45H168.008L138.038 44.33L108.078 71.45Z" fill="black"/>
</g>
<path d="M208.918 71.45H108.078V83.24H208.918V71.45Z" fill="#FFC727"/>
<g opacity="0.1">
<path opacity="0.1" d="M208.918 71.45H108.078V83.24H208.918V71.45Z" fill="black"/>
</g>
<path d="M103.27 13.87L117.04 10.63L130.82 7.46001L158.42 1.25001L158.5 1.23001L158.58 1.25001L186.18 7.46001L199.97 10.63L213.74 13.87L199.89 10.98L186.06 8.02001L158.42 1.98001H158.58L130.95 8.02001L117.12 10.98L103.27 13.87Z" fill="#C7C7C7"/>
<path d="M160.111 1.61C160.111 1.92843 160.016 2.2397 159.839 2.50447C159.662 2.76923 159.411 2.97559 159.117 3.09745C158.823 3.2193 158.499 3.25119 158.187 3.18906C157.874 3.12694 157.587 2.9736 157.362 2.74844C157.137 2.52328 156.984 2.2364 156.922 1.9241C156.859 1.61179 156.891 1.28807 157.013 0.99388C157.135 0.699691 157.341 0.448243 157.606 0.271334C157.871 0.0944249 158.182 0 158.501 0C158.927 0.00262278 159.335 0.173089 159.636 0.474456C159.938 0.775823 160.108 1.18381 160.111 1.61V1.61Z" fill="#C7C7C7"/>
<path d="M228.199 275.01V200.83H88.1892V275.01H228.199Z" fill="white" stroke="#C7C7C7" stroke-width="0.5" stroke-miterlimit="10"/>
<path d="M93.0006 270.19H223.391V205.64H93.0006V270.19Z" fill="#FFC727"/>
<path opacity="0.9" d="M104.289 222C104.017 223.364 104.192 224.778 104.786 226.035C105.38 227.292 106.363 228.324 107.589 228.98C108.815 229.635 110.219 229.879 111.595 229.675C112.97 229.471 114.243 228.83 115.226 227.847C116.209 226.864 116.85 225.591 117.054 224.216C117.258 222.841 117.014 221.436 116.359 220.21C115.703 218.984 114.671 218.001 113.414 217.407C112.157 216.813 110.742 216.639 109.379 216.91C108.123 217.161 106.969 217.779 106.063 218.685C105.158 219.59 104.54 220.744 104.289 222V222Z" fill="white"/>
<path d="M136.02 258.4H223.39L179.71 216.76L136.02 258.4Z" fill="#FFC727"/>
<g opacity="0.2">
<path opacity="0.2" d="M136.02 258.4H223.39L179.71 216.76L136.02 258.4Z" fill="black"/>
</g>
<path d="M93 258.4H170.49L131.75 231.29L93 258.4Z" fill="#FFC727"/>
<g opacity="0.1">
<path opacity="0.1" d="M93 258.4H170.49L131.75 231.29L93 258.4Z" fill="black"/>
</g>
<path d="M223.39 258.4H93V270.19H223.39V258.4Z" fill="#FFC727"/>
<g opacity="0.1">
<path opacity="0.1" d="M223.39 258.4H93V270.19H223.39V258.4Z" fill="black"/>
</g>
<path d="M88.1914 200.82L105.661 197.58L123.151 194.41L158.131 188.2L158.201 188.19L158.261 188.2L193.251 194.41L210.731 197.58L228.201 200.82L210.671 197.94L193.151 194.98L158.131 188.94H158.261L123.251 194.98L105.731 197.94L88.1914 200.82Z" fill="#C7C7C7"/>
<path d="M159.809 188.57C159.777 188.976 159.593 189.356 159.294 189.632C158.995 189.909 158.602 190.063 158.194 190.063C157.787 190.063 157.394 189.909 157.095 189.632C156.795 189.356 156.611 188.976 156.579 188.57C156.562 188.347 156.59 188.123 156.664 187.912C156.737 187.701 156.853 187.507 157.005 187.343C157.156 187.179 157.34 187.048 157.545 186.959C157.75 186.869 157.971 186.823 158.194 186.823C158.418 186.823 158.639 186.869 158.843 186.959C159.048 187.048 159.232 187.179 159.384 187.343C159.536 187.507 159.652 187.701 159.725 187.912C159.798 188.123 159.827 188.347 159.809 188.57V188.57Z" fill="#C7C7C7"/>
<path d="M292.738 250.63V206.98H247.428V250.63H292.738Z" fill="white" stroke="#C7C7C7" stroke-width="0.5" stroke-miterlimit="10"/>
<path d="M250.248 247.8H289.898V209.81H250.248V247.8Z" fill="#455A64"/>
<path opacity="0.6" d="M256.001 219.46C255.88 220.075 255.913 220.71 256.097 221.31C256.28 221.909 256.608 222.454 257.052 222.897C257.495 223.339 258.041 223.666 258.641 223.848C259.24 224.03 259.876 224.062 260.491 223.94C261.233 223.797 261.916 223.435 262.451 222.901C262.986 222.366 263.348 221.683 263.491 220.94C263.688 219.948 263.484 218.918 262.922 218.077C262.36 217.236 261.487 216.653 260.496 216.455C259.504 216.257 258.474 216.462 257.633 217.024C256.792 217.585 256.208 218.458 256.011 219.45L256.001 219.46Z" fill="white"/>
<path d="M263.328 240.87H289.898L276.618 224.5L263.328 240.87Z" fill="#263238"/>
<path d="M250.25 240.87H273.81L262.03 230.21L250.25 240.87Z" fill="#37474F"/>
<path d="M289.9 240.87H250.25V247.81H289.9V240.87Z" fill="#37474F"/>
<path d="M247.422 207C251.152 205.65 254.902 204.38 258.662 203.12C260.542 202.48 262.432 201.89 264.312 201.27L269.962 199.43H270.082H270.192L275.842 201.27C277.732 201.89 279.622 202.48 281.492 203.12C285.252 204.38 289.002 205.66 292.732 207C288.912 206 285.112 204.82 281.322 203.67C279.422 203.11 277.532 202.5 275.642 201.92L270.002 200.13H270.232L264.562 201.9C262.662 202.48 260.782 203.09 258.882 203.65C255.002 204.8 251.242 205.93 247.422 207Z" fill="#C7C7C7"/>
<path d="M270.079 201.38C270.968 201.38 271.689 200.659 271.689 199.77C271.689 198.881 270.968 198.16 270.079 198.16C269.19 198.16 268.469 198.881 268.469 199.77C268.469 200.659 269.19 201.38 270.079 201.38Z" fill="#C7C7C7"/>
<path d="M76.4609 268.26V175.38H21.3009L21.3009 268.26H76.4609Z" fill="white" stroke="#C7C7C7" stroke-width="0.5" stroke-miterlimit="10"/>
<path d="M24.1406 265.44H73.6406L73.6406 178.22H24.1406L24.1406 265.44Z" fill="#455A64"/>
<path opacity="0.6" d="M29.9003 209.79C29.7421 210.591 29.8456 211.423 30.1957 212.161C30.5458 212.899 31.1238 213.505 31.8445 213.889C32.5653 214.274 33.3905 214.417 34.1985 214.296C35.0066 214.176 35.7546 213.8 36.3322 213.222C36.9098 212.644 37.2865 211.896 37.4067 211.088C37.5268 210.28 37.3841 209.455 36.9996 208.734C36.615 208.014 36.009 207.436 35.2709 207.085C34.5328 206.735 33.7017 206.632 32.9003 206.79C32.1597 206.938 31.4794 207.301 30.9455 207.835C30.4115 208.369 30.0478 209.049 29.9003 209.79V209.79Z" fill="white"/>
<path d="M40.4414 237.58H73.5414L56.9914 217.19L40.4414 237.58Z" fill="#263238"/>
<path d="M24.1406 237.58H53.4906L38.8206 224.3L24.1406 237.58Z" fill="#37474F"/>
<path d="M73.6406 237.58H24.1406V265.43H73.6406V237.58Z" fill="#37474F"/>
<path d="M21.3086 175.38C25.8686 174.03 30.4486 172.76 35.0286 171.5C37.3086 170.85 39.6186 170.26 41.9086 169.64L48.7986 167.81H48.8886H48.9886L55.8686 169.64C58.1686 170.26 60.4686 170.85 62.7486 171.5C67.3286 172.76 71.9086 174.03 76.4686 175.38C71.8286 174.38 67.2186 173.2 62.6086 172.05C60.2986 171.5 57.9986 170.89 55.6986 170.3L48.7986 168.53H48.9986L42.0886 170.3C39.7886 170.89 37.4886 171.5 35.1786 172.05C30.5586 173.2 25.9986 174.33 21.3086 175.38Z" fill="#C7C7C7"/>
<path d="M48.8913 169.78C49.7804 169.78 50.5013 169.059 50.5013 168.17C50.5013 167.281 49.7804 166.56 48.8913 166.56C48.0021 166.56 47.2812 167.281 47.2812 168.17C47.2812 169.059 48.0021 169.78 48.8913 169.78Z" fill="#C7C7C7"/>
<path d="M81.0919 59.95H0.171875V153.63H81.0919V59.95Z" fill="white"/>
<path d="M0.17 153.63L0 60V59.83H0.17L81.1 59.7H81.35V60L81.26 153.68V153.84H81.1L0.17 153.63ZM0.17 153.63L81.1 153.47L80.94 153.63L80.85 60L81.1 60.25L0.17 60.12L0.34 60L0.17 153.63Z" fill="#C7C7C7"/>
<path d="M4.98907 148.82H76.2891L76.2891 64.77L4.98907 64.77L4.98907 148.82Z" fill="#FFC727"/>
<path opacity="0.7" d="M4.98907 148.82H76.2891L76.2891 64.77L4.98907 64.77L4.98907 148.82Z" fill="white"/>
<path opacity="0.9" d="M12.0801 89.07C11.8063 90.4314 11.9779 91.8448 12.5693 93.1012C13.1607 94.3576 14.1407 95.3904 15.3644 96.0469C16.5881 96.7033 17.9905 96.9487 19.3644 96.7467C20.7383 96.5447 22.0107 95.906 22.9936 94.925C23.9765 93.9441 24.6177 92.6729 24.8224 91.2994C25.0272 89.9259 24.7846 88.523 24.1305 87.298C23.4764 86.0731 22.4455 85.0911 21.1903 84.4971C19.9351 83.9032 18.522 83.7289 17.1601 84C15.9086 84.2518 14.7591 84.8671 13.8555 85.7689C12.9519 86.6707 12.3344 87.819 12.0801 89.07V89.07Z" fill="white"/>
<path d="M28.5117 120.03H76.2917L52.4017 90.58L28.5117 120.03Z" fill="#FFC727"/>
<g opacity="0.3">
<path opacity="0.3" d="M28.5117 120.03H76.2917L52.4017 90.58L28.5117 120.03Z" fill="white"/>
</g>
<path d="M4.98047 120.05H47.3505L26.1705 100.88L4.98047 120.05Z" fill="#FFC727"/>
<g opacity="0.5">
<path opacity="0.5" d="M4.98047 120.05H47.3505L26.1705 100.88L4.98047 120.05Z" fill="white"/>
</g>
<path d="M76.2805 120.02H4.98047V148.81H76.2805V120.02Z" fill="#FFC727"/>
<g opacity="0.5">
<path opacity="0.5" d="M76.2805 120.02H4.98047V148.81H76.2805V120.02Z" fill="white"/>
</g>
<path d="M0.171875 59.95L10.2319 56.67L20.3219 53.46L40.5219 47.16L40.6319 47.12L40.7419 47.16L60.9519 53.46L71.0319 56.67L81.1019 59.95L70.9319 57.02L60.7819 54.01L40.5219 47.87H40.7419L20.4919 54.01L10.3419 57.02L0.171875 59.95Z" fill="#C7C7C7"/>
<path d="M42.2517 47.51C42.2537 47.8308 42.1603 48.145 41.9835 48.4127C41.8067 48.6804 41.5544 48.8896 41.2586 49.0138C40.9628 49.1379 40.6367 49.1714 40.3218 49.1101C40.0069 49.0487 39.7173 48.8952 39.4898 48.669C39.2622 48.4429 39.1069 48.1543 39.0436 47.8397C38.9803 47.5252 39.0118 47.199 39.1341 46.9024C39.2564 46.6058 39.464 46.3522 39.7306 46.1737C39.9973 45.9953 40.3109 45.9 40.6317 45.9C41.0596 45.9 41.4702 46.0693 41.7737 46.3709C42.0772 46.6726 42.249 47.0821 42.2517 47.51V47.51Z" fill="#C7C7C7"/>
<path d="M192.044 177.728L195.805 112.507L113.761 107.776L110 172.998L192.044 177.728Z" fill="white" stroke="#C7C7C7" stroke-width="0.5" stroke-miterlimit="10"/>
<path d="M115.163 168.403L187.453 172.571L190.651 117.103L118.361 112.935L115.163 168.403Z" fill="#455A64"/>
<path opacity="0.6" d="M124.849 125.48C124.493 126.846 124.587 128.291 125.115 129.6C125.643 130.909 126.579 132.013 127.783 132.75C128.987 133.487 130.396 133.817 131.803 133.691C133.209 133.565 134.537 132.991 135.592 132.052C136.646 131.113 137.371 129.861 137.659 128.478C137.946 127.096 137.782 125.658 137.19 124.377C136.598 123.095 135.609 122.038 134.37 121.362C133.131 120.685 131.707 120.425 130.309 120.62C129.021 120.801 127.815 121.359 126.843 122.224C125.872 123.088 125.178 124.222 124.849 125.48Z" fill="white"/>
<path d="M139.699 157.83L188.139 160.62L165.639 129.37L139.699 157.83Z" fill="#263238"/>
<path d="M115.848 156.48L158.808 158.95L138.448 138.28L115.848 156.48Z" fill="#37474F"/>
<path d="M188.141 160.613L115.852 156.445L115.163 168.395L187.452 172.563L188.141 160.613Z" fill="#37474F"/>
<path d="M113.758 107.78L123.498 105.06L133.258 102.43L143.028 99.84L152.808 97.27L152.918 97.25L153.028 97.28L174.448 104.8L185.138 108.62L195.808 112.5L185.018 108.96L174.258 105.34L152.778 97.99L152.998 98L143.208 100.5L133.408 102.99L123.588 105.42L113.758 107.78Z" fill="#C7C7C7"/>
<path d="M154.538 97.64C154.538 97.9648 154.441 98.2823 154.261 98.5522C154.08 98.8221 153.823 99.0323 153.523 99.1561C153.223 99.28 152.893 99.3118 152.574 99.2477C152.256 99.1837 151.964 99.0265 151.735 98.7961C151.506 98.5657 151.35 98.2726 151.288 97.9538C151.226 97.635 151.26 97.305 151.386 97.0055C151.511 96.706 151.723 96.4505 151.994 96.2715C152.265 96.0925 152.583 95.9981 152.908 96C153.341 96.0027 153.756 96.1766 154.061 96.4839C154.366 96.7912 154.538 97.2068 154.538 97.64V97.64Z" fill="#C7C7C7"/>
</svg>
