<svg xmlns="http://www.w3.org/2000/svg" viewBox="0 0 423.27 115.23"><defs><style>.cls-1{fill:#263238;}.cls-2{fill:#ffc727;}.cls-3{fill:#455a64;}</style></defs><g id="Layer_2" data-name="Layer 2"><g id="Floor"><polygon class="cls-1" points="0 114.73 52.91 114.49 105.82 114.4 211.63 114.23 317.45 114.4 370.36 114.48 423.27 114.73 370.36 114.97 317.45 115.06 211.63 115.23 105.82 115.06 52.91 114.97 0 114.73"/></g><g id="Plant"><path class="cls-2" d="M380.47,21a37.07,37.07,0,0,1-.72,14.23,38.56,38.56,0,0,1-2.18,6.28c-1.13,2.61-2.31,5.15-2,8,.28.18-.67.15-.7-.13-7.61-4.33-17.37-5.12-23.22-12.21a24.18,24.18,0,0,1-4.84-11.86A36.14,36.14,0,0,1,347.05,11c1-3.86,3.27-7.58,6.89-9.48s8.65-1.78,12.59-.56C375,3.56,379.27,12.73,380.47,21Z"/><path class="cls-1" d="M384.38,77.3c-1-3.47-2.08-6.93-3.15-10.38-2.08-6.76-4.25-13.5-6.66-20.16q-2.16-6-4.55-11.85a70.76,70.76,0,0,1,.91-7.36c.63-2.95,1.56-5.8,2.42-8.69,0-.18-.24-.27-.31-.1-1.71,4-3.94,9.07-4,13.78q-2.79-6.64-6-13.09a56.14,56.14,0,0,1,.34-10.91.13.13,0,0,0-.26,0,38.73,38.73,0,0,0-.74,9.63c-1.64-3.23-3.36-6.42-5.19-9.57-.17-.28-.56,0-.42.29q4.29,8.27,8,16.83a36.48,36.48,0,0,0-11.94-6.91c-.19-.07-.33.2-.14.28a43.3,43.3,0,0,1,12.91,8.55q2.69,6.25,5.12,12.61c-4.77-4.66-11.28-7.74-17.59-9.38-.21-.06-.27.27-.06.33,7.29,2.2,13,6.33,18.51,11.3.64,1.72,1.27,3.43,1.89,5.15,2.36,6.52,4.58,13.09,6.72,19.69q1.53,4.74,3,9.5c1.06,3.41,1.9,7,3.28,10.31.13.31.7.24.63-.14C386.52,83.69,385.33,80.48,384.38,77.3Z"/><path class="cls-1" d="M371.75,14.3A19,19,0,0,0,369,21.13c0,.06.09.1.11,0a60,60,0,0,1,3-6.71C372.21,14.24,371.88,14.1,371.75,14.3Z"/><path class="cls-1" d="M358.18,30.15a20.22,20.22,0,0,0-6.83-2.3c-.06,0-.1.09,0,.11,1.1.46,2.25.78,3.36,1.2s2.21.95,3.34,1.35A.2.2,0,0,0,358.18,30.15Z"/><path class="cls-1" d="M354.35,11.08a13.51,13.51,0,0,0-2.19-1.36.12.12,0,0,0-.13.2,14,14,0,0,0,2.16,1.4C354.33,11.4,354.49,11.17,354.35,11.08Z"/><path class="cls-2" d="M406.13,46.81c-5.48,1.62-11,3.13-16.47,4.74-.48.14-9.75-17.62-6.4-26.76A29.87,29.87,0,0,1,401.89,7.11c3.92-1.33,8.73-2.45,12.86-1.53,3.68.81,6.28,3.82,7.47,7.27,1.63,4.7,1.09,10.31.2,15.11A26.38,26.38,0,0,1,417,40.28C414.11,43.74,410.4,45.54,406.13,46.81Z"/><path class="cls-1" d="M414.07,29.93a72.38,72.38,0,0,1-10.74,4.23,45.75,45.75,0,0,0-7.18,2.6c2.32-5.16,4.86-10.21,7.55-15.22a24.53,24.53,0,0,0,9.94-5.13.15.15,0,0,0-.2-.23,49.78,49.78,0,0,1-9.37,4.7c.73-1.35,1.46-2.69,2.21-4a.34.34,0,0,0-.56-.38,116.49,116.49,0,0,0-7.78,13.08,59.9,59.9,0,0,1-.57-12c0-.11-.14-.11-.16,0a40.15,40.15,0,0,0,.14,13.17c-1.92,3.83-3.68,7.76-5.25,11.74-.62-2.39-1.44-4.74-2-7.15a33.17,33.17,0,0,1-.79-10.55.08.08,0,0,0-.15,0,37.16,37.16,0,0,0,2.29,19.37c-.91,2.4-1.79,4.8-2.58,7.21a143.49,143.49,0,0,0-7.28,38,.23.23,0,0,0,.46,0,188.72,188.72,0,0,1,8.17-37.59c1.59-4.77,3.42-9.41,5.43-14,3.23-.95,6.46-2.25,9.64-3.35a30.53,30.53,0,0,0,8.89-4.36C414.3,30,414.19,29.88,414.07,29.93Z"/><path class="cls-1" d="M419.18,24.78c-3.35,1.19-6.52,2.86-9.87,4.07-.16,0-.07.3.09.27,3.54-.73,7.06-1.83,9.91-4.15C419.42,24.88,419.3,24.73,419.18,24.78Z"/><path class="cls-1" d="M391.81,17.54c0-.17-.22-.28-.27-.09-.92,3.09-1.55,6.36-.66,9.52a.12.12,0,0,0,.24,0C391.28,23.78,391.1,20.68,391.81,17.54Z"/><path class="cls-1" d="M405.66,10.4a8.25,8.25,0,0,0-1.45,5.26c0,.12.19.19.22.05.41-1.77,1.1-3.38,1.64-5.1A.23.23,0,0,0,405.66,10.4Z"/><path class="cls-2" d="M340.93,54.64c1.61,5.1,5.42,12.15,11.47,12.21,3.92,0,7.87-.43,11.8-.49,4.21-.06,8.42,0,12.62.2.35,0-.5-12.6-10.61-18.75-2.84-1.72-6.3-2.26-9.52-3a43.88,43.88,0,0,0-11.24-1.17c-2.32.09-4.25.58-5.08,3S340.16,52.22,340.93,54.64Z"/><path class="cls-1" d="M345.28,48.26c2.46.63,4.94,1.36,7.4,2.14a25.43,25.43,0,0,0-2-2c-1.06-.88-2.23-1.58-3.36-2.35-.1-.07,0-.25.08-.2a13.87,13.87,0,0,1,6,4.74c3.08,1,6.12,2.09,9.05,3.29a34,34,0,0,1,5.8,3,24,24,0,0,0-2.1-3.65c-1.34-1.74-3.16-2.7-4.92-3.94a.16.16,0,0,1,.16-.27,14.4,14.4,0,0,1,7.89,8.55A34.25,34.25,0,0,1,375,62.84c6.69,7.6,12,17.71,12,28,0,.25-.4.32-.45.06a57.17,57.17,0,0,0-12.76-27.41c-.48-.55-1-1.09-1.47-1.6a46.29,46.29,0,0,0-5.53-.41c-2.15,0-4.29.31-6.43.49-3.53.29-7.43.33-10.62-1.45-.14-.08,0-.32.11-.26,7.1,2.58,14.55-.7,21.67.84A33.48,33.48,0,0,0,361,54.36l-.65-.26c-4.56.55-9.37,1.74-13.81.26-.13,0-.07-.25.06-.21,4.29,1.07,8.4-.28,12.63-.49-4.6-1.8-9.3-3.22-13.92-5C344.87,48.5,344.86,48.15,345.28,48.26Z"/><path class="cls-1" d="M343.27,52.74a61.44,61.44,0,0,0,6.63.51c.05,0,.07.08,0,.09a13.69,13.69,0,0,1-6.69-.43C343.11,52.88,343.16,52.72,343.27,52.74Z"/><path class="cls-1" d="M358.25,48.37a10.88,10.88,0,0,1,3.28,2.28c.12.1,0,.31-.17.22-.55-.41-1.13-.79-1.7-1.16a15.43,15.43,0,0,1-1.6-1A.2.2,0,0,1,358.25,48.37Z"/><path class="cls-2" d="M394,64.79c-.08.17.17.32.26.15h0a.24.24,0,0,0,.16.1,103.58,103.58,0,0,0,12.35,2.16c3.34.29,7.2.48,10.12-1.46,4-2.63,6.58-9.66,4.44-14.13-2.54-5.31-10.19-2.43-14-.54A28.13,28.13,0,0,0,394,64.79Z"/><path class="cls-1" d="M391,67.24a39.4,39.4,0,0,1,7.38-5.61A25.31,25.31,0,0,1,405.85,54c.14-.1.27.13.14.23a34.12,34.12,0,0,0-6.31,6.63,70.37,70.37,0,0,1,9.26-4.21,12.35,12.35,0,0,1,5-5s.09,0,0,.07a20.87,20.87,0,0,0-4.49,4.71c1.88-.7,3.78-1.35,5.68-2,.17-.06.23.2.07.26-3.38,1.33-6.83,2.72-10.18,4.32a39.23,39.23,0,0,0,12.33,0c.11,0,.16.14.05.17a24.22,24.22,0,0,1-13.08.2,60.55,60.55,0,0,0-6.21,3.47,15.88,15.88,0,0,1,5,.41,37.86,37.86,0,0,0,8.81,1c.11,0,.14.18,0,.2-5.12.88-9.95-1.44-15-.84A37.41,37.41,0,0,0,384,78.8c-2.14,4.34-3.29,9-5,13.43a.16.16,0,0,1-.31-.08C380.14,83.3,384.55,73.55,391,67.24Z"/><path class="cls-1" d="M406.41,55.11a5.89,5.89,0,0,1,1.31-1.59,5.2,5.2,0,0,1,1.51-1.13s.08,0,0,.09c-.42.47-1,.82-1.45,1.28s-.84,1-1.3,1.44C406.47,55.27,406.38,55.19,406.41,55.11Z"/><path class="cls-1" d="M414.85,57.86c.75-.19,1.56-.18,2.33-.34a22.5,22.5,0,0,0,2.26-.67c.1,0,.15.11.07.16a7.47,7.47,0,0,1-4.66,1.08A.12.12,0,0,1,414.85,57.86Z"/><polygon class="cls-3" points="369.92 81.25 370.59 88.87 372.87 114.6 393.03 114.6 395.87 88.87 396.71 81.25 369.92 81.25"/><polygon class="cls-1" points="369.92 81.25 370.59 88.87 395.87 88.87 396.71 81.25 369.92 81.25"/><rect class="cls-3" x="367.93" y="79.17" width="30.78" height="6.18" transform="translate(766.63 164.52) rotate(180)"/></g></g></svg>