<svg xmlns="http://www.w3.org/2000/svg" viewBox="0 0 324.97 64.03"><defs><style>.cls-1{fill:none;stroke:#c7c7c7;stroke-miterlimit:10;}.cls-2{fill:#ebebeb;}.cls-3{fill:#dbdbdb;}</style></defs><g id="Layer_2" data-name="Layer 2"><g id="Background_Complete" data-name="Background Complete"><line class="cls-1" x1="23.21" y1="37.56" x2="23.21"/><polygon class="cls-2" points="46.41 59.92 44.55 64.03 1.86 64.03 0 59.92 18.17 47.35 28.24 47.35 46.41 59.92"/><polygon class="cls-3" points="29.5 35.23 28.24 47.35 18.17 47.35 16.91 35.23 29.5 35.23"/><polygon class="cls-3" points="46.41 59.93 44.55 64.03 1.86 64.03 0 59.93 46.41 59.93"/><line class="cls-1" x1="116.06" y1="37.56" x2="116.06"/><polygon class="cls-2" points="139.27 59.92 137.4 64.03 94.72 64.03 92.85 59.92 111.03 47.35 121.09 47.35 139.27 59.92"/><polygon class="cls-3" points="122.36 35.23 121.09 47.35 111.03 47.35 109.77 35.23 122.36 35.23"/><polygon class="cls-3" points="139.26 59.93 137.4 64.03 94.71 64.03 92.85 59.93 139.26 59.93"/><line class="cls-1" x1="208.91" y1="37.56" x2="208.91"/><polygon class="cls-2" points="232.12 59.92 230.25 64.03 187.57 64.03 185.71 59.92 203.88 47.35 213.95 47.35 232.12 59.92"/><polygon class="cls-3" points="215.21 35.23 213.95 47.35 203.88 47.35 202.62 35.23 215.21 35.23"/><polygon class="cls-3" points="232.12 59.93 230.25 64.03 187.56 64.03 185.7 59.93 232.12 59.93"/><line class="cls-1" x1="301.76" y1="37.56" x2="301.76"/><polygon class="cls-2" points="324.97 59.92 323.1 64.03 280.42 64.03 278.56 59.92 296.73 47.35 306.8 47.35 324.97 59.92"/><polygon class="cls-3" points="308.06 35.23 306.8 47.35 296.73 47.35 295.47 35.23 308.06 35.23"/><polygon class="cls-3" points="324.97 59.93 323.1 64.03 280.42 64.03 278.56 59.93 324.97 59.93"/></g></g></svg>