<svg xmlns="http://www.w3.org/2000/svg" viewBox="0 0 86.33 81.99"><defs><style>.cls-1,.cls-3{fill:#fff;}.cls-1{stroke:#c7c7c7;stroke-miterlimit:10;stroke-width:0.5px;}.cls-2{fill:#455a64;}.cls-3{opacity:0.6;}.cls-4{fill:#263238;}.cls-5{fill:#37474f;}.cls-6{fill:#c7c7c7;}</style></defs><g id="Layer_2" data-name="Layer 2"><g id="Character"><rect class="cls-1" x="10.5" y="5.66" width="65.33" height="82.18" transform="translate(92.32 6.35) rotate(93.3)"/><rect class="cls-2" x="6.96" y="18.97" width="72.41" height="55.56" transform="translate(83.57 95.91) rotate(-176.7)"/><path class="cls-3" d="M15.11,29.48a6.58,6.58,0,1,0,5.46-4.86A6.59,6.59,0,0,0,15.11,29.48Z"/><polygon class="cls-4" points="29.96 61.83 78.4 64.62 55.9 33.37 29.96 61.83"/><polygon class="cls-5" points="6.11 60.48 49.07 62.95 28.71 42.28 6.11 60.48"/><rect class="cls-5" x="5.71" y="62.52" width="72.41" height="11.97" transform="translate(4.01 -2.3) rotate(3.3)"/><polygon class="cls-6" points="4.02 11.78 13.76 9.06 23.52 6.43 33.29 3.84 43.07 1.27 43.18 1.25 43.29 1.28 64.71 8.8 75.4 12.62 86.07 16.5 75.28 12.96 64.52 9.34 43.04 1.99 43.26 2 33.47 4.5 23.67 6.99 13.85 9.42 4.02 11.78"/><path class="cls-6" d="M44.8,1.64A1.64,1.64,0,1,1,43.17,0,1.64,1.64,0,0,1,44.8,1.64Z"/></g></g></svg>