<svg xmlns="http://www.w3.org/2000/svg" viewBox="0 0 315.17 275.25"><defs><style>.cls-1,.cls-12,.cls-4,.cls-5,.cls-8{fill:#fff;}.cls-2{fill:#c7c7c7;}.cls-3{fill:#ffc727;}.cls-4{opacity:0.7;}.cls-5{opacity:0.9;}.cls-6{opacity:0.3;}.cls-7{opacity:0.5;}.cls-8{stroke:#c7c7c7;stroke-miterlimit:10;stroke-width:0.5px;}.cls-9{opacity:0.2;}.cls-10{opacity:0.1;}.cls-11{fill:#455a64;}.cls-12{opacity:0.6;}.cls-13{fill:#263238;}.cls-14{fill:#37474f;}</style></defs><g id="Layer_2" data-name="Layer 2"><g id="Images"><rect class="cls-1" x="234" y="55.78" width="80.92" height="132.14"/><path class="cls-2" d="M234,187.92l-.18-132.14V55.6H234l80.93-.06h.24v.24l-.08,132.14v.16h-.16Zm0,0,80.93-.16-.16.16-.08-132.14.24.24L234,56l.18-.18Z"/><rect class="cls-3" x="238.81" y="60.59" width="71.3" height="122.52" transform="translate(548.93 243.7) rotate(180)"/><rect class="cls-4" x="238.81" y="60.59" width="71.3" height="122.52" transform="translate(548.93 243.7) rotate(180)"/><path class="cls-5" d="M249.51,97.28a6.48,6.48,0,1,0,5.09-5.09A6.49,6.49,0,0,0,249.51,97.28Z"/><polygon class="cls-3" points="262.34 139.06 310.12 139.06 286.23 109.62 262.34 139.06"/><g class="cls-6"><polygon class="cls-1" points="262.34 139.06 310.12 139.06 286.23 109.62 262.34 139.06"/></g><polygon class="cls-3" points="238.81 139.06 281.19 139.06 260 119.89 238.81 139.06"/><g class="cls-7"><polygon class="cls-1" points="238.81 139.06 281.19 139.06 260 119.89 238.81 139.06"/></g><rect class="cls-3" x="238.81" y="139.06" width="71.3" height="44.05"/><g class="cls-7"><rect class="cls-1" x="238.81" y="139.06" width="71.3" height="44.05"/></g><polygon class="cls-2" points="234 55.78 244.07 52.54 254.15 49.38 274.36 43.16 274.47 43.13 274.57 43.16 294.78 49.38 304.87 52.54 314.93 55.78 304.76 52.89 294.61 49.93 274.36 43.88 274.57 43.88 254.32 49.93 244.17 52.89 234 55.78"/><circle class="cls-2" cx="274.47" cy="43.52" r="1.61"/><rect class="cls-8" x="121.41" y="-4.27" width="74.18" height="110.47" transform="translate(209.46 -107.54) rotate(90)"/><rect class="cls-3" x="108.08" y="18.68" width="100.84" height="64.55" transform="translate(317 101.92) rotate(180)"/><path class="cls-1" d="M117.86,35.07A6.47,6.47,0,1,0,122.94,30,6.47,6.47,0,0,0,117.86,35.07Z"/><polygon class="cls-3" points="141.35 71.45 208.92 71.45 175.14 29.81 141.35 71.45"/><g class="cls-9"><polygon points="141.35 71.45 208.92 71.45 175.14 29.81 141.35 71.45"/></g><polygon class="cls-3" points="108.08 71.45 168.01 71.45 138.04 44.33 108.08 71.45"/><g class="cls-10"><polygon points="108.08 71.45 168.01 71.45 138.04 44.33 108.08 71.45"/></g><rect class="cls-3" x="108.08" y="71.45" width="100.84" height="11.79"/><g class="cls-10"><rect x="108.08" y="71.45" width="100.84" height="11.79"/></g><polygon class="cls-2" points="103.27 13.87 117.04 10.63 130.82 7.46 158.42 1.25 158.5 1.23 158.58 1.25 186.18 7.46 199.97 10.63 213.74 13.87 199.89 10.98 186.06 8.02 158.42 1.98 158.58 1.98 130.95 8.02 117.12 10.98 103.27 13.87"/><path class="cls-2" d="M160.11,1.61A1.61,1.61,0,1,1,158.5,0,1.62,1.62,0,0,1,160.11,1.61Z"/><rect class="cls-8" x="121.11" y="167.91" width="74.18" height="140.01" transform="translate(396.11 79.72) rotate(90)"/><rect class="cls-3" x="93" y="205.64" width="130.39" height="64.55" transform="translate(316.39 475.83) rotate(180)"/><path class="cls-5" d="M104.29,222a6.48,6.48,0,1,0,5.09-5.09A6.49,6.49,0,0,0,104.29,222Z"/><polygon class="cls-3" points="136.02 258.4 223.39 258.4 179.71 216.76 136.02 258.4"/><g class="cls-9"><polygon points="136.02 258.4 223.39 258.4 179.71 216.76 136.02 258.4"/></g><polygon class="cls-3" points="93 258.4 170.49 258.4 131.75 231.29 93 258.4"/><g class="cls-10"><polygon points="93 258.4 170.49 258.4 131.75 231.29 93 258.4"/></g><rect class="cls-3" x="93" y="258.4" width="130.39" height="11.79"/><g class="cls-10"><rect x="93" y="258.4" width="130.39" height="11.79"/></g><polygon class="cls-2" points="88.19 200.82 105.66 197.58 123.15 194.41 158.13 188.2 158.2 188.19 158.26 188.2 193.25 194.41 210.73 197.58 228.2 200.82 210.67 197.94 193.15 194.98 158.13 188.94 158.26 188.94 123.25 194.98 105.73 197.94 88.19 200.82"/><path class="cls-2" d="M159.81,188.57a1.62,1.62,0,0,1-3.23,0,1.62,1.62,0,1,1,3.23,0Z"/><rect class="cls-8" x="248.25" y="206.15" width="43.65" height="45.31" transform="translate(498.89 -41.27) rotate(90)"/><rect class="cls-11" x="250.25" y="209.82" width="39.65" height="37.99" transform="translate(540.15 457.62) rotate(180)"/><path class="cls-12" d="M256,219.46a3.82,3.82,0,0,0,4.49,4.48,3.78,3.78,0,0,0,3-3,3.81,3.81,0,1,0-7.48-1.49Z"/><polygon class="cls-13" points="263.33 240.87 289.9 240.87 276.62 224.5 263.33 240.87"/><polygon class="cls-14" points="250.25 240.87 273.81 240.87 262.03 230.21 250.25 240.87"/><rect class="cls-14" x="250.25" y="240.87" width="39.65" height="6.94"/><path class="cls-2" d="M247.42,207c3.73-1.35,7.48-2.62,11.24-3.88,1.88-.64,3.77-1.23,5.65-1.85l5.65-1.84.12,0,.11,0,5.65,1.84c1.89.62,3.78,1.21,5.65,1.85,3.76,1.26,7.51,2.54,11.24,3.88-3.82-1-7.62-2.18-11.41-3.33-1.9-.56-3.79-1.17-5.68-1.75L270,200.13h.23l-5.67,1.77c-1.9.58-3.78,1.19-5.68,1.75C255,204.8,251.24,205.93,247.42,207Z"/><circle class="cls-2" cx="270.08" cy="199.77" r="1.61"/><rect class="cls-8" x="2.45" y="194.25" width="92.88" height="55.16" transform="translate(270.71 172.93) rotate(90)"/><rect class="cls-11" x="24.14" y="178.21" width="49.5" height="87.22" transform="translate(97.78 443.65) rotate(180)"/><path class="cls-12" d="M29.9,209.79a3.81,3.81,0,1,0,3-3A3.82,3.82,0,0,0,29.9,209.79Z"/><polygon class="cls-13" points="40.44 237.58 73.54 237.58 56.99 217.19 40.44 237.58"/><polygon class="cls-14" points="24.14 237.58 53.49 237.58 38.82 224.3 24.14 237.58"/><rect class="cls-14" x="24.14" y="237.58" width="49.5" height="27.85"/><path class="cls-2" d="M21.31,175.38c4.56-1.35,9.14-2.62,13.72-3.88,2.28-.65,4.59-1.24,6.88-1.86l6.89-1.83.09,0,.1,0,6.88,1.83c2.3.62,4.6,1.21,6.88,1.86,4.58,1.26,9.16,2.53,13.72,3.88-4.64-1-9.25-2.18-13.86-3.33-2.31-.55-4.61-1.16-6.91-1.75l-6.9-1.77H49l-6.91,1.77c-2.3.59-4.6,1.2-6.91,1.75C30.56,173.2,26,174.33,21.31,175.38Z"/><circle class="cls-2" cx="48.89" cy="168.17" r="1.61"/><rect class="cls-1" x="0.17" y="59.95" width="80.92" height="93.68"/><path class="cls-2" d="M.17,153.63,0,60v-.17H.17L81.1,59.7h.25V60l-.09,93.68v.16H81.1Zm0,0,80.93-.16-.16.16L80.85,60l.25.25L.17,60.12.34,60Z"/><rect class="cls-3" x="4.98" y="64.76" width="71.3" height="84.05" transform="translate(81.27 213.58) rotate(180)"/><rect class="cls-4" x="4.98" y="64.76" width="71.3" height="84.05" transform="translate(81.27 213.58) rotate(180)"/><path class="cls-5" d="M12.08,89.07A6.47,6.47,0,1,0,17.16,84,6.49,6.49,0,0,0,12.08,89.07Z"/><polygon class="cls-3" points="28.51 120.03 76.29 120.03 52.4 90.58 28.51 120.03"/><g class="cls-6"><polygon class="cls-1" points="28.51 120.03 76.29 120.03 52.4 90.58 28.51 120.03"/></g><polygon class="cls-3" points="4.98 120.05 47.35 120.05 26.17 100.88 4.98 120.05"/><g class="cls-7"><polygon class="cls-1" points="4.98 120.05 47.35 120.05 26.17 100.88 4.98 120.05"/></g><rect class="cls-3" x="4.98" y="120.02" width="71.3" height="28.79"/><g class="cls-7"><rect class="cls-1" x="4.98" y="120.02" width="71.3" height="28.79"/></g><polygon class="cls-2" points="0.17 59.95 10.23 56.67 20.32 53.46 40.52 47.16 40.63 47.12 40.74 47.16 60.95 53.46 71.03 56.67 81.1 59.95 70.93 57.02 60.78 54.01 40.52 47.87 40.74 47.87 20.49 54.01 10.34 57.02 0.17 59.95"/><path class="cls-2" d="M42.25,47.51a1.62,1.62,0,1,1-1.62-1.61A1.62,1.62,0,0,1,42.25,47.51Z"/></g></g></svg>