<svg width="764" height="208" viewBox="0 0 764 208" fill="none" xmlns="http://www.w3.org/2000/svg">
<path d="M0 207.097L95.5023 206.664L191.005 206.502L381.991 206.195L572.996 206.502L668.498 206.646L764 207.097L668.498 207.531L572.996 207.693L381.991 208L191.005 207.693L95.5023 207.531L0 207.097Z" fill="#263238"/>
<path d="M686.746 37.9068C687.978 46.4724 687.537 55.1956 685.447 63.5932C684.464 67.478 683.147 71.2708 681.512 74.9291C679.472 79.6404 677.342 84.2253 677.902 89.3698C678.407 89.6947 676.693 89.6406 676.638 89.1351C662.902 81.3191 645.286 79.8931 634.726 67.095C629.943 60.8741 626.925 53.4785 625.99 45.6867C624.411 37.1337 624.559 28.3512 626.423 19.8559C628.228 12.8883 632.326 6.17339 638.86 2.74373C645.394 -0.68593 654.473 -0.46932 661.585 1.73288C676.873 6.42611 684.58 22.9787 686.746 37.9068Z" fill="#FFC727"/>
<path d="M693.801 139.533C691.996 133.269 690.046 127.024 688.115 120.796C684.361 108.594 680.444 96.4276 676.094 84.4058C673.495 77.1854 670.757 70.0553 667.881 63.0155C668.196 58.5614 668.744 54.1268 669.524 49.7301C670.661 44.4051 672.339 39.2606 673.892 34.0439C673.892 33.719 673.459 33.5565 673.332 33.8634C670.246 41.0837 666.221 50.2355 666.112 58.7375C662.755 50.747 659.145 42.8708 655.282 35.1089C654.847 28.5401 655.052 21.9444 655.896 15.4154C655.896 15.3532 655.871 15.2935 655.827 15.2495C655.783 15.2055 655.724 15.1808 655.661 15.1808C655.599 15.1808 655.539 15.2055 655.495 15.2495C655.451 15.2935 655.427 15.3532 655.427 15.4154C654.258 21.1313 653.809 26.971 654.091 32.7984C651.131 26.968 648.026 21.2097 644.723 15.5237C644.416 15.0183 643.712 15.5237 643.965 16.0472C649.127 25.9992 653.941 36.1258 658.405 46.4268C652.08 40.9361 644.765 36.7027 636.853 33.9536C636.51 33.8273 636.258 34.3147 636.601 34.4591C645.232 38.1615 653.126 43.3896 659.903 49.8925C663.14 57.4137 666.221 65.0011 669.145 72.6547C660.535 64.243 648.784 58.6833 637.395 55.723C637.016 55.6147 636.907 56.2103 637.287 56.3186C650.445 60.2898 660.751 67.7448 670.697 76.7161C671.852 79.8209 672.989 82.9076 674.108 86.0123C678.368 97.7815 682.375 109.641 686.238 121.554C688.079 127.258 689.884 132.975 691.653 138.703C693.566 144.858 695.082 151.338 697.573 157.313C697.808 157.873 698.837 157.746 698.71 157.06C697.663 151.068 695.516 145.273 693.801 139.533Z" fill="#263238"/>
<path d="M671.007 25.8127C668.564 29.5593 666.878 33.7475 666.043 38.1414C666.043 38.2497 666.205 38.3219 666.241 38.1414C667.797 33.9972 669.606 29.9522 671.656 26.0293C671.837 25.7044 671.241 25.4517 671.007 25.8127Z" fill="#263238"/>
<path d="M646.512 54.4233C642.685 52.3123 638.509 50.9061 634.184 50.2716C634.076 50.2716 634.004 50.4341 634.184 50.4702C636.17 51.3005 638.245 51.8782 640.249 52.6363C642.252 53.3944 644.238 54.3511 646.278 55.0732C646.355 55.0772 646.432 55.0562 646.496 55.0134C646.561 54.9705 646.61 54.9081 646.636 54.8353C646.662 54.7624 646.664 54.6831 646.642 54.6089C646.62 54.5347 646.574 54.4697 646.512 54.4233V54.4233Z" fill="#263238"/>
<path d="M639.599 20.0003C638.362 19.0579 637.039 18.2359 635.646 17.5454C635.598 17.5215 635.543 17.5159 635.492 17.5299C635.441 17.5438 635.396 17.5762 635.367 17.6209C635.338 17.6656 635.326 17.7194 635.335 17.7721C635.343 17.8248 635.37 17.8726 635.411 17.9064C636.631 18.8668 637.936 19.7127 639.31 20.4336C639.563 20.578 639.852 20.1628 639.599 20.0003Z" fill="#263238"/>
<path d="M733.063 84.496C723.172 87.4203 713.208 90.146 703.335 93.0521C702.468 93.3049 685.736 61.2465 691.783 44.7481C694.662 37.2623 699.174 30.513 704.991 24.9921C710.809 19.4712 717.784 15.3177 725.41 12.8342C732.486 10.4334 741.167 8.41169 748.622 10.0724C755.264 11.5345 759.957 16.9678 762.105 23.1953C765.048 31.6792 764.073 41.8058 762.466 50.4702C761.183 58.6043 757.812 66.2666 752.683 72.7088C747.467 78.9544 740.77 82.2036 733.063 84.496Z" fill="#FFC727"/>
<path d="M747.392 54.0262C741.144 57.0834 734.661 59.6367 728.006 61.6617C723.563 62.8622 719.228 64.4321 715.046 66.3549C719.234 57.0407 723.819 47.925 728.674 38.8816C735.288 37.2179 741.428 34.0488 746.616 29.6215C746.643 29.5978 746.665 29.5689 746.681 29.5366C746.698 29.5043 746.707 29.4691 746.71 29.433C746.712 29.397 746.708 29.3608 746.696 29.3266C746.685 29.2923 746.667 29.2606 746.643 29.2334C746.619 29.2061 746.59 29.1838 746.558 29.1677C746.526 29.1516 746.49 29.142 746.454 29.1395C746.418 29.1369 746.382 29.1416 746.348 29.153C746.314 29.1645 746.282 29.1826 746.255 29.2063C740.931 32.6217 735.262 35.4654 729.342 37.6902C730.66 35.2533 731.977 32.8345 733.331 30.4699C733.404 30.336 733.424 30.1798 733.388 30.0317C733.352 29.8836 733.263 29.7542 733.137 29.6686C733.011 29.583 732.857 29.5474 732.706 29.5687C732.555 29.5901 732.418 29.6668 732.32 29.7839C727.13 37.3396 722.439 45.2266 718.277 53.3944C717.209 46.2268 716.865 38.97 717.248 31.7334C717.248 31.5349 716.996 31.5349 716.96 31.7334C715.735 39.6176 715.82 47.65 717.212 55.5064C713.747 62.4199 710.57 69.5139 707.736 76.6981C706.617 72.3839 705.137 68.142 704.126 63.7917C702.635 57.561 702.154 51.1314 702.7 44.7481C702.69 44.7204 702.671 44.6966 702.647 44.6798C702.623 44.6629 702.594 44.6539 702.565 44.6539C702.535 44.6539 702.507 44.6629 702.482 44.6798C702.458 44.6966 702.44 44.7204 702.429 44.7481C700.67 56.5631 702.097 68.6337 706.563 79.7126C704.92 84.0448 703.332 88.377 701.906 92.7272C694.449 114.894 690.029 137.968 688.766 161.32C688.766 161.431 688.809 161.536 688.887 161.614C688.965 161.692 689.071 161.736 689.181 161.736C689.291 161.736 689.396 161.692 689.474 161.614C689.552 161.536 689.596 161.431 689.596 161.32C692.188 138.259 697.129 115.524 704.343 93.4673C707.213 84.8571 710.516 76.4815 714.144 68.1961C719.974 66.4813 725.804 64.1347 731.544 62.1491C737.285 60.4164 742.706 57.758 747.59 54.2789C747.807 54.1526 747.609 53.936 747.392 54.0262Z" fill="#263238"/>
<path d="M756.615 44.73C750.569 46.8781 744.847 49.8926 738.8 52.0767C738.511 52.0767 738.674 52.6182 738.963 52.5641C745.352 51.2464 751.706 49.2608 756.85 45.073C757.049 44.9105 756.832 44.6398 756.615 44.73Z" fill="#263238"/>
<path d="M707.215 31.6612C707.215 31.3543 706.818 31.1558 706.727 31.4987C705.067 37.0765 703.93 42.9791 705.536 48.6832C705.536 48.7406 705.559 48.7957 705.6 48.8363C705.64 48.8769 705.695 48.8998 705.753 48.8998C705.81 48.8998 705.865 48.8769 705.906 48.8363C705.946 48.7957 705.969 48.7406 705.969 48.6832C706.258 42.9249 705.933 37.3292 707.215 31.6612Z" fill="#263238"/>
<path d="M732.214 18.7729C730.29 21.5493 729.367 24.8975 729.597 28.2676C729.597 28.4842 729.94 28.6106 729.994 28.3579C730.734 25.1629 731.98 22.2567 732.954 19.152C733.005 19.0538 733.014 18.9397 732.98 18.8348C732.946 18.7298 732.872 18.6426 732.774 18.5924C732.676 18.5421 732.562 18.5329 732.457 18.5667C732.352 18.6006 732.265 18.6747 732.214 18.7729V18.7729Z" fill="#263238"/>
<path d="M615.376 98.6299C618.282 107.836 625.159 120.562 636.079 120.67C643.155 120.67 650.285 119.894 657.378 119.785C664.977 119.677 672.576 119.785 680.157 120.146C680.789 120.146 679.255 97.4024 661.006 86.3011C655.88 83.1964 649.635 82.2216 643.823 80.8859C637.179 79.3103 630.36 78.6004 623.534 78.7739C619.347 78.9364 615.863 79.8209 614.365 84.1892C612.867 88.5575 613.986 94.2616 615.376 98.6299Z" fill="#FFC727"/>
<path d="M623.227 87.1134C627.668 88.2506 632.144 89.5684 636.584 90.9763C635.449 89.7069 634.244 88.5016 632.974 87.3661C631.061 85.7777 628.949 84.5141 626.909 83.1242C626.729 82.9978 626.909 82.6729 627.054 82.7632C631.394 84.5441 635.147 87.5088 637.884 91.3193C643.443 93.1244 648.93 95.0919 654.219 97.258C657.874 98.723 661.38 100.536 664.688 102.673C663.62 100.37 662.352 98.1656 660.897 96.0847C658.479 92.9439 655.194 91.211 652.017 88.9727C651.967 88.928 651.934 88.8676 651.924 88.8015C651.914 88.7355 651.927 88.668 651.961 88.6105C651.995 88.553 652.048 88.5091 652.111 88.4863C652.174 88.4635 652.243 88.4631 652.306 88.4853C655.622 89.9256 658.602 92.0422 661.054 94.6997C663.507 97.3572 665.377 100.497 666.547 103.919C670.339 106.687 673.802 109.879 676.872 113.432C688.947 127.15 698.532 145.4 698.532 163.974C698.532 164.425 697.81 164.552 697.719 164.082C694.621 145.822 686.666 128.732 674.688 114.605C673.821 113.612 672.883 112.637 672.034 111.717C668.725 111.271 665.392 111.024 662.053 110.977C658.172 110.977 654.309 111.536 650.447 111.861C644.075 112.385 637.035 112.457 631.277 109.244C631.025 109.099 631.278 108.666 631.476 108.774C644.292 113.432 657.739 107.511 670.59 110.291C665.08 105.08 658.639 100.952 651.602 98.1245L650.428 97.6551C642.198 98.6479 633.516 100.796 625.502 98.1245C625.267 98.1245 625.375 97.6732 625.61 97.7454C633.353 99.6768 640.772 97.24 648.407 96.8609C640.104 93.6117 631.62 91.0485 623.281 87.8355C622.487 87.5467 622.469 86.9149 623.227 87.1134Z" fill="#263238"/>
<path d="M619.6 95.2003C623.57 95.7229 627.565 96.0302 631.567 96.1208C631.658 96.1208 631.694 96.2652 631.567 96.2833C627.54 97.0294 623.391 96.7626 619.492 95.5071C619.311 95.453 619.402 95.1642 619.6 95.2003Z" fill="#263238"/>
<path d="M646.636 87.312C648.847 88.3067 650.854 89.7021 652.557 91.4276C652.773 91.6081 652.557 91.9872 652.25 91.8247C651.257 91.0846 650.21 90.3987 649.181 89.7308C648.183 89.1886 647.218 88.5858 646.294 87.9257C646.233 87.8709 646.193 87.7972 646.18 87.7168C646.167 87.6364 646.182 87.554 646.222 87.4829C646.261 87.4118 646.324 87.3562 646.399 87.3252C646.475 87.2942 646.558 87.2895 646.636 87.312Z" fill="#263238"/>
<path d="M711.169 116.951C711.024 117.258 711.476 117.529 711.638 117.222C711.671 117.27 711.714 117.311 711.764 117.342C711.814 117.373 711.869 117.394 711.927 117.403C719.272 119.151 726.716 120.453 734.218 121.302C740.247 121.825 747.214 122.168 752.485 118.666C759.705 113.919 764.362 101.229 760.499 93.1605C755.914 83.5755 742.106 88.7741 735.229 92.1857C724.562 97.3766 716.05 106.139 711.169 116.951V116.951Z" fill="#FFC727"/>
<path d="M705.752 121.374C709.778 117.486 714.25 114.087 719.073 111.247C722.537 105.75 727.134 101.054 732.556 97.4746C732.809 97.2941 733.044 97.7093 732.809 97.8898C728.492 101.349 724.661 105.375 721.419 109.857C726.8 106.924 732.386 104.385 738.134 102.258C740.198 98.4343 743.335 95.2972 747.159 93.2327C747.159 93.2327 747.321 93.2327 747.159 93.359C744.029 95.7518 741.295 98.6206 739.054 101.861C742.448 100.597 745.877 99.4241 749.307 98.2508C749.613 98.1425 749.722 98.6118 749.433 98.7201C743.332 101.121 737.105 103.63 731.058 106.518C738.43 107.691 745.942 107.691 753.314 106.518C753.512 106.518 753.602 106.771 753.404 106.825C745.716 109.109 737.549 109.234 729.795 107.186C725.939 109.052 722.196 111.144 718.586 113.45C721.614 113.217 724.66 113.466 727.611 114.19C732.822 115.412 738.159 116.018 743.513 115.995C743.711 115.995 743.765 116.32 743.513 116.356C734.271 117.944 725.553 113.756 716.438 114.84C706.329 121.696 698.269 131.166 693.117 142.241C689.254 150.075 687.179 158.486 684.092 166.483C684.073 166.557 684.025 166.621 683.959 166.66C683.893 166.699 683.814 166.71 683.74 166.691C683.666 166.671 683.602 166.624 683.564 166.558C683.525 166.492 683.513 166.413 683.533 166.339C686.15 150.364 694.11 132.764 705.752 121.374Z" fill="#263238"/>
<path d="M733.566 99.4783C734.179 98.3901 734.98 97.4186 735.93 96.6082C736.707 95.7679 737.631 95.0766 738.656 94.5685C738.656 94.5685 738.8 94.5685 738.656 94.7309C737.898 95.5793 736.851 96.2111 736.039 97.0414C735.226 97.8718 734.522 98.8465 733.692 99.6408C733.674 99.7671 733.512 99.6227 733.566 99.4783Z" fill="#263238"/>
<path d="M748.803 104.442C750.157 104.099 751.619 104.117 753.009 103.829C754.389 103.497 755.75 103.093 757.088 102.619C757.269 102.619 757.359 102.818 757.215 102.908C754.7 104.462 751.745 105.147 748.803 104.857C748.758 104.844 748.719 104.817 748.691 104.779C748.663 104.742 748.648 104.696 748.648 104.65C748.648 104.603 748.663 104.558 748.691 104.52C748.719 104.483 748.758 104.456 748.803 104.442V104.442Z" fill="#263238"/>
<path d="M667.703 146.663L668.912 160.418L673.028 206.863H709.416L714.543 160.418L716.059 146.663H667.703Z" fill="#455A64"/>
<path d="M667.703 146.663L668.912 160.418H714.543L716.059 146.663H667.703Z" fill="#263238"/>
<path d="M664.095 154.064H719.652V142.909H664.095V154.064Z" fill="#455A64"/>
</svg>
