<svg xmlns="http://www.w3.org/2000/svg" viewBox="0 0 72.1 72.1"><defs><style>.cls-1{fill:#ebebeb;}.cls-2{fill:#fff;}</style></defs><g id="Layer_2" data-name="Layer 2"><g id="bg_square_pattern_2"><polygon class="cls-1" points="68.16 68.16 66.83 68.16 66.83 67.28 67.28 67.28 67.28 66.83 68.16 66.83 68.16 68.16"/><path class="cls-1" d="M65.08,68.16H63.32v-.89h1.76Zm-3.52,0H59.8v-.89h1.76Zm-3.52,0H56.28v-.89H58Zm-3.52,0H52.76v-.89h1.76Zm-3.52,0H49.24v-.89H51Zm-3.52,0H45.73v-.89h1.75Zm-3.51,0H42.21v-.89H44Zm-3.52,0H38.69v-.89h1.76Zm-3.52,0H35.17v-.89h1.76Zm-3.52,0H31.65v-.89h1.76Zm-3.52,0H28.13v-.89h1.76Zm-3.51,0H24.62v-.89h1.76Zm-3.52,0H21.1v-.89h1.76Zm-3.52,0H17.58v-.89h1.76Zm-3.52,0H14.06v-.89h1.76Zm-3.52,0H10.54v-.89H12.3Zm-3.52,0H7v-.89H8.78Z"/><polygon class="cls-1" points="5.27 68.16 3.95 68.16 3.95 66.83 4.83 66.83 4.83 67.28 5.27 67.28 5.27 68.16"/><path class="cls-1" d="M4.83,65.08H4V63.32h.88Zm0-3.52H4V59.8h.88Zm0-3.52H4V56.28h.88Zm0-3.52H4V52.76h.88Zm0-3.52H4V49.24h.88Zm0-3.52H4V45.73h.88Zm0-3.51H4V42.21h.88Zm0-3.52H4V38.69h.88Zm0-3.52H4V35.17h.88Zm0-3.52H4V31.65h.88Zm0-3.52H4V28.13h.88Zm0-3.51H4V24.62h.88Zm0-3.52H4V21.1h.88Zm0-3.52H4V17.58h.88Zm0-3.52H4V14.06h.88Zm0-3.52H4V10.54h.88Zm0-3.52H4V7h.88Z"/><polygon class="cls-1" points="4.83 5.27 3.95 5.27 3.95 3.95 5.27 3.95 5.27 4.83 4.83 4.83 4.83 5.27"/><path class="cls-1" d="M65.08,4.83H63.32V4h1.76Zm-3.52,0H59.8V4h1.76ZM58,4.83H56.28V4H58Zm-3.52,0H52.76V4h1.76ZM51,4.83H49.24V4H51Zm-3.52,0H45.73V4h1.75ZM44,4.83H42.21V4H44Zm-3.52,0H38.69V4h1.76Zm-3.52,0H35.17V4h1.76Zm-3.52,0H31.65V4h1.76Zm-3.52,0H28.13V4h1.76Zm-3.51,0H24.62V4h1.76Zm-3.52,0H21.1V4h1.76Zm-3.52,0H17.58V4h1.76Zm-3.52,0H14.06V4h1.76Zm-3.52,0H10.54V4H12.3Zm-3.52,0H7V4H8.78Z"/><polygon class="cls-1" points="68.16 5.27 67.28 5.27 67.28 4.83 66.83 4.83 66.83 3.95 68.16 3.95 68.16 5.27"/><path class="cls-1" d="M68.15,65.08h-.88V63.32h.88Zm0-3.52h-.88V59.8h.88Zm0-3.52h-.88V56.28h.88Zm0-3.52h-.88V52.76h.88Zm0-3.52h-.88V49.24h.88Zm0-3.52h-.88V45.73h.88Zm0-3.51h-.88V42.21h.88Zm0-3.52h-.88V38.69h.88Zm0-3.52h-.88V35.17h.88Zm0-3.52h-.88V31.65h.88Zm0-3.52h-.88V28.13h.88Zm0-3.51h-.88V24.62h.88Zm0-3.52h-.88V21.1h.88Zm0-3.52h-.88V17.58h.88Zm0-3.52h-.88V14.06h.88Zm0-3.52h-.88V10.54h.88Zm0-3.52h-.88V7h.88Z"/><rect class="cls-2" x="0.44" y="63.77" width="7.89" height="7.89"/><path class="cls-1" d="M8.77,72.1H0V63.33H8.77ZM.88,71.22h7v-7h-7Z"/><rect class="cls-2" x="0.47" y="32.1" width="7.89" height="7.89"/><path class="cls-1" d="M8.77,40.44H0V31.66H8.77ZM.88,39.56h7v-7h-7Z"/><rect class="cls-2" x="0.47" y="0.44" width="7.89" height="7.89"/><path class="cls-1" d="M8.77,8.77H0V0H8.77ZM.88,7.89h7v-7h-7Z"/><rect class="cls-2" x="63.8" y="63.77" width="7.89" height="7.89"/><path class="cls-1" d="M72.1,72.1H63.33V63.33H72.1Zm-7.89-.88h7v-7h-7Z"/><rect class="cls-2" x="63.8" y="32.1" width="7.89" height="7.89"/><path class="cls-1" d="M72.1,40.44H63.33V31.66H72.1Zm-7.89-.88h7v-7h-7Z"/><rect class="cls-2" x="63.8" y="0.44" width="7.89" height="7.89"/><path class="cls-1" d="M72.1,8.77H63.33V0H72.1Zm-7.89-.88h7v-7h-7Z"/><rect class="cls-2" x="32.14" y="0.44" width="7.89" height="7.89"/><path class="cls-1" d="M40.44,8.77H31.66V0h8.78Zm-7.89-.88h7v-7h-7Z"/><rect class="cls-2" x="32.1" y="63.77" width="7.89" height="7.89"/><path class="cls-1" d="M40.44,72.1H31.66V63.33h8.78Zm-7.89-.88h7v-7h-7Z"/></g></g></svg>