<?xml version="1.0" encoding="iso-8859-1"?>
<!-- Generator: Adobe Illustrator 25.4.1, SVG Export Plug-In . SVG Version: 6.00 Build 0)  -->
<svg version="1.1" xmlns="http://www.w3.org/2000/svg" xmlns:xlink="http://www.w3.org/1999/xlink" x="0px" y="0px"
	 viewBox="0 0 166.618 166.859" style="enable-background:new 0 0 166.618 166.859;" xml:space="preserve">
<g id="bg_x5F_triangle">
	<g>
		<path style="fill:#DBDBDB;" d="M0,0v166.857h166.618L0,0z M30.555,75.605l60.752,60.752H30.642L30.555,75.605z"/>
		<path style="fill:#EBEBEB;" d="M0.003,0.004v166.856h166.613L5.873,5.886l-0.74-0.74L0.003,0.004z M30.552,75.609l60.752,60.753
			H30.641L30.552,75.609z"/>
		<g>
			<rect x="0.003" y="7.047" style="fill:#FFFFFF;" width="5.727" height="0.797"/>
			<rect x="0.003" y="10.757" style="fill:#FFFFFF;" width="3.374" height="0.797"/>
			<rect x="0.003" y="14.455" style="fill:#FFFFFF;" width="3.374" height="0.797"/>
			<rect x="0.003" y="18.166" style="fill:#FFFFFF;" width="3.374" height="0.797"/>
			<rect x="0.003" y="21.876" style="fill:#FFFFFF;" width="3.374" height="0.797"/>
			<rect x="0.003" y="25.574" style="fill:#FFFFFF;" width="3.374" height="0.809"/>
			<rect x="0.003" y="29.284" style="fill:#FFFFFF;" width="3.374" height="0.797"/>
			<rect x="0.003" y="32.994" style="fill:#FFFFFF;" width="5.727" height="0.797"/>
			<rect x="0.003" y="36.704" style="fill:#FFFFFF;" width="3.374" height="0.797"/>
			<rect x="0.003" y="40.402" style="fill:#FFFFFF;" width="3.374" height="0.797"/>
			<rect x="0.003" y="44.113" style="fill:#FFFFFF;" width="3.374" height="0.797"/>
			<rect x="0.003" y="47.823" style="fill:#FFFFFF;" width="3.374" height="0.797"/>
			<rect x="0.003" y="51.521" style="fill:#FFFFFF;" width="3.374" height="0.797"/>
			<rect x="0.003" y="55.231" style="fill:#FFFFFF;" width="3.374" height="0.797"/>
			<rect x="0.003" y="58.941" style="fill:#FFFFFF;" width="5.727" height="0.797"/>
			<rect x="0.003" y="62.639" style="fill:#FFFFFF;" width="3.374" height="0.797"/>
			<rect x="0.003" y="66.349" style="fill:#FFFFFF;" width="3.374" height="0.797"/>
			<rect x="0.003" y="70.059" style="fill:#FFFFFF;" width="3.374" height="0.797"/>
			<rect x="0.003" y="73.757" style="fill:#FFFFFF;" width="3.374" height="0.809"/>
			<rect x="0.003" y="77.467" style="fill:#FFFFFF;" width="3.374" height="0.797"/>
			<rect x="0.003" y="81.178" style="fill:#FFFFFF;" width="3.374" height="0.797"/>
			<rect x="0.003" y="84.888" style="fill:#FFFFFF;" width="5.727" height="0.797"/>
			<rect x="0.003" y="88.586" style="fill:#FFFFFF;" width="3.374" height="0.797"/>
			<rect x="0.003" y="92.296" style="fill:#FFFFFF;" width="3.374" height="0.797"/>
			<rect x="0.003" y="96.006" style="fill:#FFFFFF;" width="3.374" height="0.797"/>
			<rect x="0.003" y="99.704" style="fill:#FFFFFF;" width="3.374" height="0.797"/>
			<rect x="0.003" y="103.415" style="fill:#FFFFFF;" width="3.374" height="0.797"/>
			<rect x="0.003" y="107.125" style="fill:#FFFFFF;" width="3.374" height="0.797"/>
			<rect x="0.003" y="110.822" style="fill:#FFFFFF;" width="5.727" height="0.809"/>
			<rect x="0.003" y="114.533" style="fill:#FFFFFF;" width="3.374" height="0.797"/>
			<rect x="0.003" y="118.243" style="fill:#FFFFFF;" width="3.374" height="0.797"/>
			<rect x="0.003" y="121.953" style="fill:#FFFFFF;" width="3.374" height="0.797"/>
			<rect x="0.003" y="125.651" style="fill:#FFFFFF;" width="3.374" height="0.797"/>
			<rect x="0.003" y="129.361" style="fill:#FFFFFF;" width="3.374" height="0.797"/>
			<rect x="0.003" y="133.072" style="fill:#FFFFFF;" width="3.374" height="0.797"/>
			<rect x="0.003" y="136.769" style="fill:#FFFFFF;" width="5.727" height="0.797"/>
			<rect x="0.003" y="140.48" style="fill:#FFFFFF;" width="3.374" height="0.797"/>
			<rect x="0.003" y="144.19" style="fill:#FFFFFF;" width="3.374" height="0.797"/>
			<rect x="0.003" y="147.888" style="fill:#FFFFFF;" width="3.374" height="0.797"/>
			<rect x="0.003" y="151.598" style="fill:#FFFFFF;" width="3.374" height="0.797"/>
			<rect x="0.003" y="155.308" style="fill:#FFFFFF;" width="3.374" height="0.797"/>
			<rect x="0.003" y="159.006" style="fill:#FFFFFF;" width="3.374" height="0.809"/>
		</g>
	</g>
</g>
<g id="Layer_1">
</g>
</svg>
