<?xml version="1.0" encoding="iso-8859-1"?>
<!-- Generator: Adobe Illustrator 25.4.1, SVG Export Plug-In . SVG Version: 6.00 Build 0)  -->
<svg version="1.1" xmlns="http://www.w3.org/2000/svg" xmlns:xlink="http://www.w3.org/1999/xlink" x="0px" y="0px"
	 viewBox="0 0 18.258 69.483" style="enable-background:new 0 0 18.258 69.483;" xml:space="preserve">
<g id="brush_x5F_1">
	<g>
		<path style="fill:#FFC727;" d="M4.548,10.689c0,0,3.234,10.785,7.076,21.803c3.841,11.018,7.254,36.322,6.539,36.978
			c-0.715,0.656-9.243-23.949-11.704-35.19S2.233,11.506,2.233,11.506L4.548,10.689z"/>
		<polygon style="fill:#DBDBDB;" points="4.603,10.417 7.169,17.743 3.088,18.735 1.859,11.187 		"/>
		<g>
			<path style="fill:#455A64;" d="M4.603,10.417c0.439-1.552,0.506-3.396-0.969-5.505C1.853,2.364,2.372,0.386,2.372,0.386
				s-4.59,5.882-0.513,10.802L4.603,10.417z"/>
			<path style="fill:#FFC727;" d="M2.414,0.091C2.646,0.463,2.172,2.313,3.031,3.76c0.81,1.363-3.356,3.609-3.011,1.434
				C0.413,2.723,1.988-0.593,2.414,0.091z"/>
		</g>
	</g>
</g>
<g id="Layer_1">
</g>
</svg>
