<?xml version="1.0" encoding="iso-8859-1"?>
<!-- Generator: Adobe Illustrator 25.4.1, SVG Export Plug-In . SVG Version: 6.00 Build 0)  -->
<svg version="1.1" xmlns="http://www.w3.org/2000/svg" xmlns:xlink="http://www.w3.org/1999/xlink" x="0px" y="0px"
	 viewBox="0 0 9.76 56.369" style="enable-background:new 0 0 9.76 56.369;" xml:space="preserve">
<g id="brush_x5F_2">
	<g>
		<path style="fill:#37474F;" d="M5.677,6.793c0,0,1.234,9.19,2.932,18.648c1.698,9.458,1.196,30.479,0.53,30.92
			c-0.666,0.441-4.417-20.674-4.963-30.135c-0.546-9.46-0.488-19.07-0.488-19.07L5.677,6.793z"/>
		<polygon style="fill:#DBDBDB;" points="5.757,6.579 6.895,12.87 3.448,13.148 3.425,6.851 		"/>
		<path style="fill:#455A64;" d="M3.425,6.851c0,0,2.208-0.221,2.331-0.271C5.88,6.529,7.532,0.197,7.394,0.02
			C7.256-0.157-0.039,0.866,0,1.554C0.039,2.242,3.425,6.851,3.425,6.851z"/>
	</g>
</g>
<g id="Layer_1">
</g>
</svg>
