<?xml version="1.0" encoding="iso-8859-1"?>
<!-- Generator: Adobe Illustrator 25.4.1, SVG Export Plug-In . SVG Version: 6.00 Build 0)  -->
<svg version="1.1" xmlns="http://www.w3.org/2000/svg" xmlns:xlink="http://www.w3.org/1999/xlink" x="0px" y="0px"
	 viewBox="0 0 84.169 140.523" style="enable-background:new 0 0 84.169 140.523;" xml:space="preserve">
<g id="bulb_x5F_bottom_x5F_right_x5F_part">
	<path style="opacity:0.3;fill:#FFFFFF;" d="M84.169,41.398c-9.947,46.195-41.469,56.169-47.111,70.138
		c-3.248,8.178-7.561,28.978-7.561,28.978L0,140.523l0.009-15.272l0.009-12.095c0.079-2.007-0.255-4.076,0.537-5.898
		c0.731-1.831,2.227-3.327,4.058-4.067c1.813-0.739,3.935-0.713,5.722,0.114c0.898,0.405,1.708,0.995,2.385,1.699
		c0.334,0.352,0.651,0.748,0.995,1.136c0.352,0.37,0.704,0.731,1.083,1.074c3.019,2.755,7.13,4.287,11.214,4.111
		c4.093-0.106,8.098-1.884,10.933-4.833c2.861-2.922,4.516-6.98,4.507-11.074c0.009-4.093-1.646-8.16-4.507-11.082
		c-2.834-2.94-6.84-4.718-10.933-4.815c-4.084-0.185-8.195,1.347-11.214,4.102c-0.379,0.334-0.731,0.704-1.083,1.074
		c-0.334,0.387-0.651,0.783-0.986,1.136c-0.687,0.713-1.496,1.294-2.394,1.699c-1.787,0.836-3.908,0.854-5.722,0.114
		c-1.831-0.731-3.327-2.236-4.058-4.067c-0.792-1.822-0.467-3.891-0.537-5.898L0.009,65.587L0,41.565v-0.167h39.277
		c2.077,0,3.961-0.845,5.326-2.209c1.364-1.356,2.209-3.239,2.209-5.326c0-2.333-1.118-4.48-2.922-5.95
		c-3.521-2.887-5.757-7.271-5.757-12.174C38.132,7.042,45.174,0,53.854,0s15.721,7.042,15.721,15.739
		c0,4.903-2.245,9.287-5.757,12.174c-0.898,0.731-1.637,1.637-2.139,2.65c-0.502,1.012-0.783,2.13-0.783,3.301
		c0,4.164,3.371,7.535,7.535,7.535H84.169z"/>
</g>
<g id="Layer_1">
</g>
</svg>
