<?xml version="1.0" encoding="iso-8859-1"?>
<!-- Generator: Adobe Illustrator 25.4.1, SVG Export Plug-In . SVG Version: 6.00 Build 0)  -->
<svg version="1.1" xmlns="http://www.w3.org/2000/svg" xmlns:xlink="http://www.w3.org/1999/xlink" x="0px" y="0px"
	 viewBox="0 0 168.665 207.167" style="enable-background:new 0 0 168.665 207.167;" xml:space="preserve">
<g id="bulb_x5F_separator_x5F_lines">
	<g style="opacity:0.1;">
		<path d="M168.136,107.866l-12.095-0.009c-2.007-0.079-4.076,0.255-5.898-0.537c-1.831-0.731-3.327-2.227-4.067-4.058
			c-0.739-1.813-0.713-3.935,0.114-5.722c0.405-0.898,0.995-1.708,1.699-2.385c0.352-0.334,0.748-0.651,1.136-0.995
			c0.37-0.352,0.731-0.704,1.074-1.083c2.755-3.019,4.287-7.13,4.111-11.214c-0.106-4.093-1.884-8.098-4.833-10.933
			c-2.922-2.861-6.98-4.516-11.074-4.507c-4.093-0.009-8.16,1.646-11.082,4.507c-2.94,2.834-4.718,6.84-4.815,10.933
			c-0.185,4.084,1.347,8.195,4.102,11.214c0.334,0.379,0.704,0.731,1.074,1.083c0.387,0.334,0.783,0.651,1.136,0.986
			c0.713,0.687,1.294,1.496,1.699,2.394c0.836,1.787,0.854,3.908,0.114,5.722c-0.731,1.831-2.236,3.327-4.067,4.058
			c-1.822,0.792-3.891,0.467-5.898,0.537l-12.095,0.009l-24.022,0.009h-0.334v0.334l0.018,24.022l0.009,12.095v3.019
			c-0.018,1.021,0.167,2.06,0.555,3.01c0.766,1.901,2.324,3.477,4.234,4.243c1.901,0.775,4.12,0.739,5.986-0.123
			c0.942-0.423,1.778-1.039,2.491-1.769c0.352-0.379,0.669-0.775,0.995-1.144c0.343-0.361,0.695-0.722,1.065-1.056
			c2.958-2.694,6.98-4.19,10.986-4.014c4.005,0.097,7.931,1.84,10.704,4.727c2.808,2.861,4.419,6.831,4.419,10.845
			c0.009,4.014-1.602,7.993-4.41,10.853c-2.773,2.896-6.699,4.639-10.713,4.745c-4.005,0.185-8.045-1.312-11.012-4.014
			c-0.766-0.66-1.382-1.426-2.069-2.192c-0.704-0.739-1.54-1.347-2.474-1.76c-1.857-0.863-4.058-0.88-5.942-0.114
			c-1.901,0.757-3.451,2.324-4.199,4.216c-0.387,0.942-0.555,1.972-0.555,2.984v3.019l0.009,12.095l0.009,15.272h0.123l0.009-15.272
			l0.009-12.095c0.07-1.998-0.255-4.076,0.546-5.942c0.731-1.857,2.253-3.389,4.111-4.12c1.849-0.757,3.996-0.731,5.81,0.106
			c0.915,0.414,1.734,1.012,2.421,1.725c0.66,0.748,1.312,1.549,2.077,2.209c2.993,2.729,7.077,4.252,11.135,4.076
			c4.058-0.097,8.037-1.866,10.853-4.789c2.843-2.905,4.48-6.936,4.472-11.003c0.018-4.067-1.62-8.107-4.463-11.012
			c-2.817-2.931-6.796-4.701-10.862-4.806c-4.067-0.185-8.16,1.329-11.17,4.067c-0.379,0.343-0.731,0.704-1.083,1.074
			c-0.334,0.378-0.651,0.775-0.995,1.136c-0.687,0.713-1.505,1.303-2.403,1.708c-1.805,0.836-3.944,0.863-5.774,0.114
			c-1.84-0.739-3.345-2.262-4.076-4.093c-0.801-1.849-0.458-3.926-0.537-5.924l0.009-12.095l0.018-24.022h-0.167l0.167-0.167v0.167
			l24.022,0.009l12.095,0.009h3.019c1.021,0.009,2.069-0.167,3.019-0.555c1.928-0.766,3.512-2.341,4.278-4.26
			c0.783-1.919,0.766-4.155-0.106-6.039c-0.423-0.942-1.048-1.787-1.787-2.509c-0.379-0.361-0.766-0.669-1.136-1.003
			c-0.37-0.334-0.722-0.687-1.056-1.056c-2.685-2.94-4.164-6.954-3.988-10.933c0.106-3.979,1.84-7.878,4.709-10.642
			c2.852-2.782,6.796-4.375,10.783-4.366c3.979-0.009,7.931,1.584,10.783,4.375c2.87,2.755,4.604,6.655,4.709,10.633
			c0.176,3.979-1.312,7.993-3.996,10.933c-0.326,0.37-0.687,0.722-1.047,1.056c-0.37,0.334-0.757,0.643-1.136,1.003
			c-0.739,0.722-1.364,1.567-1.787,2.518c-0.871,1.875-0.898,4.12-0.106,6.03c0.775,1.919,2.35,3.495,4.269,4.26
			c0.959,0.387,2.007,0.572,3.028,0.555h3.019l12.095-0.009h0.449c0.026-0.114,0.053-0.238,0.079-0.352H168.136z"/>
		<path d="M121.395,150.98c-2.834-2.94-6.84-4.718-10.933-4.815c-4.084-0.185-8.195,1.347-11.214,4.102
			c-0.379,0.334-0.731,0.704-1.083,1.074c-0.334,0.387-0.651,0.783-0.986,1.136c-0.687,0.713-1.496,1.294-2.394,1.699
			c-1.787,0.836-3.908,0.854-5.722,0.114c-1.831-0.731-3.327-2.236-4.058-4.067c-0.792-1.822-0.467-3.891-0.537-5.898l-0.009-12.095
			l-0.009-24.022v-0.334h-0.334l-24.022,0.018L48,107.901h-3.019c-1.021-0.018-2.06,0.167-3.01,0.555
			c-1.901,0.766-3.477,2.324-4.243,4.234c-0.775,1.901-0.739,4.12,0.123,5.986c0.423,0.942,1.039,1.778,1.769,2.491
			c0.379,0.352,0.775,0.669,1.144,0.995c0.361,0.343,0.722,0.695,1.056,1.065c2.694,2.958,4.19,6.98,4.014,10.986
			c-0.097,4.005-1.84,7.931-4.727,10.704c-2.861,2.808-6.831,4.419-10.845,4.419c-4.014,0.009-7.993-1.602-10.853-4.41
			c-2.896-2.773-4.639-6.699-4.745-10.713c-0.185-4.005,1.312-8.045,4.014-11.012c0.66-0.766,1.426-1.382,2.192-2.069
			c0.739-0.704,1.347-1.54,1.76-2.473c0.863-1.857,0.88-4.058,0.114-5.942c-0.757-1.901-2.324-3.451-4.216-4.199
			c-0.942-0.387-1.972-0.555-2.984-0.555h-3.019l-12.095,0.009H0.026c0,0.044,0.009,0.097,0.026,0.141h0.379l12.095,0.009
			c1.998,0.07,4.076-0.255,5.942,0.546c1.857,0.731,3.389,2.253,4.12,4.111c0.757,1.849,0.731,3.996-0.106,5.81
			c-0.414,0.915-1.012,1.734-1.725,2.421c-0.748,0.66-1.549,1.312-2.209,2.077c-2.729,2.993-4.252,7.077-4.076,11.135
			c0.097,4.058,1.866,8.037,4.789,10.853c2.905,2.843,6.936,4.48,11.003,4.472c4.067,0.018,8.107-1.62,11.012-4.463
			c2.931-2.817,4.701-6.796,4.806-10.862c0.185-4.067-1.329-8.16-4.067-11.17c-0.343-0.379-0.704-0.731-1.074-1.083
			c-0.379-0.334-0.775-0.651-1.136-0.995c-0.713-0.687-1.303-1.505-1.708-2.403c-0.836-1.805-0.863-3.944-0.114-5.774
			c0.739-1.84,2.262-3.345,4.093-4.076c1.849-0.801,3.926-0.458,5.924-0.537l12.095,0.009l24.022,0.018v-0.167l0.167,0.167h-0.167
			l-0.009,24.022l-0.009,12.095v3.019c-0.009,1.021,0.167,2.069,0.555,3.019c0.766,1.928,2.341,3.512,4.26,4.278
			c1.919,0.783,4.155,0.766,6.039-0.106c0.942-0.423,1.787-1.048,2.509-1.787c0.361-0.379,0.669-0.766,1.003-1.136
			c0.334-0.37,0.687-0.722,1.056-1.056c2.94-2.685,6.954-4.164,10.933-3.988c3.979,0.106,7.878,1.84,10.642,4.709
			c2.782,2.852,4.375,6.796,4.366,10.783c0.009,3.979-1.584,7.931-4.375,10.783c-2.755,2.87-6.655,4.604-10.633,4.709
			c-3.979,0.176-7.993-1.312-10.933-3.996c-0.37-0.326-0.722-0.687-1.056-1.047c-0.334-0.37-0.643-0.757-1.003-1.136
			c-0.722-0.739-1.567-1.364-2.518-1.787c-1.875-0.871-4.12-0.898-6.03-0.106c-1.919,0.775-3.495,2.35-4.26,4.269
			c-0.387,0.959-0.572,2.007-0.555,3.028v3.019l0.009,12.095l0.009,15.272h0.334l0.009-15.272l0.009-12.095
			c0.079-2.007-0.255-4.076,0.537-5.898c0.731-1.831,2.227-3.327,4.058-4.067c1.813-0.739,3.935-0.713,5.722,0.114
			c0.898,0.405,1.708,0.995,2.385,1.699c0.334,0.352,0.651,0.748,0.995,1.136c0.352,0.37,0.704,0.731,1.083,1.074
			c3.019,2.755,7.13,4.287,11.214,4.111c4.093-0.106,8.098-1.884,10.933-4.833c2.861-2.922,4.516-6.98,4.507-11.074
			C125.911,157.969,124.256,153.903,121.395,150.98z M121.157,151.218c-2.773-2.887-6.699-4.63-10.704-4.727
			c-4.005-0.176-8.028,1.32-10.986,4.014c-0.37,0.334-0.722,0.695-1.065,1.056c-0.326,0.37-0.643,0.766-0.995,1.144
			c-0.713,0.731-1.549,1.347-2.491,1.769c-1.866,0.863-4.084,0.898-5.986,0.123c-1.91-0.766-3.468-2.341-4.234-4.243
			c-0.387-0.951-0.572-1.989-0.555-3.01v-3.019l-0.009-12.095l-0.018-24.022l-0.009,24.022l-0.009,12.095v3.019
			c-0.009,1.021,0.167,2.069,0.555,3.019c0.766,1.928,2.341,3.512,4.26,4.278c1.919,0.783,4.155,0.766,6.039-0.106
			c0.942-0.423,1.787-1.048,2.509-1.787c0.361-0.379,0.669-0.766,1.003-1.136c0.334-0.37,0.687-0.722,1.056-1.056
			c2.94-2.685,6.954-4.164,10.933-3.988c3.979,0.106,7.878,1.84,10.642,4.709c2.782,2.852,4.375,6.796,4.366,10.783
			c0.009,3.979-1.584,7.931-4.375,10.783c-2.755,2.87-6.655,4.604-10.633,4.709c-3.979,0.176-7.993-1.312-10.933-3.996
			c-0.37-0.326-0.722-0.687-1.056-1.047c-0.334-0.37-0.643-0.757-1.003-1.136c-0.722-0.739-1.567-1.364-2.518-1.787
			c-1.875-0.871-4.12-0.898-6.03-0.106c-1.919,0.775-3.495,2.35-4.26,4.269c-0.387,0.959-0.572,2.007-0.555,3.028v3.019
			l0.009,12.095l0.009,15.272h0.106l-0.009-15.272L84.205,179.8v-3.019c0-1.012,0.167-2.042,0.555-2.984
			c0.748-1.893,2.297-3.459,4.199-4.216c1.884-0.766,4.084-0.748,5.942,0.114c0.933,0.414,1.769,1.021,2.474,1.76
			c0.687,0.766,1.303,1.532,2.069,2.192c2.966,2.702,7.007,4.199,11.012,4.014c4.014-0.106,7.94-1.849,10.713-4.745
			c2.808-2.861,4.419-6.84,4.41-10.853C125.576,158.049,123.965,154.079,121.157,151.218z"/>
		<path d="M81.168,0.053h3.063V0C83.201,0,82.18,0.018,81.168,0.053z M84.433,83.853l-0.009-12.095v-3.019
			c0.018-1.021-0.167-2.06-0.555-3.01c-0.766-1.901-2.324-3.477-4.234-4.243c-1.901-0.775-4.12-0.739-5.986,0.123
			c-0.942,0.423-1.778,1.039-2.491,1.769c-0.352,0.379-0.669,0.775-0.995,1.144c-0.343,0.361-0.695,0.722-1.065,1.056
			c-2.958,2.694-6.98,4.19-10.986,4.014c-4.005-0.097-7.931-1.84-10.704-4.727c-2.808-2.861-4.419-6.831-4.419-10.845
			c-0.009-4.014,1.602-7.993,4.41-10.853c2.773-2.896,6.699-4.639,10.713-4.745c4.005-0.185,8.045,1.312,11.012,4.014
			c0.766,0.66,1.382,1.426,2.069,2.192c0.704,0.739,1.54,1.347,2.473,1.76c1.857,0.863,4.058,0.88,5.942,0.114
			c1.901-0.757,3.451-2.324,4.199-4.216c0.387-0.942,0.555-1.972,0.555-2.984v-3.019l-0.009-12.095L84.337,0h-0.106l0.053,0.053
			h-0.053l-0.018,24.136l-0.009,12.095c-0.07,1.998,0.255,4.076-0.546,5.942c-0.731,1.857-2.253,3.389-4.111,4.12
			c-1.849,0.757-3.996,0.731-5.81-0.106c-0.915-0.414-1.734-1.012-2.421-1.725c-0.66-0.748-1.312-1.549-2.077-2.209
			c-2.993-2.729-7.077-4.252-11.135-4.076c-4.058,0.097-8.037,1.866-10.853,4.789c-2.843,2.905-4.48,6.936-4.472,11.003
			c-0.018,4.067,1.62,8.107,4.463,11.012c2.817,2.931,6.796,4.701,10.862,4.806c4.067,0.185,8.16-1.329,11.17-4.067
			c0.379-0.343,0.731-0.704,1.083-1.074c0.334-0.379,0.651-0.775,0.995-1.136c0.687-0.713,1.505-1.303,2.403-1.708
			c1.805-0.836,3.944-0.863,5.774-0.114c1.84,0.739,3.345,2.262,4.076,4.093c0.801,1.849,0.458,3.926,0.537,5.924l-0.009,12.095
			l-0.018,24.022h0.167l-0.167,0.167v-0.167l-24.022-0.009L48,107.857h-3.019c-1.021-0.009-2.069,0.167-3.019,0.555
			c-1.928,0.766-3.512,2.341-4.278,4.26c-0.783,1.919-0.766,4.155,0.106,6.039c0.423,0.942,1.047,1.787,1.787,2.509
			c0.379,0.361,0.766,0.669,1.136,1.003c0.37,0.334,0.722,0.687,1.056,1.056c2.685,2.94,4.164,6.954,3.988,10.933
			c-0.106,3.979-1.84,7.878-4.709,10.642c-2.852,2.782-6.796,4.375-10.783,4.366c-3.979,0.009-7.931-1.584-10.783-4.375
			c-2.87-2.755-4.604-6.655-4.709-10.633c-0.176-3.979,1.312-7.993,3.996-10.933c0.326-0.37,0.687-0.722,1.047-1.056
			c0.37-0.334,0.757-0.643,1.136-1.003c0.739-0.722,1.364-1.567,1.787-2.518c0.871-1.875,0.898-4.12,0.106-6.03
			c-0.775-1.919-2.35-3.495-4.269-4.26c-0.959-0.387-2.007-0.572-3.028-0.555h-3.019l-12.095,0.009H0
			c0,0.035,0.009,0.07,0.026,0.106c0,0.044,0.009,0.097,0.026,0.141c0,0.035,0.009,0.07,0.026,0.106h0.352l12.095,0.009
			c2.007,0.079,4.076-0.255,5.898,0.537c1.831,0.731,3.327,2.227,4.067,4.058c0.739,1.813,0.713,3.935-0.114,5.722
			c-0.405,0.898-0.995,1.708-1.699,2.385c-0.352,0.334-0.748,0.651-1.136,0.995c-0.37,0.352-0.731,0.704-1.074,1.083
			c-2.755,3.019-4.287,7.13-4.111,11.214c0.106,4.093,1.884,8.098,4.833,10.933c2.922,2.861,6.98,4.516,11.074,4.507
			c4.093,0.009,8.16-1.646,11.082-4.507c2.94-2.834,4.718-6.84,4.815-10.933c0.185-4.084-1.347-8.195-4.102-11.214
			c-0.334-0.379-0.704-0.731-1.074-1.083c-0.387-0.334-0.783-0.651-1.136-0.986c-0.713-0.687-1.294-1.496-1.699-2.394
			c-0.836-1.787-0.854-3.908-0.114-5.722c0.731-1.831,2.236-3.327,4.067-4.058c1.822-0.792,3.891-0.467,5.898-0.537l12.095-0.009
			l24.022-0.009h0.334v-0.334L84.433,83.853z M60.095,107.866L48,107.857h-3.019c-1.021-0.009-2.069,0.167-3.019,0.555
			c-1.928,0.766-3.512,2.341-4.278,4.26c-0.783,1.919-0.766,4.155,0.106,6.039c0.423,0.942,1.047,1.787,1.787,2.509
			c0.379,0.361,0.766,0.669,1.136,1.003c0.37,0.334,0.722,0.687,1.056,1.056c2.685,2.94,4.164,6.954,3.988,10.933
			c-0.106,3.979-1.84,7.878-4.709,10.642c-2.852,2.782-6.796,4.375-10.783,4.366c-3.979,0.009-7.931-1.584-10.783-4.375
			c-2.87-2.755-4.604-6.655-4.709-10.633c-0.176-3.979,1.312-7.993,3.996-10.933c0.326-0.37,0.687-0.722,1.047-1.056
			c0.37-0.334,0.757-0.643,1.136-1.003c0.739-0.722,1.364-1.567,1.787-2.518c0.871-1.875,0.898-4.12,0.106-6.03
			c-0.775-1.919-2.35-3.495-4.269-4.26c-0.959-0.387-2.007-0.572-3.028-0.555h-3.019l-12.095,0.009H0
			c0,0.035,0.009,0.07,0.026,0.106h0.405l12.095-0.009h3.019c1.012,0,2.042,0.167,2.984,0.555c1.893,0.748,3.459,2.297,4.216,4.199
			c0.766,1.884,0.748,4.084-0.114,5.942c-0.414,0.933-1.021,1.769-1.76,2.473c-0.766,0.687-1.532,1.303-2.192,2.069
			c-2.702,2.966-4.199,7.007-4.014,11.012c0.106,4.014,1.849,7.94,4.745,10.713c2.861,2.808,6.84,4.419,10.853,4.41
			c4.014,0,7.984-1.611,10.845-4.419c2.887-2.773,4.63-6.699,4.727-10.704c0.176-4.005-1.32-8.028-4.014-10.986
			c-0.334-0.37-0.695-0.722-1.056-1.065c-0.37-0.326-0.766-0.643-1.144-0.995c-0.731-0.713-1.347-1.549-1.769-2.491
			c-0.863-1.866-0.898-4.084-0.123-5.986c0.766-1.91,2.341-3.468,4.243-4.234c0.951-0.387,1.989-0.572,3.01-0.555H48l12.095-0.009
			l24.022-0.018L60.095,107.866z"/>
	</g>
</g>
<g id="Layer_1">
</g>
</svg>
