<?xml version="1.0" encoding="iso-8859-1"?>
<!-- Generator: Adobe Illustrator 25.4.1, SVG Export Plug-In . SVG Version: 6.00 Build 0)  -->
<svg version="1.1" xmlns="http://www.w3.org/2000/svg" xmlns:xlink="http://www.w3.org/1999/xlink" x="0px" y="0px"
	 viewBox="0 0 171 207.175" style="enable-background:new 0 0 171 207.175;" xml:space="preserve">
<g id="bulb_x5F_base_x5F_layer">
	<path style="fill:#FFC727;" d="M171,108.042c-9.947,46.195-41.469,56.169-47.111,70.138c-3.248,8.178-7.561,28.978-7.561,28.978
		l-59.197,0.018c0,0-4.287-20.791-7.579-28.969c-6.065-15.114-42.507-25.518-49.109-82.171C-3.932,58.809,24.034,0.026,86.664,0
		v39.444c0,2.077-0.845,3.961-2.209,5.326c-1.364,1.364-3.257,2.209-5.334,2.209c-2.324,0-4.472-1.118-5.95-2.922
		c-2.878-3.512-7.271-5.757-12.165-5.757c-8.697,0-15.739,7.042-15.739,15.721c0,8.688,7.042,15.721,15.739,15.721
		c4.894,0,9.287-2.236,12.165-5.757c0.739-0.898,1.646-1.637,2.658-2.139c1.012-0.502,2.13-0.783,3.292-0.783
		c4.164,0,7.544,3.371,7.544,7.535v39.444h39.444c2.077,0,3.961-0.845,5.326-2.209c1.364-1.356,2.209-3.239,2.209-5.326
		c0-2.333-1.118-4.48-2.922-5.95c-3.521-2.887-5.757-7.271-5.757-12.174c0-8.697,7.042-15.739,15.721-15.739
		c8.679,0,15.721,7.042,15.721,15.739c0,4.903-2.245,9.287-5.757,12.174c-0.898,0.731-1.637,1.637-2.139,2.65
		c-0.502,1.012-0.783,2.13-0.783,3.301c0,4.164,3.371,7.535,7.535,7.535H171z"/>
</g>
<g id="Layer_1">
</g>
</svg>
