<?xml version="1.0" encoding="iso-8859-1"?>
<!-- Generator: Adobe Illustrator 25.4.1, SVG Export Plug-In . SVG Version: 6.00 Build 0)  -->
<svg version="1.1" xmlns="http://www.w3.org/2000/svg" xmlns:xlink="http://www.w3.org/1999/xlink" x="0px" y="0px"
	 viewBox="0 0 239.696 181.009" style="enable-background:new 0 0 239.696 181.009;" xml:space="preserve">
<g id="bulb_x5F_sparkles">
	<g>
		<g>
			<path style="fill:#A6A6A6;" d="M118.818,21.481c-0.447-1.782-0.697-3.569-0.877-5.356c-0.18-1.787-0.291-3.576-0.322-5.366
				c-0.039-1.79,0.008-3.582,0.119-5.374c0.113-1.793,0.297-3.587,0.68-5.385c0.45,1.782,0.7,3.568,0.88,5.356
				c0.178,1.787,0.291,3.576,0.319,5.366c0.035,1.79-0.009,3.582-0.122,5.375C119.381,17.89,119.198,19.684,118.818,21.481z"/>
		</g>
		<g>
			<path style="fill:#A6A6A6;" d="M69.773,35.175c-1.278-1.32-2.388-2.742-3.438-4.2c-1.049-1.458-2.04-2.952-2.962-4.486
				c-0.928-1.531-1.784-3.106-2.584-4.714c-0.798-1.609-1.536-3.255-2.103-5.004c1.28,1.319,2.391,2.74,3.44,4.198
				c1.048,1.459,2.04,2.951,2.96,4.488c0.925,1.533,1.783,3.107,2.581,4.716C68.465,31.783,69.203,33.428,69.773,35.175z"/>
		</g>
		<g>
			<path style="fill:#A6A6A6;" d="M34.145,71.557c-1.767-0.504-3.439-1.181-5.077-1.918c-1.638-0.738-3.242-1.537-4.808-2.404
				c-1.569-0.862-3.098-1.798-4.595-2.791c-1.496-0.994-2.958-2.051-4.323-3.282c1.768,0.502,3.44,1.178,5.078,1.916
				c1.637,0.739,3.242,1.536,4.807,2.407c1.568,0.865,3.097,1.799,4.593,2.793C31.316,69.273,32.778,70.328,34.145,71.557z"/>
		</g>
		<g>
			<path style="fill:#A6A6A6;" d="M21.482,120.878c-1.782,0.447-3.569,0.697-5.356,0.877c-1.787,0.18-3.576,0.29-5.366,0.322
				c-1.79,0.039-3.582-0.008-5.375-0.119c-1.793-0.113-3.587-0.297-5.385-0.68c1.782-0.449,3.569-0.7,5.356-0.88
				c1.787-0.178,3.576-0.291,5.366-0.319c1.79-0.035,3.582,0.009,5.375,0.122C17.89,120.314,19.684,120.497,21.482,120.878z"/>
		</g>
		<g>
			<path style="fill:#A6A6A6;" d="M35.176,169.923c-1.32,1.278-2.742,2.388-4.2,3.438c-1.458,1.049-2.952,2.04-4.486,2.962
				c-1.531,0.928-3.106,1.784-4.714,2.584c-1.609,0.798-3.255,1.536-5.004,2.103c1.319-1.28,2.74-2.391,4.198-3.44
				c1.459-1.048,2.951-2.04,4.488-2.96c1.533-0.925,3.107-1.783,4.716-2.581C31.783,171.23,33.428,170.492,35.176,169.923z"/>
		</g>
		<g>
			<path style="fill:#A6A6A6;" d="M205.55,168.139c1.767,0.504,3.439,1.181,5.077,1.918c1.638,0.738,3.242,1.537,4.808,2.404
				c1.569,0.862,3.098,1.798,4.595,2.791c1.496,0.994,2.958,2.051,4.323,3.282c-1.768-0.502-3.441-1.178-5.078-1.916
				c-1.637-0.739-3.243-1.536-4.807-2.407c-1.568-0.865-3.097-1.799-4.593-2.793C208.379,170.423,206.917,169.367,205.55,168.139z"
				/>
		</g>
		<g>
			<path style="fill:#A6A6A6;" d="M218.214,118.817c1.782-0.447,3.569-0.697,5.356-0.877c1.787-0.18,3.576-0.29,5.366-0.322
				c1.79-0.039,3.582,0.008,5.375,0.12c1.793,0.113,3.587,0.297,5.385,0.68c-1.782,0.449-3.569,0.7-5.356,0.88
				c-1.787,0.178-3.576,0.291-5.366,0.319c-1.79,0.035-3.582-0.01-5.375-0.123C221.806,119.381,220.012,119.198,218.214,118.817z"/>
		</g>
		<g>
			<path style="fill:#A6A6A6;" d="M204.521,69.772c1.32-1.278,2.742-2.388,4.2-3.438c1.458-1.049,2.952-2.04,4.486-2.962
				c1.531-0.928,3.106-1.784,4.714-2.584c1.609-0.798,3.255-1.536,5.004-2.103c-1.319,1.28-2.74,2.391-4.198,3.44
				c-1.459,1.048-2.951,2.04-4.488,2.96c-1.533,0.925-3.107,1.783-4.716,2.581C207.913,68.465,206.268,69.203,204.521,69.772z"/>
		</g>
		<g>
			<path style="fill:#A6A6A6;" d="M168.139,34.145c0.504-1.767,1.181-3.439,1.918-5.077c0.738-1.638,1.537-3.242,2.404-4.808
				c0.862-1.569,1.798-3.098,2.791-4.595c0.994-1.496,2.051-2.958,3.282-4.323c-0.502,1.768-1.178,3.441-1.916,5.078
				c-0.739,1.637-1.536,3.243-2.407,4.807c-0.865,1.568-1.799,3.097-2.793,4.593C170.423,31.316,169.367,32.778,168.139,34.145z"/>
		</g>
	</g>
</g>
<g id="Layer_1">
</g>
</svg>
