<?xml version="1.0" encoding="iso-8859-1"?>
<!-- Generator: Adobe Illustrator 25.4.1, SVG Export Plug-In . SVG Version: 6.00 Build 0)  -->
<svg version="1.1" xmlns="http://www.w3.org/2000/svg" xmlns:xlink="http://www.w3.org/1999/xlink" x="0px" y="0px"
	 viewBox="0 0 73.48 41.829" style="enable-background:new 0 0 73.48 41.829;" xml:space="preserve">
<g id="char_x5F_3_x5F_hand_x5F_z_x5F_l">
	<g>
		<g>
			<path style="fill:#C95F50;" d="M71.745,10.225c-6.167,14.979-16.252,29.99-19.729,31.397c-4.77,1.93-27.545-10.171-33.352-12.644
				c-2.348-1,9.229-18.645,11.524-17.17c5.703,3.667,17.699,9.29,17.977,9.471C48.74,21.654,61.926,9.152,65.641,5.25
				C73.901-3.427,74.807,2.785,71.745,10.225z"/>
			<g>
				<g>
					<path style="fill:#C95F50;" d="M34.469,15.433c0,0-3.453-4.605-5.416-6.293c-1.963-1.688-11.595-5.287-12.49-3.251
						c-1.156,2.629,3.995,5.802,6.721,7.026c0,0-2.68,6.079,0.524,9.156C27.012,25.149,34.469,15.433,34.469,15.433z"/>
				</g>
				<path style="fill:#C95F50;" d="M20.466,29.786c-2.045-0.832-11.078-5.472-13.303-7.325c-2.225-1.854-8.241-7.651-6.995-9.499
					c1.247-1.848,3.144-0.291,3.144-0.291S1.159,9.819,2.583,8.073c1.424-1.746,4.296,0.773,4.296,0.773S4.882,5.757,6.427,4.117
					c1.545-1.64,4.008,1.376,4.008,1.376s-1.958-2.739-0.116-3.554c2.215-0.981,5.254,4.476,7.864,6.338
					c0.593,0.423,12.623,7.715,12.623,7.715L20.466,29.786z"/>
				<g>
					<path style="fill:#263238;" d="M10.219,5.239c2.244,4.008,3.919,5.373,7.894,7.53c0.078,0.042,0.032,0.167-0.053,0.131
						c-4.084-1.758-6.432-3.167-8.041-7.562C9.94,5.123,10.112,5.049,10.219,5.239z"/>
					<path style="fill:#263238;" d="M6.706,8.524c2.694,3.959,4.499,5.456,8.495,8.021c0.057,0.036,0.001,0.136-0.059,0.104
						c-4.131-2.188-6.441-3.648-8.614-7.957C6.43,8.497,6.583,8.343,6.706,8.524z"/>
					<path style="fill:#263238;" d="M3.519,12.794c2.886,3.644,4.793,5.371,8.992,7.363c0.099,0.047,0.04,0.196-0.064,0.158
						c-4.48-1.615-6.875-3.752-9.029-7.422C3.271,12.643,3.338,12.564,3.519,12.794z"/>
				</g>
				<path style="fill:#263238;" d="M16.481,6.716c0.675,3.158,4.357,4.534,6.913,5.919c0.194,0.105,0.178,0.299,0.068,0.432
					c-0.953,2.623-1.534,6.6,0.163,9.008c0.05,0.07-0.044,0.151-0.103,0.087c-2.171-2.335-1.919-6.289-0.691-9.095
					c-2.643-1.38-6.275-2.922-6.381-6.345C16.45,6.702,16.477,6.696,16.481,6.716z"/>
			</g>
		</g>
		<g>
			<path style="fill:#00233A;" d="M65.644,27.718L55.467,12.571c0,0,4.069-4.579,10.082-9.76c6.013-5.181,9.615-3.398,7.142,7.012
				C70.218,20.232,65.644,27.718,65.644,27.718z"/>
			<path style="fill:#263238;" d="M57.68,11.081c0.882,1.036,1.614,2.213,2.405,3.317c0.755,1.055,1.512,2.112,2.232,3.192
				c1.497,2.242,2.942,4.508,4.342,6.81c0.024,0.04-0.04,0.087-0.068,0.048c-1.558-2.162-3.084-4.341-4.585-6.544
				c-0.746-1.095-1.464-2.209-2.18-3.323c-0.736-1.145-1.566-2.254-2.215-3.452C57.591,11.088,57.649,11.045,57.68,11.081z"/>
		</g>
	</g>
</g>
<g id="Layer_1">
</g>
</svg>
