<?xml version="1.0" encoding="iso-8859-1"?>
<!-- Generator: Adobe Illustrator 25.4.1, SVG Export Plug-In . SVG Version: 6.00 Build 0)  -->
<svg version="1.1" xmlns="http://www.w3.org/2000/svg" xmlns:xlink="http://www.w3.org/1999/xlink" x="0px" y="0px"
	 viewBox="0 0 80.542 94.433" style="enable-background:new 0 0 80.542 94.433;" xml:space="preserve">
<g id="char_x5F_4_x5F_hand_x5F_z_x5F_h">
	<g>
		<g>
			<path style="fill:#F7A9A0;" d="M78.82,61.615c-2.941,6.321-16.474,30.366-25.636,31.332c-11.099,1.17-25.218-1.304-31.377-4.301
				c-3.452-1.68,5.511-18.561,8.799-17.441c5.188,1.767,15.288,2.64,17.293,2.786c2.005,0.146,16.022-10.495,23.83-16.326
				C78.762,52.411,80.552,57.891,78.82,61.615z"/>
			<g>
				<path style="fill:#F7A9A0;" d="M19.591,70.9c1.224-0.049,1.206-0.691-0.557-1.967c-1.781-1.295-9.826-4.83-8.348-7.538
					c1.478-2.72,12.78,2.471,15.553,4.82c2.78,2.344,6.437,7.123,6.437,7.123C30.274,72.771,24.318,71.952,19.591,70.9z"/>
				<path style="fill:#F7A9A0;" d="M26.911,90.437c-6.895-1.719-15.491-3.71-20.957-9.341c-1.072-1.105-1.135-2.277-1.135-2.277
					c-2.494-2.48-2.072-4.403-2.072-4.403c-1.616-3.022-0.914-4.929-0.914-4.929s-2.897-2.944-1.408-4.99
					c1.663-2.3,5.406,2.285,9.006,3.547c8.249,2.892,20.783,4.697,23.245,5.295L26.911,90.437z"/>
				<g>
					<path style="fill:#263238;" d="M15.945,77.15c-2.411-0.9-4.802-1.72-7.078-2.942c-2.498-1.34-4.676-3.049-6.937-4.733
						c-0.071-0.053-0.151,0.04-0.089,0.103c3.611,3.697,9.034,6.553,14.066,7.681C16.028,77.288,16.067,77.195,15.945,77.15z"/>
					<path style="fill:#263238;" d="M14.923,82.383c-2.297-1.006-6.323-2.799-12.12-8.03c-0.019-0.017-0.054,0.01-0.036,0.031
						c3.312,3.897,7.308,6.47,12.108,8.107C15.024,82.543,15.076,82.45,14.923,82.383z"/>
					<path style="fill:#263238;" d="M14.321,85.184c-3.841-1.858-6.027-3.516-9.477-6.368C4.825,78.8,4.792,78.83,4.811,78.85
						c3.58,3.652,5.293,4.572,9.464,6.475C14.419,85.391,14.471,85.257,14.321,85.184z"/>
				</g>
			</g>
		</g>
		<g>
			<path style="fill:#063359;" d="M34.822,71.277l-7.545,20.911c0,0,19.719,4.141,27.624,1.175
				c7.905-2.966,18.35-18.516,23.295-27.601c4.945-9.085,2.343-16.715-10.384-6.588C55.084,69.301,48.941,73.196,48.048,73.378
				C47.155,73.559,34.822,71.277,34.822,71.277z"/>
			<g style="display:none;">
				<g style="display:inline;opacity:0.1;">
					<path d="M53.156,88.517c-0.797,0.359-1.393,0.818-2.306,0.761c-0.913-0.057-1.712-0.363-2.635-0.206
						c-0.79,0.135-1.18,1.261-0.584,1.83c1.899,1.815,5.296,1.918,7.188,0.021C56.005,89.731,54.702,87.82,53.156,88.517z"/>
					<path d="M57.084,81.777c-1.065,0.338-1.908,1.152-2.961,1.578c-0.945,0.382-1.956,0.745-2.939,1.013
						c-0.721,0.197-1.137,1.381-0.322,1.777c1.36,0.66,2.639,0.92,4.139,0.538c1.283-0.327,3.221-1.131,3.836-2.377
						C59.401,83.163,58.626,81.287,57.084,81.777z"/>
					<path d="M46.392,85.142c-1.006-0.03-2.091-0.082-3.004-0.554c-0.864-0.448-1.893-0.277-2.343,0.67
						c-0.458,0.964,0.078,1.823,0.96,2.239c1.578,0.745,3.335,0.855,4.939,0.138C48.167,87.089,47.67,85.18,46.392,85.142z"/>
				</g>
				<g style="display:inline;opacity:0.1;">
					<path d="M74.56,65.315c0.905,0.042,1.689-0.52,1.819-1.451c0.233-1.674-1.414-3.169-2.679-4.045
						c-1.304-0.903-2.988-1.603-4.526-0.892c-0.976,0.451-0.967,1.563-0.277,2.244c0.802,0.792,1.849,1.319,2.695,2.078
						C72.505,64.07,73.222,65.254,74.56,65.315z"/>
					<path d="M78.154,65.837c-0.466,0.863-0.985,1.778-1.548,2.738c0-0.009-0.009-0.009-0.009-0.018
						c-0.018-0.026-0.018-0.044-0.026-0.062c-0.009-0.018-0.026-0.035-0.044-0.062c-0.123-0.229-0.238-0.422-0.335-0.651
						c-0.176-0.475-0.247-0.889-0.071-1.382c0.281-0.757,1.223-0.916,1.884-0.643C78.057,65.776,78.101,65.802,78.154,65.837z"/>
					<path d="M80.326,60.194c-0.237,1.206-0.677,2.527-1.302,3.909c-0.379-0.572-0.766-1.144-1.189-1.681
						c-0.748-0.942-2.369-2.138-2.413-3.423c-0.018-0.37,0.123-0.757,0.501-0.898C77.517,57.493,79.278,59.138,80.326,60.194z"/>
				</g>
			</g>
			<g>
				<path style="fill:#263238;" d="M56.234,92.753c0.65-0.907,4.813-2.081,15.933-16.918c2.269-3.028,4.048-6.057,6.293-8.919
					c0.028-0.036,0.076,0.001,0.056,0.039c-1.081,2.067-2.296,4.068-3.577,6.025c0.098-0.084,0.196-0.168,0.293-0.253
					c0.839-0.724,1.711-1.422,2.474-2.228c0.055-0.058,0.139,0.039,0.081,0.095c-0.786,0.767-1.492,1.614-2.256,2.403
					c-0.37,0.382-0.738,0.761-1.137,1.113c-0.15,0.132-0.313,0.276-0.482,0.414C61.998,91.151,56.897,92.149,56.326,92.836
					C56.269,92.904,56.181,92.827,56.234,92.753z"/>
				<path style="fill:#263238;" d="M31.753,92.201c0.391-1.658,1.019-3.272,1.573-4.881c0.546-1.586,1.102-3.17,1.669-4.749
					c1.144-3.187,2.219-6.424,3.568-9.531c0.032-0.073,0.139-0.042,0.119,0.038c-0.832,3.311-2.012,6.551-3.144,9.769
					c-0.568,1.614-1.16,3.221-1.77,4.82c-0.588,1.539-1.139,3.124-1.896,4.589C31.835,92.325,31.737,92.269,31.753,92.201z"/>
				<path style="fill:#263238;" d="M34.761,71.068c1.962,0.199,9.758,1.727,11.72,1.921c0.916,0.09,1.716-0.065,2.52-0.519
					c0.847-0.479,14.951-10.284,16.509-11.46c0.065-0.049,0.146,0.049,0.081,0.095c-1.637,1.167-12.582,9.475-14.267,10.644
					c-0.755,0.524-1.512,1.105-2.341,1.51c-0.804,0.392-1.596,0.452-2.466,0.28c-1.852-0.365-9.085-1.732-11.62-2.198
					c-0.049-0.009-0.418,0.925-0.463,0.916c-0.069-0.014-0.043-0.007-0.102-0.021C34.295,72.226,34.671,71.059,34.761,71.068z"/>
			</g>
		</g>
	</g>
	<g>
		<g>
			<path style="fill:#F7A9A0;" d="M54.351,27.146c0.564-3.201,2.979-7.65,2.618-10.039c-0.325-2.157-2.261-2.413-2.261-2.413
				s1.99-1.786,1.306-3.901c-0.352-1.088-2.399-1.481-2.399-1.481s1.532-1.502,0.808-3.344c-0.577-1.468-2.542-1.643-2.542-1.643
				s0.799-2.125-0.269-3.433c-2.165-2.651-15.219,0.947-15.91,6.311c-0.322,2.5,2.819,1.448,2.819,1.448s-4.151,2.603-3.478,5.314
				c0.673,2.71,4.671,1.097,4.671,1.097s-4.001,2.558-3.02,5.298c1.021,2.852,4.744,0.554,4.744,0.554s-2.36,2.768-1.129,4.693
				c2.033,3.179,6.325-2.706,9.381-2.816l2.887,4.294L54.351,27.146z"/>
			<path style="fill:#F7A9A0;" d="M55.834,22.313c-0.269,3.078,4.139,5.572,4.304,8.552c0.224,4.031-5.085,1.482-7.56-3.78
				l-1.203-4.423L55.834,22.313z"/>
			<g>
				<path style="fill:#263238;" d="M51.592,4.17c0.044-0.009,0.041-0.072-0.005-0.071c-4.582,0.137-9.575,1.692-13.227,4.508
					c-0.12,0.092-0.022,0.327,0.13,0.251C42.808,6.675,46.816,5.083,51.592,4.17z"/>
				<path style="fill:#263238;" d="M53.671,9.267c0.052-0.01,0.036-0.096-0.02-0.094c-4.721,0.167-10.296,2.073-14.123,5.814
					c-0.131,0.128-0.121,0.375,0.042,0.239C42.304,12.931,49.368,10.066,53.671,9.267z"/>
				<path style="fill:#263238;" d="M41.246,21.274c3.809-3.445,8.339-5.323,13.269-6.583c0.064-0.016,0.034-0.106-0.023-0.106
					c-2.58-0.041-5.639,1.09-7.944,2.171c-2.208,1.036-3.993,2.414-5.422,4.385C41.069,21.217,41.164,21.348,41.246,21.274z"/>
			</g>
		</g>
	</g>
</g>
<g id="Layer_1">
</g>
</svg>
