<?xml version="1.0" encoding="iso-8859-1"?>
<!-- Generator: Adobe Illustrator 25.4.1, SVG Export Plug-In . SVG Version: 6.00 Build 0)  -->
<svg version="1.1" xmlns="http://www.w3.org/2000/svg" xmlns:xlink="http://www.w3.org/1999/xlink" x="0px" y="0px"
	 viewBox="0 0 120.196 254.246" style="enable-background:new 0 0 120.196 254.246;" xml:space="preserve">
<g id="char_x5F_1">
	<g>
		<g>
			<g>
				<g>
					<g>
						<path style="fill:#AD6359;" d="M18.824,158.809c0,0-16.576,31.213-16.581,31.235c-0.967,5.898-1.711,11.086-1.845,13.805
							c-0.003,0.014-0.006,0.029-0.002,0.044c-0.051,1.026-0.016,1.692,0.136,1.893c0.011,0.017,0.016,0.033,0.029,0.043
							c1.56,1.477,48.467,10.585,50.21,10.352c1.748-0.225,1.216-5.218-0.323-7.024c-1.552-1.809-17.945-13.327-17.945-13.327
							l16.281-31.246L18.824,158.809z"/>
						<path style="fill:#FFFFFF;" d="M5.332,183.815c0,0-3.084,6.207-3.088,6.229c-0.967,5.898-1.711,11.086-1.845,13.805
							c-0.003,0.014-0.006,0.029-0.002,0.044c0.008,1.023,0.055,1.706,0.136,1.893c0.011,0.017,0.016,0.033,0.029,0.043
							c1.56,1.477,48.467,10.585,50.21,10.352c1.748-0.225,1.216-5.218-0.323-7.024c-1.552-1.809-17.945-13.327-17.945-13.327
							l3.191-6.309L5.332,183.815z"/>
						<g>
							<g>
								<path style="fill:#263238;" d="M35.388,196.331c-3.051-1.042-6.957-1.119-9.679,0.767c-0.105,0.073,0,0.222,0.106,0.205
									c3.236-0.525,6.217-0.731,9.503-0.577C35.549,196.736,35.607,196.405,35.388,196.331z"/>
								<path style="fill:#263238;" d="M37.453,198.025c-3.051-1.042-6.957-1.119-9.679,0.767c-0.106,0.073,0,0.222,0.106,0.204
									c3.236-0.525,6.217-0.73,9.503-0.577C37.615,198.43,37.672,198.099,37.453,198.025z"/>
								<path style="fill:#263238;" d="M39.518,199.718c-3.051-1.042-6.957-1.119-9.679,0.767c-0.105,0.073,0,0.222,0.106,0.205
									c3.236-0.525,6.217-0.73,9.503-0.577C39.68,200.124,39.737,199.793,39.518,199.718z"/>
							</g>
							<path style="fill:#37474F;" d="M50.772,216.182c-1.745,0.234-48.648-8.873-50.212-10.354
								c-0.604-0.553,0.324-7.465,1.686-15.783c0.015-0.087,0.03-0.174,0.045-0.26l30.325,5.538l-0.111,0.511
								c0,0,16.394,11.516,17.943,13.327C51.984,210.962,52.517,215.956,50.772,216.182z"/>
							<path style="fill:#FFC727;" d="M2.288,189.779l-0.045,0.269c-1.355,8.316-2.291,15.228-1.683,15.781
								c0.708,0.671,10.827,2.927,21.796,5.169c13.126,2.676,27.466,5.316,28.418,5.19c1.744-0.234,1.206-5.226-0.326-7.031
								c-1.55-1.808-17.942-13.324-17.942-13.324l0.112-0.507l-10.113-1.849L2.288,189.779z"/>
							<path style="fill:#263238;" d="M50.595,214.261c-7.869-1.729-39.769-7.961-47.679-9.073c-0.064-0.009-0.073,0.034-0.01,0.05
								c7.762,1.884,39.712,7.858,47.664,9.153C50.738,214.418,50.761,214.297,50.595,214.261z"/>
							<path style="opacity:0.1;" d="M22.505,193.476c-0.108,5.216-0.235,12.908-0.15,17.521c13.126,2.676,27.466,5.316,28.418,5.19
								c1.744-0.234,1.206-5.226-0.326-7.031c-1.55-1.808-17.942-13.324-17.942-13.324l0.112-0.507L22.505,193.476z"/>
						</g>
					</g>
					<g>
						<path style="fill:#DBDBDB;stroke:#455A64;stroke-miterlimit:10;" d="M6.533,179.413l34.745,4.014
							c0,0,36.872-56.671,33.162-76.259c-2.041-10.776-38.685-27.702-38.685-27.702l-3.707-7.448H6.205
							c0,0-10.536,15.53-2.972,30.119c5.14,9.913,33.385,17.475,34.425,20.662C39.03,127.003,6.533,179.413,6.533,179.413z"/>
						<g>
							<g>
								<path style="fill:#263238;" d="M11.037,174.861c0.905-0.055,1.853,0.067,2.759,0.111c1.023,0.05,2.043,0.096,3.064,0.175
									c1.962,0.153,3.919,0.354,5.874,0.581c3.942,0.459,7.879,0.965,11.803,1.562c2.233,0.34,4.462,0.698,6.685,1.096
									c0.087,0.016,0.067,0.148-0.02,0.141c-3.923-0.328-7.839-0.738-11.756-1.133c-3.909-0.394-7.833-0.789-11.724-1.334
									c-1.118-0.157-2.236-0.301-3.348-0.5c-1.097-0.196-2.264-0.274-3.338-0.566C10.97,174.977,10.957,174.866,11.037,174.861z"
									/>
							</g>
							<path style="fill:#263238;" d="M38.292,174.333c3.071-4.695,19.588-34.542,22.057-39.567c1.239-2.51,2.428-5.044,3.508-7.621
								c1.082-2.574,2.1-5.181,2.857-7.855c0.737-2.65,1.418-5.443,0.854-8.08c-0.295-1.309-0.82-2.582-1.57-3.728
								c-0.331-0.598-0.781-1.125-1.18-1.683c-0.445-0.524-0.885-1.057-1.367-1.552c-3.875-3.976-8.71-6.923-13.571-9.651
								c-4.898-2.707-9.996-5.048-15.08-7.418c-1.267-0.603-2.534-1.208-3.786-1.848c-0.624-0.325-1.245-0.658-1.85-1.023
								c-0.579-0.371-1.247-0.772-1.584-1.423c-1.413-2.467-1.993-5.287-2.259-8.066c0.332,2.769,0.988,5.573,2.436,7.958
								c0.334,0.608,0.946,0.944,1.539,1.309c0.605,0.345,1.228,0.659,1.856,0.967c1.261,0.606,2.54,1.178,3.82,1.749
								c5.117,2.292,10.255,4.571,15.218,7.222c2.482,1.323,4.92,2.739,7.254,4.326c2.331,1.585,4.578,3.326,6.564,5.365
								c0.498,0.507,0.956,1.056,1.419,1.598c0.42,0.579,0.887,1.124,1.241,1.753c0.79,1.198,1.365,2.556,1.69,3.974
								c0.373,1.428,0.232,2.912,0.09,4.325c-0.132,0.7-0.228,1.411-0.392,2.102c-0.178,0.686-0.325,1.383-0.529,2.061
								c-0.785,2.723-1.825,5.348-2.927,7.937c-1.1,2.592-2.307,5.133-3.562,7.647C58.527,140.136,41.477,169.715,38.292,174.333z"
								/>
						</g>
					</g>
				</g>
			</g>
			<g>
				<g>
					<g>
						<path style="fill:#AD6359;" d="M36.99,205.082c0,0,0.264,31.251,0.263,31.273c0.019,5.977,0.142,11.216,0.459,13.921
							c-0.001,0.015-0.001,0.029,0.006,0.044c0.118,1.02,0.264,1.671,0.447,1.845c0.014,0.015,0.021,0.03,0.035,0.037
							c1.783,1.199,49.55,2.44,51.23,1.922c1.687-0.51,0.338-5.347-1.478-6.875c-1.83-1.528-19.899-10.181-19.899-10.181
							l-0.56-31.235L36.99,205.082z"/>
						<path style="fill:#FFFFFF;" d="M37.199,229.939c0,0,0.054,6.394,0.054,6.416c0.019,5.977,0.142,11.216,0.459,13.921
							c-0.001,0.015-0.001,0.029,0.006,0.044c0.177,1.008,0.336,1.674,0.447,1.845c0.014,0.015,0.021,0.03,0.035,0.037
							c1.783,1.199,49.55,2.44,51.23,1.922c1.687-0.51,0.338-5.347-1.478-6.875c-1.83-1.528-19.899-10.181-19.899-10.181
							l0.034-6.512L37.199,229.939z"/>
						<g>
							<g>
								<path style="fill:#263238;" d="M70.98,237.085c-3.181-0.524-7.046,0.045-9.419,2.354c-0.092,0.089,0.036,0.219,0.139,0.184
									c3.105-1.052,6.011-1.747,9.277-2.138C71.206,237.458,71.208,237.122,70.98,237.085z"/>
								<path style="fill:#263238;" d="M73.297,238.415c-3.181-0.524-7.046,0.045-9.419,2.354c-0.092,0.089,0.037,0.219,0.138,0.184
									c3.105-1.052,6.011-1.747,9.277-2.138C73.523,238.788,73.525,238.452,73.297,238.415z"/>
								<path style="fill:#263238;" d="M75.613,239.744c-3.181-0.524-7.046,0.045-9.419,2.354c-0.092,0.089,0.036,0.219,0.139,0.184
									c3.105-1.052,6.011-1.747,9.277-2.138C75.839,240.117,75.841,239.782,75.613,239.744z"/>
							</g>
							<path style="fill:#FFC727;" d="M89.431,254.125c-1.683,0.519-49.446-0.72-51.233-1.924
								c-0.687-0.445-0.912-7.416-0.942-15.845c0-0.088,0.001-0.176,0.002-0.264l30.823,0.456l-0.025,0.523
								c0,0,18.07,8.652,19.897,10.182C89.764,248.776,91.114,253.613,89.431,254.125z"/>
							<path style="fill:#263238;" d="M88.938,252.258c-8.046-0.407-40.538-1.287-48.522-1.078
								c-0.065,0.002-0.066,0.046-0.001,0.051c7.966,0.578,40.464,1.195,48.521,1.159C89.105,252.39,89.108,252.267,88.938,252.258z
								"/>
						</g>
					</g>
					<g>
						<path style="fill:#DBDBDB;stroke:#455A64;stroke-miterlimit:10;" d="M21.198,105.1c0.007,0.022,14.179,44.693,14.436,52.908
							c0.219,7.002-0.678,68.792-0.678,68.792l35.896,0.213c0,0-3.032-63.211-3.593-70.51
							c-1.048-13.646-13.003-51.109-21.553-84.484H7.007c0,0,0.337,17.478,8.286,30.119C15.293,102.138,18.892,103.804,21.198,105.1
							z"/>
						<g>
							<path style="fill:#263238;" d="M36.863,220.182c4.146-0.12,8.447-0.242,12.595-0.139c4.113,0.102,8.238,0.165,12.345,0.41
								c2.33,0.139,4.655,0.217,6.981,0.447c0.077,0.007,0.074,0.12-0.003,0.125c-4.144,0.241-8.305,0.193-12.454,0.155
								c-4.118-0.037-8.233-0.082-12.348-0.27c-2.33-0.107-4.655-0.225-6.982-0.386C36.745,220.507,36.612,220.19,36.863,220.182z"
								/>
							<path style="fill:#263238;" d="M44.713,93.076c1.279,4.27,2.359,8.605,3.504,12.913c1.154,4.343,2.305,8.687,3.449,13.032
								c2.213,8.407,4.399,16.829,6.058,25.366c1.669,8.591,2.681,17.244,2.869,25.997c0.192,8.897,0.006,17.809-0.055,26.707
								c-0.061,8.948-0.136,7.823-0.291,16.769c-0.019,1.113-0.043,2.225-0.084,3.337c-0.004,0.108-0.163,0.103-0.166-0.004
								c-0.238-8.898-0.111-7.744-0.082-16.645c0.029-8.902,0.147-17.808,0.071-26.71c-0.075-8.858-0.753-17.637-2.283-26.366
								c-1.501-8.566-3.611-17.009-5.799-25.421c-1.248-4.799-2.509-9.594-3.754-14.393c-1.253-4.831-2.594-9.651-3.696-14.52
								C44.417,92.973,44.664,92.913,44.713,93.076z"/>
							<path style="fill:#263238;" d="M30.075,105.963c-1.788-0.032-3.57-0.154-5.33-0.483c-1.778-0.333-3.437-0.923-5.165-1.432
								c-1.639-0.483-3.382-0.558-5.064-0.828c-1.705-0.274-3.407-0.72-4.964-1.478c-0.073-0.036-0.135,0.074-0.062,0.112
								c1.544,0.791,3.099,1.539,4.757,2.062c1.702,0.537,3.481,0.61,5.208,1.033c1.777,0.435,3.488,1.012,5.315,1.223
								c1.771,0.205,3.561,0.199,5.323-0.09C30.164,106.07,30.14,105.964,30.075,105.963z"/>
							<path style="fill:#263238;" d="M35.754,191.022l-0.06-11.008c-0.013-3.669-0.037-7.337-0.101-11.003
								c-0.085-3.664-0.11-7.337-0.364-10.976c-0.121-1.811-0.459-3.582-0.887-5.366c-0.39-1.783-0.865-3.556-1.317-5.329
								c-1.817-7.101-3.841-14.154-5.838-21.213l-6.014-21.178c1.169,3.479,2.272,6.979,3.396,10.473l3.245,10.521
								c2.128,7.026,4.146,14.083,6.032,21.185c0.442,1.784,0.904,3.561,1.286,5.365c0.415,1.785,0.755,3.633,0.866,5.486
								c0.219,3.685,0.262,7.354,0.245,11.027C36.219,176.349,36.059,183.687,35.754,191.022z"/>
							<path style="fill:#263238;" d="M64.385,141.113c-1.334-4.638-2.593-9.295-3.85-13.952l-3.712-13.984l-3.655-13.996
								c-0.601-2.335-1.228-4.662-1.866-6.986c-0.649-2.32-1.239-4.662-2.093-6.918c1.924,4.437,3.197,9.114,4.589,13.73
								c1.353,4.633,2.592,9.296,3.846,13.956c1.19,4.676,2.399,9.346,3.522,14.038C62.291,131.693,63.39,136.39,64.385,141.113z"/>
						</g>
					</g>
				</g>
			</g>
		</g>
		<g>
			<g>
				<g>
					<path style="fill:#AD6359;" d="M37.786,31.58c0.009,0.762,2.423,6.227,5.766,6.805c1.089,0.186,2.373-5.713,2.373-5.713
						l0.195-0.414l2.715-5.795l-6.144-6.184l-0.9-0.838c0,0-0.638,1.635-1.413,3.678c-0.037,0.095-0.073,0.189-0.11,0.291
						c-0.047,0.114-0.093,0.222-0.131,0.331c-0.12,0.304-0.24,0.615-0.354,0.926c-0.087,0.237-0.174,0.467-0.257,0.719
						c-0.09,0.251-0.172,0.496-0.262,0.747C38.432,28.627,37.787,31.258,37.786,31.58z"/>
					<path style="fill:#263238;" d="M40.378,23.119c0.671,5.24,4.109,8.078,5.741,9.139l2.715-5.795l-6.144-6.184l-0.9-0.838
						C41.791,19.441,41.152,21.076,40.378,23.119z"/>
				</g>
				<g>
					<path style="fill:#AD6359;" d="M59.164,16.863c1.092,11.179-5.442,13.204-7.892,13.328c-2.196,0.111-9.667,0.652-11.908-10.354
						C37.123,8.83,41.976,4.789,46.955,4.041C51.935,3.293,58.072,5.684,59.164,16.863z"/>
					<g>
						<path style="fill:#263238;" d="M58.375,14.5c-0.264-0.023-0.504-0.089-0.763-0.139c-0.292-0.057-0.531-0.072-0.751-0.291
							c-0.118-0.117-0.116-0.362-0.013-0.488c0.24-0.292,0.616-0.312,0.97-0.258c0.385,0.059,0.666,0.202,0.927,0.49
							C58.999,14.093,58.724,14.531,58.375,14.5z"/>
						<path style="fill:#263238;" d="M51.136,15.096c0.262-0.038,0.499-0.117,0.754-0.181c0.289-0.073,0.526-0.101,0.734-0.331
							c0.112-0.123,0.096-0.368-0.014-0.488c-0.256-0.279-0.631-0.278-0.983-0.205c-0.381,0.08-0.654,0.238-0.899,0.54
							C50.491,14.723,50.789,15.146,51.136,15.096z"/>
						<g>
							<g>
								<path style="fill:#263238;" d="M52.866,17.814c-0.007-0.029-0.058,0.039-0.055,0.07c0.063,0.763,0.007,1.647-0.671,1.935
									c-0.021,0.009-0.017,0.047,0.009,0.042C52.986,19.7,53.048,18.526,52.866,17.814z"/>
								<path style="fill:#263238;" d="M52.144,17.051c-1.233-0.031-1.204,2.438-0.062,2.467
									C53.206,19.545,53.177,17.077,52.144,17.051z"/>
							</g>
							<path style="fill:#263238;" d="M51.661,17.187c-0.214,0.142-0.422,0.391-0.682,0.42c-0.301,0.033-0.531-0.223-0.73-0.469
								c-0.021-0.026-0.042-0.004-0.042,0.029c-0.001,0.473,0.186,0.956,0.694,1.021c0.463,0.059,0.791-0.364,0.903-0.841
								C51.825,17.259,51.747,17.13,51.661,17.187z"/>
						</g>
						<g>
							<g>
								<path style="fill:#263238;" d="M56.972,17.34c0.006-0.029,0.06,0.036,0.059,0.067c-0.021,0.765,0.083,1.644,0.776,1.896
									c0.021,0.008,0.019,0.046-0.006,0.043C56.956,19.23,56.829,18.061,56.972,17.34z"/>
								<path style="fill:#263238;" d="M57.652,16.538c1.23-0.098,1.336,2.368,0.197,2.459
									C56.727,19.087,56.621,16.621,57.652,16.538z"/>
							</g>
							<path style="fill:#263238;" d="M58.173,16.678c0.201,0.122,0.404,0.351,0.637,0.357c0.27,0.006,0.459-0.269,0.62-0.533
								c0.017-0.027,0.037-0.007,0.039,0.025c0.033,0.471-0.101,0.969-0.55,1.079c-0.41,0.1-0.731-0.291-0.863-0.756
								C58.031,16.765,58.092,16.629,58.173,16.678z"/>
						</g>
						<path style="fill:#263238;" d="M52.923,23.718c0.177,0.185,0.351,0.438,0.628,0.47c0.265,0.031,0.581-0.078,0.828-0.165
							c0.024-0.009,0.048,0.018,0.032,0.04c-0.208,0.287-0.632,0.456-0.984,0.382c-0.344-0.072-0.505-0.377-0.578-0.696
							C52.838,23.706,52.897,23.691,52.923,23.718z"/>
						<g>
							<path style="fill:#263238;" d="M56.055,20.879c0,0,0.185,1.138,0.197,1.677c0.001,0.05-0.129,0.077-0.311,0.092
								c-0.009,0.003-0.013,0.006-0.021,0.001c-0.947,0.171-1.913-0.135-2.509-0.898c-0.038-0.052,0.029-0.109,0.078-0.077
								c0.722,0.505,1.51,0.621,2.354,0.615c0.035-0.15-0.381-1.939-0.296-1.947c0.294-0.032,0.879,0.154,1.23,0.248
								c-0.316-2.382-1.011-4.694-1.29-7.071c-0.008-0.085,0.113-0.113,0.14-0.038c0.9,2.372,1.324,5.105,1.713,7.557
								C57.391,21.344,56.273,20.966,56.055,20.879z"/>
						</g>
						<g>
							<path style="fill:#263238;" d="M55.887,22.236c0,0-0.426,0.781-1.109,1.136c-0.251,0.132-0.531,0.209-0.841,0.171
								c-0.636-0.076-0.73-0.637-0.684-1.134c0.036-0.409,0.173-0.776,0.173-0.776S54.438,22.346,55.887,22.236z"/>
							<path style="fill:#FF9BBC;" d="M54.778,23.372c-0.251,0.132-0.531,0.209-0.841,0.171c-0.636-0.076-0.73-0.637-0.684-1.134
								C53.921,22.384,54.634,22.74,54.778,23.372z"/>
						</g>
					</g>
					<path style="fill:#263238;" d="M40.114,21.244c-0.54-0.71-4.143-4.446-4.333-6.361c-0.111-1.119,1.725-4.154,1.725-4.154
						l-1.55-1.046l1.427,0.387l-2.11-3.521l2.607,2.327c0,0,0.469-2.851,0.717-3.542c0.247-0.691,4.87-4.408,4.87-4.408
						l-1.389,2.418c0,0,8.431-3.432,9.487-3.341c2.65,0.227,8.374,4.471,8.374,4.471l-6.203-0.988c0,0,5.957,2.474,7.169,3.573
						c1.212,1.099,1.91,6.471,1.91,6.471l-5.421-3.651l1.945,3.051c0,0-4.76,0.711-6.148,0.661
						c-2.935-0.106-9.672-2.549-9.672-2.549s0.158,2.575,0.045,3.377c-0.196,1.396-1.56,4.314-1.56,4.314l-0.704-2.348
						L40.114,21.244z"/>
					<g>
						<g>
							<path style="fill:#AD6359;" d="M41.614,19.89c0,0-2.93-3.117-4.378-2.024c-1.449,1.094,1.106,5.858,3.054,6.278
								c1.948,0.42,2.372-1.376,2.372-1.376L41.614,19.89z"/>
							<path style="fill:#263238;" d="M38.002,19.214c-0.03,0.002-0.03,0.044-0.003,0.051c1.372,0.337,2.229,1.44,2.888,2.616
								c-0.455-0.424-1.018-0.61-1.594-0.058c-0.03,0.029,0.01,0.077,0.045,0.064c0.514-0.191,0.911-0.154,1.331,0.219
								c0.298,0.264,0.527,0.62,0.759,0.941c0.077,0.107,0.278,0.015,0.214-0.112c-0.005-0.009-0.01-0.019-0.015-0.028
								C41.42,21.248,39.801,19.123,38.002,19.214z"/>
						</g>
					</g>
				</g>
			</g>
			<g>
				<path style="fill:#063359;" d="M46.961,64.532l-1.254,7.487H6.205c0,0,12.8-31.986,25.627-39.627
					c6.416-3.821,11.992-1.734,14.525,3.027c0.641,1.205,6.598,14.389,6.107,20.264C52.018,60.863,46.961,64.532,46.961,64.532z"/>
			</g>
			<g>
				<defs>
					<path id="SVGID_1_" d="M46.961,64.532l-1.254,7.487H6.205c0,0,12.8-31.986,25.627-39.627
						c6.416-3.821,11.992-1.734,14.525,3.027c0.641,1.205,6.598,14.389,6.107,20.264C52.018,60.863,46.961,64.532,46.961,64.532z"/>
				</defs>
				<clipPath id="SVGID_00000060721821168852449540000013561510958009986720_">
					<use xlink:href="#SVGID_1_"  style="overflow:visible;"/>
				</clipPath>
				
					<path style="opacity:0.8;clip-path:url(#SVGID_00000060721821168852449540000013561510958009986720_);fill:none;stroke:#FFFFFF;stroke-width:1.2;stroke-miterlimit:10;" d="
					M38.758,50.224c0.268,0.023,0.531,0.047,0.792,0.072c0.13,0.013,0.26,0.025,0.39,0.039c4.582,0.125,10.007,1.018,14.264,1.785
					c0.163,0.016,0.325,0.033,0.488,0.05c2.766,0.29,5.55,0.719,8.416,1.571c0.26,0.118,0.52,0.243,0.777,0.374
					s0.51,0.27,0.761,0.416c1.569,0.834-3.63,2.241-3.403,4.294c-0.036,0.29-0.048,0.587-0.056,0.885
					c-0.01,0.398-0.013,0.797-0.008,1.197c0.815,3.395-0.889,6.617,0.986,9.77c-0.31-0.026-0.618-0.053-0.923-0.079
					c-0.305-0.026-0.608-0.052-0.909-0.077c-2.649-0.482-5.38-0.731-8.171-0.896c-0.31-0.018-0.61-0.035-0.874-0.049
					c-4.916-0.622-10.34-0.634-14.915-0.973c-0.164-0.014-0.334-0.026-0.505-0.038c0.098-0.378,0.183-0.751,0.254-1.116
					c0.035-0.178,0.067-0.354,0.097-0.527c0.029-0.173,0.056-0.345,0.081-0.513c0.028-0.15,0.056-0.299,0.082-0.446
					c0.933-4.952,0.921-10.235,2.338-15.246C38.734,50.554,38.747,50.391,38.758,50.224z"/>
				
					<g id="Layer_2_00000093883432483260127680000012624848893122865286_" style="opacity:0.8;clip-path:url(#SVGID_00000060721821168852449540000013561510958009986720_);">
					<g id="Layer_1-2_00000051342742682238223830000014600710877912558979_">
						<path style="fill:#FFFFFF;" d="M55.867,63.251c0.227-0.037,0.429-0.109,0.606-0.216c0.177-0.107,0.33-0.25,0.462-0.424
							c-0.024,0.046-0.047,0.092-0.081,0.156l0.614-0.012l-0.432,0.547l0.143-0.001c0.275-0.001,0.545,0.004,0.813-0.002
							c0.099-0.003,0.147,0.033,0.163,0.129c0.007,0.032,0.016,0.062,0.027,0.092c0.065,0.224,0.095,0.489,0.482,0.343
							c-0.127,0.22-0.272,0.39-0.441,0.516c-0.168,0.126-0.359,0.206-0.574,0.247c-0.11,0.018-0.222,0.024-0.331,0.017
							c-0.36-0.015-0.726-0.028-1.103-0.042c-0.377-0.014-0.764-0.031-1.159-0.051c-0.395-0.02-0.794-0.043-1.189-0.066
							c-0.395-0.023-0.78-0.049-1.146-0.073c-0.393-0.016-0.698-0.159-0.884-0.385s-0.255-0.541-0.19-0.911
							c0.032-0.198,0.061-0.397,0.086-0.598c0.025-0.201,0.046-0.406,0.062-0.615c0.016-0.209,0.026-0.422,0.031-0.641
							c0.005-0.219,0.005-0.444,0.002-0.673c-0.015-0.401,0.089-0.722,0.376-0.929c0.028-0.027,0.047-0.066,0.053-0.111
							c0.028-0.201,0.096-0.284,0.263-0.292c0.134-0.007,0.272-0.009,0.417-0.009c0.232,0,0.282,0.039,0.384,0.306
							c0.14,0.008,0.293,0.026,0.45,0.031c0.042,0.001,0.097-0.038,0.121-0.075c0.11-0.164,0.216-0.333,0.311-0.508
							c0.105-0.196,0.274-0.274,0.494-0.258c0.353,0.021,0.701,0.037,1.039,0.046c0.337,0.008,0.663,0.011,0.98,0.012
							c0.196-0.001,0.354,0.09,0.456,0.3c0.083,0.173,0.183,0.332,0.267,0.501c0.04,0.081,0.087,0.111,0.165,0.104
							c0.238-0.02,0.468,0.011,0.682,0.139c0.207,0.121,0.371,0.278,0.484,0.47s0.174,0.419,0.173,0.683
							c-0.002,0.203-0.007,0.405-0.014,0.606c-0.008,0.201-0.018,0.4-0.031,0.599c-0.013,0.199-0.028,0.396-0.044,0.593
							c-0.016,0.197-0.033,0.393-0.05,0.588c-0.005,0.023-0.01,0.045-0.018,0.067c-0.024-0.056-0.043-0.095-0.057-0.136
							c-0.068-0.202-0.135-0.404-0.202-0.605c-0.067-0.202-0.135-0.404-0.204-0.608c-0.069-0.204-0.14-0.409-0.213-0.616
							c-0.073-0.207-0.15-0.415-0.229-0.626c-0.041-0.11-0.092-0.15-0.197-0.134c-0.113,0.016-0.229,0.014-0.321,0.018
							c0.103,0.277,0.204,0.545,0.289,0.814c0.023,0.089,0.024,0.184,0.004,0.277l-0.146-0.397
							c-0.162,0.366-0.325,0.704-0.498,1.036c0.077-0.194,0.116-0.384,0.112-0.574c-0.004-0.19-0.052-0.381-0.148-0.573
							c-0.144,0.309-0.288,0.587-0.439,0.861c-0.102,0.185-0.21,0.366-0.322,0.544c-0.112,0.178-0.228,0.353-0.347,0.526
							l-0.539-0.02c0-0.017-0.002-0.034-0.006-0.051c-0.112-0.298-0.231-0.6-0.361-0.908s-0.273-0.626-0.424-0.952
							c-0.014-0.024-0.031-0.047-0.049-0.069c-0.236,0.287-0.318,0.591-0.3,0.923c-0.114-0.27-0.231-0.544-0.359-0.847
							c-0.096,0.169-0.175,0.308-0.255,0.447c0.009-0.208,0.059-0.402,0.143-0.588s0.208-0.362,0.366-0.528
							c-0.179-0.021-0.316-0.026-0.448-0.047c-0.114-0.018-0.164,0.023-0.208,0.118c-0.116,0.248-0.231,0.492-0.346,0.732
							c-0.116,0.24-0.233,0.478-0.353,0.712c-0.12,0.234-0.244,0.464-0.37,0.69s-0.256,0.45-0.387,0.674
							c-0.021,0.034-0.038,0.07-0.063,0.116c0.05,0,0.084-0.001,0.118-0.001c0.148-0.002,0.324,0.05,0.442-0.02
							c0.123-0.073,0.192-0.263,0.273-0.408c0.052-0.092,0.106-0.127,0.215-0.122c0.317,0.017,0.658,0.036,1.028,0.07l-0.347-0.56
							c0.246,0.023,0.452,0.055,0.663,0.059c0.109,0.002,0.156,0.034,0.212,0.098c0.207,0.236,0.477,0.397,0.823,0.458
							c0.062,0.154,0.122,0.308,0.185,0.474C55.646,63.542,55.757,63.398,55.867,63.251z M56.251,63.723
							c0.268-0.093,0.518-0.212,0.753-0.418c-0.158,0-0.287-0.002-0.418,0.002c-0.029,0-0.077,0.017-0.091,0.038
							c-0.084,0.125-0.16,0.254-0.242,0.38c-0.277,0.027-0.562,0.069-0.847,0.067c-0.203-0.002-0.401-0.061-0.604-0.096
							l-0.023,0.036c0.056,0.024,0.109,0.064,0.168,0.068c0.324,0.024,0.646,0.029,0.959,0.05
							C56.047,63.857,56.164,63.849,56.251,63.723z M54.518,61.222c0.163-0.179,0.367-0.314,0.588-0.406
							c0.221-0.092,0.457-0.139,0.687-0.138c0.231,0.001,0.456,0.051,0.657,0.154c0.201,0.103,0.379,0.258,0.518,0.471
							c0.134-0.177,0.127-0.442,0.317-0.589c-0.191-0.242-0.426-0.416-0.689-0.53c-0.263-0.114-0.554-0.168-0.851-0.167
							c-0.297,0.001-0.599,0.055-0.88,0.159c-0.281,0.104-0.538,0.258-0.74,0.462C54.401,60.767,54.343,61.046,54.518,61.222z
							 M52.762,59.703c-0.207,0.009-0.362,0.219-0.354,0.462c0.007,0.243,0.171,0.428,0.374,0.418l0,0
							c0.21-0.007,0.385-0.197,0.388-0.439C53.16,59.9,52.975,59.701,52.762,59.703L52.762,59.703z M54.009,63.178
							c0.239,0.22,0.464,0.382,0.769,0.485c-0.049-0.132-0.085-0.244-0.138-0.352c-0.022-0.041-0.065-0.073-0.118-0.087
							C54.37,63.204,54.212,63.197,54.009,63.178L54.009,63.178z"/>
						<path style="fill:#FFFFFF;" d="M48.144,60.475l-0.022,0.52c0,0-0.37-0.083-0.74-0.176c-0.37-0.093-0.732-0.19-0.732-0.19
							c-0.029,0.214-0.057,0.426-0.082,0.639c-0.025,0.213-0.046,0.425-0.064,0.639c-0.018,0.214-0.033,0.429-0.044,0.646
							s-0.02,0.436-0.026,0.657c-0.025,0.012-0.033,0.02-0.042,0.019c-0.291-0.022-0.287-0.021-0.327-0.314
							c-0.029-0.212-0.059-0.423-0.087-0.632s-0.056-0.417-0.081-0.623c-0.025-0.206-0.048-0.411-0.067-0.614
							c-0.02-0.203-0.036-0.404-0.049-0.604c-0.22-0.045-0.43-0.085-0.632-0.117c-0.195-0.027-0.382-0.046-0.563-0.05
							c-0.196-0.001-0.209,0.053-0.203,0.276c0.01,0.217,0.028,0.437,0.047,0.658c0.018,0.221,0.035,0.444,0.038,0.665
							c0.006,0.359-0.084,0.649-0.254,0.855c-0.169,0.205-0.418,0.328-0.723,0.349c-0.184,0.018-0.372,0.004-0.559-0.042
							c-0.299-0.077-0.539-0.245-0.704-0.483s-0.254-0.544-0.256-0.9c-0.005-0.321-0.009-0.642-0.013-0.963
							c-0.004-0.322-0.007-0.644-0.011-0.971c0.186-0.007,0.369-0.019,0.548-0.018c0.02-0.001,0.053,0.085,0.052,0.13
							c-0.002,0.274-0.004,0.55-0.003,0.828c0,0.278,0.002,0.558,0.003,0.84c0,0.062,0.005,0.124,0.01,0.187
							c0.025,0.327,0.174,0.579,0.379,0.715c0.205,0.136,0.461,0.155,0.701,0.015c0.239-0.141,0.322-0.407,0.302-0.723
							c-0.014-0.224-0.03-0.446-0.046-0.667s-0.032-0.439-0.047-0.656c-0.014-0.265,0.082-0.45,0.268-0.544
							c0.157-0.073,0.342-0.127,0.523-0.113c0.21,0.016,0.431,0.041,0.663,0.075c0.242,0.039,0.504,0.093,0.793,0.164
							s0.602,0.153,0.931,0.24c0.329,0.087,0.668,0.172,1.008,0.249C48.071,60.451,48.108,60.463,48.144,60.475z"/>
						<path style="fill:#FFFFFF;" d="M61.818,63.983c-0.252,0.039-0.414-0.041-0.558-0.26c-0.113-0.172-0.228-0.344-0.345-0.514
							c-0.116-0.171-0.234-0.339-0.352-0.505c-0.118-0.166-0.236-0.33-0.356-0.492c-0.119-0.163-0.239-0.325-0.359-0.489
							c0,0-0.026,0.542-0.056,1.081c-0.03,0.539-0.062,1.078-0.062,1.078l-0.599-0.002c0,0,0.015-0.198,0.036-0.495
							c0.022-0.297,0.049-0.695,0.073-1.096s0.042-0.806,0.054-1.113s0.017-0.513,0.017-0.513c0.136-0.006,0.274-0.02,0.411-0.012
							c0.047,0.003,0.097,0.051,0.129,0.093c0.218,0.29,0.436,0.583,0.655,0.88c0.218,0.298,0.437,0.604,0.657,0.915
							c0.027,0.04,0.059,0.08,0.11,0.149c0,0,0.024-0.504,0.047-1.005c0.023-0.502,0.046-1.002,0.046-1.002l0.607,0.035
							c0,0-0.037,0.814-0.076,1.63C61.858,63.163,61.818,63.983,61.818,63.983z"/>
						<path style="fill:#FFFFFF;" d="M48.489,60.936l1.194,0.134c0,0-0.019,0.322-0.056,0.632s-0.089,0.609-0.089,0.609l0.025,0.002
							l0.057-0.327c0,0,0.39,0.016,0.74,0.024c0.35,0.008,0.666,0.008,0.666,0.008s0.029-0.314,0.043-0.643s0.012-0.675,0.012-0.675
							l0.495-0.023c0,0,0.002,0.204-0.003,0.501c-0.005,0.297-0.028,0.677-0.068,1.044s-0.097,0.724-0.148,0.99
							c-0.051,0.266-0.088,0.444-0.088,0.444l-0.551,0.006c0,0,0.068-0.286,0.13-0.571c0.062-0.285,0.115-0.574,0.115-0.574
							s-0.333-0.001-0.701-0.008c-0.368-0.007-0.772-0.027-0.772-0.027c0.015,0.276-0.118,0.508-0.298,0.73
							c-0.18,0.222-0.405,0.433-0.569,0.675c-0.032-0.079-0.055-0.124-0.069-0.171c-0.067-0.207-0.124-0.419-0.212-0.628
							c-0.078-0.182-0.099-0.371-0.058-0.55c0.046-0.246,0.085-0.495,0.117-0.747c0.032-0.252,0.055-0.51,0.074-0.771
							C48.475,60.996,48.484,60.974,48.489,60.936z M48.843,62.881c-0.028-0.021-0.051-0.054-0.08-0.058
							c-0.108-0.015-0.219-0.019-0.331-0.03c-0.002,0.053-0.02,0.106-0.004,0.158c0.044,0.146,0.091,0.291,0.15,0.432
							c0.017,0.041,0.079,0.095,0.128,0.099c0.049,0.004,0.133-0.033,0.168-0.069c0.116-0.12,0.22-0.246,0.321-0.373
							c0.033-0.041,0.068-0.13,0.06-0.133c-0.092-0.03-0.191-0.052-0.294-0.067C48.928,62.835,48.885,62.865,48.843,62.881z"/>
						<path style="fill:#FFFFFF;" d="M42.254,59.473c-0.115,0.005-0.233,0.003-0.352,0.014c-0.084,0.008-0.126-0.03-0.161-0.106
							c-0.098-0.216-0.043-0.505,0.129-0.658c0.226-0.206,0.496-0.245,0.68-0.1c0.225,0.176,0.301,0.482,0.185,0.736
							c-0.024,0.048-0.064,0.081-0.11,0.093C42.503,59.468,42.379,59.466,42.254,59.473L42.254,59.473z"/>
						<path style="fill:#FFFFFF;" d="M49.683,60.774l-1.164-0.124c-0.008-0.236,0.24-0.385,0.549-0.369
							C49.411,60.297,49.637,60.477,49.683,60.774z"/>
						<path style="fill:#FFFFFF;" d="M57.71,61.99c0.082,0.251,0.161,0.496,0.241,0.756l-0.464,0.008
							C57.565,62.502,57.638,62.251,57.71,61.99z"/>
						<path style="fill:#FFFFFF;" d="M46.194,63.353c0.143-0.021,0.207,0.032,0.162,0.15c-0.034,0.089-0.078,0.199-0.153,0.235
							c-0.18,0.091-0.31,0.199-0.229,0.472l-0.151-0.004c-0.068-0.3-0.02-0.446,0.185-0.575
							C46.109,63.571,46.235,63.532,46.194,63.353z"/>
						<path style="fill:#FFFFFF;" d="M58.932,63.883l-0.261,0.001c0.043-0.118,0.083-0.228,0.131-0.364
							C58.847,63.647,58.886,63.755,58.932,63.883z"/>
						<path style="fill:#FFFFFF;" d="M56.251,63.723c-0.086,0.126-0.205,0.134-0.346,0.125c-0.312-0.02-0.634-0.026-0.958-0.049
							c-0.059-0.004-0.112-0.044-0.168-0.068l0.023-0.036c0.203,0.036,0.401,0.095,0.604,0.096c0.284,0.002,0.569-0.04,0.847-0.067
							L56.251,63.723z"/>
						<path style="fill:#FFFFFF;" d="M53.614,62.607l-0.493-0.028l0.386-0.684C53.546,62.141,53.58,62.372,53.614,62.607z"/>
					</g>
				</g>
			</g>
			<g>
				<g>
					<g>
						<path style="fill:#AD6359;" d="M40.204,40.947c4.167,6.068,21.914,25.421,28.901,24.793
							c10.953-0.985,22.446-6.432,28.816-9.239c2.023-0.892-7.184-20.244-10.875-18.087c-4.766,2.785-14.614,6.834-17.479,7.283
							c-1.957,0.307-14.919-7.068-23.969-12.132C38.049,29.341,34.924,33.259,40.204,40.947z"/>
						<g>
							<g>
								<g>
									<g>
										<path style="fill:#AD6359;" d="M83.778,40.542c0,0,3.062-2.002,3.267-2.127c0.698-0.43,1.377-1.032,2.751-2.568
											c3.251-3.634,13.493-10.406,26.333-5.62c4.92,1.834,5.781,6.087,0.332,5.089c-3.838-0.703-6.438-1.519-7.754-1.398
											c0,0,3.927,4.501,3.118,7.866c-0.362,1.504-1.444,5.585-2.74,8.643c0,0-0.742-0.103-1.663-0.368
											c0,0-1.158,4.203-6.006,4.902l-5.19,2.287L83.778,40.542z"/>
									</g>
								</g>
								<g>
									<path style="fill:#AD6359;" d="M93.452,32.874c2.536-0.314,7.923-0.89,12.493,0.172c5.076,1.179,14.537,4.819,13.628,8.557
										c-0.667,2.741-4.401,1.669-4.401,1.669s3.593,2.329,2.45,4.673c-1.042,2.136-3.881,1.134-3.881,1.134
										s1.937,1.787,0.536,3.652c-1.684,2.243-5.467-1.871-9.136-1.074C104.317,51.836,93.452,32.874,93.452,32.874z"/>
									<g>
										<path style="fill:#263238;" d="M103.804,38.202c2.434,0.096,7.905,1.731,11.338,4.966c0.078,0.073,0.064,0.171-0.021,0.12
											c-4.537-2.759-9.274-4.443-11.328-5.038C103.766,38.242,103.777,38.201,103.804,38.202z"/>
									</g>
									<g>
										<path style="fill:#263238;" d="M102.763,43.361c2.091,0.298,7.655,2.236,11.022,5.634
											c0.075,0.076,0.055,0.174-0.028,0.118c-4.621-3.078-8.993-4.989-11.008-5.704
											C102.722,43.398,102.736,43.357,102.763,43.361z"/>
									</g>
								</g>
							</g>
						</g>
					</g>
				</g>
				<g>
					<path style="fill:#063359;" d="M64.341,43.423l-7.277,17.938c0,0-11.678-11.858-17.486-20.029
						c-5.808-8.171-2.544-12.166,6.168-8.529C54.459,36.439,64.341,43.423,64.341,43.423z"/>
					<path style="fill:#263238;" d="M60.346,42.443c-0.235,0.615-0.568,1.203-0.848,1.794c-0.282,0.596-0.545,1.205-0.809,1.811
						c-0.509,1.171-1.021,2.342-1.538,3.509c-1.048,2.367-2.151,4.708-3.071,7.145c-0.014,0.036,0.043,0.071,0.063,0.039
						c1.311-2.191,2.38-4.554,3.417-6.921c0.521-1.189,1.027-2.385,1.516-3.592c0.248-0.612,0.491-1.229,0.712-1.856
						c0.219-0.622,0.391-1.287,0.642-1.89C60.45,42.431,60.366,42.391,60.346,42.443z"/>
					<g>
						<g>
							<path d="M41.455,43.846c1.981,2.169,3.853,4.421,5.78,6.625c0.938,1.124,1.903,2.224,2.86,3.331l2.9,3.303
								c-1.123-0.949-2.165-1.987-3.185-3.044c-1.02-1.057-1.985-2.164-2.955-3.265c-0.939-1.128-1.886-2.249-2.786-3.408
								C43.169,46.23,42.283,45.061,41.455,43.846z"/>
						</g>
						<g>
							<path d="M41.905,45.403c0.708,0.606,1.439,1.096,2.168,1.689c-0.224-0.069-0.443-0.156-0.649-0.266
								c-0.208-0.108-0.4-0.241-0.593-0.374C42.47,46.157,42.11,45.834,41.905,45.403z"/>
						</g>
					</g>
				</g>
			</g>
		</g>
	</g>
</g>
<g id="Layer_1">
</g>
</svg>
