<?xml version="1.0" encoding="iso-8859-1"?>
<!-- Generator: Adobe Illustrator 25.4.1, SVG Export Plug-In . SVG Version: 6.00 Build 0)  -->
<svg version="1.1" xmlns="http://www.w3.org/2000/svg" xmlns:xlink="http://www.w3.org/1999/xlink" x="0px" y="0px"
	 viewBox="0 0 182.79 206.955" style="enable-background:new 0 0 182.79 206.955;" xml:space="preserve">
<g id="char_x5F_2">
	<g>
		<g>
			<g>
				<g>
					<path style="fill:#AD6359;" d="M0.176,204.626c0.191-1.742,20.207-44.879,22.013-46.035c0.679-0.451,7.134,2.099,14.845,5.404
						c0.08,0.035,0.16,0.071,0.241,0.106c1.591,0.678,30.934,8.561,30.934,8.561l-13.004,28.232l-30.533-8.819l-0.467-0.23
						c0,0-15.047,13.084-17.167,14.148C4.93,207.045-0.022,206.366,0.176,204.626z"/>
					<path style="fill:#EBEBEB;" d="M42.855,165.74l-13.377,27.719l-4.802-1.387l-0.47-0.227c0,0-15.048,13.084-17.165,14.147
						c-2.109,1.055-7.065,0.373-6.863-1.363c0.187-1.744,20.207-44.883,22.008-46.035c0.681-0.454,7.138,2.093,14.853,5.402
						c0.073,0.032,0.154,0.073,0.235,0.105C37.671,164.272,39.837,164.896,42.855,165.74z"/>
					<g>
						<path style="fill:#FFC727;" d="M0.005,204.842c0.191-1.758,20.253-45.387,22.069-46.567c0.686-0.451,7.211,2.1,15.007,5.406
							l-12.853,28.166c0,0-15.152,13.269-17.283,14.349C4.818,207.268-0.186,206.601,0.005,204.842z"/>
						<g>
							<g>
								<path style="fill:#263238;" d="M2.038,205.019c3.543-7.231,17.148-36.73,20.1-44.147c0.024-0.06-0.016-0.079-0.046-0.021
									c-3.668,7.09-17.034,36.699-20.175,44.113C1.852,205.121,1.963,205.172,2.038,205.019z"/>
								<path style="fill:#263238;" d="M9.805,204.112c0.868-1.702,0.824-3.776,0.226-5.196c-0.575-1.365-1.613-2.784-3.153-3.43
									c-0.044-0.019-0.082,0.061-0.04,0.088c2.67,1.734,3.987,5.493,2.876,8.496C9.691,204.131,9.775,204.17,9.805,204.112z"/>
								<path style="fill:#263238;" d="M22.197,194.35c1.387-2.909,1.914-6.778,0.356-9.698c-0.06-0.113-0.22-0.026-0.215,0.082
									c0.147,3.273,0.007,6.256-0.525,9.5C21.776,194.463,22.097,194.558,22.197,194.35z"/>
								<path style="fill:#263238;" d="M20.277,196.204c1.387-2.909,1.914-6.777,0.356-9.697c-0.06-0.113-0.22-0.025-0.215,0.082
									c0.147,3.273,0.007,6.256-0.525,9.5C19.856,196.318,20.177,196.412,20.277,196.204z"/>
								<path style="fill:#263238;" d="M18.356,198.059c1.387-2.909,1.914-6.778,0.357-9.697c-0.06-0.113-0.22-0.026-0.215,0.082
									c0.148,3.273,0.007,6.256-0.524,9.5C17.936,198.172,18.257,198.267,18.356,198.059z"/>
								<path style="fill:#263238;" d="M16.437,199.914c1.387-2.909,1.914-6.777,0.356-9.697c-0.06-0.113-0.22-0.026-0.215,0.082
									c0.147,3.273,0.007,6.256-0.524,9.5C16.016,200.027,16.337,200.122,16.437,199.914z"/>
								<path style="fill:#263238;" d="M28.228,165.93c1.501-3.289-3.608-5.626-5.111-2.332
									C21.617,166.886,26.725,169.224,28.228,165.93z"/>
							</g>
							<path style="fill:#263238;" d="M28.553,201.105c1.91-0.917,1.568-3.335,0.712-4.836c-1.386-2.43-3.814-4.778-6.262-6.102
								c-0.06-0.032-0.107,0.003-0.126,0.053c-0.238-0.034-0.529,0.133-0.479,0.418c0.483,2.747,0.66,5.744,1.972,8.26
								C25.136,200.368,26.747,201.972,28.553,201.105z M23.983,194.653c-0.271-1.345-0.473-2.696-0.794-4.03
								c1.218,1.194,2.482,2.328,3.579,3.644c0.523,0.628,1.049,1.283,1.483,1.977c0.675,1.081,1.8,5.079-1.519,3.906
								C24.903,199.502,24.306,196.256,23.983,194.653z"/>
							<path style="fill:#263238;" d="M25.262,182.395c-1.564,2.369-2.047,5.331-2.81,8.014c-0.079,0.278,0.192,0.474,0.433,0.464
								c0.013,0.051,0.056,0.092,0.12,0.066c2.571-1.065,5.228-3.152,6.856-5.426c1.005-1.404,1.594-3.775-0.211-4.883
								C27.942,179.583,26.175,181.013,25.262,182.395z M27.741,181.394c3.422-0.826,1.891,3.036,1.109,4.041
								c-0.502,0.646-1.093,1.244-1.678,1.814c-1.227,1.196-2.6,2.195-3.935,3.257c0.456-1.295,0.796-2.617,1.204-3.928
								C24.926,185.017,25.854,181.849,27.741,181.394z"/>
						</g>
					</g>
				</g>
				<g>
					<path style="fill:#DBDBDB;stroke:#455A64;stroke-miterlimit:10;" d="M102.641,80.57c0,0-0.541,16.91-3.075,25.236
						c0,0-2.766,1.455-3.594,1.975c0,0,21.006,50.299,19.809,69.651c-0.392,6.345-7.145,14.373-14.402,18.889
						c-12.843,7.991-71.887,3.381-71.887,3.381l9.096-37.691c0,0,35.556,2.207,36.558,0.06c1.27-2.721-6.622-23.876-12.924-41.066
						c-0.637-1.737-6.978-8.143-6.239-19.734c0.719-11.284,5.456-20.7,5.456-20.7H102.641z"/>
					<g>
						<path style="fill:#37474F;" d="M45.818,166.199c8.646-0.16,15.695,0.573,24.342,0.578c2.177,0.001,0.275,0.002,2.452,0.004
							c1.089,0.001,2.177,0.002,3.266,0.002c0.757,0,1.517-0.025,2.257-0.203c0.661-0.159,1.347-0.449,1.739-1.034
							c0.575-0.857,0.265-1.947,0.067-2.875c-0.434-2.034-0.926-4.055-1.462-6.064c-2.178-8.168-5.022-16.148-7.699-24.161
							c-1.379-4.127-2.757-8.255-4.136-12.382c-0.335-1.003-0.67-2.008-1.093-2.979c-0.39-0.897-0.868-1.747-1.359-2.593
							c-0.949-1.636-1.796-3.285-2.349-5.101c-2.339-7.688-0.09-15.644,2.644-22.896c0.368-0.975,0.748-1.943,1.145-2.907
							c0.027-0.066,0.132-0.038,0.109,0.033c-2.492,7.657-5.464,15.624-3.791,23.796c0.394,1.925,1.056,3.773,1.997,5.498
							c0.478,0.877,1.003,1.727,1.47,2.61c0.475,0.897,0.862,1.833,1.206,2.788c1.464,4.059,2.762,8.184,4.135,12.274
							c2.732,8.136,5.605,16.251,7.882,24.53c0.567,2.061,1.092,4.134,1.557,6.221c0.342,1.536,1.111,3.631-0.229,4.904
							c-0.982,0.932-2.525,1.049-3.808,1.057c-2.155,0.014-4.311-0.012-6.466-0.018c-8.769-0.025-22.798-0.759-23.886-0.783
							C45.616,166.496,45.625,166.203,45.818,166.199z"/>
						<path style="fill:#37474F;" d="M36.15,197.947c0.849-4.401,1.66-8.826,2.635-13.204c0.977-4.39,2.032-8.76,3.167-13.111
							c0.321-1.229,0.653-2.454,0.981-3.68c0.156-0.585,0.313-1.169,0.484-1.75c0.173-0.586,0.298-1.194,0.539-1.755
							c0.027-0.063,0.111-0.027,0.108,0.033c-0.064,1.12-0.375,2.279-0.599,3.378c-0.217,1.062-0.421,2.127-0.64,3.189
							c-0.451,2.184-0.91,4.365-1.387,6.543c-0.955,4.367-2.04,8.695-3.152,13.023c-0.632,2.459-1.267,4.918-1.91,7.372
							C36.337,198.124,36.121,198.093,36.15,197.947z"/>
					</g>
					<path style="fill:#37474F;" d="M108.584,142.193l-44.502-16.118c-0.625-1.712-1.249-3.407-1.858-5.07
						c-0.641-1.736-6.976-8.144-6.238-19.736c0.714-11.284,5.451-20.702,5.451-20.702h41.201c0,0-0.535,16.913-3.074,25.236
						c0,0-2.766,1.46-3.594,1.979C95.969,107.782,102.905,124.387,108.584,142.193z"/>
				</g>
			</g>
			<g>
				<g>
					<path style="fill:#AD6359;" d="M176.233,206.653c-1.679,0.505-49.207-1.068-50.977-2.278
						c-0.681-0.448-0.855-7.387-0.826-15.777c0.001-0.088,0.002-0.175,0.003-0.263c0.002-1.729,0.749-30.719,0.749-30.719
						l33.268,1.002l-3.343,30.388l-0.029,0.52c0,0,17.923,8.739,19.73,10.275C176.603,201.331,177.912,206.155,176.233,206.653z"/>
					<path style="fill:#EBEBEB;" d="M176.234,206.656c-1.679,0.503-49.207-1.071-50.975-2.279c-0.681-0.454-0.86-7.39-0.827-15.778
						v-0.268c0.008-0.471-0.003-2.823,0.142-6.384l31.181,1.194l-0.644,5.864l-0.032,0.519c0,0,17.927,8.745,19.736,10.278
						C176.599,201.335,177.913,206.154,176.234,206.656z"/>
					<g>
						<path style="fill:#FFC727;" d="M176.595,206.86c-1.695,0.505-49.688-1.093-51.48-2.311c-0.682-0.458-0.857-7.461-0.828-15.93
							l30.945,0.941c0,0,18.102,8.831,19.923,10.377C176.968,201.483,178.29,206.354,176.595,206.86z"/>
						<g>
							<g>
								<path style="fill:#263238;" d="M175.971,204.917c-8.039-0.466-40.505-1.584-48.486-1.433
									c-0.065,0.001-0.066,0.045-0.002,0.05c7.957,0.636,40.432,1.491,48.484,1.515
									C176.137,205.049,176.141,204.927,175.971,204.917z"/>
								<path style="fill:#263238;" d="M172.126,198.108c-1.906-0.141-3.8,0.703-4.879,1.804c-1.036,1.058-1.942,2.565-1.941,4.236
									c0,0.048,0.088,0.052,0.097,0.003c0.564-3.133,3.52-5.803,6.719-5.942C172.188,198.206,172.192,198.113,172.126,198.108z"/>
								<path style="fill:#263238;" d="M158.326,190.464c-3.219-0.152-6.99,0.861-9.079,3.427c-0.081,0.099,0.062,0.213,0.159,0.167
									c2.961-1.403,5.765-2.43,8.962-3.196C158.594,190.808,158.557,190.475,158.326,190.464z"/>
								<path style="fill:#263238;" d="M160.78,191.516c-3.219-0.152-6.99,0.86-9.079,3.427c-0.081,0.099,0.062,0.213,0.159,0.167
									c2.961-1.404,5.765-2.43,8.962-3.196C161.048,191.86,161.01,191.527,160.78,191.516z"/>
								<path style="fill:#263238;" d="M163.234,192.568c-3.219-0.152-6.99,0.86-9.079,3.427c-0.081,0.1,0.062,0.213,0.159,0.167
									c2.961-1.404,5.765-2.43,8.962-3.196C163.501,192.912,163.464,192.579,163.234,192.568z"/>
								<path style="fill:#263238;" d="M165.687,193.62c-3.219-0.152-6.99,0.86-9.078,3.427c-0.081,0.099,0.062,0.213,0.159,0.167
									c2.961-1.404,5.765-2.43,8.962-3.196C165.955,193.964,165.917,193.631,165.687,193.62z"/>
								<path style="fill:#263238;" d="M129.789,195.91c-3.613-0.11-3.79,5.505-0.171,5.615
									C133.231,201.635,133.408,196.02,129.789,195.91z"/>
							</g>
							<path style="fill:#263238;" d="M162.092,181.988c-1.585-1.406-3.682-0.153-4.734,1.217c-1.703,2.219-2.928,5.367-3.2,8.137
								c-0.007,0.068,0.044,0.097,0.097,0.095c0.061,0.233,0.327,0.436,0.571,0.279c2.345-1.509,5.04-2.833,6.852-5.017
								C162.736,185.424,163.591,183.317,162.092,181.988z M157.914,188.7c-1.136,0.77-2.302,1.48-3.408,2.293
								c0.629-1.586,1.185-3.19,1.973-4.711c0.376-0.726,0.776-1.464,1.249-2.133c0.735-1.041,3.985-3.627,4.189-0.113
								C162.029,185.974,159.267,187.781,157.914,188.7z"/>
							<path style="fill:#263238;" d="M146.118,192.268c2.789,0.524,5.708-0.178,8.477-0.513c0.287-0.035,0.362-0.36,0.26-0.579
								c0.042-0.032,0.063-0.087,0.014-0.136c-1.978-1.958-4.931-3.6-7.658-4.22c-1.684-0.383-4.098-0.008-4.42,2.086
								C142.487,190.887,144.49,191.962,146.118,192.268z M144.235,190.371c-2.087-2.835,2.066-2.92,3.296-2.588
								c0.79,0.213,1.57,0.526,2.322,0.845c1.578,0.668,3.031,1.547,4.527,2.366c-1.37,0.081-2.722,0.279-4.087,0.412
								C148.665,191.562,145.385,191.934,144.235,190.371z"/>
						</g>
					</g>
				</g>
				<g>
					<path style="fill:#DBDBDB;stroke:#455A64;stroke-miterlimit:10;" d="M157.819,186.688h-37.221c0,0,6.63-50.665,4.424-53.974
						c-0.967-1.451-49.283,3.391-63.418-11.919C48.68,106.797,61.833,80.57,61.833,80.57h39.658c0,0,0.81,11.242,2.943,15.734
						c0.915,1.927,45.217-0.817,52.151,11.84C165.851,125.06,157.819,186.688,157.819,186.688z"/>
					<g>
						<path style="fill:#37474F;" d="M124.525,179.61c4.199-0.123,8.411-0.288,12.614-0.283c4.215,0.005,8.429,0.089,12.643,0.256
							c1.19,0.047,4.702,0.214,5.268,0.255c0.571,0.042,1.154,0.033,1.717,0.146c0.063,0.013,0.048,0.103-0.008,0.112
							c-0.912,0.158-10.437,0.265-12.527,0.271c-4.19,0.012-8.371-0.111-12.559-0.261c-2.379-0.085-4.759-0.173-7.136-0.271
							C124.403,179.831,124.385,179.614,124.525,179.61z"/>
						<g>
							<path style="fill:#37474F;" d="M99.873,92.708c-0.166-1.189-0.322-2.38-0.463-3.572c-0.322-2.719-0.604-5.457-0.687-8.195
								c-0.007-0.214,0.301-0.197,0.325,0.004c0.253,2.112,0.448,4.233,0.687,6.347c0.237,2.093,0.421,4.229,0.815,6.3
								c0.119,0.625,0.382,1.671,1.18,1.683c1.075,0.016,1.278-1.433,1.371-2.22c0.231-1.967,0.209-3.945,0.107-5.919
								c-0.116-2.246-0.398-4.489-0.646-6.724c-0.009-0.08,0.124-0.096,0.141-0.017c0.923,4.348,1.809,8.909,1.042,13.355
								c-0.15,0.867-0.535,1.795-1.441,2.097c-0.015,0.005-0.029,0.006-0.043,0.01c0.011,0.024,0.026,0.045,0.028,0.074
								c0.008,0.126-0.001,0.252,0.003,0.378c0.006,0.106,0.006,0.212,0.002,0.317c0.001,0.22,0.015,0.44,0.005,0.661
								c-0.009,0.203-0.279,0.205-0.323,0.029c-0.053-0.012-0.102-0.041-0.117-0.109c-0.093-0.42-0.041-0.868,0.026-1.29
								c-0.525,0.016-1.003-0.261-1.321-0.711C100.056,94.489,99.99,93.549,99.873,92.708z"/>
							<g>
								<path style="fill:#37474F;" d="M103.819,95.93c-3.06,2.022-5.878,4.499-8.534,7.019c-0.104,0.099,0.025,0.267,0.142,0.176
									c2.906-2.246,5.891-4.448,8.669-6.851C104.314,96.086,104.054,95.775,103.819,95.93z"/>
							</g>
						</g>
						<path style="fill:#37474F;" d="M71.22,98.087c0.863-0.022,1.707-0.04,2.559-0.197c0.75-0.139,1.495-0.349,2.226-0.565
							c1.374-0.406,3.048-0.888,4.048-1.973c1.016-1.103,1.698-2.605,2.301-3.961c0.664-1.491,1.171-3.098,1.348-4.726
							c0.008-0.072,0.12-0.071,0.114,0.003c-0.135,1.697-0.355,3.366-0.841,5.003c-0.241,0.812-0.569,1.605-0.937,2.367
							c-0.361,0.747-0.758,1.507-1.326,2.12c-1.108,1.196-2.923,1.78-4.477,2.09c-1.617,0.323-3.424,0.32-5.046,0.029
							C71.078,98.256,71.117,98.09,71.22,98.087z"/>
						<path style="fill:#37474F;" d="M129.038,130.318c-0.24-0.947-0.854-1.56-1.824-1.73c-1.044-0.183-2.163-0.075-3.218-0.065
							c-2.48,0.023-4.959,0.052-7.439,0.057c-9.766,0.02-19.617-0.255-29.221-2.179c-4.659-0.933-9.296-2.235-13.663-4.124
							c-3.728-1.613-7.454-3.825-9.778-7.254c-2.674-3.947-2.884-9.112-2.792-13.728c0.099-4.977,0.901-9.942,2.393-14.693
							c0.38-1.209,0.808-2.4,1.285-3.575c0.03-0.074-0.078-0.137-0.111-0.061c-1.957,4.534-3.292,9.271-3.876,14.178
							c-0.286,2.404-0.399,4.822-0.329,7.242c0.068,2.357,0.251,4.76,0.917,7.033c2.531,8.64,12.214,12.211,20.046,14.406
							c9.422,2.641,19.252,3.374,28.998,3.519c4.899,0.073,9.801,0.016,14.701-0.066c0.937-0.016,2.476-0.277,3.032,0.705
							c0.291,0.514,0.348,1.208,0.438,1.781c0.108,0.69,0.184,1.384,0.236,2.08c0.194,2.603,0.049,5.215-0.104,7.817
							c-0.311,5.289-0.679,10.575-1.097,15.856c-0.421,5.311-1.013,10.61-1.4,15.923c-0.095,1.301-0.222,2.6-0.346,3.898
							c-0.014,0.148,0.243,0.178,0.262,0.029c1.36-10.499,2.334-21.041,3.024-31.606c0.17-2.609,0.363-5.222,0.434-7.836
							C129.676,135.416,129.659,132.769,129.038,130.318z"/>
						<path style="fill:#37474F;" d="M105.204,132.26c-3.7-0.031-6.756-0.326-9.881-0.719c-3.087-0.388-6.171-0.808-9.238-1.332
							c-5.333-0.91-10.788-1.913-15.827-3.944c-2.71-1.093-5.392-2.519-7.625-4.422c-0.062-0.053-0.146,0.035-0.087,0.092
							c3.813,3.7,8.645,5.872,13.726,7.257c5.793,1.579,11.805,2.496,17.77,3.118c3.546,0.37,7.607,0.389,11.172,0.324
							C105.461,132.629,105.437,132.261,105.204,132.26z"/>
					</g>
				</g>
			</g>
		</g>
		<g>
			<g>
				<g>
					<path style="fill:#063359;" d="M82.148,34.702C72.692,45.04,60.114,60.202,63.286,63.607
						c8.103,8.699,28.045,16.21,32.858,17.226c2.798,0.59,11.274-18.791,8.395-19.822c-3.362-1.204-20.686-5.468-21.357-6.689
						c-0.511-0.93,5.326-12.44,6.251-16C91.717,29.523,86.534,29.906,82.148,34.702z"/>
				</g>
				<g>
					<path style="fill:#063359;" d="M99.981,58.843l-7.915,22.6c0,0-27.688-11.421-29.492-18.88
						c-1.053-4.355,10.513-20.283,18.639-27.945c8.865-8.36,10.655-1.443,8.129,5.114c-2.011,5.221-5.89,13.855-5.529,14.112
						S99.981,58.843,99.981,58.843z"/>
					<path style="opacity:0.1;" d="M85.06,58.074c-0.705-0.131-1.428-0.232-2.192-0.144c0.672,0.352,1.376,0.552,2.085,0.699
						c0.713,0.129,1.435,0.222,2.194,0.152C86.473,58.421,85.771,58.23,85.06,58.074z M63.78,57.688
						c-0.079,0.172-0.151,0.334-0.221,0.505c0.577,0.093,1.15,0.136,1.75,0.079C64.819,58.005,64.3,57.829,63.78,57.688z
						 M91.494,65.05c0.129-0.713,0.222-1.435,0.146-2.184c-0.362,0.666-0.554,1.368-0.701,2.077
						c-0.137,0.715-0.222,1.435-0.144,2.192C91.147,66.463,91.339,65.761,91.494,65.05z M73.947,52.014
						c0.139-0.707,0.232-1.428,0.154-2.186c-0.362,0.666-0.562,1.37-0.709,2.079c-0.129,0.713-0.22,1.443-0.144,2.192
						C73.609,53.425,73.802,52.731,73.947,52.014z M87.078,34.257c0.603-0.408,1.169-0.858,1.653-1.442
						c-0.725,0.215-1.355,0.578-1.962,0.969c-0.603,0.408-1.178,0.86-1.661,1.444C85.833,35.014,86.471,34.649,87.078,34.257z
						 M87.838,76.444c0.601-0.416,1.178-0.86,1.661-1.444c-0.733,0.217-1.364,0.58-1.97,0.971c-0.601,0.416-1.178,0.86-1.661,1.444
						C86.601,77.199,87.231,76.836,87.838,76.444z M71.892,64.402c0.593-0.414,1.178-0.86,1.661-1.444
						c-0.733,0.217-1.363,0.58-1.978,0.973c-0.595,0.406-1.17,0.858-1.653,1.442C70.655,65.156,71.277,64.795,71.892,64.402z
						 M80.801,69.407c-0.416-0.601-0.86-1.178-1.444-1.661c0.217,0.733,0.58,1.364,0.963,1.972c0.418,0.609,0.868,1.176,1.452,1.66
						C81.557,70.652,81.192,70.014,80.801,69.407z M82.892,45.001c-0.414-0.593-0.858-1.169-1.442-1.653
						c0.217,0.733,0.578,1.355,0.963,1.972c0.416,0.601,0.868,1.176,1.452,1.66C83.648,46.246,83.285,45.616,82.892,45.001z"/>
					<path style="fill:#263238;" d="M91.291,68.451c0.584-1.636,1.13-3.286,1.676-4.935c0.262-0.791,0.532-1.582,0.768-2.382
						c0.255-0.861,0.585-1.725,0.777-2.601c0.013-0.061-0.063-0.091-0.092-0.034c-0.402,0.801-0.688,1.679-1.034,2.507
						c-0.322,0.769-0.609,1.553-0.904,2.333c-0.615,1.624-1.23,3.249-1.807,4.887c-1.156,3.282-2.215,6.586-3.237,9.912
						c-0.025,0.08,0.091,0.123,0.122,0.045C88.863,74.958,90.121,71.727,91.291,68.451z"/>
					<path style="opacity:0.1;fill:#00233A;" d="M76.008,73.719c-6.47-3.572-12.612-7.776-13.432-11.156
						c-1.052-4.356,10.509-20.282,18.634-27.944c4.606-4.344,7.3-4.566,8.482-2.86L76.008,73.719z"/>
				</g>
			</g>
			<g>
				<g>
					<g>
						<path style="fill:#EB9481;" d="M97.255,38.767c-2.658,0.133-6.814-4.99-7.96-8.463c-0.077-0.238,0.674-2.457,1.46-5.196
							c0.47-1.664,0.955-3.528,1.274-5.261l10.381,4.642c0,0-1.737,3.435-2.275,6.46c-0.042,0.253-0.061,0.493-0.056,0.725
							c-0.002,0.033,0,0.075-0.006,0.121C100.043,33.186,99.824,38.637,97.255,38.767z"/>
					</g>
					<path style="fill:#263238;" d="M100.078,31.673c-0.004,0.031-0.001,0.078-0.007,0.125c-0.352-0.018-0.724-0.061-1.131-0.148
						c-6.35-1.435-6.703-8.906-6.609-11.663l10.08,4.505c0,0-1.739,3.437-2.28,6.456C100.094,31.203,100.074,31.444,100.078,31.673z
						"/>
				</g>
				<g>
					<g>
						<path style="fill:#37474F;" d="M90.307,13.877c0,0-7.029,6.531-6.034,7.86c0.995,1.329,10.72,0.146,12.932-1.375
							c2.213-1.521,6.517-8.038,6.517-8.038L90.307,13.877z"/>
					</g>
					<g>
						<path style="fill:#EB9481;" d="M91.486,6.845c-1.643,3.753-0.903,15.235,1.572,18.066c3.587,4.103,10.117,5.219,13.768,0.757
							c3.54-4.325,2.311-19.273-0.514-21.912C102.15-0.132,93.912,1.302,91.486,6.845z"/>
					</g>
					<g>
						<g>
							<path style="fill:#263238;" d="M102.082,14.964c-0.007-0.029-0.059,0.04-0.056,0.071c0.06,0.773-0.001,1.669-0.69,1.958
								c-0.021,0.009-0.017,0.048,0.009,0.043C102.193,16.877,102.263,15.687,102.082,14.964z"/>
							<path style="fill:#263238;" d="M101.353,14.188c-1.249-0.037-1.232,2.465-0.074,2.499
								C102.418,16.721,102.4,14.219,101.353,14.188z"/>
						</g>
						<g>
							<path style="fill:#263238;" d="M106.435,14.922c0.005-0.03,0.061,0.036,0.06,0.068c-0.019,0.775,0.09,1.666,0.792,1.919
								c0.022,0.008,0.02,0.047-0.006,0.043C106.425,16.837,106.292,15.653,106.435,14.922z"/>
							<path style="fill:#263238;" d="M107.121,14.107c1.246-0.103,1.361,2.396,0.207,2.492
								C106.192,16.693,106.077,14.194,107.121,14.107z"/>
						</g>
						<path style="fill:#263238;" d="M100.357,13.051c0.34-0.088,0.639-0.226,0.967-0.348c0.369-0.138,0.678-0.209,0.918-0.543
							c0.129-0.179,0.073-0.498-0.09-0.64c-0.378-0.33-0.872-0.274-1.323-0.126c-0.49,0.16-0.827,0.409-1.105,0.842
							C99.455,12.655,99.909,13.167,100.357,13.051z"/>
						<path style="fill:#263238;" d="M108.079,12.841c-0.347-0.054-0.659-0.162-0.996-0.251c-0.381-0.1-0.695-0.141-0.967-0.45
							c-0.146-0.165-0.122-0.488,0.026-0.645c0.343-0.365,0.84-0.358,1.304-0.256c0.503,0.111,0.863,0.325,1.182,0.728
							C108.938,12.358,108.537,12.912,108.079,12.841z"/>
						<path style="fill:#263238;" d="M101.312,22.013c0.187,0.18,0.374,0.429,0.655,0.45c0.27,0.021,0.585-0.103,0.832-0.201
							c0.024-0.01,0.049,0.016,0.034,0.04c-0.199,0.299-0.621,0.488-0.981,0.428c-0.351-0.059-0.527-0.361-0.614-0.681
							C101.225,22.004,101.285,21.987,101.312,22.013z"/>
						<g>
							<g>
								<path style="fill:#263238;" d="M102.11,19.687c0.439,0.67,1.079,1.033,1.77,1.161c0.308,0.06,0.632,0.068,0.95,0.037
									c0.062-0.002,0.125-0.009,0.181-0.022c0.056-0.007,0.107-0.014,0.17-0.027c0.09-0.014,0.14-0.089,0.154-0.174l0-0.006
									c-0.001-0.028-0.001-0.051-0.008-0.079c0,0,0,0,0-0.006l-0.002-0.068c0.012-0.597-0.052-1.504-0.052-1.504
									c0.219,0.108,1.334,0.6,1.314,0.288c-0.172-2.579-0.364-5.448-1.08-7.979c-0.02-0.085-0.15-0.064-0.141,0.021
									c0.068,2.486,0.572,4.943,0.68,7.439c-0.356-0.132-0.936-0.378-1.248-0.369c-0.085,0.025,0.156,1.751,0.129,2.018
									c0,0,0,0.011-0.005,0.028c-1.002,0.135-1.76-0.162-2.737-0.828C102.124,19.573,102.063,19.626,102.11,19.687z"/>
							</g>
						</g>
						<g>
							<path style="fill:#263238;" d="M104.475,20.585c0,0-0.524,0.718-1.247,0.98c-0.266,0.098-0.553,0.138-0.855,0.059
								c-0.62-0.158-0.64-0.726-0.529-1.213c0.089-0.4,0.272-0.746,0.272-0.746S103.026,20.506,104.475,20.585z"/>
							<path style="fill:#FF9BBC;" d="M103.229,21.565c-0.266,0.098-0.553,0.138-0.855,0.059c-0.62-0.158-0.64-0.726-0.529-1.213
								C102.508,20.475,103.168,20.921,103.229,21.565z"/>
						</g>
					</g>
					<path style="fill:#263238;" d="M91.317,17.151c2.085-0.662,2.944-7.745,2.944-7.745s0.07,2.991,0.629,2.902
						c0.558-0.088,2.735-4.219,2.908-7.14c0,0,2.716,1.724,5.403,2.44c2.687,0.715,5.216,1.239,5.203,0.787
						c-0.039-1.348-1.431-5.103-3.299-6.296c-2.15-1.373-4.867-2.625-9.168-0.83c-4.301,1.795-5.222,4.057-5.803,6.243
						C89.554,9.698,90.551,17.394,91.317,17.151z"/>
					<path style="fill:#455A64;" d="M104.216,1.039c-3.677-2.031-11.826-1.441-13.741,4.983c-1.266,4.252-0.329,8.521-0.329,8.521
						s5.013-4.455,6.942-5.289c4.906-2.123,11.409-1.382,11.409-1.382S107.518,2.866,104.216,1.039z M97.927,7.529
						c0.005-1.106,0.42-2.729,2.83-3.136c2.774-0.468,3.368,2.121,3.368,2.121C101.029,6.416,97.927,7.529,97.927,7.529z"/>
					<g>
						<path style="fill:#EB9481;" d="M92.817,16.289c0,0-2.195-3.89-3.936-3.141c-1.741,0.749-0.336,6.215,1.535,7.125
							c1.871,0.91,2.747-0.805,2.747-0.805L92.817,16.289z"/>
						<path style="fill:#263238;" d="M89.322,14.704c-0.031-0.006-0.041,0.037-0.015,0.051c1.308,0.683,1.902,2.014,2.277,3.371
							c-0.356-0.543-0.881-0.872-1.602-0.455c-0.038,0.022-0.009,0.081,0.03,0.076c0.569-0.066,0.962,0.07,1.295,0.553
							c0.236,0.342,0.379,0.759,0.535,1.143c0.052,0.128,0.278,0.084,0.245-0.061c-0.003-0.011-0.006-0.022-0.008-0.032
							C92.282,17.618,91.168,15.059,89.322,14.704z"/>
					</g>
				</g>
			</g>
			<g>
				<g>
					<path style="fill:#063359;" d="M56.172,88.691c0.094,0.15,50.096,8.736,50.638,8.299c0.758-0.616,1.786-51.242-6.378-62.254
						c-2.01-2.711-9.579-6.383-12.281-5.007c-7.007,3.567-11.866,12.539-14.942,17.732c-2.277,3.848-5.346,10.537-8.242,17.434
						C60.18,76.256,55.84,88.152,56.172,88.691z"/>
				</g>
				<path style="display:none;opacity:0.1;" d="M89.478,49.344c-0.277,0.673-0.513,1.362-0.588,2.12
					c0.488-0.58,0.816-1.23,1.102-1.895c0.277-0.681,0.512-1.37,0.588-2.119C90.092,48.029,89.764,48.679,89.478,49.344z
					 M68.173,60.753c-0.269,0.673-0.504,1.369-0.58,2.119c0.488-0.58,0.816-1.23,1.102-1.895c0.277-0.673,0.504-1.369,0.58-2.119
					C68.795,59.438,68.467,60.088,68.173,60.753z M95.21,92.726c-0.269,0.673-0.504,1.361-0.58,2.119
					c0.488-0.58,0.816-1.23,1.11-1.895c0.269-0.681,0.496-1.369,0.58-2.119C95.832,91.411,95.504,92.061,95.21,92.726z
					 M70.056,91.057c-0.016,0.034-0.023,0.059-0.039,0.093c0.192,0.027,0.384,0.062,0.576,0.09c0.261-0.656,0.489-1.336,0.564-2.077
					C70.67,89.742,70.342,90.392,70.056,91.057z M57.263,85.92c-0.269,0.673-0.504,1.361-0.588,2.12
					c0.496-0.589,0.824-1.23,1.11-1.904c0.277-0.673,0.504-1.361,0.58-2.119C57.885,84.605,57.557,85.255,57.263,85.92z
					 M84.022,75.233c-0.269,0.673-0.504,1.361-0.588,2.119c0.496-0.581,0.824-1.23,1.11-1.895c0.277-0.681,0.504-1.369,0.58-2.119
					C84.644,73.918,84.316,74.568,84.022,75.233z M79.274,39.483c-0.277,0.673-0.504,1.361-0.58,2.119
					c0.48-0.58,0.807-1.238,1.101-1.903c0.278-0.665,0.505-1.353,0.588-2.111C79.896,38.168,79.568,38.817,79.274,39.483z
					 M105.229,50.633c-0.009-0.008-0.025-0.007-0.034-0.015c-0.665-0.278-1.353-0.513-2.111-0.588c0.58,0.488,1.23,0.824,1.895,1.11
					c0.118,0.046,0.235,0.092,0.353,0.13C105.301,51.054,105.269,50.839,105.229,50.633z M69.957,76.281
					c-0.673-0.269-1.361-0.504-2.119-0.588c0.581,0.496,1.23,0.824,1.904,1.11c0.665,0.278,1.353,0.505,2.111,0.588
					C71.272,76.903,70.622,76.567,69.957,76.281z M106.959,94.567c-0.665-0.269-1.353-0.505-2.119-0.58
					c0.589,0.488,1.238,0.816,1.903,1.101c0.101,0.038,0.202,0.085,0.303,0.123c0.019-0.183,0.03-0.375,0.04-0.582
					C107.044,94.606,107.001,94.582,106.959,94.567z M88.856,85.673c-0.673-0.269-1.361-0.504-2.119-0.58
					c0.589,0.488,1.238,0.816,1.903,1.102c0.673,0.277,1.362,0.513,2.12,0.588C90.172,86.295,89.522,85.967,88.856,85.673z
					 M103.732,71.571c-0.665-0.269-1.353-0.505-2.111-0.58c0.58,0.48,1.23,0.816,1.895,1.102c0.673,0.269,1.37,0.512,2.12,0.588
					C105.047,72.193,104.406,71.865,103.732,71.571z M84.277,58.569c-0.665-0.269-1.353-0.505-2.119-0.58
					c0.589,0.488,1.238,0.816,1.903,1.101c0.673,0.277,1.362,0.513,2.12,0.588C85.592,59.191,84.951,58.863,84.277,58.569z
					 M64.952,84.885c-0.279-0.672-0.607-1.326-1.082-1.908c0.066,0.753,0.295,1.444,0.558,2.124
					c0.287,0.663,0.607,1.317,1.082,1.908C65.444,86.248,65.214,85.558,64.952,84.885z M90.422,34.202
					c-0.279-0.672-0.607-1.317-1.082-1.908c0.066,0.753,0.295,1.444,0.558,2.116c0.279,0.672,0.607,1.326,1.083,1.916
					C90.914,35.573,90.684,34.874,90.422,34.202z M99.135,58.691c-0.287-0.663-0.598-1.318-1.082-1.908
					c0.066,0.753,0.296,1.452,0.558,2.124c0.287,0.672,0.607,1.326,1.091,1.908C99.627,60.062,99.406,59.371,99.135,58.691z
					 M82.255,92.136c-0.287-0.663-0.599-1.318-1.082-1.908c0.066,0.753,0.295,1.444,0.558,2.124
					c0.125,0.287,0.251,0.573,0.401,0.851c0.167,0.028,0.342,0.055,0.509,0.083C82.536,92.891,82.408,92.513,82.255,92.136z
					 M95.671,78.09c-0.287-0.663-0.607-1.317-1.082-1.908c0.066,0.753,0.295,1.444,0.558,2.124c0.287,0.672,0.607,1.326,1.083,1.917
					C96.163,79.461,95.934,78.77,95.671,78.09z M76.924,67.498c-0.287-0.663-0.599-1.326-1.083-1.917
					c0.066,0.762,0.296,1.452,0.558,2.133c0.287,0.663,0.607,1.317,1.091,1.908C77.416,68.86,77.195,68.178,76.924,67.498z
					 M62.648,70.52c-0.092,0.235-0.193,0.471-0.285,0.706c0.066-0.019,0.14-0.046,0.205-0.073c0.672-0.287,1.326-0.607,1.908-1.082
					C63.831,70.125,63.231,70.302,62.648,70.52z M77.058,82.812c-0.672,0.287-1.326,0.607-1.917,1.083
					c0.762-0.066,1.452-0.296,2.133-0.558c0.664-0.279,1.317-0.607,1.9-1.082C78.42,82.32,77.73,82.55,77.058,82.812z
					 M75.625,51.556c-0.663,0.287-1.318,0.598-1.9,1.082c0.753-0.066,1.444-0.295,2.124-0.558c0.663-0.287,1.317-0.607,1.908-1.091
					C76.996,51.064,76.305,51.285,75.625,51.556z M102.057,86.155c-0.672,0.287-1.326,0.607-1.917,1.083
					c0.753-0.066,1.452-0.296,2.124-0.558c0.672-0.279,1.318-0.598,1.908-1.082C103.42,85.663,102.729,85.893,102.057,86.155z
					 M92.914,66.911c-0.672,0.287-1.326,0.607-1.917,1.083c0.753-0.066,1.452-0.296,2.124-0.558
					c0.672-0.279,1.318-0.598,1.908-1.082C94.276,66.419,93.586,66.649,92.914,66.911z M100.112,40.451
					c-0.663,0.287-1.317,0.607-1.908,1.082c0.762-0.066,1.444-0.295,2.125-0.55c0.672-0.287,1.325-0.615,1.916-1.091
					C101.483,39.959,100.793,40.189,100.112,40.451z"/>
			</g>
			<g>
				<defs>
					<path id="SVGID_1_" d="M56.172,88.691c0.094,0.15,50.096,8.736,50.638,8.299c0.758-0.616,1.786-51.242-6.378-62.254
						c-2.01-2.711-9.579-6.383-12.281-5.007c-7.007,3.567-11.866,12.539-14.942,17.732c-2.277,3.848-5.346,10.537-8.242,17.434
						C60.18,76.256,55.84,88.152,56.172,88.691z"/>
				</defs>
				<clipPath id="SVGID_00000052809818584874764320000010661996720731733400_">
					<use xlink:href="#SVGID_1_"  style="overflow:visible;"/>
				</clipPath>
				
					<path style="opacity:0.8;clip-path:url(#SVGID_00000052809818584874764320000010661996720731733400_);fill:none;stroke:#FFFFFF;stroke-width:1.7;stroke-miterlimit:10;" d="
					M88.293,53.564c0.756,0.143,1.509,0.285,2.262,0.428c0.431,0.123,0.865,0.239,1.301,0.349c0.437,0.11,0.877,0.213,1.323,0.311
					c10.665,3.017,20.868,2.681,31.452,7.086c0.372,0.226,0.741,0.465,1.105,0.714s0.723,0.511,1.076,0.784
					c2.221,1.576-5.762,3.489-5.728,7.023c-0.097,0.493-0.159,0.999-0.215,1.509c-0.074,0.68-0.138,1.362-0.191,2.047
					c0.712,5.885-2.315,11.236,0.018,16.808c-0.46-0.075-0.916-0.149-1.369-0.222s-0.901-0.146-1.347-0.219
					c-10.081-2.791-21.219-2.953-32.467-4.869c-0.26-0.056-0.509-0.112-0.76-0.169c-0.725-0.169-1.453-0.34-2.186-0.511
					c-0.265-0.063-0.549-0.124-0.844-0.184s-0.6-0.118-0.905-0.177c2.98-8.621,4.96-18.584,6.713-27.295
					c0.065-0.303,0.131-0.606,0.197-0.9c0.066-0.294,0.132-0.577,0.196-0.844C88.049,54.701,88.172,54.146,88.293,53.564z"/>
				
					<g id="Layer_2_00000072987259627802405650000003871453143910033587_" style="opacity:0.8;clip-path:url(#SVGID_00000052809818584874764320000010661996720731733400_);">
					<g id="Layer_1-2_00000112599688400090899310000014342171476976351111_">
						<path style="fill:#FFFFFF;" d="M110.605,77.039c0.319-0.015,0.607-0.083,0.867-0.203s0.493-0.292,0.702-0.511
							c-0.04,0.059-0.079,0.119-0.135,0.202l0.847,0.079l-0.681,0.685l0.197,0.021c0.379,0.041,0.749,0.091,1.119,0.124
							c0.136,0.012,0.197,0.068,0.204,0.203c0.005,0.044,0.012,0.088,0.023,0.131c0.054,0.318,0.055,0.687,0.61,0.547
							c-0.209,0.282-0.436,0.494-0.687,0.641c-0.251,0.147-0.526,0.228-0.829,0.25c-0.155,0.008-0.309-0.002-0.459-0.028
							c-0.493-0.077-0.995-0.153-1.512-0.231c-0.517-0.078-1.047-0.162-1.588-0.251c-0.541-0.089-1.086-0.183-1.627-0.276
							c-0.54-0.093-1.065-0.19-1.565-0.279c-0.538-0.087-0.936-0.34-1.155-0.695s-0.265-0.816-0.117-1.327
							c0.075-0.274,0.147-0.55,0.213-0.829c0.066-0.28,0.127-0.564,0.182-0.855c0.055-0.291,0.103-0.589,0.144-0.896
							c0.042-0.307,0.077-0.622,0.108-0.943c0.042-0.562,0.235-0.979,0.662-1.189c0.043-0.029,0.076-0.079,0.091-0.139
							c0.07-0.27,0.176-0.365,0.406-0.335c0.185,0.024,0.375,0.055,0.574,0.088c0.318,0.054,0.382,0.118,0.479,0.507
							c0.191,0.04,0.399,0.095,0.613,0.13c0.058,0.01,0.139-0.035,0.178-0.082c0.177-0.208,0.349-0.423,0.507-0.649
							c0.175-0.253,0.42-0.335,0.72-0.278c0.483,0.084,0.959,0.161,1.422,0.225s0.91,0.119,1.347,0.169
							c0.271,0.029,0.473,0.179,0.58,0.484c0.087,0.251,0.2,0.486,0.289,0.731c0.042,0.118,0.103,0.166,0.211,0.169
							c0.331,0.009,0.643,0.089,0.917,0.298c0.266,0.199,0.468,0.441,0.593,0.722c0.126,0.281,0.173,0.603,0.132,0.966
							c-0.034,0.279-0.072,0.556-0.114,0.831c-0.042,0.275-0.088,0.548-0.136,0.82c-0.049,0.271-0.1,0.541-0.153,0.809
							s-0.107,0.535-0.161,0.802c-0.01,0.03-0.021,0.06-0.035,0.09c-0.025-0.081-0.044-0.138-0.057-0.196
							c-0.062-0.288-0.123-0.576-0.184-0.865c-0.061-0.288-0.122-0.577-0.185-0.868c-0.063-0.291-0.128-0.584-0.197-0.88
							c-0.069-0.296-0.141-0.595-0.217-0.897c-0.04-0.158-0.103-0.22-0.25-0.216c-0.158,0.005-0.318-0.017-0.445-0.025
							c0.099,0.398,0.195,0.781,0.27,1.165c0.017,0.126,0.004,0.257-0.038,0.382l-0.139-0.57c-0.28,0.478-0.557,0.919-0.847,1.348
							c0.137-0.255,0.22-0.51,0.244-0.773s-0.012-0.532-0.113-0.812c-0.247,0.402-0.488,0.763-0.738,1.116
							c-0.17,0.239-0.346,0.471-0.528,0.698c-0.182,0.227-0.369,0.45-0.559,0.67l-0.739-0.112c0.003-0.024,0.003-0.048,0-0.071
							c-0.107-0.428-0.224-0.861-0.355-1.306c-0.131-0.445-0.278-0.905-0.434-1.376c-0.016-0.035-0.035-0.069-0.056-0.103
							c-0.37,0.358-0.53,0.764-0.557,1.223c-0.115-0.39-0.233-0.785-0.362-1.222c-0.159,0.216-0.29,0.395-0.42,0.573
							c0.045-0.286,0.143-0.545,0.289-0.786s0.342-0.463,0.586-0.668c-0.243-0.057-0.431-0.088-0.609-0.141
							c-0.154-0.047-0.229,0.001-0.304,0.124c-0.198,0.32-0.394,0.634-0.591,0.944c-0.197,0.309-0.395,0.615-0.597,0.917
							c-0.202,0.302-0.408,0.597-0.617,0.887c-0.21,0.291-0.423,0.579-0.638,0.867c-0.034,0.044-0.064,0.091-0.105,0.15
							c0.069,0.01,0.116,0.016,0.163,0.023c0.204,0.026,0.438,0.134,0.61,0.059c0.181-0.079,0.305-0.33,0.44-0.517
							c0.085-0.118,0.166-0.156,0.314-0.13c0.433,0.078,0.9,0.158,1.404,0.262l-0.39-0.825c0.334,0.071,0.613,0.146,0.903,0.185
							c0.149,0.02,0.209,0.072,0.276,0.167c0.248,0.358,0.594,0.621,1.061,0.759c0.061,0.222,0.12,0.443,0.18,0.681
							C110.256,77.405,110.431,77.224,110.605,77.039z M111.061,77.749c0.384-0.086,0.747-0.211,1.102-0.458
							c-0.217-0.024-0.394-0.047-0.576-0.063c-0.039-0.005-0.109,0.012-0.131,0.038c-0.135,0.16-0.26,0.324-0.392,0.485
							c-0.386-0.006-0.785,0.007-1.175-0.04c-0.279-0.034-0.542-0.146-0.816-0.227l-0.038,0.046c0.073,0.042,0.14,0.104,0.22,0.12
							c0.442,0.083,0.884,0.141,1.311,0.218C110.758,77.901,110.921,77.908,111.061,77.749z M109.067,74.037
							c0.253-0.22,0.554-0.375,0.872-0.467s0.65-0.12,0.968-0.083c0.317,0.037,0.619,0.141,0.88,0.314s0.481,0.415,0.64,0.729
							c0.212-0.223,0.244-0.589,0.528-0.761c-0.225-0.362-0.522-0.639-0.865-0.837c-0.344-0.198-0.736-0.318-1.144-0.363
							c-0.409-0.046-0.833-0.018-1.236,0.081c-0.403,0.099-0.78,0.271-1.091,0.52C108.977,73.392,108.853,73.766,109.067,74.037z
							 M106.889,71.61c-0.285-0.038-0.531,0.212-0.559,0.551c-0.028,0.339,0.168,0.635,0.448,0.671l0,0
							c0.289,0.038,0.56-0.186,0.602-0.519C107.405,71.974,107.183,71.658,106.889,71.61L106.889,71.61z M108.06,76.649
							c0.295,0.341,0.578,0.598,0.983,0.787c-0.047-0.19-0.079-0.35-0.135-0.507c-0.023-0.06-0.078-0.11-0.149-0.138
							C108.553,76.741,108.337,76.706,108.06,76.649L108.06,76.649z"/>
						<path style="fill:#FFFFFF;" d="M100.399,71.671l-0.115,0.746c0,0-0.506-0.156-1.018-0.319s-1.019-0.324-1.019-0.324
							c-0.084,0.304-0.164,0.607-0.241,0.91s-0.147,0.608-0.212,0.914c-0.065,0.306-0.125,0.614-0.178,0.925
							s-0.101,0.624-0.145,0.94c-0.039,0.015-0.052,0.026-0.066,0.023c-0.428-0.062-0.421-0.061-0.434-0.483
							c-0.009-0.305-0.018-0.609-0.023-0.91c-0.005-0.301-0.007-0.6-0.005-0.896c0.002-0.296,0.009-0.589,0.021-0.879
							c0.012-0.29,0.03-0.577,0.052-0.86c-0.312-0.077-0.61-0.149-0.897-0.208c-0.277-0.053-0.544-0.095-0.803-0.118
							c-0.282-0.02-0.312,0.053-0.354,0.365c-0.034,0.304-0.055,0.612-0.075,0.923c-0.02,0.311-0.041,0.624-0.08,0.933
							c-0.059,0.502-0.242,0.894-0.519,1.153c-0.278,0.259-0.65,0.385-1.083,0.357c-0.259-0.012-0.517-0.068-0.765-0.165
							c-0.392-0.162-0.686-0.435-0.865-0.789c-0.179-0.355-0.24-0.789-0.174-1.277c0.058-0.44,0.119-0.879,0.182-1.319
							c0.064-0.441,0.131-0.882,0.201-1.33c0.25,0.024,0.5,0.041,0.742,0.076c0.027,0.002,0.052,0.126,0.041,0.188
							c-0.066,0.375-0.131,0.752-0.192,1.132c-0.061,0.38-0.119,0.763-0.175,1.148c-0.012,0.085-0.019,0.171-0.025,0.257
							c-0.029,0.451,0.124,0.824,0.379,1.049c0.255,0.225,0.607,0.3,0.968,0.15c0.363-0.155,0.531-0.51,0.566-0.951
							c0.025-0.312,0.048-0.623,0.073-0.931c0.025-0.308,0.051-0.613,0.08-0.915c0.042-0.368,0.219-0.614,0.506-0.723
							c0.241-0.086,0.517-0.143,0.774-0.108c0.298,0.04,0.611,0.091,0.939,0.154c0.343,0.07,0.711,0.162,1.116,0.276
							c0.405,0.115,0.84,0.249,1.295,0.393c0.455,0.145,0.919,0.292,1.381,0.435C100.301,71.629,100.35,71.649,100.399,71.671z"/>
						<path style="fill:#FFFFFF;" d="M118.68,78.976c-0.352,0.014-0.563-0.121-0.727-0.445c-0.129-0.255-0.26-0.508-0.394-0.762
							c-0.133-0.253-0.269-0.503-0.405-0.75c-0.136-0.247-0.274-0.49-0.412-0.733c-0.138-0.243-0.278-0.485-0.417-0.729
							c0,0-0.121,0.741-0.247,1.479c-0.126,0.737-0.254,1.474-0.254,1.474l-0.824-0.096c0,0,0.051-0.27,0.127-0.675
							s0.177-0.949,0.272-1.497s0.184-1.102,0.248-1.523s0.104-0.703,0.104-0.703c0.188,0.013,0.38,0.015,0.567,0.048
							c0.064,0.011,0.126,0.086,0.163,0.149c0.255,0.434,0.509,0.87,0.763,1.314c0.254,0.444,0.508,0.899,0.761,1.362
							c0.031,0.06,0.068,0.119,0.128,0.223c0,0,0.112-0.689,0.222-1.376c0.11-0.687,0.219-1.372,0.219-1.372l0.83,0.143
							c0,0-0.179,1.114-0.36,2.231S118.68,78.976,118.68,78.976z"/>
						<path style="fill:#FFFFFF;" d="M100.803,72.375l1.634,0.389c0,0-0.078,0.46-0.179,0.901c-0.101,0.441-0.22,0.867-0.22,0.867
							l0.034,0.007l0.131-0.464c0,0,0.537,0.098,1.02,0.184c0.483,0.086,0.918,0.158,0.918,0.158s0.089-0.441,0.16-0.904
							c0.071-0.464,0.123-0.953,0.123-0.953l0.684,0.097c0,0-0.029,0.287-0.083,0.704s-0.145,0.95-0.258,1.461
							c-0.114,0.511-0.248,1.007-0.36,1.375c-0.112,0.368-0.191,0.614-0.191,0.614l-0.76-0.102c0,0,0.139-0.397,0.269-0.793
							c0.13-0.396,0.249-0.798,0.249-0.798s-0.46-0.074-0.967-0.158c-0.507-0.084-1.063-0.185-1.063-0.185
							c-0.023,0.404-0.244,0.72-0.528,1.016s-0.629,0.571-0.894,0.9c-0.032-0.118-0.057-0.187-0.069-0.257
							c-0.061-0.309-0.107-0.625-0.198-0.941c-0.081-0.275-0.081-0.553,0.006-0.81c0.104-0.354,0.198-0.712,0.283-1.075
							c0.085-0.364,0.158-0.735,0.227-1.111C100.775,72.46,100.79,72.43,100.803,72.375z M100.985,75.252
							c-0.036-0.035-0.063-0.086-0.102-0.095c-0.147-0.036-0.301-0.057-0.456-0.086c-0.011,0.077-0.045,0.153-0.03,0.23
							c0.039,0.219,0.081,0.435,0.141,0.648c0.017,0.062,0.095,0.148,0.163,0.161c0.067,0.012,0.189-0.03,0.243-0.077
							c0.179-0.158,0.343-0.326,0.503-0.496c0.052-0.055,0.115-0.178,0.104-0.184c-0.123-0.058-0.256-0.106-0.397-0.142
							C101.11,75.198,101.047,75.236,100.985,75.252z"/>
						<path style="fill:#FFFFFF;" d="M92.249,69.701c-0.156-0.015-0.314-0.038-0.477-0.044c-0.115-0.004-0.162-0.063-0.191-0.174
							c-0.082-0.313,0.057-0.698,0.323-0.879c0.353-0.243,0.727-0.247,0.945-0.017c0.266,0.281,0.298,0.713,0.079,1.043
							c-0.044,0.061-0.107,0.101-0.172,0.108c-0.169,0.002-0.337-0.023-0.508-0.039L92.249,69.701z"/>
						<path style="fill:#FFFFFF;" d="M102.483,72.34l-1.592-0.374c0.026-0.339,0.395-0.516,0.819-0.441
							C102.184,71.609,102.468,71.908,102.483,72.34z"/>
						<path style="fill:#FFFFFF;" d="M113.338,75.592c0.074,0.358,0.144,0.707,0.213,1.078l-0.64-0.062
							C113.059,76.274,113.199,75.94,113.338,75.592z"/>
						<path style="fill:#FFFFFF;" d="M97.095,75.641c0.215-0.014,0.302,0.068,0.217,0.232c-0.064,0.123-0.144,0.274-0.261,0.317
							c-0.28,0.107-0.486,0.243-0.403,0.639l-0.222-0.026c-0.061-0.431,0.031-0.631,0.352-0.788
							C96.936,75.941,97.128,75.9,97.095,75.641z"/>
						<path style="fill:#FFFFFF;" d="M114.725,78.389l-0.359-0.039c0.078-0.156,0.149-0.3,0.238-0.48
							C114.644,78.05,114.681,78.205,114.725,78.389z"/>
						<path style="fill:#FFFFFF;" d="M111.061,77.749c-0.138,0.16-0.303,0.152-0.496,0.119c-0.426-0.077-0.868-0.135-1.311-0.218
							c-0.081-0.014-0.147-0.078-0.22-0.12l0.038-0.046c0.274,0.081,0.537,0.193,0.816,0.227c0.391,0.048,0.79,0.035,1.176,0.041
							L111.061,77.749z"/>
						<path style="fill:#FFFFFF;" d="M107.605,75.801l-0.673-0.122l0.639-0.876C107.585,75.148,107.597,75.471,107.605,75.801z"/>
					</g>
				</g>
			</g>
			<g>
				<g>
					<path style="fill:#37474F;" d="M153.805,53.442l17.118,6.213c1.372,0.498,2.888-0.211,3.386-1.582l0.96-2.645l-22.086-8.016
						l-0.96,2.645C151.725,51.428,152.433,52.944,153.805,53.442z"/>
					
						<rect x="156.387" y="55.982" transform="matrix(-0.94 -0.3412 0.3412 -0.94 286.4342 181.1866)" style="fill:#37474F;" width="5.523" height="18.851"/>
					
						<rect x="152.212" y="49.564" transform="matrix(-0.94 -0.3412 0.3412 -0.94 301.9954 154.1482)" style="fill:#C7C7C7;" width="24.68" height="1.912"/>
					
						<rect x="152.934" y="47.574" transform="matrix(-0.94 -0.3412 0.3412 -0.94 304.0755 150.5337)" style="fill:#C7C7C7;" width="24.68" height="1.912"/>
					<g>
						<g>
							<polygon style="fill:#FFC727;" points="180.74,36.5 181.466,36.25 181.862,36.907 176.53,51.598 175.408,51.191 							"/>
							<polygon style="fill:#FFC727;" points="179.52,36.058 180.246,35.807 180.642,36.465 175.31,51.155 174.189,50.748 							
								"/>
							<polygon style="fill:#FFC727;" points="178.3,35.615 179.026,35.364 179.422,36.022 174.09,50.712 172.969,50.305 							"/>
							<polygon style="fill:#FFC727;" points="177.08,35.172 177.806,34.921 178.202,35.579 172.87,50.27 171.749,49.862 							"/>
							<polygon style="fill:#FFC727;" points="175.861,34.729 176.586,34.479 176.982,35.136 171.651,49.827 170.529,49.42 							
								"/>
							<polygon style="fill:#FFC727;" points="174.641,34.287 175.366,34.036 175.762,34.694 170.431,49.384 169.309,48.977 							
								"/>
							<polygon style="fill:#FFC727;" points="173.421,33.844 174.147,33.593 174.542,34.251 169.211,48.941 168.089,48.534 							
								"/>
							<polygon style="fill:#FFC727;" points="172.201,33.401 172.927,33.15 173.323,33.808 167.991,48.499 166.869,48.092 							
								"/>
							<polygon style="fill:#FFC727;" points="170.981,32.958 171.707,32.708 172.103,33.366 166.771,48.056 165.649,47.649 							
								"/>
							<polygon style="fill:#FFC727;" points="169.761,32.516 170.487,32.265 170.883,32.923 165.551,47.613 164.43,47.206 							
								"/>
							<polygon style="fill:#FFC727;" points="168.541,32.073 169.267,31.822 169.663,32.48 164.331,47.17 163.21,46.763 							"/>
							<polygon style="fill:#FFC727;" points="167.322,31.63 168.047,31.379 168.443,32.037 163.111,46.728 161.99,46.321 							
								"/>
							<polygon style="fill:#FFC727;" points="166.102,31.187 166.827,30.937 167.223,31.595 161.892,46.285 160.77,45.878 							
								"/>
							<polygon style="fill:#FFC727;" points="164.882,30.745 165.608,30.494 166.003,31.152 160.672,45.842 159.55,45.435 							
								"/>
							<polygon style="fill:#FFC727;" points="163.662,30.302 164.388,30.051 164.784,30.709 159.452,45.399 158.33,44.992 							
								"/>
							<polygon style="fill:#FFC727;" points="162.442,29.859 163.168,29.608 163.564,30.266 158.232,44.957 157.11,44.55 							
								"/>
							<polygon style="fill:#FFC727;" points="161.222,29.417 161.948,29.166 162.344,29.824 157.012,44.514 155.89,44.107 							
								"/>
							<polygon style="fill:#FFC727;" points="160.002,28.974 160.728,28.723 161.124,29.381 155.792,44.071 154.671,43.664 							
								"/>
						</g>
						<g style="opacity:0.3;">
							<polygon points="180.74,36.5 181.466,36.25 181.862,36.907 176.53,51.598 175.408,51.191 							"/>
							<polygon points="179.52,36.058 180.246,35.807 180.642,36.465 175.31,51.155 174.189,50.748 							"/>
							<polygon points="178.3,35.615 179.026,35.364 179.422,36.022 174.09,50.712 172.969,50.305 							"/>
							<polygon points="177.08,35.172 177.806,34.921 178.202,35.579 172.87,50.27 171.749,49.862 							"/>
							<polygon points="175.861,34.729 176.586,34.479 176.982,35.136 171.651,49.827 170.529,49.42 							"/>
							<polygon points="174.641,34.287 175.366,34.036 175.762,34.694 170.431,49.384 169.309,48.977 							"/>
							<polygon points="173.421,33.844 174.147,33.593 174.542,34.251 169.211,48.941 168.089,48.534 							"/>
							<polygon points="172.201,33.401 172.927,33.15 173.323,33.808 167.991,48.499 166.869,48.092 							"/>
							<polygon points="170.981,32.958 171.707,32.708 172.103,33.366 166.771,48.056 165.649,47.649 							"/>
							<polygon points="169.761,32.516 170.487,32.265 170.883,32.923 165.551,47.613 164.43,47.206 							"/>
							<polygon points="168.541,32.073 169.267,31.822 169.663,32.48 164.331,47.17 163.21,46.763 							"/>
							<polygon points="167.322,31.63 168.047,31.379 168.443,32.037 163.111,46.728 161.99,46.321 							"/>
							<polygon points="166.102,31.187 166.827,30.937 167.223,31.595 161.892,46.285 160.77,45.878 							"/>
							<polygon points="164.882,30.745 165.608,30.494 166.003,31.152 160.672,45.842 159.55,45.435 							"/>
							<polygon points="163.662,30.302 164.388,30.051 164.784,30.709 159.452,45.399 158.33,44.992 							"/>
							<polygon points="162.442,29.859 163.168,29.608 163.564,30.266 158.232,44.957 157.11,44.55 							"/>
							<polygon points="161.222,29.417 161.948,29.166 162.344,29.824 157.012,44.514 155.89,44.107 							"/>
							<polygon points="160.002,28.974 160.728,28.723 161.124,29.381 155.792,44.071 154.671,43.664 							"/>
						</g>
					</g>
					<path style="fill:#FFC727;" d="M160.002,28.974c-1.977,3.071,1.099,6.976,4.427,7.866s5.412,0.563,6.099,2.656
						s-0.43,5.535,2.141,5.46c2.571-0.074,2.821-3.426,4.745-3.689c1.924-0.263,2.115-0.044,3.227-0.886
						c1.112-0.842,2.649-2.959,1.99-4.132c-0.659-1.173-5.751-2.325-8.876-3.542C170.63,31.49,161.01,27.409,160.002,28.974z"/>
					<path style="opacity:0.1;fill:#FFFFFF;" d="M160.002,28.974c-1.977,3.071,1.099,6.976,4.427,7.866s5.412,0.563,6.099,2.656
						s-0.43,5.535,2.141,5.46c2.571-0.074,2.821-3.426,4.745-3.689c1.924-0.263,2.115-0.044,3.227-0.886
						c1.112-0.842,2.649-2.959,1.99-4.132c-0.659-1.173-5.751-2.325-8.876-3.542C170.63,31.49,161.01,27.409,160.002,28.974z"/>
				</g>
				<g>
					<path style="fill:#EB9481;" d="M95.368,44.39c3.791,12.76,12.007,36.244,20.835,39.664c9.36,3.626,21.828-0.861,28.237-2.417
						c2.72-0.66-0.793-19.875-3.786-19.886c-2.942-0.011-14.927,3.03-17.123,2.603c-2.196-0.427-11.88-16.332-19.193-25.388
						C95.743,28.322,92.288,34.024,95.368,44.39z"/>
					<g>
						<path style="fill:#EB9481;" d="M169.977,66.667c0.484,2.093-1.433,3.222-1.433,3.222s1.248,1.177,1.319,2.824
							c0.081,1.886-2.841,2.839-2.841,2.839s1.017,1.453,0.916,3.2c-0.104,1.813-2.915,3.195-2.915,3.195s0.203,1.874-0.967,3.321
							c-2,2.475-6.825,1.888-9.895,1.545c-3.071-0.342-12.65-6.06-13.344-7.278l-4.171-17.252c0,0,15.295-4.17,24.168-1.423
							C163.766,61.775,169.433,64.318,169.977,66.667z"/>
						<g>
							<path style="fill:#263238;" d="M168.44,69.559c-2.986-1.583-6.277-2.197-9.527-2.997c-0.072-0.018-0.099,0.096-0.026,0.113
								c3.242,0.758,6.291,2.149,9.496,3.034C168.471,69.733,168.521,69.601,168.44,69.559z"/>
							<path style="fill:#263238;" d="M166.985,75.288c-0.686-0.338-1.482-0.448-2.226-0.592c-0.802-0.155-1.605-0.296-2.412-0.425
								c-1.614-0.258-3.234-0.479-4.86-0.652c-0.072-0.008-0.102,0.101-0.027,0.113c1.608,0.26,3.213,0.543,4.809,0.87
								c0.798,0.164,1.596,0.335,2.392,0.51c0.741,0.164,1.508,0.398,2.272,0.393C167.046,75.505,167.088,75.339,166.985,75.288z"/>
							<path style="fill:#263238;" d="M164.955,81.935c-0.584-0.318-1.383-0.336-2.033-0.426c-0.738-0.102-1.475-0.208-2.212-0.319
								c-1.473-0.221-2.946-0.442-4.411-0.714c-0.073-0.013-0.1,0.099-0.026,0.113c1.487,0.284,2.969,0.588,4.458,0.858
								c0.731,0.133,1.463,0.262,2.196,0.387c0.623,0.106,1.389,0.309,2.019,0.175C164.982,82.002,164.984,81.951,164.955,81.935z"
								/>
						</g>
					</g>
				</g>
				<g>
					<path style="fill:#063359;" d="M134.466,60.775l6.984,23.417c0,0-20.202,5.452-28.468-0.75
						c-8.266-6.201-16.678-30.48-18.682-41.008c-2.004-10.528,3.105-12.827,9.893-4.275c6.789,8.553,18.524,24.72,19.055,25.13
						C123.779,63.699,134.466,60.775,134.466,60.775z"/>
					<path style="display:none;opacity:0.1;" d="M100.237,41.485c-0.711,0.129-1.421,0.292-2.104,0.621
						c0.757,0.109,1.473,0.04,2.194-0.053c0.719-0.127,1.43-0.298,2.114-0.628C101.683,41.316,100.959,41.384,100.237,41.485z
						 M120.289,76.965c-0.719,0.127-1.427,0.282-2.112,0.62c0.757,0.109,1.481,0.042,2.204-0.06
						c0.719-0.127,1.421-0.292,2.106-0.629C121.736,76.796,121.005,76.854,120.289,76.965z M135.163,63.109
						c-0.308,0.015-0.604,0.057-0.9,0.1c-0.719,0.127-1.427,0.282-2.112,0.62c0.757,0.109,1.481,0.042,2.204-0.06
						c0.316-0.056,0.633-0.119,0.947-0.209L135.163,63.109z M113.282,59.573c-0.129-0.711-0.29-1.429-0.62-2.112
						c-0.109,0.757-0.042,1.481,0.06,2.204c0.121,0.71,0.292,1.421,0.621,2.104C113.452,61.012,113.383,60.296,113.282,59.573z
						 M112.405,82.128c-0.129-0.711-0.292-1.421-0.621-2.104c-0.107,0.749-0.04,1.473,0.061,2.195
						c0.021,0.106,0.041,0.22,0.062,0.326c0.2,0.184,0.402,0.359,0.599,0.517C112.485,82.745,112.444,82.44,112.405,82.128z
						 M130.343,72.674c-0.129-0.711-0.29-1.429-0.621-2.104c-0.107,0.749-0.04,1.473,0.061,2.196
						c0.129,0.711,0.29,1.429,0.621,2.104C130.513,74.113,130.445,73.397,130.343,72.674z M110.313,71.065
						c-0.594-0.415-1.211-0.8-1.932-1.046c0.464,0.6,1.021,1.075,1.604,1.505c0.594,0.415,1.21,0.808,1.931,1.054
						C111.452,71.969,110.894,71.502,110.313,71.065z M140.477,80.924c-0.257-0.237-0.528-0.452-0.806-0.669
						c-0.594-0.415-1.213-0.792-1.934-1.037c0.464,0.6,1.023,1.067,1.604,1.505c0.415,0.294,0.843,0.566,1.314,0.795L140.477,80.924
						z M102.88,52.539c-0.584-0.421-1.202-0.807-1.923-1.052c0.454,0.607,1.011,1.082,1.594,1.511
						c0.594,0.415,1.219,0.802,1.932,1.046C104.022,53.436,103.471,52.97,102.88,52.539z M103.454,64.594
						c-0.415,0.594-0.8,1.211-1.046,1.932c0.607-0.454,1.074-1.013,1.511-1.594c0.416-0.602,0.802-1.219,1.046-1.932
						C104.359,63.454,103.892,64.013,103.454,64.594z M122.114,67.521c-0.423,0.593-0.808,1.21-1.054,1.931
						c0.607-0.454,1.074-1.013,1.511-1.594c0.415-0.594,0.8-1.211,1.046-1.932C123.01,66.38,122.543,66.938,122.114,67.521z
						 M126.934,83.232c-0.416,0.602-0.802,1.219-1.054,1.931c0.615-0.453,1.082-1.011,1.511-1.594
						c0.423-0.593,0.8-1.211,1.046-1.932C127.837,82.101,127.37,82.659,126.934,83.232z"/>
					<g>
						<path style="fill:#263238;" d="M132.928,73.138c-0.447-1.679-0.932-3.347-1.418-5.015c-0.233-0.801-0.459-1.605-0.718-2.398
							c-0.279-0.854-0.497-1.752-0.835-2.583c-0.024-0.058-0.103-0.039-0.095,0.024c0.123,0.888,0.386,1.773,0.57,2.651
							c0.171,0.816,0.379,1.624,0.578,2.434c0.415,1.687,0.829,3.373,1.283,5.05c0.909,3.359,1.91,6.681,2.954,10
							c0.025,0.08,0.145,0.05,0.126-0.033C134.618,79.874,133.822,76.499,132.928,73.138z"/>
					</g>
					<path style="fill:#263238;" d="M107.37,76.804c-0.713-1.974-7.504-16.436-9.685-23.316c-0.935-2.949-1.794-5.92-2.704-8.876
						c-0.008-0.027-0.056-0.019-0.05,0.01c0.317,1.835,0.719,3.648,1.179,5.448c-0.053-0.118-0.101-0.238-0.157-0.355
						c-0.34-0.718-0.705-1.425-1.067-2.132c-0.022-0.043-0.093-0.007-0.075,0.037c0.301,0.752,0.596,1.51,0.928,2.249
						c0.211,0.469,0.446,0.924,0.675,1.383c0.213,0.782,0.417,1.567,0.673,2.337c3.871,11.658,8.927,21.374,10.16,23.257
						C107.293,76.917,107.398,76.882,107.37,76.804z"/>
				</g>
			</g>
			<g>
				<path style="fill:#063359;" d="M97.676,32.393c-3.551-3.023-14.385-6.35-19.475-4.326c-6.427,2.556-16.304,23.265-14.293,25.049
					c3.591,3.186,20.47-6.441,24.674-10.98C92.786,37.597,97.676,32.393,97.676,32.393z"/>
				<path style="display:none;opacity:0.1;" d="M81.653,27.45c-0.326,0.176-0.636,0.377-0.927,0.611
					c0.753-0.066,1.444-0.295,2.116-0.558c0.033-0.009,0.057-0.027,0.09-0.036C82.5,27.44,82.068,27.437,81.653,27.45z
					 M73.991,32.686c-0.107-0.246-0.215-0.491-0.339-0.728c-0.12,0.145-0.24,0.298-0.368,0.452c0.055,0.164,0.118,0.328,0.182,0.492
					c0.279,0.664,0.607,1.317,1.082,1.908C74.483,34.048,74.254,33.366,73.991,32.686z M90.422,34.202
					c-0.279-0.672-0.607-1.317-1.082-1.908c0.066,0.753,0.295,1.444,0.558,2.116c0.279,0.672,0.607,1.326,1.083,1.916
					C90.914,35.573,90.684,34.874,90.422,34.202z M68.928,44.14c-0.673-0.269-1.361-0.504-2.119-0.58
					c0.58,0.488,1.23,0.816,1.895,1.11c0.681,0.269,1.37,0.504,2.119,0.58C70.243,44.762,69.593,44.434,68.928,44.14z
					 M79.274,39.483c-0.277,0.673-0.504,1.361-0.58,2.119c0.48-0.58,0.807-1.238,1.101-1.903c0.278-0.665,0.505-1.353,0.588-2.111
					C79.896,38.168,79.568,38.817,79.274,39.483z"/>
				<path style="fill:#263238;" d="M93.41,38.301c-0.885,0.603-1.789,1.182-2.667,1.796c1.276-1.307,2.563-2.605,3.799-3.946
					c0.042-0.045-0.022-0.12-0.073-0.082c-1.629,1.237-3.069,2.732-4.557,4.13c-1.525,1.433-3.057,2.864-4.655,4.218
					c-1.592,1.349-3.232,2.645-5.007,3.745c-1.866,1.157-3.857,2.111-5.871,2.98c-1.14,0.492-2.292,0.958-3.451,1.402
					c-1.192,0.457-2.948,0.968-3.825,1.12c-0.24,0.042-0.108,0.143-0.025,0.133c1.053-0.129,2.228-0.442,3.235-0.765
					c1.093-0.351,2.188-0.696,3.275-1.064c2.08-0.703,4.139-1.491,6.077-2.53c3.8-2.039,6.889-4.97,9.839-8.07
					c0.057-0.06,0.116-0.118,0.173-0.178c0.526-0.37,1.044-0.751,1.55-1.151c0.731-0.578,1.481-1.118,2.257-1.634
					C93.553,38.362,93.479,38.254,93.41,38.301z"/>
			</g>
		</g>
	</g>
</g>
<g id="Layer_1">
</g>
</svg>
