<?xml version="1.0" encoding="iso-8859-1"?>
<!-- Generator: Adobe Illustrator 25.4.1, SVG Export Plug-In . SVG Version: 6.00 Build 0)  -->
<svg version="1.1" xmlns="http://www.w3.org/2000/svg" xmlns:xlink="http://www.w3.org/1999/xlink" x="0px" y="0px"
	 viewBox="0 0 32.42 32.085" style="enable-background:new 0 0 32.42 32.085;" xml:space="preserve">
<g id="gear_x5F_2">
	<g>
		<g>
			<g>
				<path style="fill:#455A64;" d="M15.392,22.304c3.433,0.316,6.472-2.182,6.791-5.577c0.319-3.401-2.205-6.405-5.638-6.721
					c-3.43-0.316-6.466,2.179-6.785,5.577C9.441,18.977,11.962,21.988,15.392,22.304z M10.516,15.654
					c0.28-2.985,2.948-5.177,5.961-4.9c3.013,0.277,5.228,2.917,4.948,5.902c-0.28,2.982-2.948,5.174-5.964,4.897
					C12.451,21.276,10.236,18.636,10.516,15.654z M15.392,22.304c3.433,0.316,6.472-2.182,6.791-5.577
					c0.319-3.401-2.205-6.405-5.638-6.721c-3.43-0.316-6.466,2.179-6.785,5.577C9.441,18.977,11.962,21.988,15.392,22.304z
					 M10.516,15.654c0.28-2.985,2.948-5.177,5.961-4.9c3.013,0.277,5.228,2.917,4.948,5.902c-0.28,2.982-2.948,5.174-5.964,4.897
					C12.451,21.276,10.236,18.636,10.516,15.654z M15.392,22.304c3.433,0.316,6.472-2.182,6.791-5.577
					c0.319-3.401-2.205-6.405-5.638-6.721c-3.43-0.316-6.466,2.179-6.785,5.577C9.441,18.977,11.962,21.988,15.392,22.304z
					 M10.516,15.654c0.28-2.985,2.948-5.177,5.961-4.9c3.013,0.277,5.228,2.917,4.948,5.902c-0.28,2.982-2.948,5.174-5.964,4.897
					C12.451,21.276,10.236,18.636,10.516,15.654z M14.751,29.116c7.238,0.664,13.641-4.603,14.316-11.756
					c0.671-7.156-4.645-13.5-11.879-14.164C9.959,2.531,3.549,7.795,2.878,14.951C2.204,22.104,7.523,28.451,14.751,29.116z
					 M8.793,15.496c0.368-3.92,3.886-6.811,7.844-6.447c3.958,0.364,6.879,3.846,6.511,7.765c-0.368,3.92-3.889,6.808-7.847,6.444
					C11.347,22.894,8.425,19.413,8.793,15.496z M9.761,15.583c-0.319,3.395,2.202,6.405,5.632,6.721
					c3.433,0.316,6.472-2.182,6.791-5.577c0.319-3.401-2.205-6.405-5.638-6.721C13.116,9.69,10.08,12.185,9.761,15.583z
					 M10.516,15.654c0.28-2.985,2.948-5.177,5.961-4.9c3.013,0.277,5.228,2.917,4.948,5.902c-0.28,2.982-2.948,5.174-5.964,4.897
					C12.451,21.276,10.236,18.636,10.516,15.654z M15.392,22.304c3.433,0.316,6.472-2.182,6.791-5.577
					c0.319-3.401-2.205-6.405-5.638-6.721c-3.43-0.316-6.466,2.179-6.785,5.577C9.441,18.977,11.962,21.988,15.392,22.304z
					 M10.516,15.654c0.28-2.985,2.948-5.177,5.961-4.9c3.013,0.277,5.228,2.917,4.948,5.902c-0.28,2.982-2.948,5.174-5.964,4.897
					C12.451,21.276,10.236,18.636,10.516,15.654z M15.392,22.304c3.433,0.316,6.472-2.182,6.791-5.577
					c0.319-3.401-2.205-6.405-5.638-6.721c-3.43-0.316-6.466,2.179-6.785,5.577C9.441,18.977,11.962,21.988,15.392,22.304z
					 M10.516,15.654c0.28-2.985,2.948-5.177,5.961-4.9c3.013,0.277,5.228,2.917,4.948,5.902c-0.28,2.982-2.948,5.174-5.964,4.897
					C12.451,21.276,10.236,18.636,10.516,15.654z"/>
				<g>
					<polygon style="fill:#455A64;" points="14.62,3.502 19.655,3.965 19.708,0.412 15.23,0 					"/>
					<polygon style="fill:#455A64;" points="24.046,6.062 27.276,9.913 29.852,7.438 26.979,4.012 					"/>
					<polygon style="fill:#455A64;" points="28.882,14.469 28.414,19.452 32.004,19.504 32.42,15.072 					"/>
					<polygon style="fill:#455A64;" points="26.295,23.797 22.404,26.994 24.905,29.543 28.366,26.7 					"/>
					<polygon style="fill:#455A64;" points="17.801,28.583 12.765,28.12 12.713,31.673 17.191,32.085 					"/>
					<polygon style="fill:#455A64;" points="8.374,26.023 5.145,22.172 2.569,24.647 5.441,28.073 					"/>
					<polygon style="fill:#455A64;" points="3.538,17.616 4.006,12.633 0.416,12.581 0,17.013 					"/>
					<polygon style="fill:#455A64;" points="6.125,8.288 10.017,5.092 7.515,2.542 4.054,5.385 					"/>
				</g>
			</g>
		</g>
	</g>
</g>
<g id="Layer_1">
</g>
</svg>
