<?xml version="1.0" encoding="iso-8859-1"?>
<!-- Generator: Adobe Illustrator 25.4.1, SVG Export Plug-In . SVG Version: 6.00 Build 0)  -->
<svg version="1.1" xmlns="http://www.w3.org/2000/svg" xmlns:xlink="http://www.w3.org/1999/xlink" x="0px" y="0px"
	 viewBox="0 0 39.475 39.067" style="enable-background:new 0 0 39.475 39.067;" xml:space="preserve">
<g id="gear_x5F_1">
	<g>
		<g>
			<g>
				<path style="fill:#DBDBDB;" d="M18.742,27.158c4.18,0.385,7.881-2.657,8.269-6.79c0.389-4.141-2.685-7.799-6.865-8.184
					c-4.176-0.385-7.873,2.653-8.261,6.79C11.496,23.107,14.566,26.773,18.742,27.158z M12.805,19.06
					c0.341-3.634,3.589-6.303,7.258-5.966c3.669,0.338,6.366,3.552,6.024,7.187c-0.341,3.631-3.589,6.3-7.262,5.962
					C15.161,25.906,12.464,22.691,12.805,19.06z M18.742,27.158c4.18,0.385,7.881-2.657,8.269-6.79
					c0.389-4.141-2.685-7.799-6.865-8.184c-4.176-0.385-7.873,2.653-8.261,6.79C11.496,23.107,14.566,26.773,18.742,27.158z
					 M12.805,19.06c0.341-3.634,3.589-6.303,7.258-5.966c3.669,0.338,6.366,3.552,6.024,7.187c-0.341,3.631-3.589,6.3-7.262,5.962
					C15.161,25.906,12.464,22.691,12.805,19.06z M18.742,27.158c4.18,0.385,7.881-2.657,8.269-6.79
					c0.389-4.141-2.685-7.799-6.865-8.184c-4.176-0.385-7.873,2.653-8.261,6.79C11.496,23.107,14.566,26.773,18.742,27.158z
					 M12.805,19.06c0.341-3.634,3.589-6.303,7.258-5.966c3.669,0.338,6.366,3.552,6.024,7.187c-0.341,3.631-3.589,6.3-7.262,5.962
					C15.161,25.906,12.464,22.691,12.805,19.06z M17.961,35.451c8.813,0.809,16.61-5.605,17.431-14.315
					c0.817-8.714-5.656-16.438-14.464-17.247C12.126,3.081,4.321,9.491,3.504,18.205C2.683,26.914,9.16,34.643,17.961,35.451z
					 M10.707,18.868c0.448-4.773,4.732-8.294,9.55-7.85c4.819,0.443,8.376,4.682,7.928,9.455c-0.448,4.773-4.735,8.29-9.554,7.846
					C13.816,27.876,10.259,23.637,10.707,18.868z M11.885,18.974c-0.389,4.133,2.681,7.799,6.857,8.184
					c4.18,0.385,7.881-2.657,8.269-6.79c0.389-4.141-2.685-7.799-6.865-8.184C15.97,11.799,12.273,14.837,11.885,18.974z
					 M12.805,19.06c0.341-3.634,3.589-6.303,7.258-5.966c3.669,0.338,6.366,3.552,6.024,7.187c-0.341,3.631-3.589,6.3-7.262,5.962
					C15.161,25.906,12.464,22.691,12.805,19.06z M18.742,27.158c4.18,0.385,7.881-2.657,8.269-6.79
					c0.389-4.141-2.685-7.799-6.865-8.184c-4.176-0.385-7.873,2.653-8.261,6.79C11.496,23.107,14.566,26.773,18.742,27.158z
					 M12.805,19.06c0.341-3.634,3.589-6.303,7.258-5.966c3.669,0.338,6.366,3.552,6.024,7.187c-0.341,3.631-3.589,6.3-7.262,5.962
					C15.161,25.906,12.464,22.691,12.805,19.06z M18.742,27.158c4.18,0.385,7.881-2.657,8.269-6.79
					c0.389-4.141-2.685-7.799-6.865-8.184c-4.176-0.385-7.873,2.653-8.261,6.79C11.496,23.107,14.566,26.773,18.742,27.158z
					 M12.805,19.06c0.341-3.634,3.589-6.303,7.258-5.966c3.669,0.338,6.366,3.552,6.024,7.187c-0.341,3.631-3.589,6.3-7.262,5.962
					C15.161,25.906,12.464,22.691,12.805,19.06z"/>
				<g>
					<polygon style="fill:#DBDBDB;" points="17.801,4.264 23.932,4.828 23.996,0.501 18.544,0 					"/>
					<polygon style="fill:#DBDBDB;" points="29.279,7.381 33.211,12.07 36.347,9.056 32.85,4.886 					"/>
					<polygon style="fill:#DBDBDB;" points="35.167,17.617 34.597,23.685 38.969,23.748 39.475,18.352 					"/>
					<polygon style="fill:#DBDBDB;" points="32.017,28.976 27.279,32.867 30.325,35.971 34.539,32.51 					"/>
					<polygon style="fill:#DBDBDB;" points="21.674,34.803 15.543,34.239 15.479,38.565 20.932,39.067 					"/>
					<polygon style="fill:#DBDBDB;" points="10.197,31.686 6.264,26.997 3.128,30.011 6.625,34.181 					"/>
					<polygon style="fill:#DBDBDB;" points="4.308,21.45 4.878,15.382 0.507,15.319 0,20.715 					"/>
					<polygon style="fill:#DBDBDB;" points="7.458,10.091 12.196,6.2 9.151,3.095 4.937,6.557 					"/>
				</g>
			</g>
		</g>
	</g>
</g>
<g id="Layer_1">
</g>
</svg>
