<?xml version="1.0" encoding="iso-8859-1"?>
<!-- Generator: Adobe Illustrator 25.4.1, SVG Export Plug-In . SVG Version: 6.00 Build 0)  -->
<svg version="1.1" xmlns="http://www.w3.org/2000/svg" xmlns:xlink="http://www.w3.org/1999/xlink" x="0px" y="0px"
	 viewBox="0 0 54.175 53.614" style="enable-background:new 0 0 54.175 53.614;" xml:space="preserve">
<g id="gear_x5F_3">
	<g>
		<g>
			<path style="fill:#263238;" d="M4.51,27.031c0,12.127,9.939,21.963,22.193,21.963c12.259,0,22.193-9.836,22.193-21.963
				c0-12.133-9.933-21.963-22.193-21.963C14.449,5.068,4.51,14.899,4.51,27.031z M16.336,27.031c0-5.666,4.642-10.26,10.367-10.26
				s10.367,4.593,10.367,10.26s-4.641,10.254-10.367,10.254S16.336,32.698,16.336,27.031z"/>
			<polygon style="fill:#263238;" points="22.436,5.979 30.971,5.979 30.499,0 22.908,0 			"/>
			<polygon style="fill:#263238;" points="38.68,8.824 44.715,14.797 48.653,10.239 43.286,4.927 			"/>
			<polygon style="fill:#263238;" points="48.133,22.204 48.133,30.65 54.175,30.183 54.175,22.671 			"/>
			<polygon style="fill:#263238;" points="45.258,38.28 39.223,44.253 43.829,48.15 49.196,42.838 			"/>
			<polygon style="fill:#263238;" points="31.738,47.636 23.204,47.636 23.676,53.614 31.266,53.614 			"/>
			<polygon style="fill:#263238;" points="15.494,44.79 9.46,38.818 5.521,43.375 10.889,48.687 			"/>
			<polygon style="fill:#263238;" points="6.041,31.41 6.041,22.964 0,23.431 0,30.943 			"/>
			<polygon style="fill:#263238;" points="8.917,15.334 14.951,9.362 10.346,5.464 4.978,10.776 			"/>
		</g>
		<path style="fill:#263238;" d="M31.711,22.075l-6.843-1.816l-5.008,4.961l1.835,6.767l6.838,1.816l5.013-4.956L31.711,22.075z
			 M26.703,29.254c-1.243,0-2.246-0.992-2.246-2.223c0-1.225,1.003-2.223,2.246-2.223c1.238,0,2.246,0.997,2.246,2.223
			C28.949,28.262,27.941,29.254,26.703,29.254z"/>
	</g>
</g>
<g id="Layer_1">
</g>
</svg>
