<?xml version="1.0" encoding="iso-8859-1"?>
<!-- Generator: Adobe Illustrator 25.4.1, SVG Export Plug-In . SVG Version: 6.00 Build 0)  -->
<svg version="1.1" xmlns="http://www.w3.org/2000/svg" xmlns:xlink="http://www.w3.org/1999/xlink" x="0px" y="0px"
	 viewBox="0 0 124.313 197.52" style="enable-background:new 0 0 124.313 197.52;" xml:space="preserve">
<g id="ladder">
	<g>
		<g>
			<polygon style="fill:#FFC727;" points="124.313,187.89 119.517,187.89 80.981,8.455 40.388,8.455 63.585,187.89 58.851,187.89 
				35.112,4.298 84.882,4.298 			"/>
			<polygon style="opacity:0.6;" points="124.313,187.89 119.517,187.89 80.981,8.455 40.388,8.455 63.585,187.89 58.851,187.89 
				35.112,4.298 84.882,4.298 			"/>
			<g>
				<rect x="31.989" y="0" style="fill:#FFC727;" width="55.179" height="4.957"/>
				<rect x="31.989" y="0" style="opacity:0.4;" width="55.179" height="4.957"/>
			</g>
		</g>
		<g>
			<g>
				<polygon style="fill:#FFC727;" points="84.86,4.957 65.447,197.52 60.713,197.52 79.655,9.667 39.047,9.667 4.789,197.52 
					0,197.52 35.114,4.957 				"/>
				<rect x="31.834" y="46.355" style="fill:#FFC727;" width="47.985" height="4.71"/>
				<rect x="24.219" y="84.539" style="fill:#FFC727;" width="47.985" height="4.71"/>
				<rect x="16.102" y="122.723" style="fill:#FFC727;" width="52.365" height="4.71"/>
				<rect x="9.856" y="160.906" style="fill:#FFC727;" width="55.722" height="4.71"/>
			</g>
			<g style="opacity:0.4;">
				<polygon points="84.86,4.957 65.447,197.52 60.713,197.52 79.655,9.667 39.047,9.667 4.789,197.52 0,197.52 35.114,4.957 				
					"/>
				<rect x="31.834" y="46.355" width="47.985" height="4.71"/>
				<rect x="24.219" y="84.539" width="47.985" height="4.71"/>
				<rect x="16.102" y="122.723" width="52.365" height="4.71"/>
				<rect x="9.856" y="160.906" width="55.722" height="4.71"/>
			</g>
		</g>
	</g>
</g>
<g id="Layer_1">
</g>
</svg>
