<?xml version="1.0" encoding="iso-8859-1"?>
<!-- Generator: Adobe Illustrator 25.4.1, SVG Export Plug-In . SVG Version: 6.00 Build 0)  -->
<svg version="1.1" xmlns="http://www.w3.org/2000/svg" xmlns:xlink="http://www.w3.org/1999/xlink" x="0px" y="0px"
	 viewBox="0 0 25.724 37.501" style="enable-background:new 0 0 25.724 37.501;" xml:space="preserve">
<g id="painting_x5F_pot">
	<g>
		<path style="fill:#455A64;" d="M21.344,37.501H4.379C1.961,37.501,0,35.54,0,33.122V9.492c0-2.419,1.961-4.379,4.379-4.379h16.965
			c2.419,0,4.379,1.961,4.379,4.379v23.63C25.724,35.54,23.763,37.501,21.344,37.501z"/>
		<rect x="3.246" y="0" style="fill:#455A64;" width="19.232" height="5.113"/>
		<path style="fill:#263238;" d="M4.427,5C8.896,4.782,19.841,4.77,21.318,5.015c0.033,0.005,0.033,0.06,0,0.066
			C19.84,5.325,9.634,5.632,4.427,5.094C4.366,5.088,4.366,5.003,4.427,5z"/>
	</g>
</g>
<g id="Layer_1">
</g>
</svg>
