<svg width="264" height="163" viewBox="0 0 264 163" fill="none" xmlns="http://www.w3.org/2000/svg">
<path d="M250.292 95.5797L165.16 145.07C147.102 155.508 117.619 155.508 99.3391 145.07L13.7401 95.5797C4.57583 90.2746 -0.0186118 83.2993 0.00595739 76.3731V86.1975C0.00595739 93.1236 4.57583 100.074 13.7401 105.38L99.3146 154.894C117.619 165.333 147.102 165.333 165.135 154.894L250.292 105.404C259.309 100.173 263.805 93.3201 263.83 86.4677V76.6433C263.707 83.4958 259.211 90.3483 250.292 95.5797Z" fill="#44C4FF"/>
<path d="M249.999 57.4613C268.229 67.9734 268.327 85.0431 250.195 95.5798L165.161 145.07C147.103 155.508 117.62 155.508 99.3404 145.07L13.7414 95.5798C-4.48892 85.0431 -4.5872 67.9734 13.5203 57.4613L98.5788 8.04484C116.686 -2.46722 146.145 -2.46722 164.4 8.04484L249.999 57.4613Z" fill="#F5FBFF"/>
</svg>
