<svg width="40" height="40" viewBox="0 0 40 40" fill="none" xmlns="http://www.w3.org/2000/svg">
<path fill-rule="evenodd" clip-rule="evenodd" d="M0.361328 19.8809C0.361328 9.0116 9.17288 0.200012 20.0422 0.200012C30.9064 0.212158 39.711 9.01672 39.7231 19.8809C39.7231 30.7502 30.9116 39.5618 20.0422 39.5618C9.17288 39.5618 0.361328 30.7502 0.361328 19.8809ZM28.9099 18.0619C28.9936 17.5324 29.0458 16.9518 29.0589 16.3008C29.0548 14.0337 28.1727 12.9563 27.7037 12.3834C27.5952 12.2509 27.5088 12.1454 27.4604 12.0584C27.8391 9.9433 27.3977 8.98126 27.1925 8.65186C26.4353 8.38312 24.5581 9.34552 23.5325 10.0231C21.8602 9.53351 18.3263 9.5813 17.001 10.1497C14.5558 8.39886 13.2625 8.66583 13.2625 8.66583C13.2625 8.66583 12.4264 10.1651 13.0415 12.3585L12.994 12.4188C12.2135 13.4128 11.6373 14.1465 11.6373 16.0312C11.6373 16.4917 11.6659 16.9268 11.7144 17.3455C12.4073 20.9885 15.2939 22.5601 18.1295 22.8311C17.7028 23.1554 17.1905 23.7689 17.1197 24.4799C16.5835 24.8265 15.505 24.9411 14.6664 24.6775C14.1974 24.5293 13.844 24.0696 13.4767 23.5918C12.9238 22.8725 12.339 22.1118 11.2818 22.3112C10.9011 22.3824 10.9767 22.6335 11.3064 22.8476C11.8425 23.1954 12.3474 23.6276 12.7366 24.5526C13.0356 25.2627 13.6642 26.5307 15.6519 26.5307C16.441 26.5307 16.9937 26.4374 16.9937 26.4374C16.9937 26.4374 17.0087 28.247 17.0087 28.9528C17.0087 29.4326 16.6261 29.7086 16.313 29.9344C16.0961 30.0909 15.9126 30.2233 15.9126 30.3827C15.9126 30.5377 16.2754 30.5524 16.567 30.5524C17.1431 30.5524 18.342 30.0724 18.342 29.2283C18.342 28.8486 18.3454 27.962 18.3484 27.1922C18.3507 26.6016 18.3527 26.0797 18.3527 25.9084C18.3527 25.0458 18.815 24.7711 18.815 24.7711C18.815 24.7711 18.8716 29.3758 18.7037 29.9931C18.5923 30.4041 18.4297 30.5494 18.3095 30.6567C18.2175 30.739 18.1504 30.7989 18.1504 30.9391C18.1504 31.4212 19.5917 31.0569 20.0697 30.0016C20.4395 29.1772 20.2739 24.6617 20.2739 24.6617L20.6595 24.6533C20.6595 24.6533 20.6639 26.7214 20.6506 27.6662C20.6491 27.7722 20.6466 27.8813 20.644 27.9923C20.6229 28.9052 20.5988 29.9451 21.117 30.4658C21.4985 30.8498 22.6673 31.5236 22.6673 30.9078C22.6673 30.7729 22.5504 30.6469 22.4049 30.4901C22.1655 30.2321 21.8488 29.8906 21.8488 29.2892V24.8353C22.3461 24.8353 22.4488 26.2993 22.4488 26.2993L22.628 29.0193C22.628 29.0193 22.5091 30.0118 23.7003 30.426C24.1208 30.5733 25.0204 30.6133 25.0625 30.3661C25.0785 30.2726 24.9283 30.1622 24.7344 30.0198C24.4144 29.7846 23.9753 29.462 23.9686 28.9836C23.9673 28.8745 23.9677 28.776 23.9691 28.6633C23.9701 28.5893 23.9714 28.5092 23.9731 28.416C23.9795 28.0419 23.9896 27.4563 23.9896 26.2067C23.9896 24.1728 23.7164 23.4204 22.7642 22.8207C25.5254 22.5374 28.3932 21.3043 28.9099 18.0619Z" fill="#222222"/>
</svg>
