<svg width="40" height="40" viewBox="0 0 40 40" fill="none" xmlns="http://www.w3.org/2000/svg">
<path d="M27.0943 13.5304L19.6813 19.8828L12.2682 13.5304H27.0943Z" fill="#222222"/>
<path d="M11.1529 26.651V14.3005L19.2543 21.2445C19.4997 21.4547 19.8616 21.4547 20.107 21.2445L28.2097 14.3005V26.651H11.1529Z" fill="#222222"/>
<path fill-rule="evenodd" clip-rule="evenodd" d="M0 20.0903C0 9.22089 8.81155 0.409363 19.6809 0.409363C30.5451 0.421509 39.3496 9.22607 39.3618 20.0903C39.3618 30.9596 30.5502 39.7711 19.6809 39.7711C8.81155 39.7711 0 30.9596 0 20.0903ZM28.8657 12.2183H10.4969C10.1346 12.2183 9.84085 12.512 9.84085 12.8743V27.307C9.84085 27.6693 10.1346 27.963 10.4969 27.963H28.8657C29.228 27.963 29.5218 27.6693 29.5218 27.307V12.8743C29.5218 12.512 29.228 12.2183 28.8657 12.2183Z" fill="#222222"/>
</svg>
