<svg width="60" height="60" viewBox="0 0 60 60" fill="none" xmlns="http://www.w3.org/2000/svg">
<path fill-rule="evenodd" clip-rule="evenodd" d="M30.1846 57.6895C14.9675 57.6895 2.63135 45.3534 2.63135 30.1363C2.63135 14.9192 14.9675 2.58301 30.1846 2.58301C45.4018 2.58301 57.7379 14.9192 57.7379 30.1363C57.7206 45.3462 45.3945 57.6722 30.1846 57.6895ZM16.4079 18.3277H43.9611C44.5046 18.3277 44.9452 18.7683 44.9452 19.3117V40.9607C44.9452 41.5042 44.5046 41.9447 43.9611 41.9447H16.4079C15.8645 41.9447 15.4239 41.5042 15.4239 40.9607V19.3117C15.4239 18.7683 15.8645 18.3277 16.4079 18.3277ZM30.1845 29.8244L41.304 20.2958H19.065L30.1845 29.8244ZM17.3919 21.4509V39.9767H42.9771V21.4509L30.8231 31.867C30.4551 32.1822 29.9121 32.1822 29.544 31.867L17.3919 21.4509Z" fill="#2E2E46"/>
<path d="M30.1839 0.614258C13.8799 0.614258 0.662598 13.8316 0.662598 30.1356C0.662598 46.4396 13.8799 59.6569 30.1839 59.6569C46.4879 59.6569 59.7053 46.4396 59.7053 30.1356C59.6871 13.8393 46.4803 0.632517 30.1839 0.614258ZM30.1839 57.6888C14.9668 57.6888 2.63069 45.3528 2.63069 30.1356C2.63069 14.9184 14.9668 2.58235 30.1839 2.58235C45.4011 2.58235 57.7372 14.9184 57.7372 30.1356C57.7199 45.3456 45.3939 57.6716 30.1839 57.6888Z" fill="#2E2E46"/>
</svg>
