<svg width="40" height="40" viewBox="0 0 40 40" fill="none" xmlns="http://www.w3.org/2000/svg">
<path d="M39.5 20C39.5 30.7696 30.7696 39.5 20 39.5C9.23045 39.5 0.5 30.7696 0.5 20C0.5 9.23045 9.23045 0.5 20 0.5C30.7696 0.5 39.5 9.23045 39.5 20ZM30.0652 15.057C29.7891 14.0238 28.9766 13.2113 27.9435 12.935C27.5015 12.8166 26.7733 12.7362 25.9714 12.6777C25.1555 12.6181 24.2195 12.5787 23.3369 12.5525C22.4535 12.5262 21.6197 12.5131 21.0069 12.5066C20.7005 12.5033 20.4491 12.5016 20.2741 12.5008L20.0717 12.5001L20.0185 12.5L20.0048 12.5L20.0013 12.5H20.0004H20.0001C20 12.5 20 12.5 20 13C20 12.5 20 12.5 19.9999 12.5H19.9996H19.9987L19.9952 12.5L19.9815 12.5L19.9283 12.5001L19.7259 12.5008C19.5509 12.5016 19.2995 12.5033 18.9931 12.5066C18.3803 12.5131 17.5465 12.5262 16.6631 12.5525C15.7805 12.5787 14.8445 12.6181 14.0286 12.6777C13.2267 12.7362 12.4985 12.8166 12.0565 12.935C11.0236 13.2113 10.2109 14.0237 9.93477 15.057C9.71069 15.8937 9.60503 17.1454 9.5529 18.1522C9.52644 18.663 9.51323 19.1241 9.50663 19.4574C9.50332 19.6241 9.50167 19.7592 9.50084 19.8528L9.50011 19.9611L9.50001 19.9897L9.5 19.9973L9.5 19.9993V19.9999V20L10 20.0001L9.5 20.0002V20.0004V20.001L9.5 20.003L9.50001 20.0105L9.50011 20.0392L9.50084 20.1474C9.50167 20.2411 9.50332 20.3761 9.50663 20.5429C9.51323 20.8761 9.52644 21.3371 9.5529 21.848C9.60503 22.8547 9.71069 24.1064 9.93477 24.943C10.2109 25.9763 11.0237 26.7891 12.0568 27.0652C12.4988 27.1836 13.2269 27.2639 14.0286 27.3224C14.8445 27.3819 15.7805 27.4213 16.6631 27.4476C17.5465 27.4738 18.3803 27.4869 18.9931 27.4934C19.2995 27.4967 19.551 27.4984 19.7259 27.4992L19.9283 27.4999L19.9815 27.5L19.9952 27.5L19.9987 27.5H19.9996H19.9999C20 27.5 20 27.5 20 27C20 27.5 20 27.5 20.0001 27.5H20.0004H20.0013L20.0048 27.5L20.0185 27.5L20.0717 27.4999L20.2741 27.4992C20.449 27.4984 20.7005 27.4967 21.0069 27.4934C21.6197 27.4869 22.4535 27.4738 23.3369 27.4476C24.2195 27.4213 25.1555 27.3819 25.9714 27.3224C26.7732 27.2639 27.5015 27.1835 27.9434 27.0652C28.9766 26.789 29.7889 25.9763 30.0652 24.9433C30.2893 24.1067 30.395 22.8548 30.4471 21.848C30.4736 21.3371 30.4868 20.8761 30.4934 20.5429C30.4967 20.3761 30.4983 20.2411 30.4992 20.1474L30.4999 20.0392L30.5 20.0105L30.5 20.003L30.5 20.001V20.0004V20.0002L30 20.0001L30.5 20V19.9999V19.9993L30.5 19.9973L30.5 19.9897L30.4999 19.9611L30.4992 19.8528C30.4983 19.7592 30.4967 19.6241 30.4934 19.4574C30.4868 19.1241 30.4736 18.663 30.4471 18.1522C30.395 17.1454 30.2893 15.8937 30.0652 15.057ZM18.4999 22.1341V17.8661L22.196 20.0001L18.4999 22.1341Z" fill="black" stroke="black"/>
</svg>
