<svg width="40" height="40" viewBox="0 0 40 40" fill="none" xmlns="http://www.w3.org/2000/svg">
<path fill-rule="evenodd" clip-rule="evenodd" d="M20 40C31.0457 40 40 31.0457 40 20C40 8.9543 31.0457 0 20 0C8.9543 0 0 8.9543 0 20C0 31.0457 8.9543 40 20 40ZM25.4218 13.0157V9.6L23.6929 9.6068C22.7421 9.61057 21.8022 9.63673 21.6044 9.66495C21.16 9.72829 20.3531 9.99437 20.0087 10.1911C19.1376 10.6888 18.5057 11.4344 18.1466 12.3883C17.8571 13.1573 17.8322 13.3733 17.8032 15.367L17.776 17.234H14.5781V20.8851H17.787V30.4H21.6038L21.6321 20.9128L25.2559 20.8836V17.234H21.5953L21.6321 14.1556L21.7989 13.8296C21.9798 13.476 22.2867 13.2361 22.6917 13.1316C22.8087 13.1014 23.471 13.0629 24.1632 13.0462L25.4218 13.0157Z" fill="black"/>
</svg>
