<svg width="41" height="40" viewBox="0 0 41 40" fill="none" xmlns="http://www.w3.org/2000/svg">
<path d="M25.627 12.9971V9.57227L23.8701 9.5791C22.9038 9.58276 21.9487 9.60913 21.7476 9.63745C21.4805 9.67505 21.0845 9.78394 20.7329 9.90723C20.4902 9.99243 20.269 10.0845 20.126 10.165C19.5977 10.4629 19.1558 10.8494 18.8076 11.3162C18.5728 11.6311 18.3809 11.9827 18.2339 12.3679C17.9395 13.1392 17.9141 13.3557 17.8848 15.3547L17.8569 17.2266H14.6074V20.8875H17.8682V30.4277H21.7471L21.7759 20.9153L25.4585 20.886V17.2266H21.7383L21.7759 14.1401L21.9453 13.8132C22.1294 13.4587 22.4409 13.218 22.8525 13.1133C22.9307 13.0935 23.2451 13.0703 23.6504 13.0518C23.8647 13.042 24.1045 13.0334 24.3481 13.0276L25.627 12.9971Z" fill="#222222"/>
<path fill-rule="evenodd" clip-rule="evenodd" d="M0.116699 20C0.116699 8.95435 9.07129 0 20.1167 0C31.1572 0.0124512 40.1045 8.95972 40.1167 20C40.1167 31.0457 31.1621 40 20.1167 40C9.07129 40 0.116699 31.0457 0.116699 20ZM1.4502 20C1.4502 30.3093 9.80762 38.6667 20.1167 38.6667C30.4209 38.655 38.7715 30.3044 38.7832 20C38.7832 9.69067 30.4258 1.33325 20.1167 1.33325C9.80762 1.33325 1.4502 9.69067 1.4502 20Z" fill="#222222"/>
</svg>
