<svg width="40" height="40" viewBox="0 0 40 40" fill="none" xmlns="http://www.w3.org/2000/svg">
<path d="M29.0579 16.4191C29.0448 17.07 28.9926 17.6506 28.9089 18.1801C28.3923 21.4225 25.5244 22.6556 22.7633 22.939C23.7154 23.5386 23.9886 24.291 23.9886 26.325C23.9886 27.5746 23.9786 28.1601 23.9721 28.5343C23.9681 28.7695 23.9655 28.9212 23.9677 29.1018C23.9743 29.5803 24.4135 29.903 24.7336 30.1381C24.9274 30.2805 25.0775 30.3909 25.0616 30.4843C25.0194 30.7316 24.1198 30.6915 23.6992 30.5442C22.5081 30.13 22.6271 29.1375 22.6271 29.1375L22.4478 26.4176C22.4478 26.4176 22.3451 24.9535 21.8478 24.9535V29.4074C21.8478 30.0089 22.1646 30.3503 22.4039 30.6084C22.5494 30.7652 22.6663 30.8912 22.6663 31.0261C22.6663 31.6418 21.4975 30.968 21.116 30.584C20.5977 30.0634 20.6219 29.0234 20.6431 28.1104C20.6456 27.9995 20.6482 27.8905 20.6497 27.7845C20.6629 26.8396 20.6585 24.7715 20.6585 24.7715L20.273 24.78C20.273 24.78 20.4386 29.2955 20.0688 30.1198C19.5907 31.1752 18.1494 31.5395 18.1494 31.0573C18.1494 30.9171 18.2165 30.8572 18.3086 30.7749C18.4287 30.6676 18.5913 30.5224 18.7027 30.1114C18.8706 29.494 18.814 24.8894 18.814 24.8894C18.814 24.8894 18.3517 25.164 18.3517 26.0266C18.3517 26.198 18.3497 26.7198 18.3474 27.3104C18.3445 28.0802 18.341 28.9669 18.341 29.3465C18.341 30.1907 17.1422 30.6707 16.566 30.6707C16.2744 30.6707 15.9116 30.656 15.9116 30.501C15.9116 30.3415 16.0951 30.2091 16.312 30.0527C16.6252 29.8269 17.0078 29.5509 17.0078 29.071C17.0078 28.3653 16.9927 26.5557 16.9927 26.5557C16.9927 26.5557 16.44 26.649 15.6509 26.649C13.6633 26.649 13.0346 25.381 12.7356 24.6708C12.3465 23.7459 11.8416 23.3137 11.3055 22.9659C10.9757 22.7518 10.9001 22.5007 11.2808 22.4295C12.338 22.23 12.9224 22.9903 13.4754 23.7096C13.8428 24.1876 14.1963 24.6475 14.6654 24.7957C15.5041 25.0594 16.5825 24.9448 17.1187 24.5981C17.1895 23.8872 17.7018 23.2736 18.1285 22.9494C15.293 22.6784 12.4063 21.1068 11.7134 17.4637C11.6649 17.0451 11.6363 16.6099 11.6363 16.1494C11.6363 14.2647 12.2125 13.531 12.9931 12.5371L13.0405 12.4767C12.4254 10.2833 13.2616 8.78406 13.2616 8.78406C13.2616 8.78406 14.5548 8.51709 17 10.268C18.3253 9.69958 21.8593 9.65179 23.5315 10.1413C24.5571 9.46381 26.4343 8.50134 27.1915 8.77014C27.3968 9.09949 27.8382 10.0616 27.4595 12.1767C27.5078 12.2637 27.5942 12.3692 27.7027 12.5017C28.1717 13.0746 29.0539 14.152 29.0579 16.4191Z" fill="#222222"/>
<path fill-rule="evenodd" clip-rule="evenodd" d="M0.361328 19.9996C0.361328 9.13028 9.17285 0.318726 20.0422 0.318726C30.9065 0.330902 39.7109 9.13538 39.7231 19.9996C39.7231 30.8689 30.9116 39.6805 20.0422 39.6805C9.17285 39.6805 0.361328 30.8689 0.361328 19.9996ZM1.6734 19.9996C1.6734 30.1444 9.89746 38.3685 20.0422 38.3685C30.1822 38.3569 38.3995 30.1396 38.411 19.9996C38.411 9.85486 30.187 1.6308 20.0422 1.6308C9.89746 1.6308 1.6734 9.85486 1.6734 19.9996Z" fill="#222222"/>
</svg>
