<svg width="41" height="40" viewBox="0 0 41 40" fill="none" xmlns="http://www.w3.org/2000/svg">
<path d="M30.6505 28.1154H26.8335V22.037C26.8335 20.5886 26.8043 18.731 24.8447 18.731C22.8558 18.731 22.5514 20.305 22.5514 21.9327V28.1146H18.7305V15.6299H22.3999V17.3324H22.4537C22.9634 16.3514 24.2119 15.3167 26.0724 15.3167C29.9425 15.3167 30.6551 17.9012 30.6551 21.2563V28.1146L30.6505 28.1154Z" fill="#222222"/>
<path d="M12.5078 15.6302H16.3333V28.115H12.5078V15.6302Z" fill="#222222"/>
<path d="M12.2051 11.6607C12.2051 10.421 13.1976 9.41513 14.4207 9.41513C15.6431 9.41513 16.6356 10.421 16.6364 11.6607C16.6364 12.9004 15.6439 13.9273 14.4207 13.9273C13.1976 13.9273 12.2051 12.9004 12.2051 11.6607Z" fill="#222222"/>
<path fill-rule="evenodd" clip-rule="evenodd" d="M0.722656 20.0028C0.722656 8.98654 9.53418 0.0559082 20.4036 0.0559082C31.2678 0.0682373 40.0723 8.99173 40.0844 20.0028C40.0844 31.019 31.2729 39.9496 20.4036 39.9496C9.53418 39.9496 0.722656 31.019 0.722656 20.0028ZM2.03473 20.0028C2.03473 30.2846 10.2588 38.6198 20.4036 38.6198C30.5435 38.6081 38.7609 30.2797 38.7724 20.0028C38.7724 9.72092 30.5483 1.38571 20.4036 1.38571C10.2588 1.38571 2.03473 9.72092 2.03473 20.0028Z" fill="#222222"/>
</svg>
