<svg width="40" height="40" viewBox="0 0 40 40" fill="none" xmlns="http://www.w3.org/2000/svg">
<path fill-rule="evenodd" clip-rule="evenodd" d="M10.4979 12.0186H28.8667C29.229 12.0186 29.5227 12.3163 29.5227 12.6835V27.3112C29.5227 27.6784 29.229 27.9761 28.8667 27.9761H10.4979C10.1356 27.9761 9.8418 27.6784 9.8418 27.3112V12.6835C9.8418 12.3163 10.1356 12.0186 10.4979 12.0186ZM19.6823 19.7866L27.0953 13.3484H12.2693L19.6823 19.7866ZM11.1539 14.1289V26.6463H28.2107V14.1289L20.108 21.1668C19.8626 21.3798 19.5006 21.3798 19.2553 21.1668L11.1539 14.1289Z" fill="#222222"/>
<path fill-rule="evenodd" clip-rule="evenodd" d="M0 19.9975C0 8.98129 8.81152 0.0506592 19.6809 0.0506592C30.5451 0.0629883 39.3496 8.98648 39.3618 19.9975C39.3618 31.0137 30.5503 39.9444 19.6809 39.9444C8.81152 39.9444 0 31.0137 0 19.9975ZM1.31207 19.9975C1.31207 30.2794 9.53613 38.6146 19.6809 38.6146C29.8209 38.6029 38.0382 30.2745 38.0497 19.9975C38.0497 9.71567 29.8257 1.38046 19.6809 1.38046C9.53613 1.38046 1.31207 9.71567 1.31207 19.9975Z" fill="#222222"/>
</svg>
