<svg width="41" height="40" viewBox="0 0 41 40" fill="none" xmlns="http://www.w3.org/2000/svg">
<path d="M18.1167 17V23.0001L23.3128 20.0001L18.1167 17Z" fill="#222222"/>
<path fill-rule="evenodd" clip-rule="evenodd" d="M31.1166 20.0417L31.1167 20.0113L31.1167 20.0003L31.1167 19.989L31.1166 19.9586L31.1163 19.902L31.1158 19.8441C31.115 19.7452 31.1132 19.6027 31.1098 19.4267C31.1029 19.0751 31.0892 18.5886 31.0617 18.0495C31.0076 16.9901 30.8977 15.6623 30.662 14.7697C30.3658 13.6455 29.4946 12.7619 28.3864 12.4614C27.917 12.3339 27.1521 12.2488 26.321 12.1873C25.4723 12.1245 24.4992 12.0829 23.5827 12.0553C22.6651 12.0276 21.7991 12.0138 21.1628 12.0069C20.8445 12.0035 20.5834 12.0017 20.4017 12.0009C20.3109 12.0004 20.2399 12.0002 20.1914 12.0001L20.1167 12L20.042 12.0001C19.9935 12.0002 19.9225 12.0004 19.8317 12.0009C19.65 12.0017 19.3889 12.0035 19.0706 12.0069C18.4343 12.0138 17.5683 12.0276 16.6507 12.0553C15.7342 12.0829 14.7612 12.1244 13.9124 12.1872C13.0813 12.2487 12.3164 12.3337 11.847 12.4612C10.7388 12.7616 9.86755 13.6456 9.57139 14.7697C9.33571 15.6623 9.22581 16.99 9.17173 18.0493C9.1442 18.5884 9.13046 19.0749 9.1236 19.4265C9.12016 19.6024 9.11843 19.745 9.11757 19.8439C9.11714 19.8933 9.11692 19.9319 9.11681 19.9583L9.11671 19.9887L9.1167 19.9997L9.11671 20.011L9.11681 20.0414L9.11712 20.098L9.11757 20.1559C9.11843 20.2548 9.12016 20.3973 9.1236 20.5733C9.13046 20.9249 9.1442 21.4114 9.17173 21.9505C9.22581 23.0099 9.33571 24.3377 9.57139 25.2303C9.86758 26.3545 10.7388 27.2381 11.847 27.5386C12.3164 27.6661 13.0813 27.7512 13.9123 27.8127C14.7611 27.8755 15.7341 27.9171 16.6507 27.9447C17.5683 27.9724 18.4343 27.9862 19.0706 27.9931C19.3889 27.9965 19.65 27.9983 19.8317 27.9991C19.9225 27.9996 19.9935 27.9998 20.042 27.9999L20.1167 28L20.1914 27.9999C20.2399 27.9998 20.3109 27.9996 20.4017 27.9991C20.5834 27.9983 20.8445 27.9965 21.1628 27.9931C21.7991 27.9862 22.6651 27.9724 23.5827 27.9447C24.4992 27.9171 25.4722 27.8756 26.321 27.8128C27.1521 27.7513 27.917 27.6663 28.3864 27.5388C29.4946 27.2384 30.3658 26.3544 30.662 25.2303C30.8977 24.3377 31.0076 23.01 31.0617 21.9507C31.0892 21.4116 31.1029 20.9251 31.1098 20.5735C31.1132 20.3976 31.115 20.255 31.1158 20.1561C31.1161 20.1241 31.1163 20.0967 31.1164 20.0742C31.1165 20.0618 31.1166 20.051 31.1166 20.0417ZM20.1887 26.7367L20.2791 26.7365L20.3959 26.736C20.5754 26.7351 20.834 26.7334 21.1495 26.73C21.7807 26.7232 22.6384 26.7095 23.5457 26.6821C24.454 26.6548 25.4071 26.6139 26.2305 26.553C27.0713 26.4908 27.7246 26.4109 28.0646 26.3185C28.7422 26.1349 29.2778 25.5918 29.459 24.9042C29.6568 24.1551 29.7638 22.9491 29.8181 21.8854C29.8447 21.363 29.8581 20.8905 29.8648 20.5485C29.8681 20.3777 29.8698 20.2398 29.8706 20.1449L29.8713 20.0363L29.8714 20.0087L29.8714 20.0004L29.8714 19.9916L29.8713 19.9639L29.8706 19.8553C29.8698 19.7605 29.8681 19.6226 29.8648 19.4517C29.8581 19.1098 29.8447 18.6372 29.8181 18.1148C29.7638 17.051 29.6569 15.8453 29.4591 15.0962C29.2779 14.4086 28.7427 13.8655 28.0649 13.6817C27.7249 13.5893 27.0713 13.5093 26.2304 13.4471C25.4071 13.3862 24.454 13.3453 23.5457 13.3179C22.6384 13.2905 21.7807 13.2768 21.1495 13.27C20.834 13.2666 20.5754 13.2649 20.3959 13.264C20.3061 13.2636 20.2361 13.2634 20.1887 13.2633L20.1167 13.2632L20.0447 13.2633C19.9973 13.2634 19.9273 13.2636 19.8375 13.264C19.658 13.2649 19.3994 13.2666 19.0839 13.27C18.4527 13.2768 17.595 13.2905 16.6877 13.3179C15.7794 13.3452 14.8263 13.3861 14.0029 13.447C13.1621 13.5092 12.5088 13.5891 12.1688 13.6815C11.4912 13.8651 10.9556 14.4082 10.7744 15.0958C10.5766 15.8449 10.4696 17.0509 10.4153 18.1146C10.3887 18.637 10.3753 19.1095 10.3686 19.4515C10.3653 19.6223 10.3636 19.7602 10.3628 19.8551L10.3621 19.9637L10.362 19.9913L10.362 19.9996L10.362 20.0084L10.3621 20.0361L10.3628 20.1447C10.3636 20.2395 10.3653 20.3774 10.3686 20.5483C10.3753 20.8902 10.3887 21.3628 10.4153 21.8852C10.4696 22.949 10.5765 24.1547 10.7743 24.9038C10.9555 25.5914 11.4907 26.1345 12.1685 26.3183C12.5085 26.4107 13.1621 26.4907 14.003 26.5529C14.8263 26.6138 15.7794 26.6547 16.6877 26.6821C17.595 26.7095 18.4527 26.7232 19.0839 26.73C19.3994 26.7334 19.658 26.7351 19.8375 26.736C19.9273 26.7364 19.9973 26.7366 20.0447 26.7367L20.1166 26.7368L20.1887 26.7367Z" fill="#222222"/>
<path fill-rule="evenodd" clip-rule="evenodd" d="M20.1167 0C9.07111 0 0.116699 8.95443 0.116699 20C0.116699 31.0456 9.07111 40 20.1167 40C31.1623 40 40.1167 31.0456 40.1167 20C40.1043 8.95964 31.1571 0.0123696 20.1167 0ZM20.1167 38.6667C9.80744 38.6667 1.45003 30.3092 1.45003 20C1.45003 9.69077 9.80744 1.33333 20.1167 1.33333C30.426 1.33333 38.7834 9.69077 38.7834 20C38.7717 30.3043 30.4211 38.6549 20.1167 38.6667Z" fill="#222222"/>
</svg>
