<svg width="709" height="544" viewBox="0 0 709 544" fill="none" xmlns="http://www.w3.org/2000/svg">
<path opacity="0.5" d="M119.092 505.383C-4.35413 516.119 -18.6108 466.633 17.6069 450.598C53.8247 434.563 75.3464 434.795 136.234 410.625C197.122 386.456 534.581 397.913 683.418 445.847C745.573 465.864 682.93 474.151 590.346 505.383C497.761 536.615 429.919 541.207 336.337 543.75C242.755 546.294 242.538 494.647 119.092 505.383Z" fill="#9B5A00"/>
<path d="M553.42 437.396C542.875 448.349 532.875 455.411 524.99 460.992C432.241 526.586 322.495 507.465 299.173 502.803C264.728 495.904 198.152 482.572 150.018 426.78C77.1965 342.369 88.5346 209.386 145.021 121.607C155.352 105.55 209.93 16.4277 320.858 2.13567C387.991 -6.5137 466.246 10.9305 522.915 57.7294C641.871 155.954 633.403 354.4 553.42 437.396Z" fill="#E8E9FF"/>
<path d="M623.49 172.457C623.935 170.566 621.275 169.31 619.646 170.639C603.114 184.044 563.387 224.188 573.283 294.341C585.705 382.358 564.469 414.474 538.034 434.065C538.034 434.065 574.338 424.852 597.177 392.254C653.259 312.239 615.594 206.06 623.49 172.457Z" fill="#21A500"/>
<g style="mix-blend-mode:soft-light">
<path d="M610.909 199.949C608.84 209.747 606.996 219.581 605.572 229.447C604.086 239.312 602.952 249.205 602.171 259.125C601.443 269.042 600.918 278.969 600.889 288.902C600.807 298.833 601.22 308.755 601.676 318.715C602.065 328.673 602.525 338.711 601.796 348.802C601.067 358.893 598.956 369.051 594.745 378.584C593.693 380.958 592.585 383.327 591.327 385.615C590.118 387.924 588.782 390.189 587.416 392.43C584.614 396.959 581.479 401.273 578.038 405.337C571.051 413.53 562.625 420.789 553.342 426.946C552.366 427.593 550.966 427.435 550.215 426.592C549.464 425.748 549.644 424.583 550.578 423.927C552.787 422.376 554.973 420.805 557.069 419.155C558.133 418.344 559.153 417.495 560.191 416.663C561.191 415.797 562.231 414.965 563.198 414.074C567.103 410.609 570.749 406.863 574.107 402.867C580.771 394.988 586.107 386.212 590.147 377.111C592.101 372.574 593.666 367.878 594.823 363.076C595.947 358.293 596.7 353.431 597.078 348.533C597.873 338.729 597.514 328.798 597.207 318.838C596.9 308.878 596.7 298.864 596.962 288.858C597.083 283.858 597.303 278.859 597.622 273.863C597.767 271.365 597.967 268.871 598.167 266.377C598.39 263.883 598.633 261.391 598.894 258.902C599.967 248.946 601.395 239.029 603.178 229.152C605.018 219.289 607.162 209.472 609.738 199.741C609.788 199.599 609.889 199.481 610.021 199.409C610.154 199.338 610.308 199.318 610.454 199.354C610.523 199.363 610.59 199.385 610.65 199.42C610.711 199.455 610.764 199.501 610.806 199.556C610.848 199.612 610.879 199.675 610.897 199.742C610.914 199.809 610.919 199.88 610.909 199.949Z" fill="white"/>
</g>
<path d="M285.346 443.703C285.346 443.703 296.032 401.787 264.208 357.306C234.683 316.04 160.534 220.278 151.585 168.794C151.189 166.514 147.585 167.009 146.883 169.447C139.369 195.584 125.853 261.352 154.494 328.76C191.429 415.692 285.346 443.703 285.346 443.703Z" fill="#29CD00"/>
<path opacity="0.45" d="M154.465 216.376C154.465 216.376 154.338 217.369 154.241 219.243C154.145 221.117 154.089 223.87 154.194 227.365C154.299 230.861 154.623 235.1 155.274 239.923C156.868 251.712 159.796 263.282 164.001 274.41C166.521 281.135 169.422 287.711 172.692 294.106C176.201 300.937 180.086 307.567 184.328 313.968L187.65 318.845L191.146 323.648C193.51 326.839 195.945 330.043 198.379 333.207C203.25 339.551 208.235 345.815 213.19 351.93C218.144 358.046 223.104 364.017 227.952 369.745C237.597 381.252 246.81 391.832 254.422 401.163C258.241 405.826 261.577 410.231 264.411 414.23C266.878 417.676 269.15 421.257 271.217 424.956C272.538 427.352 273.715 429.826 274.74 432.363C275.093 433.24 275.322 433.929 275.495 434.385C275.668 434.841 275.75 435.079 275.75 435.079C275.779 435.157 275.777 435.243 275.744 435.319C275.71 435.394 275.648 435.454 275.57 435.484C275.493 435.514 275.407 435.512 275.331 435.478C275.255 435.444 275.196 435.382 275.166 435.305V435.29L274.891 434.61C274.71 434.167 274.457 433.494 274.08 432.641C272.979 430.18 271.743 427.78 270.379 425.454C268.242 421.842 265.905 418.353 263.381 415.001C260.486 411.091 257.017 406.833 253.164 402.229C245.45 393.038 236.073 382.596 226.268 371.202C221.381 365.49 216.374 359.544 211.359 353.434C206.345 347.324 201.376 341.031 196.474 334.672C194.017 331.485 191.605 328.309 189.212 325.088L185.701 320.214C184.585 318.56 183.472 316.91 182.363 315.264C178.092 308.777 174.215 302.038 170.752 295.086C167.504 288.589 164.67 281.893 162.267 275.039C160.112 268.901 158.328 262.64 156.923 256.289C155.728 250.929 154.854 245.502 154.305 240.038C153.875 235.83 153.657 231.603 153.65 227.373C153.65 223.857 153.852 221.101 154.032 219.229C154.212 217.356 154.387 216.366 154.387 216.366C154.389 216.356 154.395 216.347 154.403 216.341C154.412 216.335 154.422 216.333 154.432 216.335C154.437 216.335 154.442 216.336 154.446 216.339C154.451 216.341 154.455 216.344 154.458 216.348C154.461 216.352 154.463 216.357 154.464 216.362C154.465 216.366 154.466 216.371 154.465 216.376Z" fill="white"/>
<path d="M228.729 69.2045C229.735 66.5214 233.676 66.9704 234.04 69.8117C237.556 97.2814 249.033 169.023 276.876 210.296C322.21 277.498 344.017 378.993 302.049 423.712C302.049 423.718 119.194 361.465 228.729 69.2045Z" fill="#013400"/>
<path opacity="0.43" d="M229.178 107.712C229.178 107.712 229.178 107.998 229.163 108.552C229.149 109.106 229.174 109.897 229.212 110.977C229.263 113.124 229.394 116.274 229.594 120.281C229.794 124.287 230.089 129.15 230.503 134.724C230.887 140.299 231.449 146.58 232.041 153.431C232.687 160.277 233.405 167.694 234.327 175.518C235.201 183.35 236.305 191.586 237.467 200.101C238.691 208.609 239.996 217.394 241.54 226.278C241.924 228.502 242.308 230.733 242.692 232.972L243.945 239.687C244.752 244.181 245.7 248.665 246.6 253.159C247.5 257.653 248.547 262.114 249.487 266.578C250.509 271.027 251.544 275.451 252.592 279.849C253.145 282.03 253.696 284.206 254.247 286.377C254.805 288.54 255.321 290.705 255.929 292.83C256.536 294.955 257.098 297.078 257.676 299.182L258.541 302.323C258.849 303.36 259.156 304.394 259.461 305.424L261.279 311.543C261.582 312.553 261.886 313.557 262.189 314.557C262.512 315.55 262.833 316.537 263.152 317.52L265.034 323.356C265.347 324.315 265.641 325.275 265.961 326.221C266.281 327.166 266.618 328.097 266.941 329.025L268.868 334.517C269.182 335.421 269.495 336.317 269.807 337.204C270.141 338.084 270.472 338.957 270.799 339.824C272.132 343.277 273.356 346.642 274.648 349.822C275.941 353.001 277.234 356.032 278.436 358.924C279.679 361.796 280.934 364.488 282.072 367.037C282.648 368.308 283.206 369.538 283.747 370.725L285.421 374.101L288.377 380.055C288.808 380.963 289.287 381.785 289.705 382.569C290.123 383.352 290.532 384.087 290.903 384.772L292.792 388.248L294.365 391.143V391.154C294.399 391.226 294.405 391.308 294.381 391.384C294.356 391.46 294.304 391.524 294.235 391.563C294.165 391.601 294.083 391.612 294.006 391.593C293.929 391.573 293.862 391.525 293.819 391.458L292.183 388.595C291.648 387.66 290.987 386.508 290.21 385.154L288.963 382.972C288.521 382.194 288.036 381.374 287.588 380.474L284.527 374.559L282.788 371.202L281.045 367.531C279.861 364.986 278.545 362.316 277.263 359.447C276.024 356.561 274.725 353.531 273.367 350.358C272.036 347.179 270.774 343.814 269.399 340.36L268.378 337.737L267.409 335.052L265.423 329.556C262.767 322.118 260.218 314.183 257.767 305.924L256.834 302.817C256.542 301.773 256.249 300.723 255.954 299.667C255.366 297.561 254.775 295.44 254.179 293.305C253.563 291.174 253.038 289.007 252.472 286.838C251.907 284.67 251.35 282.486 250.787 280.294C249.719 275.899 248.666 271.469 247.629 267.006C247.144 264.77 246.659 262.528 246.174 260.28C245.69 258.036 245.196 255.793 244.761 253.537C243.872 249.031 242.943 244.533 242.143 240.027C241.729 237.776 241.317 235.534 240.907 233.301C240.526 231.055 240.147 228.818 239.77 226.589C238.249 217.682 236.967 208.867 235.771 200.341C234.647 191.797 233.641 183.54 232.827 175.689C231.974 167.843 231.323 160.419 230.738 153.548C229.647 139.816 229.078 128.349 228.781 120.319C228.651 116.303 228.565 113.149 228.549 110.993C228.527 109.925 228.549 109.068 228.549 108.508C228.549 107.949 228.578 107.665 228.578 107.665C228.579 107.624 228.588 107.584 228.605 107.547C228.621 107.509 228.645 107.476 228.675 107.448C228.704 107.419 228.739 107.397 228.777 107.383C228.815 107.368 228.856 107.361 228.897 107.362C228.938 107.363 228.978 107.372 229.015 107.389C229.053 107.406 229.086 107.429 229.114 107.459C229.142 107.489 229.164 107.524 229.179 107.562C229.194 107.6 229.201 107.64 229.2 107.681L229.178 107.712Z" fill="white"/>
<path d="M535.931 76.0761L298.922 81.4442C292.625 81.5853 286.623 84.1397 282.157 88.5795C277.69 93.0193 275.1 99.0052 274.922 105.3L265.224 449.248C265.156 451.674 265.576 454.09 266.46 456.35C267.344 458.611 268.674 460.671 270.37 462.408C272.066 464.145 274.094 465.523 276.333 466.461C278.573 467.398 280.978 467.876 283.406 467.866L555.153 466.65C557.437 466.64 559.696 466.175 561.798 465.282C563.9 464.389 565.803 463.086 567.396 461.449C568.989 459.813 570.24 457.875 571.076 455.75C571.912 453.625 572.315 451.354 572.264 449.071L564.427 103.315C564.345 99.6554 563.543 96.048 562.067 92.6986C560.59 89.3492 558.468 86.3234 555.822 83.794C553.176 81.2646 550.057 79.2811 546.645 77.9568C543.232 76.6326 539.591 75.9935 535.931 76.0761Z" fill="url(#paint0_linear)"/>
<path d="M535.228 77.1995C502.963 82.3204 391.974 98.4139 299.799 93.4366C298.801 93.3808 297.803 93.5251 296.863 93.8609C295.922 94.1967 295.058 94.7173 294.322 95.392C293.585 96.0667 292.992 96.8819 292.575 97.7896C292.159 98.6972 291.928 99.679 291.897 100.677L281.373 446.175C281.303 448.451 282.136 450.662 283.691 452.325C285.246 453.988 287.396 454.968 289.671 455.05C328.424 456.463 488.005 461.705 544.719 454.463C546.386 454.249 547.915 453.427 549.014 452.156C550.113 450.884 550.703 449.252 550.673 447.572L544.591 85.0654C544.573 83.9061 544.306 82.7643 543.808 81.7174C543.309 80.6704 542.592 79.7426 541.704 78.9967C540.816 78.2509 539.779 77.7045 538.661 77.3944C537.544 77.0843 536.373 77.0179 535.228 77.1995Z" fill="url(#paint1_linear)"/>
<path d="M531.964 86.2306C500.914 91.1588 394.105 106.645 305.399 101.855C304.439 101.802 303.479 101.94 302.573 102.264C301.668 102.587 300.837 103.088 300.129 103.737C299.42 104.386 298.849 105.171 298.448 106.044C298.047 106.918 297.825 107.862 297.795 108.823L287.668 441.309C287.6 443.499 288.402 445.627 289.898 447.228C291.394 448.828 293.464 449.772 295.653 449.853C332.948 451.213 486.519 456.255 541.106 449.288C542.71 449.081 544.181 448.29 545.239 447.067C546.296 445.843 546.864 444.273 546.835 442.656L540.975 93.7983C540.958 92.6828 540.7 91.5841 540.221 90.5765C539.742 89.569 539.051 88.6762 538.197 87.9586C537.343 87.241 536.344 86.7154 535.269 86.4172C534.193 86.1191 533.066 86.0554 531.964 86.2306Z" fill="#91B3FA"/>
<path opacity="0.78" d="M512.723 120.055L511.028 191.326C511.002 192.469 510.545 193.559 509.749 194.378C508.952 195.197 507.875 195.685 506.734 195.744C493.554 196.415 452.483 198.347 429.253 197.663C427.984 197.628 426.775 197.117 425.866 196.232C424.957 195.347 424.413 194.153 424.344 192.886C423.6 179.543 421.751 140.704 424.425 124.389C424.637 123.11 425.279 121.941 426.244 121.076C427.21 120.21 428.441 119.699 429.736 119.626L507.625 115.135C508.29 115.095 508.955 115.194 509.58 115.425C510.205 115.656 510.775 116.014 511.254 116.477C511.733 116.939 512.111 117.496 512.364 118.112C512.617 118.728 512.739 119.39 512.723 120.055Z" fill="white"/>
<path d="M483.719 147.035C484.008 138.586 477.392 131.502 468.941 131.213C460.49 130.923 453.405 137.539 453.115 145.988C452.826 154.438 459.443 161.522 467.894 161.811C476.345 162.1 483.43 155.485 483.719 147.035Z" fill="url(#paint2_linear)"/>
<path d="M492.715 190.934L443.946 192.039C443.268 192.054 442.599 191.886 442.008 191.552C441.417 191.219 440.927 190.733 440.59 190.145C440.252 189.556 440.079 188.888 440.088 188.21C440.098 187.532 440.29 186.869 440.645 186.291C444.645 179.716 453.09 169.999 468.11 170.088C482.586 170.176 491.355 178.581 495.806 184.651C496.234 185.233 496.493 185.921 496.557 186.64C496.621 187.359 496.486 188.082 496.167 188.73C495.848 189.378 495.358 189.926 494.749 190.315C494.141 190.703 493.437 190.917 492.715 190.934Z" fill="url(#paint3_linear)"/>
<g opacity="0.6">
<path opacity="0.6" d="M317.566 130.677C316.191 130.708 315.075 129.657 315.084 128.343C315.093 127.029 316.222 125.907 317.595 125.853L403.594 122.37C404.967 122.315 405.742 123.337 405.314 124.644L404.758 126.345C404.331 127.65 402.858 128.745 401.485 128.776L317.566 130.677Z" fill="white"/>
</g>
<g opacity="0.6">
<path opacity="0.6" d="M403.898 135.644C405.27 135.587 406.045 136.611 405.618 137.916L405.061 139.617C404.634 140.923 403.161 142.017 401.789 142.048L317.866 143.949C317.548 143.965 317.23 143.917 316.932 143.807C316.633 143.697 316.36 143.528 316.128 143.31C315.896 143.092 315.711 142.83 315.583 142.539C315.455 142.247 315.387 141.933 315.384 141.615C315.384 140.301 316.524 139.181 317.896 139.125L403.898 135.644Z" fill="white"/>
</g>
<g opacity="0.6">
<path opacity="0.6" d="M404.203 149.108C405.576 149.052 406.351 150.076 405.923 151.381L405.367 153.084C404.94 154.389 403.467 155.482 402.094 155.515L318.171 157.414C316.799 157.445 315.682 156.396 315.689 155.082C315.697 153.768 316.829 152.646 318.202 152.59L404.203 149.108Z" fill="white"/>
</g>
<path opacity="0.6" d="M348.241 162.172C341.635 161.808 329.285 161.861 322.486 161.919C321.088 161.929 319.735 162.415 318.65 163.296C317.565 164.177 316.811 165.401 316.514 166.767C315.325 172.233 313.728 181.714 314.183 191.71C314.246 193.148 314.872 194.503 315.927 195.481C316.982 196.46 318.381 196.984 319.819 196.94L344.893 196.102C346.382 196.051 347.799 195.452 348.871 194.418C349.943 193.385 350.595 191.992 350.701 190.507L352.372 166.874C352.414 166.293 352.341 165.71 352.156 165.157C351.97 164.605 351.677 164.095 351.292 163.657C350.908 163.219 350.44 162.863 349.916 162.608C349.392 162.352 348.823 162.204 348.241 162.172Z" fill="white"/>
<g opacity="0.6">
<path opacity="0.6" d="M363.852 173.819C362.48 173.849 361.347 172.801 361.336 171.486C361.325 170.172 362.438 169.03 363.809 168.95L403.778 166.602C405.15 166.522 406.105 167.567 405.899 168.925L405.676 170.41C405.55 171.092 405.199 171.712 404.678 172.171C404.157 172.629 403.498 172.899 402.805 172.937L363.852 173.819Z" fill="white"/>
</g>
<g opacity="0.6">
<path opacity="0.6" d="M404.232 182.233C405.606 182.203 406.521 183.282 406.266 184.631L405.988 186.107C405.838 186.784 405.464 187.391 404.927 187.83C404.391 188.268 403.722 188.514 403.028 188.527L364.07 187.982C362.696 187.962 361.603 186.873 361.64 185.558C361.676 184.244 362.83 183.144 364.205 183.115L404.232 182.233Z" fill="white"/>
</g>
<g opacity="0.6">
<path opacity="0.6" d="M311.34 222.537C309.968 222.568 308.889 221.517 308.948 220.203C309.006 218.889 310.173 217.776 311.548 217.734L512.322 211.603C513.695 211.561 514.141 212.421 513.308 213.515L511.379 216.06C510.548 217.151 508.744 218.073 507.379 218.103L311.34 222.537Z" fill="white"/>
</g>
<g opacity="0.6">
<path opacity="0.6" d="M512.623 224.879C513.997 224.837 514.441 225.697 513.608 226.791L511.681 229.336C510.85 230.427 509.045 231.35 507.681 231.381L311.65 235.807C310.277 235.84 309.201 234.788 309.257 233.473C309.313 232.159 310.484 231.046 311.857 231.005L512.623 224.879Z" fill="white"/>
</g>
<path opacity="0.25" d="M513.75 247.027C508.926 246.767 499.906 246.8 494.941 246.846C493.92 246.853 492.931 247.207 492.138 247.85C491.345 248.493 490.795 249.387 490.577 250.385C489.708 254.384 488.543 261.292 488.876 268.603C488.923 269.653 489.381 270.642 490.152 271.356C490.922 272.071 491.943 272.453 492.994 272.421L511.306 271.81C512.393 271.773 513.428 271.335 514.212 270.581C514.995 269.826 515.471 268.808 515.548 267.724L516.766 250.454C516.796 250.03 516.742 249.605 516.606 249.202C516.47 248.8 516.256 248.429 515.975 248.11C515.694 247.791 515.353 247.531 514.971 247.345C514.589 247.159 514.174 247.051 513.75 247.027Z" fill="white"/>
<g opacity="0.6">
<path opacity="0.6" d="M480.32 254.851C481.691 254.762 482.671 255.806 482.502 257.167L482.054 260.685C481.949 261.366 481.611 261.99 481.099 262.451C480.587 262.913 479.932 263.184 479.243 263.219L434.195 264.241C433.868 264.248 433.543 264.19 433.239 264.071C432.935 263.952 432.658 263.774 432.424 263.547C432.189 263.319 432.002 263.048 431.873 262.748C431.744 262.448 431.676 262.126 431.673 261.799L431.658 260.488C431.66 259.817 431.915 259.17 432.372 258.678C432.83 258.185 433.455 257.883 434.125 257.831L480.32 254.851Z" fill="white"/>
</g>
<path opacity="0.25" d="M413.969 249.287C409.145 249.029 400.125 249.061 395.16 249.105C394.139 249.113 393.151 249.467 392.358 250.11C391.565 250.753 391.014 251.647 390.796 252.644C389.929 256.644 388.764 263.561 389.096 270.861C389.144 271.911 389.602 272.9 390.373 273.614C391.143 274.328 392.164 274.711 393.214 274.679L411.525 274.066C412.613 274.03 413.648 273.592 414.431 272.838C415.215 272.083 415.691 271.065 415.767 269.98L416.987 252.71C417.017 252.286 416.962 251.861 416.825 251.459C416.689 251.057 416.475 250.686 416.194 250.367C415.913 250.049 415.572 249.789 415.19 249.604C414.808 249.418 414.393 249.311 413.969 249.287Z" fill="white"/>
<g opacity="0.6">
<path opacity="0.6" d="M380.537 257.111C381.908 257.022 382.888 258.065 382.719 259.427L382.271 262.946C382.165 263.627 381.827 264.251 381.315 264.713C380.803 265.174 380.147 265.445 379.459 265.48L334.417 266.5C334.091 266.507 333.766 266.45 333.462 266.331C333.158 266.212 332.88 266.033 332.646 265.806C332.411 265.579 332.224 265.308 332.094 265.008C331.965 264.708 331.897 264.385 331.894 264.059L331.881 262.748C331.883 262.076 332.139 261.43 332.596 260.938C333.053 260.445 333.678 260.143 334.348 260.09L380.537 257.111Z" fill="white"/>
</g>
<g opacity="0.6">
<path opacity="0.6" d="M324.082 310.981C322.707 311.012 321.629 309.962 321.684 308.645C321.738 307.329 322.905 306.22 324.278 306.177L519.293 300.178C520.666 300.136 521.122 301.005 520.306 302.11L518.464 304.602C517.65 305.708 515.857 306.637 514.484 306.668L324.082 310.981Z" fill="white"/>
</g>
<g opacity="0.6">
<path opacity="0.6" d="M519.593 313.45C520.966 313.408 521.423 314.277 520.606 315.382L518.766 317.875C517.95 318.98 516.159 319.911 514.784 319.941L324.377 324.253C323.004 324.284 321.924 323.234 321.979 321.919C322.033 320.605 323.202 319.492 324.575 319.451L519.593 313.45Z" fill="white"/>
</g>
<g opacity="0.6">
<path opacity="0.6" d="M519.899 326.917C521.272 326.873 521.729 327.744 520.912 328.849L519.072 331.341C518.256 332.447 516.465 333.376 515.09 333.407L324.688 337.72C323.314 337.751 322.236 336.7 322.29 335.384C322.345 334.068 323.512 332.957 324.886 332.916L519.899 326.917Z" fill="white"/>
</g>
<path d="M401.951 66.0051L428.789 63.0111L430.489 38.2973C430.659 35.8851 429.987 33.4885 428.588 31.5159C427.189 29.5433 425.149 28.1167 422.816 27.4792C417.543 26.0522 410.089 26.1031 401.669 32.2511C385.145 44.309 401.951 66.0051 401.951 66.0051ZM407.089 45.327C407.058 44.0011 407.42 42.6958 408.131 41.5761C408.842 40.4564 409.869 39.5726 411.082 39.0365C412.295 38.5005 413.64 38.3362 414.947 38.5646C416.254 38.793 417.463 39.4037 418.423 40.3194C419.382 41.2352 420.048 42.4149 420.337 43.7093C420.626 45.0037 420.524 46.3547 420.045 47.5913C419.565 48.8279 418.73 49.8946 417.644 50.6564C416.559 51.4183 415.271 51.841 413.945 51.8712C412.168 51.9117 410.448 51.2452 409.162 50.018C407.877 48.7909 407.131 47.1036 407.089 45.327Z" fill="url(#paint4_linear)"/>
<path d="M425.807 52.6966C425.635 52.6844 425.475 52.6047 425.362 52.4749C425.249 52.3451 425.192 52.1758 425.203 52.004L425.474 48.0683C425.48 47.9832 425.502 47.9001 425.54 47.8237C425.578 47.7473 425.631 47.6791 425.695 47.6231C425.76 47.5671 425.834 47.5242 425.915 47.4971C425.996 47.4699 426.082 47.4589 426.167 47.4648C426.252 47.4706 426.335 47.4932 426.411 47.5312C426.488 47.5691 426.556 47.6218 426.612 47.6861C426.668 47.7504 426.711 47.8251 426.738 47.906C426.765 47.9868 426.776 48.0723 426.77 48.1574L426.5 52.093C426.488 52.2544 426.417 52.4057 426.3 52.5173C426.183 52.629 426.028 52.6929 425.867 52.6966C425.847 52.6984 425.827 52.6984 425.807 52.6966ZM426.338 44.9834C426.166 44.9713 426.006 44.8916 425.893 44.7618C425.78 44.632 425.723 44.4626 425.734 44.2908L425.941 41.3041C426.079 39.305 425.521 37.3198 424.361 35.6858C423.201 34.0517 421.511 32.8696 419.578 32.3402C416.57 31.5227 413.406 31.4646 410.37 32.1711C410.287 32.1902 410.2 32.1927 410.116 32.1784C410.031 32.164 409.951 32.1332 409.878 32.0876C409.805 32.0421 409.742 31.9826 409.693 31.9127C409.643 31.8429 409.608 31.7639 409.589 31.6803C409.57 31.5968 409.567 31.5103 409.581 31.4258C409.596 31.3413 409.627 31.2604 409.672 31.1878C409.718 31.1152 409.777 31.0524 409.847 31.0027C409.917 30.9531 409.996 30.9177 410.08 30.8986C413.323 30.1436 416.704 30.206 419.918 31.0804C422.139 31.6916 424.08 33.0517 425.412 34.9302C426.744 36.8087 427.386 39.0901 427.229 41.3877L427.03 44.3871C427.019 44.5487 426.948 44.7002 426.831 44.8121C426.714 44.924 426.56 44.9884 426.398 44.9925L426.338 44.9834Z" fill="#91B3FA"/>
<path d="M465.851 78.1175L465.571 65.7179C465.548 64.7023 465.32 63.7018 464.902 62.7759C464.484 61.85 463.884 61.0177 463.138 60.3286C462.391 59.6395 461.514 59.1078 460.557 58.7651C459.601 58.4224 458.585 58.2757 457.571 58.3338L372.135 63.1983C370.305 63.3029 368.58 64.0859 367.297 65.3943C366.014 66.7027 365.265 68.4424 365.197 70.2734L364.755 82.1986L465.851 78.1175Z" fill="url(#paint5_linear)"/>
<path d="M433.624 63.551L437.3 63.4674C437.472 63.4635 437.636 63.3915 437.755 63.267C437.874 63.1426 437.939 62.976 437.935 62.8039C437.931 62.6318 437.859 62.4682 437.734 62.3492C437.61 62.2303 437.443 62.1656 437.271 62.1694L433.595 62.2531C433.509 62.255 433.425 62.2737 433.347 62.308C433.269 62.3424 433.199 62.3918 433.14 62.4534C433.081 62.515 433.035 62.5877 433.004 62.6671C432.973 62.7466 432.958 62.8314 432.96 62.9166C432.962 63.0018 432.981 63.0858 433.015 63.1638C433.049 63.2418 433.099 63.3123 433.161 63.3712C433.222 63.4301 433.295 63.4763 433.374 63.5072C433.454 63.538 433.539 63.5529 433.624 63.551Z" fill="#91B3FA"/>
<path d="M461.133 74.3291C461.219 74.3272 461.303 74.3085 461.381 74.2741C461.459 74.2398 461.529 74.1904 461.588 74.1288C461.647 74.0671 461.693 73.9945 461.724 73.915C461.755 73.8356 461.77 73.7508 461.768 73.6656L461.655 68.6483C461.611 66.785 460.829 65.0154 459.481 63.7279C458.133 62.4403 456.33 61.7399 454.466 61.7804L440.946 62.0858C440.774 62.0899 440.611 62.1622 440.492 62.2868C440.373 62.4114 440.309 62.5781 440.313 62.7502C440.317 62.9224 440.389 63.0858 440.514 63.2046C440.638 63.3234 440.805 63.3879 440.977 63.3838L454.495 63.0765C456.015 63.0443 457.485 63.6158 458.584 64.6657C459.683 65.7156 460.32 67.1582 460.357 68.6774L460.47 73.6946C460.474 73.8666 460.546 74.0299 460.671 74.1488C460.795 74.2677 460.961 74.3325 461.133 74.3291Z" fill="#91B3FA"/>
<path d="M492.539 72.9711L343.023 76.3542C340.419 76.4128 337.919 77.3892 335.965 79.1111C334.011 80.8329 332.728 83.1896 332.342 85.7652L332.231 86.4924C332.025 87.8608 332.12 89.2578 332.511 90.5854C332.902 91.9129 333.578 93.139 334.493 94.1778C335.407 95.2165 336.538 96.0428 337.806 96.5987C339.073 97.1546 340.447 97.4267 341.831 97.3959L495.224 93.9201C496.059 93.9013 496.882 93.7131 497.642 93.367C498.403 93.0208 499.085 92.524 499.647 91.9065C500.21 91.289 500.641 90.5637 500.915 89.7746C501.189 88.9855 501.3 88.149 501.24 87.3159L500.755 80.4589C500.609 78.3948 499.674 76.466 498.145 75.072C496.615 73.6781 494.608 72.9258 492.539 72.9711Z" fill="url(#paint6_linear)"/>
<path d="M372.689 372.165L352.764 323.792C352.576 323.334 352.256 322.943 351.845 322.667C351.434 322.392 350.95 322.245 350.455 322.245H338.195C337.777 322.245 337.365 322.351 336.998 322.551C336.631 322.752 336.32 323.042 336.095 323.394C335.869 323.746 335.735 324.15 335.705 324.567C335.676 324.984 335.752 325.402 335.926 325.782L359.028 376.179C359.266 376.698 359.675 377.12 360.187 377.375C360.699 377.629 361.282 377.7 361.84 377.577L370.917 375.561C371.273 375.483 371.609 375.327 371.899 375.105C372.189 374.883 372.427 374.601 372.596 374.277C372.765 373.953 372.861 373.596 372.877 373.231C372.893 372.866 372.829 372.502 372.689 372.165Z" fill="url(#paint7_linear)"/>
<path d="M403.353 429.178H397.485V492.623H403.353V429.178Z" fill="url(#paint8_linear)"/>
<path d="M375.336 490.026H425.501C425.664 490.026 425.82 490.09 425.935 490.205C426.05 490.32 426.114 490.476 426.114 490.638V493.843H374.724V490.638C374.724 490.476 374.788 490.32 374.903 490.205C375.018 490.09 375.174 490.026 375.336 490.026Z" fill="url(#paint9_linear)"/>
<path d="M427.432 414.963H375.438C371.952 414.963 369.127 417.788 369.127 421.272V426.975C369.127 430.46 371.952 433.285 375.438 433.285H427.432C430.917 433.285 433.743 430.46 433.743 426.975V421.272C433.743 417.788 430.917 414.963 427.432 414.963Z" fill="url(#paint10_linear)"/>
<path d="M357.104 386.871C357.104 386.871 348.376 388.222 338.58 394.775C337.822 395.276 337.219 395.978 336.838 396.803C336.457 397.628 336.314 398.542 336.424 399.444C337.598 408.74 342.424 438.831 358.34 468.219C359.174 469.773 359.425 471.573 359.049 473.296L356.284 486.161L351.156 490.969H364.364L373.158 467.175L369.398 465.986C367.976 465.537 366.731 464.652 365.84 463.457C364.948 462.262 364.455 460.817 364.429 459.326L363.987 433.801C364.363 422.43 357.014 414.585 357.014 414.585L378.105 413.559L357.104 386.871Z" fill="#FF7575"/>
<path d="M345.998 493.292C344.794 494.867 358.943 496.944 366.092 493.501C366.092 493.501 376.001 476.264 376.001 467.39C376.001 467.39 375.214 465.572 369.396 465.99C369.396 465.99 366.069 486.399 362.556 488.686C359.043 490.973 352.727 488.917 352.727 488.917C352.727 488.917 347.772 490.971 345.998 493.292Z" fill="url(#paint11_linear)"/>
<path d="M375.436 414.963C375.323 414.768 352.727 412.236 352.727 412.236C352.727 412.236 353.465 419.106 351.154 428.562C348.843 438.019 315.665 478.991 315.665 478.991L319.144 490.017C308.387 493.763 297.807 494.361 287.396 491.927L308.956 478.991C308.956 478.991 329.138 410.242 341.502 397.979L364.143 390.144L375.436 414.963Z" fill="#FF7575"/>
<path d="M426.115 374.959C426.115 374.959 439.135 394.321 440.204 403.154C441.273 411.987 436.636 415.574 422.977 416.166C409.317 416.759 372.846 416.748 372.846 416.748L341.721 390.144C341.721 390.144 364.404 382.052 370.3 379.764C376.197 377.475 426.115 374.959 426.115 374.959Z" fill="url(#paint12_linear)"/>
<path d="M317.831 486.308C317.831 486.308 321.577 489.935 319.047 493.97C319.047 493.97 289.377 499.228 281.322 496.843C281.322 496.843 282.995 493.025 292.066 488.68L291.397 489.195C291.217 489.338 291.088 489.533 291.026 489.754C290.964 489.975 290.973 490.209 291.053 490.424C291.132 490.639 291.276 490.824 291.467 490.952C291.657 491.08 291.882 491.146 292.111 491.138C298.088 490.802 310.457 489.708 317.831 486.308Z" fill="url(#paint13_linear)"/>
<path d="M390.906 372.396C390.906 372.396 375.744 357.962 368.28 348.4C366.297 345.852 364.95 342.867 364.353 339.693C363.756 336.52 363.925 333.249 364.846 330.154C368.253 318.676 374.3 306.789 374.86 304.939C375.708 302.103 392.707 302.212 392.707 302.212C392.707 302.212 426.162 323.919 439.302 360.689L424.542 365.284C424.542 365.284 415.815 350.632 407.176 341.318C407.176 341.318 422.109 361.042 422.631 369.116L390.906 372.396Z" fill="#1656BD"/>
<path d="M372.804 289.083C372.986 289.672 377.418 304.379 377.766 304.684C378.113 304.99 387.496 305.495 391.913 302.476L384.42 286.793L372.804 289.083Z" fill="#1656BD"/>
<path d="M367.322 267.507C367.322 267.507 362.06 273.257 361.951 284.722C361.842 296.188 367.153 299.02 371.587 297.707C376.022 296.395 382.205 293.448 385.994 284.337C389.784 275.226 374.305 260.349 367.322 267.507Z" fill="#FF7575"/>
<path d="M379.262 281.334C379.262 281.334 377.853 265.28 365.546 270.73L363.591 274.062C363.591 274.062 355.591 268.473 361.284 261.443C366.977 254.413 379.466 252.617 387.148 261.103C394.829 269.589 395.944 276.837 392.908 283.977C389.871 291.118 385.251 286.72 385.251 286.72C385.251 286.72 386.053 280.978 383.797 279.132C381.54 277.287 380.2 281.378 380.2 281.378L379.262 281.334Z" fill="url(#paint14_linear)"/>
<path d="M381.338 282.241C381.338 282.241 380.567 273.993 385.187 275.299C389.807 276.604 385.5 283.101 383.698 285.391L381.338 282.241Z" fill="#FF7575"/>
<path d="M360.013 373.468L371.151 362.743L386.562 369.251C386.562 369.251 401.9 371.627 410.68 369.251L419.467 366.875L439.305 360.694L442.421 369.498C442.805 370.586 442.823 371.769 442.474 372.868C442.125 373.967 441.426 374.922 440.485 375.588C438.769 376.808 436.756 378.149 435.474 378.709C432.861 379.853 371.071 377.918 371.071 377.918L360.013 373.468Z" fill="#FF7575"/>
<path d="M386.901 263.097C384.592 262.212 384.369 259.031 386.431 257.664C393.089 253.255 404.545 249.38 416.183 262.621C429.292 277.527 436.627 284.633 440.779 284.566C443.506 284.521 445.097 287.604 443.303 289.656C441.976 291.174 439.703 292.537 435.932 293.355C406.84 299.669 400.452 268.287 386.901 263.097Z" fill="url(#paint15_linear)"/>
<path d="M186.014 497.292C185.693 497.293 185.376 497.231 185.079 497.11C184.799 497.003 184.543 496.841 184.327 496.632C184.111 496.423 183.941 496.173 183.825 495.896C183.709 495.619 183.651 495.322 183.653 495.022C183.656 494.721 183.72 494.425 183.841 494.15L233.477 384.317C233.745 383.76 234.218 383.327 234.796 383.107C235.375 382.888 236.016 382.9 236.586 383.139C236.867 383.246 237.123 383.408 237.339 383.617C237.555 383.826 237.726 384.076 237.842 384.353C237.958 384.63 238.016 384.927 238.013 385.227C238.011 385.528 237.947 385.824 237.826 386.099L188.19 495.932C187.996 496.343 187.687 496.69 187.301 496.931C186.916 497.172 186.469 497.297 186.014 497.292Z" fill="url(#paint16_linear)"/>
<path d="M241.914 497.292C241.458 497.298 241.009 497.173 240.622 496.931C240.235 496.689 239.926 496.341 239.732 495.928L190.113 386.095C189.992 385.82 189.928 385.524 189.925 385.224C189.922 384.924 189.98 384.626 190.096 384.35C190.212 384.073 190.383 383.822 190.599 383.614C190.814 383.405 191.07 383.242 191.351 383.136C191.921 382.895 192.562 382.884 193.141 383.103C193.72 383.322 194.192 383.756 194.46 384.314L244.087 494.147C244.208 494.421 244.272 494.718 244.274 495.018C244.277 495.318 244.219 495.615 244.103 495.892C243.987 496.169 243.816 496.42 243.601 496.628C243.385 496.837 243.129 497 242.849 497.106C242.552 497.229 242.235 497.292 241.914 497.292Z" fill="url(#paint17_linear)"/>
<path d="M390.177 497.292C389.857 497.293 389.54 497.231 389.244 497.11C388.963 497.003 388.707 496.841 388.491 496.632C388.275 496.424 388.104 496.173 387.988 495.896C387.872 495.62 387.814 495.322 387.816 495.022C387.819 494.722 387.883 494.425 388.004 494.15L437.64 384.317C437.908 383.76 438.38 383.327 438.959 383.107C439.538 382.888 440.179 382.9 440.749 383.139C441.029 383.246 441.285 383.409 441.501 383.617C441.717 383.826 441.888 384.077 442.003 384.353C442.119 384.63 442.178 384.928 442.175 385.228C442.172 385.528 442.108 385.824 441.987 386.099L392.351 495.932C392.157 496.343 391.849 496.69 391.463 496.931C391.078 497.172 390.631 497.297 390.177 497.292Z" fill="url(#paint18_linear)"/>
<path d="M446.086 497.292C445.629 497.298 445.181 497.173 444.794 496.931C444.407 496.689 444.098 496.341 443.904 495.928L394.268 386.095C394.147 385.82 394.083 385.524 394.08 385.224C394.077 384.924 394.136 384.626 394.251 384.35C394.367 384.073 394.538 383.822 394.754 383.614C394.97 383.405 395.225 383.242 395.506 383.136C396.076 382.895 396.717 382.884 397.296 383.103C397.875 383.322 398.347 383.756 398.615 384.314L448.251 494.147C448.372 494.422 448.436 494.718 448.438 495.018C448.441 495.318 448.383 495.616 448.267 495.893C448.151 496.17 447.98 496.42 447.764 496.629C447.548 496.837 447.292 497 447.011 497.106C446.718 497.228 446.403 497.291 446.086 497.292Z" fill="url(#paint19_linear)"/>
<path d="M461.966 380.889C462.043 380.522 462.029 380.141 461.924 379.781C461.82 379.421 461.628 379.092 461.366 378.824C461.081 378.531 460.738 378.3 460.361 378.144C459.983 377.987 459.577 377.91 459.168 377.915H171.105C170.573 377.905 170.046 378.02 169.566 378.251C169.087 378.481 168.668 378.82 168.343 379.242C168.049 379.633 167.872 380.1 167.834 380.588C167.796 381.077 167.898 381.566 168.128 381.998L171.25 387.926C171.965 389.282 173.514 390.151 175.217 390.151H457.192C458.777 390.151 460.141 389.166 460.441 387.8L461.966 380.889Z" fill="url(#paint20_linear)"/>
<path d="M135.082 419.198C133.34 421.772 126.424 480.069 125.342 501.6C125.325 501.945 125.378 502.289 125.498 502.613C125.619 502.936 125.804 503.231 126.042 503.481C126.28 503.731 126.566 503.93 126.883 504.065C127.201 504.201 127.542 504.271 127.887 504.27C128.497 504.272 129.086 504.055 129.549 503.658C130.012 503.262 130.317 502.713 130.409 502.111L143.064 421.047L135.082 419.198Z" fill="#91B3FA"/>
<path d="M190.693 419.198C192.433 421.772 199.349 480.069 200.431 501.6C200.448 501.945 200.394 502.289 200.274 502.613C200.154 502.936 199.969 503.231 199.731 503.481C199.493 503.731 199.207 503.93 198.889 504.065C198.572 504.201 198.23 504.271 197.885 504.27C197.276 504.272 196.686 504.055 196.224 503.658C195.761 503.262 195.456 502.713 195.363 502.111L182.709 421.047L190.693 419.198Z" fill="#91B3FA"/>
<path d="M124.618 414.648V415.284C124.577 419.858 128.517 423.608 133.451 423.692L191.922 424.683C196.785 424.765 200.831 421.251 201.074 416.748L201.105 416.166C201.353 411.471 197.363 407.515 192.291 407.424L133.791 406.375C128.784 406.292 124.66 410.007 124.618 414.648Z" fill="#91B3FA"/>
<path d="M223.65 492.24C214.363 492.24 210.254 491.444 208.416 490.717C208.596 491.492 209.034 492.183 209.657 492.678C210.28 493.173 211.053 493.443 211.849 493.443H244.709C244.954 493.443 245.197 493.387 245.417 493.278C245.637 493.169 245.829 493.011 245.978 492.815C246.127 492.62 246.229 492.393 246.276 492.152C246.323 491.911 246.313 491.662 246.248 491.425C242.503 491.729 234.549 492.24 223.65 492.24Z" fill="url(#paint21_linear)"/>
<path d="M246.248 491.427C246.198 491.225 246.106 491.035 245.979 490.869C243.477 487.673 238.45 482.656 231.616 482.752C221.597 482.894 218.103 483.981 210.318 482.814L208.481 488.9C208.302 489.491 208.283 490.118 208.425 490.718C210.263 491.445 214.372 492.242 223.659 492.242C234.548 492.24 242.503 491.729 246.248 491.427Z" fill="url(#paint22_linear)"/>
<path d="M212.559 476.254L210.305 483.921C210.305 483.921 215.299 486.194 219.694 484.368L220.559 477.728L212.559 476.254Z" fill="#FF7575"/>
<path d="M280.666 487.412C273.426 493.229 269.726 495.183 267.841 495.774C268.467 496.264 269.24 496.527 270.035 496.521C270.829 496.515 271.599 496.24 272.217 495.741L297.832 475.163C298.023 475.01 298.176 474.815 298.28 474.593C298.384 474.371 298.435 474.129 298.429 473.884C298.424 473.639 298.362 473.399 298.248 473.182C298.135 472.965 297.973 472.777 297.775 472.632C295.041 475.219 289.159 480.589 280.666 487.412Z" fill="url(#paint23_linear)"/>
<path d="M297.773 472.632C297.607 472.507 297.417 472.417 297.215 472.367C293.271 471.458 286.224 470.711 280.953 475.068C273.229 481.453 271.184 484.483 264.388 488.453L266.751 494.327C266.981 494.896 267.357 495.394 267.842 495.77C269.728 495.183 273.428 493.225 280.668 487.408C289.158 480.589 295.04 475.219 297.773 472.632Z" fill="url(#paint24_linear)"/>
<path d="M164.338 388.906C164.338 388.906 219.941 393.45 231.349 398.815C242.756 404.179 222.04 479.431 222.04 479.431C222.04 479.431 218.934 480.925 212.025 478.777C212.025 478.777 219.116 423.248 213.843 411.207L153.633 401.361L164.338 388.906Z" fill="url(#paint25_linear)"/>
<path d="M258.862 477.884C259.379 478.355 264.388 488.453 264.388 488.453C264.388 488.453 269.964 487.248 271.1 483.727L266.084 474.612L258.862 477.884Z" fill="#FF7575"/>
<path d="M130.847 388.442C130.847 388.442 129.029 392.805 129.109 398.595C129.211 406.606 135.654 413.107 143.654 413.501L209.39 416.502C210.064 416.533 210.711 416.779 211.234 417.205C211.758 417.63 212.131 418.212 212.299 418.866C213.845 424.839 221.39 443.183 258.299 479.789C258.777 480.262 259.402 480.559 260.07 480.632C260.739 480.704 261.412 480.548 261.981 480.189L267.233 476.872C267.5 476.705 267.691 476.44 267.765 476.134C267.839 475.829 267.792 475.506 267.632 475.236L229.359 409.889C227.348 406.573 224.117 404.177 220.359 403.216L164.334 388.896L130.847 388.442Z" fill="url(#paint26_linear)"/>
<path d="M130.668 388.249C130.668 388.249 130.018 355.675 136.53 325.019C138.922 313.698 145.204 303.572 154.286 296.4L157.328 294.004L172.563 300.185L180.392 313.71C184.701 322.328 183.643 341.045 180.392 350.114C174.955 365.281 170.608 380.998 168.755 388.718C168.754 388.726 143.523 392.058 130.668 388.249Z" fill="#FF7026"/>
<path d="M167.803 269.729L155.901 297.336C155.901 297.336 159.709 305.904 173.039 302.572L177.799 283.534L167.803 269.729Z" fill="#FF7575"/>
<path d="M191.389 257.138C191.532 257.524 191.847 284.722 191.847 284.722L176.311 284.573L172.182 258.838C172.182 258.838 188.987 250.683 191.389 257.138Z" fill="#FF7575"/>
<path d="M176.741 263.788L177.856 277.504C177.869 277.678 177.906 277.85 177.967 278.015C178.343 279.027 179.891 282.417 183.263 280.623C186.323 278.987 189.14 277.556 191.341 277.742C191.818 277.781 192.263 277.997 192.589 278.347C192.915 278.697 193.098 279.156 193.103 279.634C193.13 282.105 193.092 287.675 192.318 292.508C192.24 292.981 191.988 293.408 191.611 293.704C191.234 294 190.759 294.144 190.281 294.108C187.296 293.897 181.009 293.274 176.071 291.588C175.742 291.478 175.45 291.281 175.224 291.019C174.998 290.756 174.848 290.437 174.789 290.096C174.196 286.708 172.378 276.38 171.431 273.584C170.536 270.959 166.885 270.06 165.322 269.792C165.069 269.749 164.828 269.655 164.613 269.516C164.398 269.377 164.214 269.196 164.071 268.983C163.047 267.46 161.296 263.803 165.814 261.167C166.038 261.037 166.234 260.864 166.389 260.657C166.544 260.45 166.657 260.214 166.719 259.963C166.781 259.712 166.792 259.451 166.751 259.195C166.709 258.94 166.617 258.695 166.48 258.476C165.327 256.627 164.362 253.637 167.752 251.139C171.207 248.594 174.498 250.021 176.396 251.343C176.768 251.598 177.218 251.715 177.667 251.672C178.116 251.629 178.536 251.43 178.852 251.108C179.232 250.745 179.78 250.521 180.556 250.801C180.806 250.885 181.071 250.917 181.334 250.892C181.597 250.868 181.852 250.79 182.082 250.662C182.313 250.534 182.514 250.359 182.674 250.148C182.833 249.938 182.946 249.696 183.007 249.44C183.516 247.364 184.945 244.95 188.825 244.782C195.707 244.484 198.049 251.676 197.23 256.362C196.412 261.048 188.929 260.95 184.885 259.551C181.81 258.485 178.658 260.979 177.325 262.236C177.117 262.434 176.957 262.676 176.856 262.945C176.755 263.214 176.716 263.502 176.741 263.788Z" fill="url(#paint27_linear)"/>
<path d="M171.885 278.574C171.885 278.574 172.961 270.345 169.754 269.08C166.546 267.814 162.603 269.683 164.714 275.02C167.339 281.659 171.885 278.574 171.885 278.574Z" fill="#FF6D6D"/>
<path d="M204.472 362.085C165.238 374.401 167.325 319.183 167.071 318.8C151.516 295.035 142.784 326.704 144.291 331.161C158.085 381.098 192.863 378.626 206.414 368.817C204.727 366.199 204.341 363.888 204.472 362.085Z" fill="#FC5600"/>
<path d="M174.396 353.568C174.171 353.5 173.978 353.354 173.851 353.156C167.905 343.885 166.227 331.023 165.867 321.856C165.862 321.724 165.883 321.593 165.928 321.47C165.974 321.347 166.043 321.234 166.132 321.137C166.221 321.041 166.329 320.963 166.448 320.908C166.568 320.853 166.697 320.822 166.828 320.817C166.959 320.812 167.09 320.833 167.214 320.878C167.337 320.924 167.45 320.993 167.546 321.082C167.643 321.171 167.721 321.279 167.776 321.398C167.831 321.517 167.862 321.646 167.867 321.778C168.154 329.08 169.532 342.725 175.536 352.078C175.646 352.25 175.701 352.452 175.692 352.656C175.684 352.861 175.613 353.057 175.489 353.22C175.365 353.383 175.194 353.503 174.999 353.565C174.804 353.628 174.595 353.629 174.4 353.568H174.396Z" fill="#D64900"/>
<path d="M163.439 366.115C163.313 366.078 163.196 366.016 163.094 365.933C154.127 358.42 147.37 346.615 143.014 330.849C142.952 330.596 142.991 330.33 143.122 330.106C143.254 329.882 143.468 329.718 143.718 329.649C143.968 329.58 144.236 329.611 144.464 329.736C144.691 329.861 144.862 330.07 144.938 330.318C149.185 345.69 155.725 357.16 164.376 364.408C164.552 364.556 164.672 364.761 164.715 364.987C164.758 365.214 164.721 365.448 164.61 365.65C164.5 365.852 164.323 366.01 164.11 366.097C163.896 366.184 163.66 366.194 163.439 366.126V366.115Z" fill="#D64900"/>
<path d="M227.569 350.558C227.569 350.558 226.931 351.574 222.338 355.133C217.745 358.693 213.12 360.745 216.631 355.861C220.142 350.976 218.434 348.446 214.425 353.714C210.416 358.982 207.553 361.018 207.553 361.018C206.498 361.421 205.471 361.779 204.473 362.09C204.342 363.894 204.727 366.204 206.415 368.829C208.004 368.302 208.902 367.92 208.902 367.92C208.902 367.92 221.053 365.71 223.654 360.536C225.253 357.333 226.563 353.994 227.569 350.558Z" fill="#FF6D6D"/>
<path d="M316.339 324.748C316.339 324.748 215.723 275.042 248.628 238.445C281.534 201.848 342.879 216.476 345.988 254.988C349.097 293.499 274.428 284.477 316.339 324.748Z" fill="white"/>
<path d="M301.32 246.85L301.32 246.85C301.064 246.56 300.703 246.384 300.312 246.384H261.11C260.718 246.384 260.357 246.56 260.101 246.85C259.848 247.137 259.714 247.515 259.714 247.898C259.714 248.281 259.848 248.659 260.101 248.946C260.357 249.236 260.718 249.412 261.11 249.412H300.312C300.703 249.412 301.064 249.236 301.32 248.946L300.951 248.621L301.32 248.946C301.574 248.659 301.707 248.281 301.707 247.898C301.707 247.515 301.574 247.137 301.32 246.85Z" fill="#91B3FA" stroke="#91B3FA"/>
<path d="M324.593 246.85L324.593 246.85C324.337 246.56 323.976 246.384 323.585 246.384H311.952C311.561 246.384 311.2 246.56 310.944 246.85C310.69 247.137 310.557 247.515 310.557 247.898C310.557 248.281 310.69 248.659 310.944 248.946C311.2 249.236 311.561 249.412 311.952 249.412H323.585C323.976 249.412 324.337 249.236 324.593 248.946L324.23 248.626L324.593 248.946C324.847 248.659 324.98 248.281 324.98 247.898C324.98 247.515 324.847 247.137 324.593 246.85Z" fill="#91B3FA" stroke="#91B3FA"/>
<path d="M275.524 255.837L275.524 255.837C275.268 255.548 274.907 255.371 274.516 255.371H259.795C259.403 255.371 259.042 255.548 258.787 255.837C258.533 256.125 258.399 256.503 258.399 256.886C258.399 257.268 258.533 257.646 258.787 257.934L259.162 257.603L258.787 257.934C259.042 258.223 259.403 258.4 259.795 258.4H274.516C274.907 258.4 275.268 258.223 275.524 257.934L275.149 257.603L275.524 257.934C275.778 257.646 275.911 257.268 275.911 256.886C275.911 256.503 275.778 256.125 275.524 255.837Z" fill="#91B3FA" stroke="#91B3FA"/>
<path d="M295.099 257.934L295.474 257.603L295.099 257.934C295.355 258.223 295.716 258.4 296.108 258.4H322.271C322.663 258.4 323.024 258.223 323.279 257.934C323.533 257.646 323.667 257.268 323.667 256.886C323.667 256.503 323.533 256.125 323.279 255.837C323.024 255.548 322.663 255.371 322.271 255.371H296.108C295.716 255.371 295.355 255.548 295.099 255.837C294.846 256.125 294.712 256.503 294.712 256.886C294.712 257.268 294.846 257.646 295.099 257.934Z" fill="#91B3FA" stroke="#91B3FA"/>
<path d="M298.606 264.83L298.606 264.83C298.35 264.541 297.99 264.364 297.598 264.364H258.468C258.076 264.364 257.715 264.541 257.46 264.83C257.206 265.118 257.072 265.496 257.072 265.879C257.072 266.261 257.206 266.639 257.46 266.927C257.715 267.216 258.076 267.393 258.468 267.393H297.598C297.99 267.393 298.35 267.216 298.606 266.927L298.231 266.596L298.606 266.927C298.86 266.639 298.994 266.261 298.994 265.879C298.994 265.496 298.86 265.118 298.606 264.83Z" fill="#91B3FA" stroke="#91B3FA"/>
<path d="M307.405 267.393H320.951C321.343 267.393 321.704 267.216 321.959 266.927C322.213 266.639 322.347 266.261 322.347 265.879C322.347 265.496 322.213 265.118 321.959 264.83C321.704 264.541 321.343 264.364 320.951 264.364H307.405C307.014 264.364 306.653 264.541 306.397 264.83C306.144 265.118 306.01 265.496 306.01 265.879C306.01 266.261 306.144 266.639 306.397 266.927C306.651 267.214 307.009 267.39 307.397 267.393V267.393H307.405Z" fill="#91B3FA" stroke="#91B3FA"/>
<defs>
<linearGradient id="paint0_linear" x1="418.741" y1="451.144" x2="419.628" y2="-5.13492" gradientUnits="userSpaceOnUse">
<stop stop-color="#01000C"/>
</linearGradient>
<linearGradient id="paint1_linear" x1="604.301" y1="537.54" x2="319.713" y2="135.167" gradientUnits="userSpaceOnUse">
<stop stop-color="#4F52FF"/>
<stop offset="1" stop-color="#4042E2"/>
</linearGradient>
<linearGradient id="paint2_linear" x1="14023.1" y1="21946.2" x2="34251.9" y2="50455" gradientUnits="userSpaceOnUse">
<stop stop-color="#4F52FF"/>
<stop offset="1" stop-color="#4042E2"/>
</linearGradient>
<linearGradient id="paint3_linear" x1="-18179.5" y1="17635.6" x2="-25545.2" y2="45851.6" gradientUnits="userSpaceOnUse">
<stop stop-color="#4F52FF"/>
<stop offset="1" stop-color="#4042E2"/>
</linearGradient>
<linearGradient id="paint4_linear" x1="69381.3" y1="-784.519" x2="44235.3" y2="31067.5" gradientUnits="userSpaceOnUse">
<stop stop-color="#09005D"/>
<stop offset="1" stop-color="#1A0F91"/>
</linearGradient>
<linearGradient id="paint5_linear" x1="-2397.66" y1="2289.72" x2="3348.54" y2="30983.7" gradientUnits="userSpaceOnUse">
<stop stop-color="#09005D"/>
<stop offset="1" stop-color="#1A0F91"/>
</linearGradient>
<linearGradient id="paint6_linear" x1="296330" y1="14614.8" x2="296261" y2="-6707.46" gradientUnits="userSpaceOnUse">
<stop stop-color="#09005D"/>
<stop offset="1" stop-color="#1A0F91"/>
</linearGradient>
<linearGradient id="paint7_linear" x1="48755" y1="107271" x2="56357.6" y2="107271" gradientUnits="userSpaceOnUse">
<stop stop-color="#4F52FF"/>
<stop offset="1" stop-color="#4042E2"/>
</linearGradient>
<linearGradient id="paint8_linear" x1="18505.7" y1="67618.2" x2="7556.28" y2="68669.1" gradientUnits="userSpaceOnUse">
<stop stop-color="#09005D"/>
<stop offset="1" stop-color="#1A0F91"/>
</linearGradient>
<linearGradient id="paint9_linear" x1="164736" y1="4744.91" x2="164235" y2="11750.4" gradientUnits="userSpaceOnUse">
<stop stop-color="#09005D"/>
<stop offset="1" stop-color="#1A0F91"/>
</linearGradient>
<linearGradient id="paint10_linear" x1="193452" y1="18085" x2="184999" y2="49023.8" gradientUnits="userSpaceOnUse">
<stop stop-color="#09005D"/>
<stop offset="1" stop-color="#1A0F91"/>
</linearGradient>
<linearGradient id="paint11_linear" x1="-690.749" y1="1154.51" x2="-551.206" y2="1065.52" gradientUnits="userSpaceOnUse">
<stop stop-color="#53D8FF"/>
<stop offset="1" stop-color="#3840F7"/>
</linearGradient>
<linearGradient id="paint12_linear" x1="546.247" y1="212.437" x2="431.372" y2="351.059" gradientUnits="userSpaceOnUse">
<stop stop-color="#440041"/>
</linearGradient>
<linearGradient id="paint13_linear" x1="-84811.7" y1="70164" x2="-77709.8" y2="54494.5" gradientUnits="userSpaceOnUse">
<stop stop-color="#53D8FF"/>
<stop offset="1" stop-color="#3840F7"/>
</linearGradient>
<linearGradient id="paint14_linear" x1="190851" y1="18893.3" x2="186278" y2="33939.8" gradientUnits="userSpaceOnUse">
<stop stop-color="#09005D"/>
<stop offset="1" stop-color="#1A0F91"/>
</linearGradient>
<linearGradient id="paint15_linear" x1="312622" y1="-4796.18" x2="309299" y2="16832.2" gradientUnits="userSpaceOnUse">
<stop stop-color="#09005D"/>
<stop offset="1" stop-color="#1A0F91"/>
</linearGradient>
<linearGradient id="paint16_linear" x1="145212" y1="277881" x2="161466" y2="277881" gradientUnits="userSpaceOnUse">
<stop stop-color="#4F52FF"/>
<stop offset="1" stop-color="#4042E2"/>
</linearGradient>
<linearGradient id="paint17_linear" x1="147067" y1="277891" x2="163317" y2="277891" gradientUnits="userSpaceOnUse">
<stop stop-color="#4F52FF"/>
<stop offset="1" stop-color="#4042E2"/>
</linearGradient>
<linearGradient id="paint18_linear" x1="206454" y1="277880" x2="222706" y2="277880" gradientUnits="userSpaceOnUse">
<stop stop-color="#4F52FF"/>
<stop offset="1" stop-color="#4042E2"/>
</linearGradient>
<linearGradient id="paint19_linear" x1="208336" y1="277891" x2="224589" y2="277891" gradientUnits="userSpaceOnUse">
<stop stop-color="#4F52FF"/>
<stop offset="1" stop-color="#4042E2"/>
</linearGradient>
<linearGradient id="paint20_linear" x1="761221" y1="26299.9" x2="1.23724e+06" y2="26299.9" gradientUnits="userSpaceOnUse">
<stop stop-color="#4F52FF"/>
<stop offset="1" stop-color="#4042E2"/>
</linearGradient>
<linearGradient id="paint21_linear" x1="153791" y1="7887.81" x2="161686" y2="7887.81" gradientUnits="userSpaceOnUse">
<stop stop-color="#4F52FF"/>
<stop offset="1" stop-color="#4042E2"/>
</linearGradient>
<linearGradient id="paint22_linear" x1="159992" y1="22425.7" x2="159854" y2="26232" gradientUnits="userSpaceOnUse">
<stop stop-color="#09005D"/>
<stop offset="1" stop-color="#1A0F91"/>
</linearGradient>
<linearGradient id="paint23_linear" x1="134133" y1="64290.3" x2="139279" y2="64290.3" gradientUnits="userSpaceOnUse">
<stop stop-color="#4F52FF"/>
<stop offset="1" stop-color="#4042E2"/>
</linearGradient>
<linearGradient id="paint24_linear" x1="150290" y1="57176.1" x2="149289" y2="66749.8" gradientUnits="userSpaceOnUse">
<stop stop-color="#09005D"/>
<stop offset="1" stop-color="#1A0F91"/>
</linearGradient>
<linearGradient id="paint25_linear" x1="49709" y1="198883" x2="9633.34" y2="271667" gradientUnits="userSpaceOnUse">
<stop stop-color="#09005D"/>
<stop offset="1" stop-color="#1A0F91"/>
</linearGradient>
<linearGradient id="paint26_linear" x1="650409" y1="149872" x2="610672" y2="217640" gradientUnits="userSpaceOnUse">
<stop stop-color="#09005D"/>
<stop offset="1" stop-color="#1A0F91"/>
</linearGradient>
<linearGradient id="paint27_linear" x1="162424" y1="162576" x2="169058" y2="160107" gradientUnits="userSpaceOnUse">
<stop stop-color="#09005D"/>
<stop offset="1" stop-color="#1A0F91"/>
</linearGradient>
</defs>
</svg>
