<svg xmlns="http://www.w3.org/2000/svg" xmlns:xlink="http://www.w3.org/1999/xlink" viewBox="0 0 2827.02 2800"><defs><style>.cls-1{isolation:isolate;}.cls-2{fill:url(#linear-gradient);}.cls-3{fill:#91b3fa;}.cls-10,.cls-14,.cls-15,.cls-16,.cls-4,.cls-5,.cls-7{fill:#fff;}.cls-4{mix-blend-mode:soft-light;}.cls-5{opacity:0.45;}.cls-6{fill:#bdd0fb;}.cls-7{opacity:0.43;}.cls-8{fill:url(#linear-gradient-2);}.cls-9{fill:url(#linear-gradient-3);}.cls-10{opacity:0.78;}.cls-11{fill:url(#linear-gradient-4);}.cls-12{fill:url(#linear-gradient-5);}.cls-13,.cls-15{opacity:0.6;}.cls-16{opacity:0.25;}.cls-17{fill:url(#linear-gradient-6);}.cls-18{fill:url(#linear-gradient-7);}.cls-19{fill:url(#linear-gradient-8);}.cls-20{fill:url(#linear-gradient-9);}.cls-21{fill:url(#linear-gradient-10);}.cls-22{fill:url(#linear-gradient-11);}.cls-23{fill:url(#linear-gradient-12);}.cls-24{fill:url(#linear-gradient-13);}.cls-25{fill:url(#linear-gradient-14);}.cls-26{fill:url(#linear-gradient-15);}.cls-27{fill:url(#linear-gradient-16);}.cls-28{fill:url(#linear-gradient-17);}.cls-29{fill:url(#linear-gradient-18);}.cls-30{fill:url(#linear-gradient-19);}.cls-31{fill:url(#linear-gradient-20);}.cls-32{fill:url(#linear-gradient-21);}.cls-33{fill:url(#linear-gradient-22);}.cls-34{fill:url(#linear-gradient-23);}.cls-35{fill:url(#linear-gradient-24);}.cls-36{fill:url(#linear-gradient-25);}.cls-37{fill:url(#linear-gradient-26);}.cls-38{fill:url(#linear-gradient-27);}.cls-39{fill:url(#linear-gradient-28);}.cls-40{fill:url(#linear-gradient-29);}.cls-41{fill:url(#linear-gradient-30);}.cls-42{fill:url(#linear-gradient-31);}.cls-43{fill:url(#linear-gradient-32);}.cls-44{fill:url(#linear-gradient-33);}.cls-45{fill:url(#linear-gradient-34);}.cls-46{fill:url(#linear-gradient-35);}.cls-47{fill:url(#linear-gradient-36);}.cls-48{fill:url(#linear-gradient-37);}.cls-49{fill:url(#linear-gradient-38);}.cls-50{fill:url(#linear-gradient-39);}.cls-51{fill:url(#linear-gradient-40);}.cls-52{fill:url(#linear-gradient-41);}.cls-53{fill:url(#linear-gradient-42);}.cls-54{fill:url(#linear-gradient-43);}.cls-55{fill:url(#linear-gradient-44);}.cls-56{fill:url(#linear-gradient-45);}.cls-57{fill:url(#linear-gradient-46);}</style><linearGradient id="linear-gradient" x1="3179.6" y1="3639.65" x2="673.93" y2="527.77" gradientUnits="userSpaceOnUse"><stop offset="0" stop-color="#dae3fe"/><stop offset="1" stop-color="#e9effd"/></linearGradient><linearGradient id="linear-gradient-2" x1="1759.01" y1="2487.56" x2="1763.89" y2="-22.42" gradientUnits="userSpaceOnUse"><stop offset="0" stop-color="#09005d"/><stop offset="1" stop-color="#1a0f91"/></linearGradient><linearGradient id="linear-gradient-3" x1="-1245.19" y1="3036.3" x2="275.54" y2="792.69" gradientTransform="matrix(-1, 0.02, 0.02, 1, 1473.68, -48.57)" gradientUnits="userSpaceOnUse"><stop offset="0" stop-color="#4f52ff"/><stop offset="1" stop-color="#4042e2"/></linearGradient><linearGradient id="linear-gradient-4" x1="-438.18" y1="722.74" x2="-1073.63" y2="1668.78" gradientTransform="matrix(-0.06, -1, -1, 0.06, 2873.16, 223.98)" xlink:href="#linear-gradient-3"/><linearGradient id="linear-gradient-5" x1="-329.64" y1="795.62" x2="-965.12" y2="1741.7" xlink:href="#linear-gradient-3"/><linearGradient id="linear-gradient-6" x1="1909.83" y1="19.43" x2="1264.11" y2="868.86" gradientTransform="translate(50.54 -17.01) rotate(-1.3)" xlink:href="#linear-gradient-2"/><linearGradient id="linear-gradient-7" x1="25.16" y1="91.47" x2="-574.62" y2="880.47" gradientTransform="matrix(-1, 0.02, 0.02, 1, 1473.68, -48.57)" xlink:href="#linear-gradient-2"/><linearGradient id="linear-gradient-8" x1="1750.11" y1="595.27" x2="1730.62" y2="-277.13" xlink:href="#linear-gradient-2"/><linearGradient id="linear-gradient-9" x1="1302.28" y1="1930.8" x2="1506.76" y2="1930.8" gradientTransform="matrix(1, 0, 0, 1, 0, 0)" xlink:href="#linear-gradient-3"/><linearGradient id="linear-gradient-10" x1="3086.35" y1="1059.01" x2="2179.66" y2="2000.06" xlink:href="#linear-gradient-2"/><linearGradient id="linear-gradient-11" x1="3198.28" y1="1114.58" x2="2276.66" y2="2071.11" xlink:href="#linear-gradient-2"/><linearGradient id="linear-gradient-12" x1="2988.16" y1="964.41" x2="2081.47" y2="1905.45" xlink:href="#linear-gradient-2"/><linearGradient id="linear-gradient-13" x1="3456.11" y1="2420.34" x2="3685.57" y2="2420.34" gradientTransform="translate(-2209.36)" gradientUnits="userSpaceOnUse"><stop offset="0" stop-color="#febbba"/><stop offset="1" stop-color="#ff928e"/></linearGradient><linearGradient id="linear-gradient-14" x1="-2133.87" y1="6356.75" x2="-1366.3" y2="5867.37" gradientTransform="translate(-2209.36)" gradientUnits="userSpaceOnUse"><stop offset="0" stop-color="#53d8ff"/><stop offset="1" stop-color="#3840f7"/></linearGradient><linearGradient id="linear-gradient-15" x1="-3039.15" y1="2516.38" x2="-2742.66" y2="2006.41" gradientTransform="matrix(-1, 0, 0, 1, -1742.43, 0)" xlink:href="#linear-gradient-13"/><linearGradient id="linear-gradient-16" x1="2460.29" y1="1174.44" x2="1828.35" y2="1936.89" gradientUnits="userSpaceOnUse"><stop offset="0" stop-color="#ff928e"/><stop offset="1" stop-color="#fe7062"/></linearGradient><linearGradient id="linear-gradient-17" x1="-2204.36" y1="6246.2" x2="-1436.8" y2="5756.81" xlink:href="#linear-gradient-14"/><linearGradient id="linear-gradient-18" x1="1485.94" y1="1324.56" x2="1630.19" y2="1812.25" xlink:href="#linear-gradient-16"/><linearGradient id="linear-gradient-19" x1="3789.86" y1="1771.43" x2="3765.64" y2="1616.02" xlink:href="#linear-gradient-13"/><linearGradient id="linear-gradient-20" x1="4357.56" y1="3211.82" x2="4549.33" y2="3342.08" gradientTransform="matrix(0.91, -0.42, 0.42, 0.91, -3861.99, 444.8)" xlink:href="#linear-gradient-13"/><linearGradient id="linear-gradient-21" x1="4692.24" y1="2967.11" x2="4370.59" y2="3301.76" gradientTransform="matrix(0.91, -0.42, 0.42, 0.91, -3861.99, 444.8)" xlink:href="#linear-gradient-2"/><linearGradient id="linear-gradient-22" x1="4369.05" y1="3194.9" x2="4560.83" y2="3325.16" gradientTransform="matrix(0.91, -0.42, 0.42, 0.91, -3861.99, 444.8)" xlink:href="#linear-gradient-13"/><linearGradient id="linear-gradient-23" x1="3928.9" y1="2040.52" x2="4383.77" y2="2040.52" xlink:href="#linear-gradient-13"/><linearGradient id="linear-gradient-24" x1="4835.21" y1="3104.52" x2="4513.56" y2="3439.17" gradientTransform="matrix(0.91, -0.42, 0.42, 0.91, -3861.99, 444.8)" xlink:href="#linear-gradient-2"/><linearGradient id="linear-gradient-25" x1="2675.31" y1="2426.93" x2="2974.3" y2="2426.93" gradientTransform="translate(-2209.36)" xlink:href="#linear-gradient-3"/><linearGradient id="linear-gradient-26" x1="2709.84" y1="2426.93" x2="3008.83" y2="2426.93" gradientTransform="translate(-2209.36)" xlink:href="#linear-gradient-3"/><linearGradient id="linear-gradient-27" x1="3798.26" y1="2426.93" x2="4097.25" y2="2426.93" gradientTransform="translate(-2209.36)" xlink:href="#linear-gradient-3"/><linearGradient id="linear-gradient-28" x1="3832.78" y1="2426.93" x2="4131.77" y2="2426.93" gradientTransform="translate(-2209.36)" xlink:href="#linear-gradient-3"/><linearGradient id="linear-gradient-29" x1="2588.32" y1="2118.39" x2="4206.4" y2="2118.39" gradientTransform="translate(-2209.36)" xlink:href="#linear-gradient-3"/><linearGradient id="linear-gradient-30" x1="4070.11" y1="2712.76" x2="4278.47" y2="2712.76" gradientTransform="translate(-3467.87)" xlink:href="#linear-gradient-3"/><linearGradient id="linear-gradient-31" x1="4230.64" y1="2312.09" x2="4173.71" y2="2705.44" gradientTransform="translate(-3467.87)" xlink:href="#linear-gradient-2"/><linearGradient id="linear-gradient-32" x1="4080.51" y1="2649.97" x2="4136.89" y2="2649.97" gradientTransform="translate(-3467.87)" xlink:href="#linear-gradient-13"/><linearGradient id="linear-gradient-33" x1="4396.92" y1="2671.46" x2="4565.15" y2="2671.46" gradientTransform="translate(-3467.87)" xlink:href="#linear-gradient-3"/><linearGradient id="linear-gradient-34" x1="4512.64" y1="2352.9" x2="4455.71" y2="2746.25" gradientTransform="translate(-3467.87)" xlink:href="#linear-gradient-2"/><linearGradient id="linear-gradient-35" x1="610.71" y1="2180.5" x2="198.59" y2="3020.18" xlink:href="#linear-gradient-2"/><linearGradient id="linear-gradient-36" x1="4347.55" y1="2654.71" x2="4414.85" y2="2654.71" gradientTransform="translate(-3467.87)" xlink:href="#linear-gradient-13"/><linearGradient id="linear-gradient-37" x1="4693.18" y1="1621.17" x2="4203.22" y2="2176.69" gradientTransform="translate(-3467.87)" xlink:href="#linear-gradient-2"/><linearGradient id="linear-gradient-38" x1="5719.36" y1="-10903.82" x2="5260.88" y2="-10146.56" gradientTransform="matrix(-1, 0, 0, 1, -1742.43, 0)" xlink:href="#linear-gradient-16"/><linearGradient id="linear-gradient-39" x1="3781.25" y1="1582.05" x2="3901.69" y2="1582.05" gradientTransform="translate(-3467.87)" xlink:href="#linear-gradient-13"/><linearGradient id="linear-gradient-40" x1="2909.1" y1="4185.36" x2="2737.44" y2="4412.46" gradientTransform="translate(-3708.51 -1475.1) rotate(-20.41)" xlink:href="#linear-gradient-13"/><linearGradient id="linear-gradient-41" x1="2778" y1="4240.14" x2="2983.05" y2="4240.14" gradientTransform="translate(-3708.51 -1475.1) rotate(-20.41)" xlink:href="#linear-gradient-2"/><linearGradient id="linear-gradient-42" x1="2657.68" y1="4365.21" x2="2795.37" y2="4223.94" gradientTransform="translate(-3708.51 -1475.1) rotate(-20.41)" xlink:href="#linear-gradient-13"/><linearGradient id="linear-gradient-43" x1="5641.98" y1="-10950.66" x2="5183.5" y2="-10193.4" gradientTransform="matrix(-1, 0, 0, 1, -1742.43, 0)" xlink:href="#linear-gradient-16"/><linearGradient id="linear-gradient-44" x1="-630.7" y1="6587.77" x2="291.41" y2="5217.5" gradientTransform="translate(-2243.21 -65.42) rotate(17.24)" gradientUnits="userSpaceOnUse"><stop offset="0" stop-color="#e1473d"/><stop offset="1" stop-color="#e9605a"/></linearGradient><linearGradient id="linear-gradient-45" x1="-641.23" y1="6580.68" x2="280.87" y2="5210.4" xlink:href="#linear-gradient-44"/><linearGradient id="linear-gradient-46" x1="914" y1="1265.57" x2="707.95" y2="1801.32" gradientTransform="matrix(1, 0, 0, 1, 0, 0)" xlink:href="#linear-gradient-13"/></defs><g class="cls-1"><g id="Layer_2" data-name="Layer 2"><g id="Illustration"><path class="cls-2" d="M2499.33,2406.15c-58,60.25-113,99.1-156.37,129.8-510.12,360.83-1113.73,255.65-1242,230C911.51,2728,545.34,2654.66,280.6,2347.75-119.92,1883.41-57.56,1151.87,253.12,669c56.82-88.33,357-578.59,967.11-657.21,369.23-47.58,799.64,48.38,1111.32,305.82C2985.81,857.94,2939.24,1949.59,2499.33,2406.15Z"/><path class="cls-3" d="M2797.43,1128.71c2.45-10.4-12.18-17.31-21.14-10-90.93,73.74-309.43,294.57-255,680.48,68.32,484.18-48.48,660.85-193.87,768.62,0,0,199.67-50.68,325.29-230C2961.16,1897.65,2754,1313.56,2797.43,1128.71Z"/><path class="cls-4" d="M2728.23,1279.94c-11.38,53.9-21.52,108-29.35,162.27q-12.26,81.4-18.71,163.26c-4,54.55-6.89,109.16-7.05,163.8-.45,54.63,1.82,109.21,4.33,164,2.14,54.78,4.67,110,.66,165.51s-15.62,111.39-38.78,163.83c-5.79,13.06-11.88,26.09-18.8,38.68-6.65,12.7-14,25.16-21.51,37.49a592.16,592.16,0,0,1-51.58,71c-38.43,45.07-84.77,85-135.83,118.87-5.37,3.56-13.07,2.69-17.2-1.95s-3.14-11.05,2-14.66l0,0c12.15-8.53,24.17-17.17,35.7-26.25,5.85-4.46,11.46-9.13,17.17-13.71,5.5-4.76,11.22-9.34,16.54-14.24a588.69,588.69,0,0,0,60-61.65c36.65-43.34,66-91.62,88.22-141.68a479,479,0,0,0,25.72-77.21,527.38,527.38,0,0,0,12.4-80c4.37-53.93,2.4-108.56.71-163.35s-2.79-109.88-1.35-164.92q1-41.26,3.63-82.49c.8-13.74,1.9-27.46,3-41.18q1.84-20.58,4-41.12,8.85-82.15,23.56-163.65c10.12-54.26,21.91-108.26,36.08-161.79a3.33,3.33,0,0,1,3.94-2.13A2.89,2.89,0,0,1,2728.23,1279.94Z"/><path class="cls-3" d="M1025.33,2446.63s58.77-230.58-116.26-475.27c-162.39-227-570.21-753.79-619.43-1037-2.18-12.54-22-9.82-25.86,3.59-41.33,143.78-115.67,505.57,41.86,876.38C508.78,2292.54,1025.33,2446.63,1025.33,2446.63Z"/><path class="cls-5" d="M305.48,1196.11s-.7,5.46-1.23,15.77-.84,25.45-.26,44.68,2.36,42.55,5.94,69.08a864.4,864.4,0,0,0,48,189.71,1037.52,1037.52,0,0,0,47.8,108.35,1143.44,1143.44,0,0,0,64,109.26L488,1759.79l19.23,26.42c13,17.55,26.39,35.18,39.78,52.58,26.79,34.9,54.21,69.36,81.46,103s54.53,66.49,81.19,98c53.05,63.3,103.72,121.5,145.59,172.83,21,25.65,39.35,49.88,54.94,71.88a625.81,625.81,0,0,1,37.43,59A376.54,376.54,0,0,1,967,2384.25c1.94,4.82,3.2,8.61,4.15,11.12s1.4,3.82,1.4,3.82a1.72,1.72,0,0,1-3.21,1.24l0-.08-1.51-3.74c-1-2.44-2.39-6.14-4.46-10.83a405.78,405.78,0,0,0-20.36-39.54,622.48,622.48,0,0,0-38.49-57.5c-15.92-21.51-35-44.93-56.19-70.26-42.43-50.56-94-108-147.93-170.68-26.88-31.42-54.42-64.13-82-97.74s-54.91-68.23-81.87-103.21c-13.51-17.53-26.78-35-39.94-52.72l-19.31-26.81q-9.21-13.65-18.36-27.23a1066.71,1066.71,0,0,1-63.86-111,949.19,949.19,0,0,1-46.67-110.28A895.51,895.51,0,0,1,319,1415.67a760,760,0,0,1-14.4-89.4A696.69,696.69,0,0,1,301,1256.6c0-19.34,1.11-34.5,2.1-44.8s1.95-15.75,1.95-15.75a.22.22,0,0,1,.25-.17A.2.2,0,0,1,305.48,1196.11Z"/><path class="cls-6" d="M713.93,386.52c5.53-14.76,27.21-12.29,29.21,3.34,19.34,151.11,82.46,545.76,235.6,772.8,249.34,369.68,369.28,928,138.45,1174C1117.19,2336.69,111.48,1994.24,713.93,386.52Z"/><path class="cls-7" d="M716.4,598.35s0,1.57-.08,4.62.06,7.4.27,13.34c.28,11.81,1,29.14,2.1,51.18s2.72,48.79,5,79.45c2.11,30.67,5.2,65.22,8.46,102.91,3.55,37.66,7.5,78.46,12.57,121.5,4.81,43.08,10.88,88.39,17.27,135.23,6.73,46.8,13.91,95.13,22.4,144q3.17,18.35,6.34,36.82l6.89,36.94c4.44,24.72,9.65,49.39,14.6,74.11s10.71,49.26,15.88,73.82q8.43,36.71,17.08,73,4.56,18,9.1,35.91c3.07,11.9,5.91,23.81,9.25,35.5s6.43,23.37,9.61,34.94l4.76,17.28q2.54,8.56,5.06,17.06l10,33.66q2.5,8.33,5,16.58,2.67,8.19,5.3,16.3l10.35,32.1c1.72,5.28,3.34,10.56,5.1,15.76s3.61,10.32,5.39,15.43L934.7,1846q2.59,7.46,5.16,14.78,2.76,7.26,5.46,14.41c7.33,19,14.06,37.51,21.17,55s14.22,34.16,20.83,50.07c6.84,15.8,13.74,30.61,20,44.63q4.75,10.49,9.21,20.29l9.21,18.57L1042,2096.5c2.37,5,5,9.52,7.3,13.83s4.55,8.35,6.59,12.12l10.39,19.12,8.65,15.93,0,.06a1.72,1.72,0,0,1-3,1.67l-9-15.75c-2.94-5.14-6.58-11.48-10.85-18.93l-6.86-12c-2.43-4.28-5.1-8.79-7.56-13.74l-16.84-32.54-9.56-18.47-9.59-20.19c-6.51-14-13.75-28.69-20.8-44.47q-10.22-23.82-21.43-50c-7.32-17.49-14.26-36-21.82-55L932,1863.71l-5.33-14.77-10.92-30.23c-14.61-40.92-28.63-84.57-42.11-130l-5.13-17.09q-2.41-8.62-4.84-17.33-4.85-17.38-9.76-35c-3.39-11.72-6.28-23.64-9.39-35.57s-6.17-23.94-9.27-36q-8.81-36.27-17.37-73.1-4-18.45-8-37c-2.66-12.34-5.38-24.68-7.77-37.09-4.89-24.79-10-49.53-14.4-74.32q-3.42-18.57-6.8-37-3.14-18.53-6.25-36.92c-8.37-49-15.42-97.49-22-144.39-6.18-47-11.71-92.42-16.19-135.61-4.69-43.16-8.27-84-11.49-121.8-6-75.54-9.13-138.62-10.76-182.79-.72-22.09-1.19-39.44-1.28-51.3-.12-5.88,0-10.59,0-13.67s.16-4.64.16-4.64a1.71,1.71,0,0,1,3.42.09Z"/><path class="cls-8" d="M2403.56,424.32,1100,453.85a135.08,135.08,0,0,0-132,131.23L914.66,2477.13a99.62,99.62,0,0,0,100,102.42l1494.62-6.69a94.56,94.56,0,0,0,94.11-96.7l-43.1-1902A153.31,153.31,0,0,0,2403.56,424.32Z"/><path class="cls-9" d="M2399.69,430.5c-177.46,28.17-787.9,116.7-1294.87,89.32a41.18,41.18,0,0,0-43.46,39.83l-57.88,1900.58a47.38,47.38,0,0,0,45.64,48.82c213.14,7.77,1090.84,36.61,1402.77-3.23a37.54,37.54,0,0,0,32.75-37.91L2451.19,473.77A44.53,44.53,0,0,0,2399.69,430.5Z"/><path class="cls-3" d="M2381.74,480.18c-170.78,27.11-758.23,112.3-1246.12,85.95a39.63,39.63,0,0,0-41.82,38.33l-55.7,1829a45.62,45.62,0,0,0,43.92,47c205.12,7.48,1049.77,35.22,1350-3.11a36.13,36.13,0,0,0,31.51-36.48L2431.3,521.81A42.84,42.84,0,0,0,2381.74,480.18Z"/><path class="cls-10" d="M2275.91,666.25l-9.32,392.06a24.9,24.9,0,0,1-23.62,24.3c-72.49,3.69-298.38,14.32-426.15,10.56a27.82,27.82,0,0,1-27-26.28c-4.09-73.4-14.26-287.05.45-376.8a31.38,31.38,0,0,1,29.21-26.2l428.39-24.71A26.48,26.48,0,0,1,2275.91,666.25Z"/><circle class="cls-11" cx="2032.39" cy="811.86" r="84.21" transform="translate(1151.33 2815.22) rotate(-88.04)"/><path class="cls-12" d="M2165.87,1056.15l-268.23,6.08a20.77,20.77,0,0,1-18.16-31.62c22-36.17,68.45-89.62,151.06-89.13,79.62.48,127.85,46.72,152.33,80.11A21.71,21.71,0,0,1,2165.87,1056.15Z"/><g class="cls-13"><path class="cls-14" d="M1202.54,724.68c-7.56.17-13.7-5.61-13.65-12.84s6.26-13.4,13.81-13.7l473-19.16c7.55-.3,11.81,5.32,9.46,12.51l-3.06,9.36c-2.35,7.18-10.45,13.2-18,13.37Z"/></g><g class="cls-13"><path class="cls-14" d="M1677.37,752c7.55-.31,11.81,5.32,9.46,12.5l-3.06,9.36c-2.35,7.18-10.45,13.2-18,13.37l-461.58,10.46a13,13,0,0,1-13.65-12.84c0-7.23,6.27-13.39,13.82-13.7Z"/></g><g class="cls-13"><path class="cls-14" d="M1679.05,826.07c7.55-.31,11.81,5.32,9.46,12.5l-3.06,9.37c-2.35,7.18-10.45,13.19-18,13.37l-461.58,10.45c-7.55.17-13.69-5.6-13.65-12.83s6.27-13.4,13.82-13.71Z"/></g><path class="cls-15" d="M1371.25,897.93c-36.33-2-104.26-1.71-141.65-1.39a33.88,33.88,0,0,0-32.85,26.67c-6.54,30.07-15.32,82.22-12.82,137.21a30.1,30.1,0,0,0,31,28.77l137.91-4.61a33.15,33.15,0,0,0,31.94-30.78l9.19-130A24.14,24.14,0,0,0,1371.25,897.93Z"/><g class="cls-13"><path class="cls-14" d="M1457.12,962c-7.55.17-13.78-5.6-13.84-12.83s6.06-13.51,13.6-13.95l219.83-12.92c7.55-.44,12.8,5.31,11.67,12.78l-1.23,8.17a17,17,0,0,1-15.79,13.9Z"/></g><g class="cls-13"><path class="cls-14" d="M1679.21,1008.29c7.56-.17,12.59,5.77,11.19,13.19l-1.53,8.12a17,17,0,0,1-16.28,13.31l-214.27-3c-7.56-.11-13.57-6.1-13.37-13.33s6.55-13.28,14.11-13.44Z"/></g><g class="cls-13"><path class="cls-14" d="M1168.3,1230c-7.55.17-13.48-5.61-13.16-12.84s6.74-13.35,14.3-13.58l1104.27-33.73c7.55-.23,10,4.5,5.42,10.52l-10.61,14c-4.57,6-14.49,11.07-22,11.24Z"/></g><g class="cls-13"><path class="cls-14" d="M2275.36,1242.88c7.56-.23,10,4.5,5.42,10.52l-10.6,14c-4.57,6-14.5,11.08-22,11.25L1170,1303c-7.55.18-13.47-5.61-13.16-12.84s6.75-13.35,14.3-13.58Z"/></g><path class="cls-16" d="M2281.56,1364.72c-26.53-1.43-76.14-1.25-103.45-1a24.74,24.74,0,0,0-24,19.47c-4.78,22-11.19,60-9.36,100.22a22,22,0,0,0,22.65,21l100.72-3.36a24.21,24.21,0,0,0,23.33-22.48l6.7-95A17.63,17.63,0,0,0,2281.56,1364.72Z"/><g class="cls-13"><path class="cls-14" d="M2097.69,1407.76c7.54-.49,12.93,5.25,12,12.74l-2.46,19.35a16.49,16.49,0,0,1-15.46,13.94L1844,1459.41a13.57,13.57,0,0,1-13.87-13.43l-.08-7.21a14.71,14.71,0,0,1,13.57-14.62Z"/></g><path class="cls-16" d="M1732.76,1377.15c-26.53-1.42-76.14-1.24-103.45-1a24.75,24.75,0,0,0-24,19.47c-4.77,22-11.18,60.05-9.35,100.21a22,22,0,0,0,22.65,21l100.71-3.37a24.19,24.19,0,0,0,23.33-22.48l6.71-95A17.63,17.63,0,0,0,1732.76,1377.15Z"/><g class="cls-13"><path class="cls-14" d="M1548.88,1420.19c7.54-.49,12.93,5.25,12,12.74l-2.46,19.36a16.51,16.51,0,0,1-15.47,13.94l-247.73,5.61a13.58,13.58,0,0,1-13.88-13.43l-.07-7.21a14.72,14.72,0,0,1,13.57-14.62Z"/></g><g class="cls-13"><path class="cls-14" d="M1238.38,1716.53c-7.56.17-13.49-5.61-13.19-12.85s6.72-13.34,14.27-13.58l1072.59-33c7.55-.23,10.06,4.55,5.57,10.63l-10.13,13.71c-4.48,6.08-14.34,11.19-21.89,11.36Z"/></g><g class="cls-13"><path class="cls-14" d="M2313.7,1730.11c7.55-.23,10.06,4.55,5.57,10.63l-10.12,13.71c-4.49,6.08-14.34,11.2-21.9,11.37L1240,1789.54c-7.55.17-13.49-5.61-13.19-12.84s6.73-13.35,14.28-13.58Z"/></g><g class="cls-13"><path class="cls-14" d="M2315.38,1804.19c7.55-.24,10.06,4.55,5.57,10.63l-10.12,13.71c-4.49,6.08-14.34,11.19-21.9,11.36l-1047.22,23.73c-7.56.17-13.49-5.61-13.19-12.85s6.72-13.35,14.28-13.58Z"/></g><path class="cls-17" d="M1666.66,368.92l147.61-16.47,9.35-135.95a57.5,57.5,0,0,0-42.2-59.51c-29-7.85-70-7.57-116.31,26.25C1574.23,249.57,1666.66,368.92,1666.66,368.92Zm28.26-113.75a36.88,36.88,0,1,1,37.71,36A36.88,36.88,0,0,1,1694.92,255.17Z"/><path class="cls-3" d="M1797.87,295.71a3.58,3.58,0,0,1-3.32-3.81l1.49-21.65a3.57,3.57,0,1,1,7.13.49l-1.49,21.65a3.57,3.57,0,0,1-3.48,3.32A1.82,1.82,0,0,1,1797.87,295.71Zm2.92-42.43a3.58,3.58,0,0,1-3.32-3.81l1.14-16.43a47.72,47.72,0,0,0-35-49.31,103.55,103.55,0,0,0-50.64-.93,3.57,3.57,0,1,1-1.6-7,110.58,110.58,0,0,1,54.11,1,54.91,54.91,0,0,1,40.21,56.7L1804.6,250a3.58,3.58,0,0,1-3.48,3.33Z"/><path class="cls-18" d="M2018.11,435.55l-1.54-68.21a41.63,41.63,0,0,0-44-40.62l-469.9,26.76a40.5,40.5,0,0,0-38.16,38.92L1462.08,458Z"/><path class="cls-3" d="M1840.86,355.42l20.22-.46a3.57,3.57,0,0,0-.16-7.14l-20.22.46a3.57,3.57,0,1,0,.16,7.14Z"/><path class="cls-3" d="M1992.17,414.71a3.57,3.57,0,0,0,3.49-3.65l-.62-27.6a38.71,38.71,0,0,0-39.54-37.78l-74.36,1.68a3.57,3.57,0,0,0,.17,7.14l74.35-1.69a31.58,31.58,0,0,1,32.24,30.81l.62,27.6A3.58,3.58,0,0,0,1992.17,414.71Z"/><path class="cls-19" d="M2164.9,407.24l-822.34,18.61a60.79,60.79,0,0,0-58.75,51.77l-.61,4A52.22,52.22,0,0,0,1336,541.6l843.67-19.12a33.94,33.94,0,0,0,33.09-36.33l-2.67-37.72A44.33,44.33,0,0,0,2164.9,407.24Z"/><path class="cls-20" d="M1505.72,2053.1,1396.13,1787a13.73,13.73,0,0,0-12.7-8.51H1316a13.74,13.74,0,0,0-12.48,19.46l127.06,277.23a13.75,13.75,0,0,0,15.47,7.69l49.92-11.09A13.74,13.74,0,0,0,1505.72,2053.1Z"/><rect class="cls-21" x="1642.1" y="2366.73" width="32.27" height="349.01"/><path class="cls-22" d="M1520.28,2701.45h275.91a3.37,3.37,0,0,1,3.37,3.37v17.63a0,0,0,0,1,0,0H1516.91a0,0,0,0,1,0,0v-17.63A3.37,3.37,0,0,1,1520.28,2701.45Z"/><rect class="cls-23" x="1486.13" y="2288.53" width="355.39" height="100.79" rx="34.71"/><path class="cls-24" d="M1420,2134s-48,7.43-101.88,43.48a26.88,26.88,0,0,0-11.86,25.68c6.46,51.14,33,216.67,120.54,378.33a40.72,40.72,0,0,1,3.9,27.93l-15.21,70.77-28.2,26.45h72.64l48.37-130.89-20.68-6.54a39.13,39.13,0,0,1-27.33-36.64l-2.43-140.41c2.07-62.55-38.35-105.71-38.35-105.71l116-5.64Z"/><path class="cls-25" d="M1358.92,2719.42c-6.62,8.66,71.2,20.09,110.52,1.15,0,0,54.5-94.82,54.5-143.64,0,0-4.33-10-36.33-7.7,0,0-18.3,112.27-37.62,124.85s-54.06,1.27-54.06,1.27S1368.68,2706.65,1358.92,2719.42Z"/><path class="cls-26" d="M1520.83,2288.53c-.62-1.07-124.9-15-124.9-15s4.06,37.79-8.65,89.81-195.19,277.41-195.19,277.41l19.13,60.65c-59.16,20.61-117.35,23.9-174.61,10.51l118.58-71.16s111-378.19,179-445.65L1458.72,2152Z"/><path class="cls-27" d="M1799.56,2068.47s71.61,106.51,77.49,155.1-19.62,68.32-94.75,71.58-275.72,3.2-275.72,3.2L1335.39,2152s124.76-44.51,157.19-57.1S1799.56,2068.47,1799.56,2068.47Z"/><path class="cls-28" d="M1204,2681s20.6,19.95,6.69,42.15c0,0-163.19,28.92-207.49,15.8,0,0,9.2-21,59.09-44.9l-3.68,2.83a6,6,0,0,0,3.93,10.69C1095.41,2705.72,1163.44,2699.7,1204,2681Z"/><path class="cls-29" d="M1605.91,2054.37s-83.39-79.4-124.44-132A111.6,111.6,0,0,1,1462.58,1822c18.74-63.14,52-128.53,55.08-138.71,4.66-15.6,98.16-15,98.16-15s184,119.41,256.27,321.68l-81.18,25.28s-48-80.6-95.51-131.84c0,0,82.13,108.5,85,152.92Z"/><path class="cls-30" d="M1506.35,1596.07c1,3.24,25.38,84.14,27.29,85.82s53.52,4.46,77.81-12.15l-41.21-86.27Z"/><path class="cls-31" d="M1476.2,1477.38s-28.94,31.63-29.54,94.7,28.61,78.65,53,71.43,58.4-23.43,79.24-73.55S1514.61,1438,1476.2,1477.38Z"/><path class="cls-32" d="M1541.87,1553.44s-7.75-88.31-75.44-58.33l-10.75,18.33s-44-30.75-12.69-69.42,100-48.55,142.25-1.87,48.38,86.55,31.68,125.83-42.11,15.09-42.11,15.09,4.41-31.59-8-41.74-19.78,12.35-19.78,12.35Z"/><path class="cls-33" d="M1553.29,1558.43s-4.24-45.37,21.17-38.19,1.72,42.92-8.19,55.52Z"/><path class="cls-34" d="M1436,2060.27l61.26-59,84.76,35.8s84.36,13.07,132.65,0L1763,2024l109.11-34,17.14,48.43a29.16,29.16,0,0,1-10.65,33.5c-9.44,6.71-20.51,14.09-27.56,17.17-14.37,6.29-354.22-4.35-354.22-4.35Z"/><path class="cls-35" d="M1583.89,1453.12c-12.7-4.87-13.93-22.37-2.59-29.89,36.62-24.25,99.63-45.57,163.64,27.27,72.1,82,112.44,121.09,135.28,120.72,15-.25,23.75,16.71,13.88,28-7.3,8.35-19.8,15.85-40.54,20.35C1693.55,1654.3,1658.42,1481.67,1583.89,1453.12Z"/><path class="cls-36" d="M479,2741.42a13.5,13.5,0,0,1-5.14-1,12.17,12.17,0,0,1-6.81-16.28l273-604.19a13.27,13.27,0,0,1,17.1-6.48,12.17,12.17,0,0,1,6.82,16.28l-273,604.19A13.06,13.06,0,0,1,479,2741.42Z"/><path class="cls-37" d="M786.45,2741.42a13.06,13.06,0,0,1-12-7.5L501.54,2129.73a12.17,12.17,0,0,1,6.81-16.28,13.26,13.26,0,0,1,17.1,6.48L798.4,2724.12a12.17,12.17,0,0,1-6.81,16.28A13.46,13.46,0,0,1,786.45,2741.42Z"/><path class="cls-38" d="M1601.9,2741.42a13.45,13.45,0,0,1-5.13-1,12.17,12.17,0,0,1-6.82-16.28l273-604.19a13.27,13.27,0,0,1,17.1-6.48,12.17,12.17,0,0,1,6.81,16.28l-273,604.19A13.06,13.06,0,0,1,1601.9,2741.42Z"/><path class="cls-39" d="M1909.4,2741.42a13.06,13.06,0,0,1-12-7.5l-273-604.19a12.17,12.17,0,0,1,6.81-16.28,13.26,13.26,0,0,1,17.1,6.48l273,604.19a12.17,12.17,0,0,1-6.82,16.28A13.45,13.45,0,0,1,1909.4,2741.42Z"/><path class="cls-40" d="M1996.75,2101.09a12.58,12.58,0,0,0-3.3-11.36,16.61,16.61,0,0,0-12.09-5H397a18.75,18.75,0,0,0-15.19,7.3,14.15,14.15,0,0,0-1.18,15.16l17.17,32.61c3.93,7.46,12.45,12.24,21.82,12.24H1970.49c8.72,0,16.22-5.42,17.87-12.93Z"/><path class="cls-3" d="M198.87,2311.83c-9.58,14.16-47.62,334.85-53.57,453.29a14,14,0,0,0,14,14.69h0a14,14,0,0,0,13.87-11.88L242.77,2322Z"/><path class="cls-3" d="M504.73,2311.83c9.57,14.16,47.61,334.85,53.56,453.29a14,14,0,0,1-14,14.69h0a14,14,0,0,1-13.87-11.88L460.82,2322Z"/><path class="cls-3" d="M141.32,2286.8l0,3.5c-.23,25.16,21.44,45.79,48.58,46.25L511.49,2342c26.75.45,49-18.88,50.34-43.65l.17-3.2c1.36-25.83-20.58-47.59-48.48-48.09l-321.75-5.77C164.23,2240.83,141.55,2261.27,141.32,2286.8Z"/><path class="cls-41" d="M686,2713.63c-51.08,0-73.68-4.38-83.79-8.38a19.39,19.39,0,0,0,18.88,15H801.82a8.78,8.78,0,0,0,8.47-11.1C789.69,2710.82,745.94,2713.63,686,2713.63Z"/><path class="cls-42" d="M810.29,2709.16a8.38,8.38,0,0,0-1.48-3.07c-13.76-17.58-41.41-45.18-79-44.65-55.1.78-74.32,6.76-117.14.34l-10.1,33.48a19.23,19.23,0,0,0-.31,10c10.11,4,32.71,8.38,83.79,8.38C745.94,2713.63,789.69,2710.82,810.29,2709.16Z"/><path class="cls-43" d="M625,2625.69l-12.4,42.18s27.47,12.5,51.64,2.46L669,2633.8Z"/><path class="cls-44" d="M999.59,2687.07c-39.82,32-60.17,42.75-70.54,46a19.34,19.34,0,0,0,24.07-.18L1094,2619.69a8.76,8.76,0,0,0-.31-13.92C1078.65,2620,1046.3,2649.54,999.59,2687.07Z"/><path class="cls-45" d="M1093.68,2605.77a8.4,8.4,0,0,0-3.07-1.46c-21.69-5-60.45-9.11-89.44,14.86-42.48,35.12-53.73,51.79-91.11,73.63l13,32.31a19.09,19.09,0,0,0,6,7.94c10.37-3.23,30.72-14,70.54-46C1046.3,2649.54,1078.65,2620,1093.68,2605.77Z"/><path class="cls-46" d="M359.78,2145.19s305.82,25,368.56,54.51-51.2,443.47-51.2,443.47-17.08,8.22-55.08-3.6c0,0,39-305.46,10-371.7L300.9,2213.71Z"/><path class="cls-47" d="M879.67,2634.66c2.84,2.59,30.39,58.14,30.39,58.14s30.67-6.63,36.92-26l-27.59-50.14Z"/><path class="cls-48" d="M175.58,2142.64s-10,24-9.56,55.85c.56,44.07,36,79.83,80,82L607.57,2297a17.33,17.33,0,0,1,16,13c8.5,32.86,50,133.77,253,335.14a16.37,16.37,0,0,0,20.25,2.2l28.89-18.25a6.64,6.64,0,0,0,2.19-9l-210.5-359.47a81.53,81.53,0,0,0-49.5-36.71l-308.14-78.77Z"/><path class="cls-49" d="M174.6,2141.58s-3.58-179.19,32.24-347.83a272.32,272.32,0,0,1,97.66-157.43l16.73-13.18,83.79,34,43.06,74.4c23.7,47.41,17.88,150.37,0,200.26-29.9,83.43-53.81,169.89-64,212.36C384.07,2144.2,245.3,2162.53,174.6,2141.58Z"/><path class="cls-50" d="M378.84,1489.6l-65.46,151.87s20.94,47.13,94.26,28.8l26.18-104.73Z"/><path class="cls-51" d="M508.56,1420.34c.79,2.12,2.52,151.74,2.52,151.74l-85.45-.82-22.71-141.57S495.35,1384.83,508.56,1420.34Z"/><path class="cls-52" d="M428,1456.92l6.13,75.45a10.38,10.38,0,0,0,.61,2.81c2.07,5.57,10.58,24.22,29.13,14.35,16.83-9,32.32-16.87,44.43-15.85a10.55,10.55,0,0,1,9.69,10.41c.15,13.59-.06,44.23-4.32,70.82a10.54,10.54,0,0,1-11.2,8.8c-16.42-1.16-51-4.59-78.16-13.86a10.57,10.57,0,0,1-7.05-8.21C414,1583,404,1526.19,398.79,1510.81c-4.92-14.44-25-19.39-33.6-20.86a10.43,10.43,0,0,1-6.88-4.45c-5.63-8.38-15.26-28.5,9.59-43a10.59,10.59,0,0,0,3.66-14.8c-6.34-10.17-11.65-26.62,7-40.36,19-14,37.1-6.15,47.54,1.12a10.57,10.57,0,0,0,13.51-1.29c2.09-2,5.1-3.23,9.37-1.69a10.43,10.43,0,0,0,13.48-7.49c2.8-11.42,10.66-24.7,32-25.62,37.85-1.64,50.73,37.92,46.23,63.7s-45.66,25.24-67.9,17.54c-16.91-5.86-34.25,7.86-41.58,14.77A10.5,10.5,0,0,0,428,1456.92Z"/><path class="cls-53" d="M401.29,1538.26s5.92-45.27-11.72-52.23-39.33,3.32-27.72,32.68C376.29,1555.23,401.29,1538.26,401.29,1538.26Z"/><path class="cls-54" d="M580.52,1997.65c-215.79,67.75-204.31-236-205.71-238.11-85.55-130.73-133.58,43.48-125.29,68,75.87,274.7,267.15,261.1,341.68,207.14C581.92,2020.28,579.8,2007.57,580.52,1997.65Z"/><path class="cls-55" d="M415.1,1950.8a5.45,5.45,0,0,1-3-2.27c-32.7-51-41.93-121.75-43.91-172.18a5.49,5.49,0,1,1,11-.43c1.58,40.17,9.16,115.23,42.18,166.68a5.49,5.49,0,0,1-6.25,8.2Z"/><path class="cls-56" d="M354.84,2019.82a5.43,5.43,0,0,1-1.9-1c-49.32-41.33-86.48-106.27-110.44-193a5.49,5.49,0,0,1,10.58-2.92c23.36,84.56,59.33,147.66,106.91,187.53a5.49,5.49,0,0,1-5.15,9.45Z"/><path class="cls-57" d="M707.55,1934.24s-3.51,5.59-28.77,25.17-50.7,30.87-31.39,4,9.92-40.79-12.13-11.81-37.8,40.18-37.8,40.18q-8.7,3.33-16.94,5.9c-.72,9.92,1.4,22.63,10.68,37.07,8.74-2.9,13.68-5,13.68-5s66.83-12.16,81.14-40.62A331.06,331.06,0,0,0,707.55,1934.24Z"/><path class="cls-14" d="M1195.79,1792.26S642.4,1518.83,823.38,1317.51s518.38-120.85,535.48,91S965.28,1570.73,1195.79,1792.26Z"/><path class="cls-3" d="M870.19,1375.09h244.23a5.58,5.58,0,0,0,0-11.16H870.19a5.58,5.58,0,0,0,0,11.16Z"/><path class="cls-3" d="M1186.94,1375.09h72.47a5.58,5.58,0,0,0,0-11.16h-72.47a5.58,5.58,0,0,0,0,11.16Z"/><path class="cls-3" d="M862,1424.53h91.71a5.58,5.58,0,0,0,0-11.16H862a5.58,5.58,0,0,0,0,11.16Z"/><path class="cls-3" d="M1088.23,1424.53h163a5.58,5.58,0,0,0,0-11.16h-163a5.58,5.58,0,0,0,0,11.16Z"/><path class="cls-3" d="M853.73,1474h243.78a5.58,5.58,0,0,0,0-11.16H853.73a5.58,5.58,0,0,0,0,11.16Z"/><path class="cls-3" d="M1158.56,1474H1243a5.58,5.58,0,0,0,0-11.16h-84.39a5.58,5.58,0,0,0,0,11.16Z"/></g></g></g></svg>