<svg xmlns="http://www.w3.org/2000/svg" viewBox="0 0 2834 1609.36"><defs><style>.cls-1{fill:#ebf3fa;}.cls-2{fill:#c8dbf4;}.cls-3{fill:#d4e4f8;}.cls-4{fill:#9fc1f4;}.cls-5{fill:#8cb4f4;}.cls-6{fill:#9abfe2;}.cls-7{fill:#bad4f4;}.cls-8{fill:#dfebfd;}.cls-9{fill:#b7d3f3;}.cls-10{fill:#c0d8fb;}.cls-11{fill:#233862;}.cls-12{fill:#ffb27d;}.cls-13{fill:#0f2549;}.cls-14{fill:#2b478b;}.cls-15{fill:#ed975d;}.cls-16{fill:#fff;}.cls-17{fill:#ebf3ff;}.cls-18{fill:#ed7d2b;}.cls-19{fill:#f99746;}.cls-20{fill:#182d4f;}.cls-21{fill:#2e3552;}.cls-22{fill:#1b3051;}.cls-23{fill:#73a2e5;}</style></defs><g id="Layer_2" data-name="Layer 2"><g id="Слой_1" data-name="Слой 1"><path class="cls-1" d="M217.2,1604.44S-119.12,1199.31,45.25,782.22c107.14-271.87,509-420.84,735.85-271.87,96.6,63.45,406.52,2.14,572-260.54C1674.68-260.64,2797,49.37,2592.65,833.09c-98.88,379.26,300.92,393,97.21,772.16Z"/><path class="cls-2" d="M466.16,937.66s-33.92-39.57-2.09-64.7c0,0,23.25-14.08,42.2-12.94,0,0-26.86,45.05-18.17,49.53s26.31-52.35,26.31-52.35,52.91-5.13,69.93,3c0,0-45.23,37-35.7,39.22S607,865.34,607,865.34s49.24,8.38,46.62,38.42-19.59,39.31-27,38.51-51.08-17.45-52-11.34,25.31,26.08,43.7,27c0,0-34.72,38.28-57.79,27.23s-25-28.56-39.43-35.13-26.66-6.55-20.72.15,32,13.21,40.19,27.76,15.61,24.36-8.26,20.76-62.67-21.05-64.38-41.05Z"/><path class="cls-2" d="M629.43,904.57s-133.74-5.15-163.27,33.09c0,0-6.53,19.57-26.63,37.38l-3.14,8.54s23.18-24.44,31.47-25.91C467.86,957.67,454.89,910.28,629.43,904.57Z"/><path class="cls-2" d="M439.53,975s-28.71,21.23-30.7,59.16l5.21.47s9.17-39.22,25.74-54.56S439.53,975,439.53,975Z"/><path class="cls-2" d="M347.56,887.9s54-30.22,28.78-71.23c0,0-20.14-25.18-41.73-31.65,0,0,11.52,61.15,0,62.59s-7.91-69.07-7.91-69.07-56.84-27.33-79.14-25.18c0,0,35.25,59.72,23.74,58.28s-51.08-61.87-51.08-61.87S162,739,152.6,773.51s5.75,51.8,14.39,54,64,1.43,62.59,8.63-38.85,18.7-59.72,12.23c0,0,23,56.83,53.24,54s39.57-21.59,58.28-23,32.37,3.6,23,8.64-41,1.65-56.12,14.49-27.34,20.76.72,26.52,78.42,2.15,88.49-19.43Z"/><path class="cls-2" d="M179.22,784.3S330.3,833.22,347.56,887.9c0,0-.72,24.46,14.39,52.52v10.79s-15.82-36.69-24.46-41.73C337.49,909.48,371.3,862,179.22,784.3Z"/><path class="cls-2" d="M362,940.42s23.3,35.38,10,78.45l-6-1.61s5.82-47.44-6.37-71.3S362,940.42,362,940.42Z"/><path class="cls-3" d="M433.41,846.23s-71.13-39.83-37.94-93.89c0,0,26.56-33.19,55-41.73,0,0-15.18,80.61,0,82.51s10.43-91,10.43-91,74.92-36,104.32-33.2c0,0-46.47,78.72-31.3,76.82s67.33-81.56,67.33-81.56,76.82-14.22,89.15,31.3-7.59,68.28-19,71.12-84.4,1.9-82.51,11.38,51.22,24.66,78.72,16.13c0,0-30.35,74.92-70.18,71.12s-52.16-28.45-76.82-30.34-42.67,4.74-30.34,11.38,54.05,2.17,74,19.1,36,27.36-.95,34.95S460,903.13,446.68,874.68Z"/><path class="cls-3" d="M655.32,709.66S456.17,774.15,433.41,846.23c0,0,.94,32.24-19,69.23v14.22s20.86-48.37,32.24-55C446.68,874.68,402.11,812.09,655.32,709.66Z"/><path class="cls-3" d="M414.44,915.46s-30.71,46.63-13.2,103.41l7.9-2.13s-7.67-62.53,8.4-94S414.44,915.46,414.44,915.46Z"/><path class="cls-3" d="M431,1142a139.32,139.32,0,0,0,139.32-139.33H291.68A139.33,139.33,0,0,0,431,1142Z"/><path class="cls-3" d="M306.95,1131.88H555.07a17.19,17.19,0,0,1,17.19,17.19v0a0,0,0,0,1,0,0H289.76a0,0,0,0,1,0,0v0A17.19,17.19,0,0,1,306.95,1131.88Z"/><rect class="cls-4" x="287.1" y="1002.65" width="286.4" height="4.27"/><path class="cls-5" d="M1149.93,1601.55l.69,0c5.63-.1,10-4.7,9.44-10l-37.55-375.07-32.77,2.92,53.92,377.09A6.13,6.13,0,0,0,1149.93,1601.55Z"/><path class="cls-5" d="M788.3,1601.55l-.69,0c-5.63-.1-10-4.7-9.44-10l37.55-375.07,32.77,2.92-53.92,377.09A6.12,6.12,0,0,1,788.3,1601.55Z"/><path class="cls-5" d="M1414.88,1601.55l.69,0c5.63-.1,10-4.7,9.44-10l-37.55-375.07-32.77,2.92,53.93,377.09A6.11,6.11,0,0,0,1414.88,1601.55Z"/><path class="cls-5" d="M799.49,1161.91,732.82,832.7c-8.55-44.57,28.38-85.32,76.34-84.23l128.56,2.94A101.53,101.53,0,0,1,1033,824.72l97.54,337.19Z"/><path class="cls-5" d="M839.82,1161.91,773.15,832.7c-8.55-44.57,28.38-85.32,76.34-84.23l128.56,2.94a101.55,101.55,0,0,1,95.25,73.31l97.53,337.19Z"/><path class="cls-5" d="M818.07,1161.91h508.66a18.58,18.58,0,0,1,18.58,18.58V1222a0,0,0,0,1,0,0H818.07a18.58,18.58,0,0,1-18.58-18.58v-22.88A18.58,18.58,0,0,1,818.07,1161.91Z" transform="translate(2144.79 2383.86) rotate(180)"/><rect class="cls-5" x="1041.8" y="1161.91" width="354.19" height="60.04" rx="14.97" transform="translate(2437.79 2383.86) rotate(180)"/><path class="cls-6" d="M647.72,1157.62v11.23c0,3.94-1.28,7.15-2.83,7.15H235c-1.55,0-2.82-3.21-2.82-7.15v-11.23c0-3.92,1.27-7.14,2.82-7.14H644.89C646.44,1150.48,647.72,1153.7,647.72,1157.62Z"/><path class="cls-7" d="M647.72,1157.62v11.23c0,3.94-1.17,7.15-2.6,7.15H319.74c-1.43,0-2.59-3.21-2.59-7.15v-11.23c0-3.92,1.16-7.14,2.59-7.14H645.12C646.55,1150.48,647.72,1153.7,647.72,1157.62Z"/><rect class="cls-2" x="253.01" y="1176" width="290.97" height="424.11"/><rect class="cls-8" x="334.55" y="1176" width="290.97" height="424.11"/><path class="cls-9" d="M609.89,1576.69H350.19V1188h259.7Zm-256.9-2.8h254.1V1190.78H353Z"/><rect class="cls-9" x="351.59" y="1316.57" width="256.9" height="2.8"/><rect class="cls-9" x="351.59" y="1447.66" width="256.9" height="2.8"/><path class="cls-9" d="M506.36,1213.05H458.69a4.21,4.21,0,0,1-4.2-4.21h0a4.21,4.21,0,0,1,4.2-4.2h47.67a4.21,4.21,0,0,1,4.21,4.2h0A4.22,4.22,0,0,1,506.36,1213.05Z"/><path class="cls-9" d="M506.36,1341.25H458.69a4.22,4.22,0,0,1-4.2-4.21h0a4.22,4.22,0,0,1,4.2-4.21h47.67a4.22,4.22,0,0,1,4.21,4.21h0A4.22,4.22,0,0,1,506.36,1341.25Z"/><path class="cls-9" d="M506.36,1474.88H458.69a4.21,4.21,0,0,1-4.2-4.2h0a4.21,4.21,0,0,1,4.2-4.21h47.67a4.22,4.22,0,0,1,4.21,4.21h0A4.21,4.21,0,0,1,506.36,1474.88Z"/><rect class="cls-10" x="1590.16" y="204.65" width="215.22" height="208.8" rx="15.39"/><rect class="cls-8" x="1599.48" y="213.7" width="196.58" height="190.71" rx="14.06"/><circle class="cls-9" cx="1697.77" cy="232.75" r="4.46"/><path class="cls-9" d="M1729.29,239.06a4.46,4.46,0,1,1,1.73,6.06A4.46,4.46,0,0,1,1729.29,239.06Z"/><path class="cls-9" d="M1760.11,263.54a4.46,4.46,0,1,1-1.33,6.16A4.46,4.46,0,0,1,1760.11,263.54Z"/><path class="cls-9" d="M1775.37,301.44a4.46,4.46,0,1,1-4.45,4.46A4.46,4.46,0,0,1,1775.37,301.44Z"/><path class="cls-9" d="M1767.58,345.42a4.46,4.46,0,1,1-6.31,0A4.47,4.47,0,0,1,1767.58,345.42Z"/><path class="cls-9" d="M1739.58,373.49a4.45,4.45,0,1,1-6.3,0A4.44,4.44,0,0,1,1739.58,373.49Z"/><path class="cls-9" d="M1693.31,388a4.46,4.46,0,1,1,4.46,4.46A4.46,4.46,0,0,1,1693.31,388Z"/><path class="cls-9" d="M1666.11,239.06a4.46,4.46,0,1,0-1.73,6.06A4.46,4.46,0,0,0,1666.11,239.06Z"/><path class="cls-9" d="M1635.3,263.54a4.46,4.46,0,1,0,1.32,6.16A4.47,4.47,0,0,0,1635.3,263.54Z"/><path class="cls-9" d="M1620,301.44a4.46,4.46,0,1,0,4.46,4.46A4.46,4.46,0,0,0,1620,301.44Z"/><path class="cls-9" d="M1627.82,345.42a4.46,4.46,0,1,0,6.31,0A4.47,4.47,0,0,0,1627.82,345.42Z"/><circle class="cls-9" cx="1658.97" cy="376.64" r="4.46"/><path class="cls-9" d="M1696.57,305.9a4.46,4.46,0,1,1,4.46,4.46A4.46,4.46,0,0,1,1696.57,305.9Z"/><rect class="cls-9" x="1700.42" y="250.2" width="1.22" height="55.7"/><rect class="cls-9" x="1696.46" y="292.4" width="37.54" height="3.65" transform="translate(184.36 1121.9) rotate(-38.13)"/><path class="cls-11" d="M1242.61,1093c-27.52,47.89-62.13,66.38-62.13,66.38h-144S1263.6,1056.48,1242.61,1093Z"/><path class="cls-12" d="M1420.2,1568.84c-1.55,15.1,19.46,19,43.83,20.48s17,6.39,50.3,12.8,46.84-2.59,49.3-7.08c2.2-4-13.27-10.41-29.75-17.67-2.07-.9-4.15-1.84-6.23-2.77-18.54-8.4-28.82-25.22-43.18-40.87-13.6-14.82-26.16-62-26.16-62L1413,1461.59s12.3,42.43,16.53,60.53c2.49,10.65-1.48,22.48-5,31.48C1422.65,1558.5,1420.74,1563.51,1420.2,1568.84Z"/><path class="cls-13" d="M1464,1589.32c24.37,1.48,17,6.39,50.3,12.8s46.84-2.59,49.3-7.08c2.2-4-13.27-10.41-29.75-17.67l-.26.28a95.09,95.09,0,0,1-50.62.06c-22-6.24-43.27-19.68-58.46-24.11-1.89,4.9-3.8,9.91-4.34,15.24C1418.65,1583.94,1439.66,1587.84,1464,1589.32Z"/><path class="cls-11" d="M1351.56,1044c-24.38-17.12-185.63-47.64-267.93-56.46l-91-79s-77.42,114.67-78,202.4c-.29,40.9,18.55,45,18.56,45s291.58,2.16,304.37,3.48c20.92,2.15,48.51,54.27,55.41,101.74s128.49,240.54,128.49,240.54,25.35,8.13,37.08,7.44c12.61-.74,18.45-5,18.45-5S1406.54,1082.56,1351.56,1044Z"/><path class="cls-12" d="M1344.78,1568.84c-1.56,15.1,19.46,19,43.83,20.48s17,6.39,50.3,12.8,46.84-2.59,49.3-7.08c2.2-4-13.27-10.41-29.75-17.67-2.07-.9-4.15-1.84-6.23-2.77-18.54-8.4-28.82-25.22-43.18-40.87-13.6-14.82-26.17-62-26.17-62l-45.3-10.19s12.3,42.43,16.53,60.53c2.49,10.65-1.48,22.48-5,31.48C1347.23,1558.5,1345.32,1563.51,1344.78,1568.84Z"/><path class="cls-11" d="M1388.61,1589.32c24.37,1.48,17,6.39,50.3,12.8s46.84-2.59,49.3-7.08c2.2-4-13.27-10.41-29.75-17.67l-.26.28a95.09,95.09,0,0,1-50.62.06c-22-6.24-43.27-19.68-58.46-24.11-1.89,4.9-3.8,9.91-4.34,15.24C1343.22,1583.94,1364.24,1587.84,1388.61,1589.32Z"/><path class="cls-14" d="M1275.47,1044c-21.17-14.87-84.87-26.4-155.19-35a47.31,47.31,0,0,1-40.15-35.5h0l-163.54-65s-77.43,114.67-78,202.4c-.29,40.9,18.56,45,18.56,45s291.59,2.16,304.37,3.48c20.92,2.15,48.51,54.27,55.41,101.74s128.49,240.54,128.49,240.54,25.36,8.13,37.08,7.44c12.61-.74,18.45-5,18.45-5S1330.45,1082.56,1275.47,1044Z"/><path class="cls-11" d="M1056.63,432.09c-22.48-11.8-56.67-13.4-62.23-14.15-66.48-8.93-106.49,87.67-108.85,117-4.33,54-32.88,62.18-73,96-80.56,67.76-56.93,146.49-12.89,175.74,26.43,17.55,73,0,73,0,.65.46,127.39-70.85,189.87-105.25C1156.16,688,1113.9,462.16,1056.63,432.09Z"/><path class="cls-12" d="M1042.76,668.1c.29.15-29.54,13.72-51.07,6.61-20.26-6.68-38.1-37.18-37.82-37.22,8.79-1.28,17.73-10,20.23-61.35l3.89,1,65.47,16.54s-2.59,20.74-3.66,40.35C1038.9,650.48,1039.08,666.15,1042.76,668.1Z"/><path class="cls-15" d="M1043.46,593.66s0,4.27-2.45,23.57c-37-9.34-53.35-21.62-64.86-35.67Z"/><path class="cls-12" d="M1057.43,596.28s-86.58,14.09-94.53-40-24.47-88.63,30.47-99.91,68.73,7.75,75.77,25.15S1079.74,591.22,1057.43,596.28Z"/><path class="cls-11" d="M1057.51,454.14s-39.32,62.06-74.41,76.76-52.34,7.24-52.34,7.24a147.87,147.87,0,0,0,20.12-56.72A26.62,26.62,0,0,1,967.32,460C992.51,449.94,1041.23,434,1057.51,454.14Z"/><path class="cls-11" d="M1023,460.14S1046,472,1055.51,483c9.16,10.68,19.73,39.68,19,52.7,0,0,11.36-62.4-12.31-83.85C1037.07,429.13,1023,460.14,1023,460.14Z"/><path class="cls-16" d="M1112,800.14c-2.63,176-.72,139.21-20,155.91-4.64,4-17.68,6.41-34.84,7.55-54,3.58-148.81-5.31-152.42-15.28-12.45-34.51-3.66-45.23-14-98.06-1.08-5.61-2.42-11.69-4-18.32-8.66-36.28-17.08-48.62,13.63-106.91,27.86-52.8,60.62-95.69,63.22-94.15,73.49,43.63,76,7.06,76,7.06S1113.31,714.31,1112,800.14Z"/><path class="cls-16" d="M1039.61,637.94s75.21,12.75,84.09,45.31,61.14,224,61.14,224-38.44,6.9-56.2-10.86-61.8-164.77-61.8-164.77Z"/><path class="cls-17" d="M1057.21,963.6c-54,3.58-148.81-5.31-152.42-15.28-12.45-34.51-3.66-45.23-14-98.06l26-73.28s-4.3,81.61,19.77,103.07,98.54,41.44,110.23,59.38C1052.42,948,1056.13,956.66,1057.21,963.6Z"/><path class="cls-12" d="M995.39,929.27s53.23-11.85,61.82-7.13,29.58,21.93,32.21,27.92-19.12-4.55-26.2-6.44c-4.58-1.23-16.64,3-22.61,5-25.12,8.37-40.52,4.07-40.52,4.07Z"/><path class="cls-16" d="M963.6,630.88s-75.35,4.41-100.09,38.92C828.68,718.38,759.58,925.43,799.18,953c44.6,31.1,203,8.14,203,8.14s5.27-24.64-2.06-36.55-126.5-31.17-132-36.67,68.75-107.25,68.75-123.75S963.6,630.88,963.6,630.88Z"/><path class="cls-12" d="M1059.79,937s11.15,14.39,14.81,16.11,6,1.28,6,1.28l-7.52-13.52Z"/><path class="cls-12" d="M1057.21,922.14l32.43,15.75s-1.38,2.26-5.37,2.08-14.07-3.87-14.07-3.87Z"/><path class="cls-18" d="M1176.68,959.48H1026.06a12,12,0,0,1,12-12h138.62Z"/><polygon class="cls-18" points="1176.24 795.44 1409.11 795.44 1353.25 959.48 1118.88 959.48 1176.24 795.44"/><polygon class="cls-19" points="1412.54 795.44 1356.68 959.48 1122.31 959.48 1179.67 795.44 1412.54 795.44"/><path class="cls-16" d="M1287,875.94c-1.45,6.27-7.7,11.35-14,11.35s-10.17-5.08-8.73-11.35,7.7-11.35,14-11.35S1288.44,869.67,1287,875.94Z"/><rect class="cls-20" x="966.23" y="959.48" width="1036.03" height="36.9" rx="7.77"/><path class="cls-20" d="M2019.47,1604.29l.44,0a9.37,9.37,0,0,0,8.27-10.42l-90.94-615.57-33.29,1,107,618.89A7.65,7.65,0,0,0,2019.47,1604.29Z"/><path class="cls-20" d="M939.82,1604.29l-.43,0a9.37,9.37,0,0,1-8.27-10.42l90.94-615.57,33.29,1-107,618.89A7.64,7.64,0,0,1,939.82,1604.29Z"/><path class="cls-20" d="M1150.35,1604.29l-.44,0a9.38,9.38,0,0,1-8.27-10.42l90.94-615.57,33.29,1-107,618.89A7.65,7.65,0,0,1,1150.35,1604.29Z"/><rect class="cls-21" y="1598.48" width="2834" height="10.89" rx="3.86"/><path class="cls-11" d="M1686.85,1603.79H1867.3c8.68-10.59,5.49-49.67,4.17-62.43-.27-2.57-.45-4.07-.45-4.07s-61.63-49.29-70.09-11.55c-.26,1.19-.57,2.34-.91,3.49-10.67,35.3-58.5,51.34-86.12,55.81C1695.94,1588,1689.3,1597.28,1686.85,1603.79Z"/><path class="cls-11" d="M2179.24,1017.43c-6.51,0-309.11,56.82-359.16,118.77-25,31-28.72,388.41-28.72,388.41s30.94,38.36,97.75,16.09c0,0,49-244.57,45.36-318.75-1-20.51,206.75-3,244.77-12.81s130.93-92.55,110.46-132.85S2179.24,1017.43,2179.24,1017.43Z"/><path class="cls-12" d="M1821.38,929.9s-61,.82-75.47,7-43.72,20.39-35.88,22.57,45.23-.9,53.3.34,18.05-.35,23-.34h28Z"/><path class="cls-12" d="M1750,783.42s-20.81-14.87-41-17.76c-11.53-1.64-22.73-3.7-29.5-6.08-18.65-6.57-56-40.12-53.14-44.06,9.05-12.61,52.61,14.08,60.21,11.22s-14.61-18.66-6.88-24.22c4-2.9,13.47,11.64,21.19,13.1,10.44,2,18.6,16.72,21.75,17.49,6.11,1.5,32.91,21.43,32.91,21.43Z"/><path class="cls-18" d="M2149.1,609.76s-46.46,14.4-92.24,140.46S1993.7,883.09,1977.06,888s-162.7,34-162.7,34v37.42h225.06s84.38-80.28,109.68-134.32S2149.1,609.76,2149.1,609.76Z"/><path class="cls-22" d="M1607.1,1603.79h180.45c8.68-10.59,5.48-49.67,4.17-62.43-.27-2.57-.46-4.07-.46-4.07s-61.62-49.29-70.08-11.55c-.26,1.19-.58,2.34-.92,3.49-10.66,35.3-58.49,51.34-86.11,55.81C1616.19,1588,1609.55,1597.28,1607.1,1603.79Z"/><path class="cls-14" d="M2090.08,1017.43c-6.52,0-309.11,56.82-359.17,118.77-25,31-28.72,388.41-28.72,388.41s30.94,38.36,97.75,16.09c0,0,49-244.57,45.36-318.75-1-20.51,206.75-3,244.78-12.81s130.92-92.55,110.45-132.85S2090.08,1017.43,2090.08,1017.43Z"/><path class="cls-12" d="M2109,649.71c21.77-1.79,44.59-7.6,64.32-14,24.66-8,44.53-19.69,31.73-42.23-11.81-20.77-30.91-67.17-29.62-105.61l-45.89,37L2098.39,550s.12,14.8,3.53,40.75c.62,4.73,1.35,9.84,2.21,15.3a11.1,11.1,0,0,1-5.12,11.16l-.71.44C2082.81,627.34,2090.78,651.22,2109,649.71Z"/><path class="cls-15" d="M2098.39,543.85s-1.6,5.37,1.14,25.23c27.79-4.54,53.76-26.7,53.76-26.7-14.14-3.88-19.29-19.17-29.83-17.74Z"/><path class="cls-12" d="M2072.68,548.38s106.89,17.75,116.92-49,30.59-109.38-37.23-123.54-84.94,9.3-93.7,30.76S2045.14,542,2072.68,548.38Z"/><path class="cls-14" d="M2043,377.09c-4.59,16.07,7.69,35.64,28.31,42.09,30.61,9.56,23.84,47.11,37.62,46.6s19.33-21.58,31.63-4.75c10.5,14.36-8.73,31.39-7.41,39.26,2.27,13.52,23.45,41.18,42.53,39.79s54.79-92.08,47.65-120.14-35.71-57.64-62.75-61.72-64.58,7.59-73.25,7.59S2045.43,368.41,2043,377.09Z"/><path class="cls-19" d="M2291.13,702.38C2275.68,640.2,2233,575,2204.11,575c-49.2.09-119.92,13.08-148.47,83.52-21,51.88-49.09,350.3-17.38,371.53,72.47,48.52,240.46,147.56,270.3,46.56C2335.91,984.07,2317.94,810.3,2291.13,702.38Z"/><path class="cls-19" d="M2171.64,640.5a58.27,58.27,0,0,0-90.17-25.11c-16.7,13-37.15,31.49-61.84,57.79-91.81,97.77-110.47,97.16-127.71,95.14S1729,735.38,1729,735.38a44,44,0,0,0-11.85,14.4c-5.86,11.88-2.91,20-2.91,20-5.71-3.69,51.64,35.84,80.18,51.6,37.7,20.82,94.5,40.33,117.12,47.74a30.3,30.3,0,0,0,19.68-.29c33.58-12.11,146.34-56.21,238.14-132.74C2193.54,715.91,2184.65,674.35,2171.64,640.5Z"/><path class="cls-16" d="M2209.06,575.61l-11.14-25.09s-99.7,8.13-116.45,64.87C2081.47,615.39,2158.75,576.83,2209.06,575.61Z"/><path class="cls-5" d="M2451.12,1601.55l.68,0c5.63-.1,10-4.7,9.45-10l-37.55-375.07-32.77,2.92,53.92,377.09A6.12,6.12,0,0,0,2451.12,1601.55Z"/><path class="cls-5" d="M2257.81,1601.55l.69,0c5.63-.1,10-4.7,9.45-10l-37.56-375.07-32.77,2.92,53.93,377.09A6.11,6.11,0,0,0,2257.81,1601.55Z"/><path class="cls-23" d="M1894.91,1601.55l-.69,0c-5.63-.1-10-4.7-9.45-10l37.56-375.07,32.77,2.92-53.92,377.09A6.13,6.13,0,0,1,1894.91,1601.55Z"/><path class="cls-5" d="M2440.5,1163.33l35.65-313.26c4.67-45.14-10.44-89.34-75.58-92.77l-114.61-7c-67.92-2.8-98.59,53.73-107.19,97.26l-68,344.35Z"/><path class="cls-23" d="M1912.69,1161.91h527.24a0,0,0,0,1,0,0v41.46a18.58,18.58,0,0,1-18.58,18.58H1912.69a18.58,18.58,0,0,1-18.58-18.58v-22.88A18.58,18.58,0,0,1,1912.69,1161.91Z"/><path class="cls-5" d="M2125.16,1161.91h314.77a0,0,0,0,1,0,0v45.61A14.43,14.43,0,0,1,2425.5,1222H2125.16a14.43,14.43,0,0,1-14.43-14.43v-31.18A14.43,14.43,0,0,1,2125.16,1161.91Z"/></g></g></svg>