<svg width="2000" height="460" viewBox="0 0 2000 460" fill="none" xmlns="http://www.w3.org/2000/svg">
<path fill-rule="evenodd" clip-rule="evenodd" d="M0 0.80957V460H2000V113.663C1949.15 106.209 1879.57 103.09 1787.28 103.78C1757.04 104.008 1726.42 104.568 1695.74 105.129C1589.15 107.079 1481.75 109.043 1386.34 97.1816C1359.57 93.8966 1334.53 89.5926 1309.53 85.297C1270.77 78.6349 1232.12 71.9932 1187.36 69.2052C1130.27 65.6358 1072.1 68.819 1013.81 72.0093C990.205 73.3012 966.578 74.5942 942.993 75.4405C757.02 81.8064 577.877 58.6609 408.58 36.7874C402.402 35.9893 396.237 35.1928 390.086 34.3995C267.3 18.5648 133.459 3.41443 0 0.80957Z" fill="#F7C300"/>
</svg>
