<svg width="2000" height="515" viewBox="0 0 2000 515" fill="none" xmlns="http://www.w3.org/2000/svg">
<path fill-rule="evenodd" clip-rule="evenodd" d="M0 99.5971V515H2000V11.279C1996.79 10.7229 1993.54 10.1817 1990.24 9.65588C1842.27 -13.7722 1722.74 9.91745 1605.67 33.121C1577.52 38.7006 1549.51 44.2521 1521.28 49.1136C1369.72 75.2322 1258.62 63.5887 1138.7 51.0206C1063.2 43.1077 984.198 34.8282 889.401 35.3759C793.437 35.9122 709.787 49.9324 626.604 63.8742C599.833 68.3613 573.11 72.8401 546.041 76.8588C429.94 93.7277 300.716 102.856 169.047 103.49C112.159 103.764 55.5209 102.449 0 99.5971Z" fill="#FFAB38"/>
</svg>
