<?xml version="1.0" encoding="iso-8859-1"?>
<!-- Generator: Adobe Illustrator 25.3.1, SVG Export Plug-In . SVG Version: 6.00 Build 0)  -->
<svg version="1.1" xmlns="http://www.w3.org/2000/svg" xmlns:xlink="http://www.w3.org/1999/xlink" x="0px" y="0px"
	 viewBox="0 0 750 500" style="enable-background:new 0 0 750 500;" xml:space="preserve">
<g id="bg_x5F_play">
	<g>
		<g>
			<g>
				<path style="fill:#FFFFFF;" d="M457.866,179.273c-32.4-30.371-70.355-38.205-80.39-39.805
					c6.756-18.227,17.199-45.329,19.8-49.343c0.837-0.113,2.546-0.289,5.071-0.289c7.371,0,23.146,1.533,45.967,11.802
					c32.764,14.744,41.731,31.507,43.503,35.602L457.866,179.273z"/>
				<path style="fill:#A07AF4;" d="M402.348,91.836c7.211,0,22.665,1.51,45.145,11.626c29.815,13.417,39.449,28.415,41.986,33.488
					l-31.826,39.404c-19.153-17.437-39.797-27.07-54.073-32.14c-10.126-3.596-18.415-5.437-23.382-6.331
					c7.466-20.065,15.592-40.721,18.319-45.886C399.403,91.915,400.685,91.836,402.348,91.836 M402.348,87.836
					c-4.01,0-6.07,0.423-6.07,0.423c-2.342,0.781-21.538,52.843-21.538,52.843s45.564,4.648,83.319,41.116l36.039-44.62
					c0,0-6.014-20.256-44.964-37.783C426.31,89.543,410.401,87.836,402.348,87.836L402.348,87.836z"/>
			</g>
			<path style="fill:none;stroke:#2A1E17;stroke-linecap:round;stroke-linejoin:round;stroke-miterlimit:10;" d="M381.429,145.145
				c0,0,44.802,4.525,72.408,29.868"/>
			<polygon style="fill:#A07AF4;" points="420.117,142.96 436.831,110.461 454.009,144.353 			"/>
			<polygon style="fill:none;stroke:#2A1E17;stroke-linecap:round;stroke-linejoin:round;stroke-miterlimit:10;" points="
				423.367,142.496 440.081,109.997 457.259,143.889 			"/>
		</g>
		<path style="fill:none;stroke:#2A1E17;stroke-linecap:round;stroke-linejoin:round;stroke-miterlimit:10;" d="M407.677,85.861
			c0,0,50.233,4.526,81.459,41.635"/>
	</g>
</g>
<g id="Layer_1">
</g>
</svg>
