<?xml version="1.0" encoding="iso-8859-1"?>
<!-- Generator: Adobe Illustrator 25.4.1, SVG Export Plug-In . SVG Version: 6.00 Build 0)  -->
<svg version="1.1" xmlns="http://www.w3.org/2000/svg" xmlns:xlink="http://www.w3.org/1999/xlink" x="0px" y="0px"
	 viewBox="0 0 900 500" style="enable-background:new 0 0 900 500;" xml:space="preserve">
<g id="bottom_x5F_image">
	<g>
		<path style="fill:none;stroke:#2A1E17;stroke-linecap:round;stroke-linejoin:round;stroke-miterlimit:10;" d="M487.484,376.125
			l7.334,13.542c0.772,1.213,0.498,1.904-0.167,2.52c-3.142,2.91-12.68,11.775-26.675,15.231c-1.808,0.446-2.237-0.398-2.642-1.147
			l-6.985-12.914c-0.513-0.948,0.065-2.19,1.242-2.666c3.782-1.528,8.612-4.144,13.399-7c4.947-2.951,9.16-5.913,11.911-8.324
			C485.951,374.445,486.911,375.067,487.484,376.125z"/>
		<path style="fill:none;stroke:#2A1E17;stroke-linecap:round;stroke-linejoin:round;stroke-miterlimit:10;" d="M484.606,380.417
			l-2.187,12.193l-12.127-3.088C473.448,388.834,484.606,380.417,484.606,380.417z"/>
		<polyline style="fill:none;stroke:#2A1E17;stroke-linecap:round;stroke-linejoin:round;stroke-miterlimit:10;" points="
			475.96,391.338 472.975,399.116 466.269,398.508 463.002,393.333 470.292,389.522 		"/>
		
			<ellipse transform="matrix(0.9095 -0.4157 0.4157 0.9095 -118.0568 238.2428)" style="fill:none;stroke:#2A1E17;stroke-linecap:round;stroke-linejoin:round;stroke-miterlimit:10;" cx="488.13" cy="390.256" rx="1.584" ry="1.343"/>
	</g>
</g>
<g id="Layer_1">
</g>
</svg>
