<?xml version="1.0" encoding="iso-8859-1"?>
<!-- Generator: Adobe Illustrator 25.3.1, SVG Export Plug-In . SVG Version: 6.00 Build 0)  -->
<svg version="1.1" xmlns="http://www.w3.org/2000/svg" xmlns:xlink="http://www.w3.org/1999/xlink" x="0px" y="0px"
	 viewBox="0 0 750 500" style="enable-background:new 0 0 750 500;" xml:space="preserve">
<g id="card">
	<g>
		<path style="fill:#7595EC;" d="M355.468,213.038h-85.566c-0.78,0-1.413-0.633-1.413-1.413v-17.045c0-0.78,0.633-1.413,1.413-1.413
			h85.566c0.78,0,1.413,0.633,1.413,1.413v17.045C356.881,212.405,356.249,213.038,355.468,213.038z"/>
		<path style="fill:#FFFFFF;" d="M322.617,202.04h-43.198c-0.835,0-1.512-0.677-1.512-1.512v0c0-0.835,0.677-1.512,1.512-1.512
			h43.198c0.835,0,1.512,0.677,1.512,1.512v0C324.129,201.364,323.452,202.04,322.617,202.04z"/>
		
			<line style="fill:none;stroke:#2A1E17;stroke-linecap:round;stroke-linejoin:round;stroke-miterlimit:10;" x1="278.339" y1="205.958" x2="351.776" y2="205.958"/>
	</g>
</g>
<g id="Layer_1">
</g>
</svg>
