<?xml version="1.0" encoding="iso-8859-1"?>
<!-- Generator: Adobe Illustrator 25.4.1, SVG Export Plug-In . SVG Version: 6.00 Build 0)  -->
<svg version="1.1" xmlns="http://www.w3.org/2000/svg" xmlns:xlink="http://www.w3.org/1999/xlink" x="0px" y="0px"
	 viewBox="0 0 900 500" style="enable-background:new 0 0 900 500;" xml:space="preserve">
<g id="laptop">
	<g>
		<path style="fill:#AAAAAA;" d="M504.55,283.309l-26.588-12.477c-2.145-1.007-2.108-4.071,0.061-5.025l49.465-21.764
			c0.7-0.308,1.497-0.312,2.2-0.01l33.976,14.584L504.55,283.309z"/>
		<path style="fill:#111111;" d="M502.903,242.303c0.068,11.002,1.647,41.006,1.647,41.006l59.114-24.693l-1.325-41.753
			c-0.081-2.562-2.745-4.216-5.077-3.153l-50.898,23.194C504.246,237.869,502.888,239.978,502.903,242.303z"/>
		<path style="fill:none;stroke:#7C7C7C;stroke-linecap:round;stroke-linejoin:round;stroke-miterlimit:10;" d="M504.55,283.309
			l59.114-24.693l-1.325-41.753c0,0-0.394-4.559-5.077-3.153"/>
		
			<line style="fill:none;stroke:#EAEAEA;stroke-linecap:round;stroke-linejoin:round;stroke-miterlimit:10;" x1="533.162" y1="253.3" x2="537.153" y2="243.867"/>
		
			<line style="fill:none;stroke:#EAEAEA;stroke-linecap:round;stroke-linejoin:round;stroke-miterlimit:10;" x1="537.153" y1="253.3" x2="541.144" y2="243.867"/>
	</g>
</g>
<g id="Layer_1">
</g>
</svg>
