<?xml version="1.0" encoding="iso-8859-1"?>
<!-- Generator: Adobe Illustrator 25.3.1, SVG Export Plug-In . SVG Version: 6.00 Build 0)  -->
<svg version="1.1" xmlns="http://www.w3.org/2000/svg" xmlns:xlink="http://www.w3.org/1999/xlink" x="0px" y="0px"
	 viewBox="0 0 750 500" style="enable-background:new 0 0 750 500;" xml:space="preserve">
<g id="mail">
	<g>
		<path style="fill:#FFFF00;" d="M274.636,390.402c4.025,1.93,15.733,6.798,31.23,6.696c0.848-0.006,1.503,0.745,1.397,1.586
			l-2.158,17.126c-0.077,0.61-0.537,1.097-1.141,1.21c-4.377,0.822-22.021,3.243-35.218-7.949c-0.412-0.349-0.578-0.912-0.439-1.433
			l4.361-16.327C272.897,390.46,273.84,390.02,274.636,390.402z"/>
		<path style="fill:none;stroke:#2A1E17;stroke-linecap:round;stroke-linejoin:round;stroke-miterlimit:10;" d="M276.186,395.435
			c0,0,7.625,10.712,10.343,12.247c2.718,1.535,17.396-7.214,17.396-7.214"/>
		
			<line style="fill:none;stroke:#2A1E17;stroke-linecap:round;stroke-linejoin:round;stroke-miterlimit:10;" x1="293.717" y1="406.189" x2="301.727" y2="414.422"/>
		
			<line style="fill:none;stroke:#2A1E17;stroke-linecap:round;stroke-linejoin:round;stroke-miterlimit:10;" x1="282.59" y1="404.602" x2="273.222" y2="407.149"/>
	</g>
</g>
<g id="Layer_1">
</g>
</svg>
