<?xml version="1.0" encoding="iso-8859-1"?>
<!-- Generator: Adobe Illustrator 25.3.1, SVG Export Plug-In . SVG Version: 6.00 Build 0)  -->
<svg version="1.1" xmlns="http://www.w3.org/2000/svg" xmlns:xlink="http://www.w3.org/1999/xlink" x="0px" y="0px"
	 viewBox="0 0 750 500" style="enable-background:new 0 0 750 500;" xml:space="preserve">
<g id="man">
	<g>
		<polygon style="fill:#F98A5F;" points="362.829,379.47 359.344,373.581 346.98,394.187 350.226,396.683 		"/>
		<path style="fill:#F98A5F;" d="M280.735,328.37c0,0-6.406-10.416-3.658-15.52l20.438,2.186L280.735,328.37z"/>
		<path d="M280.735,328.37l1.224,2.813l-3.775,14.724c-0.475,1.854,0.14,3.817,1.589,5.068l0,0l18.691-27.63
			c1.775-2.625,1.372-6.152-0.949-8.308l-4.177-3.879L280.735,328.37z"/>
		<path style="fill:#2A1E33;" d="M270.733,153.51c5.853-0.139,13.27-0.51,11.787-4.96s-7.046-15.576-19.655-12.238
			c0,0-4.45,3.709,1.113,10.384C269.54,153.371,270.733,153.51,270.733,153.51z"/>
		<path style="fill:#EAEAEA;" d="M300.358,315.284c0,0-9.991-29.499-1.537-42.45c6.978-10.689,29.773,6.697,32.897,9.04
			l16.31-29.457c0,0-3.765-5.279-13.01-10.448c-9.244-5.169-47.433-20.647-65.38,7.668c-6.633,10.465-6.735,55.373,5.986,72.583
			L300.358,315.284z"/>
		<path style="fill:none;stroke:#2A1E17;stroke-linecap:round;stroke-linejoin:round;stroke-miterlimit:10;" d="M300.358,315.284
			c0,0-9.991-29.499-1.537-42.45c6.978-10.689,29.773,6.697,32.897,9.04"/>
		<path style="fill:#EAEAEA;" d="M348.028,252.417c-7.418,7.808-29.411,45.848-34.357,64.029
			c-6.615,24.319-4.128,44.488,32.232,83.981l17.575-25.599c0,0-12.357-18.765-10.05-36.453
			c3.338-25.589,21.548-50.401,30.762-66.139L348.028,252.417z"/>
		<polygon style="fill:#2A1E17;" points="350.82,255.722 380.056,278.667 388.793,265.384 		"/>
		<path style="fill:#FF826E;" d="M518.739,231.597c4.559,0.977,8.033,2.714,10.421,5.21s1.303,3.799,0.434,4.559
			s-4.233-0.109-7.164-2.714C519.499,236.048,518.739,231.597,518.739,231.597z"/>
		<path style="fill:#FF826E;" d="M428.774,226.491c0.765-1.019,12.854-13.898,19.852-24.275c0,0,21.154,23.703,23.448,24.468
			c0.853,0.284,6.039,0.216,12.48,0.15c10.884-0.113,25.352-0.222,28.554,1.38c5.097,2.549,8.156,3.823,9.43,7.391
			s1.776,5.899-1.274,6.117c-3.568,0.255-5.862-4.333-5.862-4.333s-2.915,1.761-10.45,4.588c0,0-27.108,10.524-45.228,5.434
			C454.777,246.02,428.774,226.491,428.774,226.491z"/>
		<path style="fill:#FF826E;" d="M264.451,131.821c-2.326,0.886-3.74,1.945-2.393,4.188c1.346,2.244,1.945,1.346,5.834,1.047
			c3.889-0.299,9.424,2.543,11.368,7.33c1.945,4.787,1.346,5.535,0.299,6.133c-1.047,0.598-8.526,1.496-8.825,2.992
			s3.031,5.911,9.911,5.612l1.645-0.299c0,0,14.471,14.133,16.565,16.227s17.485,12.521,25.962,14.64
			c6.444,1.611,19.498-0.467,27.344-1.998c3.81-0.743,6.391-1.357,6.391-1.357s-5.887-10.605-7.084-26.909
			c0,0-14.084,2.263-23.444,4.316c0,0-21.841-12.176-32.461-17.561c0,0-9.274-11.368-13.612-12.864S267.592,130.624,264.451,131.821
			z"/>
		<path style="fill:#2A1E17;" d="M352.161,187.693c3.81-0.743,6.391-1.357,6.391-1.357s-7.121-8.977-8.318-25.281
			c0,0-3.219,3.47-2.218,12.704C349.275,185.364,352.161,187.693,352.161,187.693z"/>
		<path style="fill:#063359;" d="M349.89,159.229c0,0,0.197,19.925,5.535,28.236l1.915-0.766c0,0-25.156,29.429-33.291,48.657
			c-1.331,3.147,52.228,37.359,60.141,36.879c0,0,26.095-39.828,35.021-51.635l9.592,7.433c0,0,18.814-19.053,19.825-25.819
			c0,0-18.172-22.113-33.039-28.587s-28.151-17.566-44.121-17.265C357.642,156.624,349.89,159.229,349.89,159.229z"/>
		<polygon style="fill:#2A1E17;" points="428.802,228.035 419.21,220.601 420.738,216.438 		"/>
		<path style="fill:#FF826E;" d="M443.393,149.25c-1.679,5.223-6.529,20.334-11.939,22.2s-11.042-0.477-11.042-0.477l-5.763,2.949
			c-0.643,1.929-5.191,3.59-11.064,3.816c-4.349,0.167-6.997-5.417-5.71-9.46c0.591-1.856,2.798-11.007,2.798-11.007
			s4.664-17.163,8.954-20.707c4.291-3.544,8.323-7.055,19.774-2.425C446.937,141.228,443.393,149.25,443.393,149.25z"/>
		<path style="fill:#2A1E33;" d="M408.628,149.993c-0.77,3.208-4.106,9.623-6.287,8.468c-2.181-1.155-2.951-4.106-1.411-9.751
			c1.54-5.645,2.823-18.475,7.185-20.785c4.362-2.309,6.287,0.385,6.287,0.385s-1.925-9.366,3.721-10.649
			c0,0,1.924-0.898,1.155,5.517c0,0,2.181-5.902,9.238-5.132c7.057,0.77,9.494,10.649,9.494,10.649s0.513-2.694,3.721-2.694
			c3.208,0,8.083,4.747,6.928,10.007c0,0,8.209-2.569,12.573,3.977c4.362,6.543,3.849,13.728-6.672,16.551
			c-11,2.951-10.906-9.879-12.573-11.547c-1.668-1.668-3.464-3.592-9.623-1.283c-6.158,2.309-12.573-4.491-12.573-4.491
			s-1.026,8.211-2.053,8.981c-1.026,0.77-3.079,1.796-2.566-2.053c0.513-3.849,1.155-3.464,0.77-4.491
			c-0.385-1.026-2.121-4.265-5.773-1.411C406.062,143.45,408.628,149.993,408.628,149.993z"/>
		<path style="fill:none;stroke:#2A1E33;stroke-linecap:round;stroke-linejoin:round;stroke-miterlimit:10;" d="M410.375,151.43
			c-2.447-2.056-4.144-5.678-1.99-9.3s5.678-4.111,6.754-2.741c1.077,1.37,1.493,3.681,0.481,6.421"/>
		<path d="M350.226,396.683l1.224,2.813l-3.775,14.724c-0.475,1.854,0.14,3.817,1.589,5.068l0,0l18.691-27.63
			c1.775-2.625,1.372-6.152-0.949-8.308l-4.177-3.879L350.226,396.683z"/>
		<path style="fill:none;stroke:#2A1E33;stroke-linecap:round;stroke-linejoin:round;stroke-miterlimit:10;" d="M414.402,128.311
			c0,0-1.431-4.656-5.721-5.881"/>
		
			<line style="fill:none;stroke:#2A1E17;stroke-linecap:round;stroke-linejoin:round;stroke-miterlimit:10;" x1="323.462" y1="233.951" x2="375.244" y2="161.618"/>
		<path style="fill:none;stroke:#2A1E17;stroke-linecap:round;stroke-linejoin:round;stroke-miterlimit:10;" d="M396.587,166.678
			c-1.865,2.426-2.715,12.864,5.868,13.542s14.07-3.093,14.07-3.093"/>
		<path style="fill:none;stroke:#2A1E17;stroke-linecap:round;stroke-linejoin:round;stroke-miterlimit:10;" d="M281.952,133.317
			c0,0,5.919,7.834,6.849,10.625"/>
		<path style="fill:none;stroke:#2A1E17;stroke-linecap:round;stroke-linejoin:round;stroke-miterlimit:10;" d="M503.573,238.345
			c0,0,3.955,3.256,11.83-0.957c2.856-1.528,0.822-5.143-2.793-4.239s-7.908-0.452-7.908-0.452"/>
		<path style="fill:none;stroke:#2A1E17;stroke-linecap:round;stroke-linejoin:round;stroke-miterlimit:10;" d="M520.095,232.049
			c0,0,3.795,4.426,3.691,7.056"/>
		<path style="fill:none;stroke:#2A1E17;stroke-linecap:round;stroke-linejoin:round;stroke-miterlimit:10;" d="M464.26,231.567
			c0,0,3.43-4.571,7.815-4.884"/>
		<path style="fill:none;stroke:#2A1E17;stroke-linecap:round;stroke-linejoin:round;stroke-miterlimit:10;" d="M319.604,171.127
			c0,0,2.003-6.239,8.42-7.385"/>
		<path style="fill:none;stroke:#2A1E17;stroke-linecap:round;stroke-linejoin:round;stroke-miterlimit:10;" d="M336.993,265.802
			l-7.655,14.644c0,0-25.241,42.715-16.676,70.311"/>
		<path style="fill:none;stroke:#2A1E17;stroke-linecap:round;stroke-linejoin:round;stroke-miterlimit:10;" d="M359.355,314.808
			l24.835-42.572c0,0,32.55-47.21,35.881-53.871l11.487-21.251"/>
		<path style="fill:none;stroke:#2A1E17;stroke-linecap:round;stroke-linejoin:round;stroke-miterlimit:10;" d="M326.929,238.485
			c0,0,44.164,32.199,57.26,33.75"/>
		<path style="fill:none;stroke:#2A1E17;stroke-linecap:round;stroke-linejoin:round;stroke-miterlimit:10;" d="M349.89,159.229
			c0,0-0.04,20.207,5.408,28.491"/>
		<path style="fill:none;stroke:#2A1E17;stroke-linecap:round;stroke-linejoin:round;stroke-miterlimit:10;" d="M447.208,199.013
			c-1.387,8.329-19.825,25.819-19.825,25.819"/>
	</g>
	<path style="opacity:0.8;fill:none;stroke:#FFFFFF;stroke-width:1.6;stroke-miterlimit:10;" d="M379.526,253.204
		c-1.852-0.912-3.65-1.89-5.413-2.921c-0.441-0.258-0.879-0.519-1.315-0.783c-9.281-6.319-17.36-11.473-26.653-17.615
		c0.275-0.431,0.55-0.862,0.857-1.344s0.647-1.015,1.052-1.651c0.323-0.503,0.644-1.006,0.965-1.509
		c0.925-1.447,1.855-2.902,2.791-4.36c0.312-0.486,0.624-0.973,0.937-1.46c1.052-1.57,2.088-3.159,3.105-4.766
		c0.203-0.322,0.406-0.644,0.607-0.966c4.541-8.723,17.381-30.308,19.485-33.589c7.069,4.509,12.069,6.947,19.2,11.643
		c1.106,0.726,2.205,1.455,3.298,2.184c1.093,0.73,2.18,1.46,3.26,2.192c1.55,0.978,3.085,1.95,4.608,2.918
		c0.435,0.277,0.87,0.553,1.303,0.829c2.615,1.353,3.625,1.998,5.645,3.286c-12.327,14.87-24.654,29.739-32.818,46.664
		C379.841,252.721,379.526,253.204,379.526,253.204z"/>
	<g id="Layer_2_1_" style="opacity:0.8;">
		<g id="Layer_1-2">
			<path style="fill:#FFFFFF;" d="M381.529,222.349c0.565,0.145,1.103,0.079,1.624-0.167c-0.055,0.039-0.109,0.078-0.187,0.132
				l0.782,0.351l-0.854,0.383l0.179,0.083c0.349,0.161,0.693,0.328,1.047,0.479c0.131,0.056,0.173,0.127,0.137,0.249
				c-0.009,0.041-0.016,0.083-0.02,0.125c-0.052,0.305-0.177,0.64,0.394,0.705c-0.594,0.368-1.15,0.462-1.732,0.31
				c-0.147-0.041-0.288-0.097-0.42-0.167c-0.434-0.217-0.868-0.434-1.302-0.654c-0.434-0.22-0.866-0.444-1.295-0.676
				c-0.429-0.232-0.854-0.472-1.274-0.723c-0.42-0.25-0.833-0.51-1.242-0.777c-0.46-0.302-0.75-0.707-0.854-1.141
				c-0.104-0.434-0.024-0.894,0.257-1.307c0.299-0.439,0.598-0.882,0.897-1.333c0.299-0.451,0.598-0.912,0.897-1.383
				c0.256-0.414,0.606-0.616,1.097-0.524c0.052,0.002,0.102-0.018,0.139-0.055c0.171-0.169,0.306-0.184,0.503-0.039
				c0.158,0.116,0.315,0.234,0.473,0.349c0.254,0.184,0.283,0.26,0.219,0.6c0.146,0.101,0.297,0.213,0.458,0.305
				c0.044,0.025,0.124,0.014,0.173-0.011c0.217-0.11,0.433-0.227,0.644-0.356c0.235-0.144,0.462-0.133,0.682,0.001
				c0.361,0.211,0.726,0.415,1.098,0.609s0.749,0.378,1.129,0.557c0.241,0.11,0.377,0.286,0.369,0.543
				c-0.006,0.211,0.02,0.419,0.022,0.626c0.001,0.1,0.044,0.155,0.151,0.194c0.327,0.118,0.617,0.279,0.824,0.526
				c0.405,0.481,0.499,1.007,0.188,1.538c-0.244,0.411-0.504,0.822-0.777,1.238c-0.272,0.416-0.558,0.84-0.846,1.271
				c-0.02,0.024-0.041,0.046-0.064,0.067c0.005-0.081,0.006-0.139,0.014-0.194c0.077-0.551,0.143-1.09,0.196-1.616
				c0.053-0.526,0.094-1.044,0.132-1.556c0.01-0.134-0.034-0.203-0.182-0.251c-0.16-0.052-0.311-0.125-0.432-0.175
				c-0.03,0.333-0.056,0.661-0.101,0.988c-0.021,0.106-0.075,0.206-0.155,0.292l0.037-0.503c-0.422,0.281-0.823,0.545-1.228,0.809
				c0.412-0.341,0.626-0.739,0.608-1.241c-0.36,0.232-0.695,0.444-1.031,0.657c-0.454,0.289-0.911,0.579-1.374,0.868l-0.594-0.29
				c0.01-0.02,0.017-0.041,0.022-0.063c0.044-0.398,0.085-0.794,0.123-1.191c0.038-0.397,0.073-0.797,0.109-1.203
				c-0.001-0.031-0.004-0.062-0.01-0.093c-0.414,0.191-0.679,0.474-0.856,0.84c0.039-0.343,0.077-0.691,0.121-1.072
				c-0.206,0.125-0.378,0.228-0.55,0.33c0.274-0.436,0.691-0.707,1.223-0.89c-0.175-0.108-0.318-0.187-0.447-0.286
				c-0.112-0.086-0.192-0.075-0.301-0.008c-0.283,0.176-0.566,0.347-0.85,0.514s-0.568,0.331-0.853,0.491
				c-0.285,0.161-0.571,0.32-0.857,0.478c-0.286,0.158-0.574,0.316-0.861,0.475c-0.045,0.024-0.087,0.053-0.142,0.088
				c0.063,0.043,0.105,0.072,0.148,0.102c0.186,0.124,0.374,0.335,0.557,0.346c0.191,0.012,0.382-0.158,0.561-0.264
				c0.114-0.067,0.199-0.065,0.323,0.018c0.362,0.244,0.739,0.466,1.124,0.691l-0.052-0.802c0.258,0.152,0.461,0.284,0.682,0.385
				c0.113,0.052,0.145,0.109,0.167,0.205c0.085,0.362,0.284,0.672,0.629,0.907c-0.018,0.212-0.037,0.425-0.059,0.655
				C381.117,222.585,381.323,222.468,381.529,222.349z M381.713,223.12c0.369,0.033,0.737,0.028,1.141-0.086
				c-0.194-0.09-0.351-0.167-0.512-0.236c-0.034-0.016-0.102-0.022-0.13-0.005c-0.169,0.106-0.331,0.22-0.497,0.33
				c-0.338-0.114-0.687-0.21-1.006-0.357c-0.225-0.103-0.41-0.271-0.612-0.412l-0.046,0.031c0.047,0.055,0.083,0.128,0.145,0.162
				c0.344,0.188,0.702,0.357,1.047,0.542C381.4,223.175,381.541,223.228,381.713,223.12z M381.228,219.495
				c0.551-0.217,1.175-0.175,1.691,0.06c0.515,0.235,0.922,0.663,1.019,1.249c0.273-0.099,0.422-0.363,0.752-0.392
				c-0.098-0.343-0.286-0.644-0.533-0.898c-0.247-0.254-0.551-0.461-0.883-0.614c-0.332-0.153-0.691-0.252-1.05-0.286
				c-0.359-0.034-0.717-0.004-1.05,0.106C381.379,218.978,381.153,219.234,381.228,219.495z M380.279,216.881
				c-0.242-0.178-0.565-0.119-0.719,0.129c-0.154,0.248-0.081,0.59,0.163,0.767l0,0c0.248,0.171,0.569,0.116,0.726-0.124
				C380.596,217.401,380.521,217.059,380.279,216.881L380.279,216.881z M379.542,221.382c0.127,0.364,0.274,0.656,0.547,0.923
				c0.022-0.179,0.048-0.327,0.053-0.477c0.001-0.058-0.028-0.114-0.077-0.155C379.913,221.58,379.749,221.499,379.542,221.382
				L379.542,221.382z"/>
			<path style="fill:#FFFFFF;" d="M374.812,214.067l-0.374,0.579l-1.094-0.745c-0.354,0.469-0.704,0.931-1.052,1.389
				s-0.692,0.912-1.034,1.365c-0.038,0-0.053,0.004-0.063-0.002c-0.324-0.184-0.319-0.181-0.141-0.494
				c0.258-0.454,0.515-0.907,0.771-1.361c0.256-0.454,0.512-0.908,0.768-1.362c-0.421-0.287-0.842-0.599-1.288-0.864
				c-0.25-0.147-0.307-0.099-0.465,0.141c-0.305,0.464-0.581,0.95-0.926,1.381c-0.279,0.348-0.625,0.556-0.999,0.621
				c-0.374,0.065-0.775-0.014-1.164-0.238c-0.233-0.13-0.445-0.294-0.63-0.485c-0.572-0.612-0.616-1.409-0.138-2.169
				c0.43-0.687,0.873-1.368,1.325-2.077c0.223,0.142,0.453,0.282,0.672,0.438c0.025,0.016,0.006,0.138-0.027,0.186
				c-0.398,0.583-0.802,1.162-1.203,1.743c-0.044,0.064-0.084,0.131-0.122,0.199c-0.404,0.711-0.018,1.51,0.792,1.636
				c0.413,0.061,0.729-0.127,0.952-0.451c0.316-0.459,0.613-0.931,0.899-1.408c0.177-0.294,0.437-0.416,0.75-0.368
				c0.256,0.041,0.529,0.117,0.745,0.258c0.5,0.326,0.994,0.662,1.488,1.001s0.991,0.68,1.486,1.02
				C374.764,214.021,374.788,214.043,374.812,214.067z"/>
			<path style="fill:#FFFFFF;" d="M388.094,226.851c-0.297-0.125-0.414-0.331-0.412-0.693c-0.002-0.558-0.026-1.098-0.071-1.619
				c-0.045-0.521-0.111-1.024-0.187-1.524c0,0-0.37,0.57-0.758,1.16s-0.796,1.201-0.796,1.201l-0.688-0.376
				c0,0,0.15-0.225,0.371-0.556c0.221-0.331,0.508-0.766,0.785-1.19c0.277-0.425,0.544-0.84,0.74-1.149
				c0.196-0.309,0.324-0.513,0.324-0.513c0.172,0.077,0.35,0.146,0.509,0.236c0.055,0.031,0.087,0.11,0.1,0.171
				c0.087,0.427,0.167,0.861,0.233,1.311s0.117,0.918,0.157,1.401c0.003,0.063,0.011,0.127,0.021,0.239c0,0,0.363-0.556,0.708-1.091
				c0.345-0.535,0.673-1.052,0.673-1.052l0.656,0.404c0,0-0.547,0.857-1.133,1.758C388.724,225.892,388.094,226.851,388.094,226.851
				z"/>
			<path style="fill:#FFFFFF;" d="M374.797,214.689l0.986,0.73l-0.917,1.399l0.023,0.017l0.248-0.375l1.49,1.131l0.928-1.424
				l0.632,0.493c0,0-0.136,0.213-0.339,0.526c-0.203,0.314-0.473,0.725-0.743,1.129s-0.54,0.804-0.743,1.102
				c-0.203,0.298-0.338,0.497-0.338,0.497l-0.639-0.455l0.877-1.299l-1.539-1.15c-0.14,0.367-0.397,0.594-0.693,0.788
				c-0.296,0.194-0.632,0.357-0.928,0.591c0.013-0.118,0.016-0.188,0.028-0.256c0.053-0.298,0.12-0.594,0.161-0.895
				c0.037-0.257,0.134-0.5,0.283-0.707c0.196-0.287,0.389-0.578,0.581-0.87c0.192-0.292,0.383-0.587,0.575-0.881
				C374.744,214.753,374.767,214.731,374.797,214.689z M373.882,217.184c-0.014-0.041-0.017-0.094-0.042-0.111
				c-0.092-0.065-0.192-0.116-0.29-0.172c-0.034,0.065-0.083,0.126-0.099,0.198c-0.045,0.203-0.086,0.407-0.11,0.613
				c-0.007,0.06,0.023,0.16,0.067,0.189c0.045,0.029,0.147,0.022,0.2-0.008c0.178-0.099,0.348-0.21,0.516-0.324
				c0.054-0.037,0.137-0.133,0.131-0.141c-0.071-0.089-0.153-0.169-0.242-0.24C373.987,217.165,373.93,217.184,373.882,217.184z"/>
			<path style="fill:#FFFFFF;" d="M368.842,209.729c-0.142-0.09-0.28-0.188-0.426-0.269c-0.103-0.057-0.124-0.13-0.11-0.239
				c0.04-0.307,0.303-0.583,0.605-0.623c0.405-0.055,0.754,0.118,0.885,0.437c0.16,0.389,0.05,0.801-0.275,0.983
				c-0.064,0.031-0.139,0.034-0.204,0.006C369.152,209.937,369,209.828,368.842,209.729L368.842,209.729z"/>
			<path style="fill:#FFFFFF;" d="M375.985,215.095l-0.966-0.716c0.155-0.262,0.477-0.326,0.746-0.152
				C376.064,214.421,376.15,214.75,375.985,215.095z"/>
			<path style="fill:#FFFFFF;" d="M384.499,221.965c-0.035,0.323-0.071,0.643-0.115,0.985l-0.612-0.274
				C384.016,222.438,384.255,222.204,384.499,221.965z"/>
			<path style="fill:#FFFFFF;" d="M370.872,216.67c0.183,0.06,0.219,0.149,0.077,0.243c-0.107,0.07-0.24,0.155-0.357,0.146
				c-0.283-0.018-0.518,0.009-0.619,0.337l-0.178-0.099c0.136-0.346,0.303-0.461,0.645-0.461
				C370.606,216.835,370.785,216.872,370.872,216.67z"/>
			<path style="fill:#FFFFFF;" d="M384.943,224.881l-0.317-0.162c0.129-0.113,0.248-0.218,0.395-0.348
				C384.995,224.548,384.972,224.7,384.943,224.881z"/>
			<path style="fill:#FFFFFF;" d="M381.713,223.12c-0.171,0.108-0.313,0.055-0.471-0.03c-0.344-0.185-0.702-0.354-1.047-0.542
				c-0.063-0.033-0.097-0.107-0.145-0.163l0.046-0.031c0.202,0.141,0.387,0.308,0.612,0.412c0.319,0.146,0.668,0.243,1.007,0.358
				L381.713,223.12z"/>
			<path style="fill:#FFFFFF;" d="M379.443,220.543l-0.55-0.344l0.852-0.501C379.642,219.99,379.544,220.263,379.443,220.543z"/>
		</g>
	</g>
	<path style="fill:#2A1E17;" d="M433.343,229.88c-2.758-2.028-4.569-3.389-4.569-3.389c0.765-1.019,12.854-13.898,19.852-24.275
		C448.627,202.216,434.472,230.71,433.343,229.88z"/>
	<path style="fill:none;stroke:#2A1E17;stroke-linecap:round;stroke-linejoin:round;stroke-miterlimit:10;" d="M262.057,136.009
		c1.346,2.244,1.945,1.346,5.834,1.047c3.889-0.299,9.424,2.543,11.368,7.33c1.945,4.787,1.346,5.535,0.299,6.133
		c-1.047,0.598-8.526,1.496-8.825,2.992"/>
</g>
<g id="Layer_1">
</g>
</svg>
