<?xml version="1.0" encoding="iso-8859-1"?>
<!-- Generator: Adobe Illustrator 25.4.1, SVG Export Plug-In . SVG Version: 6.00 Build 0)  -->
<svg version="1.1" xmlns="http://www.w3.org/2000/svg" xmlns:xlink="http://www.w3.org/1999/xlink" x="0px" y="0px"
	 viewBox="0 0 900 500" style="enable-background:new 0 0 900 500;" xml:space="preserve">
<g id="page_x5F_right_x5F_green">
	<g>
		<path style="fill:#154700;" d="M429.01,250.548L412.468,283.7c0,0,11.22,4.129,2.449,16.991c0,0,20.737,8.599,34.306-13.737
			C462.792,264.618,429.01,250.548,429.01,250.548z"/>
		<g>
			<path style="fill:#FFFFFF;" d="M391.149,351.864c-8.371,0-17.205-3.418-26.275-10.164l30.945-51.263l18.405,11.59l0.118,0.049
				c0.171,0.071,4.268,1.741,10.051,1.742c0,0,0.001,0,0.001,0c4.65,0,10.516-1.086,16.232-5.131l-22.62,38.698
				c-0.053,0.075-9.792,14.478-26.855,14.479C391.151,351.864,391.15,351.864,391.149,351.864z"/>
			<g>
				<path style="fill:#3E9917;" d="M396.314,292.521l17.004,10.708l0.215,0.135l0.235,0.097c0.183,0.076,4.547,1.856,10.625,1.856
					c3.548,0,7.767-0.597,12.105-2.539l-19.734,33.761c-0.658,0.947-9.91,13.824-25.612,13.824c-7.708,0-15.867-3.048-24.284-9.066
					L396.314,292.521 M449.223,286.954c-7.667,12.62-17.62,15.364-24.83,15.364c-5.551,0-9.476-1.627-9.476-1.627l-19.591-12.337
					l-32.433,53.727c10.861,8.372,20.334,11.283,28.26,11.283c18.12,0,28.15-15.221,28.15-15.221L449.223,286.954L449.223,286.954z"
					/>
			</g>
		</g>
		<path style="fill:none;stroke:#2A1E17;stroke-linecap:round;stroke-linejoin:round;stroke-miterlimit:10;" d="M412.468,283.7
			c0,0,12.338,4.356,2.449,16.991"/>
		<path style="fill:none;stroke:#2A1E17;stroke-linecap:round;stroke-linejoin:round;stroke-miterlimit:10;" d="M394.941,287.202
			c0,0,16.806,15.394,26.11,15.29c9.304-0.104,20.212-2.319,26.649-13.417"/>
		<path style="fill:none;stroke:#2A1E17;stroke-linecap:round;stroke-linejoin:round;stroke-miterlimit:10;" d="M397.003,307.117
			c0,0,11.535,10.244,24.435,6.953"/>
		<path style="fill:none;stroke:#2A1E17;stroke-linecap:round;stroke-linejoin:round;stroke-miterlimit:10;" d="M409.119,322.424
			c0,0,6.052,4.536,14.512,0.246"/>
		<path style="fill:none;stroke:#2A1E17;stroke-linecap:round;stroke-linejoin:round;stroke-miterlimit:10;" d="M381.278,328.736
			c0,0,13.965,13.888,35.948,4.727"/>
		<path style="fill:none;stroke:#2A1E17;stroke-linecap:round;stroke-linejoin:round;stroke-miterlimit:10;" d="M388.877,315.191
			c0,0,5.698,4.074,9.267,5.374"/>
		<path style="fill:none;stroke:#2A1E17;stroke-linecap:round;stroke-linejoin:round;stroke-miterlimit:10;" d="M431.851,260.17
			c0,0,12.75,4.17,14.277,20.993"/>
		<path style="fill:none;stroke:#2A1E17;stroke-linecap:round;stroke-linejoin:round;stroke-miterlimit:10;" d="M438.259,280.96
			c0,0,5.87,9.083-4.051,18.167"/>
		<path style="fill:none;stroke:#2A1E17;stroke-linecap:round;stroke-linejoin:round;stroke-miterlimit:10;" d="M364.074,344.616
			c0,0,32.014,27.419,55.249-4.643"/>
	</g>
</g>
<g id="Layer_1">
</g>
</svg>
