<?xml version="1.0" encoding="iso-8859-1"?>
<!-- Generator: Adobe Illustrator 25.3.1, SVG Export Plug-In . SVG Version: 6.00 Build 0)  -->
<svg version="1.1" xmlns="http://www.w3.org/2000/svg" xmlns:xlink="http://www.w3.org/1999/xlink" x="0px" y="0px"
	 viewBox="0 0 750 500" style="enable-background:new 0 0 750 500;" xml:space="preserve">
<g id="page_x5F_left_x5F_red">
	<g>
		<path style="fill:#FF1E00;" d="M247.823,249.354c-13.475-9.701-26.713-24.777-20.906-40.263c0,0,9.292-6.194,24.003,1.549
			c14.712,7.743,14.712,7.743,14.712,7.743L247.823,249.354z"/>
		<g>
			<path style="fill:#FFFFFF;" d="M241.715,313.982c-6.061-2.865-31.95-16.341-36.556-39.371
				c-3.979-19.898,11.236-46.722,18.859-58.572c-0.491,15.731,15.307,29.044,22.929,34.532c7.721,5.56,13.399,8.279,21.232,11.218
				L241.715,313.982z"/>
			<g>
				<path style="fill:#FF6631;" d="M222.858,220.718c1.653,10.455,9.632,21.293,23.212,31.07c7.333,5.28,12.847,8.038,20.017,10.81
					l-25.045,49.394c-7.631-3.797-30.209-16.66-34.412-37.675C203.136,256.847,214.981,233.675,222.858,220.718 M226.917,209.09
					c0,0-28.649,38.715-23.229,65.815c5.42,27.1,38.715,41.038,38.715,41.038l27.875-54.975c-8.711-3.194-14.37-5.794-22.455-11.614
					C234.349,239.652,221.11,224.576,226.917,209.09L226.917,209.09z"/>
			</g>
		</g>
		<path style="fill:none;stroke:#2A1E17;stroke-linecap:round;stroke-linejoin:round;stroke-miterlimit:10;" d="M219.384,231.589
			c0,0,1.666,15.552,17.218,23.884"/>
		
			<line style="fill:none;stroke:#2A1E17;stroke-linecap:round;stroke-linejoin:round;stroke-miterlimit:10;" x1="244.933" y1="261.026" x2="260.486" y2="269.358"/>
		<path style="fill:none;stroke:#2A1E17;stroke-linecap:round;stroke-linejoin:round;stroke-miterlimit:10;" d="M221.605,253.806
			c0,0,4.999,11.109,21.106,18.329"/>
		<path style="fill:none;stroke:#2A1E17;stroke-linecap:round;stroke-linejoin:round;stroke-miterlimit:10;" d="M208.83,255.472
			c0,0,0.555,11.664,8.331,15.552"/>
		<path style="fill:none;stroke:#2A1E17;stroke-linecap:round;stroke-linejoin:round;stroke-miterlimit:10;" d="M226.604,214.926
			c0,0-1.441,14.979,21.219,34.428"/>
		<path style="fill:none;stroke:#2A1E17;stroke-linecap:round;stroke-linejoin:round;stroke-miterlimit:10;" d="M234.936,217.703
			c0,0,7.221-0.555,17.774,7.221"/>
		<path style="fill:none;stroke:#2A1E17;stroke-linecap:round;stroke-linejoin:round;stroke-miterlimit:10;" d="M200.98,265.529
			c-0.464,7.428,0.464,34.356,39.463,51.534"/>
	</g>
</g>
<g id="Layer_1">
</g>
</svg>
