<?xml version="1.0" encoding="iso-8859-1"?>
<!-- Generator: Adobe Illustrator 25.3.1, SVG Export Plug-In . SVG Version: 6.00 Build 0)  -->
<svg version="1.1" xmlns="http://www.w3.org/2000/svg" xmlns:xlink="http://www.w3.org/1999/xlink" x="0px" y="0px"
	 viewBox="0 0 750 500" style="enable-background:new 0 0 750 500;" xml:space="preserve">
<g id="tbottom_x5F_stick">
	<g>
		<path style="fill:#FFFFFF;stroke:#2A1E17;stroke-linecap:round;stroke-linejoin:round;stroke-miterlimit:10;" d="M191.962,323.76
			l7.148,36.833c0.157,0.808,0.946,1.33,1.751,1.159l7.412-1.574c0.773-0.164,1.278-0.91,1.145-1.689l-6.369-37.077
			c-0.142-0.829-0.949-1.37-1.769-1.188l-8.19,1.818C192.31,322.215,191.81,322.977,191.962,323.76z"/>
		<polygon style="fill:#E82A2A;" points="194.288,324.462 196.326,333.051 202.893,332.075 201.488,322.769 		"/>
		<polygon style="fill:#FAF000;" points="197.049,336.335 198.65,345.431 204.717,344.436 203.193,335.182 		"/>
		<polygon style="fill:#A07AF4;" points="199.006,348.696 201.045,357.284 206.555,356.261 205.237,347.434 		"/>
	</g>
</g>
<g id="Layer_1">
</g>
</svg>
