<?xml version="1.0" encoding="iso-8859-1"?>
<!-- Generator: Adobe Illustrator 25.3.1, SVG Export Plug-In . SVG Version: 6.00 Build 0)  -->
<svg version="1.1" xmlns="http://www.w3.org/2000/svg" xmlns:xlink="http://www.w3.org/1999/xlink" x="0px" y="0px"
	 viewBox="0 0 750 500" style="enable-background:new 0 0 750 500;" xml:space="preserve">
<g id="top_x5F_image">
	<g>
		<path style="fill:none;stroke:#2A1E17;stroke-linecap:round;stroke-linejoin:round;stroke-miterlimit:10;" d="M297.09,104.425
			l0.693-20.913c-0.073-1.952,0.722-2.574,1.925-2.84c5.682-1.257,22.951-5.106,41.733,0.446c2.427,0.717,2.349,2.002,2.31,3.159
			l-0.671,19.938c-0.049,1.464-1.579,2.524-3.286,2.274c-5.484-0.803-12.942-1.051-20.517-0.987
			c-7.826,0.066-14.8,0.648-19.68,1.587C297.734,107.447,297.035,106.059,297.09,104.425z"/>
		<path style="fill:none;stroke:#2A1E17;stroke-linecap:round;stroke-linejoin:round;stroke-miterlimit:10;" d="M303.41,101.368
			l10.932-12.798l12.102,11.943C322.272,99.154,303.41,101.368,303.41,101.368z"/>
		<polyline style="fill:none;stroke:#2A1E17;stroke-linecap:round;stroke-linejoin:round;stroke-miterlimit:10;" points="
			321.043,94.494 329.881,87.421 337.329,92.737 337.609,101.047 326.444,100.513 		"/>
		
			<ellipse transform="matrix(0.1006 -0.9949 0.9949 0.1006 188.2804 383.0965)" style="fill:none;stroke:#2A1E17;stroke-linecap:round;stroke-linejoin:round;stroke-miterlimit:10;" cx="306.029" cy="87.411" rx="1.825" ry="2.152"/>
	</g>
</g>
<g id="Layer_1">
</g>
</svg>
