<?xml version="1.0" encoding="iso-8859-1"?>
<!-- Generator: Adobe Illustrator 25.4.1, SVG Export Plug-In . SVG Version: 6.00 Build 0)  -->
<svg version="1.1" xmlns="http://www.w3.org/2000/svg" xmlns:xlink="http://www.w3.org/1999/xlink" x="0px" y="0px"
	 viewBox="0 0 900 500" style="enable-background:new 0 0 900 500;" xml:space="preserve">
<g id="top_x5F_sticks">
	<g>
		<g>
			<path style="fill:#FFFFFF;stroke:#2A1E17;stroke-linecap:round;stroke-linejoin:round;stroke-miterlimit:10;" d="
				M451.784,144.946l29.795,22.805c0.654,0.5,1.59,0.367,2.079-0.295l4.498-6.097c0.469-0.636,0.352-1.529-0.265-2.023
				l-29.374-23.504c-0.656-0.525-1.619-0.395-2.112,0.286l-4.919,6.797C451.019,143.56,451.151,144.461,451.784,144.946z"/>
			<polygon style="fill:#E82A2A;" points="453.99,143.928 461.215,148.998 465.479,143.909 458.252,137.882 			"/>
			<polygon style="fill:#FAF000;" points="463.936,150.975 471.17,156.715 475.049,151.944 467.766,146.035 			"/>
			<polygon style="fill:#A07AF4;" points="473.604,158.921 480.83,163.991 484.272,159.569 477.427,153.841 			"/>
		</g>
		<g>
			<path style="fill:#FFFFFF;stroke:#2A1E17;stroke-linecap:round;stroke-linejoin:round;stroke-miterlimit:10;" d="
				M511.235,113.063l6.789,57.056c0.149,1.251,1.295,2.138,2.544,1.967l11.496-1.574c1.199-0.164,2.055-1.246,1.938-2.451
				l-5.573-57.341c-0.125-1.281-1.295-2.198-2.569-2.012l-12.713,1.859C511.938,110.744,511.09,111.851,511.235,113.063z"/>
			<polygon style="fill:#E82A2A;" points="514.707,114.397 516.859,127.743 526.997,126.988 525.895,112.618 			"/>
			<polygon style="fill:#91BA83;" points="517.593,132.839 519.02,146.91 528.398,146.072 527.106,131.767 			"/>
			<polygon style="fill:#FAF000;" points="519.198,151.937 521.35,165.283 529.879,164.337 528.856,150.708 			"/>
		</g>
		<path style="fill:#FFFFFF;stroke:#2A1E17;stroke-linecap:round;stroke-linejoin:round;stroke-miterlimit:10;" d="M496.413,125.211
			l18.802,55.266c0.323,0.949,1.361,1.449,2.304,1.109l11.776-4.239c0.906-0.326,1.392-1.31,1.102-2.227l-17.655-55.813
			c-0.309-0.976-1.372-1.496-2.332-1.14l-12.923,4.786C496.577,123.29,496.1,124.291,496.413,125.211z"/>
		<polygon style="fill:#A07AF4;" points="500.231,126.218 505.111,138.825 514.871,135.978 510.804,122.152 		"/>
		<polygon style="fill:#E52500;" points="506.89,143.657 511.211,157.124 520.21,154.354 515.972,140.63 		"/>
		<polygon style="fill:#FAF000;" points="512.431,162.004 517.311,174.61 525.457,171.912 521.623,158.794 		"/>
	</g>
</g>
<g id="Layer_1">
</g>
</svg>
