<svg width="132" height="41" viewBox="0 0 132 41" fill="none" xmlns="http://www.w3.org/2000/svg">
<path d="M91.2635 29.1946C94.0377 28.5893 96.1098 27.0295 97.6145 24.6253C97.4912 24.9422 97.3697 25.261 97.1971 25.7088H101.487L98.9656 29.4811H99.9561C101.884 29.4811 103.814 29.521 105.742 29.4621C106.457 29.4394 106.835 29.6804 107.028 30.3312C107.106 30.5452 107.197 30.7543 107.3 30.9574C107.948 32.4754 108.377 34.2705 110.973 33.2838C109.516 36.2382 107.442 37.9024 104.567 38.5437C103.831 38.6931 103.081 38.7612 102.33 38.7468C92.5892 38.7607 82.8485 38.7607 73.1079 38.7468C67.624 38.7468 63.7891 34.9119 63.7815 29.4489C63.7815 23.6064 63.7948 17.7639 63.7815 11.9213C63.7587 9.4166 64.698 7.50579 67.0168 6.36727C67.2431 6.21779 67.4029 5.98663 67.4627 5.72211C67.7454 4.53615 68.2825 4.07125 69.5045 4.05987C70.4855 4.05038 71.4665 4.05987 72.4475 4.05987C74.0206 4.05987 74.3451 4.28188 74.9656 5.86063C75.8517 5.86063 76.791 5.89858 77.7227 5.83406C77.975 5.81698 78.2919 5.54563 78.4343 5.30465C79.0775 4.24582 79.7018 3.17372 80.273 2.07884C80.9105 0.86442 81.9181 0.319829 83.2198 0.312238C87.4361 0.291998 91.6531 0.291998 95.8707 0.312238C97.199 0.312238 98.2445 0.866318 98.8764 2.13197C99.3982 3.18131 100.055 4.16233 100.601 5.20028C100.865 5.70313 101.195 5.89478 101.761 5.86442C103.482 5.77144 105.159 5.98207 106.706 6.8018C109.717 8.39573 111.512 10.8853 111.597 14.2895C111.726 19.5399 111.637 24.798 111.637 30.0523C111.62 30.2038 111.592 30.354 111.556 30.502C111.347 30.1225 111.189 29.8568 111.066 29.5836C108.599 24.1168 106.119 18.6557 103.69 13.1737C103.374 12.4565 103 12.1908 102.231 12.2572C101.402 12.3293 100.559 12.2743 99.901 12.2743C100.66 14.0788 101.432 15.8454 102.129 17.6424C102.326 18.2358 102.372 18.8693 102.262 19.4849L101.049 16.8037C100.005 19.1813 99.0225 21.4261 98.0377 23.6709C98.8403 21.0143 98.6619 18.4868 97.2217 15.9024C96.3128 17.9119 95.4608 19.7657 94.6316 21.6291C93.5083 24.1528 92.402 26.6842 91.2843 29.2193H87.9883C87.9714 29.0946 87.9421 28.9719 87.901 28.853C86.0149 24.6557 84.1275 20.4653 82.2388 16.2819C82.1519 16.1331 82.0549 15.9905 81.9485 15.8549C80.7189 17.9138 80.3754 20.0295 80.643 22.3065C79.8593 20.5229 79.0737 18.7392 78.2255 16.8037C77.6961 17.9897 77.2578 18.9764 76.8175 19.9631C76.7796 17.1168 77.81 14.6386 79.5766 12.2819C78.5481 12.2819 77.7322 12.3331 76.92 12.2667C76.216 12.2079 75.9048 12.4906 75.6259 13.1149C72.717 19.6272 69.772 26.1244 66.8403 32.6253C66.7265 32.8758 66.6354 33.1377 66.5045 33.4678C66.884 33.4678 67.1382 33.4678 67.3982 33.4678C68.5083 33.4565 69.8745 33.8341 70.6544 33.3217C71.4722 32.7847 71.7739 31.4128 72.2103 30.3673C72.4874 29.7012 72.8422 29.4489 73.5861 29.4678C75.7587 29.5229 77.9333 29.4868 80.1534 29.4868L77.6847 25.7525C79.1743 25.7525 80.3868 25.8284 81.5842 25.7202C82.199 25.6633 82.4893 25.8625 82.8536 26.2781C84.2274 27.8511 85.9295 28.8758 88.0301 29.1775C88.5576 30.2686 89.0851 31.3597 89.6487 32.5324C90.2179 31.3445 90.7416 30.2762 91.2635 29.1946ZM94.2236 32.5191C95.8612 31.8246 97.3868 30.9612 98.7568 29.502C97.6828 29.502 96.81 29.4849 95.939 29.5134C95.7492 29.5134 95.4494 29.6405 95.383 29.7885C94.975 30.6898 94.624 31.6158 94.2445 32.5286C92.512 32.7733 90.7834 33.1434 89.0434 33.2174C87.8175 33.2705 86.5766 32.9232 85.3394 32.7563L85.2369 33.0276C85.5898 33.1737 85.9428 33.4356 86.2976 33.4432C88.2559 33.4849 90.2179 33.4204 92.18 33.4849C93.0737 33.5153 93.8138 33.4356 94.2236 32.5191ZM82.0946 15.631C85.6164 10.595 93.1876 10.0883 97.1629 15.762C98.0699 14.6462 98.0016 12.9441 99.3451 12.0731C94.013 5.77144 84.3052 6.4185 79.8005 12.1092C81.3602 12.7525 81.0775 14.5836 82.0946 15.631ZM71.1458 6.79042C70.7885 6.79154 70.4349 6.86303 70.1052 7.00081C69.7755 7.1386 69.4761 7.33997 69.2242 7.59344C68.7155 8.10534 68.431 8.79835 68.4333 9.52002C68.4356 10.2417 68.7244 10.9329 69.2363 11.4416C69.7482 11.9503 70.4412 12.2348 71.1629 12.2325C71.8854 12.2195 72.575 11.9277 73.0874 11.4181C73.5998 10.9086 73.8954 10.2207 73.9124 9.4982C73.8923 8.77625 73.5925 8.09036 73.0764 7.58519C72.5602 7.08001 71.868 6.79506 71.1458 6.79042ZM80.2805 29.502C81.8346 30.9232 83.2749 31.9536 85.1572 32.538C84.7398 31.6083 84.4267 30.8208 84.0187 30.0713C83.9386 29.93 83.8296 29.8073 83.6988 29.7112C83.568 29.615 83.4184 29.5476 83.2597 29.5134C82.3735 29.4583 81.4646 29.502 80.2805 29.502Z" fill="#222222"/>
<path d="M40.8004 12.3217V15.8549H34.2539C33.827 21.8644 33.4114 27.7354 33.0016 33.5324C32.8422 33.6367 32.7891 33.6993 32.7321 33.7012C30.8687 33.8227 30.8991 33.8208 30.7985 31.984C30.5044 26.6595 30.1856 21.3369 29.8782 16.0447C27.3412 16.0447 24.7359 15.9365 22.1477 16.0864C20.698 16.1718 20.5898 16.5286 20.5727 17.984C20.5386 20.7885 20.6866 23.6121 20.3963 26.39C19.9257 30.8777 16.7796 33.6861 12.2691 33.8815C10.9308 33.9586 9.5883 33.8397 8.28431 33.5286C4.20461 32.4792 1.86116 29.2193 1.8327 24.705C1.80044 20.6291 1.8327 16.5456 1.8327 12.3179C3.16097 12.3179 4.51391 12.2895 5.86495 12.3578C6.01486 12.3578 6.26154 12.927 6.25395 13.2212C6.14579 16.7695 5.99588 20.316 5.86495 23.8625C5.84977 24.2534 5.86495 24.6462 5.88393 25.0371C6.09456 29.1434 9.88962 31.4887 13.6638 29.8303C15.5784 28.9726 16.4076 27.3198 16.4779 25.3426C16.5765 22.5418 16.5576 19.7316 16.4779 16.9289C16.4323 15.2041 17.2008 13.9726 18.6486 13.3084C19.8365 12.7658 21.1913 12.3236 22.4779 12.3009C28.4247 12.1965 34.3754 12.2534 40.3147 12.2553C40.4777 12.2684 40.6399 12.2906 40.8004 12.3217Z" fill="#222222"/>
<path d="M131.751 33.4052C130.136 33.7468 129.062 33.3008 128.057 31.9536C124.899 27.7183 121.575 23.6044 118.159 19.2553V33.4166H114.184V12.2591C115.133 12.2591 116.081 12.2041 117.011 12.2876C117.328 12.316 117.679 12.6386 117.903 12.9156C120.966 16.7347 124.017 20.564 127.057 24.4033C127.246 24.6519 127.461 24.8929 127.816 25.3198V12.3141H131.751V33.4052Z" fill="#222222"/>
<path d="M42.4039 14.9688H48.4361V21.3179H48.5784H57.7796V12.3862H61.7246V33.4109H57.8365V24.9403H48.3659C48.3659 26.5576 48.3654 26.3767 48.3654 28.0523C47.4361 31.8851 46.3201 32.9865 45.4475 35.7714C45.1762 35.2268 44.9978 34.9156 44.8631 34.5874C44.2653 33.149 43.734 31.6822 43.0775 30.2724C42.527 29.0613 42.2671 27.7383 42.3185 26.409C42.3773 22.7923 42.3526 19.1718 42.364 15.5551C42.3564 15.3938 42.3906 15.2344 42.4039 14.9688ZM45.3792 28.2648C45.2084 28.1339 45.0547 27.9156 44.9029 27.9175C44.3469 27.9175 43.791 28.001 43.235 28.0523C43.2748 28.4318 43.235 28.8378 43.3659 29.1908C43.7321 30.1927 44.1249 31.187 44.5898 32.1471C44.7246 32.428 45.1211 32.7657 45.3868 32.7563C45.6524 32.7468 46.0547 32.4128 46.1951 32.1244C46.66 31.1642 47.0566 30.168 47.4361 29.1699C47.5595 28.8454 47.6373 28.1775 47.5898 28.1623C47.052 28.0034 46.4972 27.9091 45.9371 27.8815C45.7644 27.8663 45.5803 28.1187 45.3792 28.2648Z" fill="#222222"/>
<path d="M4.04905 10.7961C3.20465 10.7961 2.35645 10.7563 1.51585 10.8075C0.923816 10.8435 0.637289 10.5931 0.401995 10.0921C-0.258347 8.68036 0.109774 6.8037 1.28055 5.81508C2.85171 4.48681 4.79478 4.27808 6.21414 5.27428C7.94659 6.4906 8.59364 8.53425 7.70939 10.1851C7.61692 10.3364 7.49328 10.4663 7.3467 10.5661C7.20012 10.6659 7.03397 10.7333 6.8593 10.7638C5.92761 10.8397 4.98643 10.7904 4.04905 10.7904V10.7961Z" fill="#222222"/>
<path d="M48.4058 13.0086H42.4931C42.4381 11.4564 43.605 10.2306 45.1838 10.1301C46.9447 10.0219 48.1743 11.094 48.4058 13.0086Z" fill="#222222"/>
<path d="M102.732 20.5513C103.476 22.2591 104.212 23.9327 104.986 25.7069H101.618C101.988 23.9916 102.353 22.2952 102.732 20.5513Z" fill="#222222"/>
<path d="M31.4134 34.6728C32.3507 34.4185 32.7416 34.6993 32.3982 35.4982C32.1382 36.094 31.8042 36.8265 31.2881 37.1111C30.0433 37.8113 29.123 38.5722 29.5803 40.2363L28.5557 40.297C28.197 38.4621 28.5917 37.5172 30.0395 36.5741C30.7416 36.1187 31.5936 35.779 31.4134 34.6728Z" fill="#222222"/>
<path d="M112.837 33.4337H111.04C111.262 32.6405 111.467 31.9043 111.721 30.9934C112.11 31.8435 112.444 32.5722 112.837 33.4337Z" fill="#222222"/>
<path d="M94.2236 32.5191C93.8175 33.4356 93.0737 33.5153 92.1743 33.4849C90.2179 33.4204 88.2559 33.4849 86.2919 33.4432C85.9371 33.4432 85.5841 33.1737 85.2312 33.0276L85.3337 32.7563C86.569 32.9232 87.8118 33.2705 89.0377 33.2174C90.7777 33.1434 92.5063 32.7733 94.2426 32.5305L94.2236 32.5191Z" fill="white"/>
<path d="M77.5158 25.7221H74.29L76.4286 20.817C76.8005 22.4963 77.1534 24.0864 77.5158 25.7221Z" fill="#222222"/>
</svg>
