<svg xmlns="http://www.w3.org/2000/svg" xmlns:xlink="http://www.w3.org/1999/xlink" viewBox="0 0 605.02 341"><defs><style>.cls-1{fill:none;stroke:#cedbed;stroke-miterlimit:10;stroke-width:2.12px;}.cls-2{fill:#cedbed;}.cls-3{fill:url(#linear-gradient);}.cls-4{fill:url(#linear-gradient-2);}.cls-5{fill:url(#linear-gradient-3);}.cls-6{fill:url(#linear-gradient-4);}</style><linearGradient id="linear-gradient" x1="260.11" y1="169.45" x2="163.93" y2="360.45" gradientUnits="userSpaceOnUse"><stop offset="0.05" stop-color="#a1c1ed"/><stop offset="1" stop-color="#a1c1ed" stop-opacity="0"/></linearGradient><linearGradient id="linear-gradient-2" x1="452.39" y1="59.37" x2="482.03" y2="260.99" xlink:href="#linear-gradient"/><linearGradient id="linear-gradient-3" x1="512.66" y1="331.3" x2="512.66" y2="168.25" gradientUnits="userSpaceOnUse"><stop offset="0" stop-color="#6ab883"/><stop offset="1" stop-color="#dbb883"/></linearGradient><linearGradient id="linear-gradient-4" x1="117.95" y1="334.45" x2="117.95" y2="219.28" gradientTransform="matrix(-1, 0, 0, 1, 216.14, 0)" xlink:href="#linear-gradient-3"/></defs><g id="Layer_2" data-name="Layer 2"><g id="BG"><path class="cls-1" d="M596.25,127A187.2,187.2,0,0,1,603.4,168c3.65,53.42-11,100.5-23.9,130.59a318.82,318.82,0,0,1-20.37,39.67"/><path class="cls-1" d="M30.35,335.73C15,259.48,12.5,198,22.71,147.89A228.58,228.58,0,0,1,40.44,94.27"/><path class="cls-1" d="M587.33,119.37c5.53,14.57,8.89,30.9,10.14,49.12C601,220.57,586.72,266.57,574.1,296a309.47,309.47,0,0,1-21.88,42"/><path class="cls-1" d="M36.43,335.73c-15.41-76-18-137-7.91-186.5,5-24.68,13.35-46.9,24.8-66.27"/><path class="cls-1" d="M577.5,111.79c7.9,16.35,12.54,35.34,14,57.16C595,219.69,581,264.6,568.69,293.34a295.89,295.89,0,0,1-23.55,44.43"/><path class="cls-1" d="M42.52,335.74C27,260.05,24.36,199.44,34.33,150.58c6.2-30.43,17.53-57,33.66-78.84"/><path class="cls-2" d="M49.55,340.26H536.06S592.14,265,585.61,169.41,511.41,50,426.22,34.31,241.28-26,141.51,20.68C21.69,76.69,21.66,208.15,49.55,340.26Z"/><path class="cls-3" d="M308.62,241.65c-8.94-89.31-114.55-86.87-114.55-86.87C156.66,98.78,89.74,98,57,101.5c-32.08,65.07-25.82,151.77-7.46,238.76H411.42C399.13,246,308.62,241.65,308.62,241.65Z"/><path class="cls-4" d="M536.06,340.26S592.14,265,585.61,169.41c-1.84-26.79-8.47-47.94-18.93-64.86-33.35,7.12-86.39,27.88-124.1,88.27A614.87,614.87,0,0,0,376,340.26Z"/><path class="cls-5" d="M421.44,341H604s-2.11-39.3-19-26.62c0,0,5.28-38.91,1.58-39s-13.74,10.46-13.74,10.46,5.29-36.84-3.17-34.8-7.92,9.36-7.92,9.36,5.28-38.24.52-60.57,1.06-42.67-8.45-44.65-21.67,58.25-21.67,58.25-7.93-3.69-11.63,23.79c0,0-17.89-12.68-18.46,27.48,0,0-29.81-3.6-34.21,28.33,0,0-18.81-1.51-24,12.09S419.92,322.6,421.44,341Z"/><path class="cls-6" d="M196.07,341H0s6-7.27,12.75-9.19c0,0,2.89-26.58,19.23-27.29,0,0,26.36-75.51,39.12-28.64,0,0-1.5-55.59,23.37-28.2,0,0,4.72-48,15-48.79S124.57,252,124.57,252s13.13-.35,20.06,9.16c0,0-1.31-55.58,9.12-55.75s13.5,54.13,13.5,54.13,29.91-18.64,17.14,59.76C184.39,319.33,198.62,317.91,196.07,341Z"/></g></g></svg>