<svg xmlns="http://www.w3.org/2000/svg" xmlns:xlink="http://www.w3.org/1999/xlink" viewBox="0 0 66.62 61.12"><defs><style>.cls-1{fill:url(#linear-gradient);}</style><linearGradient id="linear-gradient" x1="32.23" y1="54.83" x2="34.08" y2="-12.02" gradientUnits="userSpaceOnUse"><stop offset="0.05" stop-color="#fff"/><stop offset="1" stop-color="#fff" stop-opacity="0"/></linearGradient></defs><g id="Layer_2" data-name="Layer 2"><g id="chai-vapours"><path class="cls-1" d="M57.19,61.12s-8.25-3.57-5.1-13.61,15.16-8.06,14.5-17.31-10.12-7-14.5-9.64-.25-10.17-6.82-13.35-13,1.59-22,3.18-16.78,3-16.51,0S11.36,7,9.91,3.25,1.06-.45,0,.61c0,0,8.06,0,8.32,2.77s-6,4.1-5.69,9.12,11.24,4,21.94,3.3,9.74,3.57,8.9,8.85.88,8.86,7.88,9.78,10.26,1.79,6.35,9.51c-3.37,6.66-.7,12.82,5.62,17.18Z"/></g></g></svg>