<svg xmlns="http://www.w3.org/2000/svg" xmlns:xlink="http://www.w3.org/1999/xlink" viewBox="0 0 45.91 113.93"><defs><style>.cls-1{fill:#786337;}.cls-2{fill:none;stroke:#4f4124;stroke-miterlimit:10;stroke-width:0.84px;}.cls-3{fill:#fff;}.cls-4{opacity:0.4;fill:url(#linear-gradient);}</style><linearGradient id="linear-gradient" x1="21.59" y1="-6.37" x2="-13.82" y2="164.6" gradientUnits="userSpaceOnUse"><stop offset="0"/><stop offset="0.93" stop-opacity="0"/></linearGradient></defs><g id="Layer_2" data-name="Layer 2"><g id="drawer"><rect class="cls-1" width="45.91" height="113.93"/><line class="cls-2" x1="45.91" y1="37.43" y2="37.43"/><line class="cls-2" x1="45.91" y1="75.9" y2="75.9"/><line class="cls-2" x1="45.91" y1="40.69" y2="40.69"/><line class="cls-2" x1="45.91" y1="3.26" y2="3.26"/><line class="cls-2" x1="45.91" y1="79.17" y2="79.17"/><path class="cls-3" d="M26,9.9A3,3,0,1,1,23,7,3,3,0,0,1,26,9.9Z"/><path class="cls-3" d="M26,48a3,3,0,1,1-3-2.92A3,3,0,0,1,26,48Z"/><path class="cls-3" d="M26,86.17a3,3,0,1,1-3-2.92A3,3,0,0,1,26,86.17Z"/><polygon class="cls-4" points="0 18.53 0 113.93 13.11 113.93 0 18.53"/></g></g></svg>