<svg xmlns="http://www.w3.org/2000/svg" xmlns:xlink="http://www.w3.org/1999/xlink" viewBox="0 0 109.06 304.48"><defs><style>.cls-1,.cls-13,.cls-15,.cls-18,.cls-2,.cls-8{fill:none;stroke-miterlimit:10;}.cls-1,.cls-2{stroke:#1656bd;}.cls-1{stroke-width:3.17px;}.cls-2{stroke-width:3.34px;}.cls-3{fill:#0c3069;}.cls-4{fill:#cedbed;}.cls-5{fill:#ff6d6d;}.cls-6{fill:#063359;}.cls-7{fill:#052f4c;}.cls-13,.cls-8{stroke:#fff;}.cls-8{stroke-width:2px;}.cls-10,.cls-8{opacity:0.8;}.cls-9{fill:#08224a;}.cls-11{fill:#fff;}.cls-12{fill:#ffa526;}.cls-13,.cls-15,.cls-18{stroke-width:0.72px;}.cls-14{fill:#80371d;}.cls-15{stroke:#ffa526;}.cls-16{fill:url(#linear-gradient);}.cls-17{fill:#d92727;}.cls-18{stroke:#0c3069;}.cls-19{fill:url(#linear-gradient-2);}</style><linearGradient id="linear-gradient" x1="40.44" y1="96.82" x2="52.23" y2="96.82" gradientUnits="userSpaceOnUse"><stop offset="0" stop-color="#f04f4f"/><stop offset="0.15" stop-color="#f04f4f" stop-opacity="0.99"/><stop offset="0.28" stop-color="#f04f4f" stop-opacity="0.94"/><stop offset="0.4" stop-color="#f04f4f" stop-opacity="0.86"/><stop offset="0.53" stop-color="#f04f4f" stop-opacity="0.76"/><stop offset="0.65" stop-color="#f04f4f" stop-opacity="0.62"/><stop offset="0.76" stop-color="#f04f4f" stop-opacity="0.45"/><stop offset="0.88" stop-color="#f04f4f" stop-opacity="0.25"/><stop offset="0.99" stop-color="#f04f4f" stop-opacity="0.02"/><stop offset="1" stop-color="#f04f4f" stop-opacity="0"/></linearGradient><linearGradient id="linear-gradient-2" x1="74.67" y1="54.83" x2="76.52" y2="-12.02" gradientUnits="userSpaceOnUse"><stop offset="0.05" stop-color="#fff"/><stop offset="1" stop-color="#fff" stop-opacity="0"/></linearGradient></defs><g id="Layer_2" data-name="Layer 2"><g id="girl_1" data-name="girl 1"><line class="cls-1" x1="34.15" y1="194.05" x2="24.68" y2="292.12"/><line class="cls-1" x1="64.5" y1="194.05" x2="73.96" y2="292.12"/><line class="cls-1" x1="31.79" y1="218.5" x2="67.01" y2="218.5"/><line class="cls-2" x1="29.85" y1="240.13" x2="68.94" y2="240.13"/><rect class="cls-3" x="24.68" y="186.21" width="49.27" height="10.66" rx="3.4"/><ellipse class="cls-4" cx="42.23" cy="300.72" rx="6.9" ry="3.75"/><path class="cls-5" d="M42.75,261.07,43,280.65a17.1,17.1,0,0,1,1,6c0,3.44,3,8.74.32,11.21s-5.92.41-6.15-3,0-6.79-.94-8.67-1.06-4.95.22-6.33l-3.31-18.46Z"/><path class="cls-3" d="M41.61,287.3l-1,.11a1.65,1.65,0,0,1-1.85-1.28l-1.35-6.28c-1.28,1.38-1.12,4.45-.22,6.33s.7,5.22.94,8.67,3.42,5.49,6.15,3S44,290.11,44,286.67a17.1,17.1,0,0,0-1-6l.18,4.88A1.71,1.71,0,0,1,41.61,287.3Z"/><path class="cls-5" d="M85.82,254.23l2.83,19.37a17.25,17.25,0,0,1,1.82,5.84c.43,3.41,4.19,8.26,1.82,11.06s-5.81,1.2-6.51-2.18-.94-6.72-2.08-8.47-1.72-4.76-.64-6.29l-5.74-17.85Z"/><path class="cls-3" d="M88.19,280.38l-.94.24a1.65,1.65,0,0,1-2-1l-2.19-6c-1.08,1.53-.51,4.55.64,6.29s1.39,5.09,2.08,8.47,4.13,5,6.51,2.18-1.39-7.65-1.82-11.06a17.25,17.25,0,0,0-1.82-5.84l.83,4.82A1.72,1.72,0,0,1,88.19,280.38Z"/><path class="cls-6" d="M33.93,102.67s11.7,9.67,24.78,3.57c0,0-.05-1.52,1.27-1.52s6.57,1,13.83,4.41C84,114,107.37,140.18,106.4,153.43c-.7,9.69-7.75,12.86-14.09,12.6s-5.81-11-5.81-11L66.59,138.28,62.89,166H20.44l-6-43.43L0,60.86a17.52,17.52,0,0,1,5.08-8.37,7.64,7.64,0,0,1,8.13-1.23Z"/><path class="cls-7" d="M33.93,102.67,13.21,51.26a7.64,7.64,0,0,0-8.13,1.23A17.52,17.52,0,0,0,0,60.86L14.45,122.6C28.45,133.35,33.93,102.67,33.93,102.67Z"/><path class="cls-8" d="M59.39,181.58a7.18,7.18,0,0,1-4.75.55c-.56-.08-1.12-.2-1.66-.33-7.24-.87-14.2-1.62-21.37-.22a34.18,34.18,0,0,1-.52-3.39c-.61-5.76,0-12,.67-18.17,0-.65,0-1.29,0-1.93.15-7.67.2-15.14.3-23.08l1.55.16c.55.06,1.15.11,1.86.16l1.45.17c6.28,1.85,13.28,1.85,19.64,1.38l1.41-.2c1-.16,1.9-.36,2.86-.62a5.6,5.6,0,0,1,1.35.73,7.24,7.24,0,0,1,1.32,1.29,8.89,8.89,0,0,1,.09,1.45,31.69,31.69,0,0,1-.88,5.37c-.08.53-.17,1.06-.26,1.58-.5,2.64-1.24,5.25-1.93,7.71-.05.54-.09,1.05-.12,1.57-.21,3.59-.38,7.17-.44,10.66-.08.59-.16,1.18-.25,1.77-.63,4.13-1.42,8.34-.28,12.56C59.4,181.26,59.39,181.58,59.39,181.58Z"/><path class="cls-6" d="M92.31,166c6.34.26,13.39-2.91,14.09-12.6,1-13.25-22.37-39.46-32.59-44.3-1.58-.76-3.07-1.38-4.44-1.91h0c-9.31,15.2-2.78,31.06-2.78,31.06L86.5,155S86,165.76,92.31,166Z"/><path class="cls-9" d="M96.9,155.71c.12,6.42-1.8,10.78-5.52,10.33s-5.53-6.46-4.88-11Z"/><g id="Layer_2-2" data-name="Layer 2" class="cls-10"><g id="Layer_1-2" data-name="Layer 1-2"><path class="cls-11" d="M48.79,157.53a1.66,1.66,0,0,0,1.08-.76l-.07.18h.69l-.43.63h1.08a.18.18,0,0,1,.2.15.42.42,0,0,0,0,.1c.08.25.13.55.55.39a1.58,1.58,0,0,1-1.44.9H45.6a1.6,1.6,0,0,1-1.14-.43,1.44,1.44,0,0,1-.42-1.1c0-.49,0-1,0-1.45s0-1,0-1.45a.86.86,0,0,1,.53-.91.26.26,0,0,0,.07-.11c0-.2.13-.27.34-.27h.5c.27,0,.33,0,.45.3h.47a.22.22,0,0,0,.12-.09l.28-.53a.48.48,0,0,1,.48-.29h2.1a.56.56,0,0,1,.52.3c.1.17.22.33.32.5a.21.21,0,0,0,.2.11,1.47,1.47,0,0,1,.8.15,1.49,1.49,0,0,1,.85,1.24c0,.43,0,.87,0,1.3s0,.87,0,1.3c0,0,0,.05,0,.08l-.07-.16c-.18-.45-.36-.9-.55-1.35s-.41-.9-.62-1.36a.22.22,0,0,0-.24-.15h-.38c.14.29.28.58.4.88a.52.52,0,0,1,0,.3l-.2-.44c-.16.39-.31.76-.48,1.14a1.52,1.52,0,0,0-.15-1.29c-.13.33-.27.64-.4.95s-.39.83-.6,1.25h-.55s0,0,0-.06c-.15-.35-.3-.69-.46-1s-.33-.69-.5-1l-.05-.07a1.6,1.6,0,0,0-.21,1.06l-.43-.91-.24.53a2,2,0,0,1,.44-1.27h-.46c-.12,0-.17,0-.22.14-.23.53-.48,1.07-.74,1.61-.13.27-.26.53-.4.8l-.4.81-.07.14h.16c.19,0,.43.06.57,0s.2-.31.29-.49a.21.21,0,0,1,.24-.14h1.14l-.4-.62h.67a.22.22,0,0,1,.22.09,1.38,1.38,0,0,0,.87.48c.08.18.15.36.24.55C48.59,157.88,48.69,157.71,48.79,157.53Zm.46.55a2.22,2.22,0,0,0,.77-.5h-.46a.11.11,0,0,0-.09,0c-.08.14-.14.3-.22.45a8.62,8.62,0,0,1-.87.11,4.5,4.5,0,0,1-.63-.07l0,0a.45.45,0,0,0,.18.07h1C49.05,158.24,49.17,158.23,49.25,158.08Zm-2-2.79a1.51,1.51,0,0,1,1.22-.65,1.59,1.59,0,0,1,1.32.67c.14-.18.11-.46.32-.61a2.26,2.26,0,0,0-1.72-.74,2,2,0,0,0-1.56.75C47.09,154.82,47.06,155.12,47.24,155.29Zm-2-1.45a.44.44,0,0,0-.45.45.48.48,0,0,0,.49.44h0a.45.45,0,0,0,.46-.45.49.49,0,0,0-.5-.44Zm1.64,3.74a2.08,2.08,0,0,0,.81.5c-.07-.15-.11-.28-.18-.41a.19.19,0,0,0-.12-.09c-.15,0-.31,0-.51,0Z"/><path class="cls-11" d="M40.18,154.77v.59H39.1c0,.51-.07,1-.11,1.49s-.07,1-.1,1.44l0,0c-.3,0-.3,0-.32-.28s0-.88-.07-1.32-.05-.88-.07-1.32c-.42,0-.84,0-1.27,0-.24,0-.26.07-.26.31,0,.47,0,.94,0,1.4a1.36,1.36,0,0,1-.42.88,1.48,1.48,0,0,1-.92.35,2.12,2.12,0,0,1-.66-.07,1.37,1.37,0,0,1-.77-.52,1.59,1.59,0,0,1-.28-.94v-2.06c.22,0,.44,0,.66,0,0,0,.07.09.07.14l0,.88c0,.3,0,.59,0,.89v.19a.93.93,0,0,0,.42.76.9.9,0,0,0,.86,0,.78.78,0,0,0,.46-.74c0-.46,0-.93,0-1.39a.6.6,0,0,1,.36-.61,1.51,1.51,0,0,1,.63-.16l1.46,0h1.55Z"/><path class="cls-11" d="M55.21,158.23a.49.49,0,0,1-.58-.24l-.75-1c-.25-.35-.51-.7-.78-1.06,0,0,0,.58,0,1.17s0,1.17,0,1.17h-.62s0-.88,0-1.75,0-1.74,0-1.74.3,0,.45,0a.33.33,0,0,1,.14.1l.73.95.72,1,.11.15s0-.53,0-1.07,0-1.07,0-1.07h.63s0,.87,0,1.74S55.21,158.23,55.21,158.23Z"/><path class="cls-11" d="M40.44,155.21h1v1.44h0v-.39H43v-1.48h.68s0,.22,0,.54v1.2c0,.43,0,.86,0,1.19s0,.54,0,.54H43l0-1.4h-1.6a1.56,1.56,0,0,1-.11.91c-.12.29-.27.57-.37.88a1.88,1.88,0,0,1-.1-.19c-.1-.24-.18-.48-.29-.71a1.4,1.4,0,0,1-.13-.63c0-.3,0-.6,0-.9s0-.6,0-.9Zm.49,2.2s-.06-.06-.08-.06l-.28,0a.58.58,0,0,0,0,.19,4.19,4.19,0,0,0,.2.49.19.19,0,0,0,.13.1.23.23,0,0,0,.13-.11c.08-.16.14-.32.21-.49a.35.35,0,0,0,0-.16,1.28,1.28,0,0,0-.27,0S41,157.38,40.93,157.41Z"/><path class="cls-11" d="M34.14,154.51h-.42a.17.17,0,0,1-.19-.12.62.62,0,0,1,.15-.71.66.66,0,0,1,1.06.74.19.19,0,0,1-.14.09c-.16,0-.31,0-.46,0Z"/><path class="cls-11" d="M41.44,154.88h-1a.47.47,0,0,1,.45-.48A.48.48,0,0,1,41.44,154.88Z"/><path class="cls-11" d="M50.7,156.1c.12.28.23.56.35.85h-.54C50.58,156.67,50.64,156.39,50.7,156.1Z"/><path class="cls-11" d="M38.63,158.48c.15,0,.21,0,.16.13a.6.6,0,0,1-.19.27c-.2.11-.35.24-.28.51h-.16a.49.49,0,0,1,.24-.61C38.51,158.71,38.65,158.66,38.63,158.48Z"/><path class="cls-11" d="M52.22,158.23h-.28l.13-.4Z"/><path class="cls-11" d="M49.25,158.08c-.08.15-.2.16-.35.16h-1a.45.45,0,0,1-.18-.07l0,0a4.5,4.5,0,0,0,.63.07,8.62,8.62,0,0,0,.87-.11Z"/><path class="cls-11" d="M46.46,157h-.57l.38-.81C46.34,156.42,46.4,156.69,46.46,157Z"/></g></g><polygon class="cls-12" points="78.48 164.54 50.4 164.54 56.71 125.86 84.79 125.86 78.48 164.54"/><polygon class="cls-13" points="74.85 129.03 65.61 129.03 66.4 124.19 75.64 124.19 74.85 129.03"/><path class="cls-14" d="M31.71,181.44c15.32.47,13.74,81.74,13.74,81.74H29.77s-3.66-6.92-3.7-13c0-6.3-3-12.86-3.87-19.56S8.46,180.74,31.71,181.44Z"/><line class="cls-15" x1="45.5" y1="257.36" x2="27.39" y2="257.36"/><path class="cls-14" d="M64.24,176.79C79.48,175.21,88.78,256,88.78,256l-15.54,2.1s-4.56-6.37-5.41-12.43c-.87-6.23-4.68-12.34-6.45-18.86S41.1,179.2,64.24,176.79Z"/><line class="cls-15" x1="88.14" y1="250.86" x2="70.74" y2="253.28"/><path class="cls-5" d="M40.74,92.24,40,101.82a1.7,1.7,0,0,1-2,1.54l-4.06-.69s2.38,13.55,12.62,15.46,12.16-11.89,12.16-11.89l-5.62-1-2.9-13Z"/><path class="cls-16" d="M50.19,92.24H40.74L40.44,96a16.2,16.2,0,0,0,11.79,5.44Z"/><path class="cls-17" d="M37.08,86.18s-5-9.42.62-13c2.91-6.29,15.41-5.32,18.36,1.63A9.64,9.64,0,0,1,53.86,86Z"/><circle class="cls-17" cx="41.69" cy="66.74" r="5.88"/><path class="cls-5" d="M55.2,85.43a1.65,1.65,0,0,0-1.64-.09C53.81,83.51,54,82,54,82s-8.19,1.14-13.3-4.06c0,0-.61,4.58-3,6.26,0,0,0,.41.06,1.06a1.72,1.72,0,0,0-1.45.17c-1.05.6-.44,3.25,1.89,3.35.34,1.84.89,3.71,1.79,4.49,2,1.76,4.76,3.26,6.25,3.17s5.73-3.52,6.26-5a22.44,22.44,0,0,0,.55-2.66l.25,0C55.64,88.68,56.25,86,55.2,85.43Z"/><path class="cls-5" d="M94,151.36l-31.57-7.13s-5.42-7.27-7-7.6.66,2.46.66,2.46-2.26-1.6-2.84-.54a3.34,3.34,0,0,0,0,2.51s-.72,1.09,1.13,2.92,6.87,3,6.87,3,23.59,14.75,29.06,16.78S100.06,154.14,94,151.36Z"/><path class="cls-9" d="M13.21,51.26a7.64,7.64,0,0,0-8.13,1.23A17.52,17.52,0,0,0,0,60.86C4.93,64.73,12.86,55.57,13.21,51.26Z"/><path class="cls-5" d="M13,52.26,7.11,33.11S9.29,28.62,9,27.3s-1.85-.93-1.85-.93a7.22,7.22,0,0,0-.5-1.65C6.39,24.46,1,27,1,27s-1,3,.4,3.76a2.44,2.44,0,0,0,1.91,3l5,25.44A15.55,15.55,0,0,0,13,52.26Z"/><path class="cls-18" d="M90.62,150.6s2.66-3,7.5-.29"/><path class="cls-19" d="M99.63,61.12s-8.25-3.57-5.11-13.61S109.69,39.45,109,30.2s-10.12-7-14.51-9.64-.24-10.17-6.81-13.35-13,1.59-22,3.18-16.78,3-16.51,0S53.8,7,52.35,3.25,43.5-.45,42.44.61c0,0,8.06,0,8.32,2.77s-6,4.1-5.69,9.12,11.24,4,21.94,3.3,9.74,3.57,8.9,8.85.88,8.86,7.88,9.78,10.26,1.79,6.35,9.51c-3.37,6.66-.7,12.82,5.62,17.18Z"/></g></g></svg>