<svg xmlns="http://www.w3.org/2000/svg" xmlns:xlink="http://www.w3.org/1999/xlink" viewBox="0 0 90.09 283.06"><defs><style>.cls-1,.cls-11,.cls-13,.cls-19,.cls-6{fill:none;}.cls-2{fill:#ffa526;}.cls-3{fill:#cedbed;}.cls-4{fill:#ff6d6d;}.cls-5{fill:#456b4b;}.cls-6{stroke:#29492d;}.cls-11,.cls-13,.cls-19,.cls-6{stroke-miterlimit:10;}.cls-11,.cls-6{stroke-width:0.72px;}.cls-15,.cls-7{opacity:0.5;}.cls-7{fill:url(#linear-gradient);}.cls-8{fill:url(#linear-gradient-2);}.cls-9{fill:#062d47;}.cls-10{fill:#063359;}.cls-11{stroke:#0c3069;}.cls-12{opacity:0.57;fill:url(#linear-gradient-3);}.cls-13{stroke:#d92727;stroke-width:0.53px;}.cls-14{fill:url(#linear-gradient-4);}.cls-15{fill:url(#linear-gradient-5);}.cls-16{fill:#0c3069;}.cls-17{fill:url(#linear-gradient-6);}.cls-18{clip-path:url(#clip-path);}.cls-19{stroke:#fff;stroke-width:2px;}.cls-19,.cls-20{opacity:0.8;}.cls-21{fill:#fff;}</style><linearGradient id="linear-gradient" x1="63.9" y1="100.54" x2="63.9" y2="126.26" gradientUnits="userSpaceOnUse"><stop offset="0.03"/><stop offset="1" stop-opacity="0"/></linearGradient><linearGradient id="linear-gradient-2" x1="25.69" y1="54.24" x2="49.75" y2="54.24" gradientUnits="userSpaceOnUse"><stop offset="0" stop-color="#f04f4f"/><stop offset="0.15" stop-color="#f04f4f" stop-opacity="0.99"/><stop offset="0.28" stop-color="#f04f4f" stop-opacity="0.94"/><stop offset="0.4" stop-color="#f04f4f" stop-opacity="0.86"/><stop offset="0.53" stop-color="#f04f4f" stop-opacity="0.76"/><stop offset="0.65" stop-color="#f04f4f" stop-opacity="0.62"/><stop offset="0.76" stop-color="#f04f4f" stop-opacity="0.45"/><stop offset="0.88" stop-color="#f04f4f" stop-opacity="0.25"/><stop offset="0.99" stop-color="#f04f4f" stop-opacity="0.02"/><stop offset="1" stop-color="#f04f4f" stop-opacity="0"/></linearGradient><linearGradient id="linear-gradient-3" x1="78.47" y1="32.5" x2="67.89" y2="119.08" gradientUnits="userSpaceOnUse"><stop offset="0" stop-color="#0c3069"/><stop offset="1" stop-color="#0c3069" stop-opacity="0"/></linearGradient><linearGradient id="linear-gradient-4" x1="4.91" y1="56.95" x2="16.83" y2="56.95" xlink:href="#linear-gradient-2"/><linearGradient id="linear-gradient-5" x1="81.37" y1="143.9" x2="24.29" y2="229.51" xlink:href="#linear-gradient"/><linearGradient id="linear-gradient-6" x1="56.09" y1="27.2" x2="68.06" y2="27.2" xlink:href="#linear-gradient-2"/><clipPath id="clip-path"><path id="SVGID" class="cls-1" d="M69.92,31.31C75,27.08,82.78,26.46,86.3,30.25S90.09,46.9,90.09,46.9H85.15s-5.81,18.41-6,26.34,6.51,29.41,6.51,29.41c.93,3.18-3.17,3.44-9.91,3.44H43.27c-6.6,0-3.57-5.55-2.24-11.23S46.93,71.74,47,68,40.37,58.7,43.4,51.48s8.28-16.91,13.39-16.3Z"/></clipPath></defs><g id="Layer_2" data-name="Layer 2"><g id="girl_2" data-name="girl 2"><path class="cls-2" d="M56.79,35.18C52,37.91,43.4,51.48,43.4,51.48A27.06,27.06,0,0,1,45.52,38.8s-6-.09-6.7-1.5c-2.3-4.62,4.94-15,4.94-15C34,20,30.46,14.13,36.89,10.26S50.63,3,50.63,3s3.84-6,11.44-.89c4.85,3.26,4.31,9.34,6,11.54s6.53,5.11,4.76,6.35c0,0,7.93,2.73,9.6,10,0,0-8-1.49-12.5,1.32Z"/><path class="cls-3" d="M37.48,278.18c.19,2.07-4.82,4.19-11.17,4.75s-11.66-.67-11.84-2.73,4.83-4.19,11.18-4.75S37.3,276.12,37.48,278.18Z"/><path class="cls-3" d="M89.42,278.18c.18,2.07-4.83,4.19-11.18,4.75s-11.65-.67-11.83-2.73,4.82-4.19,11.18-4.75S89.24,276.12,89.42,278.18Z"/><path class="cls-4" d="M33.75,235.63l-3.94,35-7,4.89s-7.25,1.07-7.22,2.52,15.32-.3,19-.37.61-2.66,1-5.57,8.8-36.64,8.8-36.64Z"/><path class="cls-4" d="M76.59,235.63l5.15,35-7,4.89s-7.24,1.07-7.22,2.52,15.33-.3,19-.37.6-2.66.94-5.57-.3-36.64-.3-36.64Z"/><path class="cls-5" d="M81.1,101.77s7.67,11.31,7.36,42.48l1.63,94H72.45L59.09,148.91l-7.93,48.73s3.84,11.57-4.78,40.65H30.72l2.91-47.73a347.48,347.48,0,0,1,9.07-88.79Z"/><path class="cls-6" d="M59.09,148.91s-4.59-26.35-3.35-48.37"/><path class="cls-6" d="M51.07,100.54s-1.26,22.95,5,23.23"/><path class="cls-7" d="M81.1,101.77H42.7c-.71,3-1.37,5.92-2,8.84a24,24,0,0,0,10.42.36c8.39-1.3,25.75,11,35.92,10.82C84.94,107.44,81.1,101.77,81.1,101.77Z"/><path class="cls-4" d="M41.2,45.81,18.05,62.3l-9.53-12,1-.64L6.06,41.35l-4.7,2.94A2.88,2.88,0,0,0,.08,47.4C.64,49.66,2,53,4.91,53.15c0,0,3,19.49,11.1,22S49.75,55.53,49.75,55.53Z"/><path class="cls-8" d="M41.2,45.81l-15.51,11c5.17.13,13.71,1.07,15.16,5.8,5.11-3.87,8.9-7.13,8.9-7.13Z"/><path class="cls-9" d="M52.77,36.12l-12.08,8.6a1.66,1.66,0,0,0-.26,2.47l9.49,10.37Z"/><path class="cls-10" d="M69.92,31.31C75,27.08,82.78,26.46,86.3,30.25S90.09,46.9,90.09,46.9H85.15s-5.81,18.41-6,26.34,6.51,29.41,6.51,29.41c.93,3.18-3.17,3.44-9.91,3.44H43.27c-6.6,0-3.57-5.55-2.24-11.23S46.93,71.74,47,68,40.37,58.7,43.4,51.48s8.28-16.91,13.39-16.3Z"/><path class="cls-11" d="M70.49,41.35,69.3,48.48s1.45,1.66,5,1.79"/><path class="cls-11" d="M65.47,44.19s-.73,7.73,7.86,9.51"/><path class="cls-12" d="M79.17,73.24a45.29,45.29,0,0,1,.94-7.15L72,49.92,69.3,48.48,70,44.19c-4,1.52-2.11,6.74-1.38,10.11s-.53,5-5.55,4.75-4.89.27-2,5,4.68,11.07,3.52,20.48c-.68,5.48-3.8,17-5.44,21.54H75.77c6.74,0,10.84-.26,9.91-3.44C85.68,102.65,79,81.16,79.17,73.24Z"/><path class="cls-13" d="M18.05,62.3a4.48,4.48,0,0,1,2.1,3.32"/><path class="cls-14" d="M11.05,53.45c-1.68,0-4.31-.13-6.14-.3A67.43,67.43,0,0,0,6.4,59.88c3.2-1.43,7.94-.06,10.43.87Z"/><path class="cls-15" d="M33,200.63l-2.3,37.66H46.38c8.62-29.08,4.78-40.65,4.78-40.65l7.93-48.73L57.5,137.79C54,151.88,40.94,182.57,33,200.63Z"/><path class="cls-16" d="M15.55,278c0,1.46,15.32-.3,19-.37,3.08-.06,1.46-1.87,1-4.15-6.41,3.29-3.57-2.85-5.78-2.89l-7,4.89S15.52,276.55,15.55,278Z"/><path class="cls-16" d="M67.48,278c0,1.46,15.33-.3,19-.37,3.08-.06,1.45-1.87,1-4.15-6.42,3.29-3.58-2.85-5.79-2.89l-7,4.89S67.46,276.55,67.48,278Z"/><path class="cls-4" d="M47,20s.7,1.24,2.2,4.58,3.26,4.85,6.87,4.5l.7,6.07s-7,5.66-3.17,7.41,9.25-6.17,16.3-11.28c0,0-5.6-2.62-7.23-7.49-2.81-8.45-7.13-6.16-9.24-15.06C53.45,8.76,50.89,17.57,47,20Z"/><path class="cls-17" d="M62.69,23.82c-.11-.35-.23-.67-.35-1-1.33,2.88-4.17,6-6.25,6.28l.28,2.46,11.69-1.34A13.46,13.46,0,0,1,62.69,23.82Z"/><path class="cls-4" d="M88.46,46.9s-8.19-4.23-16.25,1.19L59.26,141.63s-1.85,2.18-.66,3.14,4,.56,7.13.56h8.72s-5.68-3.83-7.13-4.56-2-3-2-3,12.15-29.33,11-45.58A313.39,313.39,0,0,0,88.46,46.9Z"/><g class="cls-18"><path class="cls-19" d="M45.69,96.54l-1.15,0-1.27,0-1.39,0-1.38-.06-1.23-.1c-.37,0-.71-.07-1-.12a10,10,0,0,1-1.35-.29l-.79-.23a2.32,2.32,0,0,0-.53-.1,2.36,2.36,0,0,0-.57-.1l-.35,0-.36.05-.4,0-.47,0c-.17,0-.35,0-.55.07l-.65.11a14.13,14.13,0,0,1-.11-1.46c0-.49,0-1,0-1.49s0-.83.07-1.25,0-.84,0-1.26V89.07a96.62,96.62,0,0,1,1.18-11.8l.09-1.65c.32-6.59.55-13,.83-19.81l2.24.28.92.09a4,4,0,0,0,.78,0A4,4,0,0,0,39.2,56l.77-.24a4.28,4.28,0,0,1,.74-.16,3,3,0,0,1,.67,0,2.62,2.62,0,0,1,.63.14,4.49,4.49,0,0,1,.61.23l.61.27a6.65,6.65,0,0,0,.61.27,4.15,4.15,0,0,0,.63.16,5.25,5.25,0,0,0,.68,0c.23,0,.46-.06.71-.1.49-.08,1-.2,1.55-.33l.83-.2.87-.2c.29-.1.59-.19.89-.27l.9-.2c.3-.06.59-.11.88-.14l.84-.09c.55,0,1.08,0,1.6,0s1,0,1.49.1l1.36.19c.43.06.85.14,1.27.21l1.25.23,1.24.23,1.24.28,1.21.3c-.05.31-.1.62-.16.92s-.11.62-.17.92-.13.62-.2.93-.14.63-.21.94-.15.62-.22.93l-.21.94c-.09.47-.18.93-.24,1.4s-.16.72-.22,1.09-.13.72-.19,1.09c-.36,2.17-.59,4.35-.75,6.52,0,.57-.07,1.15-.11,1.72-1.16,6.54.84,12.54.88,19.78.05.83.1,1.71.15,2.69-.15.24-4.41.62-8.54.39-.32,0-.63,0-1-.06l-1-.07c-.31,0-.64,0-1,0H49.16c-.36,0-.73,0-1.1,0s-.76,0-1.15-.08Z"/></g><g class="cls-18"><g id="Layer_2-2" data-name="Layer 2" class="cls-20"><g id="Layer_1-2" data-name="Layer 1-2"><path class="cls-21" d="M50.14,77.7a1.25,1.25,0,0,0,.47-.3,2.9,2.9,0,0,0,.41-.56l-.09.2.57,0-.43.7h.13l.88,0a.16.16,0,0,1,.2.15s0,.08,0,.12c.1.27.16.58.67.43a2.34,2.34,0,0,1-.52.59,1.74,1.74,0,0,1-.61.3,1.86,1.86,0,0,1-.33,0l-.51,0-.49,0h-.48l-.5-.07c-.35-.06-.7-.14-1-.22s-.58-.15-.82-.22a.65.65,0,0,1-.43-.58,2.28,2.28,0,0,1,.17-1l.22-.6c.07-.2.14-.4.2-.59a5.5,5.5,0,0,0,.16-.58c0-.2.07-.41.1-.61a1.13,1.13,0,0,1,.25-.85.15.15,0,0,0,0-.1c0-.19,0-.27.13-.27l.28,0c.14,0,.18,0,.29.28a2.13,2.13,0,0,0,.25,0,.14.14,0,0,0,0-.1c0-.18.06-.37.08-.55s.09-.31.23-.33l.73-.11.82-.07a.45.45,0,0,1,.45.27c.08.16.18.31.26.48a.17.17,0,0,0,.18.11,1.45,1.45,0,0,1,.79.15,1.67,1.67,0,0,1,.57.55,1.27,1.27,0,0,1,.15.77c0,.23-.07.46-.11.69s-.09.47-.14.71-.09.47-.13.7-.08.47-.11.7a.19.19,0,0,1,0,.08,1.22,1.22,0,0,1-.08-.17c-.09-.25-.18-.5-.25-.75a7.44,7.44,0,0,1-.2-.74c-.06-.25-.12-.49-.17-.74l-.15-.73c0-.12-.08-.17-.19-.15h-.35c.05.31.1.61.13.93a.76.76,0,0,1,0,.33l-.07-.48-.35.63c-.11.21-.22.42-.32.63a2.93,2.93,0,0,0,.2-.71,2,2,0,0,0,0-.69c-.09.19-.18.36-.27.54l-.25.51c-.11.24-.22.47-.32.7l-.3.69-.37,0v-.06c0-.37,0-.73,0-1.09s0-.7,0-1c0,0,0,0,0-.07a3.63,3.63,0,0,0-.36,1c0-.29,0-.58,0-.88-.09.18-.16.34-.24.48a4.44,4.44,0,0,1,.19-.62c.08-.2.17-.39.27-.59a1.1,1.1,0,0,1-.24,0c-.07,0-.1,0-.13.14-.1.26-.21.5-.33.74a6.68,6.68,0,0,1-.41.67l-.45.64-.46.65a.62.62,0,0,0-.08.12l.07,0c.1,0,.19.11.28,0s.21-.26.31-.4.11-.12.18-.1l.63.17,0-.62a2.71,2.71,0,0,0,.38.06c.06,0,.08,0,.09.11a.71.71,0,0,0,.42.55c0,.19.06.38.1.58C50,78.07,50.06,77.89,50.14,77.7Zm.29.58a2.09,2.09,0,0,0,.61-.56l-.36,0a.09.09,0,0,0-.07.05l-.18.49a2.37,2.37,0,0,1-.64.1,1.19,1.19,0,0,1-.44-.14l0,0s.07.09.11.09a6.26,6.26,0,0,0,.73.08A.22.22,0,0,0,50.43,78.28Zm-.71-2.89a1.76,1.76,0,0,1,.36-.52.89.89,0,0,1,.43-.24.6.6,0,0,1,.44.12,1,1,0,0,1,.34.5c.15-.2.19-.5.4-.66a1.29,1.29,0,0,0-.55-.54,1,1,0,0,0-1.17.19,2.24,2.24,0,0,0-.4.6C49.7,74.93,49.65,75.23,49.72,75.39Zm-.95-1.34c-.14,0-.23.21-.21.44s.1.42.23.42h0c.14,0,.26-.2.26-.44s-.15-.42-.28-.42Zm.17,3.55a1.11,1.11,0,0,0,.39.6c0-.16,0-.29,0-.42a.13.13,0,0,0,0-.11l-.31-.07Z"/><path class="cls-21" d="M45.69,74.68l0,.53-.37.11-.34.09a5.93,5.93,0,0,1-.1.72,6.61,6.61,0,0,1-.2.73c-.09.25-.19.51-.31.78s-.25.55-.39.84l-.06,0c-.3.15-.29.15-.15-.2s.2-.51.29-.75.15-.48.21-.72a4.11,4.11,0,0,0,.12-.67,5.12,5.12,0,0,0,0-.67H42.94c-.37,0-.38.08-.35.35a3.14,3.14,0,0,1,0,.81,3.49,3.49,0,0,1-.22.81,2.27,2.27,0,0,1-.36.58,1.46,1.46,0,0,1-.56.34,2.21,2.21,0,0,1-.87-.05L40,78.22,39.37,78l-.77-.25-.7-.19a5.2,5.2,0,0,1-.83-.31,2.12,2.12,0,0,1-.58-.35A1,1,0,0,1,36.1,76c0-.28,0-.56.07-.83s0-.52,0-.79h1.31s.16.07.16.11a3.07,3.07,0,0,1,.05.68,3.8,3.8,0,0,1-.11.73c0,.06,0,.12,0,.18a.56.56,0,0,0,.19.44,2.14,2.14,0,0,0,.63.36,9.62,9.62,0,0,0,1,.38,7,7,0,0,0,1.13.36,1.14,1.14,0,0,0,.78,0,.63.63,0,0,0,.33-.42,2.81,2.81,0,0,0,.1-.81,2.35,2.35,0,0,0-.17-.81c-.14-.33-.05-.52.29-.57l.44-.06a4.33,4.33,0,0,1,.53,0H44.6l.28,0,.26-.06.5-.11S45.67,74.68,45.69,74.68Z"/><path class="cls-21" d="M56.3,78.65c-.2.06-.34,0-.48-.24l-.3-.56c-.1-.19-.19-.38-.29-.58L55,76.66l-.3-.63s0,.16-.06.4-.07.55-.1.87-.06.62-.07.86,0,.38,0,.38l-.76-.08,0-.59c0-.17,0-.38.07-.6s.07-.45.11-.69.08-.47.12-.69.07-.43.1-.6c.05-.36.07-.59.07-.59.16,0,.31,0,.45.06s.1.08.13.13.19.37.28.56l.24.55c.08.19.15.37.23.55s.15.36.23.54l.08.17s0-.14,0-.36,0-.51.07-.8.06-.58.09-.8l0-.36.5,0-.1.58c0,.18,0,.38-.08.6s0,.45-.06.68,0,.46,0,.68,0,.41,0,.57C56.28,78.43,56.3,78.65,56.3,78.65Z"/><path class="cls-21" d="M45.89,75.05h.65s0,.32-.09.63l-.1.62h0l.07-.34.86.08.12-.6c.07-.3.13-.59.13-.59l.38,0s0,.18-.07.45a7.22,7.22,0,0,1-.27,1c-.11.34-.24.7-.35,1s-.18.48-.18.48l-.32,0s.11-.3.21-.6.21-.61.21-.61l-.43,0H46.3a2.44,2.44,0,0,1-.32.86c-.16.29-.37.6-.57.93,0-.08,0-.13,0-.18,0-.23.08-.45.1-.67a2.52,2.52,0,0,1,.12-.61,8.52,8.52,0,0,0,.17-.85,7.72,7.72,0,0,0,.06-.82S45.89,75.09,45.89,75.05Zm0,2s0-.05,0,0a.64.64,0,0,0-.18.06c0,.06,0,.12,0,.18s0,.3,0,.45,0,.09,0,.08a.38.38,0,0,0,.12-.13,5,5,0,0,0,.29-.5.46.46,0,0,0,.06-.16.35.35,0,0,0-.15,0S45.9,77,45.87,77Z"/><path class="cls-21" d="M36.81,74.18c-.26,0-.52,0-.76,0a.36.36,0,0,1-.31-.08c-.19-.17-.12-.42.17-.56a1.88,1.88,0,0,1,.64-.16,2.12,2.12,0,0,1,.71.07c.57.15.91.41.73.62a.5.5,0,0,1-.26.08Z"/><path class="cls-21" d="M46.55,74.77h-.66c0-.23.08-.42.26-.43S46.51,74.49,46.55,74.77Z"/><path class="cls-21" d="M51.86,76.08c0,.31.11.61.18.93h-.53C51.62,76.7,51.74,76.39,51.86,76.08Z"/><path class="cls-21" d="M43.65,78.81c.17-.11.2-.08.07.1a2,2,0,0,1-.35.4,1.85,1.85,0,0,0-.63.72l-.17,0a2.05,2.05,0,0,1,.65-.79A1.24,1.24,0,0,0,43.65,78.81Z"/><path class="cls-21" d="M53.36,78.44l-.36,0c0-.13.1-.26.17-.42Z"/><path class="cls-21" d="M50.43,78.28a.22.22,0,0,1-.26.17c-.24,0-.48,0-.73-.07,0,0-.08-.06-.11-.1l0,0a1.19,1.19,0,0,0,.44.14,2.37,2.37,0,0,0,.64-.1Z"/><path class="cls-21" d="M48.87,77l-.3-.07.45-.68C49,76.46,48.93,76.71,48.87,77Z"/></g></g></g></g></g></svg>