<svg xmlns="http://www.w3.org/2000/svg" xmlns:xlink="http://www.w3.org/1999/xlink" viewBox="0 0 169.79 311.44"><defs><style>.cls-1{fill:#cedbed;}.cls-1,.cls-4{stroke:#000;stroke-width:0.5px;}.cls-1,.cls-11,.cls-14,.cls-4,.cls-9{stroke-miterlimit:10;}.cls-2{fill:#0c3069;}.cls-3{fill:#16a3bd;}.cls-4{fill:#cfd8e7;}.cls-5{fill:url(#linear-gradient);}.cls-6{fill:#063359;}.cls-7{fill:#ff6d6d;}.cls-8{fill:url(#linear-gradient-2);}.cls-11,.cls-14,.cls-9{fill:none;}.cls-9{stroke:#082445;}.cls-11,.cls-9{stroke-width:0.89px;}.cls-10{fill:url(#linear-gradient-3);}.cls-11{stroke:#0c3069;}.cls-12{fill:#0f3d85;}.cls-13{fill:url(#linear-gradient-4);}.cls-14{stroke:#fff;stroke-width:2px;}.cls-14,.cls-15{opacity:0.8;}.cls-16{fill:#fff;}</style><linearGradient id="linear-gradient" x1="73.22" y1="100.91" x2="73.22" y2="147.35" gradientUnits="userSpaceOnUse"><stop offset="0.03"/><stop offset="1" stop-color="#0c3069" stop-opacity="0"/></linearGradient><linearGradient id="linear-gradient-2" x1="97.36" y1="67.25" x2="121.95" y2="100.62" gradientUnits="userSpaceOnUse"><stop offset="0" stop-color="#06132d"/><stop offset="1" stop-color="#134578" stop-opacity="0"/></linearGradient><linearGradient id="linear-gradient-3" x1="47.53" y1="66.39" x2="22.34" y2="97.04" xlink:href="#linear-gradient-2"/><linearGradient id="linear-gradient-4" x1="68.86" y1="34.02" x2="80.84" y2="34.02" gradientUnits="userSpaceOnUse"><stop offset="0" stop-color="#f04f4f"/><stop offset="0.15" stop-color="#f04f4f" stop-opacity="0.99"/><stop offset="0.28" stop-color="#f04f4f" stop-opacity="0.94"/><stop offset="0.4" stop-color="#f04f4f" stop-opacity="0.86"/><stop offset="0.53" stop-color="#f04f4f" stop-opacity="0.76"/><stop offset="0.65" stop-color="#f04f4f" stop-opacity="0.62"/><stop offset="0.76" stop-color="#f04f4f" stop-opacity="0.45"/><stop offset="0.88" stop-color="#f04f4f" stop-opacity="0.25"/><stop offset="0.99" stop-color="#f04f4f" stop-opacity="0.02"/><stop offset="1" stop-color="#f04f4f" stop-opacity="0"/></linearGradient></defs><g id="Layer_2" data-name="Layer 2"><g id="man_1" data-name="man 1"><path class="cls-1" d="M62,296.17c1.2,2.58-4.39,7.71-12.48,11.45s-15.62,4.69-16.82,2.11,4.4-7.71,12.49-11.46S60.84,293.59,62,296.17Z"/><path class="cls-1" d="M108.68,294.82c-1.2,2.58,4.39,7.71,12.49,11.45S136.78,311,138,308.38s-4.4-7.71-12.49-11.46S109.87,292.24,108.68,294.82Z"/><path class="cls-2" d="M111.65,279.67,113.24,291s-1.76,5.37,0,7.22,8.63,4.41,8.63,4.41,11.19,5.46,12.95,4.31S125.13,294,125.13,294l-3.79-8.63-.85-5.47Z"/><path class="cls-3" d="M122.66,288.39a5.43,5.43,0,0,0-3.54,5L113.24,291s-1.76,5.37,0,7.22,8.63,4.41,8.63,4.41,11.19,5.46,12.95,4.31S125.13,294,125.13,294Z"/><path class="cls-2" d="M59,279.67V291a9,9,0,0,1,0,7.4c-1.85,3.7-22.86,10.7-23.92,9.77s10-11.23,10-11.23l4.89-8.5.26-8.72Z"/><path class="cls-3" d="M49.22,289.83l-4.07,7.06s-11.1,10.31-10,11.23,22.07-6.07,23.92-9.77a8.28,8.28,0,0,0,.69-5.08l-5.57,1.25A6.77,6.77,0,0,0,49.22,289.83Z"/><path class="cls-4" d="M100.12,122.36l3.43,28.54s4.76,19,5.81,32.24,15.07,98.3,15.07,98.3H108.84s-2.38-5-1.85-9.52-5-8.45-4.23-13.47-5.55-14.54-6.87-23.79-21.67-73.72-21.67-73.72l-9.51,76.89s1.58,13.48,0,19.3-.53,14-3.17,24.31H46.11s-2-60.78-2.28-75.58-.12-65,6-83.5Z"/><path class="cls-5" d="M45.46,149.25c16.65-11,45.33-17.64,55.52-19.75l-.86-7.14H49.78C47.74,128.59,46.37,138.41,45.46,149.25Z"/><path class="cls-6" d="M61.27,39.21s12.53-16.74,29.34,0c0,0,22.06-.35,27.21,16.82L130,90.21l39.81,13.21-1.59,7s-30.3,2.93-43.33,0S103.2,90.56,103.2,90.56l-1.76,27.84s2.46,3.34,1.76,5.28S97.05,126,90.61,126H48.76L39.6,45.81A86.15,86.15,0,0,1,61.27,39.21Z"/><path class="cls-7" d="M41.3,122.37s3.07,1.86,5.22,1,3.72-2.94,7.3-3.44,4.29-.14,4.29.36-4.87.93-6.73,2.29c0,0,8-1.44,8.16.07.07.72-6.72.86-8.3,1.86,0,0,7.73-.64,7.8,0s-6.72,1-7.8,2c0,0,5.58,0,5.22,1.17s-3.43-.36-5.79.79-4.15,1.57-6.65,0a15.89,15.89,0,0,0-4-2Z"/><path class="cls-8" d="M119.22,108.19s-4.69-10.06-7.18-14.7.5-11.3,1.33-17.11-6.54-10.82-6.54-10.82l-3.63,25S109.4,102.7,119.22,108.19Z"/><path class="cls-6" d="M39.6,45.81c5.22-2.27,9.33,28.73,4.07,35.59s-18.73,22.33-18.73,22.33,2.64.79,0,3.17l19.29,15.46-1.79,6.41S21.5,124.08,7.63,116.68,2.48,92.61,5.38,86.74,23.06,64.36,23.06,64.36,28.5,50.66,39.6,45.81Z"/><path class="cls-9" d="M34.49,62.9s.51,6,8.89,16"/><path class="cls-10" d="M36.71,69.11S32.06,80,34.49,82.34c2.14,2.08-4.8,10.38-4,15,4.35-5.06,10.15-11.92,13.19-15.9A6.74,6.74,0,0,0,44.45,80C42.45,77.67,38,72.23,36.71,69.11Z"/><line class="cls-11" x1="123.25" y1="274.28" x2="106.95" y2="274.28"/><line class="cls-11" x1="62.3" y1="274.28" x2="45.99" y2="274.28"/><line class="cls-11" x1="74.11" y1="161.85" x2="74.11" y2="125.97"/><path class="cls-11" d="M79.64,126v14.49c0,7-5.53,9-5.53,9"/><path class="cls-11" d="M90.61,126s-.59,10.65,11.92,16.47"/><path class="cls-11" d="M56.62,125.21s-4.56,18-10.72,19.22"/><path class="cls-11" d="M98.09,201a11.46,11.46,0,0,0,6,3.34"/><path class="cls-11" d="M60.92,201.9s-5.76,4-9.66,5.46"/><path class="cls-12" d="M68.24,24l-6.77-9.55S55.19,9.9,58.81,3.61,74.05.83,79.49,2.4c0,0,11.12.61,11.12,8.22S82,24,82,24Z"/><path class="cls-7" d="M70.52,28.29,68.87,39.35A3,3,0,0,0,70,42.19a9.3,9.3,0,0,0,10.4-.06,3,3,0,0,0,1.17-2.9L79.9,28.29Z"/><path class="cls-13" d="M68.86,39.76c5-.06,9.45-3,12-5.14l-.94-6.33H70.52L68.87,39.35C68.85,39.49,68.87,39.62,68.86,39.76Z"/><path class="cls-7" d="M78.18,6.37a15.49,15.49,0,0,1-11.55,8.08s-.38,18.09,8.08,18.09,10-15.78,10-15.78S77.92,11.37,78.18,6.37Z"/><path class="cls-9" d="M107.78,57.35s-.27,3.31-1.06,9S103,88.4,103,88.4"/><path class="cls-9" d="M111,66.07S109.14,74,104.7,78.23"/><path class="cls-9" d="M44.07,83.91S41.86,65.56,42.28,58.2"/><path class="cls-14" d="M91.57,108.49c-1.72.19-3.42.31-5.13.37l-1.27,0c-9.37-.28-17.37-.28-26.67-.43V104c0-1.43,0-2.88,0-4.32V98.24q.1-4.72,0-9.53c0-1.06-.07-2.13-.13-3.2-1.54-8.89.46-17.89-2.54-25.89,7,0,13,0,20.12.11l3.31.05,3.28.08h5.84a49,49,0,0,1,5.45-.22c-2,16-4,32-2.15,47.58C91.57,108,91.57,108.49,91.57,108.49Z"/><g id="Layer_2-2" data-name="Layer 2" class="cls-15"><g id="Layer_1-2" data-name="Layer 1-2"><path class="cls-16" d="M79,85.6a1.58,1.58,0,0,0,1-.75L80,85l.7,0-.42.62h.16l1,0a.19.19,0,0,1,.21.15.49.49,0,0,0,0,.11c.1.26.17.56.6.4a1.48,1.48,0,0,1-1.06.87,1.16,1.16,0,0,1-.37,0H76a1.43,1.43,0,0,1-1.1-.43,1.55,1.55,0,0,1-.42-1.13c0-.5,0-1,0-1.47s0-1,0-1.43a.89.89,0,0,1,.53-.9.19.19,0,0,0,.07-.11c0-.19.13-.26.34-.27h.48c.26,0,.32,0,.42.28.15,0,.31,0,.46,0a.26.26,0,0,0,.12-.09c.1-.17.2-.34.29-.51a.51.51,0,0,1,.48-.28h2.08a.56.56,0,0,1,.5.3,4.85,4.85,0,0,0,.29.49.16.16,0,0,0,.19.11,1.54,1.54,0,0,1,.81.17,1.41,1.41,0,0,1,.81,1.23c0,.42,0,.85,0,1.29s0,.86,0,1.3c0,0,0,0,0,.08a1.18,1.18,0,0,1-.08-.16l-.6-1.37L81.07,83a.22.22,0,0,0-.24-.15,2.31,2.31,0,0,1-.38,0l.37.88a.61.61,0,0,1,0,.3l-.2-.44q-.24.57-.48,1.11A1.54,1.54,0,0,0,80,83.42c-.15.32-.29.62-.42.92L79,85.6H78.5s0,0,0-.07l-.46-1c-.15-.35-.31-.7-.47-1l0-.07a1.65,1.65,0,0,0-.21,1.06l-.4-.9c-.09.19-.16.35-.23.52a2,2,0,0,1,.44-1.25c-.17,0-.3,0-.43,0s-.17,0-.22.14c-.11.26-.23.52-.35.79l-.37.81c-.12.28-.25.55-.37.83l-.38.84-.06.14h.15c.19,0,.41.05.54,0s.19-.33.27-.51a.22.22,0,0,1,.23-.15h1.09l-.4-.63c.24,0,.44,0,.64,0a.22.22,0,0,1,.21.1,1.37,1.37,0,0,0,.85.49c.08.19.17.37.26.57C78.86,86,79,85.78,79,85.6Zm.48.57a2.1,2.1,0,0,0,.75-.5h-.46s-.09,0-.1,0-.12.31-.19.46a8.24,8.24,0,0,1-.85.11,3.09,3.09,0,0,1-.61-.08l0,0c.06,0,.11.07.17.07h1C79.33,86.34,79.45,86.33,79.52,86.17Zm-2-2.83a1.43,1.43,0,0,1,1.2-.62,1.53,1.53,0,0,1,1.27.67c.14-.17.13-.45.35-.58a2.09,2.09,0,0,0-.77-.57,2.32,2.32,0,0,0-.89-.18,2.25,2.25,0,0,0-.86.19,1.88,1.88,0,0,0-.69.52C77.41,82.87,77.37,83.17,77.54,83.34ZM75.7,81.93a.46.46,0,0,0-.44.45.44.44,0,0,0,.46.42h0a.45.45,0,0,0,.45-.44.46.46,0,0,0-.47-.43Zm1.53,3.71a2,2,0,0,0,.8.52l-.18-.42a.26.26,0,0,0-.13-.1c-.14,0-.29,0-.49,0Z"/><path class="cls-16" d="M70.66,82.92v.59H69.57c0,.5-.07,1-.1,1.48s-.07,1-.1,1.45l-.05,0c-.31,0-.3,0-.32-.28s0-.88-.07-1.32-.05-.87-.08-1.31c-.42,0-.85,0-1.28,0-.24,0-.25.07-.26.31a12.9,12.9,0,0,1,0,1.39,1.31,1.31,0,0,1-1.34,1.23,2,2,0,0,1-.65,0A1.42,1.42,0,0,1,64.22,85V83c.22,0,.44,0,.67,0,0,0,.06.1.06.14l-.06,1.76a1.21,1.21,0,0,0,0,.19.89.89,0,0,0,1.28.8.8.8,0,0,0,.47-.75q0-.69,0-1.38a.59.59,0,0,1,.36-.6,1.74,1.74,0,0,1,.63-.17h3Z"/><path class="cls-16" d="M85.67,86.42a.56.56,0,0,1-.61-.25c-.26-.36-.52-.71-.79-1.06l-.83-1.06v2.34h-.66s0-.22,0-.55v-1.2c0-.44,0-.87,0-1.2v-.54c.16,0,.31,0,.46,0s.11.06.15.1l.76.95.75,1,.12.15V82.93h.65v3.48Z"/><path class="cls-16" d="M70.93,83.35l1,0v1.44h0v-.39l1.54,0V82.87h.66v1.73c0,.44,0,.88,0,1.21v.56h-.65V84.94l-1.58,0a1.52,1.52,0,0,1-.12.92c-.12.3-.27.59-.37.9a1.88,1.88,0,0,1-.1-.19c-.1-.24-.19-.49-.29-.72a1.41,1.41,0,0,1-.13-.64c0-.3,0-.6,0-.9v-.9S70.93,83.4,70.93,83.35Zm.49,2.2s0-.06-.08-.06l-.28,0a.63.63,0,0,0,0,.19,5,5,0,0,0,.2.49.19.19,0,0,0,.13.1.2.2,0,0,0,.13-.11,4.4,4.4,0,0,0,.21-.5.45.45,0,0,0,0-.17,1.26,1.26,0,0,0-.28,0S71.46,85.52,71.42,85.55Z"/><path class="cls-16" d="M64.59,82.69h-.42a.17.17,0,0,1-.18-.12.62.62,0,0,1,.14-.71.66.66,0,0,1,.81-.09.62.62,0,0,1,.25.81.21.21,0,0,1-.14.1c-.15,0-.31,0-.46,0Z"/><path class="cls-16" d="M71.93,83l-1,0a.47.47,0,0,1,.45-.48A.48.48,0,0,1,71.93,83Z"/><path class="cls-16" d="M80.92,84.2l.37.86h-.55Z"/><path class="cls-16" d="M69.1,86.63c.16,0,.22,0,.17.14a.6.6,0,0,1-.19.27c-.2.11-.35.24-.28.51h-.17a.5.5,0,0,1,.25-.61C69,86.87,69.13,86.82,69.1,86.63Z"/><path class="cls-16" d="M82.56,86.38h-.29l.11-.41C82.45,86.11,82.5,86.24,82.56,86.38Z"/><path class="cls-16" d="M79.52,86.17c-.07.16-.19.17-.34.16h-1c-.06,0-.11,0-.17-.07l0,0a3.09,3.09,0,0,0,.6.08,8.08,8.08,0,0,0,.86-.11Z"/><path class="cls-16" d="M76.78,85h-.54l.36-.82Z"/></g></g></g></g></svg>