<svg xmlns="http://www.w3.org/2000/svg" xmlns:xlink="http://www.w3.org/1999/xlink" viewBox="0 0 112.61 242.13"><defs><style>.cls-1,.cls-12,.cls-2,.cls-9{fill:none;stroke-miterlimit:10;}.cls-1,.cls-2{stroke:#1656bd;}.cls-1{stroke-width:3.17px;}.cls-2{stroke-width:3.34px;}.cls-3{fill:#0c3069;}.cls-4{fill:#cedbed;}.cls-5{fill:#ff6d6d;}.cls-6{fill:#0f3d85;}.cls-7{fill:url(#linear-gradient);}.cls-8{fill:#063359;}.cls-9{stroke:#082445;stroke-width:0.89px;}.cls-10{fill:url(#linear-gradient-2);}.cls-11{fill:url(#linear-gradient-3);}.cls-12{stroke:#fff;stroke-width:2px;}.cls-12,.cls-16{opacity:0.8;}.cls-13{fill:url(#linear-gradient-4);}.cls-14{fill:#f04f4f;}.cls-15{fill:url(#linear-gradient-5);}.cls-17{fill:#fff;}</style><linearGradient id="linear-gradient" x1="70.44" y1="139.44" x2="64.1" y2="198.1" gradientUnits="userSpaceOnUse"><stop offset="0" stop-color="#0c3069"/><stop offset="1" stop-color="#0c3069" stop-opacity="0"/></linearGradient><linearGradient id="linear-gradient-2" x1="38.75" y1="77.89" x2="21.58" y2="58.27" gradientUnits="userSpaceOnUse"><stop offset="0" stop-color="#80371d" stop-opacity="0.89"/><stop offset="0.07" stop-color="#80371d"/><stop offset="1" stop-color="#80371d" stop-opacity="0"/></linearGradient><linearGradient id="linear-gradient-3" x1="39.34" y1="89.43" x2="20.58" y2="70.27" gradientUnits="userSpaceOnUse"><stop offset="0" stop-color="#06132d"/><stop offset="1" stop-color="#134578" stop-opacity="0"/></linearGradient><linearGradient id="linear-gradient-4" x1="82.85" y1="93.05" x2="74.57" y2="55.53" xlink:href="#linear-gradient-3"/><linearGradient id="linear-gradient-5" x1="62.38" y1="20.25" x2="60.34" y2="36.43" gradientUnits="userSpaceOnUse"><stop offset="0" stop-color="#f04f4f"/><stop offset="0.15" stop-color="#f04f4f" stop-opacity="0.99"/><stop offset="0.28" stop-color="#f04f4f" stop-opacity="0.94"/><stop offset="0.4" stop-color="#f04f4f" stop-opacity="0.86"/><stop offset="0.53" stop-color="#f04f4f" stop-opacity="0.76"/><stop offset="0.65" stop-color="#f04f4f" stop-opacity="0.62"/><stop offset="0.76" stop-color="#f04f4f" stop-opacity="0.45"/><stop offset="0.88" stop-color="#f04f4f" stop-opacity="0.25"/><stop offset="0.99" stop-color="#f04f4f" stop-opacity="0.02"/><stop offset="1" stop-color="#f04f4f" stop-opacity="0"/></linearGradient></defs><g id="Layer_2" data-name="Layer 2"><g id="man_2" data-name="man 2"><line class="cls-1" x1="54.65" y1="129.43" x2="45.19" y2="227.5"/><line class="cls-1" x1="85.01" y1="129.43" x2="94.47" y2="227.5"/><line class="cls-1" x1="52.3" y1="153.88" x2="87.52" y2="153.88"/><line class="cls-2" x1="50.36" y1="175.51" x2="89.45" y2="175.51"/><rect class="cls-3" x="45.19" y="121.59" width="49.27" height="10.66" rx="3.4"/><path class="cls-4" d="M76.56,236.11c0,3.32-5,6-11.07,6s-11.07-2.7-11.07-6,4.95-6,11.07-6S76.56,232.78,76.56,236.11Z"/><path class="cls-5" d="M60.9,215.34l-.29,10.25s-3,7.61-1.49,7.78,3.9.26,2.88,2-2.19,4,4,4.45,7.27-1.57,6.49-4c-.62-1.94-4.06-7.53-5.36-9.61a2.82,2.82,0,0,1-.43-1.72l.85-11.63Z"/><path class="cls-3" d="M59.12,233.37c1.52.17,3.9.26,2.88,2s-2.19,4,4,4.45,7.27-1.57,6.49-4c-.53-1.66-3.12-6-4.68-8.5-1.89.44-4.49,1.3-5.45,2.83-.84,1.34-2,.15-2.9-1.25C58.81,231,58.29,233.27,59.12,233.37Z"/><path class="cls-6" d="M56.44,139.55,58,217.39H73.88s3.17-4.38,2.82-14.25,3.53-11.62,3.88-20.08,4-46.51,4-46.51Z"/><path class="cls-7" d="M83.82,145s-3.24,6.34-8.17,7.05-5.64,6.51-10.4,12-2.81,10.57-8,14.62l-.8-39.1,28.19-3Z"/><path class="cls-5" d="M85.86,134.17l11.92-1a3.86,3.86,0,0,1,2.94,1,15.55,15.55,0,0,1,4.08,6.2c1.94,5.29,2,8.19,4,8.46s-1-25.55-1-25.55l-24.23-1.94Z"/><path class="cls-3" d="M103.25,122.89l1.29,10.1-2.78,2.2a15.92,15.92,0,0,1,3,5.15c1.94,5.29,2,8.19,4,8.46s-1-25.55-1-25.55Z"/><path class="cls-8" d="M67.31,31.8c-21.13,3-31.38,9.51-33.55,11h0l-.44.32h0C17.31,54.94,6,92.72,7,97.8c1.76,9.07,12.42,6.69,14.88,2.82,1.94-3.05,12.44-18.12,16.87-24.47,1.73,13.42,3,25.39,3,25.39H94.49L97.4,43.41C88.29,32.18,67.31,31.8,67.31,31.8Z"/><line class="cls-9" x1="38.78" y1="76.15" x2="35.18" y2="51.3"/><path class="cls-9" d="M30.89,58.66s0,8.87,7.31,13.47"/><path class="cls-5" d="M21.89,66.16l1.47-30.54a10.59,10.59,0,0,0,1.77-3.71c.5-2.11,4.29-3.91,3.76-5.26s-3.27,1.89-4.05,1.59-.61-.89-.88-4.94.05-7.93-.74-7.9-1.31,9.32-1.31,9.32S21.18,13.78,19.85,14s-.5,10.27-.5,10.27-2-9-3-9,.53,9.55.53,9.55-3.49-6-4.09-5.69,3.15,7.23,3.15,7.23-1.15,6,1.49,8.94L11,65.64Z"/><polygon class="cls-10" points="39.05 78.24 39.05 78.24 39.05 78.23 39.05 78.24"/><path class="cls-11" d="M38.76,76.19l-3-20.85s-5.07,3.77-4.88,12.59-6.68,7.5-7.08,12.92-5.24,9.37-5.24,9.37l2.7,11.19a5,5,0,0,0,.64-.79C23.85,97.58,34.31,82.56,38.76,76.19Z"/><path class="cls-12" d="M77.42,99a7.78,7.78,0,0,1-4.68,1c-.56,0-1.13-.08-1.68-.15-7.29-.09-14.29-.09-21.29,1.91a30.82,30.82,0,0,1-.84-3.07c-1.16-5.26-1.15-11.08-1.09-16.83,0-.6-.09-1.19-.14-1.78-.59-7.09-1.26-14-1.93-21.32,1,0,2,0,3.43,0l1.65-.09c4.94-.31,9.77-.76,14.84-.89.83-.06,1.65-.11,2.47-.18,1.58-.2,3.18-.36,4.79-.51l2.42-.21c.4,8.93.4,18.93,1.19,28.15,0,.55,0,1.1-.08,1.65-.23,3.88-.6,7.83.94,11.61A5.33,5.33,0,0,0,77.42,99Z"/><path class="cls-13" d="M62.39,101.54h32.1l2.32-46.39L84,52.13c-5.68,4.36-7.27,9.57-7.13,13.21s-6,6.87-6.68,12C69.61,81.43,64.51,95.7,62.39,101.54Z"/><path class="cls-14" d="M76,91.43,53.27,97.77s-9.05,0-10.17,3.77H77.91Z"/><path class="cls-6" d="M.61,139.81C-2.67,127.48,7,116.12,37,116.12c36.42,0,50.82,2.11,50.82,2.11v19.38S5.36,157.69.61,139.81Z"/><path class="cls-5" d="M66.32,21.49l3.37,10.8a3.14,3.14,0,0,1-.91,3.27c-2.88,2.56-9,7.7-10.59,6.3C56.15,40,56,27.79,56,27.79Z"/><path class="cls-15" d="M67.31,24.67l-1-3.18L56,27.79a81,81,0,0,0,.73,9.43C62.18,34.84,65.74,28.21,67.31,24.67Z"/><path class="cls-5" d="M49.35,18.4S50.57,29.8,53.15,31s11.7-5.23,13.6-9c0,0,4.93-3,2.47-7.07L58.09,5.41l-9.8,3.27Z"/><path class="cls-3" d="M54.86,9.36s2.9-2,4.31,1.06,1.77,6.08,6.87,6c0,0,.53-2.29,3.18-1.5a61.91,61.91,0,0,0,1-7.22c.27-3.52-5.81-13-16.12-3.7,0,0-5.72-2.12-8.1,3.35s-.53,11.53-.53,11.53,2.64,1.85,7.66,0C53.18,18.87,49.13,7.6,54.86,9.36Z"/><path class="cls-8" d="M23.81,62.51,22.37,99.92H7.68S2.8,98.11,3.46,86.08,9.14,61.77,9.14,61.77Z"/><path class="cls-8" d="M97.4,43.41c4.76,6,12.93,27.45,15.15,48a9,9,0,0,1-9,10H74.15s-2.38-7.14-1.19-12L85.25,87S84.32,84.1,87,83.84c0,0-1.32-6.49-4.62-18.44S92.25,36.93,97.4,43.41Z"/><path class="cls-9" d="M85.91,48.64S79.69,54.71,83,67.93"/><g id="Layer_2-2" data-name="Layer 2" class="cls-16"><g id="Layer_1-2" data-name="Layer 1-2"><path class="cls-17" d="M67.13,80.64a1.8,1.8,0,0,0,1-.89,1.45,1.45,0,0,0-.06.19l.71-.07-.39.67.16,0,1-.07a.18.18,0,0,1,.22.13.37.37,0,0,0,.05.11c.12.26.2.58.62.39a1.55,1.55,0,0,1-1,1,1.15,1.15,0,0,1-.37.06l-1.2.11-1.2.13-1.21.14-1.21.11a1.53,1.53,0,0,1-1.13-.36,1.56,1.56,0,0,1-.48-1.09l-.06-1.44c0-.48,0-1-.07-1.45a.94.94,0,0,1,.49-.94.14.14,0,0,0,.07-.11c0-.19.12-.28.32-.29l.49,0c.26,0,.31,0,.43.27l.45,0s.09,0,.11-.09.2-.36.28-.54a.52.52,0,0,1,.47-.31l1-.08,1-.07a.52.52,0,0,1,.51.24c.09.15.21.29.31.44a.17.17,0,0,0,.19.09,1.53,1.53,0,0,1,.82.09A1.26,1.26,0,0,1,70.36,78c0,.39,0,.79.07,1.21s0,.85.06,1.3a.25.25,0,0,1,0,.08l-.09-.16c-.22-.46-.45-.9-.67-1.32l-.67-1.22a.22.22,0,0,0-.25-.12l-.38,0c.13.26.28.52.4.78a.55.55,0,0,1,0,.28l-.22-.39c-.15.38-.3.74-.44,1.12a1.38,1.38,0,0,0-.2-1.2l-.38.94c-.16.42-.32.86-.48,1.31l-.55.08a.35.35,0,0,0,0-.06l-.52-1-.52-1-.05-.06a1.65,1.65,0,0,0-.16,1.06c-.15-.27-.29-.54-.44-.84-.08.2-.15.37-.21.54a2,2,0,0,1,.39-1.28l-.43,0a.2.2,0,0,0-.21.15c-.11.27-.22.55-.32.82l-.33.84c-.11.27-.21.55-.32.83l-.33.84s0,.09-.05.14h.15c.18,0,.41,0,.54-.06s.17-.34.23-.52a.23.23,0,0,1,.22-.17c.36,0,.72-.08,1.09-.13l-.44-.57a5.48,5.48,0,0,0,.64-.09.2.2,0,0,1,.21.07,1.28,1.28,0,0,0,.88.37c.1.17.19.35.29.54C67,81,67.06,80.84,67.13,80.64Zm.52.51a2.5,2.5,0,0,0,.72-.6l-.47,0s-.08,0-.08.06-.11.33-.17.5c-.28.07-.56.17-.85.22a3.11,3.11,0,0,1-.61,0l0,.05a.41.41,0,0,0,.18,0l1-.12C67.47,81.35,67.59,81.32,67.65,81.15Zm-2.14-2.52a1.65,1.65,0,0,1,1.18-.75,1.45,1.45,0,0,1,1.3.49c.14-.19.12-.44.33-.59a2.08,2.08,0,0,0-.79-.45,2.48,2.48,0,0,0-.9-.07,2.42,2.42,0,0,0-.86.28,1.94,1.94,0,0,0-.66.58C65.37,78.19,65.34,78.49,65.51,78.63Zm-1.87-1.24a.45.45,0,0,0-.42.47.43.43,0,0,0,.47.41h0a.47.47,0,0,0,.43-.47.45.45,0,0,0-.48-.41Zm1.69,3.54a1.84,1.84,0,0,0,.82.42c-.07-.15-.13-.28-.2-.4a.18.18,0,0,0-.13-.08l-.49.06Z"/><path class="cls-17" d="M58.64,78.62v.61l-1.11.12c0,.53-.06,1-.08,1.53s0,1,0,1.44l0,0c-.32.05-.32.05-.35-.24s-.1-.85-.14-1.29-.08-.9-.11-1.36c-.43,0-.87.06-1.31.12-.24,0-.26.1-.26.35,0,.49,0,1,0,1.44a1.33,1.33,0,0,1-.38.88,1.42,1.42,0,0,1-.89.37,2.41,2.41,0,0,1-.65-.05,1.41,1.41,0,0,1-.79-.49,1.62,1.62,0,0,1-.32-.93q0-.51,0-1.05V79c.21,0,.43,0,.64,0,0,0,.07.1.07.15,0,.32,0,.64,0,.94s0,.62,0,.92c0,.06,0,.13,0,.19a1,1,0,0,0,.45.74.88.88,0,0,0,.85,0,.76.76,0,0,0,.43-.75q0-.7,0-1.44a.69.69,0,0,1,.36-.67,1.77,1.77,0,0,1,.64-.23L57,78.76l1.51-.14Z"/><path class="cls-17" d="M73.83,81.15a.57.57,0,0,1-.62-.27c-.28-.37-.56-.73-.85-1.09s-.58-.7-.88-1c0,0,0,.55.06,1.14s0,1.2,0,1.2h-.65s0-.23,0-.57,0-.79-.06-1.21,0-.83-.06-1.13,0-.49,0-.49h.46a.27.27,0,0,1,.15.09c.27.29.54.58.81.89l.8.94.13.15s0-.53-.05-1l-.06-1h.65l0,.52c0,.3,0,.72.06,1.15s0,.86.06,1.2S73.83,81.15,73.83,81.15Z"/><path class="cls-17" d="M58.92,79.05l1-.1L60,80.42h0V80l1.55-.13-.07-1.48.65,0,0,.55.05,1.19,0,1.19,0,.54-.64,0-.07-1.39-1.6.14a1.45,1.45,0,0,1-.08.92c-.1.29-.24.58-.33.9l-.11-.18c-.11-.22-.22-.45-.34-.66A1.22,1.22,0,0,1,59,81l0-.91c0-.31,0-.62,0-.93A.41.41,0,0,1,58.92,79.05Zm.57,2.18s-.05,0-.08,0l-.28,0a.36.36,0,0,0,0,.18,4,4,0,0,0,.23.46s.1.09.14.08a.19.19,0,0,0,.14-.11,5.17,5.17,0,0,0,.18-.51.35.35,0,0,0,0-.16.88.88,0,0,0-.28,0S59.53,81.21,59.49,81.23Z"/><path class="cls-17" d="M52.51,78.73H52.1a.16.16,0,0,1-.17-.13.7.7,0,0,1,.14-.76.6.6,0,0,1,.8-.11.73.73,0,0,1,.24.88.26.26,0,0,1-.14.1,3.53,3.53,0,0,1-.46,0Z"/><path class="cls-17" d="M59.93,78.62l-1,.09a.52.52,0,0,1,.45-.54A.48.48,0,0,1,59.93,78.62Z"/><path class="cls-17" d="M69,79l.41.8-.55,0C68.85,79.58,68.9,79.3,69,79Z"/><path class="cls-17" d="M57.16,82.52c.16,0,.23,0,.18.12a.52.52,0,0,1-.17.26c-.2.13-.34.26-.24.51l-.18,0a.46.46,0,0,1,.2-.59C57.07,82.76,57.21,82.69,57.16,82.52Z"/><path class="cls-17" d="M70.72,81.1h-.3c0-.14.06-.27.09-.43Z"/><path class="cls-17" d="M67.65,81.15c-.06.17-.18.2-.33.21l-1,.12a.41.41,0,0,1-.18,0l0-.05a3.11,3.11,0,0,0,.61,0c.29,0,.57-.15.85-.22Z"/><path class="cls-17" d="M64.84,80.36l-.53.06.31-.84C64.7,79.84,64.77,80.1,64.84,80.36Z"/></g></g></g></g></svg>