<?xml version="1.0" encoding="iso-8859-1"?>
<!-- Generator: Adobe Illustrator 25.3.1, SVG Export Plug-In . SVG Version: 6.00 Build 0)  -->
<svg version="1.1" xmlns="http://www.w3.org/2000/svg" xmlns:xlink="http://www.w3.org/1999/xlink" x="0px" y="0px"
	 viewBox="0 0 750 500" style="enable-background:new 0 0 750 500;" xml:space="preserve">
<g id="bg_x5F_gears_x5F_group">
	<g>
		<path style="fill:#EBEBEB;" d="M646.806,282.75l5.435-8.763l-2.684-1.662c-0.789-0.489-1.217-1.381-1.138-2.306
			c0.044-0.511,0.06-1.026,0.049-1.542c-0.02-0.926,0.463-1.787,1.279-2.225l2.782-1.492l-4.875-9.09l-2.781,1.492
			c-0.816,0.438-1.801,0.364-2.561-0.165c-0.423-0.295-0.861-0.566-1.311-0.812c-0.814-0.446-1.321-1.296-1.292-2.224l0.1-3.156
			l-10.307-0.32l-0.095,3.167c-0.028,0.929-0.597,1.737-1.437,2.133c-0.228,0.108-0.454,0.222-0.678,0.342
			c-0.224,0.12-0.444,0.245-0.66,0.376c-0.791,0.478-1.774,0.506-2.56,0.019l-2.703-1.674l-5.435,8.763l2.689,1.669
			c0.789,0.49,1.216,1.383,1.136,2.308c-0.044,0.509-0.061,1.022-0.05,1.535c0.019,0.925-0.464,1.785-1.279,2.222l-2.783,1.492
			l4.875,9.09l2.783-1.492c0.815-0.437,1.799-0.364,2.559,0.164c0.422,0.293,0.858,0.562,1.307,0.807
			c0.815,0.445,1.323,1.295,1.294,2.223l-0.097,3.163l10.307,0.32l0.098-3.164c0.029-0.926,0.596-1.73,1.433-2.126
			c0.229-0.108,0.457-0.223,0.683-0.344c0.224-0.12,0.444-0.245,0.66-0.376c0.795-0.481,1.783-0.508,2.573-0.018L646.806,282.75z
			 M638.08,276.242c-4.111,2.204-9.226,0.661-11.43-3.45c-2.205-4.111-0.665-9.233,3.446-11.438
			c4.111-2.205,9.237-0.657,11.441,3.453C643.742,268.919,642.19,274.038,638.08,276.242z"/>
		<path style="fill:#EBEBEB;" d="M128.631,205.634l5.435-8.763l-2.684-1.662c-0.789-0.489-1.217-1.381-1.138-2.306
			c0.044-0.511,0.06-1.026,0.049-1.541c-0.02-0.926,0.463-1.787,1.279-2.225l2.782-1.492l-4.875-9.09l-2.781,1.492
			c-0.816,0.438-1.801,0.364-2.561-0.165c-0.423-0.295-0.861-0.566-1.311-0.812c-0.814-0.446-1.321-1.296-1.292-2.224l0.1-3.156
			l-10.307-0.32l-0.096,3.167c-0.028,0.929-0.597,1.737-1.437,2.133c-0.228,0.108-0.454,0.222-0.678,0.342
			c-0.224,0.12-0.444,0.245-0.66,0.376c-0.791,0.478-1.774,0.506-2.56,0.019l-2.703-1.674l-5.435,8.763l2.689,1.669
			c0.789,0.49,1.216,1.383,1.136,2.308c-0.044,0.509-0.061,1.022-0.05,1.535c0.019,0.925-0.464,1.785-1.279,2.222l-2.783,1.492
			l4.875,9.09l2.783-1.492c0.815-0.437,1.799-0.364,2.559,0.164c0.422,0.293,0.858,0.562,1.307,0.807
			c0.815,0.445,1.323,1.295,1.294,2.223l-0.097,3.163l10.306,0.32l0.098-3.164c0.029-0.925,0.596-1.73,1.433-2.126
			c0.229-0.108,0.457-0.223,0.683-0.344c0.224-0.12,0.444-0.245,0.66-0.376c0.795-0.48,1.783-0.508,2.573-0.018L128.631,205.634z
			 M119.904,199.126c-4.111,2.205-9.226,0.661-11.43-3.45c-2.205-4.111-0.665-9.233,3.446-11.438
			c4.111-2.205,9.237-0.657,11.441,3.453C125.566,191.802,124.015,196.921,119.904,199.126z"/>
		<path style="fill:#EBEBEB;" d="M625.247,221.494l-3.61-6.257l-1.915,1.106c-0.563,0.326-1.256,0.294-1.801-0.061
			c-0.301-0.196-0.613-0.377-0.935-0.541c-0.578-0.294-0.95-0.878-0.95-1.526v-2.211h-7.226v2.211c0,0.649-0.372,1.233-0.95,1.526
			c-0.322,0.164-0.634,0.344-0.936,0.541c-0.545,0.355-1.237,0.387-1.801,0.061l-1.915-1.106l-3.61,6.257l1.924,1.107
			c0.564,0.325,0.874,0.944,0.841,1.594c-0.009,0.176-0.013,0.354-0.013,0.532c0,0.178,0.005,0.355,0.013,0.532
			c0.033,0.647-0.275,1.263-0.836,1.587l-1.929,1.114l3.61,6.257l1.92-1.107c0.563-0.325,1.256-0.293,1.801,0.063
			c0.3,0.196,0.611,0.376,0.931,0.54c0.577,0.294,0.948,0.878,0.948,1.526v2.212h7.226v-2.212c0-0.648,0.371-1.231,0.948-1.526
			c0.321-0.163,0.631-0.344,0.931-0.54c0.545-0.356,1.238-0.388,1.801-0.063l1.92,1.107l3.61-6.257l-1.921-1.108
			c-0.562-0.324-0.871-0.941-0.838-1.589c0.009-0.177,0.013-0.356,0.013-0.536c0-0.178-0.004-0.355-0.013-0.532
			c-0.033-0.65,0.277-1.269,0.841-1.595L625.247,221.494z M618.34,224.727c0,3.268-2.647,5.914-5.915,5.914
			c-3.268,0-5.92-2.647-5.92-5.914s2.653-5.92,5.92-5.92C615.693,218.807,618.34,221.459,618.34,224.727z"/>
	</g>
</g>
<g id="Layer_1">
</g>
</svg>
