<?xml version="1.0" encoding="iso-8859-1"?>
<!-- Generator: Adobe Illustrator 25.3.1, SVG Export Plug-In . SVG Version: 6.00 Build 0)  -->
<svg version="1.1" xmlns="http://www.w3.org/2000/svg" xmlns:xlink="http://www.w3.org/1999/xlink" x="0px" y="0px"
	 viewBox="0 0 750 500" style="enable-background:new 0 0 750 500;" xml:space="preserve">
<g id="bg_x5F_square_x5F_pattern_x5F_2">
	<g>
		<g>
			<polygon style="fill:#EBEBEB;" points="628.56,149.31 627.24,149.31 627.24,148.43 627.68,148.43 627.68,147.99 628.56,147.99 
							"/>
			<path style="fill:#EBEBEB;" d="M625.481,149.31h-1.759v-0.88h1.759V149.31z M621.962,149.31h-1.759v-0.88h1.759V149.31z
				 M618.445,149.31h-1.76v-0.88h1.76V149.31z M614.926,149.31h-1.76v-0.88h1.76V149.31z M611.408,149.31h-1.759v-0.88h1.759V149.31
				z M607.889,149.31h-1.759v-0.88h1.759V149.31z M604.372,149.31h-1.76v-0.88h1.76V149.31z M600.854,149.31h-1.76v-0.88h1.76
				V149.31z M597.335,149.31h-1.759v-0.88h1.759V149.31z M593.817,149.31h-1.759v-0.88h1.759V149.31z M590.299,149.31h-1.76v-0.88
				h1.76V149.31z M586.781,149.31h-1.759v-0.88h1.759V149.31z M583.262,149.31h-1.759v-0.88h1.759V149.31z M579.744,149.31h-1.759
				v-0.88h1.759V149.31z M576.226,149.31h-1.76v-0.88h1.76V149.31z M572.708,149.31h-1.759v-0.88h1.759V149.31z M569.19,149.31
				h-1.759v-0.88h1.759V149.31z"/>
			<polygon style="fill:#EBEBEB;" points="565.671,149.31 564.351,149.31 564.351,147.99 565.231,147.99 565.231,148.43 
				565.671,148.43 			"/>
			<path style="fill:#EBEBEB;" d="M565.231,146.23h-0.88v-1.759h0.88V146.23z M565.231,142.712h-0.88v-1.759h0.88V142.712z
				 M565.231,139.194h-0.88v-1.759h0.88V139.194z M565.231,135.676h-0.88v-1.759h0.88V135.676z M565.231,132.158h-0.88v-1.759h0.88
				V132.158z M565.231,128.64h-0.88v-1.759h0.88V128.64z M565.231,125.121h-0.88v-1.759h0.88V125.121z M565.231,121.603h-0.88
				v-1.759h0.88V121.603z M565.231,118.085h-0.88v-1.759h0.88V118.085z M565.231,114.567h-0.88v-1.759h0.88V114.567z
				 M565.231,111.048h-0.88v-1.759h0.88V111.048z M565.231,107.531h-0.88v-1.759h0.88V107.531z M565.231,104.012h-0.88v-1.759h0.88
				V104.012z M565.231,100.494h-0.88v-1.759h0.88V100.494z M565.231,96.976h-0.88v-1.759h0.88V96.976z M565.231,93.458h-0.88v-1.759
				h0.88V93.458z M565.231,89.939h-0.88V88.18h0.88V89.939z"/>
			<polygon style="fill:#EBEBEB;" points="565.231,86.421 564.351,86.421 564.351,85.101 565.671,85.101 565.671,85.981 
				565.231,85.981 			"/>
			<path style="fill:#EBEBEB;" d="M625.481,85.981h-1.759v-0.88h1.759V85.981z M621.962,85.981h-1.759v-0.88h1.759V85.981z
				 M618.445,85.981h-1.76v-0.88h1.76V85.981z M614.926,85.981h-1.759v-0.88h1.759V85.981z M611.408,85.981h-1.759v-0.88h1.759
				V85.981z M607.889,85.981h-1.759v-0.88h1.759V85.981z M604.372,85.981h-1.76v-0.88h1.76V85.981z M600.854,85.981h-1.759v-0.88
				h1.759V85.981z M597.335,85.981h-1.759v-0.88h1.759V85.981z M593.818,85.981h-1.76v-0.88h1.76V85.981z M590.299,85.981h-1.76
				v-0.88h1.76V85.981z M586.781,85.981h-1.759v-0.88h1.759V85.981z M583.262,85.981h-1.759v-0.88h1.759V85.981z M579.745,85.981
				h-1.76v-0.88h1.76V85.981z M576.226,85.981h-1.76v-0.88h1.76V85.981z M572.708,85.981h-1.759v-0.88h1.759V85.981z M569.19,85.981
				h-1.759v-0.88h1.759V85.981z"/>
			<polygon style="fill:#EBEBEB;" points="628.56,86.421 627.68,86.421 627.68,85.981 627.24,85.981 627.24,85.101 628.56,85.101 
							"/>
			<path style="fill:#EBEBEB;" d="M628.56,146.231h-0.88v-1.759h0.88V146.231z M628.56,142.712h-0.88v-1.759h0.88V142.712z
				 M628.56,139.194h-0.88v-1.759h0.88V139.194z M628.56,135.676h-0.88v-1.759h0.88V135.676z M628.56,132.158h-0.88v-1.759h0.88
				V132.158z M628.56,128.64h-0.88v-1.759h0.88V128.64z M628.56,125.122h-0.88v-1.759h0.88V125.122z M628.56,121.603h-0.88v-1.759
				h0.88V121.603z M628.56,118.085h-0.88v-1.759h0.88V118.085z M628.56,114.567h-0.88v-1.759h0.88V114.567z M628.56,111.049h-0.88
				v-1.759h0.88V111.049z M628.56,107.531h-0.88v-1.759h0.88V107.531z M628.56,104.012h-0.88v-1.759h0.88V104.012z M628.56,100.494
				h-0.88v-1.759h0.88V100.494z M628.56,96.976h-0.88v-1.759h0.88V96.976z M628.56,93.458h-0.88v-1.759h0.88V93.458z M628.56,89.94
				h-0.88V88.18h0.88V89.94z"/>
		</g>
		<g>
			<rect x="560.845" y="144.924" style="fill:#FFFFFF;" width="7.892" height="7.892"/>
			<path style="fill:#EBEBEB;" d="M569.177,153.256h-8.772v-8.772h8.772V153.256z M561.285,152.375h7.012v-7.011h-7.012V152.375z"/>
		</g>
		<g>
			<rect x="560.879" y="113.26" style="fill:#FFFFFF;" width="7.892" height="7.892"/>
			<path style="fill:#EBEBEB;" d="M569.177,121.592h-8.772v-8.772h8.772V121.592z M561.285,120.711h7.012V113.7h-7.012V120.711z"/>
		</g>
		<g>
			<rect x="560.879" y="81.595" style="fill:#FFFFFF;" width="7.892" height="7.892"/>
			<path style="fill:#EBEBEB;" d="M569.177,89.927h-8.772v-8.772h8.772V89.927z M561.285,89.047h7.012v-7.011h-7.012V89.047z"/>
		</g>
		<g>
			<rect x="624.208" y="144.924" style="fill:#FFFFFF;" width="7.892" height="7.892"/>
			<path style="fill:#EBEBEB;" d="M632.506,153.256h-8.772v-8.772h8.772V153.256z M624.614,152.375h7.012v-7.011h-7.012V152.375z"/>
		</g>
		<g>
			<rect x="624.208" y="113.26" style="fill:#FFFFFF;" width="7.892" height="7.892"/>
			<path style="fill:#EBEBEB;" d="M632.506,121.592h-8.772v-8.772h8.772V121.592z M624.614,120.711h7.012V113.7h-7.012V120.711z"/>
		</g>
		<g>
			<rect x="624.208" y="81.595" style="fill:#FFFFFF;" width="7.892" height="7.892"/>
			<path style="fill:#EBEBEB;" d="M632.506,89.927h-8.772v-8.772h8.772V89.927z M624.614,89.047h7.012v-7.011h-7.012V89.047z"/>
		</g>
		<g>
			<rect x="592.543" y="81.595" style="fill:#FFFFFF;" width="7.892" height="7.892"/>
			<path style="fill:#EBEBEB;" d="M600.841,89.927h-8.772v-8.772h8.772V89.927z M592.95,89.047h7.011v-7.011h-7.011V89.047z"/>
		</g>
		<g>
			<rect x="592.51" y="144.924" style="fill:#FFFFFF;" width="7.892" height="7.892"/>
			<path style="fill:#EBEBEB;" d="M600.841,153.256h-8.772v-8.772h8.772V153.256z M592.95,152.375h7.011v-7.011h-7.011V152.375z"/>
		</g>
	</g>
</g>
<g id="Layer_1">
</g>
</svg>
