<?xml version="1.0" encoding="iso-8859-1"?>
<!-- Generator: Adobe Illustrator 25.3.1, SVG Export Plug-In . SVG Version: 6.00 Build 0)  -->
<svg version="1.1" xmlns="http://www.w3.org/2000/svg" xmlns:xlink="http://www.w3.org/1999/xlink" x="0px" y="0px"
	 viewBox="0 0 750 500" style="enable-background:new 0 0 750 500;" xml:space="preserve">
<g id="bg_x5F_square_x5F_pattern_x5F_1">
	<g>
		<g>
			<polygon style="fill:#EBEBEB;" points="234.387,293.129 233.067,293.129 233.067,292.249 233.507,292.249 233.507,291.809 
				234.387,291.809 			"/>
			<path style="fill:#EBEBEB;" d="M231.308,293.129h-1.759v-0.88h1.759V293.129z M227.789,293.129h-1.759v-0.88h1.759V293.129z
				 M224.272,293.129h-1.76v-0.88h1.76V293.129z M220.754,293.129h-1.76v-0.88h1.76V293.129z M217.235,293.129h-1.759v-0.88h1.759
				V293.129z M213.717,293.129h-1.759v-0.88h1.759V293.129z M210.199,293.129h-1.76v-0.88h1.76V293.129z M206.681,293.129h-1.76
				v-0.88h1.76V293.129z M203.162,293.129h-1.759v-0.88h1.759V293.129z M199.644,293.129h-1.759v-0.88h1.759V293.129z
				 M196.126,293.129h-1.76v-0.88h1.76V293.129z M192.608,293.129h-1.759v-0.88h1.759V293.129z M189.089,293.129h-1.759v-0.88h1.759
				V293.129z M185.571,293.129h-1.759v-0.88h1.759V293.129z M182.053,293.129h-1.76v-0.88h1.76V293.129z M178.535,293.129h-1.759
				v-0.88h1.759V293.129z M175.017,293.129h-1.759v-0.88h1.759V293.129z"/>
			<polygon style="fill:#EBEBEB;" points="171.498,293.129 170.178,293.129 170.178,291.809 171.058,291.809 171.058,292.249 
				171.498,292.249 			"/>
			<path style="fill:#EBEBEB;" d="M171.058,290.049h-0.88v-1.759h0.88V290.049z M171.058,286.532h-0.88v-1.759h0.88V286.532z
				 M171.058,283.013h-0.88v-1.759h0.88V283.013z M171.058,279.495h-0.88v-1.759h0.88V279.495z M171.058,275.977h-0.88v-1.759h0.88
				V275.977z M171.058,272.459h-0.88V270.7h0.88V272.459z M171.058,268.94h-0.88v-1.759h0.88V268.94z M171.058,265.422h-0.88v-1.759
				h0.88V265.422z M171.058,261.904h-0.88v-1.759h0.88V261.904z M171.058,258.386h-0.88v-1.759h0.88V258.386z M171.058,254.867
				h-0.88v-1.759h0.88V254.867z M171.058,251.35h-0.88v-1.759h0.88V251.35z M171.058,247.831h-0.88v-1.759h0.88V247.831z
				 M171.058,244.313h-0.88v-1.759h0.88V244.313z M171.058,240.795h-0.88v-1.759h0.88V240.795z M171.058,237.277h-0.88v-1.759h0.88
				V237.277z M171.058,233.758h-0.88v-1.759h0.88V233.758z"/>
			<polygon style="fill:#EBEBEB;" points="171.058,230.24 170.178,230.24 170.178,228.92 171.498,228.92 171.498,229.8 
				171.058,229.8 			"/>
			<path style="fill:#EBEBEB;" d="M231.308,229.8h-1.759v-0.88h1.759V229.8z M227.789,229.8h-1.759v-0.88h1.759V229.8z
				 M224.272,229.8h-1.76v-0.88h1.76V229.8z M220.754,229.8h-1.759v-0.88h1.759V229.8z M217.235,229.8h-1.759v-0.88h1.759V229.8z
				 M213.717,229.8h-1.759v-0.88h1.759V229.8z M210.199,229.8h-1.76v-0.88h1.76V229.8z M206.681,229.8h-1.759v-0.88h1.759V229.8z
				 M203.162,229.8h-1.759v-0.88h1.759V229.8z M199.645,229.8h-1.76v-0.88h1.76V229.8z M196.126,229.8h-1.76v-0.88h1.76V229.8z
				 M192.608,229.8h-1.759v-0.88h1.759V229.8z M189.089,229.8h-1.759v-0.88h1.759V229.8z M185.572,229.8h-1.76v-0.88h1.76V229.8z
				 M182.053,229.8h-1.76v-0.88h1.76V229.8z M178.535,229.8h-1.759v-0.88h1.759V229.8z M175.017,229.8h-1.759v-0.88h1.759V229.8z"/>
			<polygon style="fill:#EBEBEB;" points="234.387,230.24 233.507,230.24 233.507,229.8 233.067,229.8 233.067,228.92 
				234.387,228.92 			"/>
			<path style="fill:#EBEBEB;" d="M234.387,290.05h-0.88v-1.759h0.88V290.05z M234.387,286.532h-0.88v-1.759h0.88V286.532z
				 M234.387,283.014h-0.88v-1.759h0.88V283.014z M234.387,279.495h-0.88v-1.759h0.88V279.495z M234.387,275.977h-0.88v-1.759h0.88
				V275.977z M234.387,272.459h-0.88V270.7h0.88V272.459z M234.387,268.941h-0.88v-1.759h0.88V268.941z M234.387,265.422h-0.88
				v-1.759h0.88V265.422z M234.387,261.904h-0.88v-1.759h0.88V261.904z M234.387,258.386h-0.88v-1.759h0.88V258.386z
				 M234.387,254.868h-0.88v-1.759h0.88V254.868z M234.387,251.35h-0.88v-1.759h0.88V251.35z M234.387,247.832h-0.88v-1.759h0.88
				V247.832z M234.387,244.313h-0.88v-1.759h0.88V244.313z M234.387,240.795h-0.88v-1.759h0.88V240.795z M234.387,237.277h-0.88
				v-1.759h0.88V237.277z M234.387,233.759h-0.88v-1.759h0.88V233.759z"/>
		</g>
		<g>
			<rect x="166.672" y="288.743" style="fill:#FFFFFF;" width="7.892" height="7.892"/>
			<path style="fill:#EBEBEB;" d="M175.005,297.075h-8.772v-8.772h8.772V297.075z M167.112,296.195h7.012v-7.011h-7.012V296.195z"/>
		</g>
		<g>
			<rect x="166.706" y="257.079" style="fill:#FFFFFF;" width="7.892" height="7.892"/>
			<path style="fill:#EBEBEB;" d="M175.005,265.411h-8.772v-8.772h8.772V265.411z M167.112,264.53h7.012v-7.012h-7.012V264.53z"/>
		</g>
		<g>
			<rect x="166.706" y="225.414" style="fill:#FFFFFF;" width="7.892" height="7.892"/>
			<path style="fill:#EBEBEB;" d="M175.005,233.746h-8.772v-8.772h8.772V233.746z M167.112,232.866h7.012v-7.011h-7.012V232.866z"/>
		</g>
		<g>
			<rect x="230.035" y="288.743" style="fill:#FFFFFF;" width="7.892" height="7.892"/>
			<path style="fill:#EBEBEB;" d="M238.333,297.075h-8.772v-8.772h8.772V297.075z M230.441,296.195h7.012v-7.011h-7.012V296.195z"/>
		</g>
		<g>
			<rect x="230.035" y="257.079" style="fill:#FFFFFF;" width="7.892" height="7.892"/>
			<path style="fill:#EBEBEB;" d="M238.333,265.411h-8.772v-8.772h8.772V265.411z M230.441,264.53h7.012v-7.012h-7.012V264.53z"/>
		</g>
		<g>
			<rect x="230.035" y="225.414" style="fill:#FFFFFF;" width="7.892" height="7.892"/>
			<path style="fill:#EBEBEB;" d="M238.333,233.746h-8.772v-8.772h8.772V233.746z M230.441,232.866h7.012v-7.011h-7.012V232.866z"/>
		</g>
		<g>
			<rect x="198.37" y="225.414" style="fill:#FFFFFF;" width="7.892" height="7.892"/>
			<path style="fill:#EBEBEB;" d="M206.669,233.746h-8.772v-8.772h8.772V233.746z M198.777,232.866h7.011v-7.011h-7.011V232.866z"/>
		</g>
		<g>
			<rect x="198.337" y="288.743" style="fill:#FFFFFF;" width="7.892" height="7.892"/>
			<path style="fill:#EBEBEB;" d="M206.669,297.075h-8.772v-8.772h8.772V297.075z M198.777,296.195h7.011v-7.011h-7.011V296.195z"/>
		</g>
	</g>
</g>
<g id="Layer_1">
</g>
</svg>
