<?xml version="1.0" encoding="iso-8859-1"?>
<!-- Generator: Adobe Illustrator 25.3.1, SVG Export Plug-In . SVG Version: 6.00 Build 0)  -->
<svg version="1.1" xmlns="http://www.w3.org/2000/svg" xmlns:xlink="http://www.w3.org/1999/xlink" x="0px" y="0px"
	 viewBox="0 0 750 500" style="enable-background:new 0 0 750 500;" xml:space="preserve">
<g id="bg_x5F_triangle">
	<g>
		<path style="fill:#DBDBDB;" d="M88.189,212.728v166.857h166.618L88.189,212.728z M118.744,288.332l60.752,60.752h-60.665
			L118.744,288.332z"/>
		<path style="fill:#EBEBEB;" d="M88.192,212.731v166.856h166.613L94.062,218.614l-0.74-0.74L88.192,212.731z M118.741,288.337
			l60.752,60.752H118.83L118.741,288.337z"/>
		<g>
			<rect x="88.192" y="219.775" style="fill:#FFFFFF;" width="5.727" height="0.797"/>
			<rect x="88.192" y="223.485" style="fill:#FFFFFF;" width="3.374" height="0.797"/>
			<rect x="88.192" y="227.183" style="fill:#FFFFFF;" width="3.374" height="0.797"/>
			<rect x="88.192" y="230.893" style="fill:#FFFFFF;" width="3.374" height="0.797"/>
			<rect x="88.192" y="234.603" style="fill:#FFFFFF;" width="3.374" height="0.797"/>
			<rect x="88.192" y="238.301" style="fill:#FFFFFF;" width="3.374" height="0.809"/>
			<rect x="88.192" y="242.012" style="fill:#FFFFFF;" width="3.374" height="0.797"/>
			<rect x="88.192" y="245.722" style="fill:#FFFFFF;" width="5.727" height="0.797"/>
			<rect x="88.192" y="249.432" style="fill:#FFFFFF;" width="3.374" height="0.797"/>
			<rect x="88.192" y="253.13" style="fill:#FFFFFF;" width="3.374" height="0.797"/>
			<rect x="88.192" y="256.84" style="fill:#FFFFFF;" width="3.374" height="0.797"/>
			<rect x="88.192" y="260.55" style="fill:#FFFFFF;" width="3.374" height="0.797"/>
			<rect x="88.192" y="264.248" style="fill:#FFFFFF;" width="3.374" height="0.797"/>
			<rect x="88.192" y="267.959" style="fill:#FFFFFF;" width="3.374" height="0.797"/>
			<rect x="88.192" y="271.669" style="fill:#FFFFFF;" width="5.727" height="0.797"/>
			<rect x="88.192" y="275.367" style="fill:#FFFFFF;" width="3.374" height="0.797"/>
			<rect x="88.192" y="279.077" style="fill:#FFFFFF;" width="3.374" height="0.797"/>
			<rect x="88.192" y="282.787" style="fill:#FFFFFF;" width="3.374" height="0.797"/>
			<rect x="88.192" y="286.485" style="fill:#FFFFFF;" width="3.374" height="0.809"/>
			<rect x="88.192" y="290.195" style="fill:#FFFFFF;" width="3.374" height="0.797"/>
			<rect x="88.192" y="293.905" style="fill:#FFFFFF;" width="3.374" height="0.797"/>
			<rect x="88.192" y="297.616" style="fill:#FFFFFF;" width="5.727" height="0.797"/>
			<rect x="88.192" y="301.314" style="fill:#FFFFFF;" width="3.374" height="0.797"/>
			<rect x="88.192" y="305.024" style="fill:#FFFFFF;" width="3.374" height="0.797"/>
			<rect x="88.192" y="308.734" style="fill:#FFFFFF;" width="3.374" height="0.797"/>
			<rect x="88.192" y="312.432" style="fill:#FFFFFF;" width="3.374" height="0.797"/>
			<rect x="88.192" y="316.142" style="fill:#FFFFFF;" width="3.374" height="0.797"/>
			<rect x="88.192" y="319.852" style="fill:#FFFFFF;" width="3.374" height="0.797"/>
			<rect x="88.192" y="323.55" style="fill:#FFFFFF;" width="5.727" height="0.809"/>
			<rect x="88.192" y="327.26" style="fill:#FFFFFF;" width="3.374" height="0.797"/>
			<rect x="88.192" y="330.971" style="fill:#FFFFFF;" width="3.374" height="0.797"/>
			<rect x="88.192" y="334.681" style="fill:#FFFFFF;" width="3.374" height="0.797"/>
			<rect x="88.192" y="338.379" style="fill:#FFFFFF;" width="3.374" height="0.797"/>
			<rect x="88.192" y="342.089" style="fill:#FFFFFF;" width="3.374" height="0.797"/>
			<rect x="88.192" y="345.799" style="fill:#FFFFFF;" width="3.374" height="0.797"/>
			<rect x="88.192" y="349.497" style="fill:#FFFFFF;" width="5.727" height="0.797"/>
			<rect x="88.192" y="353.207" style="fill:#FFFFFF;" width="3.374" height="0.797"/>
			<rect x="88.192" y="356.918" style="fill:#FFFFFF;" width="3.374" height="0.797"/>
			<rect x="88.192" y="360.615" style="fill:#FFFFFF;" width="3.374" height="0.797"/>
			<rect x="88.192" y="364.326" style="fill:#FFFFFF;" width="3.374" height="0.797"/>
			<rect x="88.192" y="368.036" style="fill:#FFFFFF;" width="3.374" height="0.797"/>
			<rect x="88.192" y="371.734" style="fill:#FFFFFF;" width="3.374" height="0.809"/>
		</g>
	</g>
</g>
<g id="Layer_1">
</g>
</svg>
