<?xml version="1.0" encoding="iso-8859-1"?>
<!-- Generator: Adobe Illustrator 25.3.1, SVG Export Plug-In . SVG Version: 6.00 Build 0)  -->
<svg version="1.1" xmlns="http://www.w3.org/2000/svg" xmlns:xlink="http://www.w3.org/1999/xlink" x="0px" y="0px"
	 viewBox="0 0 750 500" style="enable-background:new 0 0 750 500;" xml:space="preserve">
<g id="brush_x5F_2">
	<g>
		<path style="fill:#37474F;" d="M375.454,371.779c0,0,1.234,9.19,2.932,18.648c1.698,9.458,1.196,30.479,0.53,30.92
			c-0.666,0.441-4.417-20.674-4.963-30.135c-0.546-9.46-0.488-19.07-0.488-19.07L375.454,371.779z"/>
		<polygon style="fill:#DBDBDB;" points="375.533,371.565 376.672,377.856 373.224,378.134 373.202,371.836 		"/>
		<path style="fill:#455A64;" d="M373.202,371.836c0,0,2.208-0.221,2.331-0.271c0.123-0.05,1.775-6.382,1.637-6.559
			c-0.138-0.177-7.433,0.846-7.394,1.534C369.816,367.228,373.202,371.836,373.202,371.836z"/>
	</g>
</g>
<g id="Layer_1">
</g>
</svg>
