<?xml version="1.0" encoding="iso-8859-1"?>
<!-- Generator: Adobe Illustrator 25.3.1, SVG Export Plug-In . SVG Version: 6.00 Build 0)  -->
<svg version="1.1" xmlns="http://www.w3.org/2000/svg" xmlns:xlink="http://www.w3.org/1999/xlink" x="0px" y="0px"
	 viewBox="0 0 750 500" style="enable-background:new 0 0 750 500;" xml:space="preserve">
<g id="brush_x5F_1">
	<g>
		<path style="fill:#FFC727;" d="M364.949,376.915c0,0,3.234,10.785,7.076,21.803c3.841,11.018,7.254,36.322,6.539,36.978
			c-0.715,0.656-9.243-23.949-11.704-35.19s-4.226-22.775-4.226-22.775L364.949,376.915z"/>
		<polygon style="fill:#DBDBDB;" points="365.003,376.643 367.569,383.97 363.488,384.961 362.259,377.414 		"/>
		<g>
			<path style="fill:#455A64;" d="M365.003,376.643c0.439-1.552,0.506-3.396-0.969-5.505c-1.781-2.547-1.262-4.526-1.262-4.526
				s-4.59,5.882-0.513,10.802L365.003,376.643z"/>
			<path style="fill:#FFC727;" d="M362.814,366.317c0.232,0.372-0.242,2.222,0.617,3.669c0.81,1.363-3.356,3.609-3.011,1.434
				C360.813,368.949,362.388,365.633,362.814,366.317z"/>
		</g>
	</g>
</g>
<g id="Layer_1">
</g>
</svg>
