<?xml version="1.0" encoding="iso-8859-1"?>
<!-- Generator: Adobe Illustrator 25.3.1, SVG Export Plug-In . SVG Version: 6.00 Build 0)  -->
<svg version="1.1" xmlns="http://www.w3.org/2000/svg" xmlns:xlink="http://www.w3.org/1999/xlink" x="0px" y="0px"
	 viewBox="0 0 750 500" style="enable-background:new 0 0 750 500;" xml:space="preserve">
<g id="bulb_x5F_filament">
	<path style="fill:#FFFFFF;" d="M361.01,295.44h-1.79l-2.76-14.48l-13.74-72.26c0-0.02-0.01-0.04-0.01-0.05l-0.68-3.56l1.73-0.33
		l0.66,3.47l0.03,0.13l1.92,10.12l11.88,62.48L361.01,295.44z"/>
	<polygon style="fill:#FFFFFF;" points="407.99,205.07 393.61,280.96 390.86,295.44 389.07,295.44 391.81,280.96 403.62,218.65 
		405.41,209.24 406.26,204.74 	"/>
	<path style="fill:#FFFFFF;" d="M405.41,209.24h-0.02c-0.69,2.38-2.21,6.67-4.24,10.36c-2.03,3.69-4.55,6.78-7.23,6.78
		c-2.39,0-4.29-0.95-5.77-2.25c4.09-8.23,5.49-18.53,2.93-22.97c-0.9-1.55-2.24-2.37-3.89-2.37c-2.09,0-3.8,1.07-4.97,3.09
		c-2.64,4.58-1.92,13.54,1.57,19.58c0.66,1.14,1.39,2.14,2.2,3.01c-0.14,0.24-0.27,0.48-0.4,0.71c-1.53,2.66-3.24,4.71-5.03,6.11
		c-1.79,1.39-3.66,2.12-5.54,2.12c-4.08,0-8.45-3.48-12-9.56c-0.18-0.3-0.35-0.6-0.52-0.91c0.64-0.86,1.26-1.84,1.84-2.96
		c2.08-3.95,3.37-8.85,3.37-12.79c0-2.67-0.57-4.76-1.64-6.19c-1.07-1.44-2.64-2.2-4.63-2.2c-3.44,0-5.42,2.89-5.41,7.91
		c0,4.78,1.64,10.79,4.35,16.05c-0.66,0.76-1.35,1.38-2.04,1.8c-0.7,0.42-1.41,0.66-2.11,0.66c-7.21,0-11.37-15.28-11.78-16.86
		l-0.03-0.13l-1.71,0.42c0,0.01,0.01,0.03,0.01,0.05c0.15,0.61,1.29,5.05,3.46,9.4c0.06,0.13,0.13,0.25,0.19,0.38
		c2.24,4.35,5.52,8.5,9.86,8.5c1.71,0,3.43-0.89,5.05-2.58c3.49,6.07,8.4,10.77,13.74,10.77c4.41,0,8.7-3.24,12.09-9.11
		c0.07-0.12,0.13-0.23,0.2-0.35c1.95,1.59,4.2,2.43,6.61,2.43c3.35,0,6.59-3.16,9.65-9.38c0.02-0.04,0.04-0.07,0.05-0.11
		c2.15-4.42,3.41-8.73,3.46-8.92L405.41,209.24z M357.79,206.71c-0.01-2.8,0.63-6.15,3.65-6.15c3.73,0,4.51,3.61,4.51,6.63
		c0,4.53-1.85,10.21-4.36,13.97C359.24,216.32,357.79,210.9,357.79,206.71z M386.84,222.78c-0.61-0.72-1.11-1.48-1.53-2.21
		c-3.21-5.55-3.93-13.71-1.56-17.81c0.84-1.46,2-2.21,3.44-2.21c1.01,0,1.78,0.49,2.36,1.49
		C391.72,205.8,390.38,215.29,386.84,222.78z"/>
</g>
<g id="Layer_1">
</g>
</svg>
