<?xml version="1.0" encoding="iso-8859-1"?>
<!-- Generator: Adobe Illustrator 25.3.1, SVG Export Plug-In . SVG Version: 6.00 Build 0)  -->
<svg version="1.1" xmlns="http://www.w3.org/2000/svg" xmlns:xlink="http://www.w3.org/1999/xlink" x="0px" y="0px"
	 viewBox="0 0 750 500" style="enable-background:new 0 0 750 500;" xml:space="preserve">
<g id="bulb_x5F_separated_x5F_part">
	<path style="fill:#FFC727;" d="M536.265,173.995c-1.359,4.087-2.829,7.882-4.395,11.405l-15.411-3.193
		c-4.077-0.845-6.694-4.83-5.849-8.907c0.237-1.146,0.74-2.184,1.437-3.073c0.697-0.889,1.605-1.627,2.632-2.161
		c4.025-2.115,7.112-5.952,8.107-10.753c1.764-8.516-3.702-16.84-12.201-18.601c-8.499-1.761-16.823,3.706-18.588,12.222
		c-0.995,4.801,0.305,9.547,3.167,13.089c1.469,1.806,2.128,4.136,1.654,6.42c-0.423,2.043-1.633,3.716-3.244,4.766
		c-1.613,1.059-3.629,1.504-5.663,1.083l-38.624-8.003l8.003-38.623c0.845-4.077-1.781-8.064-5.858-8.909
		c-1.138-0.236-2.29-0.187-3.383,0.099c-1.093,0.286-2.131,0.826-3.037,1.555c-3.533,2.864-8.288,4.162-13.08,3.169
		c-8.516-1.765-13.985-10.08-12.222-18.588c1.761-8.499,10.085-13.966,18.601-12.201c4.792,0.993,8.638,4.082,10.744,8.105
		c1.082,2.067,2.958,3.597,5.234,4.069c2.034,0.422,4.059-0.022,5.672-1.081c1.613-1.059,2.822-2.732,3.244-4.766l8.003-38.624
		c0.009,0.002,0.009,0.002,0.017,0.004l0.026,0.005c17.446,3.615,31.186,11.316,41.637,21.311
		c7.682,7.354,13.597,15.942,17.903,25.051C541.203,130.898,542.217,155.982,536.265,173.995z"/>
</g>
<g id="Layer_1">
</g>
</svg>
