<?xml version="1.0" encoding="iso-8859-1"?>
<!-- Generator: Adobe Illustrator 25.3.1, SVG Export Plug-In . SVG Version: 6.00 Build 0)  -->
<svg version="1.1" xmlns="http://www.w3.org/2000/svg" xmlns:xlink="http://www.w3.org/1999/xlink" x="0px" y="0px"
	 viewBox="0 0 750 500" style="enable-background:new 0 0 750 500;" xml:space="preserve">
<g id="bulb_x5F_top_x5F_left_x5F_part">
	<path style="opacity:0.1;" d="M333.558,142.282c0,8.688,7.042,15.721,15.739,15.721c4.894,0,9.287-2.236,12.165-5.757
		c0.739-0.898,1.646-1.637,2.658-2.139c1.012-0.502,2.13-0.783,3.292-0.783c4.164,0,7.544,3.371,7.544,7.535v39.277h-0.167
		l-24.022,0.018l-12.095,0.009h-3.019c-1.021-0.018-2.06,0.167-3.01,0.555c-1.901,0.766-3.477,2.324-4.243,4.234
		c-0.775,1.901-0.739,4.12,0.123,5.986c0.423,0.942,1.039,1.778,1.769,2.491c0.379,0.352,0.775,0.669,1.144,0.995
		c0.361,0.343,0.722,0.695,1.056,1.065c2.694,2.958,4.19,6.98,4.014,10.986c-0.097,4.005-1.84,7.931-4.727,10.704
		c-2.861,2.808-6.831,4.419-10.845,4.419c-4.014,0.009-7.993-1.602-10.853-4.41c-2.896-2.773-4.639-6.699-4.745-10.713
		c-0.185-4.005,1.312-8.045,4.014-11.012c0.66-0.766,1.426-1.382,2.192-2.069c0.739-0.704,1.347-1.54,1.76-2.474
		c0.863-1.857,0.88-4.058,0.114-5.942c-0.757-1.901-2.324-3.451-4.216-4.199c-0.942-0.387-1.972-0.555-2.984-0.555h-3.019
		l-12.095,0.009h-0.405c-0.81-3.732-1.47-7.711-1.963-11.936c-4.375-37.226,23.591-96.009,86.22-96.035v39.444
		c0,2.077-0.845,3.961-2.209,5.326c-1.364,1.364-3.257,2.209-5.334,2.209c-2.324,0-4.472-1.118-5.951-2.922
		c-2.878-3.512-7.271-5.757-12.165-5.757C340.6,126.561,333.558,133.603,333.558,142.282z"/>
</g>
<g id="Layer_1">
</g>
</svg>
