<?xml version="1.0" encoding="iso-8859-1"?>
<!-- Generator: Adobe Illustrator 25.3.1, SVG Export Plug-In . SVG Version: 6.00 Build 0)  -->
<svg version="1.1" xmlns="http://www.w3.org/2000/svg" xmlns:xlink="http://www.w3.org/1999/xlink" x="0px" y="0px"
	 viewBox="0 0 750 500" style="enable-background:new 0 0 750 500;" xml:space="preserve">
<g id="char_x5F_3">
	<g>
		<g>
			<g>
				<path style="fill:#C95F50;" d="M516.812,416.075c0.099,1.722-4.825,2.123-6.855,0.972c-0.644-0.367-2.455-1.955-4.658-3.974
					c-4.843-4.448-11.538-10.951-11.538-10.951l-5.088,2.174l-20.767,7.57l-13.933-26.915c0,0,12.022-4.824,23.447-9.131
					c1.756-0.661,3.488-1.301,5.174-1.921c0.104-0.039,0.208-0.078,0.312-0.116c7.665-2.786,14.012-4.884,14.65-4.416
					C499.277,370.613,516.715,414.341,516.812,416.075z"/>
				<path style="fill:#263238;" d="M516.812,416.075c0.099,1.722-4.825,2.123-6.855,0.972c-0.644-0.367-2.455-1.955-4.658-3.974
					c5.127-0.592-19.103-34.709-22.392-39.289c7.665-2.786,14.012-4.884,14.65-4.416
					C499.277,370.613,516.715,414.341,516.812,416.075z"/>
			</g>
			<g>
				<g>
					<path style="fill:#DBDBDB;stroke:#455A64;stroke-miterlimit:10;" d="M484.097,409.187c0,0-53.815,11.306-73.461,7.386
						c-9.402-1.876-15.986-14.141-11.278-23.356c4.393-8.598,30.422-16.92,37.826-21.888c2.333-1.554,2.203-7.903,2.203-7.903
						l19.203,0.1c0,0,6.639,10.999,3.641,16.238c-0.045,0.09-0.101,0.169-0.169,0.259l8.722-3.131L484.097,409.187z"/>
				</g>
				<g>
					<path style="fill:#263238;" d="M472.504,394.475c-2.047-4.681-4.308-9.262-6.396-13.924c-0.04-0.089-0.184-0.043-0.145,0.049
						c1.964,4.697,3.77,9.455,5.817,14.118c2.055,4.68,4.279,9.272,6.434,13.904c0.055,0.118,0.249,0.059,0.196-0.066
						C476.429,403.867,474.545,399.141,472.504,394.475z"/>
					<path style="fill:#263238;" d="M462.185,380.249c-1.338,0.744-2.616,1.616-3.918,2.422c-1.284,0.795-2.573,1.58-3.885,2.327
						c-2.647,1.509-5.357,2.916-8.096,4.251c-5.524,2.693-11.215,5.039-17.051,6.968c-3.252,1.075-6.538,2.123-9.878,2.886
						c-0.074,0.017-0.042,0.129,0.032,0.112c2.431-0.534,4.862-1.058,7.268-1.689c-1.284,0.775-2.547,1.587-3.824,2.374
						c-0.064,0.04-0.006,0.139,0.06,0.101c1.396-0.807,2.81-1.583,4.195-2.41c0.079-0.047,0.08-0.132,0.042-0.193
						c0.411-0.111,0.823-0.216,1.232-0.334c2.979-0.862,5.924-1.836,8.82-2.945c5.731-2.195,11.262-4.841,16.537-7.978
						c1.487-0.884,2.959-1.793,4.41-2.734c1.429-0.927,2.894-1.878,4.192-2.984C462.42,380.338,462.292,380.189,462.185,380.249z"/>
				</g>
			</g>
		</g>
		<g>
			<g>
				<path style="fill:#C95F50;" d="M537.257,423.041c0.099,1.722-4.825,2.123-6.854,0.972c-0.644-0.367-2.455-1.955-4.658-3.974
					c-4.843-4.448-11.538-10.95-11.538-10.95l-5.088,2.174l-20.767,7.57l-13.933-26.915c0,0,12.022-4.824,23.447-9.131
					c1.756-0.661,3.488-1.301,5.174-1.921c0.104-0.039,0.208-0.078,0.312-0.117c7.665-2.786,14.012-4.884,14.649-4.416
					C519.721,377.579,537.159,421.308,537.257,423.041z"/>
				<path style="fill:#263238;" d="M537.257,423.041c0.099,1.722-4.825,2.123-6.854,0.972c-0.644-0.367-2.455-1.955-4.658-3.974
					c5.127-0.592-19.103-34.709-22.392-39.289c7.665-2.786,14.012-4.884,14.649-4.416
					C519.721,377.579,537.159,421.308,537.257,423.041z"/>
			</g>
			<path style="fill:#DBDBDB;stroke:#455A64;stroke-miterlimit:10;" d="M445.991,363.425l33.016,0.118
				c0,0,6.671,17.946,3.673,23.191c-2.998,5.245-33.543,12.251-33.543,12.251l42.093-15.122l13.311,32.288
				c0,0-51.023,10.128-77.923,6.878c-10.097-1.22-16.2-14.55-10.084-24.594c6.433-10.564,29.322-24.754,29.322-24.754
				L445.991,363.425z"/>
			<g>
				<path style="fill:#263238;" d="M490.143,383.76c-12.902,5.608-25.91,10.955-39.2,15.582c-1.846,0.643-3.694,1.28-5.546,1.905
					c-1.92,0.648-3.828,1.4-5.79,1.912c-0.095,0.025-0.049,0.18,0.044,0.147c1.693-0.6,3.45-1.017,5.167-1.545
					c1.681-0.517,3.359-1.04,5.03-1.587c0.722-0.236,1.44-0.482,2.161-0.722c-0.148,0.098-0.294,0.197-0.439,0.289
					c-0.668,0.428-1.332,0.857-1.989,1.301c-1.353,0.914-2.616,2.005-4.034,2.816c-0.086,0.049-0.001,0.186,0.081,0.13
					c1.35-0.921,2.863-1.599,4.249-2.467c0.672-0.421,1.33-0.86,1.984-1.309c0.577-0.396,1.236-0.798,1.748-1.295
					c2.116-0.714,4.229-1.44,6.33-2.196c6.621-2.384,13.166-4.953,19.629-7.737c3.61-1.555,7.189-3.174,10.725-4.892
					C490.478,384.003,490.334,383.677,490.143,383.76z"/>
				<path style="fill:#263238;" d="M493.691,401.176c-2.048-4.681-4.308-9.262-6.396-13.924c-0.04-0.089-0.184-0.043-0.145,0.049
					c1.964,4.697,3.77,9.455,5.817,14.118c2.055,4.68,4.279,9.272,6.434,13.904c0.055,0.118,0.249,0.059,0.196-0.066
					C497.617,410.567,495.732,405.841,493.691,401.176z"/>
				<path style="fill:#263238;" d="M445.253,374.016c-3.689,1.922-7.17,4.312-10.554,6.724c-3.356,2.392-6.612,4.928-9.72,7.635
					c-1.569,1.366-3.085,2.795-4.553,4.269c-1.401,1.407-2.747,2.878-3.879,4.513c-2.024,2.922-3.127,6.453-2.925,10.019
					c0.106,1.877,0.489,3.788,1.208,5.529c0.728,1.766,1.797,3.284,2.97,4.779c0.045,0.058,0.133-0.026,0.082-0.083
					c-1.166-1.289-1.943-2.928-2.496-4.563c-0.527-1.558-0.874-3.182-0.931-4.828c-0.119-3.425,0.662-6.766,2.492-9.678
					c2.089-3.324,5.12-6.059,8.001-8.683c2.974-2.71,6.092-5.249,9.325-7.644c1.815-1.344,3.661-2.648,5.521-3.928
					c1.864-1.282,3.761-2.51,5.582-3.852C445.497,374.132,445.392,373.943,445.253,374.016z"/>
				<path style="fill:#263238;" d="M454.823,375.523c-2.668-0.985-5.593-1.406-8.403-1.772c-2.808-0.365-5.622-0.567-8.451-0.661
					c-0.077-0.003-0.072,0.109,0.001,0.117c2.861,0.305,5.718,0.72,8.555,1.2c2.745,0.465,5.492,1.111,8.263,1.385
					C454.953,375.81,454.958,375.573,454.823,375.523z"/>
				<path style="fill:#263238;" d="M474.877,377.445c-1.768-0.056-3.503-0.294-5.248-0.576c-1.44-0.233-2.915-0.474-4.098-1.397
					c-2.308-1.8-3.203-4.905-3.648-7.671c-0.01-0.064-0.122-0.049-0.115,0.016c0.343,3.008,0.414,6.453,3.01,8.516
					c1.285,1.021,2.854,1.352,4.458,1.485c1.866,0.154,3.789-0.017,5.641-0.244C474.958,377.564,474.961,377.448,474.877,377.445z"
					/>
				<path style="fill:#263238;" d="M480.804,381.155c-0.114-1.733-0.46-3.472-0.829-5.166c-0.381-1.749-0.843-3.479-1.363-5.191
					c-0.591-1.944-1.281-3.857-2.006-5.755c-0.026-0.069-0.136-0.041-0.113,0.032c1.03,3.207,1.964,6.453,2.732,9.733
					c0.381,1.625,0.717,3.26,1.012,4.903c0.288,1.603,0.418,3.214-0.059,4.796c-0.481,1.593-1.436,3.01-2.721,4.064
					c-0.013,0.01,0.005,0.033,0.018,0.023C479.774,386.838,480.993,384.028,480.804,381.155z"/>
				<path style="fill:#263238;" d="M486.268,391.051c-2.238,0.541-4.434,1.267-6.637,1.935c-2.206,0.67-4.411,1.34-6.611,2.028
					c-4.402,1.376-8.787,2.804-13.173,4.228c-2.49,0.809-4.965,1.675-7.44,2.528c-0.07,0.024-0.041,0.134,0.032,0.113
					c8.855-2.569,17.659-5.318,26.414-8.213c2.484-0.821,5.004-1.577,7.437-2.54C486.339,391.111,486.321,391.038,486.268,391.051z"
					/>
			</g>
		</g>
	</g>
	<path style="fill:#263238;" d="M435.927,323.957c-0.622-1.802-1.19-3.634-1.666-5.487c-0.89-2.601-1.619-5.254-2.094-7.966
		c-0.784-4.459-1.442-9.902,2.112-13.374c1.637-1.599,3.761-2.62,5.891-3.388c2.223-0.801,4.661-1.407,7.003-0.755
		c0.928,0.258,1.779,0.713,2.49,1.361c1.64,0.18,3.314,0.435,4.802,1.143c1.836,0.459,3.306,2.052,4.357,3.537
		c1.264,1.786,2.115,3.819,2.866,5.864c0.7,1.907,1.269,3.814,1.19,5.865c-0.069,1.791-0.498,3.536-0.864,5.283
		c-0.443,2.115-0.821,4.258-0.513,6.419c0.01,0.072-0.098,0.097-0.111,0.024c-0.594-3.441,0.674-6.825,1.05-10.216
		c0.218-1.961,0.043-3.837-0.553-5.72c-0.667-2.107-1.483-4.226-2.564-6.158c-0.923-1.65-2.234-3.47-3.972-4.402
		c0.03,0.019,0.06,0.037,0.089,0.056c2.005,1.339,3.179,3.553,4.112,5.707c1.04,2.402,1.891,4.924,2.195,7.535
		c0.281,2.393-0.031,4.756-0.415,7.119c-0.383,2.348-0.815,4.739-0.57,7.128c0.258,2.52,1.346,4.834,2.468,7.07
		c1.083,2.162,2.25,4.333,2.783,6.71c0.482,2.161,0.326,4.392-0.54,6.435c-1.596,3.762-6.001,7.333-10.236,5.542
		c-1.06-0.446-2.002-1.127-2.909-1.823c-0.974-0.747-1.902-1.548-2.786-2.396c-1.883-1.802-3.554-3.813-5.062-5.936
		c-2.992-4.219-5.328-8.872-7.417-13.594c-0.514-1.162-1.012-2.335-1.484-3.518c0.894,2.722,1.918,5.398,3.123,8.021
		c2.159,4.702,4.722,9.401,8.187,13.277c0.897,1.003,1.855,1.953,2.865,2.842c1.103,0.97,2.288,1.811,3.451,2.702
		c0.069,0.053,0.005,0.159-0.072,0.116c-2.131-1.21-4.067-2.939-5.763-4.694c-1.79-1.852-3.325-3.915-4.686-6.098
		C439.904,333.729,437.64,328.923,435.927,323.957z"/>
	<g>
		<path style="fill:#063359;" d="M482.172,370.633c-1.311,0.863-45.535,0.364-45.535,0.364l1.78-16.681c0,0-3.654-3.909-3.764-8.614
			c-0.147-6.284,7.164-17.829,7.861-18.633c2.8-3.225,5.74-4.388,9-3.665C465.095,326.412,482.172,370.633,482.172,370.633z"/>
		<g>
			<path style="fill:#263238;" d="M449.232,351.175c-1.66,0.187-3.327,0.445-4.952,0.937c-0.808,0.245-1.603,0.536-2.397,0.848
				c-0.396,0.156-0.793,0.295-1.193,0.431c-0.41,0.14-0.85,0.27-1.276,0.28c-0.038,0.001-0.039,0.073-0.001,0.075
				c0.414,0.021,0.81,0.04,1.224-0.008c0.393-0.046,0.786-0.145,1.172-0.257c0.822-0.239,1.635-0.525,2.454-0.775
				c1.654-0.503,3.307-1.006,4.985-1.358C449.326,351.331,449.31,351.167,449.232,351.175z"/>
			<path style="fill:#263238;" d="M453.299,353.089c-1.358-0.196-2.745-0.314-4.114-0.316c-0.689-0.001-1.373,0.048-2.06,0.121
				c-0.328,0.034-0.656,0.076-0.983,0.123c-0.36,0.051-0.715,0.164-1.075,0.209c-0.038,0.005-0.039,0.078-0.001,0.075
				c0.341-0.03,0.686,0.012,1.027,0.007c0.343-0.004,0.686-0.013,1.029-0.018c0.687-0.01,1.373-0.01,2.059-0.028
				c1.375-0.036,2.743-0.054,4.117-0.031C453.372,353.232,453.369,353.099,453.299,353.089z"/>
		</g>
	</g>
	<g>
		<g>
			<g>
				<path style="fill:#C95F50;" d="M451.708,324.645c-0.098,0.783-3.223,6.125-6.731,6.328c-1.143,0.064-1.773-6.158-1.773-6.158
					l-0.152-0.449l-2.116-6.282l8.072-6.401C449.009,311.683,451.745,324.313,451.708,324.645z"/>
				<path style="fill:#263238;" d="M440.937,318.081l2.117,6.283c1.762-0.882,5.49-3.305,6.88-8.366
					c-0.464-2.19-0.857-4.011-0.911-4.278c-0.009-0.021-0.011-0.036-0.011-0.036l-1.029,0.756L440.937,318.081z"/>
			</g>
			<g>
				<path style="fill:#C95F50;" d="M430.144,310.035c0.266,11.631,7.263,12.785,9.771,12.725c2.277-0.055,10.022-0.53,10.96-12.126
					c0.937-11.597-4.555-15.15-9.769-15.3C435.892,295.183,429.878,298.404,430.144,310.035z"/>
				<g>
					<path style="fill:#263238;" d="M431.471,308.554c0.261-0.085,0.488-0.206,0.738-0.317c0.282-0.125,0.519-0.195,0.691-0.467
						c0.092-0.146,0.033-0.392-0.1-0.495c-0.31-0.24-0.694-0.173-1.039-0.036c-0.375,0.148-0.626,0.358-0.823,0.709
						C430.748,308.288,431.126,308.666,431.471,308.554z"/>
					<path style="fill:#263238;" d="M439.588,308.317c-0.275,0.003-0.529-0.04-0.801-0.066c-0.307-0.029-0.554-0.02-0.804-0.223
						c-0.134-0.109-0.156-0.362-0.063-0.501c0.218-0.326,0.603-0.384,0.974-0.365c0.402,0.021,0.707,0.14,1.006,0.41
						C440.189,307.834,439.95,308.313,439.588,308.317z"/>
					<g>
						<g>
							<path style="fill:#263238;" d="M437.832,310.167c0.004-0.031,0.064,0.033,0.066,0.066c0.03,0.792,0.197,1.694,0.931,1.907
								c0.023,0.007,0.023,0.046-0.003,0.045C437.944,312.121,437.733,310.922,437.832,310.167z"/>
							<path style="fill:#263238;" d="M438.48,309.292c1.264-0.185,1.541,2.357,0.37,2.529
								C437.697,311.989,437.421,309.447,438.48,309.292z"/>
						</g>
						<path style="fill:#263238;" d="M438.994,309.372c0.238,0.12,0.483,0.35,0.753,0.347c0.313-0.003,0.518-0.295,0.693-0.573
							c0.018-0.029,0.042-0.009,0.047,0.025c0.06,0.486-0.073,1.006-0.587,1.136c-0.469,0.118-0.858-0.276-1.033-0.752
							C438.834,309.466,438.898,309.324,438.994,309.372z"/>
					</g>
					<g>
						<g>
							<path style="fill:#263238;" d="M433.488,310.447c-0.01-0.029-0.057,0.044-0.052,0.077c0.117,0.784,0.119,1.701-0.563,2.046
								c-0.021,0.011-0.014,0.05,0.012,0.043C433.739,312.389,433.724,311.171,433.488,310.447z"/>
							<path style="fill:#263238;" d="M432.689,309.707c-1.277,0.052-1.08,2.601,0.103,2.553
								C433.956,312.214,433.759,309.664,432.689,309.707z"/>
						</g>
						<path style="fill:#263238;" d="M432.171,309.916c-0.191,0.151-0.371,0.412-0.611,0.446c-0.278,0.04-0.505-0.22-0.704-0.471
							c-0.021-0.026-0.039-0.003-0.037,0.031c0.024,0.488,0.225,0.983,0.7,1.041c0.434,0.052,0.715-0.39,0.794-0.884
							C432.327,309.987,432.247,309.856,432.171,309.916z"/>
					</g>
					<path style="fill:#263238;" d="M438.762,317.065c-0.159,0.212-0.307,0.494-0.587,0.562c-0.269,0.065-0.607-0.008-0.872-0.066
						c-0.026-0.006-0.047,0.024-0.028,0.045c0.25,0.269,0.707,0.391,1.06,0.271c0.345-0.117,0.473-0.45,0.508-0.788
						C438.847,317.041,438.785,317.034,438.762,317.065z"/>
					<g>
						<path style="fill:#263238;" d="M435.081,314.464c0,0-0.048,1.193,0.005,1.749c0.005,0.052,0.142,0.064,0.332,0.056
							c0.009,0.002,0.015,0.005,0.022-0.001c0.996,0.058,1.951-0.377,2.469-1.235c0.033-0.058-0.043-0.108-0.09-0.069
							c-0.68,0.609-1.476,0.826-2.344,0.925c-0.054-0.15,0.151-2.041,0.062-2.039c-0.306,0.003-0.884,0.268-1.234,0.408
							c0.029-2.489,0.456-4.953,0.448-7.431c-0.002-0.088-0.13-0.102-0.148-0.022c-0.631,2.551-0.727,5.414-0.823,7.983
							C433.765,315.108,434.868,314.58,435.081,314.464z"/>
					</g>
					<g>
						<path style="fill:#263238;" d="M435.715,316.04c0,0,0.555,0.643,1.264,0.837c0.261,0.072,0.538,0.088,0.82-0.01
							c0.579-0.199,0.553-0.741,0.41-1.197c-0.116-0.375-0.317-0.69-0.317-0.69S437.09,315.852,435.715,316.04z"/>
						<path style="fill:#FF9BBC;" d="M436.979,316.877c0.261,0.072,0.538,0.088,0.82-0.01c0.579-0.199,0.553-0.741,0.41-1.197
							C437.581,315.783,436.987,316.258,436.979,316.877z"/>
					</g>
				</g>
				<path style="fill:#263238;" d="M450.379,310.296c-1.26,0.04-4.837-3.109-5.49-9.151c0,0,0.962,5.385,1.443,6.144
					c0.481,0.759-2.001-1.773-2.596-6.639c0,0-2.524,2.198-4.77,3.054c-2.245,0.857-3.657,0.964-3.837,0.812
					c-0.18-0.152,3.113-1.53,3.934-2.671c0,0-5.869,3.41-8.675,3.884c-0.325,0.055-0.59-6.055,3.518-9.307
					c4.107-3.252,10.57-1.38,12.594,0.247c0,0,2.214,0.111,4.884,3.125C454.053,302.809,451.736,310.253,450.379,310.296z"/>
				<g>
					<g>
						<path style="fill:#C95F50;" d="M449.046,311.569c0,0,2.127-3.887,3.864-3.167c1.737,0.72,0.414,6.161-1.431,7.088
							c-1.844,0.927-2.736-0.763-2.736-0.763L449.046,311.569z"/>
						<path style="fill:#263238;" d="M452.492,309.953c0.031-0.006,0.041,0.037,0.016,0.05c-1.288,0.694-1.861,2.023-2.216,3.374
							c0.346-0.543,0.862-0.876,1.583-0.473c0.038,0.021,0.01,0.08-0.029,0.076c-0.565-0.058-0.953,0.082-1.278,0.565
							c-0.23,0.342-0.367,0.758-0.516,1.141c-0.05,0.127-0.275,0.087-0.244-0.057c0.002-0.01,0.005-0.022,0.008-0.032
							C449.594,312.881,450.666,310.329,452.492,309.953z"/>
					</g>
				</g>
			</g>
		</g>
	</g>
	<g>
		<defs>
			<path id="SVGID_1_" d="M482.172,370.633c-1.311,0.863-45.535,0.364-45.535,0.364l1.78-16.681c0,0-3.654-3.909-3.764-8.614
				c-0.147-6.284,7.164-17.829,7.861-18.633c2.8-3.225,5.74-4.388,9-3.665C465.095,326.412,482.172,370.633,482.172,370.633z"/>
		</defs>
		<clipPath id="SVGID_2_">
			<use xlink:href="#SVGID_1_"  style="overflow:visible;"/>
		</clipPath>
		<path style="opacity:0.8;clip-path:url(#SVGID_2_);fill:none;stroke:#FFFFFF;stroke-width:1.5;stroke-miterlimit:10;" d="
			M456.79,365.399c-0.545,0.002-1.088,0.004-1.631,0.005c-0.316-0.031-0.634-0.056-0.952-0.076c-0.319-0.02-0.639-0.034-0.962-0.043
			c-7.825-0.74-14.867,1.021-22.828-0.794c-0.29-0.119-0.579-0.247-0.866-0.384c-0.287-0.138-0.573-0.285-0.855-0.442
			c-1.76-0.88,3.521-3.521,3.009-6.223c-0.001-0.392-0.027-0.789-0.059-1.187c-0.042-0.531-0.092-1.064-0.15-1.596
			c-1.307-4.402,0.057-8.947-2.333-12.871c0.33-0.011,0.657-0.021,0.981-0.031c0.324-0.01,0.646-0.021,0.966-0.031
			c9.028-0.067,16.951-1.828,25.368-0.966c0.193,0.009,0.399,0.014,0.612,0.016c0.213,0.002,0.433,0.002,0.653,0.002
			c-0.88,7.042-0.88,14.964-0.895,21.895c-0.003,0.242-0.007,0.484-0.013,0.718s-0.012,0.462-0.02,0.675
			C456.803,364.492,456.794,364.935,456.79,365.399z"/>
		<g id="Layer_2_00000119082103935530301680000009223311649239929522_" style="opacity:0.8;clip-path:url(#SVGID_2_);">
			<g id="Layer_1-2_00000137813433772584863310000014438783312397180321_">
				<path style="fill:#FFFFFF;" d="M445.234,356.086c0.398-0.097,0.692-0.333,0.899-0.689c-0.016,0.047-0.033,0.094-0.056,0.16
					l0.617-0.005l-0.349,0.56l0.143-0.001c0.277-0.003,0.555,0.001,0.832-0.01c0.103-0.004,0.158,0.031,0.188,0.127
					c0.012,0.032,0.026,0.062,0.041,0.092c0.099,0.224,0.167,0.489,0.537,0.337c-0.2,0.44-0.493,0.692-0.907,0.796
					c-0.106,0.024-0.214,0.037-0.323,0.037c-0.352,0.008-0.704,0.016-1.056,0.024c-0.352,0.008-0.705,0.017-1.058,0.027
					s-0.707,0.021-1.061,0.034c-0.354,0.012-0.709,0.026-1.064,0.041c-0.4,0.018-0.743-0.111-0.987-0.347
					c-0.245-0.235-0.391-0.577-0.4-0.985c-0.009-0.435-0.019-0.866-0.032-1.292c-0.013-0.426-0.028-0.845-0.046-1.261
					c-0.019-0.354,0.107-0.631,0.438-0.807c0.032-0.022,0.054-0.056,0.061-0.093c0.033-0.168,0.108-0.236,0.287-0.246
					c0.143-0.007,0.286-0.012,0.429-0.017c0.229-0.009,0.278,0.02,0.379,0.237c0.129-0.005,0.266-0.004,0.401-0.018
					c0.037-0.004,0.081-0.043,0.1-0.077c0.086-0.15,0.169-0.302,0.244-0.457c0.084-0.172,0.226-0.252,0.415-0.258
					c0.305-0.009,0.61-0.018,0.915-0.025c0.305-0.007,0.61-0.012,0.914-0.017c0.192-0.004,0.347,0.071,0.446,0.247
					c0.082,0.146,0.184,0.282,0.269,0.426c0.041,0.07,0.09,0.096,0.171,0.091c0.247-0.016,0.49,0.01,0.718,0.123
					c0.444,0.22,0.717,0.571,0.749,1.056c0.024,0.376,0.039,0.753,0.051,1.134s0.02,0.765,0.03,1.15
					c-0.002,0.022-0.005,0.044-0.01,0.066c-0.032-0.055-0.055-0.094-0.074-0.134c-0.188-0.4-0.378-0.797-0.568-1.192
					c-0.19-0.395-0.381-0.786-0.572-1.174c-0.05-0.102-0.105-0.139-0.215-0.128c-0.119,0.011-0.24,0.004-0.335,0.005
					c0.12,0.254,0.242,0.505,0.352,0.761c0.032,0.085,0.042,0.176,0.029,0.264l-0.189-0.383c-0.137,0.341-0.267,0.666-0.398,0.993
					c0.103-0.387,0.064-0.75-0.157-1.118c-0.119,0.288-0.232,0.555-0.343,0.827c-0.15,0.368-0.3,0.744-0.453,1.123l-0.477,0.01
					c-0.003-0.019-0.007-0.037-0.014-0.054c-0.143-0.309-0.287-0.615-0.433-0.918c-0.146-0.302-0.293-0.601-0.441-0.896
					c-0.013-0.021-0.028-0.041-0.045-0.06c-0.167,0.3-0.206,0.606-0.157,0.936c-0.122-0.256-0.245-0.51-0.378-0.783
					c-0.071,0.173-0.129,0.317-0.189,0.462c-0.02-0.41,0.115-0.768,0.357-1.11c-0.149,0.005-0.268,0.016-0.386,0.011
					c-0.103-0.004-0.146,0.037-0.183,0.127c-0.096,0.235-0.193,0.471-0.291,0.71s-0.198,0.48-0.299,0.725
					c-0.101,0.244-0.203,0.49-0.305,0.738c-0.102,0.248-0.205,0.497-0.309,0.747c-0.016,0.039-0.029,0.079-0.047,0.129
					c0.056-0.003,0.093-0.005,0.131-0.007c0.162-0.01,0.363,0.037,0.476-0.046c0.118-0.087,0.159-0.296,0.22-0.456
					c0.039-0.102,0.09-0.142,0.199-0.144c0.317-0.006,0.634-0.025,0.958-0.037l-0.371-0.543c0.217-0.008,0.393-0.004,0.567-0.026
					c0.089-0.011,0.132,0.017,0.186,0.077c0.204,0.228,0.454,0.374,0.759,0.411c0.079,0.161,0.159,0.323,0.243,0.498
					C445.089,356.411,445.162,356.25,445.234,356.086z M445.671,356.576c0.234-0.108,0.452-0.24,0.645-0.46
					c-0.155,0.002-0.28,0.001-0.406,0.007c-0.027,0-0.07,0.02-0.079,0.042c-0.056,0.135-0.104,0.275-0.156,0.413
					c-0.25,0.042-0.499,0.102-0.75,0.12c-0.177,0.013-0.358-0.035-0.538-0.055l-0.014,0.041c0.052,0.021,0.103,0.059,0.155,0.058
					c0.284-0.001,0.568-0.018,0.852-0.015C445.507,356.729,445.614,356.715,445.671,356.576z M443.848,354.14
					c0.24-0.363,0.632-0.568,1.04-0.582c0.408-0.014,0.832,0.162,1.136,0.561c0.124-0.16,0.103-0.4,0.291-0.525
					c-0.202-0.22-0.441-0.377-0.695-0.477c-0.254-0.1-0.524-0.142-0.788-0.13c-0.264,0.011-0.522,0.075-0.752,0.188
					c-0.23,0.112-0.433,0.273-0.587,0.478C443.724,353.736,443.694,353.996,443.848,354.14z M442.197,352.957
					c-0.219,0.01-0.388,0.19-0.378,0.401s0.197,0.374,0.416,0.363l0,0c0.219-0.014,0.388-0.191,0.383-0.402
					C442.603,353.109,442.416,352.949,442.197,352.957L442.197,352.957z M443.643,356.177c0.23,0.205,0.441,0.354,0.716,0.433
					c-0.063-0.138-0.11-0.255-0.171-0.366c-0.024-0.042-0.065-0.071-0.112-0.08C443.947,356.159,443.815,356.17,443.643,356.177
					L443.643,356.177z"/>
				<path style="fill:#FFFFFF;" d="M437.788,353.97l0.017,0.511l-0.957,0.046c-0.017,0.437-0.034,0.87-0.051,1.3
					c-0.017,0.43-0.034,0.855-0.051,1.278c-0.023,0.016-0.03,0.025-0.038,0.026c-0.27,0.026-0.266,0.026-0.289-0.24
					c-0.034-0.386-0.068-0.772-0.103-1.157s-0.07-0.77-0.104-1.153c-0.369,0.012-0.747,0.009-1.122,0.043
					c-0.21,0.019-0.224,0.071-0.22,0.283c0.008,0.407,0.043,0.817,0.013,1.221c-0.047,0.654-0.491,1.076-1.145,1.126
					c-0.194,0.017-0.389,0.006-0.58-0.033c-0.597-0.133-0.953-0.596-0.978-1.251c-0.024-0.592-0.038-1.185-0.058-1.799
					c0.193-0.006,0.389-0.017,0.586-0.013c0.022-0.001,0.06,0.081,0.06,0.124c0.001,0.516-0.004,1.031-0.007,1.547
					c0,0.057,0.004,0.114,0.008,0.17c0.05,0.595,0.612,0.918,1.152,0.66c0.274-0.133,0.387-0.377,0.388-0.665
					c0.001-0.407-0.014-0.815-0.039-1.222c-0.015-0.25,0.091-0.433,0.298-0.536c0.17-0.084,0.365-0.155,0.551-0.164
					c0.432-0.021,0.863-0.037,1.296-0.053s0.867-0.033,1.301-0.054C437.741,353.965,437.764,353.967,437.788,353.97z"/>
				<path style="fill:#FFFFFF;" d="M451.088,356.62c-0.232,0.055-0.389-0.007-0.54-0.201c-0.237-0.305-0.48-0.605-0.728-0.906
					s-0.501-0.604-0.759-0.914c0,0,0.017,0.512,0.033,1.027c0.016,0.515,0.031,1.034,0.031,1.034l-0.574,0.011
					c0,0-0.005-0.194-0.014-0.484c-0.008-0.29-0.02-0.676-0.032-1.059c-0.012-0.384-0.026-0.765-0.036-1.05
					c-0.01-0.285-0.018-0.474-0.018-0.474c0.137-0.002,0.273-0.012,0.408-0.002c0.046,0.003,0.098,0.049,0.132,0.088
					c0.231,0.27,0.462,0.541,0.692,0.814c0.23,0.273,0.459,0.546,0.687,0.821c0.029,0.036,0.061,0.07,0.114,0.131
					c0,0-0.015-0.472-0.031-0.942c-0.016-0.47-0.032-0.939-0.032-0.939l0.569-0.013c0,0,0.026,0.762,0.051,1.527
					C451.064,355.852,451.088,356.62,451.088,356.62z"/>
				<path style="fill:#FFFFFF;" d="M438.036,354.34l0.884-0.048l0.04,1.266l0.021-0.001l-0.01-0.345l1.35-0.077l-0.044-1.29
					l0.578-0.032c0,0,0.008,0.187,0.018,0.471c0.01,0.283,0.023,0.664,0.033,1.05c0.011,0.386,0.02,0.775,0.026,1.069
					c0.006,0.294,0.01,0.49,0.01,0.49l-0.569,0.03l-0.028-1.257l-1.389,0.078c0.07,0.29,0.014,0.554-0.081,0.815
					c-0.094,0.261-0.226,0.52-0.305,0.8c-0.042-0.078-0.069-0.123-0.09-0.17c-0.093-0.208-0.176-0.419-0.278-0.622
					c-0.085-0.174-0.129-0.366-0.127-0.561c-0.003-0.265-0.01-0.529-0.018-0.793c-0.008-0.263-0.017-0.526-0.024-0.788
					C438.031,354.402,438.035,354.379,438.036,354.34z M438.53,356.255c-0.026-0.018-0.049-0.049-0.071-0.047
					c-0.081,0.004-0.162,0.021-0.244,0.032c0.007,0.055,0.003,0.115,0.024,0.166c0.058,0.144,0.119,0.288,0.191,0.426
					c0.021,0.04,0.08,0.087,0.119,0.084c0.039-0.003,0.096-0.055,0.116-0.099c0.064-0.145,0.119-0.294,0.17-0.444
					c0.017-0.049,0.026-0.148,0.019-0.149c-0.079-0.019-0.161-0.029-0.243-0.029C438.585,356.194,438.559,356.233,438.53,356.255z"
					/>
				<path style="fill:#FFFFFF;" d="M432.437,353.938c-0.123,0.004-0.246,0.002-0.368,0.013c-0.086,0.008-0.129-0.027-0.165-0.099
					c-0.102-0.202-0.058-0.476,0.108-0.625c0.222-0.2,0.503-0.24,0.714-0.101c0.257,0.169,0.361,0.462,0.24,0.706
					c-0.026,0.045-0.07,0.077-0.121,0.088C432.71,353.935,432.573,353.933,432.437,353.938L432.437,353.938z"/>
				<path style="fill:#FFFFFF;" d="M438.906,354.01l-0.866,0.046c-0.016-0.223,0.149-0.409,0.379-0.435
					C438.676,353.592,438.862,353.737,438.906,354.01z"/>
				<path style="fill:#FFFFFF;" d="M446.85,354.801c0.115,0.247,0.228,0.49,0.347,0.749l-0.484,0.003
					C446.759,355.301,446.804,355.054,446.85,354.801z"/>
				<path style="fill:#FFFFFF;" d="M436.521,357.278c0.135-0.041,0.193-0.002,0.147,0.115c-0.035,0.088-0.08,0.196-0.154,0.239
					c-0.177,0.107-0.308,0.222-0.233,0.462l-0.148,0.014c-0.061-0.265-0.008-0.404,0.198-0.547
					C436.43,357.491,436.553,357.437,436.521,357.278z"/>
				<path style="fill:#FFFFFF;" d="M448.356,356.676l-0.259,0.004c0.029-0.117,0.056-0.226,0.089-0.361
					C448.245,356.443,448.296,356.55,448.356,356.676z"/>
				<path style="fill:#FFFFFF;" d="M445.671,356.576c-0.056,0.139-0.164,0.153-0.294,0.151c-0.283-0.004-0.567,0.013-0.852,0.015
					c-0.051,0.001-0.103-0.038-0.155-0.058l0.014-0.041c0.18,0.02,0.36,0.068,0.538,0.055c0.252-0.017,0.501-0.078,0.751-0.119
					L445.671,356.576z"/>
				<path style="fill:#FFFFFF;" d="M443.229,355.628l-0.471,0.02l0.293-0.734C443.113,355.157,443.171,355.389,443.229,355.628z"/>
			</g>
		</g>
	</g>
</g>
<g id="Layer_1">
</g>
</svg>
