<?xml version="1.0" encoding="iso-8859-1"?>
<!-- Generator: Adobe Illustrator 25.3.1, SVG Export Plug-In . SVG Version: 6.00 Build 0)  -->
<svg version="1.1" xmlns="http://www.w3.org/2000/svg" xmlns:xlink="http://www.w3.org/1999/xlink" x="0px" y="0px"
	 viewBox="0 0 750 500" style="enable-background:new 0 0 750 500;" xml:space="preserve">
<g id="char_x5F_4">
	<g>
		<g>
			<g>
				<g>
					<path style="fill:#F7A9A0;" d="M506.951,380.361c1.658,0.55,48.972,0.413,50.775-0.731c0.68-0.427,1.064-7.326,1.289-15.665
						c0.051-1.802,0.087-3.656,0.116-5.552c0.036-2.237,0.065-4.503,0.08-6.703c0.058-9.881-0.08-18.583-0.08-18.583h-30.802
						l0.015,18.583l0.007,6.703l0.159,5.552c0,0-18.09,8.158-19.929,9.628C506.748,375.054,505.3,379.818,506.951,380.361z"/>
					<path style="fill:#FFFFFF;" d="M506.951,380.361c1.658,0.55,48.972,0.413,50.775-0.731c0.68-0.427,1.064-7.326,1.289-15.665
						c0.051-1.802,0.087-3.656,0.116-5.552c0.036-2.237,0.065-4.503,0.08-6.703h-30.867l0.007,6.703l0.159,5.552
						c0,0-18.09,8.158-19.929,9.628C506.748,375.054,505.3,379.818,506.951,380.361z"/>
					<g>
						<path style="fill:#FFC727;" d="M506.808,380.432c1.079,0.355,21.232,0.427,35.906,0.123c3.395-0.072,6.501-0.167,9.005-0.275
							c3.453-0.159,5.769-0.347,6.146-0.586c0.832-0.536,1.23-10.656,1.419-21.334h-30.954l0.159,5.581
							c0,0-18.192,8.202-20.045,9.678C506.605,375.097,505.15,379.874,506.808,380.432z"/>
						<g>
							<g>
								<path style="fill:#263238;" d="M507.485,378.527c7.975-0.219,40.162-0.349,48.062,0.04c0.064,0.003,0.064,0.047,0,0.05
									c-7.9,0.39-40.086,0.259-48.062,0.04C507.317,378.653,507.317,378.532,507.485,378.527z"/>
								<path style="fill:#263238;" d="M527.357,362.174c3.137-0.595,6.977-0.124,9.382,2.105c0.093,0.086-0.031,0.217-0.133,0.186
									c-3.099-0.967-5.993-1.585-9.235-1.894C527.142,362.548,527.132,362.216,527.357,362.174z"/>
								<path style="fill:#263238;" d="M525.095,363.545c3.137-0.595,6.977-0.124,9.381,2.105c0.093,0.086-0.031,0.217-0.133,0.186
									c-3.099-0.967-5.993-1.585-9.235-1.894C524.881,363.92,524.871,363.588,525.095,363.545z"/>
								<path style="fill:#263238;" d="M522.834,364.917c3.137-0.595,6.977-0.124,9.381,2.105c0.093,0.086-0.031,0.217-0.133,0.186
									c-3.099-0.967-5.993-1.585-9.235-1.894C522.619,365.292,522.609,364.96,522.834,364.917z"/>
								<path style="fill:#263238;" d="M520.573,366.289c3.137-0.595,6.977-0.124,9.381,2.105c0.093,0.086-0.031,0.217-0.133,0.186
									c-3.099-0.967-5.993-1.585-9.235-1.894C520.358,366.664,520.348,366.332,520.573,366.289z"/>
							</g>
							<g>
								<path style="fill:#263238;" d="M522.959,359.398c2.225,1.72,5.116,2.416,7.711,3.369c0.269,0.099,0.483-0.155,0.491-0.393
									c0.052-0.01,0.095-0.049,0.074-0.113c-0.862-2.619-2.728-5.399-4.854-7.175c-1.313-1.097-3.612-1.854-4.84-0.152
									C520.377,356.543,521.66,358.394,522.959,359.398z M522.153,356.875c-0.563-3.442,3.139-1.644,4.075-0.797
									c0.602,0.544,1.148,1.172,1.669,1.792c1.091,1.3,1.976,2.731,2.927,4.128c-1.246-0.546-2.527-0.98-3.792-1.479
									C525.524,359.924,522.463,358.773,522.153,356.875z"/>
								<path style="fill:#263238;" d="M541.698,357.448c-0.764-1.955-3.18-1.795-4.725-1.061c-2.503,1.189-5.003,3.416-6.492,5.736
									c-0.037,0.057-0.005,0.106,0.043,0.128c-0.051,0.233,0.092,0.532,0.377,0.504c2.75-0.275,5.724-0.227,8.307-1.337
									C540.717,360.77,542.421,359.297,541.698,357.448z M534.985,361.486c-1.349,0.168-2.698,0.268-4.041,0.486
									c1.27-1.115,2.484-2.28,3.865-3.267c0.659-0.471,1.345-0.942,2.063-1.319c1.118-0.587,5.151-1.403,3.747,1.789
									C539.845,360.936,536.593,361.286,534.985,361.486z"/>
							</g>
						</g>
					</g>
				</g>
				<g>
					<path style="fill:#DBDBDB;stroke:#455A64;stroke-miterlimit:10;" d="M569.404,201.862c0,0-8.325,82.337-8.52,83.379
						c-0.029,0.138-0.087,1.723-0.167,4.307c-0.449,14.174-1.556,58.368-1.556,58.368h-33.966c0,0,2.215-52.345,3.489-64.558
						c1.622-15.578,11.843-81.497,11.843-81.497H569.404z"/>
					<g>
						<path style="fill:#263238;" d="M556.833,288.144c1.048-17.84,2.61-35.648,4.725-53.393
							c1.192-10.004,2.627-19.973,4.054-29.946c0.012-0.086,0.149-0.083,0.137,0.003c-2.628,17.749-4.491,35.636-6.094,53.504
							c-1.601,17.846-2.721,35.73-3.452,53.632c-0.414,10.144-0.727,20.292-1.054,30.439c-0.008,0.241-0.382,0.233-0.375-0.009
							C555.251,324.291,555.772,306.204,556.833,288.144z"/>
						<path style="fill:#263238;" d="M527.338,342.443c0.889-0.117,1.856-0.08,2.758-0.111c1.02-0.035,2.041-0.043,3.06-0.082
							c1.967-0.076,3.933-0.125,5.902-0.157c3.964-0.064,7.939-0.042,11.901,0.083c1.091,0.034,2.182,0.076,3.273,0.117
							c1.162,0.043,2.328,0.149,3.49,0.143c0.088,0,0.085,0.105-0.003,0.104c-1.996-0.007-4.017,0.173-6.014,0.245
							c-1.967,0.071-3.933,0.107-5.902,0.134c-3.963,0.055-7.941,0.02-11.9-0.126c-1.091-0.04-2.182-0.055-3.274-0.089
							c-0.583-0.018-1.163-0.051-1.745-0.074c-0.52-0.02-1.036,0.015-1.552-0.051C527.244,342.568,527.252,342.455,527.338,342.443z
							"/>
					</g>
				</g>
				<path style="fill:#263238;" d="M569.404,201.862c0,0-8.325,82.337-8.52,83.379c-0.029,0.138-0.087,1.723-0.167,4.307
					l-16.013-87.687H569.404z"/>
			</g>
			<g>
				<g>
					<path style="fill:#F7A9A0;" d="M595.109,378.896c1.736-0.184,44.777-19.831,45.945-21.62c0.447-0.672-2.052-7.11-5.289-14.797
						c-0.694-1.664-1.351-3.412-2.182-5.107c-1.039-2.134-2.105-4.256-3.158-6.29c-4.546-8.845-8.715-16.094-8.715-16.094
						l-27.266,12.348l7.874,16.12l3.226,6.614l2.432,4.991c0,0-13.112,14.896-14.181,16.989
						C592.734,374.14,593.38,379.077,595.109,378.896z"/>
					<path style="fill:#FFFFFF;" d="M595.109,378.896c1.736-0.184,44.777-19.831,45.945-21.62c0.447-0.672-2.052-7.11-5.289-14.797
						c-0.694-1.664-1.351-3.412-2.182-5.107c-1.039-2.134-2.105-4.256-3.158-6.29c-8.418,3.765-20.551,9.082-28.106,12.374
						l3.226,6.614l2.432,4.991c0,0-13.112,14.896-14.181,16.989C592.734,374.14,593.38,379.077,595.109,378.896z"/>
					<g>
						<path style="fill:#FFC727;" d="M595.006,379.014c1.743-0.184,45.026-19.939,46.201-21.736
							c0.543-0.829-3.274-10.21-7.51-20.017l-28.194,12.77l2.446,5.02c0,0-13.189,14.976-14.266,17.085
							C592.616,374.239,593.263,379.198,595.006,379.014z"/>
						<g>
							<g>
								<path style="fill:#263238;" d="M594.836,376.999c7.174-3.49,36.44-16.888,43.797-19.792c0.06-0.024,0.078,0.016,0.021,0.046
									c-7.035,3.614-36.409,16.775-43.764,19.865C594.735,377.183,594.685,377.073,594.836,376.999z"/>
								<path style="fill:#263238;" d="M606.191,353.904c2.612-1.836,6.304-2.992,9.414-1.953c0.121,0.04,0.062,0.211-0.044,0.224
									c-3.222,0.398-6.113,1.028-9.194,2.085C606.15,354.334,606.004,354.036,606.191,353.904z"/>
								<path style="fill:#263238;" d="M604.697,356.087c2.612-1.836,6.304-2.991,9.414-1.953c0.121,0.04,0.061,0.211-0.044,0.224
									c-3.222,0.398-6.113,1.028-9.194,2.084C604.656,356.517,604.51,356.218,604.697,356.087z"/>
								<path style="fill:#263238;" d="M603.203,358.27c2.612-1.836,6.304-2.992,9.414-1.953c0.121,0.04,0.062,0.211-0.044,0.224
									c-3.222,0.398-6.113,1.029-9.194,2.085C603.162,358.699,603.016,358.401,603.203,358.27z"/>
								<path style="fill:#263238;" d="M601.709,360.452c2.612-1.836,6.304-2.992,9.414-1.953c0.121,0.04,0.062,0.211-0.044,0.224
									c-3.222,0.398-6.113,1.028-9.194,2.085C601.668,360.882,601.522,360.584,601.709,360.452z"/>
							</g>
							<g>
								<path style="fill:#263238;" d="M601.039,353.191c2.736,0.649,5.658,0.09,8.414-0.113c0.286-0.021,0.376-0.34,0.285-0.561
									c0.043-0.03,0.066-0.084,0.02-0.134c-1.866-2.03-4.712-3.792-7.382-4.533c-1.649-0.458-4.055-0.199-4.472,1.858
									C597.51,351.654,599.442,352.812,601.039,353.191z M599.264,351.225c-1.933-2.903,2.181-2.793,3.383-2.408
									c0.773,0.248,1.529,0.594,2.259,0.944c1.53,0.734,2.927,1.672,4.37,2.553c-1.36,0.017-2.706,0.15-4.064,0.217
									C603.593,352.611,600.33,352.825,599.264,351.225z"/>
								<path style="fill:#263238;" d="M617.304,343.682c-1.503-1.465-3.637-0.324-4.742,0.983
									c-1.789,2.116-3.148,5.175-3.547,7.904c-0.01,0.067,0.039,0.098,0.092,0.099c0.049,0.234,0.303,0.447,0.551,0.303
									c2.392-1.385,5.12-2.568,7.016-4.646C617.782,347.113,618.726,345.068,617.304,343.682z M612.856,350.131
									c-1.16,0.709-2.347,1.358-3.481,2.11c0.696-1.54,1.322-3.102,2.173-4.571c0.406-0.701,0.836-1.413,1.335-2.053
									c0.776-0.996,4.114-3.404,4.151,0.084C617.056,347.624,614.238,349.285,612.856,350.131z"/>
							</g>
						</g>
					</g>
				</g>
				<g>
					<path style="fill:#DBDBDB;stroke:#455A64;stroke-miterlimit:10;" d="M540.527,201.862c0,0,2.238,11.894,10.536,17.943
						c0,0,18.295,61.227,20.673,68.246c4.098,12.099,26.117,53.08,26.117,53.08l33.988-14.588c0,0-25.922-45.658-28.723-49.175
						c-1.86-2.335-15.621-51.958-15.646-53.247c-0.291-14.58-5.178-22.334-5.178-22.334L540.527,201.862z"/>
					<g>
						<path style="fill:#263238;" d="M568.025,206.172c0.639,2.389,2.202,4.481,4.157,5.969c2.198,1.672,4.836,2.37,7.546,2.586
							c0.459,0.037,0.495,0.728,0.015,0.73c-5.538,0.032-11.134-3.507-11.946-9.25C567.779,206.077,567.992,206.047,568.025,206.172
							z"/>
						<path style="fill:#263238;" d="M545.749,216.037c2.037,0.726,3.891,1.903,5.721,3.036c1.901,1.176,3.657,2.555,5.493,3.826
							c0.071,0.049,0.011,0.164-0.067,0.119c-1.924-1.108-3.929-2.068-5.834-3.213c-1.85-1.111-3.77-2.188-5.397-3.618
							C545.601,216.131,545.664,216.007,545.749,216.037z"/>
						<path style="fill:#263238;" d="M544.969,204.492c0.296,1.269,0.664,2.521,0.999,3.78c0.314,1.181,0.56,2.39,0.929,3.555
							c0.358,1.13,0.893,2.156,1.809,2.933c0.488,0.414,1.021,0.775,1.539,1.151c0.279,0.203,0.579,0.396,0.868,0.6
							c-0.044-0.167-0.081-0.338-0.12-0.51c-0.107-0.481-0.211-0.963-0.315-1.445c-0.23-1.069-0.452-2.141-0.666-3.213
							c-0.421-2.108-0.818-4.24-1.357-6.321c-0.022-0.085,0.105-0.123,0.131-0.039c0.624,2.058,1.302,4.092,1.858,6.172
							c0.273,1.02,1.311,6.069,1.363,6.427c0.054,0.37,0.102,0.741,0.132,1.114c0.03,0.368,0.122,0.776,0.053,1.142
							c-0.018,0.094-0.13,0.084-0.172,0.023c-0.002,0.001-0.003,0.003-0.005,0.004c-0.2-0.315-0.265-0.736-0.374-1.09
							c-0.11-0.359-0.209-0.723-0.291-1.089c-0.03-0.132-0.055-0.268-0.079-0.403c-0.515-0.282-1-0.663-1.483-0.981
							c-0.521-0.343-1.052-0.675-1.547-1.055c-0.949-0.728-1.564-1.646-1.957-2.771c-0.407-1.168-0.573-2.412-0.766-3.628
							c-0.228-1.438-0.412-2.885-0.679-4.316C544.822,204.446,544.949,204.405,544.969,204.492z"/>
						<path style="fill:#263238;" d="M597.759,334.27c0.767-0.464,8.803-4.208,10.594-5.028c3.605-1.651,16.057-6.756,17.23-7.182
							c0.388-0.141,0.415,0.069,0.116,0.215c-1.841,0.896-9.046,4.199-10.837,5.015c-3.607,1.642-16.553,6.961-17.051,7.107
							C597.723,334.422,597.685,334.315,597.759,334.27z"/>
						<path style="fill:#263238;" d="M580.088,203.26c1.512,2.202,2.637,4.664,3.437,7.218c0.804,2.555,1.242,5.233,1.268,7.923
							c0.014,1.345-0.084,2.692-0.291,4.023c-0.057,0.332-0.099,0.667-0.174,0.995l-0.102,0.495
							c-0.031,0.172-0.084,0.337-0.059,0.421c0.079,0.615,0.243,1.284,0.388,1.925c0.613,2.59,1.297,5.171,1.98,7.749
							c2.769,10.306,5.571,20.608,8.522,30.864l2.218,7.688c0.379,1.277,0.762,2.555,1.167,3.82
							c0.204,0.627,0.409,1.272,0.647,1.854c0.289,0.585,0.561,1.171,0.887,1.757c2.514,4.689,5.232,9.292,7.858,13.936
							c0,0,13.395,22.502,16.152,27.69c0.128,0.241,0.065,0.396-0.183,0.073c-2.394-3.12-11.121-18.23-16.559-27.42
							c-2.723-4.595-5.408-9.203-7.979-13.902c-0.326-0.579-0.622-1.202-0.925-1.812c-0.27-0.653-0.47-1.281-0.683-1.921
							c-0.416-1.275-0.805-2.553-1.192-3.832c-0.768-2.559-1.522-5.121-2.25-7.69c-2.874-10.286-5.71-20.581-8.31-30.941
							c-0.645-2.592-1.289-5.182-1.865-7.796c-0.138-0.661-0.289-1.294-0.369-2.004c-0.022-0.252,0.052-0.41,0.076-0.565
							l0.107-0.484c0.078-0.321,0.123-0.649,0.184-0.974c0.219-1.304,0.337-2.625,0.357-3.949
							C584.455,213.102,582.908,207.783,580.088,203.26z"/>
					</g>
				</g>
			</g>
		</g>
		<g>
			<g>
				<g>
					<path style="fill:#063359;" d="M585.051,206.515c0-0.004-47.278,0.315-47.278,0.319c0.008,0.927,2.392-37.048,14.517-59.46
						c0.826-1.528,8.246-3.214,11.542-0.216C578.274,160.296,585.055,207.117,585.051,206.515z"/>
				</g>
			</g>
			<g style="display:none;">
				<g style="display:inline;opacity:0.1;">
					<path d="M551.781,195.677c-1.224-1.018-3.019-0.758-3.55,0.879c-0.606,1.867,0.609,3.689,2.227,4.568
						c1.733,0.941,3.741,1.033,5.523,0.225c1.658-0.752,1.207-3.346-0.436-3.788c-0.748-0.201-1.647-0.233-2.346-0.582
						C552.61,196.685,552.28,196.092,551.781,195.677z"/>
					<path d="M549.706,189.5c-0.975,2.809,3.164,5.841,5.64,4.596c0.887-0.446,1.018-1.704,0.362-2.392
						c-0.596-0.625-1.147-0.78-1.678-1.347c-0.259-0.277-0.205-0.22-0.468-0.637c-0.326-0.518-0.613-0.915-1.122-1.29
						C551.416,187.678,550.066,188.462,549.706,189.5z"/>
					<path d="M542.574,188.752c-1.069,1.076-0.604,2.963,0.062,4.149c0.658,1.171,1.751,2.013,3.126,2.041
						c1.035,0.021,1.671-1.344,0.903-2.087c-0.48-0.464-0.824-1.052-0.998-1.631c-0.285-0.945-0.408-2.139-1.359-2.66
						C543.761,188.264,543.033,188.291,542.574,188.752z"/>
					<path d="M560.347,194.102c-0.755-0.009-1.386,0.625-1.401,1.375c-0.016,0.808,0.611,1.444,1.375,1.603
						c0.574,0.12,1.046,0.045,1.581-0.177c0.253-0.105,0.443-0.38,0.546-0.616c0.111-0.255,0.162-0.561,0.079-0.835
						c-0.153-0.505-0.609-0.947-1.158-0.968c-0.055-0.05-0.114-0.099-0.187-0.144C560.929,194.181,560.645,194.106,560.347,194.102z
						"/>
					<path d="M545.919,182.093c-1.107,1.446-0.222,4.328,1.31,5.153c0.885,0.477,2.031-0.069,2.041-1.134
						c0.003-0.354-0.042-0.559-0.088-0.895c-0.044-0.322-0.101-0.527-0.113-0.717c-0.038-0.635,0.055-1.359-0.163-1.96
						C548.403,181.151,546.802,180.939,545.919,182.093z"/>
					<path d="M541.863,197.182c-1.499,2.267,1.788,5.472,4.054,5.275c0.756-0.066,1.592-0.944,1.023-1.72
						c-0.456-0.622-1.027-1.148-1.442-1.8c-0.507-0.796-0.719-1.765-1.616-2.244C543.161,196.307,542.321,196.488,541.863,197.182z"
						/>
				</g>
				<g style="display:inline;opacity:0.1;">
					<path d="M576.661,192.878c-0.14,0.863-0.086,1.614-0.637,2.343c-0.551,0.73-1.247,1.227-1.625,2.085
						c-0.323,0.734,0.402,1.68,1.204,1.497c2.561-0.584,4.521-3.36,3.981-5.984C579.245,191.171,576.932,191.204,576.661,192.878z"
						/>
					<path d="M573.205,185.885c-0.305,1.075-0.091,2.226-0.317,3.34c-0.202,0.999-0.458,2.043-0.776,3.01
						c-0.234,0.71,0.525,1.71,1.305,1.249c1.301-0.77,2.223-1.694,2.731-3.156c0.435-1.25,0.833-3.311,0.133-4.51
						C575.639,184.716,573.647,184.328,573.205,185.885z"/>
					<path d="M570.116,196.659c-0.58,0.823-1.221,1.7-2.119,2.2c-0.85,0.474-1.275,1.426-0.733,2.324
						c0.551,0.913,1.563,0.94,2.397,0.434c1.492-0.906,2.552-2.311,2.839-4.044C572.718,196.252,570.852,195.614,570.116,196.659z"
						/>
				</g>
				<g style="display:inline;opacity:0.1;">
					<path d="M557.993,162.779c0.905,0.042,1.689-0.52,1.819-1.45c0.233-1.674-1.413-3.17-2.678-4.046
						c-1.304-0.903-2.987-1.603-4.526-0.893c-0.976,0.451-0.968,1.562-0.278,2.244c0.802,0.792,1.849,1.319,2.694,2.079
						C555.938,161.534,556.655,162.718,557.993,162.779z"/>
					<path d="M563.327,167.328c0.524-0.987-0.121-2.268-0.68-3.088c-0.296-0.435-0.715-0.817-1.208-1.018
						c-0.664-0.272-1.609-0.116-1.884,0.642c-0.178,0.491-0.107,0.91,0.071,1.382c0.09,0.236,0.204,0.429,0.334,0.651
						c0.018,0.031,0.03,0.051,0.04,0.066c0.007,0.016,0.015,0.035,0.025,0.059c0.298,0.674,0.526,1.436,1.122,1.91
						C561.936,168.557,562.91,168.113,563.327,167.328z"/>
					<path d="M566.465,162.504c-0.272-1.853-1.381-3.501-2.672-4.812c-1.04-1.057-2.824-2.743-4.435-2.13
						c-0.38,0.145-0.516,0.532-0.504,0.901c0.044,1.286,1.667,2.482,2.414,3.423c0.946,1.19,1.671,2.542,2.632,3.715
						C564.804,164.703,566.677,163.956,566.465,162.504z"/>
					<path d="M562.906,173.923c0.288,0.02,0.571-0.022,0.84-0.124c0.414-0.157,0.705-0.527,0.889-0.91
						c0.192-0.398,0.169-0.913,0.139-1.34c-0.032-0.444-0.253-0.808-0.483-1.175c-0.094-0.093-0.189-0.187-0.283-0.28
						c-0.119-0.068-0.239-0.135-0.359-0.203c-0.317-0.127-0.661-0.132-0.986-0.04c-0.59,0.167-1.038,0.675-1.111,1.294
						c-0.055,0.458-0.134,0.908-0.106,1.371c0.039,0.136,0.078,0.273,0.116,0.409c0.079,0.206,0.202,0.379,0.369,0.518
						C562.187,173.695,562.538,173.898,562.906,173.923z"/>
					<path d="M566.929,170.668c0.594-0.115,1.075-0.573,1.148-1.189c0.073-0.617-0.084-1.178-0.32-1.743
						c-0.193-0.464-0.513-1.071-0.957-1.345c-0.672-0.415-1.598-0.136-1.7,0.727c-0.052,0.437,0.079,0.897,0.14,1.33
						c0.027,0.191,0.039,0.382,0.052,0.574c0.019,0.291,0.11,0.558,0.192,0.837C565.643,170.408,566.392,170.772,566.929,170.668z"
						/>
				</g>
			</g>
		</g>
		<g>
			<defs>
				<path id="SVGID_1_" d="M585.051,206.515c0-0.004-47.278,0.315-47.278,0.319c0.008,0.927,2.392-37.048,14.517-59.46
					c0.826-1.528,8.246-3.214,11.542-0.216C578.274,160.296,585.055,207.117,585.051,206.515z"/>
			</defs>
			<clipPath id="SVGID_2_">
				<use xlink:href="#SVGID_1_"  style="overflow:visible;"/>
			</clipPath>
			<g style="clip-path:url(#SVGID_2_);">
				<path style="opacity:0.8;fill:none;stroke:#FFFFFF;stroke-width:1.5;stroke-miterlimit:10;" d="M557.031,197.094
					c-1.293,0.125-17.936,0.088-24.953-0.012c0-0.282,0-0.564,0-0.88c0-0.316,0-0.665-0.001-1.081
					c0.001-0.33,0.001-0.659,0.001-0.989c0.001-0.948,0.002-1.902,0.005-2.859c0.001-0.319,0.002-0.638,0.003-0.958
					c0.054-2.087,0.047-4.189-0.028-6.303c-0.025-0.705-0.058-1.411-0.099-2.118c-1.166-5.878,0.343-11.831-1.92-17.123
					c5.282,0,9.81,0,15.189,0.068c0.833,0.01,11.978-0.068,13.487-0.068C557.205,175.355,557.205,175.355,557.031,197.094z"/>
				<g id="Layer_2_00000003072266157260059780000017938281706000092069_" style="opacity:0.8;">
					<g id="Layer_1-2_00000021800550658258657750000006097254424644108465_">
						<path style="fill:#FFFFFF;" d="M546.728,184.14c0.401-0.084,0.702-0.31,0.921-0.66c-0.018,0.046-0.036,0.092-0.061,0.158
							l0.617,0.015l-0.367,0.549l0.143,0.003c0.277,0.006,0.555,0.019,0.832,0.017c0.103-0.001,0.157,0.036,0.184,0.133
							c0.011,0.032,0.024,0.063,0.038,0.093c0.091,0.227,0.151,0.494,0.526,0.354c-0.214,0.434-0.515,0.676-0.932,0.767
							c-0.107,0.021-0.215,0.03-0.324,0.026c-0.352-0.003-0.704-0.007-1.056-0.01s-0.705-0.005-1.058-0.006
							c-0.353-0.001-0.707-0.001-1.061,0c-0.354,0.001-0.709,0.004-1.065,0.007c-0.401,0.005-0.739-0.135-0.976-0.378
							c-0.237-0.243-0.373-0.589-0.368-0.998c0.005-0.435,0.008-0.866,0.009-1.292c0.001-0.426-0.001-0.846-0.006-1.262
							c-0.007-0.355,0.127-0.627,0.464-0.793c0.033-0.021,0.056-0.054,0.064-0.091c0.039-0.167,0.116-0.233,0.294-0.236
							c0.143-0.003,0.286-0.003,0.429-0.004c0.229-0.002,0.277,0.029,0.372,0.249c0.129-0.001,0.266,0.004,0.401-0.005
							c0.037-0.003,0.082-0.04,0.102-0.074c0.091-0.147,0.178-0.296,0.258-0.449c0.089-0.169,0.234-0.244,0.423-0.245
							c0.305,0,0.611,0.002,0.916,0.005c0.305,0.003,0.61,0.007,0.914,0.012c0.192,0.002,0.344,0.082,0.438,0.261
							c0.078,0.148,0.174,0.288,0.255,0.435c0.039,0.071,0.087,0.099,0.168,0.096c0.248-0.008,0.49,0.026,0.714,0.146
							c0.436,0.234,0.698,0.593,0.714,1.079c0.012,0.376,0.015,0.754,0.014,1.135c0,0.381-0.005,0.765-0.006,1.15
							c-0.003,0.022-0.007,0.044-0.012,0.066c-0.03-0.056-0.052-0.096-0.07-0.136c-0.175-0.405-0.352-0.809-0.529-1.21
							c-0.177-0.401-0.356-0.797-0.534-1.192c-0.047-0.103-0.101-0.142-0.211-0.135c-0.119,0.007-0.24-0.004-0.335-0.006
							c0.112,0.258,0.225,0.512,0.327,0.772c0.029,0.086,0.036,0.177,0.02,0.265l-0.176-0.389c-0.148,0.337-0.288,0.657-0.43,0.98
							c0.115-0.383,0.088-0.748-0.121-1.122c-0.128,0.284-0.25,0.547-0.369,0.816c-0.162,0.363-0.324,0.734-0.489,1.108
							l-0.477-0.005c-0.002-0.019-0.006-0.037-0.012-0.055c-0.133-0.313-0.267-0.624-0.403-0.931
							c-0.136-0.307-0.274-0.61-0.413-0.91c-0.013-0.021-0.027-0.042-0.043-0.061c-0.176,0.294-0.225,0.599-0.187,0.93
							c-0.114-0.26-0.228-0.517-0.353-0.795c-0.076,0.17-0.139,0.313-0.203,0.456c-0.007-0.41,0.14-0.764,0.393-1.098
							c-0.149,0-0.268,0.008-0.386-0.001c-0.103-0.008-0.147,0.033-0.187,0.121c-0.103,0.231-0.208,0.465-0.314,0.7
							s-0.213,0.474-0.322,0.715s-0.218,0.484-0.329,0.728c-0.11,0.244-0.221,0.49-0.332,0.736
							c-0.017,0.038-0.031,0.078-0.051,0.128c0.056-0.001,0.093-0.002,0.131-0.003c0.163-0.005,0.362,0.049,0.477-0.031
							c0.121-0.083,0.168-0.29,0.235-0.449c0.042-0.101,0.094-0.139,0.203-0.138c0.317,0.004,0.635-0.005,0.958-0.007l-0.353-0.555
							c0.217-0.001,0.393,0.009,0.568-0.007c0.089-0.008,0.131,0.021,0.184,0.083c0.197,0.234,0.442,0.388,0.746,0.435
							c0.074,0.164,0.148,0.328,0.227,0.505C546.572,184.46,546.65,184.3,546.728,184.14z M547.148,184.643
							c0.238-0.101,0.459-0.226,0.659-0.439c-0.155-0.003-0.28-0.008-0.406-0.006c-0.027-0.001-0.071,0.018-0.081,0.04
							c-0.06,0.134-0.113,0.271-0.17,0.407c-0.251,0.034-0.501,0.086-0.753,0.095c-0.178,0.007-0.357-0.046-0.536-0.072
							l-0.016,0.041c0.051,0.022,0.101,0.062,0.153,0.063c0.284,0.008,0.568,0,0.852,0.013
							C546.98,184.791,547.087,184.78,547.148,184.643z M545.404,182.15c0.251-0.355,0.65-0.547,1.058-0.548
							c0.408-0.001,0.827,0.189,1.117,0.597c0.129-0.155,0.116-0.397,0.308-0.515c-0.195-0.226-0.428-0.391-0.68-0.499
							s-0.519-0.158-0.783-0.156c-0.264,0.003-0.524,0.058-0.757,0.163s-0.442,0.259-0.602,0.459
							C545.293,181.742,545.255,182.001,545.404,182.15z M543.792,180.914c-0.219,0.003-0.394,0.177-0.39,0.389
							c0.004,0.212,0.185,0.38,0.405,0.376l0,0c0.219-0.007,0.394-0.179,0.396-0.389
							C544.193,181.079,544.011,180.914,543.792,180.914L543.792,180.914z M545.135,184.179c0.223,0.213,0.43,0.368,0.702,0.456
							c-0.058-0.14-0.102-0.259-0.16-0.371c-0.023-0.043-0.063-0.073-0.109-0.084C545.439,184.171,545.307,184.178,545.135,184.179
							L545.135,184.179z"/>
						<path style="fill:#FFFFFF;" d="M539.353,181.786l0.001,0.511l-0.958,0.015c-0.031,0.437-0.062,0.869-0.093,1.298
							s-0.061,0.854-0.091,1.276c-0.023,0.015-0.031,0.024-0.039,0.025c-0.271,0.018-0.266,0.017-0.281-0.249
							c-0.021-0.387-0.043-0.774-0.066-1.16c-0.022-0.386-0.045-0.772-0.068-1.156c-0.369,0.001-0.747-0.015-1.123,0.007
							c-0.211,0.012-0.226,0.064-0.229,0.276c-0.005,0.407,0.017,0.818-0.026,1.221c-0.068,0.652-0.525,1.06-1.181,1.088
							c-0.194,0.011-0.389-0.006-0.579-0.051c-0.593-0.152-0.933-0.626-0.937-1.282c-0.005-0.592,0-1.185,0-1.8
							c0.193,0,0.39-0.004,0.586,0.006c0.022,0,0.058,0.083,0.057,0.125c-0.016,0.516-0.038,1.031-0.057,1.546
							c-0.002,0.057,0,0.114,0.003,0.171c0.031,0.597,0.582,0.937,1.13,0.696c0.278-0.125,0.399-0.365,0.409-0.652
							c0.014-0.407,0.012-0.815,0-1.222c-0.007-0.251,0.105-0.429,0.315-0.526c0.173-0.079,0.369-0.143,0.556-0.146
							c0.432-0.008,0.864-0.009,1.297-0.011c0.433-0.002,0.867-0.005,1.302-0.012C539.306,181.779,539.329,181.782,539.353,181.786z
							"/>
						<path style="fill:#FFFFFF;" d="M552.561,184.86c-0.234,0.047-0.389-0.019-0.534-0.218c-0.227-0.312-0.461-0.62-0.699-0.929
							c-0.238-0.309-0.482-0.62-0.729-0.938c0,0,0.001,0.512,0,1.027c0,0.515-0.002,1.034-0.002,1.034l-0.574-0.008
							c0,0,0.001-0.194,0.002-0.484c0.001-0.29,0.002-0.676,0.001-1.06c0-0.384-0.001-0.765-0.003-1.05s-0.002-0.475-0.002-0.475
							c0.137,0.002,0.274-0.003,0.408,0.011c0.046,0.005,0.097,0.052,0.129,0.092c0.223,0.277,0.444,0.556,0.665,0.835
							c0.221,0.28,0.441,0.561,0.661,0.843c0.027,0.037,0.058,0.072,0.11,0.135c0,0,0-0.472-0.001-0.942
							c-0.001-0.47-0.002-0.94-0.002-0.94l0.569,0.005c0,0,0.002,0.763,0.002,1.528C552.562,184.091,552.561,184.86,552.561,184.86z
							"/>
						<path style="fill:#FFFFFF;" d="M539.589,182.164l0.885-0.02l-0.001,1.267l0.021,0l0.001-0.345l1.352-0.034l-0.003-1.29
							l0.579-0.014c0,0,0.001,0.188,0.003,0.471c0.001,0.283,0.002,0.665,0,1.05c-0.002,0.386-0.005,0.775-0.009,1.069
							c-0.003,0.294-0.006,0.49-0.006,0.49l-0.57,0.012l0.012-1.257l-1.391,0.033c0.061,0.292-0.004,0.554-0.107,0.812
							s-0.242,0.512-0.33,0.79c-0.039-0.08-0.065-0.125-0.084-0.173c-0.086-0.21-0.163-0.425-0.258-0.631
							c-0.08-0.176-0.117-0.37-0.109-0.565c0.005-0.265,0.007-0.529,0.008-0.793c0.001-0.264,0-0.526,0.001-0.788
							C539.582,182.226,539.587,182.203,539.589,182.164z M540.022,184.094c-0.025-0.019-0.047-0.05-0.07-0.05
							c-0.081,0.002-0.163,0.015-0.244,0.024c0.006,0.056,0,0.115,0.018,0.167c0.053,0.146,0.11,0.291,0.177,0.432
							c0.019,0.041,0.077,0.09,0.116,0.088c0.039-0.002,0.098-0.052,0.119-0.095c0.069-0.143,0.128-0.29,0.184-0.439
							c0.018-0.048,0.03-0.147,0.023-0.149c-0.079-0.022-0.16-0.034-0.242-0.036C540.079,184.035,540.051,184.072,540.022,184.094z"
							/>
						<path style="fill:#FFFFFF;" d="M534.006,181.583c-0.123,0-0.246-0.006-0.368,0.002c-0.086,0.005-0.128-0.031-0.162-0.104
							c-0.096-0.205-0.042-0.478,0.128-0.621c0.228-0.193,0.511-0.223,0.717-0.079c0.252,0.177,0.346,0.474,0.217,0.713
							c-0.027,0.044-0.072,0.075-0.124,0.084C534.279,181.589,534.142,181.582,534.006,181.583L534.006,181.583z"/>
						<path style="fill:#FFFFFF;" d="M540.469,181.862l-0.867,0.019c-0.009-0.224,0.162-0.404,0.393-0.423
							C540.252,181.437,540.433,181.587,540.469,181.862z"/>
						<path style="fill:#FFFFFF;" d="M548.383,182.907c0.107,0.25,0.213,0.497,0.323,0.759l-0.484-0.013
							C548.277,183.403,548.329,183.158,548.383,182.907z"/>
						<path style="fill:#FFFFFF;" d="M537.981,185.052c0.136-0.037,0.193,0.004,0.143,0.12c-0.038,0.087-0.086,0.193-0.161,0.234
							c-0.181,0.102-0.315,0.212-0.248,0.454l-0.149,0.009c-0.052-0.267,0.005-0.404,0.216-0.541
							C537.883,185.262,538.007,185.212,537.981,185.052z"/>
						<path style="fill:#FFFFFF;" d="M549.829,184.828l-0.259-0.004c0.033-0.116,0.063-0.224,0.1-0.358
							C549.726,184.593,549.773,184.701,549.829,184.828z"/>
						<path style="fill:#FFFFFF;" d="M547.148,184.643c-0.061,0.137-0.168,0.148-0.298,0.141c-0.283-0.013-0.567-0.005-0.852-0.013
							c-0.051,0-0.102-0.041-0.153-0.063l0.016-0.041c0.179,0.026,0.358,0.079,0.536,0.072c0.252-0.009,0.503-0.062,0.754-0.095
							L547.148,184.643z"/>
						<path style="fill:#FFFFFF;" d="M544.738,183.618l-0.471,0.005l0.316-0.725C544.637,183.143,544.688,183.376,544.738,183.618z"
							/>
					</g>
				</g>
			</g>
		</g>
		<g>
			<g>
				<g>
					<path style="fill:#F7A9A0;" d="M553.459,153.752c2.255,0.517,6.929-2.168,8.512-5.396c0.107-0.222-0.326-2.484-0.723-5.258
						c-0.234-1.684-0.455-3.565-0.533-5.296c-0.014-0.355-10.737,3.125-10.737,3.125s1.23,3.58,1.347,6.599
						c0.007,0.252-0.007,0.488-0.043,0.714c-0.002,0.033-0.01,0.073-0.01,0.118C551.113,149.717,551.046,153.199,553.459,153.752z"
						/>
				</g>
				<path style="fill:#263238;" d="M551.279,148.239c0,0.035-0.006,0.077-0.006,0.118c0.341,0.031,0.71,0.034,1.113,0.008
					c6.383-0.428,7.71-8.501,7.944-10.543c-1.916,0.363-10.354,3.104-10.354,3.104s1.231,3.583,1.349,6.602
					C551.33,147.779,551.318,148.016,551.279,148.239z"/>
			</g>
			<g>
				<g>
					<path style="fill:#F7A9A0;" d="M562.125,124.237c1.226,3.837-0.662,14.994-3.37,17.511c-3.925,3.65-10.425,4.079-13.544-0.656
						c-3.024-4.59-0.306-19.086,2.726-21.381C552.401,116.33,560.313,118.569,562.125,124.237z"/>
				</g>
				<g>
					<g>
						<path style="fill:#263238;" d="M551.355,131.042c0.011-0.028,0.053,0.046,0.047,0.076c-0.147,0.748-0.19,1.63,0.45,1.991
							c0.02,0.011,0.011,0.049-0.013,0.041C551.027,132.897,551.095,131.727,551.355,131.042z"/>
						<path style="fill:#263238;" d="M552.155,130.367c1.225,0.107,0.921,2.548-0.214,2.449
							C550.825,132.719,551.129,130.277,552.155,130.367z"/>
					</g>
					<g>
						<path style="fill:#263238;" d="M546.961,130.621c-0.002-0.03-0.064,0.028-0.067,0.059c-0.07,0.759-0.278,1.617-0.993,1.783
							c-0.022,0.005-0.025,0.043,0.001,0.043C546.752,132.493,547.017,131.351,546.961,130.621z"/>
						<path style="fill:#263238;" d="M546.384,129.747c-1.205-0.244-1.604,2.184-0.487,2.41
							C546.996,132.379,547.394,129.951,546.384,129.747z"/>
					</g>
					<path style="fill:#263238;" d="M553.258,129.37c-0.322-0.125-0.598-0.294-0.904-0.451c-0.345-0.177-0.638-0.282-0.834-0.636
						c-0.105-0.19-0.014-0.495,0.161-0.615c0.407-0.279,0.883-0.167,1.307,0.029c0.46,0.212,0.76,0.494,0.982,0.948
						C554.185,129.087,553.682,129.535,553.258,129.37z"/>
					<path style="fill:#263238;" d="M545.593,128.4c0.345-0.013,0.662-0.083,1.002-0.131c0.384-0.055,0.695-0.058,0.996-0.329
						c0.162-0.145,0.174-0.463,0.048-0.634c-0.293-0.396-0.78-0.446-1.245-0.399c-0.504,0.051-0.88,0.219-1.238,0.576
						C544.809,127.83,545.138,128.417,545.593,128.4z"/>
					<path style="fill:#263238;" d="M551.181,138.148c-0.203,0.155-0.414,0.376-0.691,0.365c-0.266-0.011-0.56-0.168-0.789-0.291
						c-0.023-0.012-0.05,0.01-0.038,0.035c0.16,0.315,0.551,0.548,0.909,0.53c0.35-0.017,0.556-0.292,0.678-0.595
						C551.267,138.149,551.211,138.126,551.181,138.148z"/>
					<g>
						<g>
							<path style="fill:#263238;" d="M550.668,135.785c-0.505,0.604-1.172,0.885-1.861,0.932c-0.308,0.023-0.625-0.006-0.932-0.073
								c-0.061-0.009-0.121-0.023-0.174-0.042c-0.055-0.014-0.103-0.026-0.163-0.046c-0.087-0.024-0.126-0.103-0.13-0.188
								l0.001-0.006c0.004-0.028,0.007-0.05,0.017-0.076c0,0,0,0,0.001-0.006l0.01-0.066c0.057-0.584,0.223-1.463,0.223-1.463
								c-0.226,0.08-1.372,0.433-1.316,0.131c0.464-2.5,0.979-5.28,1.968-7.669c0.029-0.08,0.153-0.046,0.136,0.037
								c-0.351,2.42-1.124,4.762-1.515,7.187c0.363-0.088,0.958-0.262,1.261-0.218c0.08,0.034-0.352,1.692-0.357,1.957
								c0,0-0.002,0.011,0.002,0.028c0.963,0.247,1.737,0.043,2.768-0.496C550.667,135.672,550.721,135.731,550.668,135.785z"/>
						</g>
					</g>
					<g>
						<path style="fill:#263238;" d="M548.255,136.392c0,0,0.43,0.761,1.105,1.1c0.249,0.126,0.525,0.198,0.828,0.156
							c0.624-0.084,0.708-0.636,0.656-1.124c-0.041-0.401-0.18-0.76-0.18-0.76S549.68,136.48,548.255,136.392z"/>
						<path style="fill:#FF9BBC;" d="M549.36,137.492c0.249,0.126,0.525,0.198,0.828,0.156c0.624-0.084,0.708-0.636,0.656-1.124
							C550.189,136.51,549.493,136.87,549.36,137.492z"/>
					</g>
				</g>
				<path style="fill:#263238;" d="M545.864,123.218c0.532-0.909,1.129-1.817,1.73-1.936c0.601-0.119,0.808,1.336,2.112,1.586
					c1.76,0.338,2.82-1.186,5.322-1.054c3.594,0.19,4.799,3.36,4.263,8.428c-0.479,4.526,2.198,5.287,2.198,5.287
					s2.878-9.757,0.475-13.4c-2.403-3.643-8.664-5.891-13.377-3.276C546.87,119.806,545.864,123.218,545.864,123.218z"/>
				<g>
					<path style="fill:#F7A9A0;" d="M559.43,133.47c0,0,2.542-3.582,4.169-2.673c1.627,0.909-0.302,6.113-2.224,6.814
						c-1.922,0.7-2.605-1.066-2.605-1.066L559.43,133.47z"/>
					<path style="fill:#263238;" d="M563.009,132.275c0.031-0.002,0.036,0.041,0.01,0.051c-1.348,0.535-2.065,1.777-2.569,3.066
						c0.403-0.495,0.95-0.764,1.613-0.283c0.035,0.025,0.001,0.08-0.037,0.072c-0.55-0.122-0.948-0.029-1.323,0.409
						c-0.266,0.311-0.448,0.704-0.64,1.064c-0.064,0.12-0.28,0.054-0.234-0.084c0.003-0.01,0.007-0.021,0.011-0.031
						C559.818,134.825,561.167,132.435,563.009,132.275z"/>
				</g>
				<g>
					<path style="fill:#FFC727;" d="M551.731,117.533c1.287-0.465,2.817-0.936,4.566-1.04c1.749-0.104,7.19,0.68,8.43,1.862
						c1.24,1.183,1.245,6.359,1.231,7.116c-0.014,0.757-0.652,5.291-2.375,6.282c-1.722,0.991-1.37-6.761-3.807-9.5
						C557.341,119.513,551.731,117.533,551.731,117.533z"/>
					<path style="opacity:0.1;" d="M551.73,117.534c0,0,5.611,1.979,8.046,4.719c2.439,2.736,2.085,10.49,3.81,9.501
						c0.759-0.437,1.159-1.134,1.538-2.325c-0.196-2.285-0.88-5.855-2.606-8.411c-1.616-2.394-4.579-3.745-7.807-4.327
						C553.609,116.892,552.614,117.214,551.73,117.534z"/>
					<g>
						<path style="fill:#FFC727;" d="M562.83,136.319c-0.012-2.073-1.745-7.734-3.737-11.044c-1.992-3.311-8.339-5.587-9.247-5.594
							c-2.204-0.018-2.755,1-3.09,0.781c-0.335-0.219,2.026-2.569,2.668-2.898c0.643-0.329,2.133-0.647,3.086-0.561
							c0.953,0.086,6.8,1.059,8.774,3.71c1.974,2.651,4.537,9.885,3.863,11.649c-0.162,0.423-0.755,0.664-0.978,1.264
							c-0.294,0.789-0.524,1.708-0.804,2.254C563.141,136.32,562.831,136.499,562.83,136.319z"/>
						<g>
							<path style="fill:#263238;" d="M558.681,123.82c0.527-0.279,1.022-0.588,1.496-0.953c0.467-0.359,0.937-0.762,1.307-1.223
								c0.027-0.034,0.082-0.001,0.058,0.037c-0.343,0.523-0.716,0.997-1.207,1.39c-0.471,0.378-1.034,0.68-1.613,0.857
								C558.657,123.948,558.624,123.85,558.681,123.82z"/>
							<path style="fill:#263238;" d="M562.986,134.26c0.067-0.145,0.174-0.27,0.254-0.409c0.091-0.158,0.169-0.324,0.226-0.498
								c0.108-0.333,0.121-0.678,0.301-0.986c0.142-0.244,0.336-0.449,0.529-0.654c0.219-0.234,0.436-0.479,0.462-0.811
								c0.004-0.044,0.071-0.041,0.069,0.003c-0.039,0.627-0.489,1.044-0.797,1.55c-0.197,0.324-0.214,0.706-0.353,1.053
								c-0.118,0.294-0.31,0.669-0.602,0.826C563.031,134.356,562.963,134.31,562.986,134.26z"/>
							<path style="fill:#263238;" d="M562.422,131.983c0.211-0.222,0.435-0.418,0.625-0.662c0.182-0.234,0.345-0.486,0.494-0.742
								c0.147-0.253,0.274-0.517,0.416-0.773c0.168-0.303,0.374-0.588,0.527-0.898c0.02-0.04,0.077-0.002,0.058,0.037
								c-0.159,0.321-0.262,0.671-0.411,0.998c-0.128,0.282-0.285,0.554-0.448,0.816c-0.158,0.253-0.333,0.491-0.536,0.71
								c-0.193,0.207-0.44,0.434-0.704,0.545C562.424,132.022,562.406,131.999,562.422,131.983z"/>
							<path style="fill:#263238;" d="M561.804,129.917c0.45-0.335,0.873-0.743,1.207-1.194c0.33-0.445,0.635-0.912,0.934-1.378
								c0.02-0.032,0.077-0.007,0.062,0.029c-0.232,0.53-0.458,1.057-0.814,1.519c-0.168,0.219-0.353,0.443-0.569,0.617
								c-0.235,0.189-0.505,0.337-0.778,0.465C561.811,129.991,561.77,129.942,561.804,129.917z"/>
							<path style="fill:#263238;" d="M561.115,127.932c0.242-0.123,0.407-0.316,0.583-0.516c0.194-0.219,0.383-0.444,0.564-0.673
								c0.174-0.221,0.354-0.436,0.528-0.657c0.175-0.222,0.35-0.455,0.42-0.733c0.009-0.037,0.071-0.026,0.067,0.012
								c-0.032,0.287-0.15,0.542-0.29,0.791c-0.153,0.273-0.322,0.534-0.52,0.776c-0.195,0.238-0.4,0.467-0.624,0.679
								c-0.195,0.185-0.423,0.372-0.696,0.412C561.096,128.029,561.063,127.958,561.115,127.932z"/>
							<path style="fill:#263238;" d="M560.687,125.444c0.204-0.175,0.405-0.35,0.595-0.541c0.188-0.19,0.368-0.389,0.544-0.59
								c0.184-0.21,0.375-0.42,0.546-0.641c0.027-0.035,0.078-0.002,0.058,0.037c-0.131,0.251-0.261,0.496-0.43,0.725
								c-0.165,0.225-0.347,0.433-0.542,0.632c-0.191,0.196-0.392,0.387-0.607,0.557c-0.207,0.163-0.443,0.354-0.701,0.425
								c-0.039,0.011-0.077-0.04-0.051-0.073C560.258,125.769,560.49,125.613,560.687,125.444z"/>
							<path style="fill:#263238;" d="M557.177,122.543c0.22-0.24,0.435-0.475,0.677-0.693c0.246-0.222,0.508-0.428,0.777-0.62
								c0.527-0.378,1.075-0.718,1.672-0.973c0.033-0.014,0.073,0.031,0.039,0.056c-1.031,0.771-2.095,1.5-3.119,2.282
								C557.188,122.621,557.147,122.576,557.177,122.543z"/>
							<path style="fill:#263238;" d="M556.045,120.695c0.225-0.234,0.472-0.441,0.744-0.618c0.569-0.371,1.198-0.63,1.833-0.867
								c0.04-0.015,0.072,0.038,0.032,0.061c-0.558,0.32-1.123,0.631-1.662,0.983c-0.266,0.173-0.532,0.353-0.777,0.555
								c-0.247,0.203-0.442,0.453-0.679,0.665c-0.018,0.017-0.051-0.002-0.042-0.027
								C555.602,121.163,555.837,120.912,556.045,120.695z"/>
							<path style="fill:#263238;" d="M554.381,119.773c0.208-0.232,0.44-0.436,0.69-0.621c0.475-0.351,1.002-0.609,1.565-0.785
								c0.037-0.012,0.058,0.046,0.024,0.064c-0.521,0.268-1.022,0.584-1.49,0.937c-0.235,0.177-0.46,0.367-0.688,0.554
								c-0.227,0.186-0.424,0.426-0.668,0.587c-0.02,0.013-0.04-0.014-0.029-0.032C553.937,120.22,554.183,119.994,554.381,119.773z
								"/>
							<path style="fill:#263238;" d="M553.208,118.663c0.228-0.162,0.465-0.312,0.702-0.46c0.235-0.146,0.473-0.289,0.743-0.356
								c0.041-0.01,0.054,0.043,0.024,0.064c-0.444,0.308-0.883,0.626-1.321,0.944c-0.413,0.299-0.702,0.7-1.04,1.073
								c-0.015,0.016-0.044-0.003-0.036-0.023C552.471,119.405,552.769,118.974,553.208,118.663z"/>
							<path style="fill:#263238;" d="M551.681,118.228c0.42-0.365,0.914-0.585,1.433-0.767c0.036-0.013,0.06,0.049,0.024,0.064
								c-0.483,0.199-0.916,0.526-1.314,0.859c-0.407,0.34-0.746,0.741-1.069,1.159c-0.016,0.02-0.054,0.007-0.043-0.02
								C550.919,119.02,551.274,118.583,551.681,118.228z"/>
							<path style="fill:#263238;" d="M549.593,119.018c0.057-0.105,0.127-0.205,0.197-0.302c0.143-0.195,0.317-0.37,0.497-0.531
								c0.37-0.33,0.803-0.575,1.23-0.824c0.038-0.022,0.071,0.039,0.032,0.061c-0.42,0.234-0.804,0.528-1.157,0.854
								c-0.174,0.161-0.33,0.335-0.479,0.519c-0.072,0.09-0.138,0.184-0.203,0.28c-0.06,0.09-0.114,0.205-0.19,0.281
								c-0.02,0.02-0.061,0.003-0.057-0.027C549.475,119.224,549.542,119.111,549.593,119.018z"/>
							<path style="fill:#263238;" d="M548.344,119.047c0.129-0.154,0.263-0.3,0.409-0.438c0.145-0.138,0.295-0.265,0.456-0.384
								c0.164-0.121,0.334-0.236,0.493-0.364c0.038-0.031,0.08,0.027,0.039,0.056c-0.168,0.117-0.319,0.26-0.465,0.404
								c-0.138,0.136-0.277,0.271-0.415,0.407c-0.138,0.136-0.276,0.271-0.413,0.407c-0.138,0.138-0.264,0.3-0.416,0.422
								c-0.025,0.02-0.056-0.007-0.042-0.035C548.076,119.348,548.22,119.195,548.344,119.047z"/>
						</g>
					</g>
				</g>
			</g>
		</g>
	</g>
</g>
<g id="Layer_1">
</g>
</svg>
