<?xml version="1.0" encoding="iso-8859-1"?>
<!-- Generator: Adobe Illustrator 25.3.1, SVG Export Plug-In . SVG Version: 6.00 Build 0)  -->
<svg version="1.1" xmlns="http://www.w3.org/2000/svg" xmlns:xlink="http://www.w3.org/1999/xlink" x="0px" y="0px"
	 viewBox="0 0 750 500" style="enable-background:new 0 0 750 500;" xml:space="preserve">
<g id="char_x5F_3_x5F_hand_x5F_z_x5F_l">
	<g>
		<g>
			<path style="fill:#C95F50;" d="M449.094,333.941c-6.167,14.979-16.252,29.99-19.729,31.397
				c-4.77,1.93-27.545-10.171-33.352-12.644c-2.348-1,9.229-18.645,11.524-17.17c5.703,3.667,17.699,9.29,17.977,9.471
				c0.576,0.375,13.763-12.127,17.477-16.029C451.251,320.289,452.157,326.501,449.094,333.941z"/>
			<g>
				<g>
					<path style="fill:#C95F50;" d="M411.819,339.149c0,0-3.453-4.605-5.416-6.293c-1.963-1.688-11.595-5.287-12.49-3.251
						c-1.156,2.629,3.995,5.802,6.721,7.026c0,0-2.68,6.079,0.524,9.156C404.361,348.864,411.819,339.149,411.819,339.149z"/>
				</g>
				<path style="fill:#C95F50;" d="M397.815,353.502c-2.045-0.832-11.078-5.472-13.303-7.325c-2.225-1.854-8.241-7.651-6.995-9.499
					c1.247-1.848,3.144-0.291,3.144-0.291s-2.153-2.851-0.729-4.596c1.424-1.746,4.296,0.773,4.296,0.773s-1.997-3.089-0.452-4.728
					c1.545-1.64,4.008,1.376,4.008,1.376s-1.958-2.739-0.116-3.554c2.215-0.981,5.254,4.476,7.864,6.338
					c0.593,0.423,12.623,7.715,12.623,7.715L397.815,353.502z"/>
				<g>
					<path style="fill:#263238;" d="M387.568,328.955c2.244,4.008,3.919,5.373,7.894,7.53c0.078,0.042,0.032,0.167-0.053,0.131
						c-4.084-1.758-6.432-3.167-8.041-7.561C387.29,328.839,387.462,328.764,387.568,328.955z"/>
					<path style="fill:#263238;" d="M384.056,332.24c2.694,3.959,4.499,5.456,8.495,8.021c0.056,0.036,0.001,0.136-0.059,0.104
						c-4.131-2.188-6.441-3.648-8.614-7.957C383.779,332.213,383.933,332.059,384.056,332.24z"/>
					<path style="fill:#263238;" d="M380.869,336.51c2.886,3.645,4.793,5.371,8.992,7.363c0.099,0.047,0.04,0.196-0.064,0.158
						c-4.48-1.615-6.875-3.752-9.029-7.422C380.62,336.359,380.687,336.28,380.869,336.51z"/>
				</g>
				<path style="fill:#263238;" d="M393.831,330.432c0.675,3.158,4.357,4.534,6.913,5.919c0.194,0.105,0.178,0.299,0.068,0.432
					c-0.953,2.623-1.534,6.6,0.163,9.008c0.05,0.07-0.044,0.151-0.103,0.087c-2.171-2.335-1.919-6.289-0.691-9.095
					c-2.643-1.38-6.275-2.922-6.381-6.345C393.8,330.418,393.827,330.412,393.831,330.432z"/>
			</g>
		</g>
		<g>
			<path style="fill:#00233A;" d="M442.994,351.434l-10.177-15.147c0,0,4.069-4.579,10.082-9.76
				c6.013-5.181,9.615-3.398,7.142,7.012C447.568,343.948,442.994,351.434,442.994,351.434z"/>
			<path style="fill:#263238;" d="M435.03,334.797c0.882,1.036,1.614,2.212,2.405,3.317c0.755,1.055,1.512,2.112,2.232,3.192
				c1.497,2.242,2.942,4.508,4.342,6.81c0.024,0.04-0.04,0.087-0.068,0.048c-1.558-2.162-3.085-4.341-4.585-6.544
				c-0.746-1.095-1.464-2.209-2.18-3.323c-0.736-1.145-1.566-2.254-2.215-3.452C434.94,334.804,434.999,334.761,435.03,334.797z"/>
		</g>
	</g>
</g>
<g id="Layer_1">
</g>
</svg>
