<?xml version="1.0" encoding="iso-8859-1"?>
<!-- Generator: Adobe Illustrator 25.3.1, SVG Export Plug-In . SVG Version: 6.00 Build 0)  -->
<svg version="1.1" xmlns="http://www.w3.org/2000/svg" xmlns:xlink="http://www.w3.org/1999/xlink" x="0px" y="0px"
	 viewBox="0 0 750 500" style="enable-background:new 0 0 750 500;" xml:space="preserve">
<g id="char_x5F_4_x5F_hand_x5F_z_x5F_l">
	<g>
		<path style="display:none;fill:#063359;" d="M555.016,155.362c-5.263,2.509-23.685,7.264-31.348,2.15
			c-6.867-4.583-7.458-37.484-4.597-48.028c1.005-3.705,15.628,3.386,17.175,6.497c1.33,2.673-0.829,27.512,0.231,28.055
			c1.789,0.917,7.585,1.603,16.826,2.892C561.997,148.142,558.725,153.594,555.016,155.362z"/>
		<g>
			<path style="fill:#00233A;" d="M536.624,126.864l-19.552-9.245c0,0-3.356,33.493,6.193,40.551
				c2.198,1.625,16.852,4.324,30.653-1.589c4.273-1.831,10.903-8.142-1.79-10.143c-12.693-2.001-15.005-2.713-15.237-3.029
				C536.658,143.093,536.624,126.864,536.624,126.864z"/>
			<g>
				<g style="opacity:0.1;">
					<path d="M527.215,134.143c0.731,0.535,1.695,0.501,2.318-0.203c1.12-1.266,0.575-3.422,0.006-4.852
						c-0.587-1.474-1.603-2.988-3.277-3.246c-1.062-0.164-1.67,0.767-1.472,1.716c0.23,1.103,0.811,2.121,1.095,3.222
						C526.192,131.969,526.134,133.352,527.215,134.143z"/>
					<path d="M529.145,140.882c0.983-0.533,1.153-1.957,1.141-2.949c-0.006-0.526-0.144-1.076-0.444-1.516
						c-0.403-0.593-1.276-0.987-1.925-0.507c-0.42,0.311-0.593,0.699-0.705,1.191c-0.056,0.246-0.068,0.471-0.082,0.727
						c-0.002,0.035-0.003,0.059-0.003,0.077c-0.003,0.017-0.007,0.037-0.011,0.063c-0.125,0.726-0.356,1.487-0.12,2.212
						C527.306,141.137,528.363,141.306,529.145,140.882z"/>
					<path d="M534.426,138.597c0.798-1.694,0.785-3.681,0.435-5.487c-0.282-1.456-0.837-3.847-2.518-4.227
						c-0.397-0.09-0.724,0.158-0.918,0.473c-0.674,1.096,0.017,2.99,0.119,4.187c0.13,1.514-0.012,3.042,0.14,4.551
						C531.827,139.512,533.801,139.925,534.426,138.597z"/>
					<path d="M525.147,146.145c0.229,0.175,0.488,0.297,0.769,0.361c0.432,0.099,0.879-0.05,1.245-0.267
						c0.38-0.226,0.646-0.667,0.856-1.04c0.219-0.388,0.236-0.813,0.248-1.246c-0.027-0.13-0.054-0.26-0.081-0.39
						c-0.062-0.122-0.124-0.245-0.187-0.367c-0.194-0.281-0.478-0.476-0.8-0.579c-0.584-0.187-1.238-0.011-1.641,0.463
						c-0.298,0.351-0.614,0.682-0.846,1.084c-0.043,0.135-0.086,0.27-0.129,0.405c-0.048,0.216-0.041,0.428,0.021,0.636
						C524.674,145.557,524.855,145.921,525.147,146.145z"/>
					<path d="M530.299,145.656c0.558,0.232,1.212,0.117,1.613-0.356c0.402-0.474,0.581-1.028,0.697-1.629
						c0.095-0.494,0.165-1.176-0.054-1.65c-0.331-0.717-1.256-0.997-1.819-0.334c-0.285,0.336-0.43,0.791-0.619,1.186
						c-0.083,0.174-0.178,0.34-0.274,0.507c-0.145,0.253-0.217,0.526-0.303,0.804C529.372,144.729,529.794,145.446,530.299,145.656z
						"/>
				</g>
			</g>
			<path style="fill:#263238;" d="M517.614,122.632c1.624,0.513,3.187,1.26,4.75,1.932c1.542,0.662,3.079,1.335,4.611,2.018
				c3.093,1.378,6.241,2.691,9.239,4.269c0.07,0.037,0.031,0.142-0.047,0.116c-3.24-1.077-6.383-2.495-9.508-3.863
				c-1.568-0.687-3.126-1.397-4.675-2.125c-1.491-0.701-3.03-1.368-4.435-2.233C517.483,122.705,517.547,122.611,517.614,122.632z"
				/>
		</g>
	</g>
</g>
<g id="Layer_1">
</g>
</svg>
