<?xml version="1.0" encoding="iso-8859-1"?>
<!-- Generator: Adobe Illustrator 25.3.1, SVG Export Plug-In . SVG Version: 6.00 Build 0)  -->
<svg version="1.1" xmlns="http://www.w3.org/2000/svg" xmlns:xlink="http://www.w3.org/1999/xlink" x="0px" y="0px"
	 viewBox="0 0 750 500" style="enable-background:new 0 0 750 500;" xml:space="preserve">
<g id="char_x5F_1">
	<g>
		<g>
			<g>
				<g>
					<g>
						<path style="fill:#AD6359;" d="M178.869,260.708c0,0-16.576,31.213-16.581,31.235c-0.967,5.898-1.711,11.086-1.845,13.805
							c-0.003,0.014-0.006,0.029-0.002,0.044c-0.051,1.026-0.016,1.692,0.136,1.893c0.011,0.017,0.016,0.033,0.029,0.043
							c1.56,1.477,48.467,10.585,50.21,10.352c1.748-0.225,1.216-5.218-0.323-7.024c-1.552-1.809-17.945-13.327-17.945-13.327
							l16.281-31.246L178.869,260.708z"/>
						<path style="fill:#FFFFFF;" d="M165.377,285.714c0,0-3.084,6.207-3.088,6.229c-0.967,5.898-1.711,11.086-1.845,13.805
							c-0.003,0.014-0.006,0.029-0.002,0.044c0.008,1.023,0.055,1.706,0.136,1.893c0.011,0.017,0.016,0.033,0.029,0.043
							c1.56,1.477,48.467,10.585,50.21,10.352c1.748-0.225,1.216-5.218-0.323-7.024c-1.552-1.809-17.945-13.327-17.945-13.327
							l3.191-6.309L165.377,285.714z"/>
						<g>
							<g>
								<path style="fill:#263238;" d="M195.433,298.23c-3.051-1.042-6.957-1.119-9.679,0.767c-0.105,0.073,0,0.222,0.106,0.205
									c3.236-0.525,6.217-0.731,9.503-0.577C195.594,298.635,195.651,298.304,195.433,298.23z"/>
								<path style="fill:#263238;" d="M197.498,299.924c-3.051-1.042-6.957-1.119-9.679,0.767c-0.106,0.073,0,0.222,0.106,0.204
									c3.236-0.525,6.217-0.73,9.503-0.577C197.659,300.329,197.716,299.998,197.498,299.924z"/>
								<path style="fill:#263238;" d="M199.563,301.617c-3.051-1.042-6.957-1.119-9.679,0.767c-0.105,0.073,0,0.222,0.106,0.205
									c3.236-0.525,6.217-0.73,9.503-0.577C199.725,302.023,199.782,301.692,199.563,301.617z"/>
							</g>
							<path style="fill:#37474F;" d="M210.817,318.081c-1.745,0.234-48.648-8.873-50.212-10.354
								c-0.604-0.553,0.324-7.465,1.686-15.783c0.015-0.087,0.03-0.173,0.045-0.26l30.325,5.538l-0.111,0.511
								c0,0,16.394,11.516,17.943,13.327C212.029,312.861,212.562,317.855,210.817,318.081z"/>
							<path style="fill:#FFC727;" d="M162.333,291.678l-0.045,0.269c-1.355,8.316-2.291,15.228-1.683,15.781
								c0.708,0.671,10.827,2.927,21.796,5.169c13.126,2.676,27.466,5.316,28.418,5.19c1.744-0.234,1.206-5.226-0.326-7.031
								c-1.55-1.808-17.942-13.324-17.942-13.324l0.112-0.506l-10.113-1.849L162.333,291.678z"/>
							<path style="fill:#263238;" d="M210.64,316.16c-7.869-1.729-39.769-7.961-47.679-9.073c-0.064-0.009-0.073,0.034-0.01,0.05
								c7.762,1.884,39.712,7.858,47.664,9.153C210.782,316.317,210.806,316.196,210.64,316.16z"/>
							<path style="opacity:0.1;" d="M182.55,295.375c-0.108,5.216-0.235,12.909-0.15,17.521c13.126,2.676,27.466,5.316,28.418,5.19
								c1.744-0.234,1.206-5.226-0.326-7.031c-1.55-1.808-17.942-13.324-17.942-13.324l0.112-0.506L182.55,295.375z"/>
						</g>
					</g>
					<g>
						<path style="fill:#DBDBDB;stroke:#455A64;stroke-miterlimit:10;" d="M166.578,281.312l34.745,4.014
							c0,0,36.872-56.671,33.162-76.259c-2.041-10.776-38.685-27.702-38.685-27.702l-3.707-7.448H166.25
							c0,0-10.536,15.53-2.972,30.119c5.14,9.913,33.385,17.475,34.425,20.662C199.074,228.902,166.578,281.312,166.578,281.312z"/>
						<g>
							<g>
								<path style="fill:#263238;" d="M171.082,276.76c0.905-0.055,1.853,0.067,2.759,0.111c1.023,0.05,2.043,0.096,3.064,0.175
									c1.962,0.153,3.919,0.354,5.874,0.581c3.942,0.459,7.879,0.965,11.803,1.562c2.233,0.34,4.462,0.698,6.685,1.096
									c0.087,0.016,0.067,0.148-0.02,0.141c-3.923-0.328-7.839-0.738-11.756-1.133c-3.909-0.394-7.833-0.789-11.724-1.334
									c-1.118-0.157-2.236-0.301-3.348-0.5c-1.097-0.196-2.264-0.274-3.338-0.566C171.015,276.876,171.001,276.765,171.082,276.76
									z"/>
							</g>
							<path style="fill:#263238;" d="M198.336,276.232c3.071-4.695,19.588-34.542,22.057-39.567
								c1.239-2.51,2.428-5.044,3.508-7.621c1.082-2.574,2.1-5.181,2.857-7.855c0.737-2.65,1.418-5.443,0.854-8.08
								c-0.295-1.309-0.82-2.582-1.57-3.728c-0.331-0.598-0.781-1.125-1.18-1.683c-0.445-0.524-0.885-1.057-1.367-1.552
								c-3.875-3.976-8.71-6.923-13.571-9.651c-4.898-2.707-9.996-5.048-15.08-7.418c-1.267-0.603-2.534-1.208-3.786-1.848
								c-0.624-0.325-1.245-0.658-1.85-1.023c-0.579-0.371-1.247-0.772-1.584-1.423c-1.414-2.467-1.993-5.287-2.259-8.066
								c0.332,2.769,0.988,5.573,2.436,7.958c0.334,0.608,0.946,0.944,1.539,1.309c0.605,0.345,1.228,0.659,1.856,0.967
								c1.261,0.606,2.54,1.178,3.82,1.749c5.117,2.292,10.255,4.571,15.218,7.222c2.482,1.323,4.92,2.739,7.254,4.326
								c2.331,1.585,4.578,3.326,6.564,5.365c0.498,0.507,0.956,1.056,1.419,1.598c0.42,0.579,0.887,1.124,1.241,1.753
								c0.79,1.198,1.365,2.556,1.69,3.974c0.373,1.428,0.232,2.912,0.09,4.325c-0.132,0.7-0.228,1.411-0.392,2.102
								c-0.178,0.686-0.325,1.383-0.529,2.061c-0.785,2.723-1.825,5.348-2.927,7.937c-1.1,2.592-2.307,5.133-3.562,7.647
								C218.572,242.035,201.522,271.614,198.336,276.232z"/>
						</g>
					</g>
				</g>
			</g>
			<g>
				<g>
					<g>
						<path style="fill:#AD6359;" d="M197.035,306.981c0,0,0.264,31.251,0.263,31.273c0.019,5.977,0.142,11.216,0.459,13.921
							c-0.001,0.015-0.001,0.029,0.006,0.044c0.118,1.02,0.264,1.672,0.447,1.845c0.014,0.015,0.021,0.03,0.035,0.037
							c1.783,1.199,49.55,2.44,51.23,1.922c1.687-0.51,0.338-5.347-1.478-6.875c-1.83-1.528-19.899-10.181-19.899-10.181
							l-0.56-31.235L197.035,306.981z"/>
						<path style="fill:#FFFFFF;" d="M197.244,331.838c0,0,0.054,6.394,0.054,6.416c0.019,5.977,0.142,11.216,0.459,13.921
							c-0.001,0.015-0.001,0.029,0.006,0.044c0.177,1.008,0.336,1.674,0.447,1.845c0.014,0.015,0.021,0.03,0.035,0.037
							c1.783,1.199,49.55,2.44,51.23,1.922c1.687-0.51,0.338-5.347-1.478-6.875c-1.83-1.528-19.899-10.181-19.899-10.181
							l0.034-6.512L197.244,331.838z"/>
						<g>
							<g>
								<path style="fill:#263238;" d="M231.025,338.984c-3.181-0.524-7.046,0.045-9.419,2.354
									c-0.092,0.089,0.036,0.219,0.139,0.184c3.105-1.052,6.011-1.747,9.277-2.138
									C231.251,339.357,231.253,339.021,231.025,338.984z"/>
								<path style="fill:#263238;" d="M233.342,340.314c-3.181-0.524-7.046,0.045-9.419,2.354
									c-0.092,0.089,0.037,0.219,0.138,0.184c3.105-1.052,6.011-1.747,9.277-2.138
									C233.568,340.687,233.57,340.351,233.342,340.314z"/>
								<path style="fill:#263238;" d="M235.658,341.643c-3.181-0.524-7.046,0.045-9.419,2.354
									c-0.092,0.089,0.036,0.219,0.139,0.184c3.105-1.052,6.011-1.747,9.277-2.138
									C235.884,342.016,235.886,341.681,235.658,341.643z"/>
							</g>
							<path style="fill:#FFC727;" d="M249.476,356.024c-1.683,0.519-49.446-0.72-51.233-1.924
								c-0.687-0.445-0.912-7.416-0.942-15.845c0-0.088,0.001-0.176,0.002-0.264l30.823,0.456l-0.025,0.522
								c0,0,18.07,8.652,19.897,10.182C249.809,350.675,251.159,355.512,249.476,356.024z"/>
							<path style="fill:#263238;" d="M248.983,354.158c-8.046-0.407-40.538-1.287-48.522-1.078
								c-0.065,0.002-0.066,0.046-0.001,0.051c7.966,0.578,40.464,1.195,48.521,1.159
								C249.15,354.289,249.153,354.166,248.983,354.158z"/>
						</g>
					</g>
					<g>
						<path style="fill:#DBDBDB;stroke:#455A64;stroke-miterlimit:10;" d="M181.243,206.999
							c0.007,0.022,14.179,44.693,14.436,52.908c0.219,7.002-0.678,68.792-0.678,68.792l35.896,0.213c0,0-3.032-63.211-3.593-70.51
							c-1.048-13.646-13.003-51.109-21.553-84.484h-38.699c0,0,0.337,17.478,8.286,30.119
							C175.338,204.037,178.937,205.703,181.243,206.999z"/>
						<g>
							<path style="fill:#263238;" d="M196.908,322.081c4.146-0.12,8.447-0.242,12.595-0.139c4.113,0.102,8.238,0.165,12.345,0.41
								c2.33,0.139,4.655,0.217,6.981,0.447c0.077,0.008,0.074,0.12-0.003,0.125c-4.144,0.241-8.305,0.193-12.454,0.155
								c-4.118-0.037-8.233-0.082-12.348-0.27c-2.33-0.107-4.655-0.225-6.982-0.386C196.79,322.406,196.657,322.089,196.908,322.081
								z"/>
							<path style="fill:#263238;" d="M204.758,194.975c1.279,4.27,2.359,8.605,3.504,12.913c1.154,4.343,2.305,8.687,3.449,13.032
								c2.213,8.407,4.399,16.829,6.058,25.366c1.669,8.591,2.681,17.244,2.869,25.997c0.192,8.897,0.006,17.809-0.055,26.707
								c-0.061,8.948-0.136,7.823-0.291,16.769c-0.019,1.113-0.043,2.225-0.084,3.337c-0.004,0.108-0.163,0.103-0.166-0.004
								c-0.238-8.898-0.111-7.744-0.082-16.645c0.029-8.902,0.147-17.808,0.071-26.71c-0.075-8.858-0.753-17.637-2.283-26.366
								c-1.501-8.566-3.611-17.009-5.799-25.421c-1.248-4.799-2.509-9.594-3.754-14.393c-1.253-4.831-2.594-9.651-3.696-14.52
								C204.462,194.872,204.709,194.812,204.758,194.975z"/>
							<path style="fill:#263238;" d="M190.12,207.862c-1.788-0.032-3.57-0.154-5.33-0.483c-1.778-0.333-3.437-0.923-5.165-1.432
								c-1.639-0.483-3.382-0.558-5.064-0.828c-1.705-0.274-3.407-0.72-4.964-1.478c-0.073-0.036-0.135,0.074-0.062,0.112
								c1.544,0.791,3.099,1.539,4.757,2.062c1.702,0.537,3.481,0.61,5.208,1.033c1.777,0.435,3.488,1.012,5.315,1.223
								c1.771,0.205,3.561,0.199,5.323-0.09C190.209,207.969,190.185,207.863,190.12,207.862z"/>
							<path style="fill:#263238;" d="M195.799,292.921l-0.06-11.008c-0.013-3.669-0.037-7.337-0.101-11.003
								c-0.085-3.664-0.11-7.337-0.364-10.976c-0.121-1.811-0.459-3.582-0.887-5.366c-0.39-1.783-0.865-3.556-1.317-5.329
								c-1.817-7.101-3.841-14.154-5.838-21.213l-6.014-21.178c1.17,3.479,2.272,6.979,3.396,10.473l3.245,10.521
								c2.128,7.026,4.146,14.083,6.032,21.185c0.442,1.784,0.904,3.561,1.286,5.365c0.415,1.785,0.755,3.633,0.866,5.486
								c0.219,3.685,0.262,7.354,0.245,11.027C196.264,278.248,196.104,285.586,195.799,292.921z"/>
							<path style="fill:#263238;" d="M224.43,243.012c-1.334-4.638-2.593-9.295-3.85-13.952l-3.712-13.984l-3.655-13.996
								c-0.601-2.335-1.228-4.662-1.866-6.986c-0.649-2.32-1.239-4.662-2.093-6.918c1.924,4.437,3.197,9.114,4.589,13.73
								c1.353,4.633,2.592,9.296,3.846,13.956c1.19,4.676,2.399,9.346,3.522,14.038C222.335,233.592,223.435,238.289,224.43,243.012
								z"/>
						</g>
					</g>
				</g>
			</g>
		</g>
		<g>
			<g>
				<g>
					<path style="fill:#AD6359;" d="M197.831,133.479c0.009,0.762,2.423,6.227,5.766,6.805c1.089,0.186,2.373-5.713,2.373-5.713
						l0.195-0.414l2.715-5.795l-6.144-6.184l-0.9-0.838c0,0-0.638,1.635-1.413,3.678c-0.037,0.095-0.073,0.189-0.11,0.291
						c-0.047,0.114-0.093,0.222-0.131,0.331c-0.12,0.304-0.24,0.615-0.354,0.926c-0.088,0.237-0.174,0.467-0.257,0.719
						c-0.09,0.251-0.172,0.496-0.262,0.747C198.477,130.526,197.832,133.157,197.831,133.479z"/>
					<path style="fill:#263238;" d="M200.423,125.018c0.671,5.24,4.109,8.078,5.741,9.139l2.715-5.795l-6.144-6.184l-0.9-0.838
						C201.835,121.34,201.197,122.975,200.423,125.018z"/>
				</g>
				<g>
					<path style="fill:#AD6359;" d="M219.209,118.762c1.092,11.179-5.442,13.204-7.892,13.328
						c-2.196,0.111-9.667,0.652-11.908-10.354c-2.241-11.006,2.612-15.048,7.591-15.796
						C211.98,105.192,218.117,107.583,219.209,118.762z"/>
					<g>
						<path style="fill:#263238;" d="M218.42,116.399c-0.264-0.023-0.504-0.089-0.763-0.139c-0.292-0.057-0.531-0.072-0.751-0.291
							c-0.118-0.117-0.116-0.362-0.013-0.488c0.24-0.292,0.616-0.312,0.97-0.258c0.385,0.059,0.666,0.202,0.927,0.49
							C219.043,115.993,218.769,116.43,218.42,116.399z"/>
						<path style="fill:#263238;" d="M211.181,116.995c0.262-0.038,0.499-0.117,0.754-0.181c0.289-0.073,0.526-0.101,0.734-0.331
							c0.112-0.123,0.096-0.368-0.014-0.488c-0.256-0.279-0.631-0.278-0.983-0.205c-0.381,0.08-0.654,0.238-0.899,0.54
							C210.536,116.623,210.834,117.045,211.181,116.995z"/>
						<g>
							<g>
								<path style="fill:#263238;" d="M212.911,119.713c-0.007-0.029-0.058,0.039-0.055,0.07c0.063,0.763,0.007,1.646-0.671,1.935
									c-0.021,0.009-0.017,0.047,0.009,0.042C213.03,121.599,213.093,120.425,212.911,119.713z"/>
								<path style="fill:#263238;" d="M212.189,118.95c-1.233-0.031-1.204,2.438-0.062,2.467
									C213.251,121.444,213.222,118.976,212.189,118.95z"/>
							</g>
							<path style="fill:#263238;" d="M211.705,119.086c-0.214,0.142-0.422,0.391-0.682,0.42c-0.301,0.033-0.531-0.223-0.73-0.469
								c-0.021-0.026-0.042-0.004-0.042,0.029c-0.001,0.473,0.186,0.956,0.694,1.021c0.463,0.059,0.791-0.364,0.903-0.841
								C211.87,119.158,211.791,119.029,211.705,119.086z"/>
						</g>
						<g>
							<g>
								<path style="fill:#263238;" d="M217.017,119.239c0.006-0.029,0.06,0.036,0.059,0.067c-0.021,0.765,0.083,1.644,0.776,1.896
									c0.021,0.008,0.019,0.046-0.006,0.043C217.001,121.129,216.874,119.96,217.017,119.239z"/>
								<path style="fill:#263238;" d="M217.696,118.437c1.23-0.098,1.336,2.368,0.197,2.459
									C216.772,120.986,216.665,118.52,217.696,118.437z"/>
							</g>
							<path style="fill:#263238;" d="M218.218,118.577c0.201,0.122,0.404,0.351,0.637,0.357c0.27,0.006,0.459-0.269,0.62-0.533
								c0.017-0.027,0.037-0.007,0.039,0.025c0.033,0.471-0.101,0.969-0.55,1.079c-0.41,0.1-0.731-0.291-0.863-0.756
								C218.076,118.664,218.137,118.528,218.218,118.577z"/>
						</g>
						<path style="fill:#263238;" d="M212.968,125.617c0.177,0.185,0.351,0.438,0.628,0.47c0.265,0.031,0.581-0.078,0.828-0.165
							c0.024-0.009,0.048,0.018,0.032,0.04c-0.208,0.287-0.632,0.456-0.984,0.382c-0.344-0.072-0.505-0.377-0.578-0.696
							C212.883,125.605,212.942,125.59,212.968,125.617z"/>
						<g>
							<path style="fill:#263238;" d="M216.099,122.778c0,0,0.185,1.138,0.197,1.677c0.001,0.05-0.129,0.077-0.311,0.092
								c-0.009,0.003-0.013,0.006-0.021,0.001c-0.947,0.171-1.913-0.135-2.509-0.898c-0.038-0.052,0.029-0.109,0.078-0.077
								c0.722,0.505,1.51,0.621,2.354,0.615c0.035-0.15-0.381-1.939-0.296-1.947c0.294-0.032,0.879,0.154,1.23,0.248
								c-0.316-2.382-1.011-4.694-1.29-7.071c-0.008-0.085,0.113-0.113,0.14-0.038c0.9,2.372,1.324,5.105,1.713,7.557
								C217.436,123.243,216.317,122.865,216.099,122.778z"/>
						</g>
						<g>
							<path style="fill:#263238;" d="M215.932,124.135c0,0-0.426,0.781-1.109,1.136c-0.251,0.132-0.531,0.209-0.841,0.171
								c-0.636-0.076-0.73-0.637-0.684-1.134c0.036-0.409,0.173-0.776,0.173-0.776S214.483,124.245,215.932,124.135z"/>
							<path style="fill:#FF9BBC;" d="M214.823,125.271c-0.251,0.132-0.531,0.209-0.841,0.171c-0.636-0.076-0.73-0.637-0.684-1.134
								C213.965,124.283,214.678,124.639,214.823,125.271z"/>
						</g>
					</g>
					<path style="fill:#263238;" d="M200.158,123.143c-0.54-0.71-4.143-4.446-4.333-6.361c-0.111-1.119,1.725-4.154,1.725-4.154
						l-1.55-1.046l1.427,0.387l-2.11-3.521l2.607,2.327c0,0,0.469-2.851,0.717-3.542c0.247-0.691,4.87-4.408,4.87-4.408
						l-1.389,2.418c0,0,8.431-3.432,9.487-3.341c2.65,0.227,8.374,4.471,8.374,4.471l-6.203-0.988c0,0,5.957,2.474,7.169,3.573
						c1.212,1.099,1.91,6.471,1.91,6.471l-5.421-3.651l1.945,3.051c0,0-4.76,0.711-6.148,0.661
						c-2.935-0.106-9.672-2.549-9.672-2.549s0.158,2.575,0.045,3.377c-0.196,1.396-1.56,4.314-1.56,4.314l-0.704-2.348
						L200.158,123.143z"/>
					<g>
						<g>
							<path style="fill:#AD6359;" d="M201.659,121.789c0,0-2.93-3.117-4.378-2.024c-1.449,1.094,1.106,5.858,3.054,6.278
								c1.948,0.42,2.372-1.376,2.372-1.376L201.659,121.789z"/>
							<path style="fill:#263238;" d="M198.047,121.113c-0.03,0.002-0.03,0.044-0.003,0.051c1.372,0.337,2.229,1.44,2.888,2.616
								c-0.455-0.424-1.018-0.61-1.594-0.058c-0.03,0.029,0.01,0.077,0.045,0.064c0.514-0.191,0.911-0.154,1.331,0.219
								c0.298,0.264,0.527,0.62,0.759,0.941c0.077,0.107,0.278,0.015,0.214-0.112c-0.005-0.009-0.01-0.019-0.015-0.028
								C201.465,123.147,199.845,121.022,198.047,121.113z"/>
						</g>
					</g>
				</g>
			</g>
			<g>
				<path style="fill:#063359;" d="M207.006,166.431l-1.254,7.487H166.25c0,0,12.8-31.986,25.627-39.627
					c6.416-3.821,11.992-1.734,14.525,3.027c0.641,1.205,6.598,14.389,6.107,20.264
					C212.063,162.762,207.006,166.431,207.006,166.431z"/>
			</g>
			<g>
				<defs>
					<path id="SVGID_1_" d="M207.006,166.431l-1.254,7.487H166.25c0,0,12.8-31.986,25.627-39.627
						c6.416-3.821,11.992-1.734,14.525,3.027c0.641,1.205,6.598,14.389,6.107,20.264
						C212.063,162.762,207.006,166.431,207.006,166.431z"/>
				</defs>
				<clipPath id="SVGID_2_">
					<use xlink:href="#SVGID_1_"  style="overflow:visible;"/>
				</clipPath>
				<path style="opacity:0.8;clip-path:url(#SVGID_2_);fill:none;stroke:#FFFFFF;stroke-width:1.2;stroke-miterlimit:10;" d="
					M198.803,152.123c0.268,0.023,0.531,0.047,0.792,0.072c0.13,0.013,0.26,0.025,0.39,0.039c4.582,0.125,10.007,1.018,14.264,1.785
					c0.163,0.016,0.325,0.033,0.488,0.05c2.766,0.29,5.55,0.719,8.416,1.571c0.26,0.118,0.52,0.243,0.777,0.374
					c0.257,0.132,0.51,0.27,0.761,0.416c1.569,0.834-3.63,2.241-3.403,4.294c-0.036,0.29-0.048,0.587-0.056,0.885
					c-0.01,0.398-0.013,0.797-0.008,1.197c0.815,3.395-0.889,6.617,0.986,9.77c-0.31-0.026-0.618-0.053-0.923-0.079
					c-0.305-0.026-0.608-0.052-0.909-0.077c-2.649-0.482-5.38-0.731-8.171-0.895c-0.31-0.018-0.61-0.035-0.874-0.049
					c-4.916-0.622-10.34-0.634-14.915-0.973c-0.164-0.014-0.334-0.026-0.505-0.038c0.098-0.378,0.183-0.751,0.254-1.116
					c0.035-0.178,0.067-0.354,0.097-0.527c0.029-0.173,0.056-0.345,0.081-0.513c0.028-0.15,0.056-0.299,0.082-0.446
					c0.933-4.952,0.921-10.235,2.338-15.246C198.779,152.453,198.792,152.29,198.803,152.123z"/>
				<g id="Layer_2_00000093883432483260127680000012624848893122865286_" style="opacity:0.8;clip-path:url(#SVGID_2_);">
					<g id="Layer_1-2_00000051342742682238223830000014600710877912558979_">
						<path style="fill:#FFFFFF;" d="M215.912,165.15c0.227-0.037,0.429-0.109,0.606-0.216c0.177-0.107,0.33-0.25,0.462-0.424
							c-0.024,0.046-0.047,0.092-0.081,0.156l0.614-0.012l-0.432,0.547l0.143-0.001c0.275-0.001,0.545,0.004,0.813-0.002
							c0.099-0.003,0.147,0.033,0.163,0.129c0.007,0.032,0.016,0.062,0.027,0.092c0.065,0.224,0.095,0.489,0.482,0.343
							c-0.127,0.219-0.272,0.39-0.441,0.516s-0.359,0.206-0.574,0.247c-0.11,0.018-0.222,0.024-0.331,0.017
							c-0.36-0.015-0.726-0.028-1.103-0.042s-0.764-0.031-1.159-0.051c-0.395-0.02-0.794-0.043-1.189-0.066
							c-0.395-0.023-0.78-0.049-1.146-0.073c-0.393-0.016-0.698-0.159-0.884-0.385s-0.255-0.541-0.19-0.911
							c0.032-0.198,0.061-0.397,0.086-0.598c0.025-0.201,0.046-0.406,0.062-0.615c0.016-0.209,0.026-0.422,0.031-0.641
							c0.005-0.219,0.005-0.444,0.002-0.673c-0.015-0.401,0.089-0.722,0.376-0.929c0.028-0.027,0.047-0.066,0.053-0.111
							c0.028-0.201,0.096-0.284,0.263-0.292c0.134-0.007,0.272-0.009,0.417-0.009c0.232,0,0.282,0.039,0.384,0.306
							c0.14,0.008,0.293,0.026,0.45,0.031c0.042,0.001,0.097-0.038,0.121-0.075c0.11-0.164,0.216-0.333,0.311-0.508
							c0.105-0.196,0.274-0.274,0.494-0.258c0.353,0.021,0.701,0.037,1.039,0.046c0.337,0.008,0.663,0.011,0.98,0.012
							c0.196-0.001,0.354,0.09,0.456,0.3c0.083,0.173,0.183,0.332,0.267,0.501c0.04,0.081,0.087,0.111,0.165,0.104
							c0.238-0.02,0.468,0.011,0.682,0.139c0.207,0.121,0.371,0.278,0.484,0.47c0.113,0.192,0.174,0.419,0.173,0.683
							c-0.002,0.203-0.007,0.405-0.014,0.606s-0.018,0.4-0.031,0.599c-0.013,0.199-0.028,0.396-0.044,0.593
							c-0.016,0.197-0.033,0.393-0.05,0.588c-0.005,0.023-0.01,0.045-0.018,0.067c-0.024-0.056-0.043-0.095-0.057-0.136
							c-0.068-0.202-0.135-0.404-0.202-0.605c-0.067-0.202-0.135-0.404-0.204-0.608c-0.069-0.204-0.14-0.409-0.213-0.616
							c-0.073-0.207-0.15-0.415-0.229-0.626c-0.041-0.11-0.092-0.15-0.197-0.134c-0.113,0.016-0.229,0.014-0.321,0.018
							c0.103,0.277,0.204,0.545,0.289,0.814c0.023,0.089,0.024,0.184,0.004,0.277l-0.146-0.397
							c-0.162,0.366-0.325,0.704-0.498,1.036c0.077-0.194,0.116-0.384,0.112-0.574c-0.004-0.19-0.052-0.381-0.148-0.573
							c-0.144,0.309-0.288,0.587-0.439,0.861c-0.102,0.185-0.21,0.366-0.322,0.544s-0.228,0.353-0.347,0.526l-0.539-0.02
							c0-0.017-0.002-0.034-0.006-0.051c-0.112-0.298-0.231-0.6-0.361-0.908c-0.131-0.309-0.273-0.626-0.424-0.952
							c-0.014-0.024-0.031-0.047-0.049-0.069c-0.236,0.287-0.318,0.591-0.3,0.923c-0.114-0.27-0.231-0.544-0.359-0.847
							c-0.096,0.169-0.175,0.308-0.255,0.447c0.009-0.208,0.059-0.402,0.143-0.588c0.085-0.186,0.208-0.362,0.366-0.528
							c-0.179-0.021-0.316-0.026-0.448-0.047c-0.114-0.018-0.164,0.023-0.208,0.118c-0.116,0.248-0.231,0.492-0.346,0.732
							c-0.116,0.24-0.233,0.478-0.353,0.712c-0.12,0.234-0.244,0.464-0.37,0.69c-0.127,0.226-0.256,0.45-0.387,0.674
							c-0.021,0.034-0.038,0.07-0.063,0.116c0.05,0,0.084-0.001,0.118-0.001c0.148-0.002,0.324,0.05,0.442-0.02
							c0.123-0.073,0.192-0.263,0.273-0.408c0.051-0.092,0.106-0.127,0.215-0.122c0.317,0.017,0.658,0.036,1.028,0.07l-0.347-0.56
							c0.246,0.023,0.452,0.055,0.663,0.059c0.109,0.002,0.156,0.034,0.212,0.098c0.207,0.236,0.477,0.397,0.823,0.458
							c0.062,0.154,0.122,0.308,0.185,0.474C215.69,165.441,215.802,165.297,215.912,165.15z M216.296,165.622
							c0.268-0.093,0.518-0.212,0.753-0.418c-0.158,0.001-0.287-0.002-0.418,0.002c-0.029,0-0.077,0.017-0.091,0.038
							c-0.084,0.125-0.16,0.254-0.242,0.38c-0.277,0.027-0.562,0.069-0.847,0.067c-0.203-0.002-0.401-0.061-0.604-0.096
							l-0.023,0.036c0.056,0.024,0.109,0.064,0.168,0.068c0.324,0.024,0.646,0.029,0.959,0.05
							C216.091,165.756,216.209,165.748,216.296,165.622z M214.563,163.121c0.163-0.179,0.367-0.314,0.588-0.406
							s0.457-0.139,0.687-0.138s0.456,0.051,0.657,0.154c0.201,0.103,0.379,0.258,0.518,0.471c0.134-0.177,0.127-0.442,0.317-0.589
							c-0.191-0.242-0.426-0.416-0.689-0.53c-0.263-0.114-0.554-0.168-0.851-0.167s-0.599,0.055-0.88,0.159s-0.538,0.258-0.74,0.462
							C214.446,162.666,214.388,162.945,214.563,163.121z M212.806,161.602c-0.207,0.009-0.362,0.219-0.354,0.462
							s0.171,0.428,0.374,0.418l0,0c0.21-0.007,0.385-0.197,0.388-0.439C213.204,161.799,213.02,161.6,212.806,161.602
							L212.806,161.602z M214.053,165.077c0.239,0.22,0.464,0.382,0.769,0.485c-0.049-0.132-0.085-0.244-0.138-0.352
							c-0.022-0.041-0.065-0.073-0.118-0.087C214.415,165.103,214.257,165.096,214.053,165.077L214.053,165.077z"/>
						<path style="fill:#FFFFFF;" d="M208.189,162.374l-0.022,0.52c0,0-0.37-0.083-0.74-0.176c-0.37-0.093-0.732-0.19-0.732-0.19
							c-0.029,0.214-0.057,0.426-0.082,0.639c-0.025,0.213-0.046,0.425-0.064,0.639c-0.018,0.214-0.033,0.429-0.044,0.646
							c-0.011,0.217-0.02,0.436-0.026,0.657c-0.025,0.012-0.033,0.02-0.042,0.019c-0.291-0.022-0.287-0.021-0.327-0.314
							c-0.029-0.212-0.059-0.423-0.087-0.632c-0.028-0.209-0.056-0.417-0.081-0.623c-0.025-0.206-0.048-0.411-0.067-0.614
							c-0.02-0.203-0.036-0.404-0.049-0.604c-0.22-0.045-0.43-0.085-0.632-0.117c-0.195-0.027-0.382-0.046-0.563-0.05
							c-0.196-0.001-0.209,0.053-0.203,0.276c0.01,0.217,0.028,0.437,0.047,0.658s0.035,0.444,0.038,0.665
							c0.006,0.359-0.084,0.649-0.254,0.855c-0.169,0.205-0.418,0.328-0.723,0.349c-0.184,0.018-0.372,0.004-0.559-0.042
							c-0.299-0.077-0.539-0.245-0.704-0.483c-0.166-0.238-0.254-0.544-0.256-0.9c-0.005-0.321-0.009-0.642-0.013-0.963
							c-0.004-0.322-0.007-0.644-0.011-0.971c0.186-0.007,0.369-0.019,0.548-0.018c0.02-0.001,0.053,0.085,0.052,0.13
							c-0.002,0.274-0.004,0.55-0.003,0.828c0,0.278,0.002,0.558,0.003,0.84c0,0.062,0.005,0.124,0.01,0.187
							c0.025,0.327,0.174,0.579,0.379,0.715c0.205,0.136,0.461,0.155,0.701,0.015c0.239-0.141,0.322-0.407,0.302-0.723
							c-0.014-0.224-0.03-0.446-0.046-0.667c-0.016-0.221-0.032-0.439-0.047-0.656c-0.014-0.265,0.082-0.45,0.268-0.544
							c0.157-0.073,0.342-0.127,0.523-0.113c0.21,0.016,0.431,0.041,0.663,0.075c0.242,0.039,0.504,0.093,0.793,0.164
							s0.602,0.153,0.931,0.24c0.329,0.087,0.668,0.172,1.008,0.249C208.115,162.35,208.152,162.362,208.189,162.374z"/>
						<path style="fill:#FFFFFF;" d="M221.862,165.882c-0.252,0.039-0.414-0.041-0.558-0.26c-0.113-0.172-0.228-0.344-0.345-0.514
							c-0.116-0.171-0.234-0.339-0.352-0.505c-0.118-0.166-0.236-0.33-0.356-0.492s-0.239-0.325-0.359-0.489
							c0,0-0.026,0.542-0.056,1.081c-0.03,0.539-0.062,1.078-0.062,1.078l-0.599-0.002c0,0,0.015-0.198,0.036-0.495
							s0.049-0.695,0.073-1.096c0.024-0.401,0.042-0.806,0.054-1.113s0.017-0.513,0.017-0.513c0.136-0.006,0.274-0.02,0.411-0.012
							c0.047,0.003,0.097,0.051,0.129,0.093c0.218,0.29,0.436,0.583,0.655,0.88c0.218,0.298,0.437,0.604,0.657,0.915
							c0.027,0.04,0.059,0.08,0.11,0.149c0,0,0.024-0.504,0.047-1.005c0.023-0.502,0.046-1.002,0.046-1.002l0.607,0.035
							c0,0-0.037,0.814-0.076,1.63C221.903,165.062,221.862,165.882,221.862,165.882z"/>
						<path style="fill:#FFFFFF;" d="M208.534,162.835l1.194,0.134c0,0-0.019,0.322-0.056,0.632
							c-0.037,0.31-0.089,0.609-0.089,0.609l0.025,0.002l0.057-0.327c0,0,0.39,0.016,0.74,0.024c0.35,0.008,0.666,0.008,0.666,0.008
							s0.029-0.314,0.043-0.643c0.014-0.329,0.012-0.675,0.012-0.675l0.495-0.023c0,0,0.002,0.204-0.003,0.501
							s-0.028,0.677-0.068,1.044c-0.04,0.367-0.097,0.724-0.148,0.99c-0.051,0.266-0.088,0.444-0.088,0.444l-0.551,0.006
							c0,0,0.068-0.286,0.13-0.571c0.062-0.285,0.115-0.574,0.115-0.574s-0.333-0.001-0.701-0.008s-0.772-0.027-0.772-0.027
							c0.015,0.276-0.118,0.508-0.298,0.73c-0.18,0.222-0.405,0.433-0.569,0.675c-0.032-0.079-0.055-0.124-0.069-0.171
							c-0.067-0.207-0.124-0.419-0.212-0.628c-0.078-0.182-0.099-0.371-0.058-0.55c0.046-0.246,0.085-0.495,0.117-0.747
							c0.032-0.252,0.055-0.51,0.074-0.771C208.52,162.895,208.529,162.873,208.534,162.835z M208.888,164.78
							c-0.028-0.021-0.051-0.054-0.08-0.058c-0.108-0.015-0.219-0.019-0.331-0.03c-0.002,0.053-0.02,0.106-0.004,0.158
							c0.044,0.146,0.091,0.291,0.15,0.432c0.017,0.041,0.079,0.095,0.128,0.099c0.049,0.004,0.133-0.033,0.168-0.069
							c0.116-0.12,0.22-0.246,0.321-0.373c0.033-0.041,0.068-0.13,0.06-0.133c-0.092-0.03-0.191-0.052-0.294-0.067
							C208.972,164.734,208.93,164.764,208.888,164.78z"/>
						<path style="fill:#FFFFFF;" d="M202.298,161.372c-0.115,0.005-0.233,0.003-0.352,0.014c-0.084,0.008-0.126-0.03-0.161-0.106
							c-0.098-0.216-0.043-0.505,0.129-0.658c0.226-0.206,0.496-0.245,0.68-0.1c0.225,0.176,0.301,0.482,0.185,0.736
							c-0.024,0.048-0.064,0.081-0.11,0.093C202.548,161.367,202.424,161.365,202.298,161.372L202.298,161.372z"/>
						<path style="fill:#FFFFFF;" d="M209.728,162.673l-1.164-0.124c-0.008-0.236,0.24-0.385,0.549-0.369
							C209.456,162.196,209.682,162.376,209.728,162.673z"/>
						<path style="fill:#FFFFFF;" d="M217.754,163.889c0.082,0.251,0.161,0.496,0.241,0.756l-0.464,0.008
							C217.609,164.401,217.683,164.15,217.754,163.889z"/>
						<path style="fill:#FFFFFF;" d="M206.239,165.252c0.143-0.021,0.207,0.032,0.162,0.15c-0.034,0.089-0.078,0.199-0.153,0.235
							c-0.18,0.091-0.31,0.199-0.229,0.472l-0.151-0.004c-0.068-0.3-0.02-0.446,0.185-0.575
							C206.154,165.47,206.28,165.431,206.239,165.252z"/>
						<path style="fill:#FFFFFF;" d="M218.977,165.782l-0.261,0.001c0.043-0.118,0.083-0.228,0.131-0.364
							C218.892,165.546,218.931,165.654,218.977,165.782z"/>
						<path style="fill:#FFFFFF;" d="M216.296,165.622c-0.086,0.126-0.205,0.134-0.346,0.125c-0.312-0.02-0.634-0.026-0.958-0.049
							c-0.059-0.004-0.112-0.044-0.168-0.068l0.023-0.036c0.203,0.036,0.401,0.095,0.604,0.096c0.284,0.002,0.569-0.04,0.847-0.067
							L216.296,165.622z"/>
						<path style="fill:#FFFFFF;" d="M213.658,164.506l-0.493-0.028l0.386-0.684C213.591,164.04,213.625,164.271,213.658,164.506z"
							/>
					</g>
				</g>
			</g>
			<g>
				<g>
					<g>
						<path style="fill:#AD6359;" d="M200.249,142.846c4.167,6.068,21.914,25.421,28.901,24.793
							c10.953-0.985,22.446-6.432,28.816-9.239c2.023-0.892-7.184-20.244-10.875-18.087c-4.766,2.785-14.614,6.834-17.479,7.283
							c-1.957,0.307-14.919-7.068-23.969-12.132C198.093,131.24,194.969,135.158,200.249,142.846z"/>
						<g>
							<g>
								<g>
									<g>
										<path style="fill:#AD6359;" d="M243.823,142.441c0,0,3.062-2.002,3.267-2.127c0.698-0.43,1.377-1.032,2.751-2.568
											c3.251-3.634,13.493-10.406,26.333-5.62c4.92,1.834,5.781,6.087,0.332,5.089c-3.838-0.703-6.438-1.519-7.754-1.398
											c0,0,3.927,4.501,3.118,7.866c-0.362,1.504-1.444,5.585-2.74,8.643c0,0-0.742-0.103-1.663-0.368
											c0,0-1.158,4.203-6.006,4.902l-5.19,2.287L243.823,142.441z"/>
									</g>
								</g>
								<g>
									<path style="fill:#AD6359;" d="M253.497,134.773c2.536-0.314,7.923-0.89,12.493,0.172
										c5.076,1.179,14.537,4.819,13.628,8.557c-0.667,2.741-4.401,1.669-4.401,1.669s3.593,2.329,2.45,4.673
										c-1.042,2.136-3.881,1.134-3.881,1.134s1.937,1.787,0.536,3.652c-1.684,2.243-5.467-1.871-9.136-1.074
										C264.362,153.735,253.497,134.773,253.497,134.773z"/>
									<g>
										<path style="fill:#263238;" d="M263.849,140.101c2.434,0.096,7.905,1.731,11.338,4.966
											c0.078,0.073,0.064,0.171-0.021,0.12c-4.537-2.759-9.274-4.443-11.328-5.038
											C263.81,140.141,263.822,140.1,263.849,140.101z"/>
									</g>
									<g>
										<path style="fill:#263238;" d="M262.807,145.26c2.091,0.298,7.655,2.236,11.022,5.634
											c0.075,0.076,0.055,0.173-0.028,0.118c-4.621-3.078-8.993-4.989-11.008-5.704
											C262.767,145.297,262.781,145.256,262.807,145.26z"/>
									</g>
								</g>
							</g>
						</g>
					</g>
				</g>
				<g>
					<path style="fill:#063359;" d="M224.386,145.322l-7.277,17.938c0,0-11.678-11.858-17.486-20.029
						c-5.808-8.171-2.544-12.166,6.168-8.529C214.504,138.338,224.386,145.322,224.386,145.322z"/>
					<path style="fill:#263238;" d="M220.391,144.342c-0.235,0.615-0.568,1.202-0.848,1.794c-0.282,0.596-0.545,1.205-0.809,1.811
						c-0.509,1.171-1.021,2.342-1.538,3.509c-1.048,2.367-2.151,4.708-3.071,7.145c-0.014,0.036,0.043,0.071,0.063,0.039
						c1.311-2.191,2.38-4.554,3.417-6.921c0.521-1.189,1.027-2.385,1.516-3.592c0.248-0.612,0.491-1.229,0.712-1.856
						c0.219-0.622,0.391-1.287,0.642-1.89C220.495,144.33,220.411,144.29,220.391,144.342z"/>
					<g>
						<g>
							<path d="M201.5,145.745c1.981,2.169,3.853,4.421,5.78,6.625c0.938,1.124,1.903,2.224,2.86,3.331l2.9,3.303
								c-1.123-0.949-2.165-1.987-3.185-3.044c-1.02-1.057-1.985-2.164-2.955-3.265c-0.939-1.128-1.886-2.249-2.786-3.408
								C203.214,148.13,202.327,146.96,201.5,145.745z"/>
						</g>
						<g>
							<path d="M201.95,147.302c0.708,0.606,1.439,1.096,2.168,1.689c-0.224-0.069-0.443-0.156-0.649-0.266
								c-0.208-0.108-0.4-0.241-0.593-0.374C202.515,148.056,202.155,147.733,201.95,147.302z"/>
						</g>
					</g>
				</g>
			</g>
		</g>
	</g>
</g>
<g id="Layer_1">
</g>
</svg>
