<?xml version="1.0" encoding="iso-8859-1"?>
<!-- Generator: Adobe Illustrator 25.3.1, SVG Export Plug-In . SVG Version: 6.00 Build 0)  -->
<svg version="1.1" xmlns="http://www.w3.org/2000/svg" xmlns:xlink="http://www.w3.org/1999/xlink" x="0px" y="0px"
	 viewBox="0 0 750 500" style="enable-background:new 0 0 750 500;" xml:space="preserve">
<g id="char_x5F_2">
	<g>
		<g>
			<g>
				<g>
					<path style="fill:#AD6359;" d="M193.827,432.71c0.191-1.742,20.207-44.879,22.013-46.035c0.679-0.451,7.134,2.099,14.845,5.404
						c0.08,0.035,0.16,0.071,0.241,0.106c1.591,0.678,30.934,8.561,30.934,8.561l-13.004,28.232l-30.533-8.819l-0.467-0.23
						c0,0-15.047,13.084-17.167,14.148C198.581,435.13,193.629,434.45,193.827,432.71z"/>
					<path style="fill:#EBEBEB;" d="M236.505,393.824l-13.377,27.719l-4.802-1.387l-0.471-0.227c0,0-15.048,13.084-17.165,14.147
						c-2.109,1.055-7.065,0.373-6.863-1.363c0.187-1.744,20.207-44.883,22.008-46.035c0.681-0.454,7.138,2.093,14.853,5.402
						c0.073,0.032,0.154,0.073,0.235,0.105C231.322,392.356,233.488,392.981,236.505,393.824z"/>
					<g>
						<path style="fill:#FFC727;" d="M193.656,432.927c0.191-1.758,20.253-45.387,22.069-46.567c0.686-0.451,7.211,2.1,15.007,5.406
							l-12.853,28.166c0,0-15.152,13.268-17.283,14.349C198.469,435.353,193.465,434.686,193.656,432.927z"/>
						<g>
							<g>
								<path style="fill:#263238;" d="M195.689,433.104c3.543-7.231,17.148-36.73,20.1-44.147c0.024-0.06-0.016-0.079-0.046-0.021
									c-3.668,7.09-17.034,36.699-20.175,44.113C195.503,433.205,195.614,433.257,195.689,433.104z"/>
								<path style="fill:#263238;" d="M203.456,432.196c0.868-1.702,0.824-3.776,0.226-5.196c-0.575-1.365-1.613-2.784-3.153-3.43
									c-0.044-0.019-0.082,0.061-0.04,0.088c2.67,1.734,3.987,5.493,2.876,8.496C203.342,432.215,203.426,432.255,203.456,432.196
									z"/>
								<path style="fill:#263238;" d="M215.848,422.434c1.387-2.909,1.914-6.778,0.356-9.698c-0.06-0.113-0.22-0.026-0.215,0.082
									c0.147,3.273,0.007,6.256-0.525,9.5C215.427,422.547,215.748,422.642,215.848,422.434z"/>
								<path style="fill:#263238;" d="M213.927,424.289c1.387-2.909,1.914-6.777,0.356-9.697c-0.06-0.113-0.22-0.025-0.215,0.082
									c0.147,3.273,0.007,6.256-0.525,9.5C213.506,424.402,213.828,424.497,213.927,424.289z"/>
								<path style="fill:#263238;" d="M212.007,426.143c1.387-2.909,1.914-6.778,0.357-9.697c-0.06-0.113-0.22-0.026-0.215,0.082
									c0.148,3.273,0.007,6.256-0.524,9.5C211.587,426.257,211.908,426.352,212.007,426.143z"/>
								<path style="fill:#263238;" d="M210.087,427.998c1.387-2.909,1.914-6.777,0.356-9.697c-0.06-0.113-0.22-0.026-0.215,0.082
									c0.147,3.273,0.007,6.256-0.524,9.5C209.666,428.112,209.988,428.206,210.087,427.998z"/>
								<path style="fill:#263238;" d="M221.879,394.014c1.501-3.289-3.608-5.626-5.111-2.332
									C215.268,394.97,220.376,397.308,221.879,394.014z"/>
							</g>
							<path style="fill:#263238;" d="M222.204,429.189c1.91-0.917,1.568-3.335,0.712-4.836c-1.386-2.43-3.814-4.778-6.262-6.102
								c-0.06-0.032-0.107,0.003-0.126,0.053c-0.238-0.034-0.529,0.133-0.479,0.418c0.483,2.747,0.66,5.744,1.972,8.26
								C218.787,428.452,220.397,430.056,222.204,429.189z M217.634,422.737c-0.271-1.345-0.473-2.696-0.794-4.03
								c1.218,1.194,2.482,2.328,3.579,3.644c0.523,0.628,1.049,1.283,1.483,1.977c0.675,1.081,1.8,5.079-1.519,3.906
								C218.554,427.587,217.956,424.34,217.634,422.737z"/>
							<path style="fill:#263238;" d="M218.913,410.48c-1.564,2.369-2.047,5.331-2.81,8.014c-0.079,0.278,0.192,0.474,0.433,0.464
								c0.013,0.051,0.056,0.092,0.12,0.066c2.571-1.065,5.228-3.152,6.856-5.426c1.005-1.404,1.594-3.775-0.211-4.883
								C221.592,407.667,219.825,409.097,218.913,410.48z M221.391,409.479c3.422-0.826,1.891,3.036,1.109,4.041
								c-0.502,0.646-1.093,1.244-1.678,1.814c-1.227,1.196-2.6,2.195-3.935,3.257c0.456-1.295,0.796-2.617,1.204-3.928
								C218.577,413.102,219.505,409.934,221.391,409.479z"/>
						</g>
					</g>
				</g>
				<g>
					<path style="fill:#DBDBDB;stroke:#455A64;stroke-miterlimit:10;" d="M296.291,308.654c0,0-0.541,16.91-3.075,25.236
						c0,0-2.766,1.455-3.594,1.975c0,0,21.006,50.299,19.809,69.651c-0.392,6.345-7.145,14.373-14.402,18.889
						c-12.843,7.991-71.887,3.381-71.887,3.381l9.096-37.691c0,0,35.556,2.207,36.558,0.06c1.27-2.721-6.622-23.876-12.924-41.066
						c-0.637-1.737-6.978-8.143-6.239-19.734c0.719-11.284,5.456-20.7,5.456-20.7H296.291z"/>
					<g>
						<path style="fill:#37474F;" d="M239.469,394.284c8.646-0.16,15.695,0.573,24.342,0.578c2.177,0.001,0.275,0.002,2.452,0.004
							c1.089,0.001,2.177,0.002,3.266,0.002c0.757,0,1.517-0.025,2.257-0.203c0.661-0.159,1.347-0.449,1.739-1.034
							c0.575-0.857,0.265-1.947,0.067-2.875c-0.434-2.034-0.926-4.055-1.462-6.064c-2.178-8.168-5.022-16.148-7.699-24.161
							c-1.379-4.128-2.757-8.255-4.136-12.382c-0.335-1.003-0.67-2.008-1.093-2.979c-0.39-0.897-0.868-1.747-1.359-2.592
							c-0.949-1.636-1.796-3.285-2.349-5.101c-2.339-7.688-0.09-15.644,2.644-22.896c0.368-0.975,0.748-1.943,1.145-2.907
							c0.027-0.066,0.132-0.038,0.109,0.033c-2.492,7.657-5.464,15.624-3.791,23.796c0.394,1.925,1.056,3.773,1.997,5.498
							c0.478,0.877,1.003,1.727,1.47,2.61c0.475,0.897,0.862,1.833,1.206,2.788c1.464,4.059,2.762,8.184,4.135,12.274
							c2.732,8.136,5.605,16.251,7.882,24.53c0.567,2.061,1.092,4.134,1.557,6.221c0.342,1.536,1.111,3.631-0.229,4.904
							c-0.982,0.932-2.525,1.049-3.808,1.057c-2.155,0.014-4.311-0.012-6.466-0.018c-8.769-0.025-22.798-0.759-23.886-0.783
							C239.267,394.58,239.276,394.287,239.469,394.284z"/>
						<path style="fill:#37474F;" d="M229.8,426.032c0.849-4.401,1.66-8.826,2.635-13.204c0.977-4.39,2.032-8.76,3.167-13.111
							c0.321-1.229,0.653-2.454,0.981-3.68c0.156-0.585,0.313-1.169,0.484-1.75c0.173-0.586,0.298-1.194,0.539-1.755
							c0.027-0.063,0.111-0.027,0.108,0.033c-0.064,1.12-0.375,2.279-0.599,3.378c-0.217,1.062-0.421,2.127-0.64,3.189
							c-0.451,2.184-0.91,4.365-1.387,6.543c-0.955,4.367-2.04,8.695-3.152,13.023c-0.632,2.459-1.267,4.918-1.91,7.372
							C229.988,426.209,229.772,426.178,229.8,426.032z"/>
					</g>
					<path style="fill:#37474F;" d="M302.234,370.277l-44.502-16.118c-0.625-1.712-1.249-3.407-1.858-5.07
						c-0.641-1.736-6.976-8.144-6.238-19.736c0.714-11.284,5.451-20.702,5.451-20.702h41.201c0,0-0.535,16.913-3.074,25.236
						c0,0-2.766,1.46-3.594,1.979C289.62,335.866,296.556,352.472,302.234,370.277z"/>
				</g>
			</g>
			<g>
				<g>
					<path style="fill:#AD6359;" d="M369.884,434.737c-1.679,0.505-49.207-1.068-50.977-2.278
						c-0.681-0.448-0.855-7.387-0.825-15.777c0.001-0.088,0.002-0.175,0.003-0.263c0.002-1.729,0.749-30.719,0.749-30.719
						l33.268,1.002l-3.343,30.388l-0.029,0.52c0,0,17.923,8.739,19.73,10.275C370.253,429.416,371.563,434.24,369.884,434.737z"/>
					<path style="fill:#EBEBEB;" d="M369.884,434.741c-1.679,0.503-49.207-1.071-50.975-2.279c-0.681-0.454-0.86-7.39-0.827-15.778
						v-0.268c0.008-0.471-0.003-2.823,0.142-6.384l31.181,1.194l-0.644,5.864l-0.033,0.519c0,0,17.927,8.745,19.736,10.278
						C370.25,429.42,371.564,434.238,369.884,434.741z"/>
					<g>
						<path style="fill:#FFC727;" d="M370.246,434.944c-1.695,0.505-49.688-1.093-51.48-2.311c-0.682-0.458-0.857-7.461-0.828-15.93
							l30.945,0.941c0,0,18.102,8.831,19.923,10.377C370.618,429.568,371.941,434.439,370.246,434.944z"/>
						<g>
							<g>
								<path style="fill:#263238;" d="M369.622,433.001c-8.039-0.466-40.505-1.584-48.486-1.433
									c-0.065,0.001-0.066,0.045-0.002,0.05c7.957,0.636,40.432,1.491,48.484,1.515
									C369.787,433.134,369.791,433.011,369.622,433.001z"/>
								<path style="fill:#263238;" d="M365.777,426.192c-1.906-0.141-3.8,0.703-4.879,1.804c-1.036,1.059-1.942,2.565-1.941,4.236
									c0,0.048,0.088,0.052,0.097,0.003c0.564-3.133,3.52-5.803,6.719-5.942C365.838,426.29,365.842,426.197,365.777,426.192z"/>
								<path style="fill:#263238;" d="M351.977,418.549c-3.219-0.152-6.99,0.861-9.079,3.427c-0.081,0.099,0.062,0.213,0.159,0.167
									c2.961-1.403,5.765-2.43,8.962-3.196C352.245,418.893,352.207,418.56,351.977,418.549z"/>
								<path style="fill:#263238;" d="M354.431,419.601c-3.219-0.152-6.99,0.86-9.079,3.427c-0.081,0.099,0.062,0.213,0.159,0.167
									c2.961-1.404,5.765-2.43,8.962-3.196C354.698,419.945,354.661,419.611,354.431,419.601z"/>
								<path style="fill:#263238;" d="M356.884,420.652c-3.219-0.152-6.99,0.86-9.079,3.427c-0.081,0.1,0.062,0.213,0.159,0.167
									c2.961-1.404,5.765-2.43,8.962-3.196C357.152,420.997,357.115,420.663,356.884,420.652z"/>
								<path style="fill:#263238;" d="M359.338,421.704c-3.219-0.152-6.99,0.86-9.078,3.427c-0.081,0.099,0.062,0.213,0.159,0.167
									c2.961-1.404,5.765-2.43,8.962-3.196C359.605,422.048,359.568,421.715,359.338,421.704z"/>
								<path style="fill:#263238;" d="M323.439,423.995c-3.613-0.11-3.79,5.505-0.171,5.615
									C326.882,429.72,327.058,424.105,323.439,423.995z"/>
							</g>
							<path style="fill:#263238;" d="M355.743,410.072c-1.585-1.406-3.682-0.153-4.734,1.216c-1.703,2.219-2.928,5.367-3.2,8.137
								c-0.007,0.068,0.044,0.097,0.097,0.095c0.061,0.233,0.327,0.436,0.571,0.279c2.345-1.509,5.04-2.833,6.852-5.017
								C356.387,413.508,357.242,411.402,355.743,410.072z M351.565,416.784c-1.136,0.77-2.302,1.48-3.409,2.293
								c0.629-1.586,1.185-3.19,1.973-4.711c0.376-0.726,0.776-1.464,1.249-2.133c0.735-1.041,3.985-3.627,4.189-0.113
								C355.679,414.058,352.918,415.866,351.565,416.784z"/>
							<path style="fill:#263238;" d="M339.769,420.353c2.789,0.524,5.708-0.178,8.477-0.513c0.287-0.035,0.362-0.36,0.26-0.579
								c0.042-0.032,0.063-0.087,0.014-0.136c-1.978-1.958-4.931-3.6-7.658-4.22c-1.684-0.383-4.098-0.008-4.42,2.086
								C336.137,418.971,338.14,420.047,339.769,420.353z M337.886,418.455c-2.087-2.835,2.066-2.919,3.296-2.588
								c0.79,0.213,1.57,0.526,2.322,0.845c1.578,0.668,3.031,1.547,4.527,2.366c-1.37,0.081-2.722,0.279-4.087,0.411
								C342.316,419.647,339.036,420.018,337.886,418.455z"/>
						</g>
					</g>
				</g>
				<g>
					<path style="fill:#DBDBDB;stroke:#455A64;stroke-miterlimit:10;" d="M351.47,414.773H314.25c0,0,6.63-50.665,4.424-53.974
						c-0.967-1.451-49.283,3.391-63.418-11.919c-12.924-13.998,0.229-40.225,0.229-40.225h39.658c0,0,0.81,11.242,2.943,15.734
						c0.915,1.927,45.217-0.817,52.151,11.841C359.502,353.144,351.47,414.773,351.47,414.773z"/>
					<g>
						<path style="fill:#37474F;" d="M318.175,407.694c4.199-0.123,8.41-0.288,12.614-0.283c4.215,0.005,8.429,0.089,12.643,0.256
							c1.19,0.047,4.702,0.214,5.268,0.255c0.571,0.042,1.154,0.033,1.717,0.146c0.063,0.013,0.048,0.103-0.008,0.112
							c-0.912,0.158-10.437,0.265-12.527,0.271c-4.19,0.012-8.371-0.111-12.559-0.261c-2.379-0.085-4.759-0.173-7.136-0.271
							C318.053,407.915,318.036,407.698,318.175,407.694z"/>
						<g>
							<path style="fill:#37474F;" d="M293.524,320.793c-0.166-1.189-0.322-2.38-0.463-3.572c-0.322-2.719-0.604-5.457-0.687-8.195
								c-0.007-0.214,0.301-0.197,0.325,0.004c0.253,2.112,0.448,4.233,0.687,6.347c0.237,2.093,0.421,4.229,0.815,6.3
								c0.119,0.625,0.382,1.671,1.18,1.683c1.075,0.016,1.278-1.433,1.371-2.22c0.231-1.967,0.209-3.945,0.107-5.919
								c-0.116-2.246-0.398-4.489-0.646-6.724c-0.009-0.08,0.124-0.096,0.141-0.017c0.923,4.348,1.809,8.909,1.042,13.355
								c-0.15,0.867-0.535,1.795-1.441,2.097c-0.015,0.005-0.029,0.006-0.043,0.01c0.011,0.024,0.026,0.045,0.028,0.074
								c0.008,0.126-0.001,0.252,0.003,0.378c0.006,0.106,0.006,0.212,0.002,0.317c0.001,0.22,0.015,0.44,0.005,0.661
								c-0.009,0.203-0.279,0.205-0.323,0.029c-0.053-0.012-0.102-0.041-0.117-0.109c-0.093-0.42-0.041-0.868,0.026-1.29
								c-0.525,0.016-1.003-0.261-1.321-0.711C293.707,322.573,293.641,321.633,293.524,320.793z"/>
							<g>
								<path style="fill:#37474F;" d="M297.47,324.015c-3.06,2.022-5.878,4.499-8.534,7.019c-0.104,0.099,0.025,0.267,0.142,0.176
									c2.906-2.246,5.891-4.448,8.669-6.851C297.965,324.171,297.705,323.86,297.47,324.015z"/>
							</g>
						</g>
						<path style="fill:#37474F;" d="M264.871,326.172c0.863-0.022,1.707-0.04,2.559-0.197c0.75-0.139,1.495-0.349,2.226-0.565
							c1.374-0.406,3.048-0.888,4.048-1.973c1.016-1.103,1.698-2.605,2.301-3.961c0.664-1.491,1.171-3.098,1.348-4.726
							c0.008-0.072,0.12-0.071,0.114,0.003c-0.135,1.697-0.355,3.366-0.841,5.003c-0.241,0.812-0.569,1.605-0.937,2.367
							c-0.361,0.747-0.758,1.507-1.326,2.12c-1.108,1.196-2.923,1.78-4.477,2.09c-1.617,0.323-3.424,0.32-5.046,0.029
							C264.729,326.341,264.767,326.175,264.871,326.172z"/>
						<path style="fill:#37474F;" d="M322.689,358.403c-0.24-0.947-0.854-1.56-1.824-1.73c-1.044-0.183-2.163-0.075-3.218-0.065
							c-2.48,0.023-4.959,0.052-7.439,0.057c-9.766,0.02-19.617-0.255-29.221-2.179c-4.659-0.933-9.296-2.235-13.663-4.124
							c-3.728-1.613-7.454-3.825-9.778-7.254c-2.674-3.947-2.883-9.112-2.792-13.728c0.099-4.977,0.901-9.942,2.393-14.693
							c0.38-1.209,0.808-2.4,1.285-3.575c0.03-0.074-0.078-0.137-0.111-0.061c-1.957,4.534-3.292,9.271-3.876,14.178
							c-0.286,2.404-0.399,4.822-0.329,7.242c0.068,2.357,0.251,4.76,0.917,7.033c2.531,8.64,12.214,12.211,20.046,14.406
							c9.422,2.641,19.252,3.374,28.998,3.519c4.899,0.073,9.801,0.016,14.701-0.066c0.936-0.016,2.476-0.277,3.032,0.705
							c0.291,0.514,0.348,1.208,0.438,1.781c0.108,0.69,0.184,1.384,0.236,2.08c0.194,2.603,0.049,5.215-0.104,7.817
							c-0.311,5.289-0.679,10.575-1.098,15.856c-0.421,5.311-1.013,10.61-1.4,15.923c-0.095,1.301-0.222,2.6-0.346,3.898
							c-0.014,0.148,0.243,0.178,0.262,0.029c1.36-10.499,2.334-21.041,3.024-31.606c0.17-2.609,0.363-5.222,0.434-7.836
							C323.326,363.501,323.309,360.854,322.689,358.403z"/>
						<path style="fill:#37474F;" d="M298.855,360.344c-3.7-0.031-6.756-0.326-9.881-0.719c-3.087-0.388-6.171-0.808-9.238-1.332
							c-5.333-0.91-10.788-1.913-15.827-3.944c-2.71-1.093-5.392-2.519-7.625-4.422c-0.062-0.053-0.146,0.034-0.087,0.092
							c3.813,3.7,8.645,5.872,13.726,7.257c5.793,1.579,11.805,2.496,17.77,3.118c3.546,0.37,7.607,0.389,11.172,0.324
							C299.112,360.714,299.088,360.346,298.855,360.344z"/>
					</g>
				</g>
			</g>
		</g>
		<g>
			<g>
				<g>
					<path style="fill:#063359;" d="M275.799,262.786c-9.456,10.339-22.034,25.501-18.862,28.905
						c8.103,8.699,28.045,16.211,32.858,17.226c2.798,0.59,11.274-18.791,8.395-19.822c-3.362-1.204-20.686-5.468-21.357-6.689
						c-0.511-0.93,5.326-12.44,6.251-16C285.368,257.607,280.185,257.99,275.799,262.786z"/>
				</g>
				<g>
					<path style="fill:#063359;" d="M293.632,286.927l-7.915,22.6c0,0-27.688-11.421-29.492-18.88
						c-1.053-4.355,10.513-20.283,18.639-27.945c8.865-8.36,10.655-1.443,8.129,5.114c-2.011,5.221-5.89,13.855-5.529,14.112
						C277.824,282.184,293.632,286.927,293.632,286.927z"/>
					<path style="opacity:0.1;" d="M278.71,286.159c-0.705-0.131-1.428-0.232-2.192-0.144c0.672,0.352,1.376,0.552,2.085,0.699
						c0.713,0.129,1.435,0.222,2.194,0.152C280.124,286.506,279.421,286.314,278.71,286.159z M257.431,285.773
						c-0.078,0.172-0.151,0.334-0.221,0.505c0.577,0.093,1.15,0.136,1.75,0.079C258.47,286.089,257.95,285.914,257.431,285.773z
						 M285.145,293.134c0.129-0.713,0.222-1.435,0.146-2.184c-0.362,0.666-0.553,1.368-0.701,2.077
						c-0.137,0.715-0.222,1.435-0.144,2.192C284.798,294.547,284.989,293.845,285.145,293.134z M267.598,280.099
						c0.139-0.707,0.232-1.428,0.154-2.186c-0.362,0.666-0.562,1.37-0.709,2.079c-0.129,0.713-0.22,1.443-0.144,2.192
						C267.259,281.51,267.453,280.816,267.598,280.099z M280.728,262.342c0.603-0.408,1.169-0.858,1.653-1.442
						c-0.725,0.215-1.355,0.578-1.962,0.969c-0.603,0.408-1.178,0.86-1.661,1.444C279.484,263.098,280.122,262.733,280.728,262.342z
						 M281.489,304.529c0.601-0.416,1.178-0.86,1.661-1.444c-0.733,0.217-1.363,0.58-1.97,0.971
						c-0.601,0.416-1.177,0.86-1.661,1.444C280.252,305.283,280.882,304.92,281.489,304.529z M265.543,292.486
						c0.593-0.414,1.178-0.86,1.661-1.444c-0.733,0.217-1.363,0.58-1.978,0.973c-0.595,0.406-1.169,0.858-1.653,1.442
						C264.306,293.241,264.928,292.88,265.543,292.486z M274.451,297.492c-0.416-0.601-0.86-1.178-1.444-1.661
						c0.217,0.733,0.58,1.364,0.963,1.972c0.418,0.609,0.868,1.176,1.452,1.66C275.208,298.737,274.843,298.098,274.451,297.492z
						 M276.543,273.086c-0.414-0.593-0.858-1.169-1.442-1.653c0.217,0.733,0.578,1.355,0.963,1.972
						c0.416,0.601,0.868,1.176,1.452,1.66C277.299,274.331,276.936,273.701,276.543,273.086z"/>
					<path style="fill:#263238;" d="M284.941,296.536c0.584-1.636,1.13-3.286,1.676-4.935c0.262-0.791,0.532-1.582,0.768-2.382
						c0.255-0.861,0.585-1.725,0.777-2.601c0.013-0.061-0.063-0.091-0.092-0.034c-0.402,0.801-0.688,1.679-1.034,2.507
						c-0.322,0.769-0.609,1.553-0.904,2.333c-0.615,1.624-1.23,3.249-1.807,4.887c-1.156,3.282-2.215,6.586-3.237,9.912
						c-0.025,0.08,0.091,0.123,0.122,0.045C282.513,303.043,283.772,299.812,284.941,296.536z"/>
					<path style="opacity:0.1;fill:#00233A;" d="M269.659,301.804c-6.47-3.572-12.612-7.776-13.432-11.156
						c-1.052-4.356,10.509-20.282,18.634-27.944c4.606-4.344,7.3-4.566,8.482-2.86L269.659,301.804z"/>
				</g>
			</g>
			<g>
				<g>
					<g>
						<path style="fill:#EB9481;" d="M290.905,266.852c-2.658,0.133-6.814-4.99-7.96-8.463c-0.077-0.238,0.674-2.457,1.46-5.196
							c0.47-1.664,0.955-3.528,1.274-5.261l10.381,4.642c0,0-1.737,3.435-2.275,6.46c-0.042,0.253-0.061,0.493-0.056,0.725
							c-0.002,0.033,0,0.075-0.006,0.121C293.694,261.271,293.475,266.722,290.905,266.852z"/>
					</g>
					<path style="fill:#263238;" d="M293.729,259.757c-0.004,0.031-0.001,0.078-0.007,0.125c-0.352-0.018-0.724-0.061-1.131-0.148
						c-6.35-1.435-6.703-8.906-6.609-11.663l10.08,4.505c0,0-1.739,3.437-2.28,6.456
						C293.745,259.288,293.724,259.529,293.729,259.757z"/>
				</g>
				<g>
					<g>
						<path style="fill:#37474F;" d="M283.957,241.961c0,0-7.029,6.531-6.034,7.86c0.995,1.329,10.72,0.146,12.932-1.375
							c2.213-1.521,6.517-8.038,6.517-8.038L283.957,241.961z"/>
					</g>
					<g>
						<path style="fill:#EB9481;" d="M285.136,234.93c-1.643,3.753-0.903,15.235,1.572,18.066
							c3.587,4.103,10.117,5.219,13.768,0.757c3.54-4.325,2.311-19.273-0.514-21.912
							C295.801,227.952,287.563,229.387,285.136,234.93z"/>
					</g>
					<g>
						<g>
							<path style="fill:#263238;" d="M295.732,243.049c-0.007-0.029-0.059,0.04-0.056,0.071c0.06,0.773-0.001,1.669-0.69,1.958
								c-0.021,0.009-0.017,0.048,0.009,0.043C295.844,244.961,295.913,243.772,295.732,243.049z"/>
							<path style="fill:#263238;" d="M295.004,242.273c-1.249-0.037-1.232,2.465-0.074,2.499
								C296.069,244.805,296.051,242.304,295.004,242.273z"/>
						</g>
						<g>
							<path style="fill:#263238;" d="M300.085,243.006c0.005-0.03,0.061,0.036,0.06,0.068c-0.019,0.775,0.09,1.666,0.792,1.919
								c0.022,0.008,0.02,0.047-0.006,0.043C300.075,244.922,299.943,243.738,300.085,243.006z"/>
							<path style="fill:#263238;" d="M300.772,242.192c1.246-0.103,1.361,2.396,0.207,2.492
								C299.843,244.778,299.727,242.279,300.772,242.192z"/>
						</g>
						<path style="fill:#263238;" d="M294.008,241.136c0.34-0.088,0.639-0.226,0.967-0.348c0.369-0.138,0.678-0.209,0.918-0.543
							c0.129-0.179,0.073-0.498-0.09-0.64c-0.378-0.33-0.872-0.274-1.323-0.126c-0.49,0.16-0.827,0.409-1.105,0.842
							C293.106,240.74,293.56,241.252,294.008,241.136z"/>
						<path style="fill:#263238;" d="M301.73,240.925c-0.347-0.054-0.659-0.162-0.996-0.251c-0.381-0.1-0.695-0.141-0.967-0.45
							c-0.146-0.165-0.122-0.488,0.026-0.645c0.343-0.365,0.84-0.358,1.304-0.256c0.503,0.111,0.863,0.325,1.182,0.728
							C302.589,240.442,302.188,240.997,301.73,240.925z"/>
						<path style="fill:#263238;" d="M294.963,250.097c0.187,0.18,0.374,0.429,0.655,0.45c0.27,0.021,0.585-0.103,0.832-0.201
							c0.024-0.01,0.049,0.016,0.034,0.04c-0.199,0.299-0.621,0.488-0.981,0.428c-0.351-0.059-0.527-0.361-0.614-0.681
							C294.876,250.088,294.935,250.071,294.963,250.097z"/>
						<g>
							<g>
								<path style="fill:#263238;" d="M295.761,247.771c0.439,0.67,1.079,1.033,1.77,1.161c0.308,0.06,0.632,0.068,0.95,0.037
									c0.062-0.002,0.125-0.009,0.181-0.022c0.056-0.007,0.107-0.014,0.17-0.027c0.09-0.014,0.14-0.089,0.154-0.174l0-0.006
									c-0.001-0.028-0.001-0.051-0.008-0.079c0,0,0,0,0-0.006l-0.002-0.068c0.012-0.597-0.052-1.504-0.052-1.504
									c0.219,0.108,1.334,0.6,1.314,0.288c-0.172-2.579-0.364-5.448-1.08-7.979c-0.02-0.085-0.15-0.064-0.141,0.021
									c0.068,2.486,0.572,4.943,0.68,7.439c-0.356-0.132-0.936-0.378-1.248-0.369c-0.085,0.025,0.156,1.751,0.129,2.019
									c0,0,0,0.011-0.005,0.028c-1.002,0.135-1.76-0.162-2.737-0.828C295.775,247.657,295.714,247.71,295.761,247.771z"/>
							</g>
						</g>
						<g>
							<path style="fill:#263238;" d="M298.126,248.67c0,0-0.524,0.718-1.247,0.98c-0.266,0.098-0.553,0.138-0.855,0.059
								c-0.62-0.158-0.64-0.726-0.529-1.213c0.089-0.4,0.272-0.746,0.272-0.746S296.676,248.59,298.126,248.67z"/>
							<path style="fill:#FF9BBC;" d="M296.879,249.65c-0.266,0.098-0.553,0.138-0.855,0.059c-0.62-0.158-0.64-0.726-0.529-1.213
								C296.159,248.56,296.818,249.006,296.879,249.65z"/>
						</g>
					</g>
					<path style="fill:#263238;" d="M284.968,245.235c2.085-0.662,2.944-7.745,2.944-7.745s0.07,2.991,0.629,2.902
						c0.558-0.088,2.735-4.219,2.908-7.14c0,0,2.716,1.724,5.403,2.44c2.687,0.715,5.216,1.239,5.203,0.787
						c-0.039-1.348-1.431-5.103-3.299-6.296c-2.15-1.373-4.867-2.625-9.168-0.83c-4.301,1.795-5.222,4.057-5.803,6.243
						C283.204,237.782,284.202,245.478,284.968,245.235z"/>
					<path style="fill:#455A64;" d="M297.867,229.124c-3.677-2.031-11.826-1.441-13.741,4.983c-1.266,4.252-0.329,8.521-0.329,8.521
						s5.013-4.455,6.942-5.289c4.906-2.123,11.409-1.382,11.409-1.382S301.169,230.95,297.867,229.124z M291.578,235.614
						c0.005-1.106,0.42-2.729,2.83-3.136c2.774-0.468,3.368,2.121,3.368,2.121C294.679,234.501,291.578,235.614,291.578,235.614z"/>
					<g>
						<path style="fill:#EB9481;" d="M286.467,244.373c0,0-2.195-3.89-3.936-3.141c-1.741,0.749-0.336,6.215,1.535,7.125
							c1.871,0.91,2.747-0.805,2.747-0.805L286.467,244.373z"/>
						<path style="fill:#263238;" d="M282.973,242.789c-0.031-0.006-0.041,0.037-0.015,0.051c1.308,0.683,1.902,2.014,2.277,3.371
							c-0.356-0.543-0.881-0.872-1.602-0.455c-0.038,0.022-0.009,0.081,0.03,0.076c0.569-0.066,0.962,0.07,1.295,0.553
							c0.236,0.342,0.379,0.759,0.535,1.143c0.052,0.128,0.278,0.084,0.245-0.061c-0.003-0.011-0.006-0.022-0.008-0.032
							C285.933,245.702,284.819,243.144,282.973,242.789z"/>
					</g>
				</g>
			</g>
			<g>
				<g>
					<path style="fill:#063359;" d="M249.823,316.776c0.094,0.15,50.096,8.736,50.638,8.299c0.758-0.616,1.786-51.242-6.378-62.254
						c-2.01-2.711-9.579-6.383-12.281-5.007c-7.007,3.567-11.866,12.539-14.942,17.732c-2.277,3.848-5.346,10.537-8.242,17.434
						C253.831,304.34,249.49,316.236,249.823,316.776z"/>
				</g>
				<path style="display:none;opacity:0.1;" d="M283.129,277.428c-0.277,0.673-0.513,1.362-0.588,2.12
					c0.488-0.58,0.816-1.23,1.102-1.895c0.277-0.681,0.512-1.37,0.588-2.119C283.743,276.113,283.415,276.763,283.129,277.428z
					 M261.823,288.838c-0.269,0.673-0.504,1.37-0.58,2.119c0.488-0.58,0.816-1.23,1.102-1.895c0.277-0.673,0.504-1.369,0.58-2.119
					C262.446,287.523,262.118,288.173,261.823,288.838z M288.861,320.811c-0.269,0.673-0.504,1.361-0.58,2.119
					c0.488-0.58,0.816-1.23,1.11-1.895c0.269-0.681,0.496-1.369,0.58-2.119C289.483,319.496,289.155,320.145,288.861,320.811z
					 M263.707,319.142c-0.016,0.034-0.023,0.059-0.039,0.093c0.192,0.027,0.384,0.062,0.576,0.09
					c0.261-0.656,0.489-1.336,0.565-2.077C264.321,317.827,263.993,318.477,263.707,319.142z M250.914,314.005
					c-0.269,0.673-0.504,1.361-0.588,2.12c0.496-0.589,0.824-1.23,1.11-1.904c0.277-0.673,0.504-1.361,0.58-2.119
					C251.536,312.69,251.208,313.34,250.914,314.005z M277.673,303.318c-0.269,0.673-0.504,1.361-0.588,2.119
					c0.496-0.581,0.824-1.23,1.11-1.895c0.277-0.681,0.504-1.37,0.58-2.119C278.295,302.002,277.967,302.652,277.673,303.318z
					 M272.924,267.567c-0.277,0.673-0.504,1.361-0.58,2.119c0.48-0.58,0.807-1.238,1.101-1.903c0.278-0.665,0.505-1.353,0.588-2.111
					C273.546,266.252,273.219,266.902,272.924,267.567z M298.88,278.717c-0.009-0.008-0.025-0.008-0.034-0.016
					c-0.665-0.278-1.353-0.513-2.111-0.588c0.58,0.488,1.23,0.824,1.895,1.11c0.118,0.046,0.235,0.092,0.353,0.13
					C298.951,279.139,298.919,278.924,298.88,278.717z M263.608,304.366c-0.673-0.269-1.361-0.504-2.119-0.588
					c0.581,0.496,1.23,0.824,1.904,1.11c0.665,0.278,1.353,0.505,2.111,0.588C264.923,304.988,264.273,304.652,263.608,304.366z
					 M300.61,322.651c-0.665-0.269-1.353-0.505-2.119-0.58c0.589,0.488,1.238,0.816,1.903,1.101
					c0.101,0.038,0.202,0.085,0.303,0.123c0.019-0.183,0.03-0.375,0.04-0.582C300.694,322.69,300.652,322.667,300.61,322.651z
					 M282.507,313.757c-0.673-0.269-1.361-0.504-2.119-0.58c0.589,0.488,1.238,0.816,1.903,1.102
					c0.673,0.277,1.362,0.513,2.12,0.588C283.822,314.38,283.172,314.052,282.507,313.757z M297.383,299.656
					c-0.665-0.269-1.353-0.505-2.111-0.58c0.58,0.48,1.23,0.816,1.895,1.102c0.673,0.269,1.37,0.512,2.12,0.588
					C298.698,300.278,298.057,299.95,297.383,299.656z M277.928,286.653c-0.665-0.269-1.353-0.505-2.119-0.58
					c0.589,0.488,1.238,0.816,1.903,1.101c0.673,0.277,1.362,0.513,2.12,0.588C279.243,287.276,278.601,286.947,277.928,286.653z
					 M258.602,312.97c-0.279-0.672-0.607-1.326-1.082-1.908c0.066,0.753,0.295,1.444,0.558,2.124
					c0.287,0.663,0.607,1.317,1.082,1.908C259.094,314.333,258.865,313.643,258.602,312.97z M284.072,262.287
					c-0.279-0.672-0.607-1.317-1.082-1.908c0.066,0.753,0.295,1.444,0.558,2.116c0.279,0.672,0.607,1.326,1.083,1.916
					C284.565,263.657,284.335,262.959,284.072,262.287z M292.786,286.776c-0.287-0.663-0.598-1.318-1.082-1.908
					c0.066,0.754,0.296,1.452,0.558,2.124c0.287,0.672,0.607,1.326,1.091,1.908C293.278,288.146,293.057,287.456,292.786,286.776z
					 M275.906,320.221c-0.287-0.663-0.599-1.318-1.082-1.908c0.066,0.754,0.295,1.444,0.558,2.124
					c0.125,0.287,0.251,0.573,0.401,0.851c0.167,0.028,0.342,0.055,0.509,0.083C276.187,320.976,276.059,320.598,275.906,320.221z
					 M289.322,306.174c-0.287-0.663-0.607-1.317-1.082-1.908c0.066,0.754,0.295,1.444,0.558,2.124
					c0.287,0.672,0.607,1.326,1.083,1.917C289.814,307.545,289.584,306.855,289.322,306.174z M270.575,295.582
					c-0.287-0.663-0.599-1.326-1.083-1.917c0.066,0.762,0.296,1.452,0.558,2.133c0.287,0.663,0.607,1.317,1.091,1.908
					C271.067,296.945,270.846,296.263,270.575,295.582z M256.299,298.605c-0.092,0.235-0.193,0.471-0.285,0.706
					c0.066-0.019,0.14-0.046,0.205-0.073c0.672-0.287,1.326-0.607,1.908-1.082C257.482,298.21,256.882,298.387,256.299,298.605z
					 M270.708,310.897c-0.672,0.287-1.326,0.607-1.917,1.083c0.762-0.066,1.452-0.296,2.133-0.558
					c0.664-0.279,1.317-0.607,1.9-1.082C272.071,310.405,271.381,310.635,270.708,310.897z M269.276,279.64
					c-0.663,0.287-1.318,0.598-1.9,1.082c0.754-0.066,1.444-0.295,2.124-0.558c0.663-0.287,1.317-0.607,1.908-1.091
					C270.646,279.148,269.956,279.37,269.276,279.64z M295.708,314.24c-0.672,0.287-1.326,0.607-1.917,1.083
					c0.754-0.066,1.452-0.296,2.124-0.558c0.672-0.279,1.318-0.598,1.908-1.082C297.07,313.748,296.38,313.977,295.708,314.24z
					 M286.564,294.995c-0.672,0.287-1.326,0.607-1.917,1.083c0.754-0.066,1.452-0.296,2.124-0.558
					c0.672-0.279,1.318-0.598,1.908-1.082C287.927,294.503,287.237,294.733,286.564,294.995z M293.763,268.536
					c-0.663,0.287-1.317,0.607-1.908,1.082c0.762-0.066,1.444-0.295,2.125-0.55c0.672-0.287,1.325-0.615,1.916-1.091
					C295.134,268.043,294.443,268.273,293.763,268.536z"/>
			</g>
			<g>
				<defs>
					<path id="SVGID_1_" d="M249.823,316.776c0.094,0.15,50.096,8.736,50.638,8.299c0.758-0.616,1.786-51.242-6.378-62.254
						c-2.01-2.711-9.579-6.383-12.281-5.007c-7.007,3.567-11.866,12.539-14.942,17.732c-2.277,3.848-5.346,10.537-8.242,17.434
						C253.831,304.34,249.49,316.236,249.823,316.776z"/>
				</defs>
				<clipPath id="SVGID_2_">
					<use xlink:href="#SVGID_1_"  style="overflow:visible;"/>
				</clipPath>
				<path style="opacity:0.8;clip-path:url(#SVGID_2_);fill:none;stroke:#FFFFFF;stroke-width:1.7;stroke-miterlimit:10;" d="
					M281.944,281.648c0.756,0.143,1.509,0.285,2.262,0.428c0.431,0.123,0.865,0.239,1.301,0.349c0.437,0.11,0.877,0.213,1.323,0.311
					c10.665,3.017,20.868,2.681,31.452,7.086c0.372,0.226,0.741,0.465,1.105,0.714s0.723,0.511,1.076,0.784
					c2.221,1.576-5.762,3.489-5.728,7.023c-0.097,0.493-0.159,0.999-0.215,1.509c-0.074,0.68-0.138,1.362-0.191,2.047
					c0.712,5.885-2.315,11.236,0.018,16.808c-0.46-0.075-0.916-0.149-1.369-0.222s-0.901-0.146-1.347-0.219
					c-10.081-2.791-21.219-2.953-32.467-4.869c-0.26-0.056-0.509-0.112-0.76-0.169c-0.725-0.169-1.453-0.34-2.186-0.511
					c-0.265-0.063-0.549-0.124-0.845-0.184c-0.295-0.06-0.6-0.118-0.905-0.177c2.98-8.621,4.96-18.584,6.713-27.295
					c0.065-0.303,0.131-0.606,0.197-0.9c0.066-0.294,0.132-0.577,0.196-0.844C281.7,282.785,281.823,282.23,281.944,281.648z"/>
				<g id="Layer_2_00000072987259627802405650000003871453143910033587_" style="opacity:0.8;clip-path:url(#SVGID_2_);">
					<g id="Layer_1-2_00000112599688400090899310000014342171476976351111_">
						<path style="fill:#FFFFFF;" d="M304.256,305.123c0.319-0.015,0.607-0.083,0.867-0.203c0.26-0.12,0.493-0.292,0.702-0.511
							c-0.04,0.059-0.079,0.119-0.135,0.202l0.847,0.079l-0.681,0.685l0.197,0.021c0.379,0.041,0.749,0.091,1.119,0.124
							c0.136,0.012,0.197,0.068,0.204,0.203c0.005,0.044,0.012,0.088,0.023,0.131c0.054,0.318,0.055,0.687,0.61,0.547
							c-0.209,0.282-0.436,0.494-0.687,0.641c-0.251,0.147-0.526,0.228-0.829,0.25c-0.155,0.008-0.309-0.002-0.459-0.028
							c-0.493-0.077-0.995-0.153-1.512-0.231c-0.517-0.078-1.047-0.162-1.588-0.251c-0.541-0.089-1.086-0.183-1.627-0.276
							c-0.54-0.093-1.065-0.19-1.565-0.279c-0.538-0.087-0.936-0.34-1.155-0.695c-0.219-0.355-0.265-0.816-0.117-1.327
							c0.075-0.274,0.147-0.55,0.213-0.829c0.066-0.28,0.127-0.564,0.182-0.855c0.055-0.291,0.103-0.589,0.144-0.896
							c0.042-0.307,0.077-0.622,0.108-0.943c0.042-0.562,0.235-0.979,0.662-1.189c0.043-0.029,0.076-0.079,0.091-0.139
							c0.07-0.27,0.176-0.365,0.406-0.335c0.185,0.024,0.375,0.055,0.574,0.088c0.318,0.054,0.382,0.118,0.479,0.507
							c0.191,0.04,0.399,0.095,0.613,0.13c0.058,0.01,0.139-0.035,0.178-0.082c0.177-0.208,0.349-0.423,0.507-0.649
							c0.175-0.253,0.42-0.335,0.72-0.279c0.483,0.084,0.959,0.161,1.422,0.225c0.463,0.064,0.91,0.119,1.347,0.169
							c0.271,0.029,0.473,0.179,0.58,0.484c0.087,0.251,0.2,0.486,0.289,0.731c0.042,0.118,0.103,0.166,0.211,0.169
							c0.331,0.009,0.643,0.089,0.917,0.298c0.266,0.199,0.468,0.441,0.593,0.722c0.126,0.281,0.173,0.603,0.132,0.966
							c-0.034,0.279-0.072,0.556-0.114,0.831c-0.042,0.275-0.088,0.548-0.136,0.82s-0.1,0.541-0.153,0.809
							c-0.053,0.268-0.107,0.535-0.161,0.802c-0.01,0.03-0.021,0.06-0.035,0.09c-0.025-0.081-0.044-0.138-0.057-0.196
							c-0.062-0.288-0.123-0.576-0.184-0.865c-0.061-0.288-0.122-0.577-0.185-0.868c-0.063-0.291-0.128-0.584-0.197-0.88
							c-0.069-0.296-0.141-0.595-0.217-0.897c-0.04-0.158-0.103-0.22-0.25-0.216c-0.158,0.005-0.318-0.017-0.445-0.025
							c0.099,0.398,0.195,0.781,0.27,1.165c0.017,0.125,0.004,0.257-0.038,0.382l-0.139-0.57c-0.28,0.478-0.557,0.919-0.847,1.348
							c0.137-0.255,0.22-0.51,0.244-0.773c0.024-0.263-0.012-0.532-0.113-0.812c-0.247,0.402-0.488,0.763-0.738,1.116
							c-0.17,0.239-0.346,0.471-0.528,0.698c-0.182,0.227-0.369,0.45-0.559,0.67l-0.739-0.112c0.003-0.024,0.003-0.048,0-0.071
							c-0.107-0.428-0.224-0.861-0.355-1.306c-0.131-0.445-0.278-0.905-0.434-1.376c-0.016-0.035-0.035-0.069-0.056-0.103
							c-0.37,0.358-0.53,0.764-0.557,1.223c-0.115-0.39-0.233-0.785-0.362-1.222c-0.159,0.216-0.29,0.395-0.42,0.573
							c0.046-0.286,0.143-0.545,0.289-0.786s0.342-0.463,0.586-0.668c-0.243-0.057-0.431-0.088-0.609-0.141
							c-0.154-0.047-0.229,0.001-0.304,0.124c-0.198,0.32-0.394,0.634-0.591,0.944c-0.197,0.31-0.395,0.615-0.597,0.917
							c-0.202,0.302-0.408,0.597-0.617,0.887c-0.21,0.291-0.423,0.579-0.638,0.867c-0.034,0.044-0.064,0.091-0.105,0.15
							c0.069,0.01,0.116,0.016,0.163,0.023c0.204,0.026,0.438,0.134,0.61,0.059c0.181-0.079,0.305-0.33,0.44-0.517
							c0.085-0.118,0.166-0.156,0.314-0.13c0.433,0.078,0.9,0.158,1.404,0.262l-0.39-0.825c0.334,0.071,0.613,0.146,0.903,0.185
							c0.149,0.02,0.209,0.072,0.276,0.167c0.248,0.358,0.594,0.621,1.061,0.759c0.061,0.222,0.12,0.443,0.18,0.681
							C303.906,305.49,304.082,305.309,304.256,305.123z M304.711,305.833c0.384-0.086,0.747-0.211,1.102-0.458
							c-0.217-0.024-0.394-0.047-0.576-0.063c-0.039-0.005-0.109,0.012-0.131,0.038c-0.135,0.16-0.26,0.324-0.392,0.485
							c-0.386-0.006-0.785,0.007-1.175-0.04c-0.279-0.034-0.542-0.146-0.816-0.227l-0.038,0.046c0.073,0.042,0.14,0.104,0.22,0.12
							c0.442,0.083,0.884,0.141,1.311,0.218C304.409,305.986,304.572,305.993,304.711,305.833z M302.718,302.121
							c0.253-0.22,0.554-0.375,0.872-0.467c0.318-0.092,0.65-0.12,0.968-0.083s0.619,0.141,0.88,0.314
							c0.261,0.173,0.481,0.415,0.64,0.729c0.212-0.223,0.244-0.589,0.528-0.761c-0.225-0.362-0.522-0.639-0.865-0.837
							s-0.736-0.318-1.144-0.363c-0.409-0.046-0.833-0.018-1.236,0.081c-0.403,0.099-0.78,0.271-1.091,0.52
							C302.628,301.476,302.504,301.851,302.718,302.121z M300.54,299.695c-0.285-0.038-0.531,0.212-0.559,0.551
							c-0.028,0.339,0.168,0.635,0.448,0.671l0,0c0.289,0.038,0.56-0.186,0.602-0.519
							C301.056,300.058,300.834,299.742,300.54,299.695L300.54,299.695z M301.71,304.733c0.295,0.341,0.578,0.598,0.983,0.787
							c-0.047-0.19-0.079-0.35-0.135-0.507c-0.023-0.06-0.078-0.11-0.149-0.138C302.204,304.825,301.988,304.79,301.71,304.733
							L301.71,304.733z"/>
						<path style="fill:#FFFFFF;" d="M294.05,299.755l-0.115,0.746c0,0-0.506-0.156-1.018-0.319
							c-0.512-0.163-1.019-0.324-1.019-0.324c-0.084,0.304-0.164,0.607-0.241,0.91c-0.076,0.303-0.147,0.608-0.212,0.914
							c-0.065,0.306-0.125,0.614-0.178,0.925c-0.053,0.311-0.101,0.624-0.145,0.94c-0.039,0.015-0.052,0.026-0.066,0.023
							c-0.428-0.062-0.421-0.061-0.434-0.483c-0.009-0.305-0.017-0.609-0.023-0.91c-0.005-0.301-0.007-0.6-0.005-0.896
							c0.002-0.296,0.009-0.589,0.021-0.879c0.012-0.29,0.03-0.577,0.052-0.86c-0.312-0.077-0.61-0.149-0.897-0.208
							c-0.277-0.053-0.544-0.095-0.803-0.118c-0.282-0.02-0.312,0.053-0.354,0.365c-0.034,0.304-0.055,0.612-0.075,0.923
							c-0.02,0.311-0.041,0.624-0.08,0.933c-0.059,0.502-0.242,0.894-0.519,1.153c-0.278,0.259-0.65,0.385-1.083,0.357
							c-0.259-0.012-0.517-0.068-0.765-0.165c-0.392-0.162-0.686-0.435-0.865-0.789c-0.179-0.355-0.24-0.789-0.174-1.277
							c0.058-0.44,0.119-0.879,0.182-1.319c0.064-0.441,0.131-0.882,0.201-1.33c0.25,0.024,0.5,0.041,0.742,0.076
							c0.027,0.002,0.052,0.126,0.041,0.188c-0.066,0.375-0.131,0.752-0.192,1.132s-0.119,0.763-0.175,1.148
							c-0.012,0.085-0.019,0.171-0.025,0.256c-0.029,0.451,0.124,0.824,0.379,1.049c0.255,0.225,0.607,0.3,0.968,0.15
							c0.363-0.155,0.531-0.51,0.566-0.951c0.025-0.312,0.048-0.623,0.073-0.931c0.025-0.308,0.051-0.613,0.08-0.915
							c0.042-0.368,0.219-0.614,0.506-0.723c0.241-0.086,0.517-0.143,0.774-0.108c0.298,0.04,0.611,0.091,0.939,0.154
							c0.343,0.07,0.711,0.162,1.116,0.276c0.405,0.115,0.84,0.249,1.295,0.393c0.455,0.145,0.919,0.292,1.381,0.435
							C293.952,299.714,294.001,299.734,294.05,299.755z"/>
						<path style="fill:#FFFFFF;" d="M312.331,307.061c-0.352,0.014-0.563-0.12-0.727-0.445c-0.129-0.255-0.26-0.508-0.394-0.762
							c-0.133-0.253-0.269-0.503-0.405-0.75c-0.136-0.247-0.274-0.49-0.412-0.733c-0.138-0.243-0.278-0.485-0.417-0.729
							c0,0-0.121,0.741-0.247,1.479c-0.126,0.737-0.254,1.474-0.254,1.474l-0.824-0.096c0,0,0.051-0.27,0.127-0.675
							s0.177-0.949,0.272-1.497s0.184-1.102,0.248-1.523s0.104-0.703,0.104-0.703c0.188,0.013,0.38,0.015,0.567,0.048
							c0.064,0.011,0.126,0.086,0.163,0.149c0.255,0.434,0.509,0.87,0.763,1.314c0.254,0.444,0.508,0.899,0.761,1.362
							c0.031,0.06,0.068,0.119,0.128,0.223c0,0,0.112-0.689,0.222-1.376c0.11-0.687,0.219-1.372,0.219-1.372l0.83,0.143
							c0,0-0.179,1.114-0.36,2.231C312.514,305.939,312.331,307.061,312.331,307.061z"/>
						<path style="fill:#FFFFFF;" d="M294.454,300.46l1.634,0.389c0,0-0.078,0.46-0.179,0.901s-0.22,0.867-0.22,0.867l0.034,0.007
							l0.131-0.464c0,0,0.537,0.098,1.02,0.184s0.918,0.158,0.918,0.158s0.089-0.441,0.16-0.904
							c0.071-0.464,0.123-0.953,0.123-0.953l0.684,0.097c0,0-0.029,0.287-0.083,0.704c-0.054,0.417-0.145,0.95-0.258,1.461
							c-0.114,0.511-0.248,1.007-0.36,1.375c-0.112,0.368-0.191,0.614-0.191,0.614l-0.76-0.102c0,0,0.139-0.397,0.269-0.793
							s0.249-0.798,0.249-0.798s-0.46-0.074-0.967-0.158c-0.507-0.084-1.063-0.185-1.063-0.185c-0.023,0.404-0.244,0.72-0.528,1.016
							c-0.284,0.295-0.629,0.571-0.894,0.9c-0.032-0.118-0.057-0.187-0.069-0.257c-0.061-0.309-0.107-0.625-0.198-0.941
							c-0.081-0.275-0.081-0.553,0.006-0.81c0.104-0.354,0.198-0.712,0.283-1.076c0.085-0.364,0.158-0.735,0.227-1.111
							C294.425,300.545,294.441,300.514,294.454,300.46z M294.636,303.337c-0.036-0.035-0.063-0.086-0.102-0.095
							c-0.147-0.036-0.301-0.057-0.456-0.086c-0.011,0.077-0.045,0.153-0.03,0.23c0.039,0.219,0.081,0.435,0.141,0.648
							c0.017,0.062,0.095,0.148,0.163,0.161c0.067,0.012,0.189-0.03,0.243-0.077c0.179-0.158,0.343-0.326,0.503-0.496
							c0.052-0.055,0.115-0.178,0.104-0.184c-0.123-0.058-0.256-0.105-0.397-0.142C294.761,303.283,294.697,303.32,294.636,303.337z
							"/>
						<path style="fill:#FFFFFF;" d="M285.9,297.785c-0.156-0.015-0.314-0.038-0.477-0.044c-0.115-0.004-0.162-0.063-0.191-0.174
							c-0.082-0.313,0.057-0.698,0.323-0.879c0.353-0.243,0.727-0.247,0.945-0.017c0.266,0.281,0.298,0.713,0.079,1.043
							c-0.044,0.061-0.107,0.101-0.172,0.108c-0.169,0.002-0.337-0.023-0.508-0.039L285.9,297.785z"/>
						<path style="fill:#FFFFFF;" d="M296.134,300.425l-1.592-0.374c0.026-0.339,0.395-0.516,0.819-0.441
							C295.835,299.693,296.119,299.993,296.134,300.425z"/>
						<path style="fill:#FFFFFF;" d="M306.989,303.676c0.074,0.358,0.144,0.707,0.213,1.078l-0.64-0.062
							C306.71,304.358,306.85,304.024,306.989,303.676z"/>
						<path style="fill:#FFFFFF;" d="M290.746,303.725c0.215-0.014,0.302,0.068,0.217,0.232c-0.064,0.123-0.144,0.274-0.261,0.317
							c-0.28,0.107-0.486,0.243-0.403,0.639l-0.222-0.026c-0.061-0.431,0.031-0.631,0.352-0.788
							C290.587,304.025,290.779,303.985,290.746,303.725z"/>
						<path style="fill:#FFFFFF;" d="M308.375,306.473l-0.359-0.039c0.078-0.156,0.149-0.3,0.238-0.48
							C308.295,306.135,308.332,306.29,308.375,306.473z"/>
						<path style="fill:#FFFFFF;" d="M304.711,305.833c-0.138,0.16-0.303,0.152-0.496,0.119c-0.426-0.077-0.868-0.135-1.311-0.218
							c-0.081-0.014-0.147-0.078-0.22-0.12l0.038-0.046c0.274,0.081,0.537,0.193,0.816,0.227c0.391,0.048,0.79,0.035,1.176,0.041
							L304.711,305.833z"/>
						<path style="fill:#FFFFFF;" d="M301.256,303.886l-0.673-0.122l0.639-0.876C301.236,303.233,301.247,303.556,301.256,303.886z"
							/>
					</g>
				</g>
			</g>
			<g>
				<g>
					<path style="fill:#37474F;" d="M347.456,281.526l17.118,6.213c1.372,0.498,2.888-0.211,3.386-1.582l0.96-2.645l-22.086-8.016
						l-0.96,2.645C345.375,279.512,346.084,281.028,347.456,281.526z"/>
					
						<rect x="350.038" y="284.067" transform="matrix(-0.94 -0.3412 0.3412 -0.94 584.3048 689.7375)" style="fill:#37474F;" width="5.523" height="18.851"/>
					
						<rect x="345.863" y="277.648" transform="matrix(-0.94 -0.3412 0.3412 -0.94 599.8644 662.6997)" style="fill:#C7C7C7;" width="24.68" height="1.912"/>
					
						<rect x="346.585" y="275.658" transform="matrix(-0.94 -0.3412 0.3412 -0.94 601.944 659.0854)" style="fill:#C7C7C7;" width="24.68" height="1.912"/>
					<g>
						<g>
							<polygon style="fill:#FFC727;" points="374.391,264.585 375.117,264.334 375.512,264.992 370.181,279.682 369.059,279.275 
															"/>
							<polygon style="fill:#FFC727;" points="373.171,264.142 373.897,263.891 374.293,264.549 368.961,279.24 367.839,278.832 
															"/>
							<polygon style="fill:#FFC727;" points="371.951,263.699 372.677,263.449 373.073,264.107 367.741,278.797 366.619,278.39 
															"/>
							<polygon style="fill:#FFC727;" points="370.731,263.257 371.457,263.006 371.853,263.664 366.521,278.354 365.399,277.947 
															"/>
							<polygon style="fill:#FFC727;" points="369.511,262.814 370.237,262.563 370.633,263.221 365.301,277.911 364.18,277.504 
															"/>
							<polygon style="fill:#FFC727;" points="368.291,262.371 369.017,262.12 369.413,262.778 364.081,277.469 362.96,277.062 
															"/>
							<polygon style="fill:#FFC727;" points="367.072,261.929 367.797,261.678 368.193,262.336 362.861,277.026 361.74,276.619 
															"/>
							<polygon style="fill:#FFC727;" points="365.852,261.486 366.577,261.235 366.973,261.893 361.642,276.583 360.52,276.176 
															"/>
							<polygon style="fill:#FFC727;" points="364.632,261.043 365.358,260.792 365.753,261.45 360.422,276.14 359.3,275.733 
															"/>
							<polygon style="fill:#FFC727;" points="363.412,260.6 364.138,260.349 364.534,261.007 359.202,275.698 358.08,275.291 
															"/>
							<polygon style="fill:#FFC727;" points="362.192,260.158 362.918,259.907 363.314,260.565 357.982,275.255 356.86,274.848 
															"/>
							<polygon style="fill:#FFC727;" points="360.972,259.715 361.698,259.464 362.094,260.122 356.762,274.812 355.641,274.405 
															"/>
							<polygon style="fill:#FFC727;" points="359.752,259.272 360.478,259.021 360.874,259.679 355.542,274.369 354.421,273.962 
															"/>
							<polygon style="fill:#FFC727;" points="358.532,258.829 359.258,258.578 359.654,259.236 354.322,273.927 353.201,273.52 
															"/>
							<polygon style="fill:#FFC727;" points="357.313,258.387 358.038,258.136 358.434,258.794 353.103,273.484 351.981,273.077 
															"/>
							<polygon style="fill:#FFC727;" points="356.093,257.944 356.818,257.693 357.214,258.351 351.883,273.041 350.761,272.634 
															"/>
							<polygon style="fill:#FFC727;" points="354.873,257.501 355.599,257.25 355.994,257.908 350.663,272.598 349.541,272.191 
															"/>
							<polygon style="fill:#FFC727;" points="353.653,257.058 354.379,256.808 354.775,257.465 349.443,272.156 348.321,271.749 
															"/>
						</g>
						<g style="opacity:0.3;">
							<polygon points="374.391,264.585 375.117,264.334 375.512,264.992 370.181,279.682 369.059,279.275 							"/>
							<polygon points="373.171,264.142 373.897,263.891 374.293,264.549 368.961,279.24 367.839,278.832 							"/>
							<polygon points="371.951,263.699 372.677,263.449 373.073,264.107 367.741,278.797 366.619,278.39 							"/>
							<polygon points="370.731,263.257 371.457,263.006 371.853,263.664 366.521,278.354 365.399,277.947 							"/>
							<polygon points="369.511,262.814 370.237,262.563 370.633,263.221 365.301,277.911 364.18,277.504 							"/>
							<polygon points="368.291,262.371 369.017,262.12 369.413,262.778 364.081,277.469 362.96,277.062 							"/>
							<polygon points="367.072,261.929 367.797,261.678 368.193,262.336 362.861,277.026 361.74,276.619 							"/>
							<polygon points="365.852,261.486 366.577,261.235 366.973,261.893 361.642,276.583 360.52,276.176 							"/>
							<polygon points="364.632,261.043 365.358,260.792 365.753,261.45 360.422,276.14 359.3,275.733 							"/>
							<polygon points="363.412,260.6 364.138,260.349 364.534,261.007 359.202,275.698 358.08,275.291 							"/>
							<polygon points="362.192,260.158 362.918,259.907 363.314,260.565 357.982,275.255 356.86,274.848 							"/>
							<polygon points="360.972,259.715 361.698,259.464 362.094,260.122 356.762,274.812 355.641,274.405 							"/>
							<polygon points="359.752,259.272 360.478,259.021 360.874,259.679 355.542,274.369 354.421,273.962 							"/>
							<polygon points="358.532,258.829 359.258,258.578 359.654,259.236 354.322,273.927 353.201,273.52 							"/>
							<polygon points="357.313,258.387 358.038,258.136 358.434,258.794 353.103,273.484 351.981,273.077 							"/>
							<polygon points="356.093,257.944 356.818,257.693 357.214,258.351 351.883,273.041 350.761,272.634 							"/>
							<polygon points="354.873,257.501 355.599,257.25 355.994,257.908 350.663,272.598 349.541,272.191 							"/>
							<polygon points="353.653,257.058 354.379,256.808 354.775,257.465 349.443,272.156 348.321,271.749 							"/>
						</g>
					</g>
					<path style="fill:#FFC727;" d="M353.653,257.058c-1.977,3.071,1.099,6.976,4.427,7.866c3.328,0.89,5.412,0.563,6.099,2.656
						c0.687,2.093-0.43,5.535,2.141,5.46s2.821-3.426,4.745-3.689c1.924-0.263,2.115-0.044,3.227-0.886
						c1.112-0.842,2.649-2.959,1.99-4.132c-0.659-1.173-5.751-2.325-8.876-3.542C364.281,259.575,354.66,255.493,353.653,257.058z"
						/>
					<path style="opacity:0.1;fill:#FFFFFF;" d="M353.653,257.058c-1.977,3.071,1.099,6.976,4.427,7.866
						c3.328,0.89,5.412,0.563,6.099,2.656c0.687,2.093-0.43,5.535,2.141,5.46s2.821-3.426,4.745-3.689
						c1.924-0.263,2.115-0.044,3.227-0.886c1.112-0.842,2.649-2.959,1.99-4.132c-0.659-1.173-5.751-2.325-8.876-3.542
						C364.281,259.575,354.66,255.493,353.653,257.058z"/>
				</g>
				<g>
					<path style="fill:#EB9481;" d="M289.018,272.475c3.791,12.76,12.007,36.244,20.835,39.664
						c9.36,3.626,21.828-0.861,28.237-2.417c2.72-0.66-0.793-19.875-3.786-19.886c-2.942-0.011-14.927,3.03-17.123,2.603
						c-2.197-0.427-11.88-16.332-19.193-25.388C289.394,256.407,285.939,262.109,289.018,272.475z"/>
					<g>
						<path style="fill:#EB9481;" d="M363.627,294.752c0.484,2.093-1.433,3.222-1.433,3.222s1.248,1.177,1.319,2.824
							c0.081,1.886-2.841,2.839-2.841,2.839s1.017,1.453,0.916,3.2c-0.104,1.813-2.915,3.195-2.915,3.195s0.203,1.874-0.967,3.321
							c-2,2.475-6.825,1.888-9.895,1.545c-3.071-0.342-12.65-6.06-13.344-7.278l-4.171-17.252c0,0,15.295-4.17,24.168-1.423
							C357.417,289.859,363.084,292.402,363.627,294.752z"/>
						<g>
							<path style="fill:#263238;" d="M362.091,297.643c-2.986-1.583-6.277-2.197-9.527-2.997c-0.072-0.018-0.099,0.096-0.026,0.113
								c3.242,0.758,6.291,2.149,9.496,3.034C362.122,297.818,362.172,297.686,362.091,297.643z"/>
							<path style="fill:#263238;" d="M360.636,303.373c-0.686-0.338-1.482-0.448-2.226-0.592c-0.802-0.155-1.605-0.296-2.412-0.425
								c-1.614-0.258-3.234-0.479-4.86-0.652c-0.072-0.008-0.102,0.101-0.027,0.113c1.608,0.26,3.213,0.543,4.809,0.87
								c0.798,0.164,1.596,0.335,2.392,0.51c0.741,0.164,1.508,0.398,2.272,0.393C360.696,303.589,360.739,303.423,360.636,303.373z
								"/>
							<path style="fill:#263238;" d="M358.605,310.019c-0.584-0.318-1.383-0.336-2.033-0.426c-0.738-0.102-1.475-0.208-2.212-0.319
								c-1.473-0.221-2.946-0.442-4.411-0.714c-0.073-0.013-0.1,0.099-0.026,0.113c1.487,0.284,2.969,0.588,4.458,0.858
								c0.731,0.133,1.463,0.262,2.196,0.387c0.623,0.106,1.389,0.31,2.019,0.175C358.633,310.086,358.635,310.035,358.605,310.019z
								"/>
						</g>
					</g>
				</g>
				<g>
					<path style="fill:#063359;" d="M328.117,288.859l6.984,23.417c0,0-20.202,5.452-28.468-0.75
						c-8.266-6.201-16.678-30.48-18.682-41.008c-2.004-10.528,3.105-12.827,9.893-4.275c6.789,8.553,18.524,24.72,19.055,25.13
						C317.429,291.784,328.117,288.859,328.117,288.859z"/>
					<path style="display:none;opacity:0.1;" d="M293.887,269.569c-0.711,0.129-1.421,0.292-2.104,0.621
						c0.757,0.109,1.473,0.04,2.194-0.053c0.719-0.127,1.431-0.298,2.114-0.628C295.334,269.401,294.61,269.468,293.887,269.569z
						 M313.94,305.049c-0.719,0.127-1.427,0.282-2.112,0.62c0.757,0.109,1.481,0.042,2.204-0.06
						c0.719-0.127,1.421-0.292,2.106-0.629C315.387,304.881,314.656,304.938,313.94,305.049z M328.813,291.193
						c-0.308,0.015-0.604,0.057-0.9,0.1c-0.719,0.127-1.427,0.282-2.112,0.62c0.757,0.109,1.481,0.042,2.204-0.06
						c0.316-0.056,0.633-0.119,0.947-0.209L328.813,291.193z M306.933,287.658c-0.129-0.711-0.29-1.429-0.62-2.112
						c-0.109,0.757-0.042,1.481,0.06,2.204c0.121,0.71,0.292,1.421,0.621,2.104C307.103,289.096,307.034,288.38,306.933,287.658z
						 M306.055,310.212c-0.129-0.711-0.292-1.421-0.621-2.104c-0.107,0.749-0.04,1.473,0.061,2.195
						c0.021,0.106,0.041,0.22,0.062,0.326c0.2,0.184,0.402,0.359,0.599,0.517C306.135,310.829,306.095,310.525,306.055,310.212z
						 M323.994,300.759c-0.129-0.711-0.29-1.429-0.621-2.104c-0.107,0.749-0.04,1.473,0.061,2.196
						c0.129,0.711,0.29,1.429,0.621,2.104C324.164,302.198,324.095,301.482,323.994,300.759z M303.963,299.15
						c-0.594-0.415-1.211-0.8-1.932-1.046c0.464,0.6,1.021,1.075,1.604,1.505c0.594,0.415,1.21,0.808,1.931,1.054
						C305.103,300.054,304.545,299.587,303.963,299.15z M334.128,309.009c-0.257-0.237-0.528-0.452-0.806-0.669
						c-0.594-0.415-1.213-0.792-1.934-1.037c0.464,0.6,1.023,1.067,1.604,1.505c0.415,0.294,0.843,0.566,1.314,0.795
						L334.128,309.009z M296.531,280.624c-0.584-0.421-1.202-0.807-1.923-1.052c0.454,0.607,1.011,1.082,1.594,1.511
						c0.594,0.415,1.219,0.802,1.932,1.046C297.672,281.52,297.122,281.055,296.531,280.624z M297.105,292.679
						c-0.415,0.594-0.8,1.211-1.046,1.932c0.607-0.454,1.074-1.013,1.511-1.594c0.416-0.602,0.802-1.219,1.046-1.932
						C298.009,291.539,297.543,292.097,297.105,292.679z M315.764,295.605c-0.423,0.593-0.808,1.21-1.054,1.931
						c0.607-0.454,1.074-1.013,1.511-1.594c0.415-0.594,0.8-1.211,1.046-1.932C316.661,294.464,316.194,295.023,315.764,295.605z
						 M320.585,311.317c-0.416,0.602-0.802,1.219-1.054,1.931c0.615-0.453,1.082-1.011,1.511-1.594
						c0.423-0.593,0.8-1.211,1.046-1.932C321.488,310.185,321.021,310.744,320.585,311.317z"/>
					<g>
						<path style="fill:#263238;" d="M326.579,301.222c-0.447-1.679-0.932-3.347-1.418-5.015c-0.233-0.801-0.459-1.605-0.718-2.398
							c-0.279-0.854-0.497-1.752-0.835-2.583c-0.024-0.058-0.103-0.039-0.095,0.024c0.123,0.888,0.386,1.773,0.57,2.651
							c0.171,0.816,0.379,1.624,0.578,2.434c0.415,1.687,0.829,3.373,1.283,5.05c0.909,3.359,1.91,6.681,2.954,10
							c0.025,0.08,0.145,0.05,0.126-0.033C328.269,307.959,327.473,304.584,326.579,301.222z"/>
					</g>
					<path style="fill:#263238;" d="M301.021,304.889c-0.713-1.974-7.504-16.436-9.685-23.316c-0.935-2.949-1.794-5.92-2.704-8.876
						c-0.008-0.027-0.056-0.019-0.05,0.01c0.317,1.835,0.719,3.648,1.179,5.448c-0.053-0.118-0.102-0.238-0.157-0.355
						c-0.34-0.718-0.705-1.425-1.067-2.133c-0.022-0.043-0.093-0.007-0.075,0.037c0.301,0.752,0.596,1.51,0.928,2.249
						c0.211,0.469,0.446,0.924,0.675,1.383c0.213,0.782,0.417,1.567,0.673,2.337c3.871,11.658,8.927,21.374,10.16,23.257
						C300.944,305.001,301.049,304.967,301.021,304.889z"/>
				</g>
			</g>
			<g>
				<path style="fill:#063359;" d="M291.326,260.478c-3.551-3.023-14.385-6.35-19.475-4.326
					c-6.427,2.556-16.304,23.265-14.293,25.049c3.591,3.186,20.47-6.441,24.674-10.98
					C286.436,265.682,291.326,260.478,291.326,260.478z"/>
				<path style="display:none;opacity:0.1;" d="M275.304,255.535c-0.326,0.176-0.636,0.377-0.927,0.611
					c0.753-0.066,1.444-0.295,2.116-0.558c0.033-0.009,0.057-0.027,0.09-0.036C276.15,255.524,275.719,255.521,275.304,255.535z
					 M267.642,260.77c-0.107-0.246-0.215-0.491-0.339-0.728c-0.12,0.145-0.24,0.298-0.368,0.452
					c0.055,0.164,0.118,0.328,0.182,0.492c0.279,0.664,0.607,1.317,1.082,1.908C268.134,262.133,267.904,261.451,267.642,260.77z
					 M284.072,262.287c-0.279-0.672-0.607-1.317-1.082-1.908c0.066,0.753,0.295,1.444,0.558,2.116
					c0.279,0.672,0.607,1.326,1.083,1.916C284.565,263.657,284.335,262.959,284.072,262.287z M262.578,272.224
					c-0.673-0.269-1.361-0.504-2.119-0.58c0.58,0.488,1.23,0.816,1.895,1.11c0.681,0.269,1.37,0.504,2.119,0.58
					C263.894,272.847,263.244,272.519,262.578,272.224z M272.924,267.567c-0.277,0.673-0.504,1.361-0.58,2.119
					c0.48-0.58,0.807-1.238,1.101-1.903c0.278-0.665,0.505-1.353,0.588-2.111C273.546,266.252,273.219,266.902,272.924,267.567z"/>
				<path style="fill:#263238;" d="M287.061,266.386c-0.885,0.603-1.789,1.182-2.667,1.797c1.276-1.307,2.563-2.605,3.799-3.946
					c0.042-0.045-0.022-0.12-0.073-0.082c-1.629,1.237-3.069,2.732-4.557,4.13c-1.525,1.433-3.057,2.864-4.655,4.218
					c-1.592,1.349-3.232,2.645-5.007,3.745c-1.866,1.157-3.857,2.111-5.871,2.98c-1.14,0.492-2.292,0.958-3.451,1.402
					c-1.192,0.457-2.948,0.968-3.825,1.12c-0.24,0.042-0.108,0.143-0.025,0.133c1.053-0.129,2.228-0.442,3.235-0.765
					c1.093-0.351,2.188-0.696,3.275-1.064c2.08-0.703,4.139-1.491,6.077-2.53c3.8-2.039,6.889-4.97,9.839-8.07
					c0.057-0.06,0.116-0.118,0.173-0.178c0.526-0.37,1.044-0.751,1.55-1.151c0.731-0.578,1.481-1.118,2.257-1.634
					C287.203,266.447,287.13,266.339,287.061,266.386z"/>
			</g>
		</g>
	</g>
</g>
<g id="Layer_1">
</g>
</svg>
