<?xml version="1.0" encoding="iso-8859-1"?>
<!-- Generator: Adobe Illustrator 25.3.1, SVG Export Plug-In . SVG Version: 6.00 Build 0)  -->
<svg version="1.1" xmlns="http://www.w3.org/2000/svg" xmlns:xlink="http://www.w3.org/1999/xlink" x="0px" y="0px"
	 viewBox="0 0 750 500" style="enable-background:new 0 0 750 500;" xml:space="preserve">
<g id="char_x5F_3_x5F_hand_x5F_z_x5F_h">
	<g>
		<path style="fill:#C95F50;" d="M455.575,336.528c-6.381,14.889-14.515,27.276-18.012,28.633c-4.798,1.861-22.37,1.413-28.25,0.652
			c-2.531-0.328-0.122-19.945,2.586-19.614c6.909,0.844,19.663,0.86,19.938,1.044c0.57,0.383,13.935-11.928,17.706-15.777
			C457.928,322.909,458.745,329.133,455.575,336.528z"/>
		<g>
			<path style="fill:#263238;" d="M439.269,341.037c-1.718,1.786-3.5,3.502-5.377,5.132c-0.474,0.407-0.938,0.812-1.491,1.169
				c-0.163,0.078-0.243,0.204-0.593,0.23l-0.476-0.014l-0.928-0.035l-3.707-0.155c-2.468-0.158-4.937-0.287-7.403-0.479
				c-2.466-0.193-4.931-0.398-7.392-0.688c2.477-0.022,4.95,0.039,7.423,0.112c2.472,0.073,4.941,0.207,7.412,0.307l3.701,0.223
				l0.924,0.052l0.45,0.021c-0.034,0.027,0.147-0.058,0.25-0.125c0.487-0.312,0.983-0.693,1.468-1.063
				C435.462,344.204,437.344,342.595,439.269,341.037z"/>
		</g>
		<g>
			<path style="fill:#C95F50;" d="M397.308,346.342c1.306-0.311,1.151-0.999-1.015-1.999c-2.19-1.016-11.592-3.119-10.575-6.344
				c1.015-3.238,14.271-0.045,17.752,1.897c3.486,1.934,8.431,6.302,8.431,6.302C409.196,346.096,402.615,346.474,397.308,346.342z"
				/>
			<path style="fill:#C95F50;" d="M409.314,365.812c-7.781-0.391-17.45-0.715-24.52-5.618c-1.387-0.962-1.703-2.21-1.703-2.21
				c-3.208-2.141-3.16-4.299-3.16-4.299c-2.378-2.909-2.026-5.11-2.026-5.11s-3.739-2.554-2.57-5.071
				c1.302-2.826,6.299,1.315,10.439,1.912c9.486,1.367,23.352,0.658,26.127,0.78L409.314,365.812z"/>
			<g>
				<path style="fill:#263238;" d="M394.707,353.837c-2.784-0.458-5.53-0.835-8.237-1.668c-2.97-0.914-5.675-2.291-8.464-3.624
					c-0.087-0.042-0.154,0.075-0.074,0.13c4.666,3.213,11.104,5.14,16.756,5.289C394.825,353.967,394.847,353.86,394.707,353.837z"
					/>
				<path style="fill:#263238;" d="M394.714,359.682c-2.684-0.596-7.394-1.674-14.737-6.075c-0.024-0.014-0.056,0.022-0.032,0.041
					c4.387,3.492,9.23,5.415,14.74,6.162C394.856,359.833,394.892,359.722,394.714,359.682z"/>
				<path style="fill:#263238;" d="M394.659,362.823c-4.525-1.187-7.227-2.508-11.541-4.847c-0.025-0.013-0.054,0.026-0.029,0.043
					c4.624,3.172,6.661,3.799,11.551,4.965C394.808,363.025,394.836,362.87,394.659,362.823z"/>
			</g>
		</g>
		<g>
			<path style="fill:#063359;" d="M449.224,353.932l-9.959-15.292c0,0,4.134-4.52,10.221-9.614c6.087-5.094,9.663-3.26,7.041,7.114
				C453.906,346.512,449.224,353.932,449.224,353.932z"/>
			<path style="fill:#263238;" d="M441.5,337.182c0.867,1.049,1.582,2.235,2.357,3.351c0.74,1.066,1.481,2.134,2.186,3.223
				c1.464,2.263,2.877,4.549,4.244,6.872c0.024,0.04-0.041,0.086-0.068,0.047c-1.527-2.185-3.022-4.385-4.491-6.609
				c-0.73-1.105-1.432-2.23-2.132-3.354c-0.719-1.156-1.533-2.276-2.165-3.483C441.41,337.188,441.47,337.145,441.5,337.182z"/>
			<path style="fill:#263238;" d="M447.814,351.755c0.063,0.051,1.373,2.015,1.387,2.044c1.089-2.239,2.224-4.341,3.264-6.605
				c1.06-2.308,1.941-4.698,2.761-7.1c0.468-1.372,0.892-2.759,1.273-4.158c0.009-0.032,0.054-0.016,0.048,0.015
				c-0.247,1.232-0.538,2.451-0.869,3.658c0.25-0.58,0.473-1.172,0.67-1.774c0.02-0.06,0.105-0.03,0.091,0.029
				c-0.202,0.884-0.547,1.727-0.987,2.519c-1.01,3.476-2.36,6.845-4.035,10.07c-0.654,1.259-1.392,2.669-2.232,3.809
				c0,0.001-1.413-2.388-1.432-2.467C447.746,351.765,447.787,351.732,447.814,351.755z"/>
			<path style="fill:#263238;" d="M440.387,337.126c0.456-0.486,0.926-0.955,1.404-1.419c0.098-0.095,0.197-0.19,0.296-0.285
				c0.465-0.689,0.937-1.378,1.473-2.014c0.018-0.022,0.054-0.001,0.038,0.025c-0.33,0.547-0.703,1.067-1.086,1.579
				c0.736-0.703,1.49-1.393,2.292-2.017c0.026-0.02,0.055,0.014,0.033,0.037c-0.892,0.989-1.856,1.916-2.784,2.872
				c-0.449,0.462-2.715,2.689-2.698,2.723c0,0,0.892,1.49,0.915,1.589c0.026,0.111-0.023,0.063-0.048,0.03
				c-0.02-0.027-1.176-1.71-1.176-1.71C439.059,338.514,439.999,337.54,440.387,337.126z"/>
		</g>
	</g>
</g>
<g id="Layer_1">
</g>
</svg>
