<?xml version="1.0" encoding="iso-8859-1"?>
<!-- Generator: Adobe Illustrator 25.3.1, SVG Export Plug-In . SVG Version: 6.00 Build 0)  -->
<svg version="1.1" xmlns="http://www.w3.org/2000/svg" xmlns:xlink="http://www.w3.org/1999/xlink" x="0px" y="0px"
	 viewBox="0 0 750 500" style="enable-background:new 0 0 750 500;" xml:space="preserve">
<g id="gear_x5F_1">
	<g>
		<g>
			<g>
				<path style="fill:#DBDBDB;" d="M250.137,113.259c4.18,0.385,7.881-2.657,8.269-6.79c0.389-4.141-2.685-7.799-6.865-8.184
					c-4.176-0.385-7.873,2.653-8.261,6.79C242.891,109.209,245.961,112.875,250.137,113.259z M244.2,105.162
					c0.341-3.634,3.589-6.303,7.258-5.966c3.669,0.338,6.366,3.552,6.024,7.187c-0.341,3.631-3.589,6.3-7.262,5.962
					C246.556,112.007,243.859,108.793,244.2,105.162z M250.137,113.259c4.18,0.385,7.881-2.657,8.269-6.79
					c0.389-4.141-2.685-7.799-6.865-8.184c-4.176-0.385-7.873,2.653-8.261,6.79C242.891,109.209,245.961,112.875,250.137,113.259z
					 M244.2,105.162c0.341-3.634,3.589-6.303,7.258-5.966c3.669,0.338,6.366,3.552,6.024,7.187c-0.341,3.631-3.589,6.3-7.262,5.962
					C246.556,112.007,243.859,108.793,244.2,105.162z M250.137,113.259c4.18,0.385,7.881-2.657,8.269-6.79
					c0.389-4.141-2.685-7.799-6.865-8.184c-4.176-0.385-7.873,2.653-8.261,6.79C242.891,109.209,245.961,112.875,250.137,113.259z
					 M244.2,105.162c0.341-3.634,3.589-6.303,7.258-5.966c3.669,0.338,6.366,3.552,6.024,7.187c-0.341,3.631-3.589,6.3-7.262,5.962
					C246.556,112.007,243.859,108.793,244.2,105.162z M249.356,121.553c8.813,0.809,16.61-5.605,17.431-14.315
					c0.817-8.714-5.656-16.438-14.464-17.247c-8.801-0.809-16.606,5.601-17.423,14.315
					C234.078,113.016,240.555,120.744,249.356,121.553z M242.102,104.97c0.448-4.773,4.732-8.294,9.55-7.85
					c4.819,0.443,8.376,4.682,7.928,9.455c-0.448,4.773-4.735,8.29-9.554,7.846C245.211,113.978,241.654,109.739,242.102,104.97z
					 M243.28,105.076c-0.389,4.133,2.681,7.799,6.857,8.184c4.18,0.385,7.881-2.657,8.269-6.79c0.389-4.141-2.685-7.799-6.865-8.184
					C247.365,97.901,243.668,100.939,243.28,105.076z M244.2,105.162c0.341-3.634,3.589-6.303,7.258-5.966
					c3.669,0.338,6.366,3.552,6.024,7.187c-0.341,3.631-3.589,6.3-7.262,5.962C246.556,112.007,243.859,108.793,244.2,105.162z
					 M250.137,113.259c4.18,0.385,7.881-2.657,8.269-6.79c0.389-4.141-2.685-7.799-6.865-8.184c-4.176-0.385-7.873,2.653-8.261,6.79
					C242.891,109.209,245.961,112.875,250.137,113.259z M244.2,105.162c0.341-3.634,3.589-6.303,7.258-5.966
					c3.669,0.338,6.366,3.552,6.024,7.187c-0.341,3.631-3.589,6.3-7.262,5.962C246.556,112.007,243.859,108.793,244.2,105.162z
					 M250.137,113.259c4.18,0.385,7.881-2.657,8.269-6.79c0.389-4.141-2.685-7.799-6.865-8.184c-4.176-0.385-7.873,2.653-8.261,6.79
					C242.891,109.209,245.961,112.875,250.137,113.259z M244.2,105.162c0.341-3.634,3.589-6.303,7.258-5.966
					c3.669,0.338,6.366,3.552,6.024,7.187c-0.341,3.631-3.589,6.3-7.262,5.962C246.556,112.007,243.859,108.793,244.2,105.162z"/>
				<g>
					<polygon style="fill:#DBDBDB;" points="249.196,90.365 255.327,90.929 255.391,86.603 249.939,86.102 					"/>
					<polygon style="fill:#DBDBDB;" points="260.674,93.483 264.606,98.172 267.742,95.158 264.245,90.987 					"/>
					<polygon style="fill:#DBDBDB;" points="266.562,103.719 265.992,109.786 270.364,109.85 270.87,104.454 					"/>
					<polygon style="fill:#DBDBDB;" points="263.412,115.078 258.674,118.969 261.72,122.073 265.934,118.612 					"/>
					<polygon style="fill:#DBDBDB;" points="253.069,120.905 246.938,120.341 246.874,124.667 252.327,125.169 					"/>
					<polygon style="fill:#DBDBDB;" points="241.592,117.788 237.659,113.099 234.523,116.113 238.02,120.283 					"/>
					<polygon style="fill:#DBDBDB;" points="235.703,107.552 236.273,101.484 231.902,101.421 231.395,106.817 					"/>
					<polygon style="fill:#DBDBDB;" points="238.853,96.193 243.591,92.301 240.546,89.197 236.332,92.659 					"/>
				</g>
			</g>
		</g>
	</g>
</g>
<g id="Layer_1">
</g>
</svg>
