<?xml version="1.0" encoding="iso-8859-1"?>
<!-- Generator: Adobe Illustrator 25.3.1, SVG Export Plug-In . SVG Version: 6.00 Build 0)  -->
<svg version="1.1" xmlns="http://www.w3.org/2000/svg" xmlns:xlink="http://www.w3.org/1999/xlink" x="0px" y="0px"
	 viewBox="0 0 750 500" style="enable-background:new 0 0 750 500;" xml:space="preserve">
<g id="gear_x5F_2">
	<g>
		<g>
			<g>
				<path style="fill:#455A64;" d="M310.637,113.471c3.433,0.316,6.472-2.182,6.791-5.577c0.319-3.401-2.205-6.405-5.638-6.721
					c-3.43-0.316-6.466,2.179-6.785,5.577C304.686,110.144,307.207,113.155,310.637,113.471z M305.761,106.82
					c0.28-2.985,2.948-5.177,5.961-4.9c3.013,0.277,5.228,2.917,4.948,5.902c-0.28,2.982-2.948,5.174-5.964,4.897
					C307.696,112.442,305.481,109.802,305.761,106.82z M310.637,113.471c3.433,0.316,6.472-2.182,6.791-5.577
					c0.319-3.401-2.205-6.405-5.638-6.721c-3.43-0.316-6.466,2.179-6.785,5.577C304.686,110.144,307.207,113.155,310.637,113.471z
					 M305.761,106.82c0.28-2.985,2.948-5.177,5.961-4.9c3.013,0.277,5.228,2.917,4.948,5.902c-0.28,2.982-2.948,5.174-5.964,4.897
					C307.696,112.442,305.481,109.802,305.761,106.82z M310.637,113.471c3.433,0.316,6.472-2.182,6.791-5.577
					c0.319-3.401-2.205-6.405-5.638-6.721c-3.43-0.316-6.466,2.179-6.785,5.577C304.686,110.144,307.207,113.155,310.637,113.471z
					 M305.761,106.82c0.28-2.985,2.948-5.177,5.961-4.9c3.013,0.277,5.228,2.917,4.948,5.902c-0.28,2.982-2.948,5.174-5.964,4.897
					C307.696,112.442,305.481,109.802,305.761,106.82z M309.996,120.282c7.238,0.664,13.641-4.603,14.316-11.756
					c0.671-7.156-4.645-13.5-11.879-14.164c-7.228-0.664-13.638,4.6-14.309,11.756C297.449,113.271,302.768,119.618,309.996,120.282
					z M304.038,106.663c0.368-3.92,3.886-6.811,7.844-6.447c3.958,0.364,6.879,3.846,6.511,7.765
					c-0.368,3.92-3.889,6.808-7.847,6.444C306.592,114.061,303.67,110.579,304.038,106.663z M305.006,106.75
					c-0.319,3.395,2.202,6.405,5.632,6.721c3.433,0.316,6.472-2.182,6.791-5.577c0.319-3.401-2.205-6.405-5.638-6.721
					C308.361,100.857,305.325,103.352,305.006,106.75z M305.761,106.82c0.28-2.985,2.948-5.177,5.961-4.9
					c3.013,0.277,5.228,2.917,4.948,5.902c-0.28,2.982-2.948,5.174-5.964,4.897C307.696,112.442,305.481,109.802,305.761,106.82z
					 M310.637,113.471c3.433,0.316,6.472-2.182,6.791-5.577c0.319-3.401-2.205-6.405-5.638-6.721
					c-3.43-0.316-6.466,2.179-6.785,5.577C304.686,110.144,307.207,113.155,310.637,113.471z M305.761,106.82
					c0.28-2.985,2.948-5.177,5.961-4.9c3.013,0.277,5.228,2.917,4.948,5.902c-0.28,2.982-2.948,5.174-5.964,4.897
					C307.696,112.442,305.481,109.802,305.761,106.82z M310.637,113.471c3.433,0.316,6.472-2.182,6.791-5.577
					c0.319-3.401-2.205-6.405-5.638-6.721c-3.43-0.316-6.466,2.179-6.785,5.577C304.686,110.144,307.207,113.155,310.637,113.471z
					 M305.761,106.82c0.28-2.985,2.948-5.177,5.961-4.9c3.013,0.277,5.228,2.917,4.948,5.902c-0.28,2.982-2.948,5.174-5.964,4.897
					C307.696,112.442,305.481,109.802,305.761,106.82z"/>
				<g>
					<polygon style="fill:#455A64;" points="309.865,94.668 314.9,95.131 314.953,91.578 310.474,91.167 					"/>
					<polygon style="fill:#455A64;" points="319.291,97.229 322.521,101.08 325.097,98.604 322.224,95.179 					"/>
					<polygon style="fill:#455A64;" points="324.127,105.635 323.659,110.618 327.249,110.671 327.665,106.239 					"/>
					<polygon style="fill:#455A64;" points="321.54,114.964 317.649,118.16 320.15,120.709 323.611,117.867 					"/>
					<polygon style="fill:#455A64;" points="313.046,119.75 308.01,119.287 307.957,122.84 312.436,123.252 					"/>
					<polygon style="fill:#455A64;" points="303.619,117.19 300.39,113.339 297.814,115.814 300.686,119.239 					"/>
					<polygon style="fill:#455A64;" points="298.783,108.783 299.251,103.8 295.661,103.748 295.245,108.18 					"/>
					<polygon style="fill:#455A64;" points="301.37,99.454 305.262,96.258 302.76,93.709 299.299,96.552 					"/>
				</g>
			</g>
		</g>
	</g>
</g>
<g id="Layer_1">
</g>
</svg>
