<?xml version="1.0" encoding="iso-8859-1"?>
<!-- Generator: Adobe Illustrator 25.3.1, SVG Export Plug-In . SVG Version: 6.00 Build 0)  -->
<svg version="1.1" xmlns="http://www.w3.org/2000/svg" xmlns:xlink="http://www.w3.org/1999/xlink" x="0px" y="0px"
	 viewBox="0 0 750 500" style="enable-background:new 0 0 750 500;" xml:space="preserve">
<g id="gear_x5F_3">
	<g>
		<g>
			<path style="fill:#263238;" d="M254.451,144.468c0,12.127,9.939,21.963,22.193,21.963c12.259,0,22.193-9.836,22.193-21.963
				c0-12.133-9.933-21.963-22.193-21.963C264.39,122.505,254.451,132.335,254.451,144.468z M266.277,144.468
				c0-5.666,4.642-10.26,10.367-10.26s10.367,4.593,10.367,10.26s-4.641,10.254-10.367,10.254S266.277,150.134,266.277,144.468z"/>
			<polygon style="fill:#263238;" points="272.377,123.415 280.911,123.415 280.439,117.437 272.849,117.437 			"/>
			<polygon style="fill:#263238;" points="288.621,126.261 294.656,132.233 298.594,127.676 293.226,122.364 			"/>
			<polygon style="fill:#263238;" points="298.074,139.641 298.074,148.087 304.115,147.62 304.115,140.108 			"/>
			<polygon style="fill:#263238;" points="295.199,155.717 289.164,161.689 293.769,165.587 299.137,160.275 			"/>
			<polygon style="fill:#263238;" points="281.679,165.072 273.145,165.072 273.616,171.051 281.207,171.051 			"/>
			<polygon style="fill:#263238;" points="265.435,162.227 259.4,156.254 255.462,160.812 260.829,166.124 			"/>
			<polygon style="fill:#263238;" points="255.982,148.847 255.982,140.401 249.941,140.868 249.941,148.38 			"/>
			<polygon style="fill:#263238;" points="258.857,132.771 264.892,126.799 260.286,122.901 254.919,128.213 			"/>
		</g>
		<path style="fill:#263238;" d="M281.652,139.512l-6.843-1.816l-5.008,4.961l1.835,6.767l6.838,1.816l5.013-4.956L281.652,139.512z
			 M276.644,146.691c-1.243,0-2.246-0.992-2.246-2.223c0-1.225,1.003-2.223,2.246-2.223c1.238,0,2.246,0.997,2.246,2.223
			C278.89,145.699,277.882,146.691,276.644,146.691z"/>
	</g>
</g>
<g id="Layer_1">
</g>
</svg>
