<?xml version="1.0" encoding="iso-8859-1"?>
<!-- Generator: Adobe Illustrator 25.3.1, SVG Export Plug-In . SVG Version: 6.00 Build 0)  -->
<svg version="1.1" xmlns="http://www.w3.org/2000/svg" xmlns:xlink="http://www.w3.org/1999/xlink" x="0px" y="0px"
	 viewBox="0 0 750 500" style="enable-background:new 0 0 750 500;" xml:space="preserve">
<g id="ladder">
	<g>
		<g>
			<polygon style="fill:#FFC727;" points="288.278,381.196 283.482,381.196 244.946,201.76 204.353,201.76 227.55,381.196 
				222.816,381.196 199.077,197.603 248.847,197.603 			"/>
			<polygon style="opacity:0.6;" points="288.278,381.196 283.482,381.196 244.946,201.76 204.353,201.76 227.55,381.196 
				222.816,381.196 199.077,197.603 248.847,197.603 			"/>
			<g>
				<rect x="195.954" y="193.305" style="fill:#FFC727;" width="55.179" height="4.957"/>
				<rect x="195.954" y="193.305" style="opacity:0.4;" width="55.179" height="4.957"/>
			</g>
		</g>
		<g>
			<g>
				<polygon style="fill:#FFC727;" points="248.825,198.262 229.412,390.825 224.678,390.825 243.62,202.972 203.012,202.972 
					168.754,390.825 163.965,390.825 199.079,198.262 				"/>
				<rect x="195.799" y="239.66" style="fill:#FFC727;" width="47.985" height="4.71"/>
				<rect x="188.184" y="277.844" style="fill:#FFC727;" width="47.985" height="4.71"/>
				<rect x="180.067" y="316.028" style="fill:#FFC727;" width="52.365" height="4.71"/>
				<rect x="173.821" y="354.211" style="fill:#FFC727;" width="55.722" height="4.71"/>
			</g>
			<g style="opacity:0.4;">
				<polygon points="248.825,198.262 229.412,390.825 224.678,390.825 243.62,202.972 203.012,202.972 168.754,390.825 
					163.965,390.825 199.079,198.262 				"/>
				<rect x="195.799" y="239.66" width="47.985" height="4.71"/>
				<rect x="188.184" y="277.844" width="47.985" height="4.71"/>
				<rect x="180.067" y="316.028" width="52.365" height="4.71"/>
				<rect x="173.821" y="354.211" width="55.722" height="4.71"/>
			</g>
		</g>
	</g>
</g>
<g id="Layer_1">
</g>
</svg>
