<?xml version="1.0" encoding="iso-8859-1"?>
<!-- Generator: Adobe Illustrator 25.3.1, SVG Export Plug-In . SVG Version: 6.00 Build 0)  -->
<svg version="1.1" xmlns="http://www.w3.org/2000/svg" xmlns:xlink="http://www.w3.org/1999/xlink" x="0px" y="0px"
	 viewBox="0 0 750 500" style="enable-background:new 0 0 750 500;" xml:space="preserve">
<g id="painting_x5F_pot">
	<g>
		<path style="fill:#455A64;" d="M382.356,438.98h-16.965c-2.419,0-4.379-1.961-4.379-4.379v-23.63c0-2.419,1.961-4.379,4.379-4.379
			h16.965c2.419,0,4.379,1.961,4.379,4.379v23.63C386.735,437.019,384.775,438.98,382.356,438.98z"/>
		<rect x="364.258" y="401.479" style="fill:#455A64;" width="19.232" height="5.113"/>
		<path style="fill:#263238;" d="M365.438,406.479c4.469-0.219,15.414-0.231,16.892,0.014c0.033,0.005,0.033,0.06,0,0.066
			c-1.478,0.245-11.684,0.552-16.892,0.014C365.378,406.567,365.378,406.482,365.438,406.479z"/>
	</g>
</g>
<g id="Layer_1">
</g>
</svg>
