<svg width="60" height="60" viewBox="0 0 60 60" fill="none" xmlns="http://www.w3.org/2000/svg">
<path fill-rule="evenodd" clip-rule="evenodd" d="M30.1846 57.3751C14.9675 57.3751 2.63135 45.0389 2.63135 29.8218C2.63135 14.6047 14.9675 2.26855 30.1846 2.26855C45.4018 2.26855 57.7379 14.6047 57.7379 29.8218C57.7206 45.0317 45.3945 57.3578 30.1846 57.3751ZM43.709 24.4509C43.6893 25.4275 43.611 26.2984 43.4855 27.0926C42.7105 31.9562 38.4087 33.8059 34.2669 34.2309C35.6951 35.1304 36.105 36.259 36.105 39.3099C36.105 41.1843 36.0899 42.0626 36.0802 42.6239C36.0741 42.9768 36.0702 43.2043 36.0735 43.4752C36.0835 44.1928 36.7422 44.6768 37.2223 45.0295C37.5131 45.2432 37.7383 45.4087 37.7144 45.5489C37.6512 45.9198 36.3018 45.8597 35.671 45.6388C33.8842 45.0175 34.0627 43.5287 34.0627 43.5287L33.7939 39.4488C33.7939 39.4488 33.6397 37.2527 32.8939 37.2527V43.9336C32.8939 44.8357 33.3689 45.3479 33.728 45.735C33.9462 45.9701 34.1215 46.1592 34.1215 46.3615C34.1215 47.2852 32.3683 46.2744 31.7961 45.6984C31.0187 44.9175 31.0549 43.3576 31.0867 41.9882C31.0905 41.8217 31.0943 41.6581 31.0966 41.4991C31.1165 40.0819 31.1099 36.9797 31.1099 36.9797L30.5315 36.9923C30.5315 36.9923 30.7799 43.7656 30.2251 45.0021C29.5081 46.5852 27.3462 47.1316 27.3462 46.4084C27.3462 46.1981 27.4468 46.1082 27.5849 45.9848C27.7651 45.8239 28.0091 45.606 28.1762 44.9895C28.4279 44.0635 28.3431 37.1565 28.3431 37.1565C28.3431 37.1565 27.6497 37.5684 27.6497 38.8624C27.6497 39.1194 27.6467 39.9021 27.6432 40.788C27.6387 41.9428 27.6336 43.2728 27.6336 43.8422C27.6336 45.1084 25.8353 45.8284 24.9711 45.8284C24.5337 45.8284 23.9895 45.8064 23.9895 45.5739C23.9895 45.3347 24.2648 45.1361 24.5901 44.9015C25.0598 44.5627 25.6337 44.1488 25.6337 43.429C25.6337 42.3704 25.6111 39.656 25.6111 39.656C25.6111 39.656 24.7821 39.7958 23.5985 39.7958C20.617 39.7958 19.6739 37.8939 19.2255 36.8287C18.6418 35.4412 17.8844 34.7928 17.0803 34.2712C16.5856 33.9501 16.4722 33.5734 17.0433 33.4665C18.6291 33.1674 19.5057 34.3078 20.3351 35.3868C20.8863 36.1038 21.4165 36.7936 22.1202 37.016C23.3781 37.4115 24.9959 37.2396 25.8001 36.7196C25.9063 35.6532 26.6747 34.7328 27.3148 34.2465C23.0615 33.84 18.7315 31.4825 17.6923 26.018C17.6195 25.39 17.5765 24.7373 17.5765 24.0466C17.5765 21.2196 18.4408 20.1189 19.6117 18.628C19.6353 18.598 19.659 18.5678 19.6828 18.5375C18.7602 15.2474 20.0143 12.9985 20.0143 12.9985C20.0143 12.9985 21.9543 12.598 25.6221 15.2244C27.61 14.3717 32.9109 14.3 35.4193 15.0344C36.9578 14.018 39.7735 12.5744 40.9093 12.9776C41.2172 13.4716 41.8793 14.9148 41.3113 18.0874C41.3838 18.2179 41.5134 18.3761 41.6761 18.5749C42.3796 19.4342 43.7028 21.0503 43.709 24.4509Z" fill="#2E2E46"/>
<path d="M30.1839 0.299805C13.8799 0.299805 0.662598 13.5172 0.662598 29.8212C0.662598 46.1252 13.8799 59.3425 30.1839 59.3425C46.4879 59.3425 59.7053 46.1252 59.7053 29.8212C59.6871 13.5248 46.4803 0.318063 30.1839 0.299805ZM30.1839 57.3744C14.9668 57.3744 2.63069 45.0383 2.63069 29.8212C2.63069 14.604 14.9668 2.26789 30.1839 2.26789C45.4011 2.26789 57.7372 14.604 57.7372 29.8212C57.7199 45.0311 45.3939 57.3571 30.1839 57.3744Z" fill="#2E2E46"/>
</svg>
