<svg width="60" height="60" viewBox="0 0 60 60" fill="none" xmlns="http://www.w3.org/2000/svg">
<path fill-rule="evenodd" clip-rule="evenodd" d="M30.1846 57.5313C14.9675 57.5313 2.63135 45.1952 2.63135 29.978C2.63135 14.7609 14.9675 2.4248 30.1846 2.4248C45.4018 2.4248 57.7379 14.7609 57.7379 29.978C57.7206 45.188 45.3945 57.514 30.1846 57.5313ZM45.5539 41.9833V41.9844H39.8283V32.9885C39.8283 30.8448 39.7845 28.0956 36.8451 28.0956C33.8618 28.0956 33.4051 30.425 33.4051 32.834V41.9833H27.6739V23.506H33.178V26.0256H33.2587C34.0232 24.5738 35.896 23.0424 38.6867 23.0424C44.4918 23.0424 45.5608 26.8675 45.5608 31.8331V41.9833H45.5539ZM18.3414 23.5072H24.0796V41.9846H18.3414V23.5072ZM17.8846 17.6317C17.8846 15.797 19.3733 14.3083 21.208 14.3083C23.0415 14.3083 24.5303 15.797 24.5315 17.6317C24.5315 19.4664 23.0427 20.9863 21.208 20.9863C19.3733 20.9863 17.8846 19.4664 17.8846 17.6317Z" fill="#2E2E46"/>
<path d="M30.1839 0.456055C13.8799 0.456055 0.662598 13.6734 0.662598 29.9774C0.662598 46.2814 13.8799 59.4988 30.1839 59.4988C46.4879 59.4988 59.7053 46.2814 59.7053 29.9774C59.6871 13.6811 46.4803 0.474314 30.1839 0.456055ZM30.1839 57.5307C14.9668 57.5307 2.63069 45.1945 2.63069 29.9774C2.63069 14.7603 14.9668 2.42414 30.1839 2.42414C45.4011 2.42414 57.7372 14.7603 57.7372 29.9774C57.7199 45.1873 45.3939 57.5133 30.1839 57.5307Z" fill="#2E2E46"/>
</svg>
