<svg width="61" height="61" viewBox="0 0 61 61" fill="none" xmlns="http://www.w3.org/2000/svg">
<g clip-path="url(#clip0)">
<path d="M30.6713 1.42334C14.3672 1.42334 1.1499 14.6407 1.1499 30.9447C1.1499 47.2487 14.3672 60.466 30.6713 60.466C46.9753 60.466 60.1926 47.2487 60.1926 30.9447C60.1743 14.6483 46.9676 1.4416 30.6713 1.42334ZM30.6713 58.4979C15.4541 58.4979 3.11799 46.1619 3.11799 30.9447C3.11799 15.7275 15.4541 3.39143 30.6713 3.39143C45.8884 3.39143 58.2245 15.7275 58.2245 30.9447C58.2072 46.1547 45.8812 58.4807 30.6713 58.4979Z" fill="#2E2E46"/>
<path d="M43.972 28.2155C44.0975 27.4213 44.1759 26.5504 44.1955 25.5739C44.188 21.3867 42.1835 19.905 41.7979 19.2103C42.3659 16.0377 41.7038 14.5946 41.3959 14.1006C40.2601 13.6974 37.4443 15.1411 35.9059 16.1573C33.3975 15.4231 28.0966 15.4947 26.1087 16.3473C22.4409 13.721 20.501 14.1215 20.501 14.1215C20.501 14.1215 19.2468 16.3703 20.1694 19.6604C18.9626 21.1983 18.0631 22.2855 18.0631 25.1695C18.0631 25.8603 18.106 26.513 18.1788 27.141C19.2181 32.6055 23.5481 34.963 27.8014 35.3695C27.1613 35.8558 26.393 36.7762 26.2867 37.8426C25.4824 38.3626 23.8647 38.5344 22.6067 38.139C20.8442 37.582 20.1694 34.0916 17.5299 34.5895C16.9587 34.6963 17.0723 35.0731 17.5668 35.3943C18.371 35.9159 19.1283 36.5642 19.7121 37.9516C20.1605 39.0169 21.1035 40.9188 24.0851 40.9188C25.2687 40.9188 26.0977 40.7789 26.0977 40.7789C26.0977 40.7789 26.1203 43.4933 26.1203 44.5519C26.1203 45.7702 24.476 46.1123 24.476 46.6968C24.476 46.9293 25.0203 46.9514 25.4576 46.9514C26.3219 46.9514 28.1202 46.2314 28.1202 44.9651C28.1202 43.9589 28.1363 40.5774 28.1363 39.9853C28.1363 38.6914 28.8296 38.2795 28.8296 38.2795C28.8296 38.2795 28.9145 45.1864 28.6627 46.1124C28.3675 47.2014 27.8327 47.0466 27.8327 47.5313C27.8327 48.2546 29.9947 47.7082 30.7118 46.125C31.2665 44.8886 31.0181 38.1153 31.0181 38.1153L31.5964 38.1027C31.5964 38.1027 31.6031 41.2048 31.5831 42.622C31.5623 44.0899 31.4108 45.9455 32.2827 46.8214C32.8549 47.3974 34.6081 48.4081 34.6081 47.4845C34.6081 46.9491 33.3804 46.5068 33.3804 45.0565V38.3756C34.1263 38.3756 34.2804 40.5717 34.2804 40.5717L34.5493 44.6516C34.5493 44.6516 34.3707 46.1404 36.1575 46.7617C36.7883 46.9826 38.1378 47.0427 38.2011 46.6718C38.2644 46.3002 36.5762 45.7504 36.5602 44.5981C36.5515 43.8963 36.5916 43.4855 36.5916 40.4329C36.5916 37.3819 36.1818 36.2533 34.7535 35.3539C38.8952 34.9288 43.1971 33.0791 43.972 28.2155Z" fill="#2E2E46"/>
</g>
<defs>
<clipPath id="clip0">
<rect width="60" height="60" fill="white" transform="translate(0.762451 0.945312)"/>
</clipPath>
</defs>
</svg>
