<svg width="61" height="61" viewBox="0 0 61 61" fill="none" xmlns="http://www.w3.org/2000/svg">
<g clip-path="url(#clip0)">
<path d="M30.6713 0.549805C14.3672 0.549805 1.1499 13.9458 1.1499 30.4701C1.1499 46.9944 14.3672 60.3904 30.6713 60.3904C46.9753 60.3904 60.1926 46.9944 60.1926 30.4701C60.1743 13.9535 46.9676 0.56831 30.6713 0.549805ZM30.6713 58.3957C15.4541 58.3957 3.11799 45.8928 3.11799 30.4701C3.11799 15.0473 15.4541 2.54449 30.6713 2.54449C45.8884 2.54449 58.2245 15.0473 58.2245 30.4701C58.2072 45.8855 45.8812 58.3781 30.6713 58.3957Z" fill="#2E2E46"/>
<path d="M46.041 42.639V42.6378H46.0478V32.3504C46.0478 27.3177 44.9789 23.4409 39.1738 23.4409C36.383 23.4409 34.5103 24.9931 33.7458 26.4645H33.665V23.9108H28.1609V42.6378H33.8922V33.3649C33.8922 30.9233 34.3489 28.5625 37.3322 28.5625C40.2716 28.5625 40.3154 31.3488 40.3154 33.5215V42.639H46.041Z" fill="#2E2E46"/>
<path d="M18.8281 23.9111H24.5664V42.6382H18.8281V23.9111Z" fill="#2E2E46"/>
<path d="M21.6953 14.5884C19.8606 14.5884 18.3718 16.0972 18.3718 17.9567C18.3718 19.8162 19.8606 21.3566 21.6953 21.3566C23.53 21.3566 25.0188 19.8162 25.0188 17.9567C25.0176 16.0972 23.5289 14.5884 21.6953 14.5884Z" fill="#2E2E46"/>
</g>
<defs>
<clipPath id="clip0">
<rect width="60" height="60" fill="white" transform="translate(0.762451 0.46582)"/>
</clipPath>
</defs>
</svg>
