<svg width="61" height="61" viewBox="0 0 61 61" fill="none" xmlns="http://www.w3.org/2000/svg">
<g clip-path="url(#clip0)">
<path d="M30.6713 1.02148C14.3672 1.02148 1.1499 14.4174 1.1499 30.9417C1.1499 47.4661 14.3672 60.862 30.6713 60.862C46.9753 60.862 60.1926 47.4661 60.1926 30.9417C60.1743 14.4252 46.9676 1.03999 30.6713 1.02148ZM30.6713 58.8674C15.4541 58.8674 3.11799 46.3646 3.11799 30.9417C3.11799 15.519 15.4541 3.01617 30.6713 3.01617C45.8884 3.01617 58.2245 15.519 58.2245 30.9417C58.2072 46.3572 45.8812 58.8498 30.6713 58.8674Z" fill="#2E2E46"/>
<path d="M44.4483 18.9731H16.895C16.3515 18.9731 15.9109 19.4197 15.9109 19.9704V41.912C15.9109 42.4628 16.3515 42.9093 16.895 42.9093H44.4483C44.9917 42.9093 45.4323 42.4628 45.4323 41.912V19.9704C45.4323 19.4197 44.9917 18.9731 44.4483 18.9731ZM41.7911 20.9678L30.6716 30.6251L19.5521 20.9678H41.7911ZM17.879 40.9147V22.1385L30.0311 32.6954C30.3991 33.0148 30.9421 33.0148 31.3102 32.6954L43.4642 22.1385V40.9147H17.879Z" fill="#2E2E46"/>
</g>
<defs>
<clipPath id="clip0">
<rect width="60" height="60" fill="white" transform="translate(0.762451 0.945312)"/>
</clipPath>
</defs>
</svg>
