<svg xmlns="http://www.w3.org/2000/svg" viewBox="0 0 22.43 35.67"><defs><style>.cls-1{fill:#05066a;}.cls-2{fill:#b8b8ba;}.cls-3{fill:#c5c5c5;}.cls-4{fill:#c0c3c4;}.cls-5{fill:#f7f7f7;}.cls-6{fill:#c1c2c2;}.cls-7{fill:#f1f1f3;}.cls-8{fill:#06076a;}</style></defs><g id="Layer_2" data-name="Layer 2"><g id="Layer_1-2" data-name="Layer 1"><path class="cls-1" d="M5.28,26.46c-.7,0-1.39-.05-2.09-.05A3.34,3.34,0,0,1,0,23.26c0-3.19,0-6.39,0-9.58,0-.53.18-.68.68-.65a10.39,10.39,0,0,0,1.85,0,2.74,2.74,0,0,1,2.53,1.12,4.89,4.89,0,0,0,.37.35l.09-1.45c1.86,0,3.66,0,5.47,0a5,5,0,0,1,1.79.52c.3.14.48.53.71.8l.16-.1.07-1.16a4.79,4.79,0,0,1,.49-.05l5.13,0a2.75,2.75,0,0,1,3.09,3.07v9.15c0,1.25,0,1.25-1.28,1.25l-4.38,0-.12-1.87,0-7.35c0-.45,0-.9-.06-1.35a.88.88,0,0,0-.71-1,17.46,17.46,0,0,0-2-.17c0,1,.09,1.79.1,2.63,0,2.06,0,4.12,0,6.18,0,.76.24,1.05.86,1.12,1,.11,1,.11.95,1.09v.24c0,.38-.14.51-.51.5-1.07,0-2.14,0-3.21,0-2.5,0-3.87-1.36-3.87-3.85,0-2.25,0-4.49,0-6.74,0-.88-.27-1.13-1.15-1.14a6.84,6.84,0,0,0-1.11,0,.57.57,0,0,0-.37.4c0,.65,0,1.32,0,2,0,2,0,4,0,5.94a1.32,1.32,0,0,0,1,1.44c.88.17.88.17.85,1.08,0,.24,0,.49,0,.79Z"/><path class="cls-2" d="M16.65,24.69l.12,1.87q0,4.49,0,9a.67.67,0,0,1-.06.16H5.4V35q0-3.89,0-7.78a4.48,4.48,0,0,0-.11-.72H7.49c0-.3,0-.55,0-.79,0-.91,0-.91-.85-1.08a1.32,1.32,0,0,1-1-1.44c0-2,0-4,0-5.94,0-.65,0-1.32,0-2a.57.57,0,0,1,.37-.4,6.84,6.84,0,0,1,1.11,0c.88,0,1.14.26,1.15,1.14,0,2.25,0,4.49,0,6.74,0,2.49,1.37,3.85,3.87,3.85,1.07,0,2.14,0,3.21,0,.37,0,.54-.12.51-.5v-.24c0-1,0-1-.95-1.09-.62-.07-.86-.36-.86-1.12,0-2.06,0-4.12,0-6.18,0-.84-.07-1.67-.1-2.63a17.46,17.46,0,0,1,2,.17.88.88,0,0,1,.71,1,1.54,1.54,0,0,0-.21.52q0,3.84,0,7.7C16.41,24.38,16.56,24.53,16.65,24.69Z"/><path class="cls-3" d="M17.51,6.36a6.37,6.37,0,0,1-5.93,6.32A6.35,6.35,0,0,1,4.91,6.29a6.3,6.3,0,1,1,12.6.07ZM11.21.43A5.9,5.9,0,0,0,5.27,6.31a5.95,5.95,0,1,0,11.89.05A5.9,5.9,0,0,0,11.21.43Z"/><path class="cls-4" d="M16.65,24.69c-.09-.16-.24-.31-.24-.47q0-3.86,0-7.7a1.54,1.54,0,0,1,.21-.52c0,.44.06.89.06,1.34Z"/><path class="cls-5" d="M11.21.43a5.9,5.9,0,0,1,5.95,5.93A5.95,5.95,0,1,1,5.27,6.31,5.9,5.9,0,0,1,11.21.43Zm0,.88a5,5,0,0,0-5.09,5,5,5,0,0,0,5.07,5.11,5,5,0,0,0,5-5A5,5,0,0,0,11.25,1.31Z"/><path class="cls-6" d="M11.25,1.31a5,5,0,0,1,5,5.14,5,5,0,0,1-5,5A5,5,0,0,1,6.16,6.3,5,5,0,0,1,11.25,1.31ZM6.65,6.38A4.68,4.68,0,0,0,11.22,11a4.68,4.68,0,0,0,4.56-4.57,4.51,4.51,0,0,0-4.63-4.57A4.5,4.5,0,0,0,6.65,6.38Z"/><path class="cls-7" d="M6.65,6.38a4.5,4.5,0,0,1,4.5-4.57,4.51,4.51,0,0,1,4.63,4.57A4.68,4.68,0,0,1,11.22,11,4.68,4.68,0,0,1,6.65,6.38Zm1-.12a3.53,3.53,0,1,0,3.56-3.45A3.53,3.53,0,0,0,7.69,6.26Z"/><path class="cls-8" d="M7.69,6.26a3.53,3.53,0,1,1,3.45,3.62A3.54,3.54,0,0,1,7.69,6.26Z"/></g></g></svg>