<svg width="44" height="44" viewBox="0 0 44 44" fill="none" xmlns="http://www.w3.org/2000/svg">
<circle cx="22" cy="22" r="22" fill="white"/>
<path fill-rule="evenodd" clip-rule="evenodd" d="M22 42C33.0457 42 42 33.0457 42 22C42 10.9543 33.0457 2 22 2C10.9543 2 2 10.9543 2 22C2 33.0457 10.9543 42 22 42ZM27.4218 15.0157V11.6L25.6929 11.6068C24.7421 11.6106 23.8022 11.6367 23.6044 11.6649C23.16 11.7283 22.3531 11.9944 22.0087 12.1911C21.1376 12.6888 20.5057 13.4344 20.1466 14.3883C19.8571 15.1573 19.8322 15.3733 19.8032 17.367L19.776 19.234H16.5781V22.8851H19.787V32.4H23.6038L23.6321 22.9128L27.2559 22.8836V19.234H23.5953L23.6321 16.1556L23.7989 15.8296C23.9798 15.476 24.2867 15.2361 24.6917 15.1316C24.8087 15.1014 25.471 15.0629 26.1632 15.0462L27.4218 15.0157Z" fill="#222222"/>
</svg>
