<svg width="44" height="44" viewBox="0 0 44 44" fill="none" xmlns="http://www.w3.org/2000/svg">
<circle cx="22" cy="22" r="22" fill="white"/>
<path fill-rule="evenodd" clip-rule="evenodd" d="M2 22C2 10.9544 10.9544 2 22 2C33.0404 2.01234 41.9877 10.9597 42 22C42 33.0456 33.0456 42 22 42C10.9544 42 2 33.0456 2 22ZM31.0115 20.1515C31.0965 19.6134 31.1496 19.0234 31.1629 18.3618C31.1587 16.0579 30.2623 14.9631 29.7857 14.3809C29.6754 14.2463 29.5876 14.139 29.5385 14.0507C29.9233 11.9013 29.4748 10.9236 29.2662 10.5889C28.4967 10.3158 26.5891 11.2938 25.5468 11.9823C23.8475 11.4848 20.2562 11.5334 18.9095 12.111C16.4246 10.3318 15.1103 10.6031 15.1103 10.6031C15.1103 10.6031 14.2607 12.1267 14.8857 14.3556L14.8375 14.4169C14.0443 15.427 13.4588 16.1726 13.4588 18.0879C13.4588 18.5558 13.4879 18.998 13.5372 19.4234C14.2413 23.1255 17.1747 24.7226 20.0563 24.9981C19.6226 25.3275 19.102 25.951 19.0301 26.6735C18.4852 27.0258 17.3892 27.1423 16.537 26.8743C16.0604 26.7237 15.7013 26.2566 15.328 25.7711C14.7661 25.0401 14.1718 24.267 13.0975 24.4696C12.7106 24.5421 12.7875 24.7973 13.1226 25.0148C13.6674 25.3682 14.1805 25.8075 14.576 26.7474C14.8797 27.4691 15.5186 28.7576 17.5385 28.7576C18.3404 28.7576 18.902 28.6628 18.902 28.6628C18.902 28.6628 18.9173 30.5018 18.9173 31.219C18.9173 31.7066 18.5285 31.987 18.2103 32.2165C17.9899 32.3755 17.8034 32.51 17.8034 32.6721C17.8034 32.8296 18.1721 32.8445 18.4684 32.8445C19.0539 32.8445 20.2722 32.3567 20.2722 31.4989C20.2722 31.1131 20.2757 30.2121 20.2787 29.4298C20.2811 28.8296 20.2831 28.2993 20.2831 28.1252C20.2831 27.2486 20.7529 26.9695 20.7529 26.9695C20.7529 26.9695 20.8103 31.6488 20.6398 32.2762C20.5266 32.6938 20.3613 32.8414 20.2392 32.9505C20.1457 33.0341 20.0775 33.095 20.0775 33.2374C20.0775 33.7274 21.5421 33.3572 22.0279 32.2847C22.4038 31.4471 22.2354 26.8582 22.2354 26.8582L22.6273 26.8497C22.6273 26.8497 22.6318 28.9514 22.6183 29.9115C22.6167 30.0192 22.6142 30.1301 22.6116 30.2429C22.5901 31.1706 22.5656 32.2274 23.0922 32.7565C23.4799 33.1467 24.6676 33.8314 24.6676 33.2057C24.6676 33.0686 24.5488 32.9405 24.401 32.7812C24.1577 32.519 23.8359 32.172 23.8359 31.5608V27.0347C24.3412 27.0347 24.4456 28.5225 24.4456 28.5225L24.6277 31.2865C24.6277 31.2865 24.5068 32.2951 25.7173 32.716C26.1447 32.8657 27.0589 32.9064 27.1017 32.6552C27.1179 32.5601 26.9653 32.448 26.7683 32.3033C26.443 32.0643 25.9968 31.7365 25.9901 31.2502C25.9887 31.1394 25.9891 31.0393 25.9906 30.9247C25.9915 30.8496 25.9929 30.7682 25.9946 30.6735C26.0011 30.2933 26.0114 29.6982 26.0114 28.4284C26.0114 26.3615 25.7337 25.5968 24.7661 24.9875C27.572 24.6995 30.4864 23.4464 31.0115 20.1515Z" fill="#222222"/>
</svg>
