<svg width="44" height="44" viewBox="0 0 44 44" fill="none" xmlns="http://www.w3.org/2000/svg">
<circle cx="22" cy="22" r="22" fill="white"/>
<path d="M19.1906 22.0531C19.1906 23.6051 20.4488 24.8632 22.0007 24.8632C23.5527 24.8632 24.8109 23.6051 24.8109 22.0531C24.8109 20.5011 23.5527 19.243 22.0007 19.243C20.4488 19.243 19.1906 20.5011 19.1906 22.0531Z" fill="#222222"/>
<path fill-rule="evenodd" clip-rule="evenodd" d="M17.7031 14.3565H26.2964C28.1742 14.3565 29.6964 15.8787 29.6964 17.7565V26.3498C29.6964 28.2276 28.1742 29.7498 26.2964 29.7498H17.7031C15.8254 29.7498 14.3031 28.2276 14.3031 26.3498V17.7565C14.3031 15.8787 15.8254 14.3565 17.7031 14.3565ZM22.0007 17.643C19.5651 17.643 17.5906 19.6175 17.5906 22.0531C17.5906 24.4888 19.5651 26.4632 22.0007 26.4632C24.4364 26.4632 26.4109 24.4888 26.4109 22.0531C26.4109 19.6175 24.4364 17.643 22.0007 17.643ZM27.0058 15.7981C26.396 15.7981 25.9016 16.2925 25.9016 16.9024C25.9016 17.5123 26.396 18.0067 27.0058 18.0067C27.6157 18.0067 28.1101 17.5123 28.1101 16.9024C28.1101 16.2925 27.6157 15.7981 27.0058 15.7981Z" fill="#222222"/>
<path fill-rule="evenodd" clip-rule="evenodd" d="M22 42C33.0457 42 42 33.0457 42 22C42 10.9543 33.0457 2 22 2C10.9543 2 2 10.9543 2 22C2 33.0457 10.9543 42 22 42ZM12.7031 17.7565C12.7031 14.995 14.9417 12.7565 17.7031 12.7565H26.2964C29.0579 12.7565 31.2964 14.995 31.2964 17.7565V26.3498C31.2964 29.1112 29.0579 31.3498 26.2964 31.3498H17.7031C14.9417 31.3498 12.7031 29.1112 12.7031 26.3498V17.7565Z" fill="#222222"/>
</svg>
