<svg width="44" height="44" viewBox="0 0 44 44" fill="none" xmlns="http://www.w3.org/2000/svg">
<circle cx="22" cy="22" r="22" fill="white"/>
<path fill-rule="evenodd" clip-rule="evenodd" d="M2 22C2 10.9544 10.9544 2 22 2C33.0404 2.01234 41.9877 10.9597 42 22C42 33.0456 33.0456 42 22 42C10.9544 42 2 33.0456 2 22ZM32.4175 30.1338V23.2572C32.4175 19.8931 31.6932 17.3017 27.7604 17.3017C25.8698 17.3017 24.601 18.3392 24.0831 19.3228H24.0284V17.6158H20.2995V30.1338H24.1823V23.9354C24.1823 22.3033 24.4916 20.7252 26.5128 20.7252C28.5042 20.7252 28.5339 22.5877 28.5339 24.04V30.1345L32.4175 30.1338ZM17.8645 17.6167H13.977V30.1346H17.8645V17.6167ZM15.919 11.3846C14.676 11.3846 13.6675 12.3932 13.6675 13.6362C13.6675 14.8791 14.676 15.9088 15.919 15.9088C17.162 15.9088 18.1706 14.8791 18.1706 13.6362C18.1698 12.3932 17.1612 11.3846 15.919 11.3846Z" fill="#222222"/>
</svg>
