<svg width="44" height="44" viewBox="0 0 44 44" fill="none" xmlns="http://www.w3.org/2000/svg">
<circle cx="22" cy="22" r="22" fill="white"/>
<path d="M29.5336 15.3338L22.0004 21.7892L14.4672 15.3338H29.5336Z" fill="#222222"/>
<path d="M13.3337 28.6671V16.1164L21.5665 23.173C21.8158 23.3865 22.1837 23.3865 22.433 23.173L30.6671 16.1164V28.6671H13.3337Z" fill="#222222"/>
<path fill-rule="evenodd" clip-rule="evenodd" d="M2 22C2 10.9544 10.9544 2 22 2C33.0404 2.01234 41.9877 10.9597 42 22C42 33.0456 33.0456 42 22 42C10.9544 42 2 33.0456 2 22ZM31.3337 14.0004H12.6671C12.2989 14.0004 12.0004 14.2989 12.0004 14.6671V29.3338C12.0004 29.702 12.2989 30.0004 12.6671 30.0004H31.3337C31.7019 30.0004 32.0004 29.702 32.0004 29.3338V14.6671C32.0004 14.2989 31.7019 14.0004 31.3337 14.0004Z" fill="#222222"/>
</svg>
