<svg width="44" height="44" viewBox="0 0 44 44" fill="none" xmlns="http://www.w3.org/2000/svg">
<circle cx="22" cy="22" r="22" fill="white"/>
<path fill-rule="evenodd" clip-rule="evenodd" d="M22 42C10.9543 42 2 33.0457 2 22V22C2 10.9543 10.9543 2 22 2V2C33.0457 2 42 10.9543 42 22V22C42 33.0457 33.0457 42 22 42V42ZM17.3352 16.5345C17.5601 16.5736 17.8567 16.637 17.9944 16.6754C18.3487 16.7743 19.2892 17.178 19.3576 17.2605C19.3891 17.2985 19.4329 17.3296 19.455 17.3296C19.5106 17.3296 19.7732 17.5118 20.133 17.8C20.4865 18.0832 20.9381 18.5538 21.1244 18.8334C21.196 18.9408 21.315 19.1176 21.3887 19.2263C22.2904 20.5562 22.5786 22.5324 22.1021 24.1185C21.9043 24.7772 21.595 25.4384 21.3034 25.8262C21.2232 25.933 21.1203 26.0784 21.075 26.1493C20.8207 26.5466 20.0468 27.237 19.4272 27.6193C19.1236 27.8066 18.5734 28.05 18.0806 28.2151C17.1518 28.5261 15.6221 28.5267 14.6422 28.2162C14.3008 28.1081 14.2641 28.0934 13.8679 27.9055C13.7198 27.8353 13.5841 27.7778 13.5664 27.7778C13.5214 27.7778 13.1902 27.5599 12.7893 27.2666C12.389 26.9738 11.8419 26.4235 11.5503 26.0204C11.3346 25.7221 10.9392 25.0664 10.9392 25.0069C10.9392 24.9883 10.8881 24.8513 10.8256 24.7023C10.5585 24.0659 10.3622 23.1141 10.3622 22.4555C10.3622 21.7916 10.5554 20.8562 10.8256 20.2125C10.8881 20.0635 10.9392 19.9265 10.9392 19.9079C10.9392 19.8375 11.3502 19.1693 11.5922 18.8463C11.9206 18.408 12.282 18.0351 12.6705 17.7339C12.9812 17.493 13.5142 17.137 13.5641 17.137C13.5785 17.137 13.7025 17.0858 13.8397 17.0231C14.5107 16.7166 14.7404 16.6418 15.3395 16.535C15.8175 16.4499 16.8475 16.4496 17.3352 16.5345ZM26.2935 16.8675C26.7038 16.9744 27.0018 17.1594 27.338 17.5158C28.0166 18.2351 28.4472 19.205 28.741 20.6759C28.8337 21.1401 28.8468 21.3603 28.8468 22.4574C28.8468 23.5545 28.8337 23.7747 28.741 24.2389C28.4496 25.6979 28.0339 26.6394 27.351 27.387C26.7998 27.9904 26.0883 28.2382 25.4576 28.0465C24.7495 27.8313 24.1223 27.1795 23.6238 26.1407C23.5168 25.9178 23.2256 25.024 23.161 24.7204L23.1573 24.7028C23.0537 24.2159 22.9991 23.9594 22.9703 23.7C22.9383 23.4112 22.9382 23.1189 22.9381 22.5013L22.938 22.4815C22.9377 21.0671 23.0133 20.5604 23.4013 19.3759C23.5704 18.8597 23.6299 18.7313 23.9464 18.1991C24.5805 17.1328 25.4404 16.645 26.2935 16.8675ZM30.731 17.5343C30.9252 17.7488 30.9774 17.8518 31.1095 18.2818C31.2211 18.6452 31.2518 18.8007 31.3969 19.737C31.4828 20.2913 31.5708 21.6677 31.5708 22.4574C31.5708 23.2332 31.4834 24.62 31.4008 25.1537C31.3639 25.392 31.3085 25.7495 31.2775 25.9482C31.22 26.3179 31.0913 26.7561 30.9522 27.0556C30.8579 27.2586 30.6128 27.537 30.5283 27.537C30.4947 27.537 30.3938 27.4725 30.304 27.3936C30.0754 27.1926 29.7734 26.3253 29.6918 25.6352C29.6729 25.4763 29.6202 25.0863 29.5746 24.7685C29.4569 23.9486 29.455 20.9886 29.5717 20.1463C29.6157 19.8285 29.6698 19.4385 29.6918 19.2796C29.7963 18.5265 30.0768 17.721 30.304 17.5212C30.3938 17.4423 30.4947 17.3778 30.5283 17.3778C30.5619 17.3778 30.653 17.4482 30.731 17.5343Z" fill="#222222"/>
</svg>
