<svg width="44" height="44" viewBox="0 0 44 44" fill="none" xmlns="http://www.w3.org/2000/svg">
<circle cx="22" cy="22" r="22" fill="white"/>
<path d="M25.196 22.0001L19.9999 19.0001V25.0002L25.196 22.0001Z" fill="#222222"/>
<path fill-rule="evenodd" clip-rule="evenodd" d="M42 22C42 33.0457 33.0457 42 22 42C10.9543 42 2 33.0457 2 22C2 10.9543 10.9543 2 22 2C33.0457 2 42 10.9543 42 22ZM29.8141 15.418C30.6746 15.648 31.3522 16.3256 31.5822 17.1861C32 18.7458 32 22.0001 32 22.0001C32 22.0001 32 25.2543 31.5822 26.8139C31.3522 27.6744 30.6746 28.3523 29.8141 28.5822C28.2542 29 22 29 22 29C22 29 15.7458 29 14.1859 28.5822C13.3256 28.3523 12.6478 27.6744 12.4178 26.8139C12 25.2543 12 22.0001 12 22.0001C12 22.0001 12 18.7458 12.4178 17.1861C12.6478 16.3256 13.3256 15.648 14.1859 15.418C15.7458 15 22 15 22 15C22 15 28.2542 15 29.8141 15.418Z" fill="#222222"/>
</svg>
